<?xml version="1.0" encoding="UTF-8" standalone="no"?>
<svg
   xmlns:dc="http://purl.org/dc/elements/1.1/"
   xmlns:cc="http://creativecommons.org/ns#"
   xmlns:rdf="http://www.w3.org/1999/02/22-rdf-syntax-ns#"
   xmlns:svg="http://www.w3.org/2000/svg"
   xmlns="http://www.w3.org/2000/svg"
   xmlns:xlink="http://www.w3.org/1999/xlink"
   xmlns:sodipodi="http://sodipodi.sourceforge.net/DTD/sodipodi-0.dtd"
   xmlns:inkscape="http://www.inkscape.org/namespaces/inkscape"
   sodipodi:docname="01_crack_line_with_green_diamond.svg"
   inkscape:version="1.0 (4035a4fb49, 2020-05-01)"
   id="svg15331"
   version="1.1"
   viewBox="0 0 142.8689 20.201363"
   height="20.201363mm"
   width="142.8689mm">
  <defs
     id="defs15325">
    <filter
       inkscape:collect="always"
       style="color-interpolation-filters:sRGB"
       id="filter2887"
       x="-0.0015227528"
       width="1.0030456"
       y="-0.10038883"
       height="1.2007776">
      <feGaussianBlur
         inkscape:collect="always"
         stdDeviation="0.090365841"
         id="feGaussianBlur2889" />
    </filter>
    <filter
       inkscape:collect="always"
       style="color-interpolation-filters:sRGB"
       id="filter3809"
       x="-0.0083717741"
       width="1.0167435"
       y="-0.021178514"
       height="1.042357">
      <feGaussianBlur
         inkscape:collect="always"
         stdDeviation="0.0662238"
         id="feGaussianBlur3811" />
    </filter>
    <linearGradient
       inkscape:collect="always"
       xlink:href="#linearGradient3059"
       id="linearGradient14605"
       gradientUnits="userSpaceOnUse"
       gradientTransform="matrix(1.4259925,0,0,1.4259925,75.648047,-77.982267)"
       x1="-3.9725881"
       y1="119.70085"
       x2="-3.9725881"
       y2="112.20984" />
    <linearGradient
       id="linearGradient3059"
       inkscape:collect="always">
      <stop
         id="stop3053"
         offset="0"
         style="stop-color:#17191c;stop-opacity:1" />
      <stop
         style="stop-color:#24262b;stop-opacity:1"
         offset="0.49999997"
         id="stop3055" />
      <stop
         id="stop3057"
         offset="1"
         style="stop-color:#363941;stop-opacity:1" />
    </linearGradient>
    <filter
       inkscape:collect="always"
       style="color-interpolation-filters:sRGB"
       id="filter3978"
       x="-0.27736685"
       width="1.5547338"
       y="-0.27736685"
       height="1.5547338">
      <feGaussianBlur
         inkscape:collect="always"
         stdDeviation="0.85382899"
         id="feGaussianBlur3980" />
    </filter>
  </defs>
  <sodipodi:namedview
     inkscape:window-maximized="1"
     inkscape:window-y="-8"
     inkscape:window-x="-8"
     inkscape:window-height="705"
     inkscape:window-width="1366"
     fit-margin-bottom="0"
     fit-margin-right="0"
     fit-margin-left="0"
     fit-margin-top="0"
     showgrid="false"
     inkscape:document-rotation="0"
     inkscape:current-layer="layer1"
     inkscape:document-units="mm"
     inkscape:cy="51.524945"
     inkscape:cx="338.55276"
     inkscape:zoom="15.186322"
     inkscape:pageshadow="2"
     inkscape:pageopacity="0.0"
     borderopacity="1.0"
     bordercolor="#666666"
     pagecolor="#ffffff"
     id="base" />
  <metadata
     id="metadata15328">
    <rdf:RDF>
      <cc:Work
         rdf:about="">
        <dc:format>image/svg+xml</dc:format>
        <dc:type
           rdf:resource="http://purl.org/dc/dcmitype/StillImage" />
        <dc:title></dc:title>
      </cc:Work>
    </rdf:RDF>
  </metadata>
  <g
     transform="translate(2.8634334,-78.492783)"
     id="layer1"
     inkscape:groupmode="layer"
     inkscape:label="Layer 1">
    <path
       style="color:#000000;font-style:normal;font-variant:normal;font-weight:normal;font-stretch:normal;font-size:medium;line-height:normal;font-family:sans-serif;font-variant-ligatures:normal;font-variant-position:normal;font-variant-caps:normal;font-variant-numeric:normal;font-variant-alternates:normal;font-variant-east-asian:normal;font-feature-settings:normal;font-variation-settings:normal;text-indent:0;text-align:start;text-decoration:none;text-decoration-line:none;text-decoration-style:solid;text-decoration-color:#000000;letter-spacing:normal;word-spacing:normal;text-transform:none;writing-mode:lr-tb;direction:ltr;text-orientation:mixed;dominant-baseline:auto;baseline-shift:baseline;text-anchor:start;white-space:normal;shape-padding:0;shape-margin:0;inline-size:0;clip-rule:nonzero;display:inline;overflow:visible;visibility:visible;opacity:1;isolation:auto;mix-blend-mode:normal;color-interpolation:sRGB;color-interpolation-filters:linearRGB;solid-color:#000000;solid-opacity:1;vector-effect:none;fill:#abadb4;fill-opacity:0.647059;fill-rule:nonzero;stroke:none;stroke-width:0.396875;stroke-linecap:butt;stroke-linejoin:miter;stroke-miterlimit:4;stroke-dasharray:none;stroke-dashoffset:0;stroke-opacity:1;filter:url(#filter2887);color-rendering:auto;image-rendering:auto;shape-rendering:auto;text-rendering:auto;enable-background:accumulate;stop-color:#000000;stop-opacity:1"
       d="m 74.405367,88.597645 -18.82812,1.3945 -17.61524,-0.2793 -0.83398,0.5567 -15.90235,-0.625 -14.0742199,0.6269 -9.7460901,-0.6465 -0.0273,0.3965 9.7675701,0.6465 14.0800799,-0.6269 16.01563,0.6289 0.83789,-0.5586 17.50976,0.2773 18.80469,-1.3926 10.63086,1.4239 1.91602,0.94331 2.23437,-0.057 2.47267,1.1152 0.16211,-0.3613 -2.5547,-1.1523 -2.22656,0.055 -1.88672,-0.92771 z m 35.544923,0.6289 -23.998043,0.07 -0.43946,0.459 0.28711,0.2734 0.32227,-0.3359 23.810543,-0.07 17.36133,1.53321 12.54297,-1.24411 -0.0391,-0.3965 -12.50586,1.2422 z"
       id="path15276" />
    <path
       style="color:#000000;font-style:normal;font-variant:normal;font-weight:normal;font-stretch:normal;font-size:medium;line-height:normal;font-family:sans-serif;font-variant-ligatures:normal;font-variant-position:normal;font-variant-caps:normal;font-variant-numeric:normal;font-variant-alternates:normal;font-variant-east-asian:normal;font-feature-settings:normal;font-variation-settings:normal;text-indent:0;text-align:start;text-decoration:none;text-decoration-line:none;text-decoration-style:solid;text-decoration-color:#000000;letter-spacing:normal;word-spacing:normal;text-transform:none;writing-mode:lr-tb;direction:ltr;text-orientation:mixed;dominant-baseline:auto;baseline-shift:baseline;text-anchor:start;white-space:normal;shape-padding:0;shape-margin:0;inline-size:0;clip-rule:nonzero;display:inline;overflow:visible;visibility:visible;opacity:1;isolation:auto;mix-blend-mode:normal;color-interpolation:sRGB;color-interpolation-filters:linearRGB;solid-color:#000000;solid-opacity:1;vector-effect:none;fill:#abadb4;fill-opacity:0.647059;fill-rule:nonzero;stroke:none;stroke-width:0.396875;stroke-linecap:butt;stroke-linejoin:miter;stroke-miterlimit:4;stroke-dasharray:none;stroke-dashoffset:0;stroke-opacity:1;filter:url(#filter3809);color-rendering:auto;image-rendering:auto;shape-rendering:auto;text-rendering:auto;enable-background:accumulate;stop-color:#000000;stop-opacity:1"
       d="m 18.569427,82.187445 -0.13086,0.375 7.72461,2.6895 8.81055,1.4668 2.35352,3.2754 0.32226,-0.2305 -2.44922,-3.4082 -8.93945,-1.4902 z"
       id="path15280" />
    <path
       style="color:#000000;font-style:normal;font-variant:normal;font-weight:normal;font-stretch:normal;font-size:medium;line-height:normal;font-family:sans-serif;font-variant-ligatures:normal;font-variant-position:normal;font-variant-caps:normal;font-variant-numeric:normal;font-variant-alternates:normal;font-variant-east-asian:normal;font-feature-settings:normal;font-variation-settings:normal;text-indent:0;text-align:start;text-decoration:none;text-decoration-line:none;text-decoration-style:solid;text-decoration-color:#000000;letter-spacing:normal;word-spacing:normal;text-transform:none;writing-mode:lr-tb;direction:ltr;text-orientation:mixed;dominant-baseline:auto;baseline-shift:baseline;text-anchor:start;white-space:normal;shape-padding:0;shape-margin:0;inline-size:0;clip-rule:nonzero;display:inline;overflow:visible;visibility:visible;opacity:1;isolation:auto;mix-blend-mode:normal;color-interpolation:sRGB;color-interpolation-filters:linearRGB;solid-color:#000000;solid-opacity:1;vector-effect:none;fill:#24262b;fill-opacity:1;fill-rule:nonzero;stroke:none;stroke-width:0.529167;stroke-linecap:butt;stroke-linejoin:miter;stroke-miterlimit:4;stroke-dasharray:none;stroke-dashoffset:0;stroke-opacity:1;color-rendering:auto;image-rendering:auto;shape-rendering:auto;text-rendering:auto;enable-background:accumulate;stop-color:#000000;stop-opacity:1"
       d="m 74.241307,88.203145 -18.83203,1.3945 -17.63282,-0.2793 -0.83203,0.5547 -15.88476,-0.625 -14.0742199,0.6269 -9.7421901,-0.6445 -0.0352,0.5274 9.7714901,0.6484 14.0820299,-0.627 16.0332,0.629 0.83789,-0.5586 17.49219,0.2773 18.80078,-1.3926 11.04492,1.4063 0.71094,-0.711 23.783213,-0.07 17.36523,1.5352 12.54688,-1.2461 -0.0527,-0.5274 -12.49805,1.2422 -17.33984,-1.5332 -24.025393,0.07 -0.68164,0.6836 z"
       id="path15284" />
    <path
       sodipodi:nodetypes="ccccc"
       id="path12480"
       d="m 9.6538871,81.741745 c 2.0338499,0.1055 5.2257999,0.3002 8.9155499,0.5332 2.40382,0.8345 5.05041,1.7573 7.69638,2.68 0.005,0 0.008,0 0.0121,0 h 0.0173 -0.0173 0.0173 c 3.04442,0.5086 6.08814,1.017 8.85753,1.4762 0.98367,1.3892 1.83813,2.5841 2.40157,3.3414 v 0 c 0.003,0 0.29839,-0.1999 0.30103,-0.1964 -0.003,0 0.27728,-0.2283 0.27465,-0.2319 v 0 c -0.57594,-0.7741 -1.50241,-1.9708 -2.58021,-3.35 0,0 -0.0757,-0.097 -0.0757,-0.097 l -0.11161,-0.016 0.11162,0.016 -0.11162,-0.016 c -2.80755,-0.4018 -5.90308,-0.8408 -8.99973,-1.2799 -2.66786,-0.8487 -5.33584,-1.6974 -7.75673,-2.4712 0,0 -0.01,0 -0.01,0 l -0.009,-4e-4 0.009,4e-4 -0.009,-4e-4 c -3.69849,-0.1499 -6.89757,-0.2865 -8.9333399,-0.3921 z"
       style="fill:#24262b;fill-opacity:1;fill-rule:nonzero;stroke:none;stroke-width:0.264583px;stroke-linecap:butt;stroke-linejoin:miter;stroke-opacity:1" />
    <path
       id="path12486"
       d="m 85.174797,89.862045 c 0,0 -0.11471,0.2239 -0.11471,0.2239 v 0 c 0.4339,0.2223 1.12449,0.5531 1.92542,0.9305 0,0 0.0486,0.023 0.0486,0.023 l 0.0405,-7.9e-4 -0.0405,7.9e-4 0.0405,-7.9e-4 c 0.67367,-0.012 1.41517,-0.027 2.15746,-0.043 0.85555,0.426 1.71016,0.8516 2.48549,1.2404 0,0 0.0107,0.01 0.0107,0.01 l 0.009,2.7e-4 -0.009,-2.7e-4 0.009,2.7e-4 c 0.70046,0.026 1.30597,0.053 1.6906,0.083 -0.38242,-0.03 -0.98003,-0.097 -1.67085,-0.1804 -0.76189,-0.43131 -1.59951,-0.90851 -2.43714,-1.3858 l -0.0229,-0.013 h -0.0344 c -0.73068,-0.037 -1.46136,-0.075 -2.12805,-0.1066 -0.75935,-0.421 -1.41745,-0.7804 -1.84473,-0.9992 v 0 c 0,0 -0.11471,0.2239 -0.11471,0.2239 z"
       style="fill:#24262b;fill-opacity:1;fill-rule:nonzero;stroke:none;stroke-width:0.264583px;stroke-linecap:butt;stroke-linejoin:miter;stroke-opacity:1" />
    <path
       sodipodi:nodetypes="ccccccccccccc"
       id="path12518"
       d="m 64.111527,89.248445 2.16563,-1.5226 1.46732,-0.8337 2.26769,-2.6679 1.45695,1.2677 1.30687,1.6851 3.07076,1.4321 -2.91638,1.8175 -1.24081,1.6375 -1.84413,1.3976 -1.50067,-1.7475 -2.18718,-1.7112 z"
       style="fill:url(#linearGradient14605);fill-opacity:1;stroke:none;stroke-width:0.264583px;stroke-linecap:butt;stroke-linejoin:miter;stroke-opacity:1" />
    <path
       id="path12520"
       style="fill:#41fc41;fill-opacity:1;stroke:none;stroke-width:0.2708;stroke-linecap:round;stroke-miterlimit:4;stroke-dasharray:none;stroke-opacity:0.647059;paint-order:fill markers stroke;filter:url(#filter3978)"
       transform="matrix(1.0363094,1.0363094,-1.0363094,1.0363094,75.571467,-82.724697)"
       d="m 77.54512,82.879616 2.722849,0.496093 1.889962,-0.82684 5.992481,-4.129919 -5.341989,4.831779 -0.634502,2.29237 0.595312,2.56063 -2.997358,-0.463021 -0.926408,0.192633 -6.908172,6.780881 5.959281,-7.846434 0.326539,-1.241225 z"
       sodipodi:nodetypes="ccccccccccccc" />
    <path
       sodipodi:nodetypes="ccccccccc"
       d="m 70.043277,85.244745 1.57456,2.2762 2.11945,1.4178 -2.30432,1.4624 -1.38969,2.2316 -1.79204,-2.4468 -1.90196,-1.2472 2.30174,-1.3429 z"
       style="fill:#00a206;fill-opacity:1;stroke:none;stroke-width:0.396875;stroke-linecap:round;stroke-miterlimit:4;stroke-dasharray:none;stroke-opacity:0.647059;paint-order:fill markers stroke"
       id="path12522" />
    <path
       id="rect12524"
       style="fill:#b2e294;fill-opacity:1;stroke:none;stroke-width:0.396875;stroke-linecap:round;stroke-miterlimit:4;stroke-dasharray:none;stroke-opacity:0.647059;paint-order:fill markers stroke"
       d="m 69.556267,87.852255 1.48522,0.68849 -0.62803,1.36749 -1.48522,-0.6885 z" />
    <path
       id="path12526"
       d="m 70.043277,85.244745 -0.48705,2.6075 2.06161,-0.3313 z"
       style="fill:#62d965;fill-opacity:1;stroke:none;stroke-width:0.264583px;stroke-linecap:butt;stroke-linejoin:miter;stroke-opacity:1" />
    <path
       id="path12528"
       d="m 69.556227,87.852245 2.06161,-0.3313 -0.57639,1.0198 z"
       style="fill:#98e26a;fill-opacity:1;stroke:none;stroke-width:0.264583px;stroke-linecap:butt;stroke-linejoin:miter;stroke-opacity:1" />
    <path
       id="path12530"
       d="m 71.041447,88.540745 2.69584,0.398 -2.11945,-1.4178 z"
       style="fill:#57c059;fill-opacity:1;stroke:none;stroke-width:0.264583px;stroke-linecap:butt;stroke-linejoin:miter;stroke-opacity:1" />
    <path
       id="path12532"
       d="m 71.041447,88.540745 0.39152,1.8604 2.30432,-1.4624 z"
       style="fill:#00ba07;fill-opacity:1;stroke:none;stroke-width:0.264583px;stroke-linecap:butt;stroke-linejoin:miter;stroke-opacity:1" />
    <path
       id="path12534"
       d="m 70.413397,89.908345 -0.37012,2.7244 1.38969,-2.2316 z"
       style="fill:#00ba07;fill-opacity:1;stroke:none;stroke-width:0.264583px;stroke-linecap:butt;stroke-linejoin:miter;stroke-opacity:1" />
    <path
       id="path12536"
       d="m 68.928177,89.219845 -0.67695,0.9661 1.79205,2.4468 z"
       style="fill:#00ba07;fill-opacity:1;stroke:none;stroke-width:0.264583px;stroke-linecap:butt;stroke-linejoin:miter;stroke-opacity:1" />
    <path
       id="path12538"
       d="m 66.349277,88.938745 2.30174,-1.3429 0.27716,1.624 z"
       style="fill:#57c059;fill-opacity:1;stroke:none;stroke-width:0.264583px;stroke-linecap:butt;stroke-linejoin:miter;stroke-opacity:1" />
    <path
       id="path12540"
       d="m 68.651017,87.595845 0.27716,1.624 0.62805,-1.3676 z"
       style="fill:#98e26a;fill-opacity:1;stroke:none;stroke-width:0.264583px;stroke-linecap:butt;stroke-linejoin:miter;stroke-opacity:1" />
    <path
       id="path12542"
       d="m 70.043277,85.244745 -1.39226,2.3511 0.90521,0.2564 z"
       style="fill:#5dce60;fill-opacity:1;stroke:none;stroke-width:0.264583px;stroke-linecap:butt;stroke-linejoin:miter;stroke-opacity:1" />
    <path
       id="path12544"
       d="m 68.928177,89.219845 2.11327,-0.6791 -0.62805,1.3676 z"
       style="fill:#82e244;fill-opacity:1;stroke:none;stroke-width:0.264583px;stroke-linecap:butt;stroke-linejoin:miter;stroke-opacity:1" />
  </g>
</svg>
