<?xml version="1.0" encoding="UTF-8" standalone="no"?>
<svg
   xmlns:dc="http://purl.org/dc/elements/1.1/"
   xmlns:cc="http://creativecommons.org/ns#"
   xmlns:rdf="http://www.w3.org/1999/02/22-rdf-syntax-ns#"
   xmlns:svg="http://www.w3.org/2000/svg"
   xmlns="http://www.w3.org/2000/svg"
   xmlns:xlink="http://www.w3.org/1999/xlink"
   xmlns:sodipodi="http://sodipodi.sourceforge.net/DTD/sodipodi-0.dtd"
   xmlns:inkscape="http://www.inkscape.org/namespaces/inkscape"
   sodipodi:docname="07_crack_line_4.svg"
   inkscape:version="1.0 (4035a4fb49, 2020-05-01)"
   id="svg16214"
   version="1.1"
   viewBox="0 0 142.88512 10.831293"
   height="10.831293mm"
   width="142.88512mm">
  <defs
     id="defs16208">
    <linearGradient
       y2="174.32733"
       x2="-56.75312"
       y1="178.36223"
       x1="-56.75312"
       gradientTransform="translate(107.13013,-63.659463)"
       gradientUnits="userSpaceOnUse"
       id="linearGradient14161"
       xlink:href="#linearGradient1630"
       inkscape:collect="always" />
    <linearGradient
       id="linearGradient1630"
       inkscape:collect="always">
      <stop
         id="stop1624"
         offset="0"
         style="stop-color:#17191c;stop-opacity:1" />
      <stop
         style="stop-color:#24262b;stop-opacity:1"
         offset="0.54387611"
         id="stop1626" />
      <stop
         id="stop1628"
         offset="1"
         style="stop-color:#363941;stop-opacity:1" />
    </linearGradient>
    <clipPath
       clipPathUnits="userSpaceOnUse"
       id="clipPath16802">
      <path
         sodipodi:nodetypes="cccccccccccccccc"
         id="path16804"
         d="m -63.519711,176.78179 3.07012,-1.41309 4.233333,0.7276 6.945312,-1.25679 3.571875,0.46299 4.233334,-0.3969 5.820833,0.7938 1.852083,0.7937 -5.291666,1.1907 -4.167188,-0.19851 -3.770312,1.32291 -6.35,-0.19841 -4.960938,0.26461 -2.778125,-0.99221 -1.256771,-0.066 z"
         style="fill:url(#linearGradient16806);fill-opacity:1;stroke:none;stroke-width:0.264583px;stroke-linecap:butt;stroke-linejoin:miter;stroke-opacity:1" />
    </clipPath>
    <clipPath
       clipPathUnits="userSpaceOnUse"
       id="clipPath16788">
      <path
         style="fill:url(#linearGradient16792);fill-opacity:1;stroke:none;stroke-width:0.264583px;stroke-linecap:butt;stroke-linejoin:miter;stroke-opacity:1"
         d="m -63.519711,176.78179 2.937828,-4.19129 4.233333,0.7276 6.945313,-1.25669 3.571875,0.46299 4.233333,-0.3969 5.688542,1.9182 2.116666,2.4474 -5.291666,1.1907 -4.167188,-0.19851 -3.770312,1.32291 -6.35,-0.19841 -4.960938,0.26461 -2.778125,-0.99221 -1.256771,-0.066 z"
         id="path16790"
         sodipodi:nodetypes="cccccccccccccccc" />
    </clipPath>
    <filter
       height="6.6104145"
       y="-2.805207"
       width="1.3526187"
       x="-0.17630935"
       id="filter1908"
       style="color-interpolation-filters:sRGB"
       inkscape:collect="always">
      <feGaussianBlur
         id="feGaussianBlur1910"
         stdDeviation="1.6254305"
         inkscape:collect="always" />
    </filter>
    <filter
       height="1.2824661"
       y="-0.14123301"
       width="1.0030322"
       x="-0.0015161021"
       id="filter2899"
       style="color-interpolation-filters:sRGB"
       inkscape:collect="always">
      <feGaussianBlur
         id="feGaussianBlur2901"
         stdDeviation="0.090223178"
         inkscape:collect="always" />
    </filter>
  </defs>
  <sodipodi:namedview
     inkscape:window-maximized="1"
     inkscape:window-y="-8"
     inkscape:window-x="-8"
     inkscape:window-height="705"
     inkscape:window-width="1366"
     fit-margin-bottom="0"
     fit-margin-right="0"
     fit-margin-left="0"
     fit-margin-top="0"
     showgrid="false"
     inkscape:document-rotation="0"
     inkscape:current-layer="layer1"
     inkscape:document-units="mm"
     inkscape:cy="16.450363"
     inkscape:cx="173.68682"
     inkscape:zoom="2.6845878"
     inkscape:pageshadow="2"
     inkscape:pageopacity="0.0"
     borderopacity="1.0"
     bordercolor="#666666"
     pagecolor="#ffffff"
     id="base" />
  <metadata
     id="metadata16211">
    <rdf:RDF>
      <cc:Work
         rdf:about="">
        <dc:format>image/svg+xml</dc:format>
        <dc:type
           rdf:resource="http://purl.org/dc/dcmitype/StillImage" />
        <dc:title></dc:title>
      </cc:Work>
    </rdf:RDF>
  </metadata>
  <g
     transform="translate(-23.960042,-108.12134)"
     id="layer1"
     inkscape:groupmode="layer"
     inkscape:label="Layer 1">
    <path
       style="color:#000000;font-style:normal;font-variant:normal;font-weight:normal;font-stretch:normal;font-size:medium;line-height:normal;font-family:sans-serif;font-variant-ligatures:normal;font-variant-position:normal;font-variant-caps:normal;font-variant-numeric:normal;font-variant-alternates:normal;font-variant-east-asian:normal;font-feature-settings:normal;font-variation-settings:normal;text-indent:0;text-align:start;text-decoration:none;text-decoration-line:none;text-decoration-style:solid;text-decoration-color:#000000;letter-spacing:normal;word-spacing:normal;text-transform:none;writing-mode:lr-tb;direction:ltr;text-orientation:mixed;dominant-baseline:auto;baseline-shift:baseline;text-anchor:start;white-space:normal;shape-padding:0;shape-margin:0;inline-size:0;clip-rule:nonzero;display:inline;overflow:visible;visibility:visible;opacity:1;isolation:auto;mix-blend-mode:normal;color-interpolation:sRGB;color-interpolation-filters:linearRGB;solid-color:#000000;solid-opacity:1;vector-effect:none;fill:#abadb4;fill-opacity:0.647059;fill-rule:nonzero;stroke:none;stroke-width:0.396875;stroke-linecap:butt;stroke-linejoin:miter;stroke-miterlimit:4;stroke-dasharray:none;stroke-dashoffset:0;stroke-opacity:1;filter:url(#filter2899);color-rendering:auto;image-rendering:auto;shape-rendering:auto;text-rendering:auto;enable-background:accumulate;stop-color:#000000;stop-opacity:1"
       d="m 76.918206,111.74954 -3.41797,1.2559 -7.52344,-0.1914 -4.64258,0.9765 -4.17383,-0.1816 -3.77539,1.2949 -6.31835,-0.2832 -4.960939,0.2402 -2.67578,-0.8925 -1.332041,-0.086 -1.0039,-0.7734 -12.88477,-1.0781 -0.0332,0.3965 12.76758,1.0664 1.00781,0.7773 1.402341,0.09 2.69727,0.8985 5.015629,-0.2422 6.375,0.2871 3.77734,-1.2949 4.14844,0.1797 4.64453,-0.9766 7.55469,0.1914 3.4121,-1.2539 22.09766,1.1777 6.679694,0.4571 5.03515,-0.1914 4.6211,-0.1582 6.76562,-0.1719 20.43164,0.2773 1.67578,1.5684 3.63477,0.4961 4.41211,1.957 4.51953,0.209 0.0195,-0.3965 -4.44726,-0.2051 -4.39453,-1.9492 -3.56641,-0.4863 -1.69531,-1.5879 -20.5918,-0.2793 -6.77539,0.1719 -4.625,0.1582 -5.01367,0.1914 -6.662114,-0.457 z m 72.560544,0 -5.7207,1.1914 0.0801,0.3886 5.67383,-1.1816 17.10351,0.625 0.0137,-0.3965 z"
       id="path16810" />
    <path
       style="color:#000000;font-style:normal;font-variant:normal;font-weight:normal;font-stretch:normal;font-size:medium;line-height:normal;font-family:sans-serif;font-variant-ligatures:normal;font-variant-position:normal;font-variant-caps:normal;font-variant-numeric:normal;font-variant-alternates:normal;font-variant-east-asian:normal;font-feature-settings:normal;font-variation-settings:normal;text-indent:0;text-align:start;text-decoration:none;text-decoration-line:none;text-decoration-style:solid;text-decoration-color:#000000;letter-spacing:normal;word-spacing:normal;text-transform:none;writing-mode:lr-tb;direction:ltr;text-orientation:mixed;dominant-baseline:auto;baseline-shift:baseline;text-anchor:start;white-space:normal;shape-padding:0;shape-margin:0;inline-size:0;clip-rule:nonzero;display:inline;overflow:visible;visibility:visible;opacity:1;isolation:auto;mix-blend-mode:normal;color-interpolation:sRGB;color-interpolation-filters:linearRGB;solid-color:#000000;solid-opacity:1;vector-effect:none;fill:#24262b;fill-opacity:1;fill-rule:nonzero;stroke:none;stroke-width:0.529167;stroke-linecap:butt;stroke-linejoin:miter;stroke-miterlimit:4;stroke-dasharray:none;stroke-dashoffset:0;stroke-opacity:1;color-rendering:auto;image-rendering:auto;shape-rendering:auto;text-rendering:auto;enable-background:accumulate;stop-color:#000000;stop-opacity:1"
       d="m 77.054935,111.27303 -3.41602,1.2539 -21.845701,-0.9746 -13.097659,1.1152 -14.333981,-1.1133 -0.041,0.5273 14.376951,1.1172 13.105468,-1.1152 21.919922,0.9766 3.412109,-1.2539 28.738286,1.5312 16.45312,-0.418 20.65234,0.2793 6.68555,-1.3945 16.94728,0.6211 0.0195,-0.5293 -17.01173,-0.623 -6.69141,1.3945 -20.60546,-0.2774 -16.44141,0.418 z"
       id="path16814" />
    <path
       id="path14125"
       d="m 142.95258,112.93293 c 0,0 -0.23593,0.2389 -0.23593,0.2389 v 0 c 0.38282,0.3781 0.96124,0.9225 1.64215,1.5542 0,0 0.074,0.069 0.074,0.069 l 0.0852,0.011 -0.0852,-0.011 0.0852,0.011 c 1.07392,0.1403 2.26377,0.29259 3.49122,0.44869 1.44321,0.6478 2.92687,1.313 4.36949,1.96061 0,0 0.0233,0.011 0.0233,0.011 h 0.021 -0.021 0.021 c 1.55596,0.087 3.06487,0.1723 4.42682,0.2522 1.01564,0.5974 1.88132,1.1133 2.46174,1.4741 -0.58251,-0.3621 -1.43227,-0.9127 -2.42206,-1.5621 0,0 -0.009,-0.01 -0.009,-0.01 h -0.0127 0.0127 -0.0127 c -1.35412,-0.1227 -2.85381,-0.2618 -4.40056,-0.4063 -1.424,-0.6989 -2.88763,-1.4181 -4.31128,-2.11689 0,0 -0.0235,-0.012 -0.0235,-0.012 l -0.0343,-0.01 0.0343,0.01 -0.0343,-0.01 c -1.19022,-0.2082 -2.34566,-0.4094 -3.3945,-0.5893 -0.61476,-0.6458 -1.14413,-1.1936 -1.515,-1.5599 v 0 c 0,0 -0.23592,0.2389 -0.23592,0.2389 z"
       style="fill:#24262b;fill-opacity:1;fill-rule:nonzero;stroke:none;stroke-width:0.264583px;stroke-linecap:butt;stroke-linejoin:miter;stroke-opacity:1"
       inkscape:export-filename="D:\Calcatz\Icon Pack\Adventure Narrative Inspired by Jumanji\Assets\PNG\Dividing Line\08_crack_line_4.png"
       inkscape:export-xdpi="96"
       inkscape:export-ydpi="96" />
    <path
       sodipodi:nodetypes="cccccccccccccccc"
       id="path14129"
       d="m 36.922015,112.84173 3.07011,-1.4131 4.23333,0.7276 6.945319,-1.2568 3.571869,0.463 4.233331,-0.3969 5.820839,0.7938 1.85208,0.7937 -5.291669,1.1907 -4.16718,-0.1985 -3.77032,1.3229 -6.35,-0.1984 -4.960929,0.2646 -2.77813,-0.9922 -1.25677,-0.066 z"
       style="fill:url(#linearGradient14161);fill-opacity:1;stroke:none;stroke-width:0.264583px;stroke-linecap:butt;stroke-linejoin:miter;stroke-opacity:1" />
    <path
       style="color:#000000;font-style:normal;font-variant:normal;font-weight:normal;font-stretch:normal;font-size:medium;line-height:normal;font-family:sans-serif;font-variant-ligatures:normal;font-variant-position:normal;font-variant-caps:normal;font-variant-numeric:normal;font-variant-alternates:normal;font-variant-east-asian:normal;font-feature-settings:normal;font-variation-settings:normal;text-indent:0;text-align:start;text-decoration:none;text-decoration-line:none;text-decoration-style:solid;text-decoration-color:#000000;letter-spacing:normal;word-spacing:normal;text-transform:none;writing-mode:lr-tb;direction:ltr;text-orientation:mixed;dominant-baseline:auto;baseline-shift:baseline;text-anchor:start;white-space:normal;shape-padding:0;shape-margin:0;inline-size:0;clip-rule:nonzero;display:inline;overflow:visible;visibility:visible;opacity:1;isolation:auto;mix-blend-mode:normal;color-interpolation:sRGB;color-interpolation-filters:linearRGB;solid-color:#000000;solid-opacity:1;vector-effect:none;fill:#237b20;fill-opacity:1;fill-rule:nonzero;stroke:none;stroke-width:0.264583;stroke-linecap:butt;stroke-linejoin:miter;stroke-miterlimit:4;stroke-dasharray:none;stroke-dashoffset:0;stroke-opacity:1;color-rendering:auto;image-rendering:auto;shape-rendering:auto;text-rendering:auto;enable-background:accumulate;stop-color:#000000;stop-opacity:1"
       d="m -43.277344,177.24414 -3.777344,1.32422 -6.314453,-0.21484 -4.927734,0.2832 -2.726563,-0.70313 -0.06641,0.25586 2.767578,0.71485 4.957032,-0.28711 6.351562,0.21679 3.767578,-1.32031 4.302735,0.44141 0.02734,-0.26367 z"
       id="path16800"
       transform="translate(100.44173,-63.940073)"
       clip-path="url(#clipPath16802)" />
    <path
       style="color:#000000;font-style:normal;font-variant:normal;font-weight:normal;font-stretch:normal;font-size:medium;line-height:normal;font-family:sans-serif;font-variant-ligatures:normal;font-variant-position:normal;font-variant-caps:normal;font-variant-numeric:normal;font-variant-alternates:normal;font-variant-east-asian:normal;font-feature-settings:normal;font-variation-settings:normal;text-indent:0;text-align:start;text-decoration:none;text-decoration-line:none;text-decoration-style:solid;text-decoration-color:#000000;letter-spacing:normal;word-spacing:normal;text-transform:none;writing-mode:lr-tb;direction:ltr;text-orientation:mixed;dominant-baseline:auto;baseline-shift:baseline;text-anchor:start;white-space:normal;shape-padding:0;shape-margin:0;inline-size:0;clip-rule:nonzero;display:inline;overflow:visible;visibility:visible;opacity:1;isolation:auto;mix-blend-mode:normal;color-interpolation:sRGB;color-interpolation-filters:linearRGB;solid-color:#000000;solid-opacity:1;vector-effect:none;fill:#41fc41;fill-opacity:1;fill-rule:nonzero;stroke:none;stroke-width:2.38125;stroke-linecap:butt;stroke-linejoin:miter;stroke-miterlimit:4;stroke-dasharray:none;stroke-dashoffset:0;stroke-opacity:1;filter:url(#filter1908);color-rendering:auto;image-rendering:auto;shape-rendering:auto;text-rendering:auto;enable-background:accumulate;stop-color:#000000;stop-opacity:1"
       d="m -43.404297,176.16797 -3.8125,1.33594 -6.164062,-0.21094 -4.8125,0.27734 -2.564453,-0.66211 -0.595704,2.30664 2.925782,0.75391 5.074218,-0.29102 6.501954,0.22071 3.732421,-1.30664 4.06836,0.41601 0.242187,-2.36914 z"
       id="path16786"
       transform="translate(100.44173,-63.940073)"
       clip-path="url(#clipPath16788)" />
  </g>
</svg>
