<?xml version="1.0" encoding="UTF-8" standalone="no"?>
<svg
   xmlns:dc="http://purl.org/dc/elements/1.1/"
   xmlns:cc="http://creativecommons.org/ns#"
   xmlns:rdf="http://www.w3.org/1999/02/22-rdf-syntax-ns#"
   xmlns:svg="http://www.w3.org/2000/svg"
   xmlns="http://www.w3.org/2000/svg"
   xmlns:xlink="http://www.w3.org/1999/xlink"
   xmlns:sodipodi="http://sodipodi.sourceforge.net/DTD/sodipodi-0.dtd"
   xmlns:inkscape="http://www.inkscape.org/namespaces/inkscape"
   sodipodi:docname="10_crack_line_6.svg"
   inkscape:version="1.0 (4035a4fb49, 2020-05-01)"
   id="svg19568"
   version="1.1"
   viewBox="0 0 143.42073 7.7169085"
   height="7.7169085mm"
   width="143.42073mm">
  <defs
     id="defs19562">
    <linearGradient
       y2="211.55052"
       x2="-57.903938"
       y1="218.33247"
       x1="-57.903938"
       gradientUnits="userSpaceOnUse"
       id="linearGradient14609"
       xlink:href="#linearGradient3039"
       inkscape:collect="always"
       gradientTransform="translate(55.272724,-78.225082)" />
    <linearGradient
       id="linearGradient3039"
       inkscape:collect="always">
      <stop
         id="stop3033"
         offset="0"
         style="stop-color:#17191c;stop-opacity:1" />
      <stop
         style="stop-color:#24262b;stop-opacity:1"
         offset="0.50000054"
         id="stop3035" />
      <stop
         id="stop3037"
         offset="1"
         style="stop-color:#363941;stop-opacity:1" />
    </linearGradient>
    <clipPath
       clipPathUnits="userSpaceOnUse"
       id="clipPath20156">
      <path
         id="path20158"
         d="m -65.060073,215.15199 2.665995,-0.88868 3.461147,0.3742 4.022407,-2.2919 5.846525,2.15159 -0.888683,1.216 h -3.461147 l -2.338599,0.65479 -2.619243,0.6549 -4.677198,-0.42098 z"
         style="fill:url(#linearGradient20160);fill-opacity:1;stroke:none;stroke-width:0.264583px;stroke-linecap:butt;stroke-linejoin:miter;stroke-opacity:1" />
    </clipPath>
    <clipPath
       clipPathUnits="userSpaceOnUse"
       id="clipPath20142">
      <path
         style="fill:url(#linearGradient20146);fill-opacity:1;stroke:none;stroke-width:0.264583px;stroke-linecap:butt;stroke-linejoin:miter;stroke-opacity:1"
         d="m -65.060073,215.15199 2.665995,-0.88868 3.461147,0.3742 4.022407,-2.2919 5.846525,2.15159 -0.888683,1.216 h -3.461147 l -2.338599,0.65479 -2.619243,0.6549 -4.677198,-0.42098 z"
         id="path20144" />
    </clipPath>
    <filter
       height="5.9575601"
       y="-2.47878"
       width="1.4721309"
       x="-0.23606543"
       id="filter3452"
       style="color-interpolation-filters:sRGB"
       inkscape:collect="always">
      <feGaussianBlur
         id="feGaussianBlur3454"
         stdDeviation="1.1357254"
         inkscape:collect="always" />
    </filter>
    <filter
       height="1.2398771"
       y="-0.11993853"
       width="1.003038"
       x="-0.0015189972"
       id="filter2907"
       style="color-interpolation-filters:sRGB"
       inkscape:collect="always">
      <feGaussianBlur
         id="feGaussianBlur2909"
         stdDeviation="0.09055059"
         inkscape:collect="always" />
    </filter>
  </defs>
  <sodipodi:namedview
     inkscape:window-maximized="1"
     inkscape:window-y="-8"
     inkscape:window-x="-8"
     inkscape:window-height="705"
     inkscape:window-width="1366"
     fit-margin-bottom="0"
     fit-margin-right="0"
     fit-margin-left="0"
     fit-margin-top="0"
     showgrid="false"
     inkscape:document-rotation="0"
     inkscape:current-layer="layer1"
     inkscape:document-units="mm"
     inkscape:cy="-11.12226"
     inkscape:cx="259.34072"
     inkscape:zoom="1.3422939"
     inkscape:pageshadow="2"
     inkscape:pageopacity="0.0"
     borderopacity="1.0"
     bordercolor="#666666"
     pagecolor="#ffffff"
     id="base" />
  <metadata
     id="metadata19565">
    <rdf:RDF>
      <cc:Work
         rdf:about="">
        <dc:format>image/svg+xml</dc:format>
        <dc:type
           rdf:resource="http://purl.org/dc/dcmitype/StillImage" />
        <dc:title></dc:title>
      </cc:Work>
    </rdf:RDF>
  </metadata>
  <g
     transform="translate(22.037932,-134.12052)"
     id="layer1"
     inkscape:groupmode="layer"
     inkscape:label="Layer 1">
    <path
       style="color:#000000;font-style:normal;font-variant:normal;font-weight:normal;font-stretch:normal;font-size:medium;line-height:normal;font-family:sans-serif;font-variant-ligatures:normal;font-variant-position:normal;font-variant-caps:normal;font-variant-numeric:normal;font-variant-alternates:normal;font-variant-east-asian:normal;font-feature-settings:normal;font-variation-settings:normal;text-indent:0;text-align:start;text-decoration:none;text-decoration-line:none;text-decoration-style:solid;text-decoration-color:#000000;letter-spacing:normal;word-spacing:normal;text-transform:none;writing-mode:lr-tb;direction:ltr;text-orientation:mixed;dominant-baseline:auto;baseline-shift:baseline;text-anchor:start;white-space:normal;shape-padding:0;shape-margin:0;inline-size:0;clip-rule:nonzero;display:inline;overflow:visible;visibility:visible;opacity:1;isolation:auto;mix-blend-mode:normal;color-interpolation:sRGB;color-interpolation-filters:linearRGB;solid-color:#000000;solid-opacity:1;vector-effect:none;fill:#abadb4;fill-opacity:0.647059;fill-rule:nonzero;stroke:none;stroke-width:0.396875;stroke-linecap:butt;stroke-linejoin:miter;stroke-miterlimit:4;stroke-dasharray:none;stroke-dashoffset:0;stroke-opacity:1;filter:url(#filter2907);color-rendering:auto;image-rendering:auto;shape-rendering:auto;text-rendering:auto;enable-background:accumulate;stop-color:#000000;stop-opacity:1"
       d="m 102.77495,136.12182 -7.250002,1.6719 -32.089854,-0.8359 -1.3457,0.8144 -1.88672,1.9707 -5.04297,0.4024 -3.44726,-0.9473 -3.92579,1.6621 0.1543,0.3652 3.79883,-1.6093 3.38281,0.9316 5.26367,-0.4219 1.95508,-2.041 1.19922,-0.7285 32.025394,0.8359 7.244142,-1.6718 18.33399,0.955 0.0215,-0.3965 z m -96.7558665,0.4082 -0.73633,1.0078 -3.40039,-0.088 -5.01172,1.3438 -4.67774,-0.418 -1.5625,-1.0273 -12.4355395,-0.5293 -0.0156,0.3965 12.3242195,0.5234 1.55469,1.0215 4.84765,0.4336 5.02344,-1.3457 3.55274,0.09 0.73632,-1.0078 7.9199305,0.1465 17.57422,1.2539 11.84765,-1.2539 17.66992,1.0801 0.0234,-0.3946 -17.70117,-1.0839 -11.8457,1.2539 -17.55079,-1.252 z"
       id="path20164" />
    <path
       style="color:#000000;font-style:normal;font-variant:normal;font-weight:normal;font-stretch:normal;font-size:medium;line-height:normal;font-family:sans-serif;font-variant-ligatures:normal;font-variant-position:normal;font-variant-caps:normal;font-variant-numeric:normal;font-variant-alternates:normal;font-variant-east-asian:normal;font-feature-settings:normal;font-variation-settings:normal;text-indent:0;text-align:start;text-decoration:none;text-decoration-line:none;text-decoration-style:solid;text-decoration-color:#000000;letter-spacing:normal;word-spacing:normal;text-transform:none;writing-mode:lr-tb;direction:ltr;text-orientation:mixed;dominant-baseline:auto;baseline-shift:baseline;text-anchor:start;white-space:normal;shape-padding:0;shape-margin:0;inline-size:0;clip-rule:nonzero;display:inline;overflow:visible;visibility:visible;opacity:1;isolation:auto;mix-blend-mode:normal;color-interpolation:sRGB;color-interpolation-filters:linearRGB;solid-color:#000000;solid-opacity:1;vector-effect:none;fill:#24262b;fill-opacity:1;fill-rule:nonzero;stroke:none;stroke-width:0.529;stroke-linecap:butt;stroke-linejoin:miter;stroke-miterlimit:4;stroke-dasharray:none;stroke-dashoffset:0;stroke-opacity:1;color-rendering:auto;image-rendering:auto;shape-rendering:auto;text-rendering:auto;enable-background:accumulate;stop-color:#000000;stop-opacity:1"
       d="m 102.91751,135.59642 -7.251952,1.6739 -32.089843,-0.8379 -1.66797,0.8339 -18.20899,-1.1113 -11.8457,1.2539 -17.546881,-1.2539 -15.17186955,-0.2812 -1.25194995,1.2519 -19.5351605,-0.8301 -0.0234,0.5274 19.7695305,0.8418 1.25585995,-1.2578 14.93359955,0.2773 17.578121,1.2559 11.84961,-1.2559 18.30664,1.1192 1.677739,-0.8379 32.025394,0.834 7.244142,-1.6719 18.22656,0.9511 0.0273,-0.5292 z"
       id="path20168" />
    <path
       style="fill:url(#linearGradient14609);fill-opacity:1;stroke:none;stroke-width:0.264583px;stroke-linecap:butt;stroke-linejoin:miter;stroke-opacity:1"
       d="m -9.7873655,136.92692 2.66601,-0.8887 3.46114,0.3742 4.02240995,-2.2919 5.84652005,2.1516 -0.888669,1.216 h -3.461141 l -2.33861005,0.6548 -2.61923995,0.6549 -4.67722,-0.421 z"
       id="path12468" />
    <path
       style="color:#000000;font-style:normal;font-variant:normal;font-weight:normal;font-stretch:normal;font-size:medium;line-height:normal;font-family:sans-serif;font-variant-ligatures:normal;font-variant-position:normal;font-variant-caps:normal;font-variant-numeric:normal;font-variant-alternates:normal;font-variant-east-asian:normal;font-feature-settings:normal;font-variation-settings:normal;text-indent:0;text-align:start;text-decoration:none;text-decoration-line:none;text-decoration-style:solid;text-decoration-color:#000000;letter-spacing:normal;word-spacing:normal;text-transform:none;writing-mode:lr-tb;direction:ltr;text-orientation:mixed;dominant-baseline:auto;baseline-shift:baseline;text-anchor:start;white-space:normal;shape-padding:0;shape-margin:0;inline-size:0;clip-rule:nonzero;display:inline;overflow:visible;visibility:visible;opacity:1;isolation:auto;mix-blend-mode:normal;color-interpolation:sRGB;color-interpolation-filters:linearRGB;solid-color:#000000;solid-opacity:1;vector-effect:none;fill:#237b20;fill-opacity:1;fill-rule:nonzero;stroke:none;stroke-width:0.264583px;stroke-linecap:butt;stroke-linejoin:miter;stroke-miterlimit:4;stroke-dasharray:none;stroke-dashoffset:0;stroke-opacity:1;color-rendering:auto;image-rendering:auto;shape-rendering:auto;text-rendering:auto;enable-background:accumulate;stop-color:#000000;stop-opacity:1"
       d="m -53.402344,215.47461 -4.980468,1.30664 -4.609376,-0.40039 -1.001953,-0.42969 -0.103515,0.24414 1.041015,0.44531 4.697266,0.40821 4.980469,-1.30664 3.21875,0.27539 0.02344,-0.26367 z"
       id="path20154"
       transform="translate(55.272712,-78.225092)"
       clip-path="url(#clipPath20156)" />
    <path
       style="color:#000000;font-style:normal;font-variant:normal;font-weight:normal;font-stretch:normal;font-size:medium;line-height:normal;font-family:sans-serif;font-variant-ligatures:normal;font-variant-position:normal;font-variant-caps:normal;font-variant-numeric:normal;font-variant-alternates:normal;font-variant-east-asian:normal;font-feature-settings:normal;font-variation-settings:normal;text-indent:0;text-align:start;text-decoration:none;text-decoration-line:none;text-decoration-style:solid;text-decoration-color:#000000;letter-spacing:normal;word-spacing:normal;text-transform:none;writing-mode:lr-tb;direction:ltr;text-orientation:mixed;dominant-baseline:auto;baseline-shift:baseline;text-anchor:start;white-space:normal;shape-padding:0;shape-margin:0;inline-size:0;clip-rule:nonzero;display:inline;overflow:visible;visibility:visible;opacity:1;isolation:auto;mix-blend-mode:normal;color-interpolation:sRGB;color-interpolation-filters:linearRGB;solid-color:#000000;solid-opacity:1;vector-effect:none;fill:#41fc41;fill-opacity:1;fill-rule:nonzero;stroke:none;stroke-width:1.5875;stroke-linecap:butt;stroke-linejoin:miter;stroke-miterlimit:4;stroke-dasharray:none;stroke-dashoffset:0;stroke-opacity:1;filter:url(#filter3452);color-rendering:auto;image-rendering:auto;shape-rendering:auto;text-rendering:auto;enable-background:accumulate;stop-color:#000000;stop-opacity:1"
       d="m -53.458984,214.80469 -4.980469,1.30859 -4.388672,-0.38281 -0.904297,-0.38672 -0.625,1.45898 1.138672,0.48829 4.916016,0.42773 4.980468,-1.30859 3.105469,0.26562 0.134766,-1.58008 z"
       id="path20140"
       transform="translate(55.272712,-78.225092)"
       clip-path="url(#clipPath20142)" />
    <path
       style="fill:#24262b;fill-opacity:1;fill-rule:nonzero;stroke:none;stroke-width:0.264583px;stroke-linecap:butt;stroke-linejoin:miter;stroke-opacity:1"
       d="m 61.962945,137.53492 c -7.94e-4,6.9e-4 -0.20025,-0.1764 -0.20092,-0.1757 v 0 c -0.422801,0.4657 -1.03088,1.1568 -1.73841,1.9689 -1.423839,0.1505 -3.103001,0.3306 -4.834969,0.5171 -1.138531,-0.2547 -2.308831,-0.516 -3.446921,-0.7706 0,0 -0.0356,-0.01 -0.0356,-0.01 l -0.0299,0.014 0.0299,-0.014 -0.0299,0.014 c -1.352571,0.6447 -2.664621,1.2692 -3.849859,1.8308 -1.205841,0.061 -2.237452,0.1086 -2.937132,0.1307 0.701291,-0.022 1.736982,-0.04 2.947839,-0.055 0,0 0.007,-1e-4 0.007,-1e-4 h 0.008 -0.008 0.008 c 1.191541,-0.5267 2.512089,-1.1076 3.87453,-1.7062 1.127709,0.2965 2.28641,0.6018 3.41341,0.8981 0,0 0.02461,0.01 0.02461,0.01 h 0.0305 -0.0305 0.0305 c 1.745199,-0.1415 3.43735,-0.2794 4.963681,-0.406 0,0 0.0845,-0.01 0.0845,-0.01 l 0.0634,-0.067 -0.0634,0.067 0.0634,-0.067 c 0.765458,-0.809 1.416849,-1.504 1.850761,-1.9819 v 0 c 7.94e-4,-7.9e-4 -0.194871,-0.1824 -0.194202,-0.1831 z"
       id="path12514"
       inkscape:export-filename="D:\Calcatz\Icon Pack\Adventure Narrative Inspired by Jumanji\Assets\PNG\Dividing Line\10_crack_line_6.png"
       inkscape:export-xdpi="96"
       inkscape:export-ydpi="96" />
  </g>
</svg>
