<?xml version="1.0" encoding="UTF-8" standalone="no"?>
<svg
   xmlns:dc="http://purl.org/dc/elements/1.1/"
   xmlns:cc="http://creativecommons.org/ns#"
   xmlns:rdf="http://www.w3.org/1999/02/22-rdf-syntax-ns#"
   xmlns:svg="http://www.w3.org/2000/svg"
   xmlns="http://www.w3.org/2000/svg"
   xmlns:sodipodi="http://sodipodi.sourceforge.net/DTD/sodipodi-0.dtd"
   xmlns:inkscape="http://www.inkscape.org/namespaces/inkscape"
   sodipodi:docname="02_hanging_vines_main_menu_right.svg"
   inkscape:version="1.0 (4035a4fb49, 2020-05-01)"
   id="svg12677"
   version="1.1"
   viewBox="0 0 11.99496 75.208977"
   height="75.208977mm"
   width="11.99496mm">
  <defs
     id="defs12671" />
  <sodipodi:namedview
     inkscape:window-maximized="1"
     inkscape:window-y="-8"
     inkscape:window-x="-8"
     inkscape:window-height="705"
     inkscape:window-width="1366"
     fit-margin-bottom="0"
     fit-margin-right="0"
     fit-margin-left="0"
     fit-margin-top="0"
     showgrid="false"
     inkscape:document-rotation="0"
     inkscape:current-layer="layer1"
     inkscape:document-units="mm"
     inkscape:cy="120.6861"
     inkscape:cx="39.833041"
     inkscape:zoom="1.3422939"
     inkscape:pageshadow="2"
     inkscape:pageopacity="0.0"
     borderopacity="1.0"
     bordercolor="#666666"
     pagecolor="#ffffff"
     id="base" />
  <metadata
     id="metadata12674">
    <rdf:RDF>
      <cc:Work
         rdf:about="">
        <dc:format>image/svg+xml</dc:format>
        <dc:type
           rdf:resource="http://purl.org/dc/dcmitype/StillImage" />
        <dc:title></dc:title>
      </cc:Work>
    </rdf:RDF>
  </metadata>
  <g
     transform="translate(-104.3857,-109.8359)"
     id="layer1"
     inkscape:groupmode="layer"
     inkscape:label="Layer 1">
    <path
       style="color:#000000;font-style:normal;font-variant:normal;font-weight:normal;font-stretch:normal;font-size:medium;line-height:normal;font-family:sans-serif;font-variant-ligatures:normal;font-variant-position:normal;font-variant-caps:normal;font-variant-numeric:normal;font-variant-alternates:normal;font-variant-east-asian:normal;font-feature-settings:normal;font-variation-settings:normal;text-indent:0;text-align:start;text-decoration:none;text-decoration-line:none;text-decoration-style:solid;text-decoration-color:#000000;letter-spacing:normal;word-spacing:normal;text-transform:none;writing-mode:lr-tb;direction:ltr;text-orientation:mixed;dominant-baseline:auto;baseline-shift:baseline;text-anchor:start;white-space:normal;shape-padding:0;shape-margin:0;inline-size:0;clip-rule:nonzero;display:inline;overflow:visible;visibility:visible;opacity:1;isolation:auto;mix-blend-mode:normal;color-interpolation:sRGB;color-interpolation-filters:linearRGB;solid-color:#000000;solid-opacity:1;vector-effect:none;fill:#050a05;fill-opacity:1;fill-rule:nonzero;stroke:none;stroke-width:1.5875;stroke-linecap:butt;stroke-linejoin:miter;stroke-miterlimit:4;stroke-dasharray:none;stroke-dashoffset:0;stroke-opacity:1;color-rendering:auto;image-rendering:auto;shape-rendering:auto;text-rendering:auto;enable-background:accumulate;stop-color:#000000;stop-opacity:1"
       d="m 107.29408,110.16663 0.0548,25.67962 c 0.0259,0.79065 0.34679,0.90232 0.87125,1.04629 v 48.15234 h 0.86096 l 0.0234,-19.57444 c 0.52809,0.066 0.66862,-0.30408 0.70159,-0.79513 V 109.8359 Z"
       id="path11564"
       sodipodi:nodetypes="ccccccccc"
       inkscape:export-filename="D:\Calcatz\Icon Pack\Adventure Narrative Inspired by Jumanji\Assets\PNG\Vines\02_hanging_vines_main_menu_right.png"
       inkscape:export-xdpi="96"
       inkscape:export-ydpi="96" />
    <path
       style="color:#000000;font-style:normal;font-variant:normal;font-weight:normal;font-stretch:normal;font-size:medium;line-height:normal;font-family:sans-serif;font-variant-ligatures:normal;font-variant-position:normal;font-variant-caps:normal;font-variant-numeric:normal;font-variant-alternates:normal;font-variant-east-asian:normal;font-feature-settings:normal;font-variation-settings:normal;text-indent:0;text-align:start;text-decoration:none;text-decoration-line:none;text-decoration-style:solid;text-decoration-color:#000000;letter-spacing:normal;word-spacing:normal;text-transform:none;writing-mode:lr-tb;direction:ltr;text-orientation:mixed;dominant-baseline:auto;baseline-shift:baseline;text-anchor:start;white-space:normal;shape-padding:0;shape-margin:0;inline-size:0;clip-rule:nonzero;display:inline;overflow:visible;visibility:visible;opacity:1;isolation:auto;mix-blend-mode:normal;color-interpolation:sRGB;color-interpolation-filters:linearRGB;solid-color:#000000;solid-opacity:1;vector-effect:none;fill:#050a05;fill-opacity:1;fill-rule:nonzero;stroke:none;stroke-width:1.058;stroke-linecap:round;stroke-linejoin:miter;stroke-miterlimit:4;stroke-dasharray:none;stroke-dashoffset:0;stroke-opacity:1;color-rendering:auto;image-rendering:auto;shape-rendering:auto;text-rendering:auto;enable-background:accumulate;stop-color:#000000;stop-opacity:1"
       d="m 112.38063,110.8025 a 0.52899998,0.52899998 0 0 0 -0.53906,0.51953 l -1.12109,57.9961 a 0.52899998,0.52899998 0 0 0 0.51757,0.53906 0.52899998,0.52899998 0 0 0 0.53907,-0.51758 l 1.12304,-57.99805 a 0.52899998,0.52899998 0 0 0 -0.51953,-0.53906 z"
       id="path11722" />
    <path
       style="fill:#050a05;fill-opacity:1;stroke:none;stroke-width:0.264583px;stroke-linecap:butt;stroke-linejoin:miter;stroke-opacity:1"
       d="m 105.85815,113.34085 0.53568,0.0488 0.53542,0.0488 c -0.0112,0.12296 -0.0112,0.2472 0,0.37016 0.0299,0.36224 0.16913,0.7269 0.37222,1.05638 0.20425,0.33063 0.48625,0.62542 0.80595,0.88625 v 0 c 0.63847,0.5258 1.45319,0.88038 2.29316,1.26435 v 0 c 0.84555,0.37495 1.73822,0.79549 2.5174,1.45559 0.38896,0.3324 0.73646,0.73227 1.00087,1.19803 v 0 c 0.2655,0.46705 0.43,1.00244 0.44918,1.56287 0.0128,0.56178 -0.12168,1.10707 -0.36208,1.58937 -0.23942,0.48095 -0.56681,0.90013 -0.94059,1.2527 -0.74921,0.70025 -1.62885,1.16141 -2.46889,1.56379 -0.83443,0.41085 -1.64763,0.78209 -2.29374,1.31172 -0.32342,0.26308 -0.6109,0.55771 -0.82472,0.88793 0,0 0,0 0,0 -0.21272,0.32927 -0.36459,0.69286 -0.41105,1.05878 -0.0512,0.36067 -0.003,0.7455 0.11373,1.11126 0.11765,0.36691 0.31591,0.71742 0.56007,1.04097 0.48583,0.65117 1.18502,1.1678 1.9232,1.66955 v 0 c 0.74323,0.49631 1.54783,0.98136 2.28606,1.61824 v 0 c 0.74611,0.63484 1.39581,1.4664 1.6963,2.4799 0.0251,0.0934 0.047,0.1872 0.0656,0.28114 0.21781,1.09929 -0.002,2.24554 -0.50343,3.24161 -0.51469,1.03521 -1.2408,1.89877 -1.99438,2.72314 -0.71415,0.79143 -1.46101,1.56721 -2.00242,2.42792 -0.52571,0.84682 -0.90785,1.81333 -0.84171,2.76006 0.0344,0.73704 0.33962,1.47415 0.75409,2.15748 0.4164,0.68012 0.9604,1.30459 1.51232,1.95389 0.55377,0.64623 1.11684,1.32247 1.56291,2.09992 0,0 1e-5,0 1e-5,0 0.45144,0.78107 0.7557,1.67915 0.75045,2.61426 -0.0203,1.02743 -0.41208,1.98435 -0.95,2.78535 -0.53997,0.80942 -1.21036,1.49468 -1.84885,2.14576 -0.65605,0.67352 -1.28374,1.31784 -1.76358,2.0586 -0.48856,0.75872 -0.82176,1.60428 -0.81279,2.45277 7.6e-4,0.58557 0.16353,1.17006 0.40059,1.70998 0.24432,0.55483 0.57803,1.07543 0.92209,1.57148 0.75862,1.08636 1.52356,2.02744 1.93538,3.22292 0.37993,1.12376 0.38205,2.36298 0.41595,3.38935 0.0454,1.26306 0.1468,2.32855 0.61784,3.2766 0.41444,0.8372 1.06241,1.44419 1.71243,1.81478 0.91267,0.5204 1.82886,0.59737 2.44995,0.54776 -0.66048,0.06 -1.56121,-0.014 -2.4728,-0.50665 -0.67002,-0.36217 -1.34256,-0.96351 -1.78717,-1.80599 -0.50533,-0.96109 -0.64481,-2.05456 -0.72006,-3.31695 -0.0647,-1.03175 -0.0986,-2.25231 -0.49224,-3.30057 -0.4142,-1.12425 -1.18624,-2.00695 -1.98071,-3.09124 -0.36478,-0.49452 -0.72556,-1.02746 -1.00568,-1.61565 -0.27366,-0.57314 -0.46765,-1.21374 -0.49074,-1.88642 -0.0255,-0.97509 0.30984,-1.93157 0.82841,-2.76538 0.50247,-0.81257 1.1395,-1.50681 1.78208,-2.19501 0.62068,-0.66931 1.25036,-1.33977 1.71902,-2.08857 0.4593,-0.73969 0.78978,-1.57511 0.77362,-2.40461 -0.001,-0.75504 -0.28824,-1.51042 -0.69332,-2.19845 0,0 0,0 0,0 -0.40734,-0.68628 -0.95166,-1.3068 -1.51157,-1.94091 -0.56327,-0.63276 -1.14604,-1.28295 -1.63227,-2.03673 -0.4927,-0.7578 -0.85943,-1.6352 -0.93584,-2.58458 -0.0764,-1.2233 0.33928,-2.39217 0.94686,-3.35793 0.60845,-0.97839 1.38121,-1.80885 2.08062,-2.59117 0.72485,-0.82161 1.39007,-1.60754 1.81165,-2.49306 0.3943,-0.84068 0.5884,-1.75562 0.41541,-2.55847 -0.0148,-0.0685 -0.0322,-0.13635 -0.0525,-0.20334 -0.1965,-0.74118 -0.73641,-1.39983 -1.36692,-1.96115 0,0 0,0 0,0 -0.63861,-0.55948 -1.4077,-1.01737 -2.17952,-1.53674 0,0 0,0 0,0 -0.77683,-0.51391 -1.56171,-1.11125 -2.18026,-1.91168 -0.30803,-0.40226 -0.56184,-0.85878 -0.72672,-1.35899 -0.16547,-0.50131 -0.22773,-1.04513 -0.15699,-1.58823 0.077,-0.54895 0.28416,-1.06098 0.57707,-1.50409 0.29183,-0.44218 0.65419,-0.81951 1.04936,-1.13601 0.79112,-0.62954 1.67244,-1.04405 2.49809,-1.44153 0.82003,-0.40595 1.60964,-0.80465 2.1988,-1.3764 0.29539,-0.28343 0.54816,-0.60118 0.71671,-0.9484 0.16754,-0.34581 0.26527,-0.72247 0.25181,-1.08346 -0.007,-0.36048 -0.12569,-0.7304 -0.31164,-1.06644 0,0 0,0 0,-10e-6 -0.18708,-0.33737 -0.45602,-0.64127 -0.76519,-0.91012 -0.61707,-0.54239 -1.42311,-0.90775 -2.25749,-1.29001 0,0 0,0 0,0 -0.83996,-0.37324 -1.73274,-0.77585 -2.52732,-1.40844 0,0 -1e-5,0 -1e-5,0 -0.39683,-0.31836 -0.75742,-0.70186 -1.04171,-1.15239 -0.28542,-0.45163 -0.47774,-0.97387 -0.53143,-1.52912 -0.0171,-0.188 -0.0171,-0.37728 0,-0.56528 z"
       id="path11568"
       sodipodi:nodetypes="csssssssssc"
       inkscape:export-filename="D:\Calcatz\Icon Pack\Adventure Narrative Inspired by Jumanji\Assets\PNG\Vines\02_hanging_vines_main_menu_right.png"
       inkscape:export-xdpi="96"
       inkscape:export-ydpi="96" />
    <path
       d="m 104.84972,164.6709 c 0.50034,-0.0535 0.92344,0.0931 1.18542,0.31376 0.15681,-0.25993 0.43099,-0.50843 0.81452,-0.66226 0.40035,0.76453 0.0206,1.51346 -0.39186,1.64889 -0.0812,0.42418 -0.73591,0.90833 -1.54348,0.66089 0.0746,-0.37512 0.24625,-0.67293 0.45105,-0.87541 -0.27918,-0.21016 -0.51288,-0.58368 -0.51565,-1.08587 z"
       style="fill:#050a05;fill-opacity:1;stroke:none;stroke-width:0.264583px;stroke-linecap:butt;stroke-linejoin:miter;stroke-opacity:1"
       id="path11574" />
    <path
       style="fill:#050a05;fill-opacity:1;stroke:none;stroke-width:0.264583px;stroke-linecap:butt;stroke-linejoin:miter;stroke-opacity:1"
       d="m 106.53756,165.81831 c 0.4249,0.35787 0.64495,0.30212 0.92594,0.36938 -0.40059,0.0858 -0.79506,0.134 -1.14011,-0.12185 z"
       id="path11576"
       sodipodi:nodetypes="cccc" />
    <path
       id="path11580"
       style="fill:#050a05;fill-opacity:1;stroke:none;stroke-width:0.264583px;stroke-linecap:butt;stroke-linejoin:miter;stroke-opacity:1"
       d="m 105.20095,167.05015 c 0.21902,-0.33851 0.52368,-0.528 0.79318,-0.57983 -0.0828,-0.22872 -0.0992,-0.52475 -0.002,-0.84113 0.67792,0.1363 0.95271,0.75042 0.82901,1.07553 0.22317,0.26447 0.19442,0.91627 -0.3669,1.2943 -0.19594,-0.23563 -0.29479,-0.49268 -0.31758,-0.72231 -0.27164,0.0678 -0.62206,0.025 -0.93614,-0.22656 z" />
    <path
       sodipodi:nodetypes="cccc"
       id="path11582"
       d="m 106.76655,166.57792 c 0.43709,-0.0841 0.51336,-0.2492 0.69694,-0.39023 -0.14858,0.2927 -0.31752,0.56259 -0.65083,0.6484 z"
       style="fill:#050a05;fill-opacity:1;stroke:none;stroke-width:0.264583px;stroke-linecap:butt;stroke-linejoin:miter;stroke-opacity:1" />
    <path
       d="m 111.51819,170.78086 c -0.15612,0.25389 -0.37806,0.3991 -0.57635,0.44199 0.065,0.16763 0.0822,0.38613 0.0154,0.6216 -0.50332,-0.0892 -0.71683,-0.53842 -0.63093,-0.78079 -0.16942,-0.19167 -0.15924,-0.67387 0.24919,-0.96278 0.1488,0.17081 0.22622,0.35911 0.24696,0.52843 0.19961,-0.0548 0.45931,-0.029 0.6957,0.15155 z"
       style="fill:#050a05;fill-opacity:1;stroke:none;stroke-width:0.264583px;stroke-linecap:butt;stroke-linejoin:miter;stroke-opacity:1"
       id="path11586" />
    <path
       style="fill:#050a05;fill-opacity:1;stroke:none;stroke-width:0.264583px;stroke-linecap:butt;stroke-linejoin:miter;stroke-opacity:1"
       d="m 110.36915,171.15644 c -0.3216,0.0695 -0.37517,0.19288 -0.50844,0.30022 0.10484,-0.21884 0.22511,-0.42117 0.46998,-0.49024 z"
       id="path11588"
       sodipodi:nodetypes="cccc" />
    <path
       id="path11592"
       style="fill:#050a05;fill-opacity:1;stroke:none;stroke-width:0.264583px;stroke-linecap:butt;stroke-linejoin:miter;stroke-opacity:1"
       d="m 108.94919,172.76872 c 0.24969,0.0536 0.47104,0.002 0.615,-0.0953 0.0653,0.13952 0.1905,0.27953 0.3759,0.37756 0.24272,-0.3646 0.0909,-0.76279 -0.11012,-0.85308 -0.0184,-0.21841 -0.32314,-0.49758 -0.74391,-0.41563 0.0177,0.1933 0.0885,0.35274 0.18112,0.46583 -0.15208,0.0912 -0.28989,0.26733 -0.31799,0.52066 z" />
    <path
       sodipodi:nodetypes="cccc"
       id="path11594"
       d="m 109.8621,172.27932 c 0.23348,-0.15804 0.34159,-0.11821 0.48698,-0.13721 -0.19762,-0.0646 -0.39416,-0.10991 -0.58192,7.9e-4 z"
       style="fill:#050a05;fill-opacity:1;stroke:none;stroke-width:0.264583px;stroke-linecap:butt;stroke-linejoin:miter;stroke-opacity:1" />
    <path
       id="path11598"
       style="fill:#050a05;fill-opacity:1;stroke:none;stroke-width:0.264583px;stroke-linecap:butt;stroke-linejoin:miter;stroke-opacity:1"
       d="m 109.2284,158.49855 c 0.44628,0.23247 0.71743,0.58881 0.81342,0.9176 0.2745,-0.12962 0.64041,-0.18476 1.04496,-0.10051 -0.0899,0.85832 -0.82078,1.27173 -1.23925,1.15613 -0.30246,0.30829 -1.11573,0.34896 -1.65123,-0.30422 0.26981,-0.27107 0.57764,-0.42403 0.8603,-0.47926 -0.11614,-0.32957 -0.10394,-0.77001 0.1718,-1.18974 z" />
    <path
       sodipodi:nodetypes="cccc"
       id="path11600"
       d="m 109.99865,160.38854 c 0.15568,0.53326 0.3698,0.60868 0.56655,0.82026 -0.38111,-0.15032 -0.73626,-0.32861 -0.88195,-0.7327 z"
       style="fill:#050a05;fill-opacity:1;stroke:none;stroke-width:0.264583px;stroke-linecap:butt;stroke-linejoin:miter;stroke-opacity:1" />
    <path
       d="m 114.25714,152.99883 c -0.0159,0.50295 -0.21928,0.90185 -0.47388,1.13097 0.23588,0.19109 0.44429,0.49685 0.54389,0.8979 -0.81235,0.29136 -1.50191,-0.18781 -1.57929,-0.615 -0.40898,-0.13878 -0.79843,-0.85389 -0.44224,-1.61974 0.36129,0.12551 0.63265,0.3365 0.80503,0.56721 0.24657,-0.24761 0.64869,-0.42769 1.14649,-0.36134 z"
       style="fill:#050a05;fill-opacity:1;stroke:none;stroke-width:0.264583px;stroke-linecap:butt;stroke-linejoin:miter;stroke-opacity:1"
       id="path11604" />
    <path
       style="fill:#050a05;fill-opacity:1;stroke:none;stroke-width:0.264583px;stroke-linecap:butt;stroke-linejoin:miter;stroke-opacity:1"
       d="m 112.88841,154.51275 c -0.41293,0.37161 -0.38799,0.59724 -0.49327,0.8663 -0.0299,-0.40859 -0.0233,-0.80593 0.27756,-1.11249 z"
       id="path11606"
       sodipodi:nodetypes="cccc" />
    <path
       id="path11610"
       style="fill:#050a05;fill-opacity:1;stroke:none;stroke-width:0.264583px;stroke-linecap:butt;stroke-linejoin:miter;stroke-opacity:1"
       d="m 114.64583,157.9947 c -0.32536,0.1125 -0.62994,0.0797 -0.83848,-0.0272 -0.0646,0.19737 -0.20927,0.40514 -0.44134,0.56659 -0.3843,-0.44823 -0.24613,-1.00584 0.008,-1.15946 -0.011,-0.29527 0.35115,-0.71857 0.92754,-0.67761 0.008,0.26154 -0.0609,0.48644 -0.1663,0.65289 0.2184,0.0972 0.43155,0.31037 0.51051,0.64475 z" />
    <path
       sodipodi:nodetypes="cccc"
       id="path11612"
       d="m 113.34439,157.4889 c -0.33822,-0.17334 -0.47637,-0.10239 -0.67402,-0.10409 0.25388,-0.11872 0.50947,-0.21141 0.7788,-0.0938 z"
       style="fill:#050a05;fill-opacity:1;stroke:none;stroke-width:0.264583px;stroke-linecap:butt;stroke-linejoin:miter;stroke-opacity:1" />
    <path
       id="path11616"
       style="fill:#050a05;fill-opacity:1;stroke:none;stroke-width:0.264583px;stroke-linecap:butt;stroke-linejoin:miter;stroke-opacity:1"
       d="m 105.29612,145.91644 c 0.501,-0.047 0.92215,0.10511 1.18123,0.32915 0.16019,-0.25787 0.43757,-0.50278 0.82307,-0.65162 0.39038,0.76968 9.5e-4,1.51361 -0.41326,1.64366 -0.0867,0.42309 -0.74766,0.89868 -1.55195,0.64077 0.0795,-0.37412 0.25498,-0.66967 0.4624,-0.86948 -0.27643,-0.21376 -0.50525,-0.59029 -0.50149,-1.09248 z" />
    <path
       sodipodi:nodetypes="cccc"
       id="path11618"
       d="m 106.9689,147.0857 c 0.4202,0.36337 0.64096,0.31049 0.92105,0.38139 -0.40167,0.0806 -0.79673,0.12365 -1.13842,-0.13666 z"
       style="fill:#050a05;fill-opacity:1;stroke:none;stroke-width:0.264583px;stroke-linecap:butt;stroke-linejoin:miter;stroke-opacity:1" />
    <path
       d="m 106.42904,151.04154 c 0.1107,-0.32792 0.32413,-0.54995 0.5374,-0.65003 -0.11718,-0.17281 -0.19343,-0.41563 -0.17905,-0.69949 0.59283,-0.0299 0.95124,0.42303 0.91702,0.71966 0.24156,0.17288 0.35538,0.72126 -0.0318,1.1544 -0.21281,-0.15464 -0.34938,-0.34762 -0.41687,-0.53386 -0.21167,0.11385 -0.51227,0.15223 -0.82674,0.009 z"
       style="fill:#050a05;fill-opacity:1;stroke:none;stroke-width:0.264583px;stroke-linecap:butt;stroke-linejoin:miter;stroke-opacity:1"
       id="path11622" />
    <path
       style="fill:#050a05;fill-opacity:1;stroke:none;stroke-width:0.264583px;stroke-linecap:butt;stroke-linejoin:miter;stroke-opacity:1"
       d="m 107.63184,150.31781 c 0.34589,-0.16231 0.37446,-0.31582 0.49739,-0.47194 -0.0618,0.27492 -0.14529,0.53517 -0.40447,0.677 z"
       id="path11624"
       sodipodi:nodetypes="cccc" />
    <path
       id="path11628"
       style="fill:#050a05;fill-opacity:1;stroke:none;stroke-width:0.264583px;stroke-linecap:butt;stroke-linejoin:miter;stroke-opacity:1"
       d="m 110.12015,140.21149 c 0.30964,0.15461 0.50031,0.39648 0.5702,0.62145 0.18724,-0.0924 0.43823,-0.1346 0.71743,-0.0814 -0.0517,0.59132 -0.54947,0.88424 -0.83861,0.80967 -0.20437,0.21557 -0.76317,0.25312 -1.13913,-0.18976 0.18235,-0.18959 0.39224,-0.29841 0.58598,-0.33972 -0.0838,-0.22528 -0.0806,-0.52831 0.10413,-0.82021 z" />
    <path
       sodipodi:nodetypes="cccc"
       id="path11630"
       d="m 110.67211,141.50216 c 0.11335,0.36489 0.26148,0.41423 0.39928,0.55741 -0.26385,-0.0989 -0.5102,-0.2173 -0.61514,-0.49348 z"
       style="fill:#050a05;fill-opacity:1;stroke:none;stroke-width:0.264583px;stroke-linecap:butt;stroke-linejoin:miter;stroke-opacity:1" />
    <path
       d="m 114.02859,134.03978 c 0.002,0.3461 -0.12809,0.62538 -0.29733,0.78926 0.16692,0.12542 0.31785,0.33035 0.39638,0.60351 -0.55105,0.22065 -1.03704,-0.0914 -1.10095,-0.38307 -0.28459,-0.0851 -0.57023,-0.56687 -0.34463,-1.10221 0.25148,0.0772 0.44329,0.21541 0.56757,0.36966 0.16326,-0.17639 0.43513,-0.31025 0.77896,-0.27715 z"
       style="fill:#050a05;fill-opacity:1;stroke:none;stroke-width:0.264583px;stroke-linecap:butt;stroke-linejoin:miter;stroke-opacity:1"
       id="path11634" />
    <path
       style="fill:#050a05;fill-opacity:1;stroke:none;stroke-width:0.264583px;stroke-linecap:butt;stroke-linejoin:miter;stroke-opacity:1"
       d="m 113.1258,135.11472 c -0.27449,0.26579 -0.25168,0.42025 -0.31729,0.60782 -0.0308,-0.28008 -0.0363,-0.55335 0.16285,-0.77162 z"
       id="path11636"
       sodipodi:nodetypes="cccc" />
    <path
       id="path11640"
       style="fill:#050a05;fill-opacity:1;stroke:none;stroke-width:0.264583px;stroke-linecap:butt;stroke-linejoin:miter;stroke-opacity:1"
       d="m 114.34686,136.14528 c -0.10219,0.14442 -0.23921,0.22195 -0.35831,0.23977 0.0321,0.10179 0.0339,0.23188 -0.0146,0.36881 -0.29474,-0.0721 -0.40403,-0.34635 -0.34388,-0.48664 -0.093,-0.12002 -0.0686,-0.40526 0.18442,-0.56079 0.0816,0.10688 0.12028,0.22138 0.12609,0.32247 0.12033,-0.0248 0.27319,3.7e-4 0.40631,0.11638 z" />
    <path
       sodipodi:nodetypes="cccc"
       id="path11642"
       d="m 113.65185,136.32382 c -0.19316,0.0289 -0.22961,0.0999 -0.31266,0.15839 0.0705,-0.12562 0.14945,-0.24087 0.29715,-0.27243 z"
       style="fill:#050a05;fill-opacity:1;stroke:none;stroke-width:0.264583px;stroke-linecap:butt;stroke-linejoin:miter;stroke-opacity:1" />
    <path
       id="path11646"
       style="fill:#050a05;fill-opacity:1;stroke:none;stroke-width:0.264583px;stroke-linecap:butt;stroke-linejoin:miter;stroke-opacity:1"
       d="m 104.3857,131.85833 c 0.19341,-0.41944 0.50812,-0.6838 0.80533,-0.78635 -0.13099,-0.24594 -0.19771,-0.57898 -0.13836,-0.95361 0.79091,0.0445 1.20226,0.69629 1.11478,1.08507 0.29602,0.26367 0.36926,1.00751 -0.20591,1.52736 -0.26046,-0.23539 -0.41431,-0.51085 -0.47744,-0.76756 -0.29704,0.12105 -0.70138,0.12934 -1.0984,-0.10491 z" />
    <path
       sodipodi:nodetypes="cccc"
       id="path11648"
       d="m 106.08446,131.06857 c 0.48203,-0.16632 0.5417,-0.36596 0.72698,-0.5557 -0.12096,0.35605 -0.26872,0.68956 -0.63277,0.84099 z"
       style="fill:#050a05;fill-opacity:1;stroke:none;stroke-width:0.264583px;stroke-linecap:butt;stroke-linejoin:miter;stroke-opacity:1" />
    <path
       d="m 105.18207,125.33646 c 0.45817,0.0584 0.8049,0.27911 0.99203,0.53175 0.19521,-0.19885 0.49279,-0.36259 0.86794,-0.41858 0.19529,0.76771 -0.30275,1.35595 -0.69985,1.38936 -0.16251,0.36159 -0.84994,0.65501 -1.51863,0.26267 0.14623,-0.31916 0.36271,-0.54869 0.58858,-0.68606 -0.20473,-0.24692 -0.33416,-0.63007 -0.23007,-1.07914 z"
       style="fill:#050a05;fill-opacity:1;stroke:none;stroke-width:0.264583px;stroke-linecap:butt;stroke-linejoin:miter;stroke-opacity:1"
       id="path11653" />
    <path
       style="fill:#050a05;fill-opacity:1;stroke:none;stroke-width:0.264583px;stroke-linecap:butt;stroke-linejoin:miter;stroke-opacity:1"
       d="m 106.44588,126.71931 c 0.30351,0.40975 0.51185,0.40666 0.74851,0.52635 -0.37595,-0.008 -0.73844,-0.049 -0.99229,-0.35075 z"
       id="path11655"
       sodipodi:nodetypes="cccc" />
    <path
       id="path11659"
       style="fill:#050a05;fill-opacity:1;stroke:none;stroke-width:0.264583px;stroke-linecap:butt;stroke-linejoin:miter;stroke-opacity:1"
       d="m 105.36121,128.00763 c 0.23817,0.0178 0.43666,-0.0582 0.55759,-0.16681 0.0783,0.12093 0.21217,0.23466 0.39644,0.30183 0.17834,-0.36875 -0.0131,-0.71829 -0.21088,-0.77628 -0.0449,-0.2 -0.36287,-0.41975 -0.74223,-0.29013 0.0411,0.17682 0.12702,0.3155 0.22724,0.40845 -0.12926,0.10393 -0.23446,0.28466 -0.22816,0.52294 z" />
    <path
       sodipodi:nodetypes="cccc"
       id="path11661"
       d="m 106.14452,127.43773 c 0.19614,-0.17621 0.30138,-0.1531 0.43365,-0.18926 -0.19133,-0.0347 -0.37919,-0.0515 -0.539,0.0751 z"
       style="fill:#050a05;fill-opacity:1;stroke:none;stroke-width:0.264583px;stroke-linecap:butt;stroke-linejoin:miter;stroke-opacity:1" />
    <path
       id="path11665"
       style="fill:#050a05;fill-opacity:1;stroke:none;stroke-width:0.264583px;stroke-linecap:butt;stroke-linejoin:miter;stroke-opacity:1"
       d="m 116.38066,119.79513 c -0.16125,0.43282 -0.45515,0.72015 -0.74378,0.8448 0.14914,0.23537 0.24078,0.56243 0.20983,0.94047 -0.79202,0.0153 -1.25132,-0.60372 -1.19338,-0.99798 -0.31505,-0.24062 -0.44414,-0.97682 0.0902,-1.53854 0.27746,0.2151 0.45163,0.47818 0.53392,0.72941 0.28707,-0.14309 0.68964,-0.18183 1.10318,0.0218 z" />
    <path
       sodipodi:nodetypes="cccc"
       id="path11667"
       d="m 114.74625,120.71065 c -0.46813,0.20217 -0.51259,0.40574 -0.68305,0.6089 0.0938,-0.36416 0.216,-0.70785 0.5676,-0.88628 z"
       style="fill:#050a05;fill-opacity:1;stroke:none;stroke-width:0.264583px;stroke-linecap:butt;stroke-linejoin:miter;stroke-opacity:1" />
    <path
       d="m 110.90047,126.75401 c 0.103,-0.21548 0.10424,-0.42801 0.0469,-0.58012 0.14112,-0.0291 0.29566,-0.11256 0.42511,-0.2599 -0.27891,-0.29999 -0.6741,-0.24838 -0.79989,-0.0852 -0.20268,-0.0307 -0.52282,0.18583 -0.53968,0.58636 0.17967,0.0259 0.34008,-0.004 0.46307,-0.0635 0.0499,0.15816 0.18018,0.32177 0.40451,0.40237 z"
       style="fill:#050a05;fill-opacity:1;stroke:none;stroke-width:0.264583px;stroke-linecap:butt;stroke-linejoin:miter;stroke-opacity:1"
       id="path11671" />
    <path
       style="fill:#050a05;fill-opacity:1;stroke:none;stroke-width:0.264583px;stroke-linecap:butt;stroke-linejoin:miter;stroke-opacity:1"
       d="m 110.65364,125.81729 c -0.093,-0.24671 -0.0333,-0.33639 -0.019,-0.47278 -0.10171,0.16573 -0.1856,0.33466 -0.12562,0.52952 z"
       id="path11673"
       sodipodi:nodetypes="cccc" />
    <path
       d="m 114.68963,125.52766 c -0.44161,-0.13534 -0.74583,-0.41171 -0.88736,-0.69245 -0.22612,0.16281 -0.54718,0.27366 -0.92639,0.26515 -0.0621,-0.78972 0.52855,-1.28487 0.92556,-1.25038 0.22153,-0.32875 0.9488,-0.50121 1.54117,-0.001 -0.19828,0.28971 -0.45059,0.47915 -0.6965,0.57618 0.15984,0.27809 0.22234,0.67766 0.0435,1.10254 z"
       style="fill:#050a05;fill-opacity:1;stroke:none;stroke-width:0.264583px;stroke-linecap:butt;stroke-linejoin:miter;stroke-opacity:1"
       id="path11677" />
    <path
       style="fill:#050a05;fill-opacity:1;stroke:none;stroke-width:0.264583px;stroke-linecap:butt;stroke-linejoin:miter;stroke-opacity:1"
       d="m 113.67893,123.95032 c -0.22953,-0.45533 -0.43538,-0.48766 -0.64828,-0.64579 0.36907,0.0721 0.7194,0.17371 0.91834,0.51412 z"
       id="path11679"
       sodipodi:nodetypes="cccc" />
  </g>
</svg>
