<?xml version="1.0" encoding="UTF-8" standalone="no"?>
<svg
   xmlns:dc="http://purl.org/dc/elements/1.1/"
   xmlns:cc="http://creativecommons.org/ns#"
   xmlns:rdf="http://www.w3.org/1999/02/22-rdf-syntax-ns#"
   xmlns:svg="http://www.w3.org/2000/svg"
   xmlns="http://www.w3.org/2000/svg"
   xmlns:sodipodi="http://sodipodi.sourceforge.net/DTD/sodipodi-0.dtd"
   xmlns:inkscape="http://www.inkscape.org/namespaces/inkscape"
   sodipodi:docname="03_hanging_vines_main_menu_right_shadow.svg"
   inkscape:version="1.0 (4035a4fb49, 2020-05-01)"
   id="svg13375"
   version="1.1"
   viewBox="0 0 13.04973 76.93528"
   height="76.93528mm"
   width="13.04973mm">
  <defs
     id="defs13369">
    <filter
       inkscape:collect="always"
       style="color-interpolation-filters:sRGB"
       id="filter10752"
       x="-0.043955535"
       width="1.0879111"
       y="-0.0069484785"
       height="1.0138969">
      <feGaussianBlur
         inkscape:collect="always"
         stdDeviation="0.21968995"
         id="feGaussianBlur10754" />
    </filter>
  </defs>
  <sodipodi:namedview
     inkscape:window-maximized="1"
     inkscape:window-y="-8"
     inkscape:window-x="-8"
     inkscape:window-height="705"
     inkscape:window-width="1366"
     fit-margin-bottom="0"
     fit-margin-right="0"
     fit-margin-left="0"
     fit-margin-top="0"
     showgrid="false"
     inkscape:document-rotation="0"
     inkscape:current-layer="layer1"
     inkscape:document-units="mm"
     inkscape:cy="123.45626"
     inkscape:cx="61.606894"
     inkscape:zoom="1.3422939"
     inkscape:pageshadow="2"
     inkscape:pageopacity="0.0"
     borderopacity="1.0"
     bordercolor="#666666"
     pagecolor="#ffffff"
     id="base" />
  <metadata
     id="metadata13372">
    <rdf:RDF>
      <cc:Work
         rdf:about="">
        <dc:format>image/svg+xml</dc:format>
        <dc:type
           rdf:resource="http://purl.org/dc/dcmitype/StillImage" />
        <dc:title></dc:title>
      </cc:Work>
    </rdf:RDF>
  </metadata>
  <g
     transform="translate(-99.308467,-109.69902)"
     id="layer1"
     inkscape:groupmode="layer"
     inkscape:label="Layer 1">
    <path
       inkscape:export-ydpi="96"
       inkscape:export-xdpi="96"
       inkscape:export-filename="D:\Calcatz\Icon Pack\Adventure Narrative Inspired by Jumanji\Assets\PNG\Plant\23_hanging_vines_main_menu_right_shadow.png"
       d="m 105.25627,110.22628 -2.51199,0.33368 0.01,4.74402 c -8.5e-4,-10e-4 -0.002,-0.003 -0.003,-0.004 -0.20309,-0.3324 -0.34219,-0.70021 -0.37207,-1.0657 -0.0112,-0.12406 -0.0112,-0.24925 0,-0.3733 l -0.53536,-0.049 -0.53589,-0.0495 c -0.0171,0.18966 -0.0171,0.38069 0,0.57038 0.0537,0.56021 0.24581,1.08708 0.53124,1.54276 0.25401,0.40613 0.57102,0.75521 0.91829,1.05475 l 0.0212,9.97758 c -0.21277,0.19893 -0.40943,0.42036 -0.58808,0.66008 -0.0725,-0.0532 -0.15015,-0.12819 -0.23409,-0.2315 0.35451,-0.15397 0.70428,-0.68722 0.53537,-1.35714 -0.37515,0.0565 -0.67296,0.2217 -0.86817,0.4223 -0.18713,-0.25487 -0.53349,-0.47756 -0.99167,-0.53647 -0.10408,0.45305 0.0252,0.83948 0.22996,1.08862 -0.22586,0.1386 -0.44237,0.37038 -0.58859,0.69237 0.20952,0.12406 0.41899,0.17411 0.61547,0.18145 0.0421,0.0818 0.0934,0.15157 0.15037,0.20491 -0.12925,0.10485 -0.2347,0.28723 -0.2284,0.52764 0.23817,0.018 0.43665,-0.0588 0.55758,-0.16841 0.0561,0.0874 0.14195,0.17031 0.25322,0.23565 -0.0769,0.22036 -0.13768,0.44813 -0.17053,0.68458 -0.0707,0.54794 -0.009,1.0964 0.15658,1.60219 0.0663,0.20308 0.15101,0.39686 0.24391,0.58497 -0.0613,0.039 -0.137,0.077 -0.2279,0.11367 -0.0391,-0.38739 -0.43741,-0.88401 -1.12137,-0.92283 -0.0593,0.37797 0.008,0.71382 0.13849,0.96194 -0.2972,0.10347 -0.61171,0.37036 -0.805117,0.79352 0.397017,0.23636 0.801087,0.22797 1.098117,0.10584 0.0631,0.25902 0.21704,0.53678 0.47749,0.77425 0.50971,-0.46478 0.50912,-1.10534 0.29663,-1.43064 0.097,-0.053 0.17877,-0.11887 0.24598,-0.19708 0.11429,0.20594 0.24093,0.40322 0.38085,0.58757 0.14377,0.18772 0.29676,0.36318 0.4563,0.53026 l 0.008,3.65328 c 0.0259,0.79771 0.3468,0.91001 0.87126,1.05526 v 8.36862 c -0.38138,0.66587 -0.66877,1.41471 -0.77411,2.20649 -0.11376,-0.0373 -0.24117,-0.10341 -0.39481,-0.22471 0.34055,-0.24888 0.58672,-0.89926 0.24908,-1.57092 -0.3855,0.15019 -0.66302,0.39729 -0.8232,0.65745 -0.25909,-0.22605 -0.68033,-0.37953 -1.18133,-0.33209 -0.004,0.50665 0.22535,0.88652 0.50178,1.10218 -0.20742,0.2016 -0.38302,0.49949 -0.4625,0.87695 0.71255,0.23053 1.31072,-0.11973 1.49861,-0.49949 0.18716,0.11559 0.38791,0.15246 0.59635,0.14599 -0.0266,0.26087 -0.0372,0.52495 -0.0207,0.79251 0.0517,0.64828 0.23866,1.26212 0.50539,1.82897 -0.0512,0.0517 -0.12249,0.10353 -0.22014,0.15644 -0.0616,-0.28483 -0.39668,-0.62038 -0.90744,-0.59438 -0.0144,0.2864 0.0621,0.53159 0.17932,0.70593 -0.21327,0.10099 -0.42674,0.32452 -0.53743,0.65538 0.31446,0.1445 0.61515,0.10546 0.82682,-0.009 0.0675,0.1879 0.20371,0.3831 0.41651,0.53913 0.34284,-0.38702 0.29223,-0.86419 0.10852,-1.0897 0.087,-0.0603 0.15177,-0.13611 0.20102,-0.2221 0.0742,0.14807 0.15403,0.29188 0.23823,0.43274 v 9.536 c -0.008,0.008 -0.0161,0.013 -0.0238,0.0209 0.008,0.009 0.016,0.0174 0.0238,0.0265 v 3.13036 c -0.10835,0.15299 -0.21373,0.30838 -0.31264,0.46975 -0.44597,0.72347 -0.75451,1.53875 -0.81649,2.37853 -0.13331,-0.0319 -0.28131,-0.0936 -0.47025,-0.23878 0.33731,-0.2533 0.5752,-0.9069 0.22892,-1.57404 -0.38353,0.15519 -0.65811,0.40562 -0.81494,0.66787 -0.26197,-0.22264 -0.68459,-0.37045 -1.18493,-0.31647 0.003,0.50666 0.23602,0.88338 0.51521,1.09541 -0.2048,0.2043 -0.37602,0.50474 -0.45062,0.88322 0.22634,0.0699 0.4379,0.078 0.63097,0.0495 -0.12479,0.0945 -0.24426,0.21567 -0.34468,0.37229 0.31408,0.25378 0.66473,0.29676 0.93637,0.22834 0.0228,0.23169 0.12137,0.49115 0.3173,0.7289 0.49738,-0.33795 0.57567,-0.89152 0.43201,-1.19917 0.0767,-0.0286 0.14412,-0.0672 0.20413,-0.11471 0.0469,0.61626 0.22896,1.20304 0.47955,1.73255 0.1878,0.39783 0.4129,0.76862 0.65009,1.12146 v 15.65802 h 0.86093 l 0.0145,-12.3681 c 0.18844,0.0108 0.35387,-0.0354 0.46871,-0.11366 0.0653,0.14075 0.19028,0.28167 0.37568,0.3806 0.20915,-0.31699 0.12478,-0.65765 -0.031,-0.80449 0.0731,-0.0443 0.13468,-0.0709 0.1881,-0.0839 0.17795,0.30638 0.33606,0.62159 0.4594,0.95935 0.39367,1.05762 0.42728,2.28908 0.49196,3.33003 0.0752,1.27365 0.21504,2.37654 0.72037,3.34619 0.44461,0.85001 1.11694,1.45683 1.78697,1.82222 0.91159,0.49708 1.81224,0.57145 2.47273,0.51096 -0.6211,0.05 -1.53732,-0.0276 -2.44999,-0.55266 -0.65001,-0.37391 -1.2976,-0.98588 -1.71204,-1.83057 -0.47104,-0.9565 -0.57262,-2.03169 -0.61805,-3.30603 -0.0339,-1.03554 -0.0361,-2.28594 -0.41599,-3.41973 -0.20868,-0.61115 -0.50892,-1.15588 -0.85215,-1.68768 0.0707,-0.0666 0.15956,-0.12955 0.32866,-0.17624 -0.003,0.25103 0.21428,0.59814 0.64803,0.67572 0.0668,-0.23759 0.0495,-0.45811 -0.0155,-0.62724 0.1983,-0.0433 0.42059,-0.19013 0.57671,-0.44628 -0.23639,-0.18216 -0.49596,-0.20806 -0.69556,-0.15277 -0.0207,-0.17082 -0.0982,-0.36051 -0.24702,-0.53286 -0.36174,0.25817 -0.41036,0.66814 -0.2992,0.89312 -0.15134,0.0603 -0.25223,0.17558 -0.33228,0.31283 -0.2643,-0.40544 -0.55259,-0.80849 -0.84543,-1.22367 l 0.006,-4.65432 c 0.52809,0.0666 0.66879,-0.30699 0.70176,-0.80241 v -2.33212 c 0.11418,-0.11967 0.22804,-0.23894 0.34468,-0.35976 0.24067,-0.24762 0.4845,-0.50362 0.72554,-0.76589 l -0.15658,8.14337 a 0.52899998,0.53372212 0 0 0 0.5178,0.54379 0.52899998,0.53372212 0 0 0 0.53898,-0.52449 l 0.18242,-9.50314 c 0.0134,-0.0199 0.0276,-0.0389 0.0408,-0.0589 0.48542,-0.72927 0.84885,-1.58723 0.93069,-2.50939 0.0921,7.2e-4 0.20257,0.0238 0.34675,0.0886 -0.18476,0.22216 -0.2423,0.69214 0.0889,1.08188 0.23208,-0.16289 0.37668,-0.37231 0.44132,-0.57145 0.20853,0.10787 0.51283,0.14113 0.83819,0.0276 -0.079,-0.33737 -0.29217,-0.55263 -0.51056,-0.65068 0.10544,-0.16794 0.17429,-0.39516 0.1664,-0.65903 -0.51077,-0.0366 -0.85199,0.29448 -0.91571,0.57769 -0.15345,-0.0496 -0.30229,-0.0324 -0.44959,0.013 0.005,-0.0694 0.0121,-0.13841 0.0134,-0.20856 0.004,-0.71229 -0.16849,-1.40307 -0.44752,-2.03804 0.049,-0.13938 0.12619,-0.28833 0.31109,-0.47343 0.2022,0.37199 0.81092,0.69956 1.51361,0.44526 -0.0996,-0.40463 -0.30776,-0.71282 -0.54364,-0.90564 0.2546,-0.23114 0.45802,-0.63383 0.47387,-1.14129 -0.4978,-0.0669 -0.90013,0.11462 -1.1467,0.36446 -0.17238,-0.23278 -0.44332,-0.44532 -0.8046,-0.57196 -0.31561,0.68464 -0.0457,1.32667 0.30438,1.56205 -0.12142,0.15308 -0.18245,0.32499 -0.20826,0.50781 -0.0639,-0.13144 -0.13053,-0.2611 -0.20257,-0.38685 -0.0411,-0.0723 -0.0877,-0.13948 -0.13074,-0.21012 l 0.24184,-12.59804 c 0.33613,-0.44842 0.64332,-0.92297 0.89814,-1.44004 0.50106,-1.00496 0.72114,-2.1615 0.50333,-3.27061 -0.0186,-0.0947 -0.0405,-0.18934 -0.0656,-0.28363 -0.0449,-0.1528 -0.10003,-0.30018 -0.15968,-0.44473 0.0322,-0.0173 0.0743,-0.032 0.12867,-0.0433 -0.0111,0.14858 0.10474,0.36227 0.35863,0.42493 0.0486,-0.13816 0.0466,-0.26957 0.0145,-0.37226 0.11911,-0.018 0.25645,-0.0962 0.35864,-0.24194 -0.13312,-0.11702 -0.28636,-0.14233 -0.40669,-0.11729 -0.006,-0.102 -0.0445,-0.21751 -0.12609,-0.32535 -0.22578,0.14003 -0.26862,0.38333 -0.20929,0.52033 -0.0576,0.0189 -0.10724,0.049 -0.14676,0.0902 -0.1447,-0.33584 -0.32499,-0.64946 -0.53382,-0.93898 0.0318,-0.0636 0.0814,-0.13376 0.15399,-0.21273 0.14998,0.24911 0.57442,0.45658 1.04903,0.26486 -0.0785,-0.27562 -0.22943,-0.48245 -0.39635,-0.60898 0.16924,-0.16535 0.29935,-0.44694 0.29765,-0.79614 -0.34382,-0.0334 -0.61602,0.1015 -0.77928,0.27947 -0.12428,-0.15564 -0.31593,-0.2949 -0.56741,-0.37279 -0.19985,0.47847 0.002,0.91321 0.24805,1.06621 -0.0552,0.0752 -0.0907,0.15573 -0.1111,0.24035 -0.11823,-0.15335 -0.24242,-0.30074 -0.37362,-0.44003 l 0.20102,-10.46977 c 0.1429,-0.113 0.2837,-0.23054 0.41909,-0.35819 0.14389,-0.13694 0.2779,-0.28663 0.40566,-0.44318 0.0526,0.0598 0.106,0.13619 0.16072,0.23357 -0.37525,0.0911 -0.80975,0.55596 -0.75603,1.24506 0.37921,0.008 0.70043,-0.1032 0.92656,-0.26748 0.14152,0.28326 0.44567,0.56211 0.88728,0.69865 0.17881,-0.42866 0.11643,-0.83153 -0.0434,-1.11209 0.2459,-0.0979 0.49831,-0.28905 0.69659,-0.58133 -0.52473,-0.44705 -1.15424,-0.36123 -1.44539,-0.10534 -0.0837,-0.11555 -0.18672,-0.2001 -0.30334,-0.26329 0.15499,-0.20758 0.29435,-0.43023 0.41187,-0.6684 0.2404,-0.48661 0.37506,-1.03644 0.36225,-1.60325 -0.003,-0.0916 -0.0117,-0.18253 -0.0222,-0.27265 0.0729,-0.0704 0.17144,-0.14095 0.31316,-0.21118 0.0678,0.38338 0.50241,0.84851 1.18752,0.83524 0.031,-0.38141 -0.0607,-0.71143 -0.20981,-0.94888 0.28864,-0.12579 0.58239,-0.41577 0.74364,-0.85247 -0.41355,-0.20543 -0.81624,-0.16625 -1.1033,-0.0219 -0.0823,-0.25349 -0.25637,-0.51918 -0.53382,-0.73618 -0.47352,0.50217 -0.42477,1.14063 -0.18862,1.4489 -0.1031,0.0667 -0.1848,0.14889 -0.2496,0.24347 -0.0725,-0.37655 -0.2033,-0.73632 -0.38654,-1.06153 -0.2644,-0.4699 -0.6115,-0.87318 -1.00045,-1.20855 -0.0505,-0.0432 -0.10311,-0.0823 -0.15451,-0.12356 l 0.1359,-7.06884 a 0.52899998,0.53372212 0 0 0 -0.51728,-0.54379 0.52899998,0.53372212 0 0 0 -0.53898,0.52243 l -0.12299,6.39312 c -0.43794,-0.24551 -0.88496,-0.45351 -1.31982,-0.64808 -0.20042,-0.0924 -0.39878,-0.18347 -0.59428,-0.27528 z m 0,8.1632 c 0.0506,0.0228 0.10222,0.0473 0.15245,0.0698 0.61657,0.28499 1.21706,0.56083 1.73787,0.90615 l -0.0961,5.01462 c -0.45097,0.29884 -0.95669,0.55455 -1.47485,0.81332 -0.10509,0.0511 -0.21277,0.10441 -0.31936,0.15644 z m 2.92902,1.9223 c 0.091,0.11813 0.1758,0.23935 0.24598,0.36706 0.18596,0.33904 0.30457,0.71242 0.31161,1.07613 0.0135,0.36422 -0.0841,0.74389 -0.25166,1.09279 -0.0962,0.19992 -0.22205,0.38918 -0.36536,0.56884 z m -1.15962,5.34465 -0.16949,8.8488 c -0.53149,-0.40287 -1.0771,-0.74966 -1.59991,-1.098 v -6.84308 c 0.22646,-0.11508 0.45642,-0.22997 0.6904,-0.34567 -0.006,0.0464 -0.004,0.0941 0.006,0.14338 -0.19902,0.0198 -0.4547,0.23085 -0.46974,0.59123 0.17968,0.0261 0.34003,-0.004 0.46302,-0.0636 0.0499,0.15955 0.17979,0.32431 0.40411,0.40563 0.10301,-0.21741 0.10438,-0.43152 0.047,-0.58499 0.14111,-0.0294 0.29584,-0.11361 0.42529,-0.26225 -0.24021,-0.26069 -0.56592,-0.25792 -0.73225,-0.14703 -0.0161,-0.0516 -0.0279,-0.0986 -0.032,-0.13767 0.32035,-0.15496 0.64516,-0.32423 0.96738,-0.50676 z m -5.31027,1.84514 c 0.10853,0.10612 0.23246,0.17433 0.36742,0.2164 -0.0177,0.0259 -0.0375,0.0497 -0.0548,0.0761 -0.0834,0.12731 -0.15735,0.26153 -0.22583,0.39938 -0.0361,-0.1055 -0.0977,-0.18919 -0.16743,-0.23879 0.169,-0.13728 0.27107,-0.12687 0.39326,-0.16059 -0.17612,-0.0321 -0.34814,-0.0439 -0.4992,0.0532 -0.0222,-0.044 -0.057,-0.0864 -0.10077,-0.1246 0.1198,-0.0583 0.21789,-0.13486 0.28732,-0.22107 z m 1.06712,1.13818 0.005,2.32378 c -0.0603,-0.12639 -0.11494,-0.25479 -0.15658,-0.38581 -0.11705,-0.36905 -0.16486,-0.75708 -0.11369,-1.12098 0.035,-0.27819 0.12996,-0.55527 0.26562,-0.81699 z m 2.47375,6.0683 c 0.51055,0.33815 1.00719,0.67538 1.43816,1.05631 0.0458,0.0412 0.0901,0.0839 0.13487,0.12619 l -0.10594,5.51198 c -0.22456,-0.0194 -0.42655,0.0197 -0.5829,0.0975 -0.0699,-0.22698 -0.26087,-0.47124 -0.57051,-0.62721 -0.18468,0.29449 -0.18762,0.60012 -0.10387,0.82742 -0.0685,0.0147 -0.13919,0.0412 -0.20981,0.0735 z m 2.60449,2.50678 c 0.0843,0.1712 0.1529,0.347 0.20051,0.52818 0.0203,0.0676 0.0379,0.13574 0.0527,0.20488 0.15684,0.73442 0.0102,1.56131 -0.31213,2.34151 z m -1.14566,4.63922 -0.004,0.20282 c -0.12786,0.1623 -0.25745,0.32509 -0.39429,0.48696 -0.0594,-0.0654 -0.11559,-0.16118 -0.16691,-0.30082 0.1917,-0.0148 0.41936,-0.14972 0.56534,-0.38896 z m -0.78032,0.44683 c 0.0717,0.14424 0.18721,0.23945 0.32091,0.31388 -0.12166,0.14289 -0.24272,0.28574 -0.36897,0.43012 -0.20595,0.23244 -0.41784,0.47138 -0.63045,0.71481 v -1.44058 c 0.25528,0.10617 0.51602,0.0823 0.67851,-0.0183 z m 0.74414,1.43117 -0.18965,9.8801 c -0.13355,-0.16265 -0.26882,-0.32263 -0.40307,-0.48071 -0.2846,-0.33779 -0.56596,-0.66907 -0.82993,-1.00468 v -6.7555 c 0.43744,-0.55362 0.92737,-1.08548 1.40767,-1.62252 0.005,-0.005 0.01,-0.0112 0.015,-0.0167 z m -1.42265,9.78208 c 0.0572,0.065 0.11461,0.13096 0.17157,0.19553 0.36435,0.41631 0.71789,0.82818 1.03559,1.25495 l -0.0992,5.1606 c -0.3349,-0.0387 -0.63786,0.0119 -0.87229,0.12355 -0.0429,-0.14821 -0.12282,-0.30112 -0.23565,-0.44682 z m 2.22674,3.39418 c 0.0929,0.32238 0.14876,0.64988 0.14934,0.97758 0.008,0.39884 -0.065,0.79878 -0.1912,1.18926 z m -1.13068,3.8222 -0.006,0.30136 c -0.19725,0.25252 -0.40554,0.49936 -0.62166,0.74192 -0.0871,-0.0986 -0.17018,-0.23134 -0.24288,-0.4437 0.29351,-0.0156 0.65313,-0.22079 0.87023,-0.59958 z m -1.09606,0.8196 c 0.0988,0.13863 0.22874,0.24332 0.37672,0.32848 -0.12467,0.13849 -0.25048,0.27613 -0.37672,0.41345 z m -1.58595,3.66582 v 4.42024 c -0.0878,-0.16286 -0.17124,-0.32751 -0.24494,-0.49636 -0.23706,-0.54475 -0.40024,-1.13443 -0.40101,-1.72523 -0.008,-0.75445 0.25023,-1.50677 0.64595,-2.19865 z m -1.43402,1.92334 c 0.0977,0.0119 0.19761,0.0117 0.29869,0.003 -0.003,0.0763 -0.006,0.15282 -0.005,0.22941 -0.0632,0.0311 -0.13583,0.0598 -0.23203,0.0834 0.004,-0.0978 -0.0164,-0.2064 -0.062,-0.31545 z m 2.312,4.52088 c 0.34501,0.46081 0.66875,0.90399 0.94413,1.36339 -0.0777,-0.003 -0.15434,0.0129 -0.22996,0.048 -0.0692,-0.20187 -0.34607,-0.41451 -0.71572,-0.34724 z m -0.002,1.13294 c 0.0265,0.16396 0.0892,0.30224 0.17054,0.40251 -0.0622,0.0376 -0.12013,0.0932 -0.17105,0.15901 z"
       style="color:#000000;font-style:normal;font-variant:normal;font-weight:normal;font-stretch:normal;font-size:medium;line-height:normal;font-family:sans-serif;font-variant-ligatures:normal;font-variant-position:normal;font-variant-caps:normal;font-variant-numeric:normal;font-variant-alternates:normal;font-variant-east-asian:normal;font-feature-settings:normal;font-variation-settings:normal;text-indent:0;text-align:start;text-decoration:none;text-decoration-line:none;text-decoration-style:solid;text-decoration-color:#000000;letter-spacing:normal;word-spacing:normal;text-transform:none;writing-mode:lr-tb;direction:ltr;text-orientation:mixed;dominant-baseline:auto;baseline-shift:baseline;text-anchor:start;white-space:normal;shape-padding:0;shape-margin:0;inline-size:0;clip-rule:nonzero;display:inline;overflow:visible;visibility:visible;opacity:1;isolation:auto;mix-blend-mode:normal;color-interpolation:sRGB;color-interpolation-filters:linearRGB;solid-color:#000000;solid-opacity:1;vector-effect:none;fill:#000000;fill-opacity:1;fill-rule:nonzero;stroke:none;stroke-width:1.59457;stroke-linecap:butt;stroke-linejoin:miter;stroke-miterlimit:4;stroke-dasharray:none;stroke-dashoffset:0;stroke-opacity:1;filter:url(#filter10752);color-rendering:auto;image-rendering:auto;shape-rendering:auto;text-rendering:auto;enable-background:accumulate;stop-color:#000000;stop-opacity:1"
       id="path12492" />
  </g>
</svg>
