<?xml version="1.0" encoding="UTF-8" standalone="no"?>
<svg
   xmlns:dc="http://purl.org/dc/elements/1.1/"
   xmlns:cc="http://creativecommons.org/ns#"
   xmlns:rdf="http://www.w3.org/1999/02/22-rdf-syntax-ns#"
   xmlns:svg="http://www.w3.org/2000/svg"
   xmlns="http://www.w3.org/2000/svg"
   xmlns:sodipodi="http://sodipodi.sourceforge.net/DTD/sodipodi-0.dtd"
   xmlns:inkscape="http://www.inkscape.org/namespaces/inkscape"
   sodipodi:docname="04_hanging_u_vines_main_menu_right.svg"
   inkscape:version="1.0 (4035a4fb49, 2020-05-01)"
   id="svg13965"
   version="1.1"
   viewBox="0 0 34.599319 38.347847"
   height="38.347847mm"
   width="34.599319mm">
  <defs
     id="defs13959" />
  <sodipodi:namedview
     inkscape:window-maximized="1"
     inkscape:window-y="-8"
     inkscape:window-x="-8"
     inkscape:window-height="705"
     inkscape:window-width="1366"
     fit-margin-bottom="0"
     fit-margin-right="0"
     fit-margin-left="0"
     fit-margin-top="0"
     showgrid="false"
     inkscape:document-rotation="0"
     inkscape:current-layer="layer1"
     inkscape:document-units="mm"
     inkscape:cy="104.48779"
     inkscape:cx="108.50709"
     inkscape:zoom="2.6845878"
     inkscape:pageshadow="2"
     inkscape:pageopacity="0.0"
     borderopacity="1.0"
     bordercolor="#666666"
     pagecolor="#ffffff"
     id="base" />
  <metadata
     id="metadata13962">
    <rdf:RDF>
      <cc:Work
         rdf:about="">
        <dc:format>image/svg+xml</dc:format>
        <dc:type
           rdf:resource="http://purl.org/dc/dcmitype/StillImage" />
        <dc:title></dc:title>
      </cc:Work>
    </rdf:RDF>
  </metadata>
  <g
     transform="translate(-81.256751,-104.61292)"
     id="layer1"
     inkscape:groupmode="layer"
     inkscape:label="Layer 1">
    <path
       style="color:#000000;font-style:normal;font-variant:normal;font-weight:normal;font-stretch:normal;font-size:medium;line-height:normal;font-family:sans-serif;font-variant-ligatures:normal;font-variant-position:normal;font-variant-caps:normal;font-variant-numeric:normal;font-variant-alternates:normal;font-variant-east-asian:normal;font-feature-settings:normal;font-variation-settings:normal;text-indent:0;text-align:start;text-decoration:none;text-decoration-line:none;text-decoration-style:solid;text-decoration-color:#000000;letter-spacing:normal;word-spacing:normal;text-transform:none;writing-mode:lr-tb;direction:ltr;text-orientation:mixed;dominant-baseline:auto;baseline-shift:baseline;text-anchor:start;white-space:normal;shape-padding:0;shape-margin:0;inline-size:0;clip-rule:nonzero;display:inline;overflow:visible;visibility:visible;opacity:1;isolation:auto;mix-blend-mode:normal;color-interpolation:sRGB;color-interpolation-filters:linearRGB;solid-color:#000000;solid-opacity:1;vector-effect:none;fill:#041a08;fill-opacity:1;fill-rule:nonzero;stroke:none;stroke-width:0.79375;stroke-linecap:butt;stroke-linejoin:miter;stroke-miterlimit:4;stroke-dasharray:none;stroke-dashoffset:0;stroke-opacity:1;color-rendering:auto;image-rendering:auto;shape-rendering:auto;text-rendering:auto;enable-background:accumulate;stop-color:#000000;stop-opacity:1"
       d="m 82.211651,104.73597 -0.72461,0.32227 c 4.20933,9.47357 8.40036,17.91831 12.31055,24.36523 3.91019,6.44692 7.495909,10.90864 10.710929,12.41406 1.60752,0.75273 3.191,0.71709 4.50586,-0.27343 1.31487,-0.99052 2.35974,-2.84381 3.18946,-5.6543 1.65943,-5.62097 2.44479,-15.14457 2.12695,-29.61719 l -0.79297,0.0176 c 0.31704,14.43588 -0.48633,23.92359 -2.0957,29.37501 -0.80469,2.7257 -1.81414,4.42288 -2.9043,5.24414 -1.09016,0.82124 -2.26208,0.85768 -3.69336,0.18749 -2.86254,-1.34039 -6.485969,-5.70436 -10.367179,-12.10352 -3.88122,-6.39914 -8.06464,-14.82254 -12.26563,-24.27734 z"
       id="path11669" />
    <path
       style="color:#000000;font-style:normal;font-variant:normal;font-weight:normal;font-stretch:normal;font-size:medium;line-height:normal;font-family:sans-serif;font-variant-ligatures:normal;font-variant-position:normal;font-variant-caps:normal;font-variant-numeric:normal;font-variant-alternates:normal;font-variant-east-asian:normal;font-feature-settings:normal;font-variation-settings:normal;text-indent:0;text-align:start;text-decoration:none;text-decoration-line:none;text-decoration-style:solid;text-decoration-color:#000000;letter-spacing:normal;word-spacing:normal;text-transform:none;writing-mode:lr-tb;direction:ltr;text-orientation:mixed;dominant-baseline:auto;baseline-shift:baseline;text-anchor:start;white-space:normal;shape-padding:0;shape-margin:0;inline-size:0;clip-rule:nonzero;display:inline;overflow:visible;visibility:visible;opacity:1;isolation:auto;mix-blend-mode:normal;color-interpolation:sRGB;color-interpolation-filters:linearRGB;solid-color:#000000;solid-opacity:1;vector-effect:none;fill:#041a08;fill-opacity:1;fill-rule:nonzero;stroke:none;stroke-width:0.529167;stroke-linecap:butt;stroke-linejoin:miter;stroke-miterlimit:4;stroke-dasharray:none;stroke-dashoffset:0;stroke-opacity:1;color-rendering:auto;image-rendering:auto;shape-rendering:auto;text-rendering:auto;enable-background:accumulate;stop-color:#000000;stop-opacity:1"
       d="m 88.272201,104.61292 -0.5293,0.008 c 0.138159,8.30591 2.16903,15.31369 4.69531,21.98046 l 0.49414,-0.1875 c -2.51605,-6.63976 -4.52335,-13.57603 -4.66015,-21.80078 z"
       id="path11674" />
    <path
       style="fill:#041a08;fill-opacity:1;stroke:none;stroke-width:0.264583px;stroke-linecap:butt;stroke-linejoin:miter;stroke-opacity:1"
       d="m 81.256781,106.87678 0.0158,-0.20154 0.0158,-0.20144 c 1.13065,0.089 2.22532,0.55098 3.07797,1.29884 0.85227,0.74829 1.45246,1.7737 1.68761,2.88321 0,0 0,0 0,0 0.24532,1.18267 0.0927,2.3763 0.0486,3.52467 -0.0202,0.57405 -0.0138,1.1448 0.0822,1.6962 0.0964,0.55067 0.27895,1.08673 0.58689,1.53596 v 0 c 0.44722,0.66815 1.166559,1.13624 1.87138,1.62886 0.71183,0.48594 1.44768,1.04428 1.88216,1.85183 0.43748,0.84938 0.46671,1.812 0.46555,2.70723 0.0101,0.89266 0.009,1.79211 0.37936,2.53721 0.24229,0.50506 0.64723,0.93131 1.10495,1.28748 0,0 0,10e-6 0,10e-6 0.45912,0.35582 0.97987,0.64158 1.50724,0.9303 0.52804,0.28768 1.06746,0.58116 1.56463,0.95442 v 0 c 0.49848,0.37281 0.94985,0.83738 1.24654,1.40705 0.25539,0.49939 0.37715,1.04718 0.42755,1.58668 0.0514,0.5389 0.0405,1.07175 0.043,1.59363 0.001,0.18647 0.004,0.37213 0.012,0.55619 0.014,0.32782 0.0438,0.65467 0.1102,0.97273 0,0 0,2e-5 0,2e-5 0.10206,0.4842 0.28606,0.96154 0.59857,1.33556 0,0 0,0 0,0 0.28103,0.34326 0.6703,0.60352 1.09709,0.79688 0.42124,0.19001 0.87963,0.30987 1.354359,0.41524 0,0 1e-5,0 1e-5,0 0.9213,0.19885 1.95537,0.35629 2.82891,0.90525 0.91102,0.59123 1.47766,1.49596 2.13564,2.28916 0.32344,0.38534 0.67322,0.74821 1.08367,1.01372 0.40728,0.26245 0.87944,0.43798 1.35036,0.42507 0.5516,-0.009 1.09698,-0.27878 1.49491,-0.68282 0.39841,-0.40428 0.65501,-0.94657 0.78106,-1.5142 0,0 0,0 0,0 0.15465,-0.69265 0.11089,-1.4298 0.0998,-2.1732 0,0 0,-10e-6 0,-10e-6 -0.0152,-0.74621 0.0114,-1.52476 0.29786,-2.24348 0,0 0,-1e-5 0,-1e-5 0.3341,-0.81435 0.95973,-1.44477 1.56202,-2.02339 0,0 1e-5,0 1e-5,0 0.60698,-0.591 1.21598,-1.16975 1.54669,-1.90274 0,0 0,0 0,0 0.29059,-0.63199 0.36028,-1.354 0.30301,-2.04999 0,0 0,-1e-5 0,-1e-5 -0.0588,-0.70687 -0.24987,-1.40258 -0.4596,-2.07868 -0.21766,-0.69954 -0.45179,-1.36821 -0.61339,-2.07602 -0.165,-0.7202 -0.24194,-1.45662 -0.13566,-2.17462 0.18837,-1.23913 0.90962,-2.33962 1.49143,-3.33231 0.3136,-0.53709 0.59897,-1.06314 0.80017,-1.62158 0.20908,-0.581 0.31975,-1.18083 0.26954,-1.76445 -0.0815,-0.97929 -0.6162,-1.88054 -1.09825,-2.64205 -0.57793,-0.90976 -1.08797,-1.67395 -1.305,-2.5959 -0.24194,-1.03096 -0.0306,-2.02737 0.36246,-2.76103 0.56078,-1.0465 1.45985,-1.59146 2.09077,-1.82775 -0.6605,0.25035 -1.53584,0.81237 -2.07373,1.83679 -0.38812,0.73907 -0.58348,1.73016 -0.33587,2.74153 0.22243,0.91145 0.73848,1.66409 1.32295,2.56687 0.49322,0.75905 1.0403,1.66412 1.13842,2.67235 0.0569,0.60192 -0.0495,1.2193 -0.25784,1.81392 -0.20013,0.57179 -0.48378,1.10851 -0.79365,1.65061 -0.57223,1.00504 -1.27652,2.09735 -1.43884,3.28791 -0.0969,0.68935 -0.0136,1.40149 0.15308,2.10545 0.16449,0.69232 0.40334,1.35314 0.62874,2.05538 0.2185,0.67875 0.4192,1.38795 0.48844,2.12279 0,0 0,0 0,0 0.0689,0.72477 -5.3e-4,1.48764 -0.30545,2.17535 0,0 0,0 0,0 -0.35732,0.79144 -0.98087,1.40402 -1.58589,1.9955 0,0 0,0 0,0 -0.59089,0.58559 -1.19019,1.18965 -1.47956,1.93593 0,0 0,0 0,0 -0.26161,0.65295 -0.27482,1.39083 -0.25974,2.12723 0,0 0,1e-5 0,1e-5 0.0192,0.73459 0.0661,1.49547 -0.0911,2.249 0,0 0,0 0,0 -0.12997,0.61948 -0.41145,1.21798 -0.85796,1.68288 -0.44928,0.46751 -1.0727,0.77674 -1.73116,0.79774 -0.56035,0.0124 -1.10148,-0.17903 -1.55578,-0.47398 -0.45595,-0.295 -0.83502,-0.67991 -1.17073,-1.0795 -0.68986,-0.81184 -1.23262,-1.6898 -2.0584,-2.20249 -0.77483,-0.49876 -1.76677,-0.63552 -2.70687,-0.84387 0,0 -1e-5,0 -1e-5,0 -0.485462,-0.10468 -0.970232,-0.23186 -1.432842,-0.43703 -0.47058,-0.20787 -0.90895,-0.50437 -1.24384,-0.90497 0,0 0,0 0,0 -0.36401,-0.44304 -0.57632,-0.97835 -0.68433,-1.51029 0,0 -1e-5,0 -1e-5,0 -0.0712,-0.34745 -0.10395,-0.69561 -0.11892,-1.03701 -0.008,-0.1916 -0.0113,-0.38236 -0.012,-0.5715 -0.003,-0.5291 0.008,-1.04974 -0.0411,-1.55698 -0.0506,-0.50663 -0.15796,-1.00559 -0.38443,-1.44019 -0.25502,-0.49972 -0.6677,-0.91844 -1.13048,-1.26948 -0.46413,-0.35063 -0.98708,-0.63349 -1.51521,-0.92255 -0.5288,-0.28803 -1.06733,-0.58541 -1.56059,-0.96517 0,0 0,0 0,0 -0.494607,-0.37937 -0.938407,-0.85342 -1.221507,-1.4309 -0.4087,-0.8612 -0.4206,-1.81877 -0.41992,-2.71156 -0.0106,-0.89017 -0.0243,-1.79071 -0.41896,-2.52096 -0.36414,-0.70838 -1.05747,-1.21873 -1.75457,-1.70785 -0.7042,-0.4825 -1.45824,-0.98555 -1.97546,-1.73374 0,0 0,0 0,0 -0.346101,-0.51129 -0.55002,-1.10028 -0.65111,-1.69475 -0.10157,-0.59378 -0.109891,-1.19233 -0.0878,-1.77962 0,0 0,0 0,0 0.0404,-1.17428 0.19589,-2.33511 -0.0401,-3.42626 0,0 0,0 0,0 -0.21607,-1.02216 -0.77332,-1.9742 -1.55877,-2.66309 -0.78508,-0.68933 -1.80143,-1.1182 -2.843,-1.19968 z"
       id="path11687"
       inkscape:export-filename="D:\Calcatz\Icon Pack\Adventure Narrative Inspired by Jumanji\Assets\PNG\Vines\03_hanging_u_vines_main_menu_right.png"
       inkscape:export-xdpi="96"
       inkscape:export-ydpi="96" />
    <path
       style="color:#000000;font-style:normal;font-variant:normal;font-weight:normal;font-stretch:normal;font-size:medium;line-height:normal;font-family:sans-serif;font-variant-ligatures:normal;font-variant-position:normal;font-variant-caps:normal;font-variant-numeric:normal;font-variant-alternates:normal;font-variant-east-asian:normal;font-feature-settings:normal;font-variation-settings:normal;text-indent:0;text-align:start;text-decoration:none;text-decoration-line:none;text-decoration-style:solid;text-decoration-color:#000000;letter-spacing:normal;word-spacing:normal;text-transform:none;writing-mode:lr-tb;direction:ltr;text-orientation:mixed;dominant-baseline:auto;baseline-shift:baseline;text-anchor:start;white-space:normal;shape-padding:0;shape-margin:0;inline-size:0;clip-rule:nonzero;display:inline;overflow:visible;visibility:visible;opacity:1;isolation:auto;mix-blend-mode:normal;color-interpolation:sRGB;color-interpolation-filters:linearRGB;solid-color:#000000;solid-opacity:1;vector-effect:none;fill:#041a08;fill-opacity:1;fill-rule:nonzero;stroke:none;stroke-width:0.529167;stroke-linecap:butt;stroke-linejoin:miter;stroke-miterlimit:4;stroke-dasharray:none;stroke-dashoffset:0;stroke-opacity:1;color-rendering:auto;image-rendering:auto;shape-rendering:auto;text-rendering:auto;enable-background:accumulate;stop-color:#000000;stop-opacity:1"
       d="m 89.682351,115.98206 -0.49609,0.18946 c 2.2966,6.03545 4.85315,12.66437 9.30664,19.87501 l 0.45117,-0.27735 c -4.42486,-7.16428 -6.96573,-13.75327 -9.26172,-19.78712 z"
       id="path11680" />
    <path
       style="fill:#041a08;fill-opacity:1;stroke:none;stroke-width:0.264583px;stroke-linecap:butt;stroke-linejoin:miter;stroke-opacity:1"
       d="m 92.937491,127.36214 c 0.6292,2.25319 0.80254,4.4494 0.72761,6.61458 0.35419,-3.87405 1.46481,-2.72929 1.45521,2.14974 0.30607,-1.4154 2.03856,-4.69323 1.9513,1.91824 0.29242,-0.75912 1.45997,-1.43528 1.78593,1.88514 0.32116,-2.91464 1.339769,-1.19669 1.422139,0.13231 0.70483,-1.39091 1.06371,0.0258 1.28984,1.15755 0.14433,-0.4951 0.1499,-1.12893 0.79375,-1.12449 l -4.167179,-4.56406 z"
       id="path11695"
       sodipodi:nodetypes="cccccccccc"
       inkscape:export-filename="D:\Calcatz\Icon Pack\Adventure Narrative Inspired by Jumanji\Assets\PNG\Vines\03_hanging_u_vines_main_menu_right.png"
       inkscape:export-xdpi="96"
       inkscape:export-ydpi="96" />
    <path
       style="fill:#041a08;fill-opacity:1;stroke:none;stroke-width:0.264583px;stroke-linecap:butt;stroke-linejoin:miter;stroke-opacity:1"
       d="m 112.88046,131.86005 c -0.1498,2.01853 -0.30342,4.28024 0.26459,6.3004 -0.95912,-1.78276 -1.2237,-0.58188 -1.09141,0.62839 -0.36469,-0.60941 -1.07378,-0.45839 -0.52917,1.9513 -0.51669,-0.68657 -1.21795,-2.30681 -1.02526,0.59531 -0.38266,-0.83551 -0.42512,-0.0976 -0.46302,0.66145 -0.10139,-0.58546 -0.15243,-1.2716 -0.46302,-1.43867 l 1.67018,-2.8112 z"
       id="path11697"
       sodipodi:nodetypes="ccccccccc"
       inkscape:export-filename="D:\Calcatz\Icon Pack\Adventure Narrative Inspired by Jumanji\Assets\PNG\Vines\03_hanging_u_vines_main_menu_right.png"
       inkscape:export-xdpi="96"
       inkscape:export-ydpi="96" />
    <path
       sodipodi:nodetypes="ccc"
       id="path11699"
       d="m 86.70157,118.19077 c 0.207951,0.88495 -0.893569,1.01085 -2.244399,0.42717 0.864739,-0.40882 1.52148,-1.20188 2.244399,-0.42717 z"
       style="fill:#041a08;fill-opacity:1;stroke:none;stroke-width:0.264583px;stroke-linecap:butt;stroke-linejoin:miter;stroke-opacity:1" />
    <path
       sodipodi:nodetypes="ccccccc"
       d="m 84.457171,118.61794 c 1.20599,0.52109 2.19499,0.43237 2.10258,-0.30281 -0.18855,0.0846 -0.74076,0.15176 -1.00617,0.12056 0.29966,-0.0367 0.87211,-0.1148 0.99254,-0.21309 -1.8e-4,-7.9e-4 -2.91e-4,-0.001 -3.18e-4,-0.002 -0.67267,-0.72086 -1.28386,0.017 -2.08849,0.39743 z"
       style="fill:#041a08;fill-opacity:1;stroke:none;stroke-width:0.264583px;stroke-linecap:butt;stroke-linejoin:miter;stroke-opacity:1"
       id="path11701" />
    <path
       style="fill:#041a08;fill-opacity:1;fill-rule:nonzero;stroke:none;stroke-width:0.264583px;stroke-linecap:butt;stroke-linejoin:miter;stroke-opacity:1"
       d="m 87.003631,117.95927 c -0.004,0.003 -0.0118,0.008 -0.0211,0.0133 v 0 c -0.009,0.005 -0.0142,0.008 -0.0265,0.0159 v 0 c -0.0179,0.0108 -0.0432,0.026 -0.0748,0.0441 v 0 c -0.0666,0.038 -0.18294,0.0968 -0.25685,0.13718 v 0 c -0.0106,0.006 -0.0206,0.0691 -0.0327,0.0754 0.0121,-0.006 0.0708,0.0203 0.0818,0.0143 v 0 c 0.0891,-0.0487 0.18306,-0.11922 0.24255,-0.18367 v 0 c 0.0269,-0.0291 0.0436,-0.053 0.0555,-0.0715 v 0 c 0.007,-0.0104 0.012,-0.0191 0.0166,-0.026 v 0 c 0.006,-0.009 0.011,-0.0154 0.0157,-0.0191 z"
       id="path11703"
       sodipodi:nodetypes="cc" />
    <path
       style="fill:#041a08;fill-opacity:1;stroke:none;stroke-width:0.264583px;stroke-linecap:butt;stroke-linejoin:miter;stroke-opacity:1"
       d="m 87.028121,118.38353 c 0.56136,0.24846 0.18049,0.89305 -0.68413,1.38289 0.13204,-0.6323 -0.0276,-1.30907 0.68413,-1.38289 z"
       id="path11709"
       sodipodi:nodetypes="ccc" />
    <path
       id="path11711"
       style="fill:#041a08;fill-opacity:1;stroke:none;stroke-width:0.264583px;stroke-linecap:butt;stroke-linejoin:miter;stroke-opacity:1"
       d="m 86.343991,119.76642 c 0.77192,-0.43732 1.12698,-1.00616 0.693349,-1.25585 -0.0312,0.13603 -0.219989,0.46081 -0.344909,0.59106 0.102289,-0.17636 0.29341,-0.5165 0.28952,-0.62141 -5.03e-4,-2.3e-4 -7.94e-4,-3.4e-4 -10e-4,-6.6e-4 -0.66227,0.0687 -0.513791,0.69845 -0.63665,1.2868 z"
       sodipodi:nodetypes="ccccccc" />
    <path
       sodipodi:nodetypes="cc"
       id="path11713"
       d="m 87.026471,118.12654 c 6e-5,0.004 -6.09e-4,0.01 -0.001,0.0168 v 0 c -7.94e-4,0.007 -10e-4,0.0111 -0.002,0.0208 v 0 c -0.002,0.014 -0.004,0.0338 -0.007,0.0583 v 0 c -0.007,0.0513 -0.0224,0.13797 -0.0308,0.19425 v 0 c -10e-4,0.008 0.0288,0.0393 0.0273,0.0483 0.002,-0.009 0.0398,-0.0298 0.041,-0.0382 v 0 c 0.0101,-0.0679 0.0104,-0.14717 -1.1e-4,-0.20547 v 0 c -0.005,-0.0263 -0.0108,-0.0451 -0.0159,-0.059 v 0 c -0.003,-0.008 -0.005,-0.0142 -0.007,-0.0195 v 0 c -0.002,-0.007 -0.004,-0.0122 -0.004,-0.0162 z"
       style="fill:#041a08;fill-opacity:1;fill-rule:nonzero;stroke:none;stroke-width:0.264583px;stroke-linecap:butt;stroke-linejoin:miter;stroke-opacity:1" />
    <path
       sodipodi:nodetypes="ccc"
       id="path11719"
       d="m 89.850401,119.84083 c -0.35693,-0.49946 0.29887,-0.86068 1.29244,-0.8426 -0.43531,0.47722 -0.64212,1.1411 -1.29244,0.8426 z"
       style="fill:#041a08;fill-opacity:1;stroke:none;stroke-width:0.264583px;stroke-linecap:butt;stroke-linejoin:miter;stroke-opacity:1" />
    <path
       sodipodi:nodetypes="ccccccc"
       d="m 91.142841,118.99823 c -0.88703,-0.0161 -1.48208,0.29299 -1.23576,0.72854 0.0961,-0.10124 0.42381,-0.28483 0.59761,-0.33343 -0.17777,0.0998 -0.51534,0.29544 -0.56536,0.38774 3.17e-4,4.5e-4 5.02e-4,7.2e-4 7.41e-4,10e-4 0.605129,0.27776 0.797639,-0.33998 1.20269,-0.78403 z"
       style="fill:#041a08;fill-opacity:1;stroke:none;stroke-width:0.264583px;stroke-linecap:butt;stroke-linejoin:miter;stroke-opacity:1"
       id="path11721" />
    <path
       style="fill:#041a08;fill-opacity:1;fill-rule:nonzero;stroke:none;stroke-width:0.264583px;stroke-linecap:butt;stroke-linejoin:miter;stroke-opacity:1"
       d="m 89.721091,120.06294 c 0.002,-0.003 0.005,-0.008 0.01,-0.0137 v 0 c 0.004,-0.006 0.007,-0.009 0.0125,-0.0167 v 0 c 0.008,-0.0113 0.0203,-0.0273 0.0354,-0.0468 v 0 c 0.0318,-0.0408 0.0894,-0.10737 0.12524,-0.15156 v 0 c 0.005,-0.006 -0.005,-0.0485 0.001,-0.0555 -0.006,0.007 -0.0494,0.005 -0.0548,0.012 v 0 c -0.0432,0.0533 -0.0838,0.12142 -0.10438,0.17695 v 0 c -0.009,0.0251 -0.0136,0.0443 -0.0163,0.0589 v 0 c -0.002,0.008 -0.003,0.015 -0.004,0.0205 v 0 c -0.001,0.007 -0.003,0.0124 -0.005,0.0159 z"
       id="path11723"
       sodipodi:nodetypes="cc" />
    <path
       style="fill:#041a08;fill-opacity:1;stroke:none;stroke-width:0.264583px;stroke-linecap:butt;stroke-linejoin:miter;stroke-opacity:1"
       d="m 90.435531,124.46693 c -0.0326,0.61302 -0.77051,0.48624 -1.53577,-0.1477 0.63792,-0.10142 1.2137,-0.49128 1.53577,0.1477 z"
       id="path11729"
       sodipodi:nodetypes="ccc" />
    <path
       id="path11731"
       style="fill:#041a08;fill-opacity:1;stroke:none;stroke-width:0.264583px;stroke-linecap:butt;stroke-linejoin:miter;stroke-opacity:1"
       d="m 88.899761,124.31923 c 0.6832,0.56597 1.34112,0.69556 1.42031,0.20149 -0.13825,0.0192 -0.50892,-0.0418 -0.67508,-0.11221 0.20121,0.0329 0.58708,0.0906 0.68375,0.0497 3e-5,-5.5e-4 5e-5,-8.7e-4 1.8e-4,-10e-4 -0.29968,-0.59457 -0.8355,-0.23187 -1.42908,-0.1375 z"
       sodipodi:nodetypes="ccccccc" />
    <path
       sodipodi:nodetypes="cc"
       id="path11733"
       d="m 90.675141,124.37401 c -0.003,0.001 -0.009,0.003 -0.0162,0.005 v 0 c -0.007,0.002 -0.0108,0.003 -0.0202,0.005 v 0 c -0.0137,0.004 -0.0329,0.009 -0.0569,0.0145 v 0 c -0.0503,0.0121 -0.13688,0.0281 -0.19244,0.0403 v 0 c -0.008,0.002 -0.0265,0.0409 -0.0355,0.0427 0.009,-0.002 0.042,0.0266 0.0503,0.0248 v 0 c 0.067,-0.0147 0.14121,-0.0426 0.19197,-0.0732 v 0 c 0.0229,-0.0138 0.0383,-0.0261 0.0495,-0.0358 v 0 c 0.006,-0.005 0.0114,-0.0101 0.0157,-0.0137 v 0 c 0.006,-0.005 0.01,-0.008 0.0138,-0.009 z"
       style="fill:#041a08;fill-opacity:1;fill-rule:nonzero;stroke:none;stroke-width:0.264583px;stroke-linecap:butt;stroke-linejoin:miter;stroke-opacity:1" />
    <path
       sodipodi:nodetypes="ccc"
       id="path11739"
       d="m 91.119331,126.59909 c 0.26088,0.38511 -0.24274,0.64629 -0.99503,0.61373 0.33881,-0.35322 0.50807,-0.85219 0.99503,-0.61373 z"
       style="fill:#041a08;fill-opacity:1;stroke:none;stroke-width:0.264583px;stroke-linecap:butt;stroke-linejoin:miter;stroke-opacity:1" />
    <path
       sodipodi:nodetypes="ccccccc"
       d="m 90.124301,127.21282 c 0.67162,0.0291 1.12824,-0.1938 0.94992,-0.5284 -0.0747,0.0749 -0.32644,0.20771 -0.45902,0.24122 0.13656,-0.0722 0.39598,-0.21401 0.43562,-0.28297 -2.3e-4,-3.4e-4 -3.71e-4,-5.5e-4 -5.29e-4,-9.5e-4 -0.453111,-0.22188 -0.61067,0.24239 -0.92592,0.57107 z"
       style="fill:#041a08;fill-opacity:1;stroke:none;stroke-width:0.264583px;stroke-linecap:butt;stroke-linejoin:miter;stroke-opacity:1"
       id="path11741" />
    <path
       style="fill:#041a08;fill-opacity:1;fill-rule:nonzero;stroke:none;stroke-width:0.264583px;stroke-linecap:butt;stroke-linejoin:miter;stroke-opacity:1"
       d="m 91.221491,126.4333 c -0.001,0.002 -0.004,0.006 -0.008,0.0102 v 0 c -0.003,0.004 -0.005,0.007 -0.01,0.0124 v 0 c -0.007,0.008 -0.0159,0.0203 -0.0277,0.0347 v 0 c -0.0249,0.0303 -0.0698,0.0796 -0.0978,0.11244 v 0 c -0.004,0.005 0.003,0.0368 -0.002,0.042 0.005,-0.005 0.0376,-0.003 0.0417,-0.008 v 0 c 0.0337,-0.0396 0.0658,-0.0904 0.0825,-0.13207 v 0 c 0.008,-0.0188 0.0112,-0.0333 0.0135,-0.0443 v 0 c 0.001,-0.006 0.002,-0.0113 0.003,-0.0155 v 0 c 0.001,-0.006 0.002,-0.009 0.004,-0.012 z"
       id="path11743"
       sodipodi:nodetypes="cc" />
    <path
       style="fill:#041a08;fill-opacity:1;stroke:none;stroke-width:0.264583px;stroke-linecap:butt;stroke-linejoin:miter;stroke-opacity:1"
       d="m 95.932661,129.57546 c -0.26088,-0.38511 0.24274,-0.64629 0.99503,-0.61373 -0.33881,0.35322 -0.50807,0.85219 -0.99503,0.61373 z"
       id="path11749"
       sodipodi:nodetypes="ccc" />
    <path
       id="path11751"
       style="fill:#041a08;fill-opacity:1;stroke:none;stroke-width:0.264583px;stroke-linecap:butt;stroke-linejoin:miter;stroke-opacity:1"
       d="m 96.927691,128.96173 c -0.67162,-0.0291 -1.12824,0.1938 -0.94992,0.5284 0.0747,-0.0749 0.32644,-0.20771 0.45902,-0.24122 -0.13656,0.0722 -0.39598,0.21401 -0.43562,0.28297 2.3e-4,3.5e-4 3.7e-4,5.6e-4 5.29e-4,9.6e-4 0.45311,0.22188 0.61067,-0.24239 0.92592,-0.57107 z"
       sodipodi:nodetypes="ccccccc" />
    <path
       sodipodi:nodetypes="cc"
       id="path11753"
       d="m 95.830501,129.74125 c 0.001,-0.002 0.004,-0.006 0.008,-0.0102 v 0 c 0.003,-0.004 0.005,-0.007 0.01,-0.0124 v 0 c 0.007,-0.008 0.0159,-0.0203 0.0277,-0.0347 v 0 c 0.0249,-0.0303 0.0698,-0.0796 0.0978,-0.11244 v 0 c 0.004,-0.005 -0.003,-0.0368 0.002,-0.042 -0.005,0.005 -0.0376,0.003 -0.0417,0.008 v 0 c -0.0337,0.0396 -0.0658,0.0904 -0.0825,0.13207 v 0 c -0.008,0.0188 -0.0111,0.0333 -0.0135,0.0443 v 0 c -0.001,0.006 -0.002,0.0113 -0.003,0.0155 v 0 c -0.001,0.006 -0.002,0.009 -0.004,0.012 z"
       style="fill:#041a08;fill-opacity:1;fill-rule:nonzero;stroke:none;stroke-width:0.264583px;stroke-linecap:butt;stroke-linejoin:miter;stroke-opacity:1" />
    <path
       sodipodi:nodetypes="ccc"
       id="path11759"
       d="m 97.012591,130.94496 c 0.16511,0.52395 0.77624,0.24936 1.29786,-0.47083 -0.57543,0.0545 -1.16141,-0.15478 -1.29786,0.47083 z"
       style="fill:#041a08;fill-opacity:1;stroke:none;stroke-width:0.264583px;stroke-linecap:butt;stroke-linejoin:miter;stroke-opacity:1" />
    <path
       sodipodi:nodetypes="ccccccc"
       d="m 98.310451,130.47413 c -0.46569,0.64296 -1.00689,0.90213 -1.1858,0.49167 0.12408,-0.0142 0.43168,-0.14981 0.55994,-0.24794 -0.16701,0.0734 -0.48851,0.20955 -0.58142,0.19566 -1.5e-4,-4.7e-4 -2.4e-4,-7.4e-4 -4.76e-4,-0.001 0.12696,-0.58213 0.67224,-0.38744 1.20768,-0.43817 z"
       style="fill:#041a08;fill-opacity:1;stroke:none;stroke-width:0.264583px;stroke-linecap:butt;stroke-linejoin:miter;stroke-opacity:1"
       id="path11761" />
    <path
       style="fill:#041a08;fill-opacity:1;fill-rule:nonzero;stroke:none;stroke-width:0.264583px;stroke-linecap:butt;stroke-linejoin:miter;stroke-opacity:1"
       d="m 96.784211,130.91792 c 0.004,5.1e-4 0.008,0.002 0.014,0.005 v 0 c 0.005,0.002 0.01,0.005 0.0166,0.008 v 0 c 0.0119,0.006 0.028,0.0132 0.0509,0.02 v 0 c 0.0508,0.015 0.12139,0.0226 0.18268,0.0204 v 0 c 0.008,-2.9e-4 0.0298,-0.0322 0.0381,-0.0327 -0.008,4.5e-4 -0.033,-0.0293 -0.0403,-0.0291 v 0 c -0.0509,0.002 -0.12949,0.007 -0.17579,0.008 v 0 c -0.0221,4e-4 -0.0398,3e-4 -0.0525,2.1e-4 v 0 c -0.007,-4e-5 -0.0136,-7e-5 -0.0187,-9e-5 v 0 c -0.007,-3e-5 -0.0118,-5e-5 -0.0151,-5e-4 z"
       id="path11763"
       sodipodi:nodetypes="cc" />
    <path
       style="fill:#041a08;fill-opacity:1;stroke:none;stroke-width:0.264583px;stroke-linecap:butt;stroke-linejoin:miter;stroke-opacity:1"
       d="m 101.6423,138.16117 c 0.42544,-0.12508 0.21338,-0.6226 -0.35972,-1.05486 0.035,0.46528 -0.14307,0.93495 0.35972,1.05486 z"
       id="path11769"
       sodipodi:nodetypes="ccc" />
    <path
       id="path11771"
       style="fill:#041a08;fill-opacity:1;stroke:none;stroke-width:0.264583px;stroke-linecap:butt;stroke-linejoin:miter;stroke-opacity:1"
       d="m 101.28258,137.10631 c 0.51165,0.3859 0.71237,0.82674 0.37829,0.96474 -0.01,-0.10037 -0.11416,-0.35075 -0.19136,-0.4558 0.0566,0.13594 0.16149,0.39754 0.14883,0.47232 -3.7e-4,1e-4 -6.1e-4,1.8e-4 -9.5e-4,2.6e-4 -0.46785,-0.11157 -0.30219,-0.54862 -0.33477,-0.98156 z"
       sodipodi:nodetypes="ccccccc" />
    <path
       sodipodi:nodetypes="cc"
       id="path11773"
       d="m 101.61691,138.34506 c 4e-4,-0.003 0.002,-0.006 0.004,-0.0113 v 0 c 0.002,-0.004 0.004,-0.008 0.007,-0.0133 v 0 c 0.005,-0.01 0.0111,-0.0224 0.0169,-0.0408 v 0 c 0.013,-0.0408 0.0203,-0.0976 0.0195,-0.14714 v 0 c -1e-4,-0.006 -0.0255,-0.0246 -0.0258,-0.0312 2.4e-4,0.007 -0.0242,0.0261 -0.0241,0.0321 v 0 c 6.9e-4,0.0411 0.004,0.10456 0.004,0.14197 v 0 c -6e-5,0.0177 -4.5e-4,0.0322 -6.9e-4,0.0424 v 0 c -1.5e-4,0.007 -2.2e-4,0.0103 -2.9e-4,0.0151 v 0 c -8e-5,0.005 -1e-4,0.01 -4.7e-4,0.0122 z"
       style="fill:#041a08;fill-opacity:1;fill-rule:nonzero;stroke:none;stroke-width:0.264583px;stroke-linecap:butt;stroke-linejoin:miter;stroke-opacity:1" />
    <path
       sodipodi:nodetypes="ccc"
       id="path11779"
       d="m 103.17624,138.80613 c 0.18681,0.21726 0.42338,-0.0399 0.52549,-0.49237 -0.26468,0.14435 -0.58861,0.16441 -0.52549,0.49237 z"
       style="fill:#041a08;fill-opacity:1;stroke:none;stroke-width:0.264583px;stroke-linecap:butt;stroke-linejoin:miter;stroke-opacity:1" />
    <path
       sodipodi:nodetypes="ccccccc"
       d="m 103.70173,138.31376 c -0.0912,0.40391 -0.29737,0.63936 -0.46748,0.47934 0.0566,-0.0323 0.17618,-0.16052 0.21751,-0.23391 -0.065,0.0695 -0.19115,0.20083 -0.23855,0.21326 -1.7e-4,-2e-4 -2.6e-4,-2.7e-4 -4.8e-4,-5.3e-4 -0.0587,-0.30517 0.24268,-0.32386 0.48896,-0.45819 z"
       style="fill:#041a08;fill-opacity:1;stroke:none;stroke-width:0.264583px;stroke-linecap:butt;stroke-linejoin:miter;stroke-opacity:1"
       id="path11781" />
    <path
       style="fill:#041a08;fill-opacity:1;fill-rule:nonzero;stroke:none;stroke-width:0.264583px;stroke-linecap:butt;stroke-linejoin:miter;stroke-opacity:1"
       d="m 103.0612,138.84009 c 0.002,-5.3e-4 0.004,-5.3e-4 0.008,-2.6e-4 v 0 c 0.003,1.4e-4 0.006,5.3e-4 0.01,5.3e-4 v 0 c 0.007,2.6e-4 0.0161,5.3e-4 0.0285,-8e-4 v 0 c 0.0274,-0.003 0.0629,-0.0141 0.0918,-0.0277 v 0 c 0.004,-0.002 0.008,-0.0216 0.0115,-0.0235 -0.004,0.002 -0.0218,-0.007 -0.0253,-0.006 v 0 c -0.024,0.0113 -0.0606,0.0301 -0.0827,0.04 v 0 c -0.0105,0.005 -0.019,0.008 -0.0251,0.0109 v 0 c -0.004,0.001 -0.007,0.003 -0.009,0.004 v 0 c -0.003,0.001 -0.006,0.002 -0.007,0.003 z"
       id="path11783"
       sodipodi:nodetypes="cc" />
    <path
       style="fill:#041a08;fill-opacity:1;stroke:none;stroke-width:0.264583px;stroke-linecap:butt;stroke-linejoin:miter;stroke-opacity:1"
       d="m 103.48257,138.94232 c 0.21422,0.43544 0.71117,0.11396 1.0704,-0.58466 -0.49521,0.12453 -1.03489,0.0201 -1.0704,0.58466 z"
       id="path11790"
       sodipodi:nodetypes="ccc" />
    <path
       id="path11792"
       style="fill:#041a08;fill-opacity:1;stroke:none;stroke-width:0.264583px;stroke-linecap:butt;stroke-linejoin:miter;stroke-opacity:1"
       d="m 104.55297,138.35766 c -0.32071,0.62372 -0.75865,0.92239 -0.96976,0.58787 0.10645,-0.029 0.35693,-0.18853 0.45582,-0.29136 -0.13603,0.0864 -0.39858,0.24829 -0.48157,0.24857 -1.9e-4,-2.6e-4 -2.9e-4,-5.2e-4 -5.8e-4,-0.001 0.0331,-0.5253 0.53524,-0.42818 0.99603,-0.54406 z"
       sodipodi:nodetypes="ccccccc" />
    <path
       sodipodi:nodetypes="cc"
       id="path11794"
       d="m 103.27952,138.94923 c 0.003,-7e-5 0.007,8e-4 0.0129,0.003 v 0 c 0.004,0.001 0.009,0.003 0.0157,0.005 v 0 c 0.0112,0.004 0.0262,0.008 0.0471,0.0106 v 0 c 0.0464,0.006 0.10901,0.004 0.16228,-0.006 v 0 c 0.007,-0.001 0.0217,-0.0321 0.0289,-0.0336 -0.007,10e-4 -0.0327,-0.0212 -0.0391,-0.02 v 0 c -0.0442,0.008 -0.11207,0.0236 -0.15242,0.0305 v 0 c -0.0192,0.003 -0.0348,0.006 -0.0458,0.007 v 0 c -0.008,0.001 -0.0108,0.002 -0.0163,0.002 v 0 c -0.006,8e-4 -0.0103,0.002 -0.0132,0.002 z"
       style="fill:#041a08;fill-opacity:1;fill-rule:nonzero;stroke:none;stroke-width:0.264583px;stroke-linecap:butt;stroke-linejoin:miter;stroke-opacity:1" />
    <path
       sodipodi:nodetypes="ccc"
       id="path11800"
       d="m 109.76112,142.07062 c -0.14912,0.46181 0.43149,0.5767 1.17561,0.32488 -0.44233,-0.25513 -0.75728,-0.70565 -1.17561,-0.32488 z"
       style="fill:#041a08;fill-opacity:1;stroke:none;stroke-width:0.264583px;stroke-linecap:butt;stroke-linejoin:miter;stroke-opacity:1" />
    <path
       sodipodi:nodetypes="ccccccc"
       d="m 110.93673,142.3955 c -0.66433,0.22482 -1.18669,0.13461 -1.10556,-0.25255 0.0967,0.0532 0.38754,0.11295 0.53012,0.10791 -0.15785,-0.0326 -0.45904,-0.099 -0.51884,-0.15654 1.3e-4,-5.3e-4 2.1e-4,-5.3e-4 2.6e-4,-0.001 0.38925,-0.35431 0.68237,0.0649 1.09395,0.30227 z"
       style="fill:#041a08;fill-opacity:1;stroke:none;stroke-width:0.264583px;stroke-linecap:butt;stroke-linejoin:miter;stroke-opacity:1"
       id="path11802" />
    <path
       style="fill:#041a08;fill-opacity:1;fill-rule:nonzero;stroke:none;stroke-width:0.264583px;stroke-linecap:butt;stroke-linejoin:miter;stroke-opacity:1"
       d="m 109.61047,141.93431 c 0.002,0.002 0.005,0.006 0.008,0.0108 v 0 c 0.002,0.004 0.005,0.009 0.008,0.0146 v 0 c 0.006,0.0103 0.0134,0.0238 0.0264,0.0404 v 0 c 0.0288,0.0369 0.0758,0.0785 0.12107,0.10827 v 0 c 0.006,0.004 0.038,-0.008 0.0441,-0.004 -0.006,-0.004 -0.009,-0.038 -0.0141,-0.0416 v 0 c -0.0376,-0.0247 -0.0969,-0.061 -0.13069,-0.0842 v 0 c -0.0161,-0.011 -0.0288,-0.0202 -0.0379,-0.0267 v 0 c -0.006,-0.004 -0.009,-0.006 -0.0134,-0.01 v 0 c -0.005,-0.003 -0.009,-0.006 -0.0107,-0.008 z"
       id="path11804"
       sodipodi:nodetypes="cc" />
    <path
       style="fill:#041a08;fill-opacity:1;stroke:none;stroke-width:0.264583px;stroke-linecap:butt;stroke-linejoin:miter;stroke-opacity:1"
       d="m 113.42291,133.01123 c -0.11625,0.36001 0.33639,0.44958 0.91649,0.25325 -0.34483,-0.19889 -0.59036,-0.5501 -0.91649,-0.25325 z"
       id="path11810"
       sodipodi:nodetypes="ccc" />
    <path
       id="path11812"
       style="fill:#041a08;fill-opacity:1;stroke:none;stroke-width:0.264583px;stroke-linecap:butt;stroke-linejoin:miter;stroke-opacity:1"
       d="m 114.3394,133.26448 c -0.5179,0.17527 -0.92513,0.10495 -0.86188,-0.19686 0.0754,0.0415 0.30212,0.0881 0.41327,0.0841 -0.12305,-0.0254 -0.35785,-0.0772 -0.40448,-0.12203 1e-4,-2.7e-4 1.7e-4,-5.3e-4 2.1e-4,-8e-4 0.30345,-0.27621 0.53196,0.0506 0.85282,0.23564 z"
       sodipodi:nodetypes="ccccccc" />
    <path
       sodipodi:nodetypes="cc"
       id="path11814"
       d="m 113.30547,132.90496 c 0.002,0.002 0.004,0.004 0.006,0.008 v 0 c 0.002,0.003 0.004,0.007 0.006,0.0113 v 0 c 0.004,0.008 0.0104,0.0185 0.0206,0.0315 v 0 c 0.0225,0.0288 0.0591,0.0612 0.0944,0.0844 v 0 c 0.004,0.003 0.0296,-0.006 0.0344,-0.003 -0.005,-0.003 -0.007,-0.0296 -0.011,-0.0324 v 0 c -0.0293,-0.0193 -0.0756,-0.0476 -0.10191,-0.0656 v 0 c -0.0125,-0.009 -0.0225,-0.0158 -0.0295,-0.0208 v 0 c -0.005,-0.003 -0.007,-0.005 -0.0105,-0.007 v 0 c -0.004,-0.003 -0.007,-0.005 -0.008,-0.006 z"
       style="fill:#041a08;fill-opacity:1;fill-rule:nonzero;stroke:none;stroke-width:0.264583px;stroke-linecap:butt;stroke-linejoin:miter;stroke-opacity:1" />
    <path
       sodipodi:nodetypes="ccc"
       id="path11820"
       d="m 114.22594,130.30148 c 0.1865,0.37216 0.61072,0.0933 0.91444,-0.50824 -0.42398,0.10995 -0.88754,0.0238 -0.91444,0.50824 z"
       style="fill:#041a08;fill-opacity:1;stroke:none;stroke-width:0.264583px;stroke-linecap:butt;stroke-linejoin:miter;stroke-opacity:1" />
    <path
       sodipodi:nodetypes="ccccccc"
       d="m 115.14038,129.79324 c -0.27115,0.53702 -0.64491,0.79596 -0.8281,0.51037 0.0911,-0.0256 0.30497,-0.16396 0.38914,-0.2528 -0.11613,0.075 -0.34031,0.21549 -0.41149,0.21626 -1.7e-4,-3.1e-4 -2.6e-4,-5.2e-4 -5.3e-4,-8.2e-4 0.025,-0.4508 0.4564,-0.37066 0.8509,-0.47297 z"
       style="fill:#041a08;fill-opacity:1;stroke:none;stroke-width:0.264583px;stroke-linecap:butt;stroke-linejoin:miter;stroke-opacity:1"
       id="path11822" />
    <path
       style="fill:#041a08;fill-opacity:1;fill-rule:nonzero;stroke:none;stroke-width:0.264583px;stroke-linecap:butt;stroke-linejoin:miter;stroke-opacity:1"
       d="m 114.05182,130.3087 c 0.003,-9e-5 0.006,6.4e-4 0.0111,0.002 v 0 c 0.004,0.001 0.008,0.003 0.0135,0.004 v 0 c 0.01,0.003 0.0225,0.007 0.0405,0.009 v 0 c 0.0398,0.005 0.0935,0.002 0.13917,-0.007 v 0 c 0.006,-0.001 0.0184,-0.0277 0.0245,-0.029 -0.006,0.001 -0.0282,-0.018 -0.0336,-0.0169 v 0 c -0.0378,0.008 -0.096,0.021 -0.13053,0.0272 v 0 c -0.0164,0.003 -0.0298,0.005 -0.0393,0.006 v 0 c -0.007,0.001 -0.009,0.001 -0.014,0.002 v 0 c -0.005,8e-4 -0.009,10e-4 -0.0113,0.002 z"
       id="path11824"
       sodipodi:nodetypes="cc" />
    <path
       style="fill:#041a08;fill-opacity:1;stroke:none;stroke-width:0.264583px;stroke-linecap:butt;stroke-linejoin:miter;stroke-opacity:1"
       d="m 113.9228,130.59422 c -0.10825,0.216 -0.35447,0.0541 -0.53075,-0.29499 0.24608,0.0638 0.51514,0.0138 0.53075,0.29499 z"
       id="path11830"
       sodipodi:nodetypes="ccc" />
    <path
       id="path11832"
       style="fill:#041a08;fill-opacity:1;stroke:none;stroke-width:0.264583px;stroke-linecap:butt;stroke-linejoin:miter;stroke-opacity:1"
       d="m 113.39205,130.29923 c 0.15738,0.31169 0.37431,0.46198 0.48063,0.29622 -0.0529,-0.0148 -0.177,-0.0952 -0.22586,-0.14673 0.0674,0.0435 0.19752,0.12507 0.23884,0.12552 1e-4,-1.9e-4 1.5e-4,-2.9e-4 2.7e-4,-4.7e-4 -0.0145,-0.26164 -0.2649,-0.21513 -0.49388,-0.27451 z"
       sodipodi:nodetypes="ccccccc" />
    <path
       sodipodi:nodetypes="cc"
       id="path11834"
       d="m 114.02386,130.59841 c -0.001,-5e-5 -0.004,-4.2e-4 -0.007,-8.9e-4 v 0 c -0.003,-4.8e-4 -0.004,-7.2e-4 -0.008,-0.001 v 0 c -0.005,-8.8e-4 -0.0133,-0.002 -0.0228,-0.004 v 0 c -0.0201,-0.004 -0.0539,-0.0114 -0.0758,-0.0157 v 0 c -0.003,-6.1e-4 -0.0159,0.0107 -0.0195,0.01 0.004,7.6e-4 0.011,0.0162 0.0143,0.0168 v 0 c 0.0264,0.005 0.0576,0.007 0.0807,0.004 v 0 c 0.0104,-0.001 0.0179,-0.003 0.0235,-0.005 v 0 c 0.003,-9.6e-4 0.006,-0.002 0.008,-0.002 v 0 c 0.003,-8.2e-4 0.005,-0.001 0.006,-0.001 z"
       style="fill:#041a08;fill-opacity:1;fill-rule:nonzero;stroke:none;stroke-width:0.264583px;stroke-linecap:butt;stroke-linejoin:miter;stroke-opacity:1" />
    <path
       sodipodi:nodetypes="ccc"
       id="path11840"
       d="m 113.73866,132.52498 c 0.10825,-0.216 0.35447,-0.0541 0.53075,0.29499 -0.24608,-0.0638 -0.51514,-0.0138 -0.53075,-0.29499 z"
       style="fill:#041a08;fill-opacity:1;stroke:none;stroke-width:0.264583px;stroke-linecap:butt;stroke-linejoin:miter;stroke-opacity:1" />
    <path
       sodipodi:nodetypes="ccccccc"
       d="m 114.26941,132.81997 c -0.15738,-0.31169 -0.37431,-0.46197 -0.48063,-0.29622 0.0529,0.0148 0.177,0.0952 0.22586,0.14673 -0.0674,-0.0435 -0.19752,-0.12506 -0.23884,-0.12551 -1e-4,1.8e-4 -1.5e-4,2.6e-4 -2.6e-4,5.2e-4 0.0145,0.26165 0.2649,0.21514 0.49388,0.27452 z"
       style="fill:#041a08;fill-opacity:1;stroke:none;stroke-width:0.264583px;stroke-linecap:butt;stroke-linejoin:miter;stroke-opacity:1"
       id="path11842" />
    <path
       style="fill:#041a08;fill-opacity:1;fill-rule:nonzero;stroke:none;stroke-width:0.264583px;stroke-linecap:butt;stroke-linejoin:miter;stroke-opacity:1"
       d="m 113.6376,132.52079 c 10e-4,5e-5 0.004,5.3e-4 0.007,8e-4 v 0 c 0.003,5.3e-4 0.004,7.9e-4 0.008,0.001 v 0 c 0.005,7.9e-4 0.0133,0.002 0.0228,0.004 v 0 c 0.0201,0.004 0.0539,0.0114 0.0758,0.0156 v 0 c 0.003,5.3e-4 0.0159,-0.0107 0.0195,-0.01 -0.004,-8e-4 -0.011,-0.0161 -0.0143,-0.0168 v 0 c -0.0264,-0.005 -0.0576,-0.007 -0.0807,-0.004 v 0 c -0.0104,0.001 -0.0179,0.003 -0.0235,0.005 v 0 c -0.003,0.001 -0.006,0.002 -0.008,0.002 v 0 c -0.003,7.9e-4 -0.005,10e-4 -0.006,10e-4 z"
       id="path11844"
       sodipodi:nodetypes="cc" />
    <path
       style="fill:#041a08;fill-opacity:1;stroke:none;stroke-width:0.264583px;stroke-linecap:butt;stroke-linejoin:miter;stroke-opacity:1"
       d="m 112.7146,125.63169 c 0.0676,0.35673 -0.3741,0.38788 -0.90302,0.13156 0.35215,-0.14815 0.62797,-0.45324 0.90302,-0.13156 z"
       id="path11850"
       sodipodi:nodetypes="ccc" />
    <path
       id="path11852"
       style="fill:#041a08;fill-opacity:1;stroke:none;stroke-width:0.264583px;stroke-linecap:butt;stroke-linejoin:miter;stroke-opacity:1"
       d="m 111.81158,125.76325 c 0.47221,0.22884 0.86841,0.21058 0.84427,-0.0844 -0.0767,0.0305 -0.29822,0.0477 -0.4036,0.0307 0.12022,-0.009 0.35001,-0.0307 0.39977,-0.0678 -6e-5,-3.1e-4 -10e-5,-5e-4 -10e-5,-8.2e-4 -0.25593,-0.29932 -0.51261,-0.0155 -0.84029,0.12239 z"
       sodipodi:nodetypes="ccccccc" />
    <path
       sodipodi:nodetypes="cc"
       id="path11854"
       d="m 112.83915,125.54454 c -0.002,0.001 -0.005,0.003 -0.009,0.005 v 0 c -0.004,0.002 -0.006,0.003 -0.0109,0.006 v 0 c -0.007,0.004 -0.0177,0.01 -0.0306,0.0163 v 0 c -0.0272,0.014 -0.0747,0.0355 -0.10487,0.0503 v 0 c -0.004,0.002 -0.009,0.0272 -0.0144,0.0295 0.005,-0.002 0.0279,0.009 0.0324,0.007 v 0 c 0.0364,-0.0179 0.0751,-0.0444 0.1,-0.0691 v 0 c 0.0112,-0.0111 0.0183,-0.0204 0.0234,-0.0276 v 0 c 0.003,-0.004 0.005,-0.007 0.007,-0.0101 v 0 c 0.003,-0.004 0.005,-0.006 0.007,-0.007 z"
       style="fill:#041a08;fill-opacity:1;fill-rule:nonzero;stroke:none;stroke-width:0.264583px;stroke-linecap:butt;stroke-linejoin:miter;stroke-opacity:1" />
    <path
       sodipodi:nodetypes="ccc"
       id="path11860"
       d="m 112.96367,122.56002 c -0.20875,0.21025 -0.4337,-0.0725 -0.50552,-0.54675 0.2623,0.1685 0.59491,0.21316 0.50552,0.54675 z"
       style="fill:#041a08;fill-opacity:1;stroke:none;stroke-width:0.264583px;stroke-linecap:butt;stroke-linejoin:miter;stroke-opacity:1" />
    <path
       sodipodi:nodetypes="ccccccc"
       d="m 112.45815,122.01327 c 0.0641,0.42336 0.25936,0.68147 0.44666,0.52901 -0.0559,-0.0375 -0.16982,-0.17859 -0.20701,-0.25736 0.0619,0.0765 0.18228,0.22129 0.23024,0.23762 1.9e-4,-1.9e-4 2.6e-4,-2.9e-4 5.3e-4,-4.5e-4 0.0832,-0.3104 -0.22632,-0.35199 -0.47038,-0.50878 z"
       style="fill:#041a08;fill-opacity:1;stroke:none;stroke-width:0.264583px;stroke-linecap:butt;stroke-linejoin:miter;stroke-opacity:1"
       id="path11862" />
    <path
       style="fill:#041a08;fill-opacity:1;fill-rule:nonzero;stroke:none;stroke-width:0.264583px;stroke-linecap:butt;stroke-linejoin:miter;stroke-opacity:1"
       d="m 113.07982,122.60357 c -0.002,-6.3e-4 -0.004,-0.002 -0.007,-0.004 v 0 c -0.003,-0.001 -0.005,-0.003 -0.009,-0.005 v 0 c -0.006,-0.003 -0.0147,-0.008 -0.0251,-0.0132 v 0 c -0.022,-0.0119 -0.0584,-0.0338 -0.0823,-0.0472 v 0 c -0.003,-0.002 -0.0226,0.006 -0.0265,0.004 0.004,0.002 0.007,0.023 0.0102,0.025 v 0 c 0.0288,0.0161 0.0645,0.0298 0.0926,0.0352 v 0 c 0.0127,0.002 0.0222,0.003 0.0293,0.003 v 0 c 0.004,1e-4 0.007,9e-5 0.0101,1.9e-4 v 0 c 0.004,1.1e-4 0.006,4.4e-4 0.008,10e-4 z"
       id="path11864"
       sodipodi:nodetypes="cc" />
    <path
       style="fill:#041a08;fill-opacity:1;stroke:none;stroke-width:0.264583px;stroke-linecap:butt;stroke-linejoin:miter;stroke-opacity:1"
       d="m 115.15565,118.02094 c -0.11428,0.27336 -0.42912,0.096 -0.67413,-0.31629 0.30642,0.0574 0.6314,-0.0264 0.67413,0.31629 z"
       id="path11870"
       sodipodi:nodetypes="ccc" />
    <path
       id="path11872"
       style="fill:#041a08;fill-opacity:1;stroke:none;stroke-width:0.264583px;stroke-linecap:butt;stroke-linejoin:miter;stroke-opacity:1"
       d="m 114.48152,117.70465 c 0.21874,0.3681 0.49677,0.53374 0.61292,0.32201 -0.066,-0.0137 -0.22455,-0.10155 -0.28865,-0.16053 0.0861,0.0476 0.25216,0.13642 0.30274,0.13349 1.1e-4,-2.4e-4 1.7e-4,-3.7e-4 2.7e-4,-6e-4 -0.0398,-0.31888 -0.34216,-0.24094 -0.62728,-0.29434 z"
       sodipodi:nodetypes="ccccccc" />
    <path
       sodipodi:nodetypes="cc"
       id="path11874"
       d="m 115.27964,118.01757 c -0.002,6e-5 -0.005,-2.1e-4 -0.008,-5.2e-4 v 0 c -0.003,-3.2e-4 -0.005,-5.1e-4 -0.01,-8.8e-4 v 0 c -0.007,-5.8e-4 -0.0164,-0.001 -0.0282,-0.003 v 0 c -0.0249,-0.003 -0.0668,-0.009 -0.0941,-0.0127 v 0 c -0.004,-4.7e-4 -0.0186,0.0143 -0.023,0.0137 0.004,6.4e-4 0.0148,0.0189 0.0189,0.0194 v 0 c 0.0328,0.004 0.0711,0.003 0.0991,-0.002 v 0 c 0.0127,-0.003 0.0216,-0.006 0.0283,-0.008 v 0 c 0.004,-0.001 0.007,-0.003 0.009,-0.004 v 0 c 0.003,-0.001 0.006,-0.002 0.008,-0.002 z"
       style="fill:#041a08;fill-opacity:1;fill-rule:nonzero;stroke:none;stroke-width:0.264583px;stroke-linecap:butt;stroke-linejoin:miter;stroke-opacity:1" />
    <path
       sodipodi:nodetypes="ccc"
       id="path11880"
       d="m 115.18895,115.81814 c 0.20786,0.21114 0.43401,-0.0707 0.50783,-0.5446 -0.263,0.16738 -0.59581,0.21064 -0.50783,0.5446 z"
       style="fill:#041a08;fill-opacity:1;stroke:none;stroke-width:0.264583px;stroke-linecap:butt;stroke-linejoin:miter;stroke-opacity:1" />
    <path
       sodipodi:nodetypes="ccccccc"
       d="m 115.69678,115.27354 c -0.0659,0.42309 -0.26225,0.68036 -0.4489,0.52711 0.0561,-0.0373 0.17058,-0.17787 0.20811,-0.25647 -0.0622,0.0762 -0.18322,0.22051 -0.23125,0.23663 -1.9e-4,-1.8e-4 -2.6e-4,-2.9e-4 -5.3e-4,-4.5e-4 -0.0819,-0.31075 0.22781,-0.35103 0.47254,-0.50678 z"
       style="fill:#041a08;fill-opacity:1;stroke:none;stroke-width:0.264583px;stroke-linecap:butt;stroke-linejoin:miter;stroke-opacity:1"
       id="path11882" />
    <path
       style="fill:#041a08;fill-opacity:1;fill-rule:nonzero;stroke:none;stroke-width:0.264583px;stroke-linecap:butt;stroke-linejoin:miter;stroke-opacity:1"
       d="m 115.07262,115.8612 c 0.002,-6.8e-4 0.004,-10e-4 0.008,-10e-4 v 0 c 0.003,-7e-5 0.006,-1e-5 0.01,-5e-5 v 0 c 0.007,-8e-5 0.0166,-5e-4 0.0293,-0.003 v 0 c 0.0282,-0.005 0.0638,-0.0187 0.0928,-0.0349 v 0 c 0.004,-0.002 0.006,-0.0228 0.0102,-0.0251 -0.004,0.002 -0.0231,-0.006 -0.0265,-0.004 v 0 c -0.024,0.0134 -0.0603,0.0352 -0.0824,0.0469 v 0 c -0.0105,0.006 -0.0191,0.01 -0.0252,0.0129 v 0 c -0.004,0.002 -0.006,0.003 -0.009,0.005 v 0 c -0.003,0.002 -0.006,0.003 -0.007,0.004 z"
       id="path11884"
       sodipodi:nodetypes="cc" />
    <path
       style="fill:#041a08;fill-opacity:1;stroke:none;stroke-width:0.264583px;stroke-linecap:butt;stroke-linejoin:miter;stroke-opacity:1"
       d="m 115.18022,118.80252 c 0.11279,0.27398 0.42859,0.0983 0.67583,-0.31262 -0.30673,0.0557 -0.63124,-0.0298 -0.67583,0.31262 z"
       id="path11890"
       sodipodi:nodetypes="ccc" />
    <path
       id="path11892"
       style="fill:#041a08;fill-opacity:1;stroke:none;stroke-width:0.264583px;stroke-linecap:butt;stroke-linejoin:miter;stroke-opacity:1"
       d="m 115.85605,118.4899 c -0.22073,0.36691 -0.49966,0.53104 -0.61466,0.31867 0.066,-0.0133 0.22511,-0.10032 0.28953,-0.15895 -0.0864,0.0471 -0.2529,0.13504 -0.30347,0.13184 -1e-4,-2.4e-4 -1.6e-4,-3.9e-4 -2.6e-4,-6e-4 0.0415,-0.31866 0.34347,-0.23907 0.62888,-0.29092 z"
       sodipodi:nodetypes="ccccccc" />
    <path
       sodipodi:nodetypes="cc"
       id="path11894"
       d="m 115.05624,118.79848 c 0.002,8e-5 0.004,8e-4 0.008,0.002 v 0 c 0.003,9.8e-4 0.006,0.002 0.009,0.004 v 0 c 0.007,0.003 0.0156,0.006 0.0282,0.008 v 0 c 0.028,0.006 0.0662,0.007 0.0991,0.003 v 0 c 0.004,-4.7e-4 0.0146,-0.0186 0.019,-0.0192 -0.004,6.1e-4 -0.019,-0.0143 -0.0229,-0.0139 v 0 c -0.0273,0.003 -0.0693,0.01 -0.0941,0.0121 v 0 c -0.0118,0.001 -0.0214,0.002 -0.0282,0.002 v 0 c -0.005,3.8e-4 -0.007,5.3e-4 -0.01,8.2e-4 v 0 c -0.004,3e-4 -0.006,5.6e-4 -0.008,4.8e-4 z"
       style="fill:#041a08;fill-opacity:1;fill-rule:nonzero;stroke:none;stroke-width:0.264583px;stroke-linecap:butt;stroke-linejoin:miter;stroke-opacity:1" />
  </g>
</svg>
