<?xml version="1.0" encoding="UTF-8" standalone="no"?>
<svg
   xmlns:dc="http://purl.org/dc/elements/1.1/"
   xmlns:cc="http://creativecommons.org/ns#"
   xmlns:rdf="http://www.w3.org/1999/02/22-rdf-syntax-ns#"
   xmlns:svg="http://www.w3.org/2000/svg"
   xmlns="http://www.w3.org/2000/svg"
   xmlns:sodipodi="http://sodipodi.sourceforge.net/DTD/sodipodi-0.dtd"
   xmlns:inkscape="http://www.inkscape.org/namespaces/inkscape"
   sodipodi:docname="05_hanging_u_vines_main_menu_right_shadow.svg"
   inkscape:version="1.0 (4035a4fb49, 2020-05-01)"
   id="svg14744"
   version="1.1"
   viewBox="0 0 34.96801 39.302818"
   height="39.302818mm"
   width="34.96801mm">
  <defs
     id="defs14738">
    <filter
       inkscape:collect="always"
       style="color-interpolation-filters:sRGB"
       id="filter11068"
       x="-0.0053076735"
       width="1.0106153"
       y="-0.004716754"
       height="1.0094335">
      <feGaussianBlur
         inkscape:collect="always"
         stdDeviation="0.076520532"
         id="feGaussianBlur11070" />
    </filter>
  </defs>
  <sodipodi:namedview
     inkscape:window-maximized="1"
     inkscape:window-y="-8"
     inkscape:window-x="-8"
     inkscape:window-height="705"
     inkscape:window-width="1366"
     fit-margin-bottom="0"
     fit-margin-right="0"
     fit-margin-left="0"
     fit-margin-top="0"
     showgrid="false"
     inkscape:document-rotation="0"
     inkscape:current-layer="layer1"
     inkscape:document-units="mm"
     inkscape:cy="35.298429"
     inkscape:cx="-25.614302"
     inkscape:zoom="0.33557348"
     inkscape:pageshadow="2"
     inkscape:pageopacity="0.0"
     borderopacity="1.0"
     bordercolor="#666666"
     pagecolor="#ffffff"
     id="base" />
  <metadata
     id="metadata14741">
    <rdf:RDF>
      <cc:Work
         rdf:about="">
        <dc:format>image/svg+xml</dc:format>
        <dc:type
           rdf:resource="http://purl.org/dc/dcmitype/StillImage" />
        <dc:title></dc:title>
      </cc:Work>
    </rdf:RDF>
  </metadata>
  <g
     transform="translate(-112.61045,-138.82729)"
     id="layer1"
     inkscape:groupmode="layer"
     inkscape:label="Layer 1">
    <path
       inkscape:export-ydpi="96"
       inkscape:export-xdpi="96"
       inkscape:export-filename="D:\Calcatz\Icon Pack\Adventure Narrative Inspired by Jumanji\Assets\PNG\Plant\24_hanging_u_vines_main_menu_right_shadow.png"
       d="m 119.8102,139.01173 -0.52916,0.0101 c 0.0885,5.40308 0.95492,10.26305 2.22932,14.83903 -0.22037,0.14642 -0.28871,0.3501 -0.13849,0.58552 -0.0264,0.0361 -0.0489,0.0741 -0.0672,0.11226 -0.18726,-0.18234 -0.38612,-0.35217 -0.59118,-0.50996 -1.9e-4,-1.7e-4 -3.2e-4,-3.8e-4 -5.2e-4,-5.4e-4 -0.99919,-1.98192 -2.01007,-4.07426 -3.02617,-6.23348 0.0492,-0.87949 0.0863,-1.77584 -0.0956,-2.66633 -0.23514,-1.12647 -0.83549,-2.16736 -1.68775,-2.9271 -0.34052,-0.30322 -0.72041,-0.55786 -1.125,-0.76284 -0.34281,-0.76973 -0.68565,-1.53526 -1.02888,-2.31954 l -0.72657,0.32737 c 0.23568,0.53855 0.47089,1.06108 0.70642,1.59288 -0.29612,-0.0779 -0.5984,-0.13244 -0.90382,-0.15687 l -0.0155,0.20464 -0.016,0.20461 c 0.39151,0.0311 0.77946,0.11212 1.1529,0.23819 1.10054,2.4756 2.19783,4.87337 3.28868,7.17843 -0.0213,0.59106 -0.0128,1.19326 0.0878,1.79066 0.1011,0.60356 0.30503,1.20178 0.65113,1.72088 0.10865,0.15957 0.22967,0.30573 0.35656,0.44544 -0.0471,0.0254 -0.0909,0.0491 -0.13487,0.0729 -0.45182,-0.45462 -0.88024,-0.30063 -1.35186,-0.0225 -0.17787,0.10122 -0.36175,0.22359 -0.55655,0.33842 -0.0954,0.0557 -0.19292,0.11016 -0.29352,0.15844 0.15319,0.0672 0.30258,0.12338 0.447,0.17053 0.6836,0.22881 1.26065,0.25186 1.57251,0.0593 -0.0229,0.0843 -0.0391,0.17576 -0.0506,0.27281 -0.0186,0.13848 -0.0285,0.28872 -0.047,0.44178 -0.009,0.0738 -0.02,0.14778 -0.0351,0.22141 0,0 5.2e-4,-5.4e-4 5.2e-4,-5.4e-4 0.0394,-0.0226 0.0729,-0.047 0.11007,-0.0703 0.054,-0.0336 0.10919,-0.0666 0.15865,-0.10122 7.4e-4,-5.4e-4 0.001,-0.001 0.002,-0.002 0.65157,-0.45683 0.89857,-0.98336 0.44029,-1.21511 0.002,-0.0175 0.003,-0.0351 0.004,-0.053 0.34904,0.33004 0.73556,0.61054 1.11879,0.87828 0.81043,1.61883 1.61514,3.17681 2.41122,4.66634 7.3e-4,0.19701 0.002,0.39467 0.0109,0.59498 -0.007,0.002 -0.0104,0.003 -0.0181,0.005 -0.0436,0.0107 -0.11216,0.0237 -0.1664,0.0351 -0.24245,-0.44398 -0.61721,-0.34774 -1.05162,-0.22667 -0.0758,0.021 -0.15313,0.0423 -0.23254,0.0624 -0.0759,0.0189 -0.15334,0.0361 -0.23151,0.0487 0,0 5.2e-4,5.4e-4 5.2e-4,5.4e-4 0.088,0.074 0.17548,0.13995 0.26148,0.19883 0.64996,0.45232 1.21937,0.49793 1.26969,-0.0179 0.0592,-0.0158 0.1204,-0.0392 0.16433,-0.0661 0.003,-0.002 0.003,-0.003 0.006,-0.004 0.0295,0.64881 0.1204,1.30531 0.40515,1.91447 0.0384,0.0795 0.08,0.15677 0.12402,0.23245 -0.014,0.0161 -0.0261,0.0304 -0.0388,0.0451 -0.29698,-0.13332 -0.47398,0.0188 -0.64905,0.23818 -0.0999,0.12132 -0.19765,0.26893 -0.31833,0.39667 0.0874,0.004 0.17043,0.003 0.2496,-0.002 0.59643,-0.0292 0.96004,-0.26695 0.75603,-0.6023 0.01,-0.0124 0.0152,-0.0255 0.0238,-0.0389 0.27878,0.46571 0.65803,0.85893 1.07435,1.18311 0.2974,0.23247 0.61192,0.43069 0.93017,0.61859 0.013,0.0223 0.0262,0.0438 0.0393,0.0661 0.41394,1.91345 0.53083,3.78927 0.46767,5.6422 0.35419,-3.93326 1.46481,-2.77102 1.45521,2.1826 0.30607,-1.43705 2.03856,-4.76496 1.9513,1.94754 0.29242,-0.77072 1.45998,-1.45722 1.78594,1.91396 0.32116,-2.95919 1.33976,-1.215 1.42213,0.13432 0.70483,-1.41217 1.06372,0.0262 1.28985,1.17524 0.11361,-0.39568 0.14233,-0.87753 0.46302,-1.06298 0.84737,0.7395 1.67214,1.30756 2.47427,1.68888 0.51812,0.24633 1.03371,0.40834 1.53892,0.4827 0.079,0.0609 0.15786,0.12217 0.24185,0.17734 0.45429,0.29945 0.99562,0.49374 1.55597,0.48111 0.65846,-0.0213 1.28189,-0.33541 1.73116,-0.81006 0.04,-0.0422 0.0769,-0.0868 0.11421,-0.13118 0.0209,0.0213 0.0417,0.0419 0.0667,0.0603 -0.10847,0.39727 0.32633,0.52798 0.93431,0.37932 0.0794,-0.0188 0.16152,-0.0426 0.2465,-0.0719 -0.15737,-0.0921 -0.29729,-0.21082 -0.43202,-0.30272 -0.15683,-0.11061 -0.30657,-0.19214 -0.46405,-0.17211 0.008,-0.1602 0.0165,-0.31891 0.0289,-0.45854 0.084,-0.15785 0.15664,-0.32155 0.21652,-0.49003 0.056,0.0455 0.12568,0.15282 0.21343,0.34733 -0.0323,-0.49401 -0.0377,-0.8498 -0.0248,-1.11176 0.0186,-0.12239 0.0325,-0.2448 0.0429,-0.36727 0.001,-0.005 0.003,-0.009 0.004,-0.0147 0.0404,-0.0645 0.0807,-0.12981 0.12041,-0.19674 0.21231,-0.0586 0.57922,0.67672 0.88264,1.08605 -0.54461,-2.44651 0.16447,-2.59985 0.52916,-1.98112 -0.13229,-1.22877 0.13229,-2.44799 1.09141,-0.63799 -0.40222,-1.45238 -0.4401,-3.02683 -0.37621,-4.5504 0.002,-0.009 0.004,-0.0169 0.006,-0.0257 0.20725,-0.21879 0.40825,-0.44476 0.58807,-0.68677 0.0175,0.0184 0.0358,0.0368 0.0574,0.0525 -0.0835,0.30949 0.25551,0.41146 0.7307,0.29434 0.0606,-0.0145 0.12388,-0.0329 0.18862,-0.0551 -0.0803,-0.047 -0.15453,-0.10229 -0.22634,-0.15582 -0.006,-0.004 -0.0108,-0.007 -0.0165,-0.0115 -0.22302,-0.16629 -0.41786,-0.3028 -0.65267,-0.10443 -0.0209,-0.0137 -0.0435,-0.0283 -0.0651,-0.0425 0.10281,-0.13984 0.19762,-0.28525 0.28473,-0.43651 0.004,6.4e-4 0.007,0.001 0.0114,0.002 0.0176,0.004 0.0452,0.009 0.0667,0.0136 0.0192,0.1977 0.16804,0.22406 0.34314,0.24974 0.005,6.8e-4 0.008,0.002 0.0129,0.003 0.0562,0.008 0.11436,0.0165 0.17156,0.0315 -0.17288,-0.34757 -0.41218,-0.51018 -0.52348,-0.30954 -0.0239,-0.004 -0.0501,-0.006 -0.0703,-0.004 -0.002,1.8e-4 -0.002,8e-4 -0.004,0.001 0.0639,-0.11188 0.12468,-0.22638 0.17777,-0.34575 0.25978,-0.59474 0.34751,-1.24441 0.32556,-1.8788 0.0215,-5.9e-4 0.0416,1.9e-4 0.063,-0.003 0.1692,0.30607 0.5107,0.12287 0.79375,-0.33735 0.0376,-0.0602 0.0742,-0.12558 0.10903,-0.19568 -0.10129,0.0267 -0.20468,0.0416 -0.30334,0.0561 -0.30781,0.0451 -0.57254,0.0869 -0.60616,0.43285 -0.0183,0.004 -0.0365,0.008 -0.0568,0.0121 -0.004,-0.0986 -0.0105,-0.19682 -0.0196,-0.29434 -0.0674,-0.72586 -0.25972,-1.42656 -0.47129,-2.09865 0.24454,-2.20776 0.42936,-4.68901 0.54984,-7.46067 0.0296,-0.0522 0.0609,-0.10675 0.0899,-0.15846 0.30307,-0.53827 0.57999,-1.07225 0.77928,-1.63852 0.0242,0.005 0.056,0.005 0.0853,0.003 0.10431,0.22847 0.35772,0.11508 0.58343,-0.19937 0.029,-0.0398 0.0577,-0.0831 0.0853,-0.12959 -0.0939,0.0173 -0.18629,0.0223 -0.27388,0.0299 -0.19545,0.0153 -0.35868,0.0464 -0.39688,0.26808 -0.0247,0.003 -0.0545,0.007 -0.0765,0.0102 0.002,-0.006 0.005,-0.0128 0.008,-0.0194 0.20837,-0.60371 0.31474,-1.23045 0.25787,-1.84158 -0.0373,-0.38888 -0.13975,-0.7623 -0.27905,-1.11855 0.007,-3e-4 0.0136,-9.5e-4 0.0243,-0.003 0.0242,-0.005 0.0538,-0.0171 0.0801,-0.0305 0.18145,0.17166 0.37396,-0.0309 0.46612,-0.40817 0.012,-0.0479 0.0223,-0.099 0.0305,-0.15269 -0.25697,0.16603 -0.5774,0.21372 -0.51004,0.53201 -0.0234,0.0135 -0.0529,0.0315 -0.0724,0.0419 -0.009,0.005 -0.0163,0.009 -0.0222,0.0121 -0.18979,-0.4831 -0.44712,-0.92791 -0.70435,-1.34052 0.0211,-2.17272 0.0105,-4.49016 -0.0315,-6.95019 0.33238,-0.25452 0.67105,-0.43654 0.96686,-0.55038 -0.28612,0.10878 -0.62753,0.28654 -0.96738,0.54251 -0.008,-0.46846 -0.0139,-0.92751 -0.0243,-1.40663 l -0.79272,0.0179 c 0.016,0.73894 0.0274,1.45595 0.0377,2.16945 -0.12287,0.16276 -0.24057,0.33627 -0.34417,0.53253 -0.3931,0.74488 -0.60471,1.75658 -0.36276,2.80328 0.13998,0.60374 0.40888,1.1426 0.73225,1.69571 -0.0155,3.12627 -0.0939,5.96563 -0.22944,8.53676 -0.12791,0.25196 -0.24465,0.51051 -0.34727,0.77546 -0.0184,-0.0106 -0.0395,-0.0231 -0.0584,-0.0341 0.053,-0.24305 -0.11983,-0.33097 -0.31988,-0.43182 -0.062,-0.0313 -0.1276,-0.0635 -0.18862,-0.10333 0.008,0.0556 0.0191,0.1079 0.0315,0.15739 0.0909,0.37507 0.2816,0.5755 0.46302,0.40608 0.0213,0.011 0.044,0.0196 0.0651,0.0252 -0.13762,0.35855 -0.24845,0.72783 -0.30593,1.11173 -0.092,0.63093 -0.0422,1.27526 0.0786,1.91136 -6.7e-4,3.3e-4 -8.6e-4,7e-4 -0.002,0.001 -0.0239,0.0125 -0.0618,0.0307 -0.0915,0.0451 -0.26932,-0.29383 -0.54099,0.002 -0.88573,0.14952 0.06,0.0295 0.11887,0.0547 0.1757,0.076 0.43708,0.16781 0.77061,0.11169 0.72812,-0.19202 0.0291,-0.0161 0.0583,-0.0355 0.0796,-0.0556 0.0175,0.0908 0.0318,0.18194 0.0522,0.27231 0.0522,0.23193 0.11349,0.45916 0.17777,0.68522 -0.29491,3.09723 -0.69689,5.68005 -1.19424,7.78703 -0.52275,0.5235 -1.03222,1.09637 -1.32188,1.81323 -0.28642,0.72969 -0.3134,1.52042 -0.29818,2.27806 0.003,0.18817 0.008,0.37567 0.0109,0.56244 -0.52484,1.00182 -1.09348,1.71954 -1.68517,2.1721 -0.88672,0.6782 -1.82612,0.82919 -2.9161,0.4958 -0.0744,-0.0833 -0.14768,-0.16806 -0.21911,-0.25445 -0.62761,-0.76813 -1.17585,-1.63587 -2.01538,-2.23559 0.0345,0.002 0.0714,10e-4 0.10852,-0.004 0.19437,0.362 0.59587,0.14817 0.93069,-0.38825 0.0441,-0.0695 0.0872,-0.14465 0.12816,-0.22562 -0.17539,0.0448 -0.3565,0.0587 -0.51573,0.0876 -0.1885,0.0312 -0.35233,0.0782 -0.45217,0.20303 0.0278,-0.0549 0.0538,-0.11605 0.076,-0.18573 0.0153,-0.0467 0.0291,-0.0965 0.0408,-0.14952 -0.0616,0.0341 -0.12665,0.0613 -0.18862,0.0871 -0.19981,0.0832 -0.37259,0.15532 -0.33797,0.3935 -0.0128,0.006 -0.0257,0.0124 -0.0398,0.0194 -0.46817,-0.27393 -0.97571,-0.44203 -1.48569,-0.57134 0.006,-0.0293 0.011,-0.0596 0.0119,-0.0913 0.34987,-0.12104 0.22499,-0.51877 -0.19534,-0.90712 -0.0558,-0.0524 -0.11696,-0.10453 -0.18396,-0.15583 0.008,0.1099 0.004,0.22011 5.1e-4,0.32528 -1e-5,5.1e-4 2e-5,0.001 0,0.002 -0.002,0.0559 -0.004,0.10981 -0.003,0.16212 -0.002,0.26784 0.04,0.48624 0.33538,0.57137 7.2e-4,0.0278 0.001,0.0569 0.002,0.086 -0.18391,-0.046 -0.36676,-0.0922 -0.5488,-0.13116 -0.83452,-0.90046 -1.70255,-1.96111 -2.59726,-3.16948 -0.42165,-0.71084 -0.82848,-1.41641 -1.21647,-2.11597 -0.006,-0.20101 -0.0145,-0.40302 -0.0336,-0.606 -0.0425,-0.46163 -0.14131,-0.92756 -0.32247,-1.36671 0.0387,0.008 0.0811,0.0133 0.12403,0.0136 0.15724,0.43647 0.64233,0.26673 1.10691,-0.2749 0.0609,-0.07 0.12149,-0.14606 0.18087,-0.22928 -0.0669,0.006 -0.13402,0.009 -0.20051,0.0102 -0.0769,7.8e-4 -0.15209,-5.1e-4 -0.22583,-0.002 -0.40322,-0.006 -0.74962,-0.005 -0.86196,0.43547 -0.0459,0.002 -0.10098,0.005 -0.14108,0.006 -0.029,-0.068 -0.0544,-0.1371 -0.0879,-0.20356 -0.21867,-0.42631 -0.52191,-0.7939 -0.86558,-1.10966 0.0118,-0.0136 0.022,-0.0255 0.0326,-0.0378 0.3003,0.13479 0.47824,-0.0221 0.65526,-0.24556 0.0978,-0.11986 0.1939,-0.26416 0.31212,-0.38929 -0.0856,-0.004 -0.16723,-0.003 -0.24494,10e-4 -0.59908,0.0283 -0.9652,0.26663 -0.76068,0.60282 -0.01,0.013 -0.0159,0.0265 -0.0248,0.0404 -0.11316,-0.10224 -0.23022,-0.19942 -0.35036,-0.29066 -0.1022,-0.0779 -0.20682,-0.15074 -0.31213,-0.22244 -1.7087,-3.47821 -3.06737,-6.80348 -4.29431,-9.99114 0.0266,-0.0367 0.0541,-0.0722 0.0822,-0.10861 0.0388,-0.0498 0.0778,-0.0995 0.1204,-0.14691 0,0 -5.1e-4,0 -5.1e-4,0 -0.10366,-0.002 -0.20234,0.002 -0.29714,0.008 -0.39585,-1.03183 -0.78367,-2.05395 -1.15911,-3.05564 -0.81905,-3.61423 -1.34563,-7.42629 -1.41335,-11.55935 z m -4.75113,3.07873 c 0.20284,0.13206 0.39744,0.27794 0.57826,0.43912 0.78545,0.69943 1.34249,1.66581 1.55856,2.70359 0.12372,0.58081 0.13838,1.18183 0.11989,1.79331 -0.74995,-1.60575 -1.50196,-3.24972 -2.25671,-4.93602 z m 30.0545,0.83787 c 0.0245,1.70016 0.0322,3.32609 0.0253,4.88409 -0.30204,-0.51436 -0.55298,-1.01931 -0.68833,-1.5824 -0.24761,-1.02683 -0.0522,-2.03296 0.3359,-2.78332 0.0981,-0.1897 0.20989,-0.35897 0.32711,-0.51837 z m 0.80977,6.29962 c 0.41591,0.69485 0.81712,1.48083 0.88677,2.33055 0.0295,0.34852 -0.002,0.70244 -0.0708,1.05509 -0.018,-0.002 -0.0351,-0.005 -0.0517,-0.007 -0.0282,-0.16934 -0.12988,-0.22806 -0.26303,-0.25343 -0.012,-0.003 -0.0272,-0.003 -0.0398,-0.005 -0.0447,-0.006 -0.0882,-0.0131 -0.13746,-0.0168 -0.074,-0.006 -0.15139,-0.0116 -0.22841,-0.0262 0.0281,0.0481 0.0572,0.0924 0.0868,0.13327 0.22324,0.31302 0.47393,0.42609 0.57929,0.19988 0.0168,0.001 0.0325,-1.4e-4 0.0491,-10e-4 -0.0481,0.23916 -0.11037,0.4777 -0.19378,0.71301 -0.19208,0.54126 -0.4618,1.05276 -0.75862,1.57244 0.0738,-1.77678 0.12061,-3.67758 0.1416,-5.69416 z m -28.28613,0.35257 c 0.5602,1.17374 1.11839,2.32556 1.6738,3.44597 -0.38698,-0.30153 -0.74238,-0.62453 -1.00201,-1.01836 -0.30794,-0.4561 -0.49061,-1.0002 -0.58704,-1.5593 -0.0489,-0.28499 -0.074,-0.57529 -0.0848,-0.86831 z m 0.74621,3.16319 c 0.0514,0.0547 0.10507,0.10686 0.15865,0.15898 -0.006,0.0345 -0.0105,0.0661 -0.0155,0.0981 -0.10984,0.016 -0.19847,0.0466 -0.26872,0.0913 0.01,-0.0739 0.005,-0.15723 -0.0119,-0.24765 0.0495,-0.0303 0.0949,-0.0641 0.13746,-0.10072 z m 3.04116,1.74397 c 0.10404,0.0436 0.19733,0.063 0.28112,0.0603 0.0759,0.26245 0.15311,0.52368 0.23151,0.78437 -0.1708,-0.27322 -0.37431,-0.51746 -0.59842,-0.73978 0.0271,-0.0336 0.0579,-0.0707 0.0858,-0.10493 z m -0.19482,0.57608 c 0.18718,0.20515 0.35158,0.42488 0.47542,0.66947 0.13099,0.24607 0.21714,0.5127 0.27802,0.79014 -0.25037,-0.48012 -0.50158,-0.96665 -0.75344,-1.45961 z m 1.3255,0.47639 c 0.99011,2.51335 2.08506,5.11867 3.37912,7.81432 -0.0877,-0.0496 -0.17494,-0.10092 -0.26252,-0.14955 -0.40588,-0.68878 -0.8149,-1.39595 -1.2268,-2.1275 -0.67689,-1.81661 -1.31405,-3.65679 -1.8898,-5.53727 z m 22.33352,1.34261 c -0.0751,1.34776 -0.16556,2.62175 -0.27234,3.81953 -0.0134,-0.0535 -0.0293,-0.10619 -0.0419,-0.16002 -0.16668,-0.71471 -0.24987,-1.43759 -0.15296,-2.13747 0.0707,-0.52627 0.24665,-1.03268 0.46716,-1.52204 z m -22.41259,0.17313 c 0.11802,0.36332 0.23859,0.72508 0.3607,1.08552 -0.10748,-0.20109 -0.21517,-0.40339 -0.32297,-0.60701 -0.007,-0.15941 -0.0206,-0.31894 -0.0377,-0.47851 z m 0.078,2.24137 c 0.57132,1.05517 1.13796,2.07248 1.69964,3.05246 -0.0813,-0.0577 -0.16331,-0.11436 -0.24133,-0.17576 -0.45771,-0.3616 -0.86256,-0.79465 -1.10484,-1.30743 -0.2328,-0.47488 -0.31918,-1.01135 -0.35347,-1.56927 z m 22.60069,3.93549 c 0.14254,0.51569 0.2593,1.04131 0.30282,1.57292 0.0154,0.19005 0.0208,0.38188 0.016,0.57346 -0.006,-0.001 -0.0112,-0.003 -0.0165,-0.004 -0.0196,-0.20244 -0.17563,-0.22537 -0.35605,-0.25183 -0.0559,-0.008 -0.11432,-0.0169 -0.17157,-0.032 0.17288,0.34757 0.41218,0.51017 0.52348,0.30953 0.007,10e-4 0.0128,4.4e-4 0.0196,10e-4 -0.0152,0.51294 -0.10904,1.02267 -0.31833,1.4848 -0.1788,0.40236 -0.44177,0.75745 -0.73897,1.09495 0.28497,-1.40832 0.532,-2.98878 0.73949,-4.74921 z m -19.0624,0.68204 c 0.0548,0.0328 0.10771,0.0676 0.16175,0.10133 0.15056,0.30741 0.30591,0.61679 0.46198,0.92654 -0.2071,-0.33596 -0.41505,-0.67968 -0.62373,-1.02782 z m 1.10484,0.80116 c 0.31424,0.28898 0.58707,0.61582 0.77411,0.98795 0.18172,0.35405 0.28466,0.75106 0.3452,1.1595 -0.38954,-0.72201 -0.7613,-1.43755 -1.11931,-2.14745 z m 16.03675,4.89824 c -0.0827,0.32534 -0.16674,0.64398 -0.25425,0.94492 -0.28242,0.97125 -0.59151,1.80682 -0.91932,2.52781 -0.0131,-0.72855 0.006,-1.45633 0.26045,-2.1023 0.19487,-0.51028 0.53434,-0.95276 0.91312,-1.37043 z m -10.1229,3.9339 c 0.53148,0.13121 1.04413,0.29657 1.48466,0.58448 0.73667,0.46435 1.25278,1.2233 1.84434,1.96697 -0.0196,-0.009 -0.0382,-0.0147 -0.0579,-0.0242 -1.00338,-0.477 -2.10212,-1.33884 -3.27112,-2.5273 z m 1.95389,0.11334 c -0.0208,0.049 -0.0346,0.10723 -0.0413,0.17472 -0.0429,0.009 -0.0969,0.0206 -0.13178,0.0268 -0.003,4.3e-4 -0.004,6.7e-4 -0.006,10e-4 -0.0284,-0.0198 -0.0541,-0.0417 -0.0832,-0.0608 -0.0331,-0.0211 -0.0678,-0.0383 -0.10128,-0.0583 0.008,-0.003 0.0156,-0.003 0.0232,-0.007 0.11028,0.11825 0.23547,0.074 0.34055,-0.0767 z m 6.26318,2.13276 c 0.034,0.0807 0.0634,0.17004 0.0879,0.27019 -0.13767,0.30854 -0.31869,0.59293 -0.5488,0.83003 -0.39794,0.41019 -0.94341,0.6847 -1.495,0.69359 -0.35724,0.0102 -0.7151,-0.0913 -1.0449,-0.25656 0.79098,-0.0246 1.54418,-0.28333 2.22467,-0.80379 0.27014,-0.2066 0.52849,-0.45207 0.77618,-0.73346 z m 0.18759,0.80639 c 0.0154,0.10051 0.0309,0.2011 0.047,0.30012 -0.0774,0.013 -0.15721,0.0513 -0.24081,0.12275 -0.0232,-0.0151 -0.0463,-0.0307 -0.0708,-0.0467 0.0976,-0.11885 0.18527,-0.24494 0.26459,-0.37619 z"
       style="color:#000000;font-style:normal;font-variant:normal;font-weight:normal;font-stretch:normal;font-size:medium;line-height:normal;font-family:sans-serif;font-variant-ligatures:normal;font-variant-position:normal;font-variant-caps:normal;font-variant-numeric:normal;font-variant-alternates:normal;font-variant-east-asian:normal;font-feature-settings:normal;font-variation-settings:normal;text-indent:0;text-align:start;text-decoration:none;text-decoration-line:none;text-decoration-style:solid;text-decoration-color:#000000;letter-spacing:normal;word-spacing:normal;text-transform:none;writing-mode:lr-tb;direction:ltr;text-orientation:mixed;dominant-baseline:auto;baseline-shift:baseline;text-anchor:start;white-space:normal;shape-padding:0;shape-margin:0;inline-size:0;clip-rule:nonzero;display:inline;overflow:visible;visibility:visible;opacity:1;isolation:auto;mix-blend-mode:normal;color-interpolation:sRGB;color-interpolation-filters:linearRGB;solid-color:#000000;solid-opacity:1;vector-effect:none;fill:#000000;fill-opacity:1;fill-rule:nonzero;stroke:none;stroke-width:0.799792;stroke-linecap:butt;stroke-linejoin:miter;stroke-miterlimit:4;stroke-dasharray:none;stroke-dashoffset:0;stroke-opacity:1;filter:url(#filter11068);color-rendering:auto;image-rendering:auto;shape-rendering:auto;text-rendering:auto;enable-background:accumulate;stop-color:#000000;stop-opacity:1"
       id="path12494" />
  </g>
</svg>
