<?xml version="1.0" encoding="UTF-8" standalone="no"?>
<svg
   xmlns:dc="http://purl.org/dc/elements/1.1/"
   xmlns:cc="http://creativecommons.org/ns#"
   xmlns:rdf="http://www.w3.org/1999/02/22-rdf-syntax-ns#"
   xmlns:svg="http://www.w3.org/2000/svg"
   xmlns="http://www.w3.org/2000/svg"
   xmlns:sodipodi="http://sodipodi.sourceforge.net/DTD/sodipodi-0.dtd"
   xmlns:inkscape="http://www.inkscape.org/namespaces/inkscape"
   sodipodi:docname="06_hanging_vines_main_menu_middle.svg"
   inkscape:version="1.0 (4035a4fb49, 2020-05-01)"
   id="svg15334"
   version="1.1"
   viewBox="0 0 126.15625 26.516251"
   height="26.516251mm"
   width="126.15625mm">
  <defs
     id="defs15328" />
  <sodipodi:namedview
     inkscape:window-maximized="1"
     inkscape:window-y="-8"
     inkscape:window-x="-8"
     inkscape:window-height="705"
     inkscape:window-width="1366"
     fit-margin-bottom="0"
     fit-margin-right="0"
     fit-margin-left="0"
     fit-margin-top="0"
     showgrid="false"
     inkscape:document-rotation="0"
     inkscape:current-layer="layer1"
     inkscape:document-units="mm"
     inkscape:cy="-105.08414"
     inkscape:cx="104.99029"
     inkscape:zoom="0.33557348"
     inkscape:pageshadow="2"
     inkscape:pageopacity="0.0"
     borderopacity="1.0"
     bordercolor="#666666"
     pagecolor="#ffffff"
     id="base" />
  <metadata
     id="metadata15331">
    <rdf:RDF>
      <cc:Work
         rdf:about="">
        <dc:format>image/svg+xml</dc:format>
        <dc:type
           rdf:resource="http://purl.org/dc/dcmitype/StillImage" />
        <dc:title></dc:title>
      </cc:Work>
    </rdf:RDF>
  </metadata>
  <g
     transform="translate(-78.054652,-175.97018)"
     id="layer1"
     inkscape:groupmode="layer"
     inkscape:label="Layer 1">
    <path
       style="color:#000000;font-style:normal;font-variant:normal;font-weight:normal;font-stretch:normal;font-size:medium;line-height:normal;font-family:sans-serif;font-variant-ligatures:normal;font-variant-position:normal;font-variant-caps:normal;font-variant-numeric:normal;font-variant-alternates:normal;font-variant-east-asian:normal;font-feature-settings:normal;font-variation-settings:normal;text-indent:0;text-align:start;text-decoration:none;text-decoration-line:none;text-decoration-style:solid;text-decoration-color:#000000;letter-spacing:normal;word-spacing:normal;text-transform:none;writing-mode:lr-tb;direction:ltr;text-orientation:mixed;dominant-baseline:auto;baseline-shift:baseline;text-anchor:start;white-space:normal;shape-padding:0;shape-margin:0;inline-size:0;clip-rule:nonzero;display:inline;overflow:visible;visibility:visible;opacity:1;isolation:auto;mix-blend-mode:normal;color-interpolation:sRGB;color-interpolation-filters:linearRGB;solid-color:#000000;solid-opacity:1;vector-effect:none;fill:#001302;fill-opacity:1;fill-rule:nonzero;stroke:none;stroke-width:1.5875;stroke-linecap:butt;stroke-linejoin:miter;stroke-miterlimit:4;stroke-dasharray:none;stroke-dashoffset:0;stroke-opacity:1;color-rendering:auto;image-rendering:auto;shape-rendering:auto;text-rendering:auto;enable-background:accumulate;stop-color:#000000;stop-opacity:1"
       d="m 203.30075,177.02096 c -21.65129,15.13845 -42.63277,20.26669 -63.29102,19.15625 -20.65825,-1.11043 -41.008028,-8.48941 -61.253898,-18.46875 l -0.70118,1.42383 c 20.34566,10.02851 40.890588,17.50321 61.869138,18.63086 20.97856,1.12765 42.37835,-4.12293 64.28711,-19.44141 z"
       id="path11597" />
    <path
       style="color:#000000;font-style:normal;font-variant:normal;font-weight:normal;font-stretch:normal;font-size:medium;line-height:normal;font-family:sans-serif;font-variant-ligatures:normal;font-variant-position:normal;font-variant-caps:normal;font-variant-numeric:normal;font-variant-alternates:normal;font-variant-east-asian:normal;font-feature-settings:normal;font-variation-settings:normal;text-indent:0;text-align:start;text-decoration:none;text-decoration-line:none;text-decoration-style:solid;text-decoration-color:#000000;letter-spacing:normal;word-spacing:normal;text-transform:none;writing-mode:lr-tb;direction:ltr;text-orientation:mixed;dominant-baseline:auto;baseline-shift:baseline;text-anchor:start;white-space:normal;shape-padding:0;shape-margin:0;inline-size:0;clip-rule:nonzero;display:inline;overflow:visible;visibility:visible;opacity:1;isolation:auto;mix-blend-mode:normal;color-interpolation:sRGB;color-interpolation-filters:linearRGB;solid-color:#000000;solid-opacity:1;vector-effect:none;fill:#041a08;fill-opacity:1;fill-rule:nonzero;stroke:none;stroke-width:1.05833;stroke-linecap:butt;stroke-linejoin:miter;stroke-miterlimit:4;stroke-dasharray:none;stroke-dashoffset:0;stroke-opacity:1;color-rendering:auto;image-rendering:auto;shape-rendering:auto;text-rendering:auto;enable-background:accumulate;stop-color:#000000;stop-opacity:1"
       d="m 102.85739,175.97018 -0.56055,0.89648 c 27.12369,16.93887 54.70894,20.83064 82.59375,2.375 l -0.58398,-0.88281 c -27.56145,18.24162 -54.53554,14.41905 -81.44922,-2.38867 z"
       id="path11601" />
    <path
       style="fill:#041a08;fill-opacity:1;stroke:none;stroke-width:0.264583px;stroke-linecap:butt;stroke-linejoin:miter;stroke-opacity:1"
       d="m 115.60815,183.89286 c 0.88891,1.88655 0.58115,3.53377 0.66146,5.2586 0.23631,-2.92333 1.99155,-3.55918 2.3151,-0.92604 0.20947,-2.57238 2.13872,-1.37888 2.41433,1.35599 -0.12367,-3.67634 1.72136,-2.77972 1.98437,-1.28985 0.01,-0.7412 0.15589,-1.25418 0.42995,-1.55442 z"
       id="path11904"
       sodipodi:nodetypes="ccccccc"
       inkscape:export-filename="D:\Calcatz\Icon Pack\Adventure Narrative Inspired by Jumanji\Assets\PNG\Vines\04_hanging_vines_main_menu_middle.png"
       inkscape:export-xdpi="96"
       inkscape:export-ydpi="96" />
    <path
       style="fill:#041a08;fill-opacity:1;stroke:none;stroke-width:0.264583px;stroke-linecap:butt;stroke-linejoin:miter;stroke-opacity:1"
       d="m 163.76497,188.89652 c -0.61123,1.01924 -0.66052,2.16083 -0.42095,4.16273 -0.50117,-1.97692 -1.99017,-5.23839 -2.15152,-1.5201 -0.72901,-2.66719 -1.78633,-0.3628 -1.94104,1.26285 -0.13988,-0.66804 -0.0116,-2.17341 -0.91206,-2.78294 z"
       id="path11906"
       sodipodi:nodetypes="cccccc"
       inkscape:export-filename="D:\Calcatz\Icon Pack\Adventure Narrative Inspired by Jumanji\Assets\PNG\Vines\04_hanging_vines_main_menu_middle.png"
       inkscape:export-xdpi="96"
       inkscape:export-ydpi="96" />
    <path
       style="fill:#001302;fill-opacity:1;stroke:none;stroke-width:0.264583px;stroke-linecap:butt;stroke-linejoin:miter;stroke-opacity:1"
       d="m 85.716332,179.4183 0.43319,-0.003 0.43299,-0.003 c 0.0106,1.57539 0.57895,3.1533 1.5754,4.37356 0.99528,1.22122 2.4269,2.09491 3.96807,2.42165 1.54346,0.33843 3.2013,0.12117 4.88645,-0.01 v 0 c 1.6872,-0.14795 3.498258,-0.18096 5.162068,0.50945 h 1e-5 c 1.7094,0.74568 2.95975,2.1308 4.10836,3.43215 0.19383,0.21357 0.38812,0.42731 0.5843,0.63775 0.93144,0.99911 1.97626,2.01322 3.26123,2.48387 0.86681,0.33324 1.84364,0.42245 2.83889,0.36372 0.97246,-0.059 1.94613,-0.26752 2.94701,-0.50289 0,0 1e-5,0 1e-5,0 1.96653,-0.47543 4.0781,-1.03513 6.18263,-0.63484 0,0 0,0 0,0 1.97821,0.40229 3.63711,1.6038 5.11392,2.73491 1.62069,1.22576 3.07795,2.35398 4.83949,2.82348 1.16496,0.31677 2.44082,0.31946 3.56431,0.32867 1.34793,0.009 2.49498,0.0341 3.62621,0.34087 2.73909,0.74539 4.07707,2.82244 4.53967,3.77178 -0.51448,-1.02625 -1.91782,-2.98768 -4.57604,-3.63035 -1.11848,-0.2716 -2.24463,-0.26023 -3.5881,-0.23289 -1.12492,0.025 -2.41833,0.0572 -3.65292,-0.23676 -1.85852,-0.45205 -3.41305,-1.56821 -5.05386,-2.75799 -1.506,-1.07782 -3.12589,-2.2069 -4.93046,-2.50857 0,0 -10e-6,0 -10e-6,0 -1.91101,-0.34715 -3.89936,0.25093 -5.88246,0.74468 0,0 0,0 0,0 -1.00642,0.2572 -2.02151,0.48804 -3.07315,0.56949 -1.07767,0.0851 -2.1726,-0.009 -3.19131,-0.38115 -1.48997,-0.56705 -2.64708,-1.64492 -3.60563,-2.68122 -0.20134,-0.21768 -0.39732,-0.43722 -0.58939,-0.65515 -1.16659,-1.28751 -2.31468,-2.59938 -3.80157,-3.21241 0,0 0,0 0,0 -1.42274,-0.62166 -3.097488,-0.56659 -4.753148,-0.44325 0,0 0,0 0,0 -1.65797,0.14047 -3.39918,0.35237 -5.13657,-0.006 -1.73922,-0.37037 -3.33454,-1.34398 -4.45919,-2.72137 -1.12348,-1.37836 -1.75686,-3.13672 -1.7704,-4.91489 z"
       id="path11908"
       inkscape:export-filename="D:\Calcatz\Icon Pack\Adventure Narrative Inspired by Jumanji\Assets\PNG\Vines\04_hanging_vines_main_menu_middle.png"
       inkscape:export-xdpi="96"
       inkscape:export-ydpi="96" />
    <path
       style="fill:#001302;fill-opacity:1;stroke:none;stroke-width:0.264583px;stroke-linecap:butt;stroke-linejoin:miter;stroke-opacity:1"
       d="m 196.69116,180.30455 0.49439,-0.14492 0.49415,-0.14484 c 0.48043,1.64607 0.24794,3.46749 -0.63056,4.9401 -0.88191,1.47057 -2.37671,2.53696 -4.05424,2.89229 v 0 c -1.73955,0.34687 -3.45483,-0.0101 -5.04346,-0.33316 v 0 c -0.32388,-0.0601 -0.64818,-0.11912 -0.97101,-0.17097 -1.17667,-0.18899 -2.45753,-0.31838 -3.60681,0.0607 -0.80392,0.2467 -1.55464,0.73508 -2.24106,1.33878 0,0 0,0 0,0 -0.67427,0.5956 -1.27003,1.30441 -1.86766,2.03129 0,0 0,0 0,0 -0.60799,0.74238 -1.1989,1.48013 -1.88488,2.15681 -0.71289,0.70531 -1.50306,1.29775 -2.38321,1.67878 -1.0648,0.45362 -2.28052,0.59805 -3.2274,0.7598 -1.27747,0.22374 -2.23278,0.49948 -3.01777,1.07799 -0.82688,0.6074 -1.21333,1.3839 -1.37426,1.83911 0.16432,-0.5012 0.51604,-1.27132 1.30865,-1.92346 0.77262,-0.63365 1.75316,-0.99065 3.02488,-1.28265 0.94775,-0.22192 2.1368,-0.43216 3.08338,-0.90862 0.78947,-0.39103 1.48602,-0.9831 2.12942,-1.68165 0.61863,-0.67373 1.15389,-1.41671 1.73376,-2.19153 0,0 0,0 0,0 0.56652,-0.76 1.16064,-1.52542 1.87317,-2.20847 0,0 1e-5,0 1e-5,0 0.72398,-0.6967 1.57161,-1.27848 2.53799,-1.61364 1.39623,-0.45751 2.83469,-0.36319 4.07803,-0.16059 0.33972,0.0554 0.67457,0.11987 1.00264,0.18739 1.60746,0.30248 3.18601,0.66039 4.6333,0.33609 0,0 0,0 0,0 1.3863,-0.28994 2.65717,-1.19659 3.38247,-2.41307 0.72871,-1.21444 0.92637,-2.76301 0.52608,-4.12156 z"
       id="path11915"
       sodipodi:nodetypes="cssssc"
       inkscape:export-filename="D:\Calcatz\Icon Pack\Adventure Narrative Inspired by Jumanji\Assets\PNG\Vines\04_hanging_vines_main_menu_middle.png"
       inkscape:export-xdpi="96"
       inkscape:export-ydpi="96" />
    <path
       style="fill:#001302;fill-opacity:1;stroke:none;stroke-width:0.264583px;stroke-linecap:butt;stroke-linejoin:miter;stroke-opacity:1"
       d="m 101.13265,183.57224 c 0.38601,0.0606 0.22168,0.90834 0.51136,1.34065 0.62272,0.92931 0.43997,1.8178 -0.60994,0.99226 -1.142328,0.58712 -1.353308,-0.15824 -0.58472,-0.9685 0.3422,-0.36076 0.20792,-1.31355 0.6833,-1.36441 z"
       id="path11922"
       sodipodi:nodetypes="cscsc" />
    <path
       style="fill:#001302;fill-opacity:1;stroke:none;stroke-width:0.264583px;stroke-linecap:butt;stroke-linejoin:miter;stroke-opacity:1"
       d="m 100.98479,185.87801 c -0.021,0.28171 -0.19001,0.54535 -0.3368,0.77466 0.20329,-0.20085 0.41091,-0.44254 0.44358,-0.75001 -0.0229,-0.0399 -0.0621,-0.0393 -0.10678,-0.0247 z"
       id="path11924"
       sodipodi:nodetypes="cccc" />
    <path
       sodipodi:nodetypes="cscsc"
       id="path11928"
       d="m 103.72334,185.80158 c 0.14009,0.19414 -0.29981,0.48819 -0.36307,0.8007 -0.13599,0.67181 -0.60155,0.9754 -0.69494,0.16239 -0.74817,-0.24408 -0.5147,-0.65733 0.16944,-0.67217 0.30459,-0.007 0.66144,-0.47592 0.88857,-0.29092 z"
       style="fill:#001302;fill-opacity:1;stroke:none;stroke-width:0.264583px;stroke-linecap:butt;stroke-linejoin:miter;stroke-opacity:1" />
    <path
       sodipodi:nodetypes="cccc"
       id="path11930"
       d="m 102.65588,186.73151 c -0.13169,0.11232 -0.31931,0.15246 -0.48243,0.18744 0.17508,0.002 0.36982,-0.012 0.51776,-0.13033 0.007,-0.0272 -0.01,-0.0439 -0.0353,-0.0571 z"
       style="fill:#001302;fill-opacity:1;stroke:none;stroke-width:0.264583px;stroke-linecap:butt;stroke-linejoin:miter;stroke-opacity:1" />
    <path
       sodipodi:nodetypes="cscsc"
       id="path11937"
       d="m 107.53538,195.29374 c -0.30398,-0.0873 -0.087,-0.75181 -0.27634,-1.12808 -0.40702,-0.80887 -0.17116,-1.50419 0.58938,-0.73586 0.9764,-0.35706 1.07113,0.26277 0.37257,0.83653 -0.31102,0.25546 -0.29869,1.03422 -0.68561,1.02741 z"
       style="fill:#001302;fill-opacity:1;stroke:none;stroke-width:0.264583px;stroke-linecap:butt;stroke-linejoin:miter;stroke-opacity:1" />
    <path
       sodipodi:nodetypes="cccc"
       id="path11939"
       d="m 107.88529,193.45654 c 0.0451,-0.22417 0.20728,-0.41898 0.34817,-0.58845 -0.18341,0.14094 -0.37441,0.31426 -0.43147,0.55795 0.0144,0.0343 0.0459,0.0377 0.0833,0.0305 z"
       style="fill:#001302;fill-opacity:1;stroke:none;stroke-width:0.264583px;stroke-linecap:butt;stroke-linejoin:miter;stroke-opacity:1" />
    <path
       style="fill:#001302;fill-opacity:1;stroke:none;stroke-width:0.264582px;stroke-linecap:butt;stroke-linejoin:miter;stroke-opacity:1"
       d="m 91.862892,189.92465 c -0.40758,-0.006 -0.36231,-0.90563 -0.72497,-1.3096 -0.77961,-0.86841 -0.72129,-1.81291 0.48429,-1.1144 1.09365,-0.7741 1.42098,-0.0352 0.74611,0.91447 -0.30047,0.42284 -0.0219,1.38721 -0.50543,1.50953 z"
       id="path11943"
       sodipodi:nodetypes="cscsc" />
    <path
       style="fill:#a22f00;fill-opacity:1;stroke:none;stroke-width:0.264582px;stroke-linecap:butt;stroke-linejoin:miter;stroke-opacity:1"
       d="m 91.677102,187.52144 c -0.0196,-0.29404 0.11618,-0.59114 0.23413,-0.84953 -0.18048,0.23728 -0.35944,0.51739 -0.34804,0.83976 0.0295,0.0378 0.0699,0.0314 0.11391,0.01 z"
       id="path11945"
       sodipodi:nodetypes="cccc" />
    <path
       style="fill:#001302;fill-opacity:1;stroke:none;stroke-width:0.264583px;stroke-linecap:butt;stroke-linejoin:miter;stroke-opacity:1"
       d="m 114.68658,195.51994 c -0.18278,0.045 -0.26763,-0.36229 -0.47684,-0.50042 -0.44971,-0.29693 -0.53396,-0.72571 0.0862,-0.55443 0.3982,-0.47356 0.63073,-0.18169 0.44013,0.32142 -0.0849,0.224 0.15221,0.62232 -0.0495,0.73343 z"
       id="path11949"
       sodipodi:nodetypes="cscsc" />
    <path
       style="fill:#001302;fill-opacity:1;stroke:none;stroke-width:0.264583px;stroke-linecap:butt;stroke-linejoin:miter;stroke-opacity:1"
       d="m 114.32292,194.46797 c -0.0431,-0.12908 -0.0171,-0.27767 0.005,-0.40688 -0.0529,0.12708 -0.10016,0.27312 -0.0574,0.41582 0.0176,0.0134 0.0349,0.006 0.052,-0.009 z"
       id="path11951"
       sodipodi:nodetypes="cccc" />
    <path
       sodipodi:nodetypes="cscsc"
       id="path11955"
       d="m 120.77652,190.82276 c -0.22241,0.0131 -0.17595,0.50327 -0.36422,0.73262 -0.4047,0.49303 -0.35003,1.00736 0.29139,0.5968 0.61589,0.39626 0.77677,-0.0151 0.3853,-0.51737 -0.17429,-0.22363 -0.0455,-0.75695 -0.31247,-0.81205 z"
       style="fill:#001302;fill-opacity:1;stroke:none;stroke-width:0.264582px;stroke-linecap:butt;stroke-linejoin:miter;stroke-opacity:1" />
    <path
       sodipodi:nodetypes="cccc"
       id="path11957"
       d="m 120.73316,192.1395 c -0.004,0.16104 0.0777,0.31998 0.14837,0.45822 -0.10428,-0.1252 -0.20877,-0.27383 -0.21034,-0.45013 0.0152,-0.0213 0.0374,-0.0189 0.062,-0.008 z"
       style="fill:#001302;fill-opacity:1;stroke:none;stroke-width:0.264582px;stroke-linecap:butt;stroke-linejoin:miter;stroke-opacity:1" />
    <path
       style="fill:#001302;fill-opacity:1;stroke:none;stroke-width:0.264583px;stroke-linecap:butt;stroke-linejoin:miter;stroke-opacity:1"
       d="m 125.31809,192.44444 c 0.13996,0.10477 -0.10251,0.4056 -0.0785,0.63719 0.0517,0.49784 -0.20657,0.81091 -0.4489,0.26467 -0.57463,-0.007 -0.50202,-0.34589 -0.0285,-0.50539 0.21083,-0.071 0.3572,-0.47588 0.55584,-0.39647 z"
       id="path11961"
       sodipodi:nodetypes="cscsc" />
    <path
       style="fill:#001302;fill-opacity:1;stroke:none;stroke-width:0.264583px;stroke-linecap:butt;stroke-linejoin:miter;stroke-opacity:1"
       d="m 124.7769,193.32525 c -0.0673,0.10699 -0.1893,0.17587 -0.29536,0.23581 0.12243,-0.0369 0.25513,-0.089 0.33242,-0.20371 -7.9e-4,-0.0206 -0.0163,-0.0285 -0.0371,-0.0321 z"
       id="path11963"
       sodipodi:nodetypes="cccc" />
    <path
       style="fill:#001302;fill-opacity:1;stroke:none;stroke-width:0.264583px;stroke-linecap:butt;stroke-linejoin:miter;stroke-opacity:1"
       d="m 106.51913,194.10945 c -0.14314,-0.17027 0.24427,-0.47293 0.28144,-0.76684 0.0799,-0.63182 0.49042,-0.94507 0.63277,-0.19817 0.70999,0.1748 0.52203,0.57373 -0.11085,0.63445 -0.28178,0.027 -0.58021,0.48639 -0.80336,0.33056 z"
       id="path11967"
       sodipodi:nodetypes="cscsc" />
    <path
       style="fill:#001302;fill-opacity:1;stroke:none;stroke-width:0.264583px;stroke-linecap:butt;stroke-linejoin:miter;stroke-opacity:1"
       d="m 107.44437,193.17452 c 0.11431,-0.11312 0.2854,-0.16319 0.43414,-0.2068 -0.16236,0.0103 -0.34185,0.0365 -0.47079,0.1563 -0.005,0.0257 0.012,0.0401 0.0367,0.0505 z"
       id="path11969"
       sodipodi:nodetypes="cccc" />
    <path
       sodipodi:nodetypes="cscsc"
       id="path11973"
       d="m 99.370092,185.00243 c -0.14834,0.0812 0.0427,0.40241 -0.0119,0.6209 -0.117529,0.46968 0.087,0.80479 0.39373,0.31481 0.551218,0.0718 0.527998,-0.26263 0.0963,-0.48008 -0.1922,-0.0968 -0.27704,-0.50454 -0.4781,-0.45563 z"
       style="fill:#001302;fill-opacity:1;stroke:none;stroke-width:0.264583px;stroke-linecap:butt;stroke-linejoin:miter;stroke-opacity:1" />
    <path
       sodipodi:nodetypes="cccc"
       id="path11975"
       d="m 99.767982,185.91987 c 0.0498,0.11165 0.15724,0.19428 0.250608,0.26618 -0.112208,-0.052 -0.232158,-0.12006 -0.290498,-0.2405 0.004,-0.0196 0.0195,-0.0251 0.0399,-0.0257 z"
       style="fill:#001302;fill-opacity:1;stroke:none;stroke-width:0.264583px;stroke-linecap:butt;stroke-linejoin:miter;stroke-opacity:1" />
    <path
       style="fill:#001302;fill-opacity:1;stroke:none;stroke-width:0.264582px;stroke-linecap:butt;stroke-linejoin:miter;stroke-opacity:1"
       d="m 121.9004,191.28229 c 0.1489,0.099 -0.0815,0.42004 -0.0438,0.65517 0.0812,0.50544 -0.16468,0.83989 -0.44333,0.2959 -0.5872,0.0257 -0.53239,-0.32457 -0.0579,-0.51447 0.21125,-0.0845 0.33762,-0.50636 0.54499,-0.4366 z"
       id="path11979"
       sodipodi:nodetypes="cscsc" />
    <path
       style="fill:#001302;fill-opacity:1;stroke:none;stroke-width:0.264582px;stroke-linecap:butt;stroke-linejoin:miter;stroke-opacity:1"
       d="m 121.39801,192.21266 c -0.0626,0.1131 -0.18328,0.19039 -0.28816,0.25766 0.12293,-0.0446 0.25546,-0.10541 0.32784,-0.227 -0.002,-0.0209 -0.0183,-0.0282 -0.0397,-0.0307 z"
       id="path11981"
       sodipodi:nodetypes="cccc" />
    <path
       sodipodi:nodetypes="cscsc"
       id="path11985"
       d="m 131.10564,199.39103 c 0.17296,0.0255 0.21557,-0.35853 0.39684,-0.50465 0.38968,-0.31412 0.42985,-0.71798 -0.12851,-0.50504 -0.40985,-0.40281 -0.59916,-0.11248 -0.37866,0.33592 0.0982,0.19964 -0.086,0.58879 0.11033,0.67377 z"
       style="fill:#001302;fill-opacity:1;stroke:none;stroke-width:0.264583px;stroke-linecap:butt;stroke-linejoin:miter;stroke-opacity:1" />
    <path
       sodipodi:nodetypes="cccc"
       id="path11987"
       d="m 131.34931,198.38638 c 0.0285,-0.12314 -0.009,-0.25825 -0.0408,-0.37574 0.0601,0.11285 0.11664,0.24372 0.0897,0.37942 -0.0151,0.014 -0.0317,0.009 -0.0489,-0.004 z"
       style="fill:#001302;fill-opacity:1;stroke:none;stroke-width:0.264583px;stroke-linecap:butt;stroke-linejoin:miter;stroke-opacity:1" />
    <path
       sodipodi:nodetypes="cscsc"
       id="path11991"
       d="m 183.10806,183.65306 c 0.38578,-0.062 0.49225,0.79493 0.90163,1.11619 0.88005,0.69059 0.98162,1.59198 -0.27242,1.13242 -0.90417,0.91221 -1.33573,0.26892 -0.85607,-0.73963 0.21356,-0.44903 -0.20935,-1.31332 0.22686,-1.50898 z"
       style="fill:#001302;fill-opacity:1;stroke:none;stroke-width:0.264583px;stroke-linecap:butt;stroke-linejoin:miter;stroke-opacity:1" />
    <path
       sodipodi:nodetypes="cccc"
       id="path11993"
       d="m 183.682,185.89115 c 0.0673,0.27436 -0.0117,0.57737 -0.0802,0.84088 0.13104,-0.25394 0.25355,-0.54808 0.18933,-0.85054 -0.0342,-0.0308 -0.0712,-0.0181 -0.10916,0.01 z"
       style="fill:#001302;fill-opacity:1;stroke:none;stroke-width:0.264583px;stroke-linecap:butt;stroke-linejoin:miter;stroke-opacity:1" />
    <path
       style="fill:#001302;fill-opacity:1;stroke:none;stroke-width:0.264583px;stroke-linecap:butt;stroke-linejoin:miter;stroke-opacity:1"
       d="m 191.9779,190.03908 c 0.28024,-0.0151 0.22463,-0.63289 0.46314,-0.92067 0.51272,-0.61862 0.44692,-1.26681 -0.36348,-0.75348 -0.77343,-0.50281 -0.97853,0.0144 -0.48842,0.6494 0.21821,0.28273 0.0528,0.95375 0.38876,1.02475 z"
       id="path11997"
       sodipodi:nodetypes="cscsc" />
    <path
       style="fill:#001302;fill-opacity:1;stroke:none;stroke-width:0.264583px;stroke-linecap:butt;stroke-linejoin:miter;stroke-opacity:1"
       d="m 192.04037,188.38072 c 0.006,-0.20282 -0.096,-0.40352 -0.18417,-0.57807 0.13061,0.15833 0.26134,0.34617 0.26227,0.56825 -0.0193,0.0268 -0.0472,0.0235 -0.0781,0.01 z"
       id="path11999"
       sodipodi:nodetypes="cccc" />
    <path
       sodipodi:nodetypes="cscsc"
       id="path12003"
       d="m 198.79009,187.00184 c 0.23405,-0.28418 -0.41215,-0.7786 -0.47855,-1.26438 -0.14275,-1.04429 -0.82739,-1.55586 -1.0505,-0.31741 -1.17208,0.30111 -0.85436,0.9582 0.19403,1.04812 0.46678,0.04 0.96832,0.79527 1.33502,0.53367 z"
       style="fill:#001302;fill-opacity:1;stroke:none;stroke-width:0.264583px;stroke-linecap:butt;stroke-linejoin:miter;stroke-opacity:1" />
    <path
       sodipodi:nodetypes="cccc"
       id="path12005"
       d="m 197.24329,185.47001 c -0.19107,-0.1853 -0.47505,-0.2653 -0.72193,-0.335 0.26887,0.0143 0.56635,0.0547 0.78174,0.25082 0.009,0.0424 -0.0192,0.0665 -0.0598,0.0842 z"
       style="fill:#001302;fill-opacity:1;stroke:none;stroke-width:0.264583px;stroke-linecap:butt;stroke-linejoin:miter;stroke-opacity:1" />
    <path
       style="fill:#001302;fill-opacity:1;stroke:none;stroke-width:0.264583px;stroke-linecap:butt;stroke-linejoin:miter;stroke-opacity:1"
       d="m 184.6803,184.45679 c -0.24991,-0.0402 -0.31888,0.51497 -0.58409,0.72308 -0.57011,0.44738 -0.63591,1.03131 0.17648,0.73361 0.58573,0.59094 0.86531,0.1742 0.55458,-0.47915 -0.13835,-0.29089 0.13562,-0.85079 -0.14697,-0.97754 z"
       id="path12009"
       sodipodi:nodetypes="cscsc" />
    <path
       style="fill:#001302;fill-opacity:1;stroke:none;stroke-width:0.264583px;stroke-linecap:butt;stroke-linejoin:miter;stroke-opacity:1"
       d="m 184.3085,185.90666 c -0.0436,0.17773 0.008,0.37403 0.0519,0.54474 -0.0849,-0.16452 -0.16425,-0.35506 -0.12265,-0.551 0.0221,-0.0199 0.0461,-0.0117 0.0707,0.006 z"
       id="path12011"
       sodipodi:nodetypes="cccc" />
    <path
       sodipodi:nodetypes="cscsc"
       id="path12015"
       d="m 178.43261,194.25296 c -0.15496,0.20015 -0.58475,-0.15797 -0.92059,-0.12862 -0.72193,0.0631 -1.16906,-0.31821 -0.37256,-0.65614 0.0237,-0.8317 0.51258,-0.71858 0.7323,-0.0293 0.0978,0.30691 0.6805,0.52837 0.56085,0.81403 z"
       style="fill:#001302;fill-opacity:1;stroke:none;stroke-width:0.264583px;stroke-linecap:butt;stroke-linejoin:miter;stroke-opacity:1" />
    <path
       sodipodi:nodetypes="cccc"
       id="path12017"
       d="m 177.17025,193.44871 c -0.1533,-0.0999 -0.25013,-0.2782 -0.3344,-0.43314 0.0505,0.17811 0.12277,0.37144 0.28705,0.48604 0.0298,-5.8e-4 0.0417,-0.023 0.0473,-0.0529 z"
       style="fill:#001302;fill-opacity:1;stroke:none;stroke-width:0.264583px;stroke-linecap:butt;stroke-linejoin:miter;stroke-opacity:1" />
    <path
       style="fill:#001302;fill-opacity:1;stroke:none;stroke-width:0.264583px;stroke-linecap:butt;stroke-linejoin:miter;stroke-opacity:1"
       d="m 179.31844,187.52008 c -0.15547,0.0893 0.0542,0.42566 10e-4,0.65849 -0.11422,0.50052 0.11002,0.85125 0.42435,0.32504 0.58595,0.064 0.55394,-0.29008 0.0915,-0.51107 -0.20589,-0.0984 -0.30484,-0.52874 -0.5169,-0.47246 z"
       id="path12021"
       sodipodi:nodetypes="cscsc" />
    <path
       style="fill:#001302;fill-opacity:1;stroke:none;stroke-width:0.264583px;stroke-linecap:butt;stroke-linejoin:miter;stroke-opacity:1"
       d="m 179.76051,188.48389 c 0.0553,0.11726 0.17099,0.20248 0.27155,0.27664 -0.1201,-0.0527 -0.24877,-0.12215 -0.31327,-0.24854 0.003,-0.0209 0.0202,-0.027 0.0417,-0.0281 z"
       id="path12023"
       sodipodi:nodetypes="cccc" />
    <path
       style="color:#000000;font-style:normal;font-variant:normal;font-weight:normal;font-stretch:normal;font-size:medium;line-height:normal;font-family:sans-serif;font-variant-ligatures:normal;font-variant-position:normal;font-variant-caps:normal;font-variant-numeric:normal;font-variant-alternates:normal;font-variant-east-asian:normal;font-feature-settings:normal;font-variation-settings:normal;text-indent:0;text-align:start;text-decoration:none;text-decoration-line:none;text-decoration-style:solid;text-decoration-color:#000000;letter-spacing:normal;word-spacing:normal;text-transform:none;writing-mode:lr-tb;direction:ltr;text-orientation:mixed;dominant-baseline:auto;baseline-shift:baseline;text-anchor:start;white-space:normal;shape-padding:0;shape-margin:0;inline-size:0;clip-rule:nonzero;display:inline;overflow:visible;visibility:visible;opacity:1;isolation:auto;mix-blend-mode:normal;color-interpolation:sRGB;color-interpolation-filters:linearRGB;solid-color:#000000;solid-opacity:1;vector-effect:none;fill:#001302;fill-opacity:1;fill-rule:nonzero;stroke:none;stroke-width:0.79375;stroke-linecap:butt;stroke-linejoin:miter;stroke-miterlimit:4;stroke-dasharray:none;stroke-dashoffset:0;stroke-opacity:1;color-rendering:auto;image-rendering:auto;shape-rendering:auto;text-rendering:auto;enable-background:accumulate;stop-color:#000000;stop-opacity:1"
       d="m 99.111292,178.92526 -0.62695,0.48633 c 6.767898,8.70479 21.984888,13.8087 32.189448,16.97265 l 0.23438,-0.75781 c -10.18459,-3.15776 -25.29377,-8.33696 -31.796878,-16.70117 z"
       id="path11605" />
  </g>
</svg>
