<?xml version="1.0" encoding="UTF-8" standalone="no"?>
<svg
   xmlns:dc="http://purl.org/dc/elements/1.1/"
   xmlns:cc="http://creativecommons.org/ns#"
   xmlns:rdf="http://www.w3.org/1999/02/22-rdf-syntax-ns#"
   xmlns:svg="http://www.w3.org/2000/svg"
   xmlns="http://www.w3.org/2000/svg"
   xmlns:sodipodi="http://sodipodi.sourceforge.net/DTD/sodipodi-0.dtd"
   xmlns:inkscape="http://www.inkscape.org/namespaces/inkscape"
   sodipodi:docname="07_hanging_vines_main_menu_middle_shadow.svg"
   inkscape:version="1.0 (4035a4fb49, 2020-05-01)"
   id="svg16038"
   version="1.1"
   viewBox="0 0 127.08376 28.232197"
   height="28.232197mm"
   width="127.08376mm">
  <defs
     id="defs16032">
    <filter
       inkscape:collect="always"
       style="color-interpolation-filters:sRGB"
       id="filter11261"
       x="-0.0036758888"
       width="1.0073518"
       y="-0.016983747"
       height="1.0339675">
      <feGaussianBlur
         inkscape:collect="always"
         stdDeviation="0.19322354"
         id="feGaussianBlur11263" />
    </filter>
  </defs>
  <sodipodi:namedview
     inkscape:window-maximized="1"
     inkscape:window-y="-8"
     inkscape:window-x="-8"
     inkscape:window-height="705"
     inkscape:window-width="1366"
     fit-margin-bottom="0"
     fit-margin-right="0"
     fit-margin-left="0"
     fit-margin-top="0"
     showgrid="false"
     inkscape:document-rotation="0"
     inkscape:current-layer="layer1"
     inkscape:document-units="mm"
     inkscape:cy="222.97567"
     inkscape:cx="157.40262"
     inkscape:zoom="0.33557348"
     inkscape:pageshadow="2"
     inkscape:pageopacity="0.0"
     borderopacity="1.0"
     bordercolor="#666666"
     pagecolor="#ffffff"
     id="base" />
  <metadata
     id="metadata16035">
    <rdf:RDF>
      <cc:Work
         rdf:about="">
        <dc:format>image/svg+xml</dc:format>
        <dc:type
           rdf:resource="http://purl.org/dc/dcmitype/StillImage" />
        <dc:title></dc:title>
      </cc:Work>
    </rdf:RDF>
  </metadata>
  <g
     transform="translate(10.715646,-89.171019)"
     id="layer1"
     inkscape:groupmode="layer"
     inkscape:label="Layer 1">
    <path
       inkscape:export-ydpi="96"
       inkscape:export-xdpi="96"
       inkscape:export-filename="D:\Calcatz\Icon Pack\Adventure Narrative Inspired by Jumanji\Assets\PNG\Plant\25_hanging_vines_main_menu_middle_shadow.png"
       d="m 14.55244,89.634756 -0.56017,0.9248 c 4.45696,2.86606 8.92637,5.36645 13.40745,7.46443 0.76451,1.84694 0.48667,3.479484 0.56379,5.184844 0.23631,-3.01013 1.99155,-3.664864 2.3151,-0.95354 0.20947,-2.648734 2.13871,-1.41981 2.41432,1.39625 -0.12367,-3.785494 1.72137,-2.86225 1.98438,-1.32814 0.006,-0.49393 0.0709,-0.88785 0.18914,-1.18925 11.75306,4.277 23.583591,5.62119 35.478971,3.27193 0.55698,0.73053 0.4791,1.96724 0.59996,2.56157 0.15471,-1.67393 1.21196,-4.04684 1.94096,-1.30047 0.16136,-3.82869 1.65064,-0.47017 2.15181,1.56547 -0.22035,-1.89599 -0.19047,-3.04072 0.29042,-4.02913 7.06374,-2.01281 14.149532,-5.357554 21.255042,-10.199964 l -0.58395,-0.90938 C 68.438211,110.87742 41.46613,106.94151 14.55244,89.634756 Z m 100.44141,1.0839 c -1.82921,1.31695 -3.65319,2.55423 -5.47305,3.72638 -0.0379,-0.21682 -0.0871,-0.43221 -0.14728,-0.64441 l -0.49402,0.14955 -0.49455,0.14896 c 0.0892,0.31165 0.14721,0.63326 0.17777,0.95834 -3.12772,1.97338 -6.24168,3.73784 -9.343617,5.304064 -0.12669,-0.0239 -0.25008,-0.0514 -0.37827,-0.0729 -0.71303,-0.11966 -1.4911,-0.19842 -2.28771,-0.15856 0.13047,-0.0972 0.1352,-0.386594 -0.032,-0.748694 -0.13835,-0.29952 0.13583,-0.87625 -0.14676,-1.00675 -0.19141,-0.0317 -0.27723,0.29546 -0.42582,0.547 -0.0736,-0.0762 -0.15414,-0.15172 -0.24494,-0.22509 -0.40938,-0.33079 -0.51598,-1.21316 -0.90176,-1.14933 -0.43621,0.20147 -0.0133,1.09139 -0.22686,1.55374 -0.47076,1.019234 -0.0623,1.672214 0.80771,0.80828 0.0208,0.122484 0.0214,0.248514 0.005,0.374604 -0.20866,0.0464 -0.4172,0.10019 -0.62477,0.17027 -0.96638,0.34513 -1.81385,0.94439 -2.53783,1.66178 -0.20341,0.20079 -0.39514,0.40953 -0.58136,0.62202 -0.0688,-0.056 -0.13398,-0.11753 -0.1757,-0.19528 0.55079,0.0483 0.51487,-0.30423 0.0615,-0.5273 -0.20589,-0.10132 -0.3047,-0.54431 -0.51676,-0.48636 -0.15547,0.0919 0.0542,0.43816 0.001,0.67791 -0.11225,0.50652 0.10295,0.8593 0.40877,0.35703 0.0481,0.087 0.12604,0.14286 0.20877,0.18891 -0.43485,0.49766 -0.83034,1.01974 -1.21026,1.54257 -13.083402,5.10628 -25.962182,6.85449 -38.717543,6.14853 -3.72696,-0.2063 -7.44379,-0.62585 -11.15177,-1.23024 -1.19829,-0.39261 -2.44974,-0.81494 -3.72949,-1.2627 -0.15162,-0.096 -0.30469,-0.18894 -0.46044,-0.27884 0.0524,-0.0301 0.099,-0.069 0.13591,-0.12024 0.23853,0.52229 0.48694,0.20723 0.43615,-0.2964 -0.024,-0.23846 0.21851,-0.5482 0.0786,-0.65608 -0.19863,-0.0818 -0.3452,0.33501 -0.55604,0.40814 -0.46444,0.16109 -0.5394,0.49802 0,0.51774 -0.0348,0.0497 -0.0794,0.0914 -0.12919,0.12769 -0.78756,-0.45105 -1.62664,-0.81955 -2.53576,-1.00993 -0.0999,-0.0196 -0.19986,-0.0348 -0.29973,-0.05 0.0652,-0.0992 0.095,-0.28767 0.0594,-0.51562 -0.0377,-0.24209 0.19231,-0.57278 0.0434,-0.6747 -0.20737,-0.0719 -0.33342,0.36252 -0.54467,0.44964 -0.0593,0.0244 -0.11288,0.0518 -0.15865,0.0803 -0.03,-0.0541 -0.0646,-0.10968 -0.108,-0.16708 -0.17429,-0.23027 -0.0452,-0.77921 -0.31212,-0.83596 -0.22241,0.0135 -0.17605,0.51837 -0.36432,0.75455 -0.12259,0.15376 -0.19728,0.30614 -0.23203,0.43686 -8.16288,-3.20536 -16.62424,-7.558564 -21.06797,-13.443714 l -0.62683,0.50284 c 4.48392,5.93839 12.67536,10.248084 20.66127,13.428814 -0.4679,0.0627 -0.932,0.14839 -1.39165,0.24797 -4.20567,-1.09169 -8.40179,-2.39637 -12.58941,-3.88547 -0.6266,-0.66407 -1.30499,-1.29256 -2.08463,-1.7884 0.11595,-0.10516 0.22425,-0.32034 0.27906,-0.59915 0.0633,-0.32181 0.50337,-0.624874 0.36328,-0.824784 -0.22713,-0.19049 -0.58424,0.292384 -0.88883,0.299574 -0.67103,0.0149 -0.90277,0.42399 -0.20567,0.67684 -0.0511,0.0394 -0.10856,0.0694 -0.1695,0.0931 -0.0938,-0.0476 -0.18858,-0.0933 -0.28526,-0.13675 -0.40712,-0.17394 -0.82306,-0.30302 -1.24385,-0.39696 0.0758,-0.11778 0.13204,-0.24787 0.154,-0.391634 1.00368,0.778034 1.17192,-0.11805 0.55965,-1.0589 -0.28968,-0.44513 -0.12558,-1.3184 -0.51159,-1.38082 -0.47538,0.0524 -0.34097,1.03382 -0.68316,1.40529 -0.21856,0.23727 -0.35527,0.46764 -0.41652,0.66408 -0.0499,-0.0442 -0.10816,-0.0875 -0.18448,-0.12716 -0.1922,-0.0997 -0.27695,-0.51971 -0.47801,-0.46932 -0.14834,0.0836 0.0427,0.41408 -0.0119,0.63905 -0.0568,0.23375 -0.0373,0.432744 0.0315,0.521484 -0.57666,-0.0294 -1.1533101,-0.0182 -1.7203101,0.0186 -3.57576,-1.450634 -7.14646,-3.021684 -10.7130401,-4.689994 -0.23721,-0.72404 -0.36918,-1.4843 -0.37414,-2.2455 l -0.43305,0.003 -0.43305,0.003 c 0.004,0.5903 0.0737,1.17808 0.20258,1.7517 -2.3889301,-1.13037 -4.7760901,-2.30263 -7.1618401,-3.5135 l -0.7033197,1.46596 c 2.8913597,1.4675 5.7871797,2.87966 8.6873298,4.22972 0.21689,0.39597 0.46609,0.77379 0.74569005,1.12701 1.0715901,1.35138 2.57068005,2.323694 4.21421005,2.742484 -0.0778,0.15036 -0.13376,0.31213 -0.13642,0.48742 -1.14686,-0.65102 -1.19322,0.30014 -0.42685,1.17915 0.36266,0.41595 0.31744,1.34217 0.72502,1.34835 0.48353,-0.12594 0.20492,-1.11887 0.50539,-1.55429 0.66241,-0.95981 0.35778,-1.707 -0.68781,-0.98068 1.9e-4,-0.15659 0.0352,-0.31262 0.0884,-0.46344 0.059,0.0144 0.11787,0.0301 0.17725,0.0431 1.33676,0.28424 2.67486,0.22046 3.9765,0.11012 3.2497001,1.34209 6.5063201,2.58807 9.7704601,3.72476 0.17456,0.20343 0.35154,0.40741 0.53382,0.61035 0.5331,0.59345 1.13066,1.19712 1.80971,1.71923 -0.0858,0.0886 -0.15685,0.19059 -0.20154,0.30862 -0.0521,-0.0616 -0.15382,-0.11781 -0.29404,-0.16549 -0.02,-0.0122 -0.0406,-0.0263 -0.0594,-0.0356 0.11247,-0.0941 0.26269,-0.14252 0.39688,-0.18303 -0.15579,0.0103 -0.32618,0.0374 -0.45372,0.14845 -0.1489,-0.71831 -0.54575,-0.40188 -0.62425,0.23732 -0.0372,0.30263 -0.42426,0.61433 -0.28112,0.78964 0.17327,0.12458 0.39187,-0.13069 0.61288,-0.26498 0.0317,0.10364 0.0728,0.21188 0.12713,0.32298 0.18933,0.38744 -0.028,1.0717 0.27595,1.1616 0.38692,0.007 0.37472,-0.79479 0.68574,-1.05782 0.38098,-0.32221 0.52436,-0.65745 0.4191,-0.83702 0.37338,0.23842 0.76792,0.451 1.19217,0.61724 1.01872,0.38288 2.11388,0.47981 3.19154,0.39218 0.41868,-0.0334 0.83035,-0.0956 1.2392,-0.16977 -0.0111,0.0648 -0.0108,0.13062 0.005,0.19635 -0.58539,-0.1524 -0.50028,0.27585 -0.0584,0.57629 0.20921,0.14221 0.2942,0.56194 0.47698,0.5156 0.20171,-0.1144 -0.0353,-0.52494 0.0496,-0.75559 0.18695,-0.50812 -0.0343,-0.80225 -0.41858,-0.35333 -0.0154,-0.0599 -0.0196,-0.12289 -0.016,-0.18624 0.57503,-0.10578 1.14321,-0.2399 1.70739,-0.38735 4.01377,1.08537 8.0401,1.98284 12.08143,2.65998 1.04858,0.74538 2.101,1.39741 3.26182,1.79217 0.007,0.053 0.008,0.10581 -5.2e-4,0.15749 -0.39344,-0.37978 -0.57279,-0.0877 -0.35657,0.36502 0.0982,0.20559 -0.0857,0.60636 0.11059,0.69388 0.17296,0.0263 0.21561,-0.3694 0.39687,-0.51987 0.38291,-0.31783 0.42494,-0.72128 -0.10335,-0.52731 0.008,-0.0532 0.003,-0.10557 -0.008,-0.15646 0.18784,0.0628 0.37803,0.12064 0.57206,0.16921 1.23459,0.30266 2.52757,0.26942 3.65249,0.24373 1.34347,-0.0282 2.46994,-0.0397 3.58841,0.23996 2.65822,0.66176 4.06146,2.68134 4.57595,3.73805 -0.4626,-0.9775 -1.80068,-3.11632 -4.53977,-3.88384 -1.13123,-0.31583 -2.27821,-0.34229 -3.62614,-0.35119 -1.12349,-0.009 -2.39917,-0.0123 -3.56412,-0.33842 -1.04238,-0.28607 -1.97803,-0.81291 -2.90422,-1.45426 3.58102,0.5658 7.17332,0.96309 10.77867,1.16266 12.159411,0.67301 24.460221,-0.86603 36.919191,-5.34502 -0.62162,0.68163 -1.29239,1.26154 -2.05,1.64794 -0.94659,0.49061 -2.13526,0.70747 -3.08302,0.93596 -1.27172,0.30067 -2.25251,0.66824 -3.02513,1.3207 -0.70437,0.59676 -1.0502,1.27886 -1.23611,1.78789 0.19337,-0.47551 0.57926,-1.15468 1.30174,-1.70113 0.78499,-0.5957 1.74043,-0.87963 3.0179,-1.11001 0.94687,-0.16654 2.1624,-0.3151 3.22719,-0.7822 0.71188,-0.31734 1.36438,-0.7786 1.96526,-1.32707 0.0375,0.0638 0.0835,0.12158 0.14262,0.16869 -0.74419,0.34363 -0.30302,0.72267 0.40721,0.65876 0.335842,-0.0303 0.765922,0.33858 0.920882,0.13249 0.11965,-0.29415 -0.46289,-0.52206 -0.56069,-0.83808 -0.11164,-0.36061 -0.292722,-0.56749 -0.447002,-0.57201 0.251982,-0.25858 0.490592,-0.52623 0.722952,-0.79869 3.46102,-1.30041 6.93409,-2.83233 10.420037,-4.60645 1.08366,0.22037 2.21296,0.41478 3.36775,0.35224 0.0529,0.12085 0.0965,0.24535 0.10128,0.37514 -0.73861,-0.47056 -0.92912,0.0515 -0.44803,0.69334 0.21821,0.29112 0.0532,0.98205 0.38912,1.05515 0.28024,-0.0156 0.22451,-0.65135 0.46302,-0.94769 0.50452,-0.62679 0.44745,-1.28041 -0.32659,-0.79762 -0.007,-0.14002 -0.0609,-0.26622 -0.13281,-0.38046 0.33627,-0.0202 0.67451,-0.0614 1.01337,-0.1309 1.56504,-0.34134 2.97033,-1.32037 3.86799,-2.679694 0.12346,0.049 0.23937,0.11309 0.33796,0.19902 -1.0965,0.31731 -0.77473,0.969614 0.25425,1.060504 0.46678,0.0412 0.9681,0.81904 1.3348,0.54965 0.23405,-0.29261 -0.41212,-0.80184 -0.47852,-1.302084 -0.14034,-1.05709 -0.80325,-1.57976 -1.03767,-0.38577 -0.10972,-0.0929 -0.23801,-0.14777 -0.37207,-0.18144 0.0505,-0.0785 0.10018,-0.15753 0.14728,-0.23839 0.45184,-0.77989 0.73104,-1.65498 0.83199,-2.55145 2.10507,-1.33261 4.21482,-2.75579 6.32933,-4.27816 z m -6.60631,6.35603 c -0.12208,0.44571 -0.29892,0.87431 -0.52865,1.26856 -0.7253,1.2526 -1.99592,2.185864 -3.38222,2.484414 -0.84728,0.1955 -1.74048,0.14744 -2.65721,0.0138 2.18422,-1.156264 4.37381,-2.413034 6.56808,-3.766814 z m -108.40527005,0.75986 c 1.90711995,0.87201 3.81632995,1.7149 5.72780995,2.526444 -0.6443,8e-4 -1.27669,-0.045 -1.89032,-0.18357 -1.47719,-0.322484 -2.84933995,-1.166414 -3.83748995,-2.342874 z m 11.73262005,2.0582 c 0.0885,0.223674 0.40861,0.274374 0.95291,0.002 -0.0185,0.132854 -0.0619,0.261934 -0.12196,0.384714 -0.27888,-0.0593 -0.55953,-0.10049 -0.84129,-0.13196 -0.0853,-0.0676 -0.17893,-0.14502 -0.23048,-0.245824 0.10149,0.011 0.18026,0.006 0.24082,-0.009 z m -0.28422,0.0282 c 0.0581,0.110224 0.16547,0.175584 0.26923,0.226154 -0.14324,-0.016 -0.28641,-0.0329 -0.42995,-0.0426 0.0489,-0.0345 0.10236,-0.0921 0.16072,-0.183574 z m 84.068253,0.024 c 0.0534,0.0147 0.12195,0.0176 0.20877,0.003 0.0798,0.0197 0.15141,0.0313 0.21601,0.0368 10e-4,0.0678 0.0118,0.134374 0.031,0.198994 -0.16176,0.0214 -0.32368,0.0503 -0.48575,0.0841 0.0253,-0.10536 0.0389,-0.21305 0.03,-0.322984 z m 0.59066,0.0383 c 0.087,0.0739 0.16852,0.131894 0.23719,0.158054 -0.1082,0.008 -0.21691,0.0236 -0.32556,0.0373 -0.01,-0.0628 -0.0152,-0.12538 -0.0129,-0.187844 0.0373,6.2e-4 0.0697,-0.003 0.10128,-0.007 z M 14.3664,100.78728 c 0.009,0.066 0.0203,0.12257 0.0336,0.17346 -0.0595,-0.0332 -0.1192,-0.0664 -0.17983,-0.0979 0.0515,-0.0178 0.10084,-0.0415 0.14624,-0.0756 z m -2.68252,0.25167 c 0.64437,0.0719 1.26674,0.21303 1.84588,0.47359 0.40518,0.17199 0.78358,0.40133 1.14567,0.66513 -0.99767,-0.36989 -1.99475,-0.74921 -2.99155,-1.13872 z m 85.176713,0.11971 c 0.22109,0.003 0.44243,0.0182 0.66301,0.0378 -1.85877,0.89688 -3.71324,1.7231 -5.56348,2.48176 0.27837,-0.31352 0.56385,-0.61539 0.86661,-0.89074 0.68643,-0.62162 1.43677,-1.12413 2.24069,-1.37816 0.57464,-0.19518 1.18221,-0.25947 1.79317,-0.25065 z m -77.743053,4.31809 c 2.31279,0.77675 4.62949,1.49838 6.95047,2.15608 -0.471,0.0864 -0.93907,0.15278 -1.40663,0.18199 -0.99525,0.0604 -1.97229,-0.0315 -2.8391,-0.3746 -1.03614,-0.39079 -1.91443,-1.14648 -2.70474,-1.96347 z m 13.31288,0.84017 c 0.0404,0.0254 0.077,0.0441 0.11317,0.0623 -0.0373,-0.0144 -0.0743,-0.0276 -0.11162,-0.042 -5.3e-4,-0.007 -10e-4,-0.0135 -0.002,-0.0203 z m 0.53847,0.0601 c 0.0338,0.003 0.0688,0.005 0.10903,0.004 -0.0359,0.0578 -0.0848,0.10527 -0.13901,0.14791 -5.1e-4,-3e-5 -10e-4,5e-5 -0.002,0 -0.0754,-0.0288 -0.15033,-0.0572 -0.22582,-0.0862 0.12741,0.0298 0.21736,0.006 0.25735,-0.066 z m 0.15244,0.0287 c 0.0321,0.0613 0.0639,0.11266 0.0946,0.15112 -0.0739,-0.008 -0.14785,-0.0182 -0.22169,-0.0245 0.0496,-0.0332 0.0935,-0.0743 0.12712,-0.12666 z m -0.77825,0.78593 c 0.87778,0.33592 1.74666,0.65759 2.60811,0.96738 -1.25968,-0.26841 -2.51818,-0.55724 -3.77599,-0.86576 0.39102,-0.0556 0.78084,-0.095 1.16788,-0.10163 z m -12.57391,0.0521 c 0.12594,0.0958 0.25467,0.18796 0.38655,0.27724 -0.12797,-0.0299 -0.31453,-0.0105 -0.56173,0.0761 0.0336,-0.12693 0.0983,-0.24446 0.17518,-0.35333 z m 69.118781,0.0393 c -0.0272,0.0836 -0.043,0.19569 -0.0496,0.32831 -0.0536,-0.0411 -0.10026,-0.0916 -0.14159,-0.14739 0.0643,-0.0594 0.12808,-0.11961 0.1912,-0.18092 z"
       style="color:#000000;font-style:normal;font-variant:normal;font-weight:normal;font-stretch:normal;font-size:medium;line-height:normal;font-family:sans-serif;font-variant-ligatures:normal;font-variant-position:normal;font-variant-caps:normal;font-variant-numeric:normal;font-variant-alternates:normal;font-variant-east-asian:normal;font-feature-settings:normal;font-variation-settings:normal;text-indent:0;text-align:start;text-decoration:none;text-decoration-line:none;text-decoration-style:solid;text-decoration-color:#000000;letter-spacing:normal;word-spacing:normal;text-transform:none;writing-mode:lr-tb;direction:ltr;text-orientation:mixed;dominant-baseline:auto;baseline-shift:baseline;text-anchor:start;white-space:normal;shape-padding:0;shape-margin:0;inline-size:0;clip-rule:nonzero;display:inline;overflow:visible;visibility:visible;opacity:1;isolation:auto;mix-blend-mode:normal;color-interpolation:sRGB;color-interpolation-filters:linearRGB;solid-color:#000000;solid-opacity:1;vector-effect:none;fill:#000000;fill-opacity:1;fill-rule:nonzero;stroke:none;stroke-width:1.6109;stroke-linecap:butt;stroke-linejoin:miter;stroke-miterlimit:4;stroke-dasharray:none;stroke-dashoffset:0;stroke-opacity:1;filter:url(#filter11261);color-rendering:auto;image-rendering:auto;shape-rendering:auto;text-rendering:auto;enable-background:accumulate;stop-color:#000000;stop-opacity:1"
       id="path12496" />
  </g>
</svg>
