<?xml version="1.0" encoding="UTF-8" standalone="no"?>
<svg
   xmlns:dc="http://purl.org/dc/elements/1.1/"
   xmlns:cc="http://creativecommons.org/ns#"
   xmlns:rdf="http://www.w3.org/1999/02/22-rdf-syntax-ns#"
   xmlns:svg="http://www.w3.org/2000/svg"
   xmlns="http://www.w3.org/2000/svg"
   xmlns:sodipodi="http://sodipodi.sourceforge.net/DTD/sodipodi-0.dtd"
   xmlns:inkscape="http://www.inkscape.org/namespaces/inkscape"
   sodipodi:docname="08_hanging_u_vines_main_menu_left.svg"
   inkscape:version="1.0 (4035a4fb49, 2020-05-01)"
   id="svg11544"
   version="1.1"
   viewBox="0 0 58.283199 25.326719"
   height="25.326719mm"
   width="58.283199mm">
  <defs
     id="defs11538" />
  <sodipodi:namedview
     inkscape:window-maximized="1"
     inkscape:window-y="-8"
     inkscape:window-x="-8"
     inkscape:window-height="705"
     inkscape:window-width="1366"
     fit-margin-bottom="0"
     fit-margin-right="0"
     fit-margin-left="0"
     fit-margin-top="0"
     showgrid="false"
     inkscape:document-rotation="0"
     inkscape:current-layer="layer1"
     inkscape:document-units="mm"
     inkscape:cy="27.799722"
     inkscape:cx="86.902616"
     inkscape:zoom="2.6845878"
     inkscape:pageshadow="2"
     inkscape:pageopacity="0.0"
     borderopacity="1.0"
     bordercolor="#666666"
     pagecolor="#ffffff"
     id="base" />
  <metadata
     id="metadata11541">
    <rdf:RDF>
      <cc:Work
         rdf:about="">
        <dc:format>image/svg+xml</dc:format>
        <dc:type
           rdf:resource="http://purl.org/dc/dcmitype/StillImage" />
        <dc:title></dc:title>
      </cc:Work>
    </rdf:RDF>
  </metadata>
  <g
     transform="translate(-27.626891,-81.162341)"
     id="layer1"
     inkscape:groupmode="layer"
     inkscape:label="Layer 1">
    <path
       id="path11559"
       d="m 28.228451,81.162341 -0.60156,0.51563 c 9.198651,10.75212 17.12067,19.440919 26.18164,21.193359 4.530482,0.87622 9.321631,-0.0212 14.576171,-3.240239 5.25454,-3.21904 10.992771,-8.74745 17.525389,-17.17382 l -0.628909,-0.48633 c -6.497619,8.38124 -12.1841,13.84261 -17.3125,16.98437 -5.1284,3.141769 -9.679181,3.974279 -14.009761,3.136719 -8.66117,-1.67511 -16.541849,-10.189279 -25.73047,-20.929689 z"
       style="color:#000000;font-style:normal;font-variant:normal;font-weight:normal;font-stretch:normal;font-size:medium;line-height:normal;font-family:sans-serif;font-variant-ligatures:normal;font-variant-position:normal;font-variant-caps:normal;font-variant-numeric:normal;font-variant-alternates:normal;font-variant-east-asian:normal;font-feature-settings:normal;font-variation-settings:normal;text-indent:0;text-align:start;text-decoration:none;text-decoration-line:none;text-decoration-style:solid;text-decoration-color:#000000;letter-spacing:normal;word-spacing:normal;text-transform:none;writing-mode:lr-tb;direction:ltr;text-orientation:mixed;dominant-baseline:auto;baseline-shift:baseline;text-anchor:start;white-space:normal;shape-padding:0;shape-margin:0;inline-size:0;clip-rule:nonzero;display:inline;overflow:visible;visibility:visible;opacity:1;isolation:auto;mix-blend-mode:normal;color-interpolation:sRGB;color-interpolation-filters:linearRGB;solid-color:#000000;solid-opacity:1;vector-effect:none;fill:#041a08;fill-opacity:1;fill-rule:nonzero;stroke:none;stroke-width:0.79375;stroke-linecap:butt;stroke-linejoin:miter;stroke-miterlimit:4;stroke-dasharray:none;stroke-dashoffset:0;stroke-opacity:1;color-rendering:auto;image-rendering:auto;shape-rendering:auto;text-rendering:auto;enable-background:accumulate;stop-color:#000000;stop-opacity:1" />
    <path
       inkscape:export-ydpi="96"
       inkscape:export-xdpi="96"
       inkscape:export-filename="D:\Calcatz\Icon Pack\Adventure Narrative Inspired by Jumanji\Assets\PNG\Vines\05_hanging_u_vines_main_menu_left.png"
       sodipodi:nodetypes="ccccccc"
       id="path12414"
       d="m 83.133791,85.423001 c -0.43412,1.07161 -0.764428,2.41226 -0.56126,4.25627 -0.51203,-2.12681 -2.215298,-2.13009 -2.198288,2.75956 -0.177721,-1.0689 -0.96643,-3.11252 -1.309622,-0.60804 -0.760319,-1.369 -0.762899,-0.16167 -0.93545,0.46772 -0.124719,-0.4989 -0.436538,-0.62363 -0.935439,-0.37418 z"
       style="fill:#041a08;fill-opacity:1;stroke:none;stroke-width:0.264583px;stroke-linecap:butt;stroke-linejoin:miter;stroke-opacity:1" />
    <path
       inkscape:export-ydpi="96"
       inkscape:export-xdpi="96"
       inkscape:export-filename="D:\Calcatz\Icon Pack\Adventure Narrative Inspired by Jumanji\Assets\PNG\Vines\05_hanging_u_vines_main_menu_left.png"
       sodipodi:nodetypes="ccccccccc"
       id="path12416"
       d="m 66.788291,100.37057 c -1.315598,1.26088 -2.56173,2.62367 -2.57969,5.78776 -0.351849,-1.83673 -1.209868,-3.6835 -1.620571,-0.19843 -0.959119,-5.00306 -1.256768,-1.68711 -1.885158,0.52916 -0.10345,-5.02106 -2.28758,-3.86825 -2.678901,-1.0914 -0.849649,-2.32002 -2.889179,-0.81645 -3.009638,1.02526 -0.716582,-1.90339 -1.433162,-1.71223 -2.149742,-0.99219 0.29172,-2.42047 -0.56242,-2.83568 -1.28984,-3.47266 4.51969,1.6768 9.635912,0.96745 15.21354,-1.5875 z"
       style="fill:#041a08;fill-opacity:1;stroke:none;stroke-width:0.264583px;stroke-linecap:butt;stroke-linejoin:miter;stroke-opacity:1" />
    <path
       id="path12418"
       style="fill:#041a08;fill-opacity:1;stroke:none;stroke-width:0.264583px;stroke-linecap:butt;stroke-linejoin:miter;stroke-opacity:1"
       d="m 37.197792,87.069051 c -0.519681,-0.007 -0.940811,0.1839 -1.189171,0.43582 -0.186089,-0.25234 -0.49178,-0.48174 -0.9009,-0.60334 -0.338759,0.82448 0.12325,1.55846 0.56038,1.65837 0.12398,0.42849 0.84353,0.86391 1.65045,0.53236 -0.11253,-0.37866 -0.31748,-0.66855 -0.547429,-0.85725 0.267059,-0.24278 0.47175,-0.64922 0.42667,-1.16596 z" />
    <path
       sodipodi:nodetypes="cccc"
       id="path12420"
       d="m 35.571471,88.410181 c -0.40281,0.4086 -0.63445,0.37227 -0.916999,0.46826 0.42017,0.05 0.830449,0.0619 1.160889,-0.23413 z"
       style="fill:#041a08;fill-opacity:1;stroke:none;stroke-width:0.264583px;stroke-linecap:butt;stroke-linejoin:miter;stroke-opacity:1" />
    <path
       d="m 37.197792,87.069051 c -0.519681,-0.007 -0.940811,0.1839 -1.189171,0.43582 -0.186089,-0.25234 -0.49178,-0.48174 -0.9009,-0.60334 -0.338759,0.82448 0.12325,1.55846 0.56038,1.65837 0.12398,0.42849 0.84353,0.86391 1.65045,0.53236 -0.11253,-0.37866 -0.31748,-0.66855 -0.547429,-0.85725 0.267059,-0.24278 0.47175,-0.64922 0.42667,-1.16596 z"
       style="fill:#041a08;fill-opacity:1;stroke:none;stroke-width:0.264583px;stroke-linecap:butt;stroke-linejoin:miter;stroke-opacity:1"
       id="path12422" />
    <path
       d="m 38.629561,97.935361 c 0.61007,0.10142 1.13966,-0.0482 1.47687,-0.30018 0.17381,0.33012 0.49243,0.65463 0.952,0.87081 0.54588,-0.9094 0.13355,-1.85544 -0.36285,-2.0511 -0.0693,-0.52625 -0.83794,-1.16709 -1.84648,-0.92127 0.0647,0.46558 0.25401,0.84325 0.4908,1.10634 -0.35757,0.23787 -0.67101,0.67944 -0.71034,1.2954 z"
       style="fill:#041a08;fill-opacity:1;stroke:none;stroke-width:0.264583px;stroke-linecap:butt;stroke-linejoin:miter;stroke-opacity:1"
       id="path12426" />
    <path
       style="fill:#041a08;fill-opacity:1;stroke:none;stroke-width:0.264583px;stroke-linecap:butt;stroke-linejoin:miter;stroke-opacity:1"
       d="m 40.782501,96.648281 c 0.54691,-0.40869 0.81291,-0.32455 1.16247,-0.38697 -0.48535,-0.13396 -0.96589,-0.22127 -1.40754,0.0679 z"
       id="path12428"
       sodipodi:nodetypes="cccc" />
    <path
       d="m 43.229561,92.631071 c -0.57182,0.0829 -1.00075,0.36635 -1.22939,0.68635 -0.24841,-0.24452 -0.62412,-0.44293 -1.09454,-0.50492 -0.2278,0.9644 0.40773,1.68946 0.90512,1.72273 0.21101,0.44877 1.0771,0.80103 1.90505,0.29597 -0.18974,-0.39605 -0.46542,-0.67849 -0.75087,-0.84547 0.25077,-0.31321 0.40444,-0.79522 0.26463,-1.35466 z"
       style="fill:#041a08;fill-opacity:1;stroke:none;stroke-width:0.264583px;stroke-linecap:butt;stroke-linejoin:miter;stroke-opacity:1"
       id="path12432" />
    <path
       style="fill:#041a08;fill-opacity:1;stroke:none;stroke-width:0.264583px;stroke-linecap:butt;stroke-linejoin:miter;stroke-opacity:1"
       d="m 41.678491,94.387761 c -0.37082,0.519 -0.63148,0.51961 -0.92491,0.67438 0.47004,-0.0185 0.92256,-0.0772 1.23359,-0.45997 z"
       id="path12434"
       sodipodi:nodetypes="cccc" />
    <path
       id="path12436"
       style="fill:#041a08;fill-opacity:1;stroke:none;stroke-width:0.264583px;stroke-linecap:butt;stroke-linejoin:miter;stroke-opacity:1"
       d="m 43.229561,92.631071 c -0.57182,0.0829 -1.00075,0.36635 -1.22939,0.68635 -0.24841,-0.24452 -0.62412,-0.44293 -1.09454,-0.50492 -0.2278,0.9644 0.40773,1.68946 0.90512,1.72273 0.21101,0.44877 1.0771,0.80103 1.90505,0.29597 -0.18974,-0.39605 -0.46542,-0.67849 -0.75087,-0.84547 0.25077,-0.31321 0.40444,-0.79522 0.26463,-1.35466 z" />
    <path
       id="path12440"
       style="fill:#041a08;fill-opacity:1;stroke:none;stroke-width:0.264583px;stroke-linecap:butt;stroke-linejoin:miter;stroke-opacity:1"
       d="m 48.005451,97.621321 c 0.064,0.39669 -0.0348,0.74032 -0.19957,0.95864 0.21396,0.11394 0.42382,0.32196 0.56286,0.62121 -0.59253,0.35189 -1.20594,0.0811 -1.33154,-0.24205 -0.34171,-0.0466 -0.75572,-0.54802 -0.5929,-1.20254 0.3023,0.0435 0.5471,0.16763 0.71731,0.32229 0.15565,-0.2316 0.44351,-0.43389 0.84384,-0.45755 z" />
    <path
       sodipodi:nodetypes="cccc"
       id="path12442"
       d="m 47.162591,99.016191 c -0.26722,0.35409 -0.21337,0.52718 -0.255,0.7541 -0.0855,-0.31576 -0.1408,-0.62824 0.0485,-0.91431 z"
       style="fill:#041a08;fill-opacity:1;stroke:none;stroke-width:0.264583px;stroke-linecap:butt;stroke-linejoin:miter;stroke-opacity:1" />
    <path
       d="m 48.005451,97.621321 c 0.064,0.39669 -0.0348,0.74032 -0.19957,0.95864 0.21396,0.11394 0.42382,0.32196 0.56286,0.62121 -0.59253,0.35189 -1.20594,0.0811 -1.33154,-0.24205 -0.34171,-0.0466 -0.75572,-0.54802 -0.5929,-1.20254 0.3023,0.0435 0.5471,0.16763 0.71731,0.32229 0.15565,-0.2316 0.44351,-0.43389 0.84384,-0.45755 z"
       style="fill:#041a08;fill-opacity:1;stroke:none;stroke-width:0.264583px;stroke-linecap:butt;stroke-linejoin:miter;stroke-opacity:1"
       id="path12444" />
    <path
       d="m 47.101771,102.64763 c -0.064,-0.39669 0.0348,-0.74032 0.19957,-0.95864 -0.21396,-0.11394 -0.42382,-0.32196 -0.56286,-0.62121 0.59253,-0.35189 1.20594,-0.0811 1.33154,0.24205 0.34171,0.0466 0.75572,0.54802 0.5929,1.20254 -0.3023,-0.0435 -0.5471,-0.16763 -0.71731,-0.32229 -0.15565,0.2316 -0.44351,0.43389 -0.84384,0.45755 z"
       style="fill:#041a08;fill-opacity:1;stroke:none;stroke-width:0.264583px;stroke-linecap:butt;stroke-linejoin:miter;stroke-opacity:1"
       id="path12448" />
    <path
       style="fill:#041a08;fill-opacity:1;stroke:none;stroke-width:0.264583px;stroke-linecap:butt;stroke-linejoin:miter;stroke-opacity:1"
       d="m 47.944631,101.25276 c 0.26722,-0.35409 0.21337,-0.52718 0.255,-0.7541 0.0856,0.31576 0.1408,0.62824 -0.0485,0.91431 z"
       id="path12450"
       sodipodi:nodetypes="cccc" />
    <path
       id="path12452"
       style="fill:#041a08;fill-opacity:1;stroke:none;stroke-width:0.264583px;stroke-linecap:butt;stroke-linejoin:miter;stroke-opacity:1"
       d="m 47.101771,102.64763 c -0.064,-0.39669 0.0348,-0.74032 0.19957,-0.95864 -0.21396,-0.11394 -0.42382,-0.32196 -0.56286,-0.62121 0.59253,-0.35189 1.20594,-0.0811 1.33154,0.24205 0.34171,0.0466 0.75572,0.54802 0.5929,1.20254 -0.3023,-0.0435 -0.5471,-0.16763 -0.71731,-0.32229 -0.15565,0.2316 -0.44351,0.43389 -0.84384,0.45755 z" />
    <path
       d="m 46.264641,101.60542 c 0.3016,-0.006 0.54218,-0.12499 0.68135,-0.27597 0.11286,0.14276 0.29465,0.26988 0.53435,0.33246 0.18047,-0.48487 -0.10183,-0.90166 -0.35736,-0.9511 -0.0803,-0.24616 -0.50614,-0.48474 -0.96778,-0.2767 0.0727,0.21747 0.19719,0.38165 0.33425,0.48664 -0.1502,0.14603 -0.26102,0.38579 -0.22481,0.68467 z"
       style="fill:#041a08;fill-opacity:1;stroke:none;stroke-width:0.264583px;stroke-linecap:butt;stroke-linejoin:miter;stroke-opacity:1"
       id="path12456" />
    <path
       style="fill:#041a08;fill-opacity:1;stroke:none;stroke-width:0.264583px;stroke-linecap:butt;stroke-linejoin:miter;stroke-opacity:1"
       d="m 47.181951,100.79577 c 0.22572,-0.24486 0.3608,-0.2283 0.52283,-0.28948 -0.24471,-0.0208 -0.48294,-0.0198 -0.66886,0.15841 z"
       id="path12458"
       sodipodi:nodetypes="cccc" />
    <path
       id="path12460"
       style="fill:#041a08;fill-opacity:1;stroke:none;stroke-width:0.264583px;stroke-linecap:butt;stroke-linejoin:miter;stroke-opacity:1"
       d="m 46.264641,101.60542 c 0.3016,-0.006 0.54218,-0.12499 0.68135,-0.27597 0.11286,0.14276 0.29465,0.26988 0.53435,0.33246 0.18047,-0.48487 -0.10183,-0.90166 -0.35736,-0.9511 -0.0803,-0.24616 -0.50614,-0.48474 -0.96778,-0.2767 0.0727,0.21747 0.19719,0.38165 0.33425,0.48664 -0.1502,0.14603 -0.26102,0.38579 -0.22481,0.68467 z" />
    <path
       d="m 78.722621,95.008101 c -0.555419,0.0896 -1.036561,-0.0488 -1.342229,-0.27943 -0.159551,0.29957 -0.450791,0.59341 -0.869791,0.78809 -0.492688,-0.82964 -0.113519,-1.68849 0.3389,-1.86435 0.0653,-0.47844 0.76731,-1.05812 1.683731,-0.83015 -0.0609,0.42327 -0.234701,0.76602 -0.451241,1.00434 0.32426,0.21793 0.607502,0.62098 0.64063,1.1815 z"
       style="fill:#041a08;fill-opacity:1;stroke:none;stroke-width:0.264583px;stroke-linecap:butt;stroke-linejoin:miter;stroke-opacity:1"
       id="path12464" />
    <path
       style="fill:#041a08;fill-opacity:1;stroke:none;stroke-width:0.264583px;stroke-linecap:butt;stroke-linejoin:miter;stroke-opacity:1"
       d="m 76.769602,93.827971 c -0.495771,-0.37414 -0.738122,-0.29875 -1.055852,-0.35704 0.442111,-0.11977 0.879631,-0.19714 1.28016,0.0679 z"
       id="path12466"
       sodipodi:nodetypes="cccc" />
    <path
       id="path12470"
       style="fill:#041a08;fill-opacity:1;stroke:none;stroke-width:0.264583px;stroke-linecap:butt;stroke-linejoin:miter;stroke-opacity:1"
       d="m 70.346542,101.66857 c -0.50615,-0.24564 -0.82051,-0.63528 -0.938231,-0.9997 -0.30267,0.15359 -0.709861,0.22683 -1.164658,0.14552 0.0732,-0.962119 0.876929,-1.447369 1.348287,-1.331459 0.328242,-0.35415 1.235872,-0.42542 1.855092,0.28758 -0.292942,0.311509 -0.632111,0.492239 -0.946261,0.562939 0.140261,0.36465 0.14061,0.85727 -0.154229,1.33512 z" />
    <path
       sodipodi:nodetypes="cccc"
       id="path12472"
       d="m 69.425692,99.580751 c -0.190931,-0.59104 -0.43262,-0.66852 -0.65922,-0.89874 0.430689,0.1559 0.833279,0.34388 1.00893,0.79088 z"
       style="fill:#041a08;fill-opacity:1;stroke:none;stroke-width:0.264583px;stroke-linecap:butt;stroke-linejoin:miter;stroke-opacity:1" />
    <path
       d="m 64.762101,98.541791 c -0.126439,0.36718 -0.089,0.71073 0.0318,0.94583 -0.222549,0.0732 -0.456729,0.23664 -0.638529,0.49866 0.506169,0.432889 1.135009,0.276249 1.307949,-0.0107 0.333089,0.012 0.810101,-0.397141 0.76309,-1.047291 -0.29505,-0.009 -0.548658,0.0693 -0.73628,0.18851 -0.10999,-0.24624 -0.350729,-0.486389 -0.728048,-0.574989 z"
       style="fill:#041a08;fill-opacity:1;stroke:none;stroke-width:0.264583px;stroke-linecap:butt;stroke-linejoin:miter;stroke-opacity:1"
       id="path12476" />
    <path
       style="fill:#041a08;fill-opacity:1;stroke:none;stroke-width:0.264583px;stroke-linecap:butt;stroke-linejoin:miter;stroke-opacity:1"
       d="m 65.334511,100.0092 c 0.196019,0.3813 0.116181,0.53724 0.11837,0.76021 0.133569,-0.28657 0.23777,-0.57503 0.10474,-0.878679 z"
       id="path12478"
       sodipodi:nodetypes="cccc" />
    <path
       id="path12482"
       style="fill:#041a08;fill-opacity:1;stroke:none;stroke-width:0.264583px;stroke-linecap:butt;stroke-linejoin:miter;stroke-opacity:1"
       d="m 80.37252,85.048041 c -0.126439,0.36718 -0.089,0.71073 0.0318,0.94583 -0.222549,0.0732 -0.456729,0.23664 -0.63853,0.49866 0.506172,0.43289 1.13501,0.27625 1.307949,-0.0107 0.333092,0.012 0.810102,-0.39714 0.76309,-1.04729 -0.29505,-0.009 -0.548658,0.0693 -0.736279,0.18851 -0.10999,-0.24624 -0.350729,-0.48639 -0.728049,-0.57499 z" />
    <path
       sodipodi:nodetypes="cccc"
       id="path12484"
       d="m 80.944931,86.515451 c 0.196021,0.3813 0.116181,0.53724 0.118372,0.76021 0.133569,-0.28657 0.237767,-0.57503 0.104737,-0.87868 z"
       style="fill:#041a08;fill-opacity:1;stroke:none;stroke-width:0.264583px;stroke-linecap:butt;stroke-linejoin:miter;stroke-opacity:1" />
    <path
       inkscape:export-ydpi="96"
       inkscape:export-xdpi="96"
       inkscape:export-filename="D:\Calcatz\Icon Pack\Adventure Narrative Inspired by Jumanji\Assets\PNG\Vines\05_hanging_u_vines_main_menu_left.png"
       sodipodi:nodetypes="cccccccc"
       id="path12488"
       d="m 38.957481,93.795221 c -0.92989,-0.80231 -1.49403,-0.17821 -1.80073,1.44994 0.48519,-4.12637 -0.28858,-1.22494 -0.44433,-0.77174 0.204561,-4.19175 -1.02184,-2.69507 -1.30962,-0.95883 -0.005,-2.72332 -1.43007,-3.93602 -1.80073,-1.09915 0.32285,-2.983 -0.18285,-6.58985 -1.05237,-1.70718 0.0548,-1.57417 0.15627,-3.17552 -0.5145,-4.32643 z"
       style="fill:#041a08;fill-opacity:1;stroke:none;stroke-width:0.264583px;stroke-linecap:butt;stroke-linejoin:miter;stroke-opacity:1" />
    <path
       d="m 35.780691,87.823771 a 1.122532,0.44901281 0 0 0 0.567381,0.59277 1.122532,0.44901281 0 0 0 1.482409,-0.22646 1.122532,0.44901281 0 0 0 -0.56493,-0.59315 1.122532,0.44901281 0 0 0 -1.48334,0.22548"
       style="fill:#001302;fill-opacity:1;stroke:none;stroke-width:0.79375;stroke-linecap:round;stroke-miterlimit:4;stroke-dasharray:none;stroke-opacity:1;paint-order:fill markers stroke"
       id="path12490" />
  </g>
</svg>
