<?xml version="1.0" encoding="UTF-8" standalone="no"?>
<svg
   xmlns:dc="http://purl.org/dc/elements/1.1/"
   xmlns:cc="http://creativecommons.org/ns#"
   xmlns:rdf="http://www.w3.org/1999/02/22-rdf-syntax-ns#"
   xmlns:svg="http://www.w3.org/2000/svg"
   xmlns="http://www.w3.org/2000/svg"
   xmlns:sodipodi="http://sodipodi.sourceforge.net/DTD/sodipodi-0.dtd"
   xmlns:inkscape="http://www.inkscape.org/namespaces/inkscape"
   sodipodi:docname="09_hanging_u_vines_main_menu_left_shadow.svg"
   inkscape:version="1.0 (4035a4fb49, 2020-05-01)"
   id="svg12215"
   version="1.1"
   viewBox="0 0 59.229286 26.830751"
   height="26.830751mm"
   width="59.229286mm">
  <defs
     id="defs12209">
    <filter
       height="1.0365429"
       y="-0.018271452"
       width="1.0162294"
       x="-0.0081147244"
       id="filter11377"
       style="color-interpolation-filters:sRGB"
       inkscape:collect="always">
      <feGaussianBlur
         id="feGaussianBlur11379"
         stdDeviation="0.19706399"
         inkscape:collect="always" />
    </filter>
  </defs>
  <sodipodi:namedview
     inkscape:window-maximized="1"
     inkscape:window-y="-8"
     inkscape:window-x="-8"
     inkscape:window-height="705"
     inkscape:window-width="1366"
     fit-margin-bottom="0"
     fit-margin-right="0"
     fit-margin-left="0"
     fit-margin-top="0"
     showgrid="false"
     inkscape:document-rotation="0"
     inkscape:current-layer="layer1"
     inkscape:document-units="mm"
     inkscape:cy="220.32727"
     inkscape:cx="243.73176"
     inkscape:zoom="0.33557348"
     inkscape:pageshadow="2"
     inkscape:pageopacity="0.0"
     borderopacity="1.0"
     bordercolor="#666666"
     pagecolor="#ffffff"
     id="base" />
  <metadata
     id="metadata12212">
    <rdf:RDF>
      <cc:Work
         rdf:about="">
        <dc:format>image/svg+xml</dc:format>
        <dc:type
           rdf:resource="http://purl.org/dc/dcmitype/StillImage" />
        <dc:title></dc:title>
      </cc:Work>
    </rdf:RDF>
  </metadata>
  <g
     transform="translate(-41.345972,-89.871742)"
     id="layer1"
     inkscape:groupmode="layer"
     inkscape:label="Layer 1">
    <path
       id="path12498"
       style="color:#000000;font-style:normal;font-variant:normal;font-weight:normal;font-stretch:normal;font-size:medium;line-height:normal;font-family:sans-serif;font-variant-ligatures:normal;font-variant-position:normal;font-variant-caps:normal;font-variant-numeric:normal;font-variant-alternates:normal;font-variant-east-asian:normal;font-feature-settings:normal;font-variation-settings:normal;text-indent:0;text-align:start;text-decoration:none;text-decoration-line:none;text-decoration-style:solid;text-decoration-color:#000000;letter-spacing:normal;word-spacing:normal;text-transform:none;writing-mode:lr-tb;direction:ltr;text-orientation:mixed;dominant-baseline:auto;baseline-shift:baseline;text-anchor:start;white-space:normal;shape-padding:0;shape-margin:0;inline-size:0;clip-rule:nonzero;display:inline;overflow:visible;visibility:visible;opacity:1;isolation:auto;mix-blend-mode:normal;color-interpolation:sRGB;color-interpolation-filters:linearRGB;solid-color:#000000;solid-opacity:1;vector-effect:none;fill:#000000;fill-opacity:1;fill-rule:nonzero;stroke:none;stroke-width:0.802426;stroke-linecap:butt;stroke-linejoin:miter;stroke-miterlimit:4;stroke-dasharray:none;stroke-dashoffset:0;stroke-opacity:1;filter:url(#filter11377);color-rendering:auto;image-rendering:auto;shape-rendering:auto;text-rendering:auto;enable-background:accumulate;stop-color:#000000;stop-opacity:1"
       d="m 42.422486,90.344696 -0.60356,0.52866 c 1.60729,1.92002 3.17365,3.77055 4.71598,5.53526 0.32563,1.07805 0.25197,2.39457 0.20773,3.693164 0.86952,-4.990004 1.37498,-1.304184 1.05214,1.7444 0.37065,-2.899244 1.79591,-1.65988 1.80091,1.12332 0.28779,-1.77442 1.51405,-3.303704 1.30951,0.98021 0.15573,-0.46318 0.92958,-3.4286 0.44439,0.78847 0.24122,-1.30864 0.64233,-1.97851 1.25471,-1.80779 0.98028,0.96644 1.95688,1.87636 2.93317,2.72671 -0.24009,-0.0198 -0.47474,0.0105 -0.70075,0.12993 -0.19778,-0.48815 -0.90157,-0.97663 -1.79472,-0.75416 0.0647,0.47581 0.25363,0.86183 0.4904,1.13072 -0.35756,0.24308 -0.67069,0.6945 -0.71003,1.32399 0.61007,0.10367 1.13972,-0.0494 1.47693,-0.30682 0.1738,0.33737 0.49231,0.66893 0.95186,0.88988 0.47197,-0.80355 0.22717,-1.63389 -0.16846,-1.97359 0.26985,-0.18568 0.46839,-0.24358 0.64905,-0.26934 1.97467,1.70332 3.94965,3.14855 5.95469,4.28044 -0.1491,0.003 -0.29041,0.0337 -0.41238,0.13096 -0.002,-0.003 -0.002,-0.006 -0.004,-0.008 -0.14163,-0.21229 -0.51798,-0.37564 -0.92191,-0.1896 0.0727,0.22224 0.1973,0.39018 0.33435,0.4975 -0.1502,0.14924 -0.26101,0.39431 -0.22479,0.69975 0.28421,-0.006 0.51062,-0.11557 0.65267,-0.25718 0.1156,0.15113 0.24787,0.26867 0.38394,0.34275 -0.16476,0.22311 -0.26397,0.57425 -0.19997,0.97967 0.40031,-0.0242 0.68821,-0.23123 0.84386,-0.46793 0.17021,0.15807 0.41497,0.2851 0.71729,0.32956 0.14422,-0.59256 -0.16405,-1.0604 -0.47387,-1.19303 0.0729,-0.14193 0.0922,-0.29015 0.0842,-0.441 1.28329,0.66862 2.5798,1.20827 3.89848,1.59707 0.51049,0.50664 0.90514,1.22015 0.69297,3.01928 0.7166,-0.73588 1.43317,-0.93123 2.14974,1.01399 0.12047,-1.8822 2.16001,-3.41882 3.00964,-1.04779 0.18131,-1.31499 0.74781,-2.27177 1.31363,-2.41143 0.0446,-0.006 0.0892,-0.0128 0.13382,-0.019 1.9e-4,-2e-5 3.5e-4,3e-5 5.3e-4,0 0.6077,-0.007 1.17922,0.98082 1.23092,3.54582 0.62839,-2.26499 0.92604,-5.65382 1.88516,-0.54079 0.41071,-3.56167 1.26873,-1.6743 1.62057,0.20279 0.0162,-2.92062 1.03563,-4.33744 2.20194,-5.5342 0.65064,-0.34154 1.30839,-0.71904 1.97353,-1.13546 0.27107,-0.16973 0.54435,-0.35 0.81804,-0.53236 0.064,0.0916 0.12515,0.21124 0.18293,0.36758 -0.46863,0.0389 -1.0777,0.5225 -1.14101,1.37311 0.45479,0.0831 0.86159,0.008 1.16427,-0.14839 0.11771,0.37242 0.43227,0.77034 0.93842,1.02138 0.29485,-0.48834 0.29427,-0.99148 0.15402,-1.36414 0.31414,-0.0723 0.65325,-0.25729 0.94617,-0.57565 -0.54824,-0.64517 -1.32167,-0.66145 -1.71979,-0.4056 -0.083,-0.16413 -0.1978,-0.29116 -0.33433,-0.39292 2.15144,-1.4536 4.38677,-3.30747 6.72362,-5.58649 0.15539,0.0266 0.32824,0.0852 0.55655,0.24401 -0.36155,0.30705 -0.58838,1.06069 -0.16227,1.79401 0.419,-0.19896 0.71017,-0.49923 0.86972,-0.80538 0.30567,0.2357 0.78713,0.37674 1.34254,0.28518 -0.0331,-0.57284 -0.31652,-0.98457 -0.64076,-1.20727 0.21653,-0.24357 0.39023,-0.59413 0.45114,-1.02668 -0.81159,-0.20634 -1.45413,0.23489 -1.63608,0.67811 -0.19846,-0.10611 -0.40489,-0.1361 -0.616,-0.12252 0.50919,-0.5 1.02182,-1.01503 1.54101,-1.55639 0.14449,0.0693 0.24749,0.22275 0.30694,0.46581 0.17256,-0.64322 0.17503,-1.877064 0.93536,-0.47795 0.34319,-2.559554 1.13226,-0.4708 1.30998,0.62159 -0.017,-4.997134 1.68629,-4.994274 2.19831,-2.820694 -0.15298,-1.41923 -0.003,-2.54605 0.26512,-3.48405 1.0051,-1.22796 2.02718,-2.52123 3.071654,-3.89807 l -0.626854,-0.49697 c -1.40909,1.85753 -2.77805,3.56662 -4.11345,5.14973 0.0584,-0.18071 0.0831,-0.36348 0.0238,-0.55188 0.31647,-0.074 0.68554,-0.46814 0.64389,-1.05678 -0.29506,-0.009 -0.54877,0.071 -0.73638,0.19277 -0.10999,-0.25167 -0.35081,-0.49726 -0.72814,-0.58779 -0.12644,0.37523 -0.0887,0.72671 0.032,0.96696 -0.22254,0.0748 -0.4569,0.24187 -0.6387,0.50966 0.43775,0.38261 0.96636,0.31384 1.21335,0.0987 0.10978,0.24731 0.10338,0.39785 0.092,0.54399 -4.78343,5.654724 -9.11196,9.594964 -13.101,12.092454 -0.7988,0.50009 -1.58224,0.93635 -2.35437,1.32452 0.008,-0.097 -0.002,-0.19515 -0.0331,-0.29468 0.31636,-0.0744 0.68551,-0.46799 0.64389,-1.05626 -0.29507,-0.009 -0.54877,0.071 -0.73639,0.19277 -0.10999,-0.25166 -0.35081,-0.49727 -0.72813,-0.5878 -0.12645,0.37524 -0.0887,0.72673 0.032,0.96698 -0.22254,0.0748 -0.45691,0.24187 -0.63871,0.50964 0.43776,0.38261 0.96637,0.31386 1.21336,0.0987 0.0444,0.10005 0.0659,0.18113 0.079,0.25508 -4.11919,2.03327 -7.88056,2.51175 -11.48765,1.79879 -2.36257,-0.46698 -4.66685,-1.45764 -6.95566,-2.86929 0.0257,-0.0616 0.06,-0.12844 0.1106,-0.20437 0.21452,0.26399 0.7411,0.42939 1.25365,0.1183 -0.13904,-0.30585 -0.34878,-0.51838 -0.56274,-0.63481 0.16475,-0.22311 0.26347,-0.57426 0.19947,-0.97967 -0.40035,0.0242 -0.68824,0.23123 -0.84389,0.4679 -0.17021,-0.15805 -0.41495,-0.28507 -0.71726,-0.32953 -0.14433,0.5929 0.16436,1.06127 0.4744,1.19354 -0.0446,0.0868 -0.0724,0.17558 -0.0832,0.26618 -1.85639,-1.1622 -3.70321,-2.60154 -5.56297,-4.26827 0.23821,-0.0497 0.45617,-0.14696 0.63667,-0.33169 0.31157,0.37717 1.07339,0.60763 1.8066,0.15051 -0.18973,-0.40475 -0.4654,-0.69335 -0.75086,-0.864 0.25077,-0.32009 0.40439,-0.81246 0.26458,-1.3842 -0.57181,0.0847 -1.00073,0.37432 -1.22938,0.70134 -0.24839,-0.24988 -0.62407,-0.45263 -1.0945,-0.51598 -0.19704,0.85248 0.25199,1.51961 0.69865,1.70689 -0.17457,0.22561 -0.32543,0.33706 -0.46868,0.41196 -1.99469,-1.79899 -4.00582,-3.85876 -6.05959,-6.113054 0.23601,-0.004 0.45998,-0.0549 0.65939,-0.20332 0.2244,0.38024 0.86855,0.6952 1.58338,0.39504 -0.0949,-0.32616 -0.2571,-0.58299 -0.44289,-0.77265 a 1.122532,0.45888265 0 0 0 0.95448,-0.14893 1.122532,0.45888265 0 0 0 -0.56483,-0.60629 1.122532,0.45888265 0 0 0 -0.11731,0.018 c 10e-4,-0.005 0.003,-0.009 0.005,-0.0137 0.0435,-0.16345 0.0619,-0.34595 0.045,-0.54399 -0.519661,-0.007 -0.940691,0.18828 -1.189061,0.44575 -0.18608,-0.25789 -0.4916,-0.49258 -0.90072,-0.61686 -0.293,0.72882 0.0136,1.38618 0.38447,1.61713 -0.2095,0.19712 -0.37198,0.26931 -0.52399,0.31371 -2.18548,-2.40436 -4.42012,-5.02763 -6.73862,-7.79722 z m 19.34972,19.811504 c 0.18947,0.10604 0.37944,0.21072 0.56949,0.31107 -0.023,0.0966 -0.0665,0.20488 -0.15658,0.3401 -0.0285,-0.0352 -0.0614,-0.0691 -0.10025,-0.0997 -0.12472,-0.0986 -0.29866,-0.16888 -0.49609,-0.1838 0,0 0,-5.4e-4 0,-5.4e-4 -0.049,-0.0685 -0.10684,-0.12116 -0.16693,-0.15632 0.14023,-0.1395 0.24744,-0.18122 0.35036,-0.21072 z"
       inkscape:export-filename="D:\Calcatz\Icon Pack\Adventure Narrative Inspired by Jumanji\Assets\PNG\Plant\26_hanging_u_vines_main_menu_left_shadow.png"
       inkscape:export-xdpi="96"
       inkscape:export-ydpi="96" />
  </g>
</svg>
