<?xml version="1.0" encoding="UTF-8" standalone="no"?>
<svg
   xmlns:dc="http://purl.org/dc/elements/1.1/"
   xmlns:cc="http://creativecommons.org/ns#"
   xmlns:rdf="http://www.w3.org/1999/02/22-rdf-syntax-ns#"
   xmlns:svg="http://www.w3.org/2000/svg"
   xmlns="http://www.w3.org/2000/svg"
   xmlns:sodipodi="http://sodipodi.sourceforge.net/DTD/sodipodi-0.dtd"
   xmlns:inkscape="http://www.inkscape.org/namespaces/inkscape"
   sodipodi:docname="10_hanging_vines_main_menu_left.svg"
   inkscape:version="1.0 (4035a4fb49, 2020-05-01)"
   id="svg12805"
   version="1.1"
   viewBox="0 0 48.542973 86.476555"
   height="86.476555mm"
   width="48.542973mm">
  <defs
     id="defs12799" />
  <sodipodi:namedview
     inkscape:window-maximized="1"
     inkscape:window-y="-8"
     inkscape:window-x="-8"
     inkscape:window-height="705"
     inkscape:window-width="1366"
     fit-margin-bottom="0"
     fit-margin-right="0"
     fit-margin-left="0"
     fit-margin-top="0"
     showgrid="false"
     inkscape:document-rotation="0"
     inkscape:current-layer="layer1"
     inkscape:document-units="mm"
     inkscape:cy="112.37543"
     inkscape:cx="174.51411"
     inkscape:zoom="1.8982902"
     inkscape:pageshadow="2"
     inkscape:pageopacity="0.0"
     borderopacity="1.0"
     bordercolor="#666666"
     pagecolor="#ffffff"
     id="base" />
  <metadata
     id="metadata12802">
    <rdf:RDF>
      <cc:Work
         rdf:about="">
        <dc:format>image/svg+xml</dc:format>
        <dc:type
           rdf:resource="http://purl.org/dc/dcmitype/StillImage" />
        <dc:title></dc:title>
      </cc:Work>
    </rdf:RDF>
  </metadata>
  <g
     transform="translate(-36.439262,-62.414194)"
     id="layer1"
     inkscape:groupmode="layer"
     inkscape:label="Layer 1">
    <path
       inkscape:export-ydpi="96"
       inkscape:export-xdpi="96"
       inkscape:export-filename="D:\Calcatz\Icon Pack\Adventure Narrative Inspired by Jumanji\Assets\PNG\Vines\06_hanging_vines_main_menu_left.png"
       sodipodi:nodetypes="ccccccc"
       id="path12030"
       d="m 61.979412,62.414194 -2.38086,0.041 1.4961,86.435556 c 0.55209,-0.10185 1.09563,-0.2407 1.38867,-1.46512 l -0.1842,-22.66096 c 0.78747,0.0929 0.693241,-0.85762 0.73662,-1.32363 z"
       style="color:#000000;font-style:normal;font-variant:normal;font-weight:normal;font-stretch:normal;font-size:medium;line-height:normal;font-family:sans-serif;font-variant-ligatures:normal;font-variant-position:normal;font-variant-caps:normal;font-variant-numeric:normal;font-variant-alternates:normal;font-variant-east-asian:normal;font-feature-settings:normal;font-variation-settings:normal;text-indent:0;text-align:start;text-decoration:none;text-decoration-line:none;text-decoration-style:solid;text-decoration-color:#000000;letter-spacing:normal;word-spacing:normal;text-transform:none;writing-mode:lr-tb;direction:ltr;text-orientation:mixed;dominant-baseline:auto;baseline-shift:baseline;text-anchor:start;white-space:normal;shape-padding:0;shape-margin:0;inline-size:0;clip-rule:nonzero;display:inline;overflow:visible;visibility:visible;opacity:1;isolation:auto;mix-blend-mode:normal;color-interpolation:sRGB;color-interpolation-filters:linearRGB;solid-color:#000000;solid-opacity:1;vector-effect:none;fill:#041a08;fill-opacity:1;fill-rule:nonzero;stroke:none;stroke-width:2.38125;stroke-linecap:butt;stroke-linejoin:miter;stroke-miterlimit:4;stroke-dasharray:none;stroke-dashoffset:0;stroke-opacity:1;color-rendering:auto;image-rendering:auto;shape-rendering:auto;text-rendering:auto;enable-background:accumulate;stop-color:#000000;stop-opacity:1" />
    <path
       sodipodi:nodetypes="ccc"
       id="path12032"
       d="m 65.441252,86.827424 c -1.014209,1.85983 -3.12258,0.36655 -4.56108,-2.74632 2.136911,0.63403 4.509801,0.2776 4.56108,2.74632 z"
       style="fill:#041a08;fill-opacity:1;stroke:none;stroke-width:0.264586px;stroke-linecap:butt;stroke-linejoin:miter;stroke-opacity:1" />
    <path
       sodipodi:nodetypes="ccccccc"
       d="m 60.880172,84.081104 c 1.28426,2.7791 3.139471,4.16207 4.121559,2.74187 -0.458928,-0.14609 -1.522098,-0.88772 -1.934498,-1.35438 0.5774,0.40197 1.692759,1.15603 2.05464,1.17251 0.0011,-0.002 0.0011,-0.003 0.003,-0.004 -0.0477,-2.29713 -2.255761,-1.96573 -4.244141,-2.55568 z"
       style="fill:#041a08;fill-opacity:1;stroke:none;stroke-width:0.264586px;stroke-linecap:butt;stroke-linejoin:miter;stroke-opacity:1"
       id="path12034" />
    <path
       style="fill:#041a08;fill-opacity:1;fill-rule:nonzero;stroke:none;stroke-width:0.264586px;stroke-linecap:butt;stroke-linejoin:miter;stroke-opacity:1"
       d="m 66.325553,86.894874 c -0.01291,-9.26e-4 -0.0326,-0.005 -0.0574,-0.01 v 0 c -0.02331,-0.005 -0.0386,-0.008 -0.0707,-0.0138 v 0 c -0.0479,-0.009 -0.11548,-0.0219 -0.19853,-0.0396 v 0 c -0.174728,-0.0373 -0.46804,-0.116099 -0.65917,-0.16083 v 0 c -0.0275,-0.006 -0.143251,0.0879 -0.174051,0.0801 0.0308,0.008 0.0913,0.14528 0.119761,0.15194 v 0 c 0.230561,0.0539 0.503121,0.0774 0.706631,0.0579 v 0 c 0.0918,-0.009 0.157991,-0.0244 0.207409,-0.0379 v 0 c 0.028,-0.008 0.0504,-0.0144 0.0692,-0.0194 v 0 c 0.0249,-0.007 0.043,-0.01 0.0569,-0.009 z"
       id="path12036"
       sodipodi:nodetypes="cc" />
    <path
       style="fill:#041a08;fill-opacity:1;stroke:none;stroke-width:0.264586px;stroke-linecap:butt;stroke-linejoin:miter;stroke-opacity:1"
       d="m 62.908562,100.10276 c -0.89905,-1.235825 0.725879,-2.148886 3.199641,-2.124825 -1.07359,1.19716 -1.574422,2.854185 -3.199641,2.124825 z"
       id="path12042"
       sodipodi:nodetypes="ccc" />
    <path
       id="path12044"
       style="fill:#041a08;fill-opacity:1;stroke:none;stroke-width:0.264586px;stroke-linecap:butt;stroke-linejoin:miter;stroke-opacity:1"
       d="m 66.108203,97.977935 c -2.20852,-0.02151 -3.683311,0.76063 -3.060931,1.83968 0.237041,-0.25404 1.04902,-0.717981 1.480659,-0.842632 -0.440449,0.252201 -1.27666,0.746321 -1.39922,0.977141 7.94e-4,0.0011 0.0011,0.0021 0.0021,0.003 1.51226,0.678656 1.978472,-0.863169 2.97743,-1.977121 z"
       sodipodi:nodetypes="ccccccc" />
    <path
       sodipodi:nodetypes="cc"
       id="path12049"
       d="m 62.591362,100.65839 c 0.005,-0.008 0.0132,-0.0197 0.0241,-0.0344 v 0 c 0.0105,-0.0141 0.0166,-0.0224 0.0308,-0.0419 v 0 c 0.0208,-0.0284 0.0499,-0.0684 0.0872,-0.11713 v 0 c 0.0783,-0.10236 0.220398,-0.26923 0.308618,-0.38 v 0 c 0.0127,-0.016 -0.01299,-0.120564 0.0021,-0.138225 -0.0146,0.0177 -0.12292,0.01461 -0.136049,0.0311 v 0 c -0.1064,0.133605 -0.20599,0.304075 -0.25617,0.442745 v 0 c -0.0226,0.0626 -0.0329,0.11053 -0.0394,0.14691 v 0 c -0.004,0.0206 -0.006,0.0373 -0.009,0.0511 v 0 c -0.003,0.0183 -0.007,0.031 -0.0119,0.0397 z"
       style="fill:#041a08;fill-opacity:1;fill-rule:nonzero;stroke:none;stroke-width:0.264586px;stroke-linecap:butt;stroke-linejoin:miter;stroke-opacity:1" />
    <path
       style="fill:#041a08;fill-opacity:1;stroke:none;stroke-width:0.264586px;stroke-linecap:butt;stroke-linejoin:miter;stroke-opacity:1"
       d="m 60.477742,109.07721 c -1.08307,1.07821 -2.23489,-0.38719 -2.59109,-2.83528 1.34786,0.87695 3.06215,1.11731 2.59109,2.83528 z"
       id="path12055"
       sodipodi:nodetypes="ccc" />
    <path
       id="path12057"
       style="fill:#041a08;fill-opacity:1;stroke:none;stroke-width:0.264586px;stroke-linecap:butt;stroke-linejoin:miter;stroke-opacity:1"
       d="m 57.886652,106.24193 c 0.31801,2.1856 1.31737,3.52276 2.28801,2.74202 -0.28743,-0.19521 -0.87059,-0.92629 -1.06006,-1.33366 0.31687,0.39649 0.93356,1.14688 1.18047,1.23252 9.79e-4,-0.001 0.002,-0.002 0.003,-0.002 0.43832,-1.59855 -1.15682,-1.8224 -2.41099,-2.63839 z"
       sodipodi:nodetypes="ccccccc" />
    <path
       sodipodi:nodetypes="cc"
       id="path12059"
       d="m 61.075502,109.30529 c -0.009,-0.003 -0.0215,-0.01 -0.0377,-0.0185 v 0 c -0.0158,-0.008 -0.0246,-0.0128 -0.0461,-0.024 v 0 c -0.0313,-0.0162 -0.0753,-0.0388 -0.12914,-0.0682 v 0 c -0.11318,-0.0617 -0.29989,-0.17645 -0.42291,-0.24661 v 0 c -0.0177,-0.0101 -0.11712,0.0314 -0.13681,0.0197 0.0197,0.0117 0.0333,0.11921 0.0517,0.12965 v 0 c 0.14834,0.0846 0.33209,0.15683 0.47681,0.18513 v 0 c 0.0653,0.0128 0.11428,0.0156 0.15124,0.0164 v 0 c 0.0209,5.3e-4 0.0378,2.7e-4 0.0518,8e-4 v 0 c 0.0186,5.3e-4 0.0317,0.002 0.0411,0.006 z"
       style="fill:#041a08;fill-opacity:1;fill-rule:nonzero;stroke:none;stroke-width:0.264586px;stroke-linecap:butt;stroke-linejoin:miter;stroke-opacity:1" />
    <path
       inkscape:export-ydpi="96"
       inkscape:export-xdpi="96"
       inkscape:export-filename="D:\Calcatz\Icon Pack\Adventure Narrative Inspired by Jumanji\Assets\PNG\Vines\06_hanging_vines_main_menu_left.png"
       id="path12069"
       d="m 66.893034,66.187934 -0.168212,0.46842 -0.168129,0.4682 c -1.279261,-0.46018 -2.72342,-0.48486 -4.017661,-0.0687 -1.2947,0.41474 -2.45475,1.27526 -3.22725,2.39398 -0.77376,1.11784 -1.16909,2.50706 -1.09981,3.8648 0,0 0,0 0,0 0.0678,1.35783 0.60092,2.70019 1.48328,3.73446 1.10798,1.32693 2.80848,2.14982 4.35659,3.29399 0.778759,0.56755 1.524702,1.23604 2.103451,2.06675 8e-6,0 8e-6,0 8e-6,0 0.58307,0.83325 0.956141,1.85009 0.934651,2.9136 -0.0449,1.15431 -0.54212,2.21533 -1.224669,3.06481 v 0 c -0.675351,0.8483 -1.49048,1.52408 -2.280041,2.16217 v 0 c -0.78543,0.642239 -1.55719,1.260121 -2.15423,1.993101 -0.0909,0.112819 -0.17851,0.228489 -0.26186,0.346639 -0.44805,0.635079 -0.78681,1.360209 -0.82912,2.110121 0,0 0,0 0,0 -0.0544,0.680029 0.13281,1.395838 0.44032,2.081299 0.30452,0.672 0.73881,1.302639 1.2048,1.95834 0.45513,0.635249 0.94831,1.301586 1.35702,2.039926 0.40741,0.73021 0.72163,1.55803 0.797031,2.44744 0.0718,0.9962 -0.165161,1.97125 -0.558102,2.84761 -0.386289,0.86818 -0.896009,1.64569 -1.402899,2.40062 -0.50076,0.751 -1.0003,1.48488 -1.36718,2.26499 -0.36378,0.77948 -0.61269,1.6113 -0.58532,2.43313 0,0 0,0 0,0 0.0171,0.8394 0.32353,1.67649 0.73906,2.452 0.4205,0.77921 0.9721,1.51017 1.50607,2.2562 0.545529,0.75768 1.075601,1.54129 1.452341,2.41867 0.385299,0.892 0.579541,1.88264 0.428419,2.85011 -0.12372,0.74894 -0.445688,1.43362 -0.84327,2.03241 -0.40268,0.60862 -0.88195,1.14945 -1.34309,1.66418 -0.47672,0.53396 -0.93499,1.04208 -1.31737,1.60301 -0.39038,0.57447 -0.69541,1.18895 -0.8197,1.83626 -0.16237,0.82093 -0.0297,1.6808 0.2532,2.4467 0.29794,0.80514 0.77178,1.53443 1.27627,2.1864 1.1308,1.45828 2.43461,2.66192 3.243309,4.02816 0,0 0,0 0,0 0.77656,1.31414 1.10467,2.68556 1.15892,3.87146 0.0735,1.60756 -0.339439,2.90368 -0.690089,3.70582 0.368311,-0.86323 0.731819,-2.13927 0.62969,-3.70248 -0.0774,-1.18477 -0.43511,-2.53059 -1.22279,-3.79955 0,0 0,0 0,0 -0.824291,-1.33034 -2.14134,-2.48557 -3.32281,-3.94175 -0.53026,-0.6522 -1.03446,-1.39382 -1.36924,-2.23396 -0.31983,-0.80137 -0.47985,-1.71823 -0.32562,-2.62834 0.12511,-0.7158 0.43598,-1.38873 0.83828,-2.00255 0.39173,-0.59954 0.85145,-1.13433 1.31665,-1.67661 0.44833,-0.52445 0.90264,-1.05735 1.26463,-1.634 0.354761,-0.56741 0.636381,-1.19023 0.724241,-1.83827 0.12191,-0.83459 -0.0788,-1.71167 -0.43888,-2.52206 -0.357621,-0.79964 -0.878421,-1.53094 -1.428901,-2.27162 -0.5432,-0.72653 -1.12309,-1.46985 -1.59543,-2.30166 -0.47327,-0.82818 -0.8265,-1.7681 -0.87631,-2.7708 0,0 0,-1e-5 0,-1e-5 -0.0381,-0.98243 0.21961,-1.93927 0.61521,-2.79993 0.39244,-0.85993 0.90083,-1.63803 1.39133,-2.39232 0.49111,-0.76059 0.9671,-1.50187 1.2993,-2.28702 0.331281,-0.79014 0.533251,-1.62323 0.455019,-2.41811 -0.0586,-0.71108 -0.342569,-1.4105 -0.706209,-2.06514 -0.37062,-0.66137 -0.84947,-1.29214 -1.31521,-1.935205 -0.48146,-0.659511 -0.95202,-1.341691 -1.31261,-2.11128 -0.37183,-0.787 -0.59172,-1.66343 -0.5388,-2.55937 0,0 0,0 0,0 0.0758,-0.985271 0.47262,-1.879549 1.0019,-2.62179 0.0983,-0.137869 0.20163,-0.27118 0.30901,-0.399579 0.68968,-0.83244 1.50842,-1.497042 2.295161,-2.133283 0,0 0,0 0,0 0.782608,-0.640389 1.54664,-1.264319 2.12675,-2.006639 0,0 0,0 0,0 0.572608,-0.74076 0.998598,-1.60566 1.01106,-2.47645 0.0313,-0.80002 -0.283181,-1.61905 -0.75896,-2.32017 -0.48033,-0.70398 -1.149641,-1.29355 -1.873591,-1.82998 -1.45737,-1.06384 -3.21395,-1.9389 -4.52484,-3.45052 -1.02713,-1.20651 -1.63912,-2.74731 -1.71974,-4.32977 0,0 0,0 0,0 -0.0791,-1.58253 0.37468,-3.17712 1.27513,-4.4809 0.90171,-1.30292 2.23324,-2.29065 3.74171,-2.77561 1.508939,-0.48351 3.166591,-0.45518 4.658132,0.0796 z"
       style="fill:#041a08;fill-opacity:1;stroke:none;stroke-width:0.264583px;stroke-linecap:butt;stroke-linejoin:miter;stroke-opacity:1" />
    <path
       style="fill:#041a08;fill-opacity:1;stroke:none;stroke-width:0.264586px;stroke-linecap:butt;stroke-linejoin:miter;stroke-opacity:1"
       d="m 65.239901,88.878134 c 1.678781,-1.29201 3.004762,0.925391 3.063981,4.354049 -1.699001,-1.442818 -4.01379,-2.074788 -3.063981,-4.354049 z"
       id="path12079"
       sodipodi:nodetypes="ccc" />
    <path
       id="path12082"
       style="fill:#041a08;fill-opacity:1;stroke:none;stroke-width:0.264586px;stroke-linecap:butt;stroke-linejoin:miter;stroke-opacity:1"
       d="m 68.303882,93.232183 c -0.0529,-3.061028 -1.191779,-5.075299 -2.663669,-4.172519 0.360878,0.31895 1.034119,1.426689 1.222989,2.020131 -0.365951,-0.600871 -1.081911,-1.741061 -1.406329,-1.902261 -0.0021,0.0011 -0.0021,0.0021 -0.004,0.003 -0.88379,2.12084 1.27008,2.709141 2.850992,4.05166 z"
       sodipodi:nodetypes="ccccccc" />
    <path
       sodipodi:nodetypes="cc"
       id="path12084"
       d="m 64.458123,88.459394 c 0.0114,0.006 0.0279,0.0176 0.0486,0.0321 v 0 c 0.02011,0.0141 0.0316,0.022 0.0592,0.0411 v 0 c 0.0401,0.0277 0.0967,0.0666 0.165578,0.11642 v 0 c 0.144751,0.10472 0.38127,0.29534 0.53807,0.413439 v 0 c 0.0226,0.01701 0.166571,-0.02259 0.191583,-0.003 -0.025,-0.0196 -0.0249,-0.16977 -0.0482,-0.187361 v 0 c -0.189101,-0.14241 -0.42903,-0.27406 -0.623038,-0.3384 v 0 c -0.0876,-0.029 -0.154393,-0.0415 -0.205053,-0.0491 v 0 c -0.0287,-0.004 -0.052,-0.007 -0.0711,-0.0102 v 0 c -0.0254,-0.004 -0.0432,-0.008 -0.0555,-0.015 z"
       style="fill:#041a08;fill-opacity:1;fill-rule:nonzero;stroke:none;stroke-width:0.264586px;stroke-linecap:butt;stroke-linejoin:miter;stroke-opacity:1" />
    <path
       id="path11516"
       d="m 56.156022,63.175714 -1.58789,0.0137 0.5625,61.740246 1.58789,-0.0156 z"
       style="color:#000000;font-style:normal;font-variant:normal;font-weight:normal;font-stretch:normal;font-size:medium;line-height:normal;font-family:sans-serif;font-variant-ligatures:normal;font-variant-position:normal;font-variant-caps:normal;font-variant-numeric:normal;font-variant-alternates:normal;font-variant-east-asian:normal;font-feature-settings:normal;font-variation-settings:normal;text-indent:0;text-align:start;text-decoration:none;text-decoration-line:none;text-decoration-style:solid;text-decoration-color:#000000;letter-spacing:normal;word-spacing:normal;text-transform:none;writing-mode:lr-tb;direction:ltr;text-orientation:mixed;dominant-baseline:auto;baseline-shift:baseline;text-anchor:start;white-space:normal;shape-padding:0;shape-margin:0;inline-size:0;clip-rule:nonzero;display:inline;overflow:visible;visibility:visible;opacity:1;isolation:auto;mix-blend-mode:normal;color-interpolation:sRGB;color-interpolation-filters:linearRGB;solid-color:#000000;solid-opacity:1;vector-effect:none;fill:#001302;fill-opacity:1;fill-rule:nonzero;stroke:none;stroke-width:1.5875;stroke-linecap:butt;stroke-linejoin:miter;stroke-miterlimit:4;stroke-dasharray:none;stroke-dashoffset:0;stroke-opacity:1;color-rendering:auto;image-rendering:auto;shape-rendering:auto;text-rendering:auto;enable-background:accumulate;stop-color:#000000;stop-opacity:1" />
    <path
       sodipodi:nodetypes="ccc"
       id="path12094"
       d="m 64.301554,89.436344 c 1.518528,-0.17222 1.510948,1.69165 0.269449,3.83145 -0.51157,-1.5245 -1.705731,-2.77771 -0.269449,-3.83145 z"
       style="fill:#041a08;fill-opacity:1;stroke:none;stroke-width:0.264586px;stroke-linecap:butt;stroke-linejoin:miter;stroke-opacity:1" />
    <path
       sodipodi:nodetypes="ccccccc"
       d="m 64.571003,93.267794 c 1.108379,-1.910369 1.155779,-3.57904 -0.0899,-3.5701 0.104,0.33152 0.1069,1.26669 0.0021,1.703631 -0.0021,-0.50755 -0.01921,-1.478672 -0.15953,-1.69917 -0.0011,1.4e-4 -0.0021,2.41e-4 -0.004,1.29e-4 -1.33646,0.980501 -0.225409,2.146761 0.2506,3.565279 z"
       style="fill:#041a08;fill-opacity:1;stroke:none;stroke-width:0.264586px;stroke-linecap:butt;stroke-linejoin:miter;stroke-opacity:1"
       id="path12099" />
    <path
       style="fill:#041a08;fill-opacity:1;fill-rule:nonzero;stroke:none;stroke-width:0.264586px;stroke-linecap:butt;stroke-linejoin:miter;stroke-opacity:1"
       d="m 63.974772,88.886294 c 0.005,0.008 0.01061,0.0213 0.0181,0.0379 v 0 c 0.007,0.01619 0.0113,0.0254 0.02119,0.0474 v 0 c 0.0145,0.0321 0.0349,0.0772 0.0589,0.133628 v 0 c 0.0504,0.118652 0.12541,0.324541 0.17824,0.455941 v 0 c 0.008,0.01889 0.111302,0.0481 0.119441,0.0696 -0.008,-0.0214 0.0479,-0.114131 0.0401,-0.133691 v 0 c -0.0637,-0.158449 -0.16283,-0.3292 -0.258681,-0.441249 v 0 c -0.0433,-0.0506 -0.0799,-0.0832 -0.108328,-0.106801 v 0 c -0.01611,-0.01339 -0.0294,-0.02381 -0.0401,-0.0328 v 0 c -0.01421,-0.01198 -0.0235,-0.0213 -0.0287,-0.0299 z"
       id="path12102"
       sodipodi:nodetypes="cc" />
    <path
       id="path11521"
       d="m 65.271262,64.843684 a 0.396875,0.396875 0 0 0 -0.388681,0.40429 l 0.748051,38.728516 a 0.396875,0.396875 0 0 0 0.4043,0.38867 0.396875,0.396875 0 0 0 0.38867,-0.40429 L 65.675553,65.232354 a 0.396875,0.396875 0 0 0 -0.404291,-0.38867 z"
       style="color:#000000;font-style:normal;font-variant:normal;font-weight:normal;font-stretch:normal;font-size:medium;line-height:normal;font-family:sans-serif;font-variant-ligatures:normal;font-variant-position:normal;font-variant-caps:normal;font-variant-numeric:normal;font-variant-alternates:normal;font-variant-east-asian:normal;font-feature-settings:normal;font-variation-settings:normal;text-indent:0;text-align:start;text-decoration:none;text-decoration-line:none;text-decoration-style:solid;text-decoration-color:#000000;letter-spacing:normal;word-spacing:normal;text-transform:none;writing-mode:lr-tb;direction:ltr;text-orientation:mixed;dominant-baseline:auto;baseline-shift:baseline;text-anchor:start;white-space:normal;shape-padding:0;shape-margin:0;inline-size:0;clip-rule:nonzero;display:inline;overflow:visible;visibility:visible;opacity:1;isolation:auto;mix-blend-mode:normal;color-interpolation:sRGB;color-interpolation-filters:linearRGB;solid-color:#000000;solid-opacity:1;vector-effect:none;fill:#001302;fill-opacity:1;fill-rule:nonzero;stroke:none;stroke-width:0.79375;stroke-linecap:round;stroke-linejoin:miter;stroke-miterlimit:4;stroke-dasharray:none;stroke-dashoffset:0;stroke-opacity:1;color-rendering:auto;image-rendering:auto;shape-rendering:auto;text-rendering:auto;enable-background:accumulate;stop-color:#000000;stop-opacity:1" />
    <path
       inkscape:export-ydpi="96"
       inkscape:export-xdpi="96"
       inkscape:export-filename="D:\Calcatz\Icon Pack\Adventure Narrative Inspired by Jumanji\Assets\PNG\Vines\06_hanging_vines_main_menu_left.png"
       sodipodi:nodetypes="ccccccccc"
       id="path12114"
       d="m 55.128942,124.64119 c 0.0872,2.47417 -0.0495,5.20496 0.28063,7.85772 0.0605,-1.80153 -0.079,-7.5751 0.65481,-4.81754 -0.095,-2.07868 0.1174,-2.95989 0.70158,-0.6548 -0.0559,-5.26982 0.17418,-2.99764 0.46772,-2.38538 -0.18362,-1.55946 -0.6925,-4.49961 0.32741,-2.54909 -0.44975,-1.40616 -1.01743,-5.39549 -0.23386,-4.7006 -0.90008,-1.55053 -0.72227,-2.33553 -1.07576,-3.27405 z"
       style="fill:#001302;fill-opacity:1;stroke:none;stroke-width:0.264583px;stroke-linecap:butt;stroke-linejoin:miter;stroke-opacity:1" />
    <path
       style="fill:#041a08;fill-opacity:1;stroke:none;stroke-width:0.264586px;stroke-linecap:butt;stroke-linejoin:miter;stroke-opacity:1"
       d="m 59.999062,92.412353 c -0.73168,1.341721 -2.25271,0.264441 -3.29047,-1.98125 1.54161,0.457391 3.25347,0.200261 3.29047,1.98125 z"
       id="path12121"
       sodipodi:nodetypes="ccc" />
    <path
       id="path12124"
       style="fill:#041a08;fill-opacity:1;stroke:none;stroke-width:0.264586px;stroke-linecap:butt;stroke-linejoin:miter;stroke-opacity:1"
       d="m 56.708592,90.431103 c 0.9265,2.004901 2.26488,3.002611 2.97339,1.978041 -0.33108,-0.105389 -1.09808,-0.640419 -1.3956,-0.97708 0.41655,0.289991 1.2212,0.833991 1.48227,0.845881 6.62e-4,-0.0011 10e-4,-0.0021 0.002,-0.003 -0.0344,-1.657199 -1.62736,-1.418129 -3.06181,-1.84373 z"
       sodipodi:nodetypes="ccccccc" />
    <path
       sodipodi:nodetypes="cc"
       id="path12127"
       d="m 60.637012,92.461016 c -0.009,-5.3e-4 -0.0235,-0.004 -0.0414,-0.007 v 0 c -0.0171,-0.003 -0.0275,-0.005 -0.051,-0.01 v 0 c -0.0345,-0.007 -0.0833,-0.0158 -0.1432,-0.0286 v 0 c -0.12605,-0.0269 -0.33766,-0.0838 -0.47555,-0.116091 v 0 c -0.0199,-0.005 -0.10335,0.0634 -0.12557,0.0578 0.0222,0.006 0.0659,0.104809 0.0864,0.109609 v 0 c 0.16631,0.0389 0.36298,0.0559 0.50978,0.0418 v 0 c 0.0662,-0.006 0.11399,-0.0176 0.14964,-0.0273 v 0 c 0.0202,-0.005 0.0364,-0.0104 0.0499,-0.014 v 0 c 0.018,-0.005 0.031,-0.007 0.041,-0.006 z"
       style="fill:#041a08;fill-opacity:1;fill-rule:nonzero;stroke:none;stroke-width:0.264586px;stroke-linecap:butt;stroke-linejoin:miter;stroke-opacity:1" />
    <path
       sodipodi:nodetypes="ccc"
       id="path12133"
       d="m 59.505642,113.83118 c 0.13931,1.08345 -1.19288,1.09794 -2.73545,0.23349 1.08409,-0.3819 1.96701,-1.24875 2.73545,-0.23349 z"
       style="fill:#041a08;fill-opacity:1;stroke:none;stroke-width:0.264586px;stroke-linecap:butt;stroke-linejoin:miter;stroke-opacity:1" />
    <path
       sodipodi:nodetypes="ccccccc"
       d="m 56.770192,114.06467 c 1.37718,0.77176 2.57028,0.78782 2.55059,-0.10235 -0.23583,0.0779 -0.90416,0.0899 -1.21756,0.0199 0.36272,-0.007 1.0566,-0.0295 1.21269,-0.13217 -1.1e-4,-10e-4 -1.9e-4,-0.002 -1.3e-4,-0.003 -0.71503,-0.94468 -1.53669,-0.13816 -2.54542,0.21719 z"
       style="fill:#041a08;fill-opacity:1;stroke:none;stroke-width:0.264586px;stroke-linecap:butt;stroke-linejoin:miter;stroke-opacity:1"
       id="path12139" />
    <path
       style="fill:#041a08;fill-opacity:1;fill-rule:nonzero;stroke:none;stroke-width:0.264586px;stroke-linecap:butt;stroke-linejoin:miter;stroke-opacity:1"
       d="m 59.895282,113.59176 c -0.006,0.004 -0.0151,0.008 -0.0269,0.0133 v 0 c -0.0115,0.005 -0.018,0.008 -0.0337,0.0157 v 0 c -0.0228,0.0107 -0.0548,0.0258 -0.0949,0.0435 v 0 c -0.0843,0.0373 -0.23061,0.0931 -0.32396,0.13226 v 0 c -0.0134,0.006 -0.0332,0.0801 -0.0484,0.0861 0.0152,-0.006 0.0821,0.033 0.096,0.0272 v 0 c 0.11256,-0.0472 0.23354,-0.11989 0.3126,-0.18959 v 0 c 0.0357,-0.0315 0.0586,-0.058 0.0752,-0.0786 v 0 c 0.009,-0.0117 0.0167,-0.0213 0.023,-0.029 v 0 c 0.008,-0.0103 0.015,-0.017 0.0211,-0.0208 z"
       id="path12142"
       sodipodi:nodetypes="cc" />
    <path
       inkscape:export-ydpi="96"
       inkscape:export-xdpi="96"
       inkscape:export-filename="D:\Calcatz\Icon Pack\Adventure Narrative Inspired by Jumanji\Assets\PNG\Vines\06_hanging_vines_main_menu_left.png"
       id="path12151"
       d="m 53.360572,66.436174 0.13515,-0.30916 0.13509,-0.30902 c 1.31646,0.57599 2.43692,1.57602 3.15825,2.8188 0.72055,1.24323 1.03221,2.71237 0.87848,4.14107 v 0 c -0.23831,2.07164 -1.34463,3.86012 -2.29194,5.58614 -0.46844,0.86492 -0.90468,1.73727 -1.18032,2.65057 -0.27385,0.91229 -0.39787,1.87229 -0.23501,2.78146 0.10969,0.66868 0.37368,1.29962 0.71323,1.91422 0.39308,0.71148 0.86683,1.37264 1.36381,2.11333 0.43468,0.63778 0.87795,1.326941 1.21298,2.084761 0.32826,0.73919 0.5458,1.566119 0.5236,2.419749 -0.0294,0.858721 -0.2977,1.67971 -0.67307,2.428931 -0.36985,0.742241 -0.82694,1.415679 -1.26481,2.088549 -0.43589,0.673121 -0.85262,1.34398 -1.13475,2.063721 -0.28293,0.72572 -0.43541,1.500395 -0.32694,2.241585 0.0864,0.62484 0.3574,1.22276 0.69856,1.76424 0.34878,0.55186 0.78535,1.05958 1.21321,1.55256 0.44986,0.517 0.88715,1.01497 1.2641,1.5735 0.39207,0.57964 0.6939,1.20408 0.82705,1.86472 0.17741,0.90261 0.0329,1.8241 -0.1231,2.62337 -0.18329,0.95168 -0.36472,1.72071 -0.33891,2.55905 0,0 0,0 0,0 0.0275,0.92277 0.3158,1.73759 0.69126,2.36638 0.54994,0.92106 1.26628,1.45074 1.76843,1.7369 -0.52819,-0.29381 -1.24529,-0.81512 -1.80956,-1.71169 -0.396,-0.62924 -0.70841,-1.44869 -0.76067,-2.38686 0,0 0,0 0,0 -0.0469,-0.85572 0.1152,-1.64706 0.27381,-2.59538 0.13163,-0.79956 0.25105,-1.70168 0.0578,-2.54047 -0.13856,-0.61612 -0.4421,-1.19801 -0.83083,-1.74666 -0.37562,-0.52895 -0.81605,-1.00429 -1.27884,-1.51166 -0.44174,-0.48303 -0.90102,-0.99345 -1.28533,-1.56791 -0.37819,-0.56369 -0.68487,-1.20825 -0.80344,-1.91278 -0.13488,-0.8377 0.007,-1.696935 0.30224,-2.484957 0.29045,-0.779658 0.70954,-1.491178 1.13927,-2.17823 0.42819,-0.68798 0.86367,-1.351729 1.19667,-2.053389 0.33373,-0.707501 0.57006,-1.449609 0.57827,-2.188059 0.0152,-0.73252 -0.19309,-1.465601 -0.49562,-2.14145 -0.31156,-0.6927 -0.74088,-1.344011 -1.17179,-1.972131 -0.50076,-0.71859 -0.99376,-1.40695 -1.40507,-2.1661 -0.35722,-0.65934 -0.64551,-1.35941 -0.78611,-2.12159 -0.17887,-1.04436 -0.0485,-2.10848 0.25405,-3.09379 0.30081,-0.98442 0.75462,-1.89877 1.23304,-2.77657 0,0 0,0 0,0 0.94634,-1.75925 2.02668,-3.46451 2.21397,-5.33646 0,0 0,0 0,0 0.13886,-1.28242 -0.14375,-2.61459 -0.79131,-3.73018 -0.64679,-1.11604 -1.66279,-2.02285 -2.84489,-2.53911 z"
       style="fill:#001302;fill-opacity:1;stroke:none;stroke-width:0.264583px;stroke-linecap:butt;stroke-linejoin:miter;stroke-opacity:1" />
    <path
       inkscape:export-ydpi="96"
       inkscape:export-xdpi="96"
       inkscape:export-filename="D:\Calcatz\Icon Pack\Adventure Narrative Inspired by Jumanji\Assets\PNG\Vines\06_hanging_vines_main_menu_left.png"
       sodipodi:nodetypes="csssssc"
       id="path12157"
       d="m 57.133612,67.983234 -0.0661,0.12825 -0.066,0.12819 c -0.63476,-0.32801 -1.44038,-0.32873 -2.07573,-0.002 -0.63625,0.32514 -1.10585,0.97974 -1.20996,1.68662 v 0 c -0.10042,0.65008 0.0989,1.33036 0.42452,1.92419 0.32791,0.59479 0.78969,1.11592 1.25398,1.63955 0.46575,0.52257 0.94178,1.05819 1.29787,1.68473 v 0 c 0.35816,0.62709 0.57831,1.36374 0.48628,2.0997 -0.0821,0.61063 -0.37134,1.16726 -0.7339,1.64279 -0.0276,0.0364 -0.0556,0.0724 -0.084,0.10808 -0.34018,0.42767 -0.71719,0.78902 -1.10889,1.18832 -0.39282,0.40247 -0.78942,0.83249 -1.06459,1.3284 -0.26587,0.48142 -0.4308,1.04615 -0.34539,1.58912 0.08,0.55316 0.41561,1.05862 0.83399,1.471841 0.41713,0.409689 0.92127,0.733499 1.4176,1.079219 0.50013,0.34629 0.99422,0.72119 1.36981,1.21144 0.18914,0.247541 0.34327,0.522831 0.4404,0.81891 0,0 0,0 0,0 0.0983,0.29963 0.13461,0.619401 0.0915,0.93012 -0.0708,0.493132 -0.33556,0.931962 -0.67246,1.26554 -0.34666,0.34371 -0.76715,0.591201 -1.18466,0.788361 -0.96667,0.45875 -1.77406,0.645181 -2.49967,1.242531 -0.78472,0.643569 -1.14669,1.576009 -1.17789,2.370979 -0.0492,1.24797 0.62341,2.111761 0.99943,2.46962 -0.40285,-0.378341 -1.06532,-1.23676 -1.03688,-2.47079 0.0188,-0.80794 0.37054,-1.761551 1.16201,-2.433701 0.73432,-0.621268 1.55317,-0.830929 2.49655,-1.295429 0.40667,-0.201239 0.81072,-0.446791 1.13305,-0.778581 0.31186,-0.321498 0.55425,-0.734288 0.60848,-1.181399 0.0356,-0.281521 -0.003,-0.57355 -0.0966,-0.84797 0,0 0,-1.1e-5 0,-1.1e-5 -0.0928,-0.27156 -0.24057,-0.52552 -0.42111,-0.75611 -0.35764,-0.45809 -0.83987,-0.81051 -1.33832,-1.14928 -0.49659,-0.33545 -1.01434,-0.66112 -1.46134,-1.08764 -0.45262,-0.42963 -0.81869,-0.97886 -0.92338,-1.60706 -0.0962,-0.61887 0.0736,-1.24174 0.36312,-1.76355 0.29516,-0.53428 0.70388,-0.98589 1.10211,-1.3939 0.39355,-0.40522 0.76325,-0.75949 1.08749,-1.16823 0.027,-0.034 0.0535,-0.0683 0.0797,-0.10289 0.3394,-0.45203 0.60995,-0.96304 0.67787,-1.50593 0.0886,-0.65228 -0.11993,-1.32917 -0.45128,-1.92043 0,0 0,0 0,-1e-5 -0.33357,-0.59212 -0.79778,-1.11121 -1.26241,-1.63514 -0.46608,-0.52288 -0.94011,-1.06131 -1.29073,-1.69142 -0.35268,-0.63076 -0.56296,-1.37177 -0.45751,-2.10639 0,0 0,0 0,0 0.12043,-0.80335 0.64127,-1.52937 1.36366,-1.90088 0.72328,-0.36977 1.6168,-0.36897 2.33943,0.002 z"
       style="fill:#001302;fill-opacity:1;stroke:none;stroke-width:0.264583px;stroke-linecap:butt;stroke-linejoin:miter;stroke-opacity:1" />
    <path
       style="fill:#001302;fill-opacity:1;stroke:none;stroke-width:0.264583px;stroke-linecap:butt;stroke-linejoin:miter;stroke-opacity:1"
       d="m 51.878242,76.752294 c 1.54895,0.64401 1.63544,2.759 1.20327,2.70295 -0.49113,-0.0984 -1.63422,-1.31135 -1.20327,-2.70295 z"
       id="path12163"
       sodipodi:nodetypes="ccc" />
    <path
       sodipodi:nodetypes="ccc"
       id="path12169"
       d="m 54.712332,77.648284 c 0.0463,1.21942 -1.34678,1.94331 -1.4427,1.64208 -0.0857,-0.35327 0.3753,-1.48587 1.4427,-1.64208 z"
       style="fill:#001302;fill-opacity:1;stroke:none;stroke-width:0.264583px;stroke-linecap:butt;stroke-linejoin:miter;stroke-opacity:1" />
    <path
       style="fill:#001302;fill-opacity:1;stroke:none;stroke-width:0.264583px;stroke-linecap:butt;stroke-linejoin:miter;stroke-opacity:1"
       d="m 50.293992,79.409534 c 1.07276,1.04925 2.86655,0.3784 2.67035,0.0423 -0.25187,-0.36982 -1.65878,-0.88532 -2.67035,-0.0423 z"
       id="path12172"
       sodipodi:nodetypes="ccc" />
    <path
       style="fill:#001302;fill-opacity:1;stroke:none;stroke-width:0.264583px;stroke-linecap:butt;stroke-linejoin:miter;stroke-opacity:1"
       d="m 52.041092,79.956364 c 0.95709,-0.0283 1.41019,0.54412 1.82415,1.17412 -0.22638,-0.75232 -0.13636,-1.57359 0.32926,-2.23713 l -0.58214,0.31925 -0.13559,-0.0915 -0.30105,-0.0937 c -0.19553,0.0399 -0.41617,-0.13589 -0.42176,0.1751 l -0.16238,0.2747 -0.13603,0.14911 -0.14479,0.22892 z"
       id="path12174"
       sodipodi:nodetypes="ccccccccccc" />
    <path
       sodipodi:nodetypes="ccc"
       id="path12182"
       d="m 58.254392,86.047854 c 0.41641,1.2615 -0.80585,2.40871 -0.9961,2.12077 -0.19544,-0.34517 -0.0608,-1.6582 0.9961,-2.12077 z"
       style="fill:#001302;fill-opacity:1;stroke:none;stroke-width:0.264583px;stroke-linecap:butt;stroke-linejoin:miter;stroke-opacity:1" />
    <path
       style="fill:#001302;fill-opacity:1;stroke:none;stroke-width:0.264583px;stroke-linecap:butt;stroke-linejoin:miter;stroke-opacity:1"
       d="m 59.185452,88.209764 c -0.70654,0.65933 -1.86173,0.19964 -1.73095,-0.0138 0.16722,-0.23433 1.08454,-0.54472 1.73095,0.0138 z"
       id="path12184"
       sodipodi:nodetypes="ccc" />
    <path
       sodipodi:nodetypes="ccc"
       id="path12192"
       d="m 55.841962,86.474994 c -0.073,1.1861 1.25795,1.91329 1.3577,1.62166 0.0911,-0.34243 -0.32873,-1.45228 -1.3577,-1.62166 z"
       style="fill:#001302;fill-opacity:1;stroke:none;stroke-width:0.264583px;stroke-linecap:butt;stroke-linejoin:miter;stroke-opacity:1" />
    <path
       sodipodi:nodetypes="ccccccccccc"
       id="path12194"
       d="m 56.419222,87.804864 c 0.51263,0.55874 0.40439,1.126642 0.24136,1.70093 0.33347,-0.525269 0.8721,-0.89669 1.51077,-0.9614 l -0.49276,-0.18341 -0.0154,-0.1286 -0.0998,-0.22888 c -0.12519,-0.0965 -0.13414,-0.3197 -0.32335,-0.16198 l -0.24866,0.045 -0.15979,-0.004 -0.21213,0.0318 z"
       style="fill:#001302;fill-opacity:1;stroke:none;stroke-width:0.264583px;stroke-linecap:butt;stroke-linejoin:miter;stroke-opacity:1" />
    <path
       style="fill:#001302;fill-opacity:1;stroke:none;stroke-width:0.264583px;stroke-linecap:butt;stroke-linejoin:miter;stroke-opacity:1"
       d="m 58.580462,96.670155 c -1.00863,-0.43616 -1.04574,-1.822301 -0.76318,-1.78159 0.32079,0.069 1.05831,0.874048 0.76318,1.78159 z"
       id="path12202"
       sodipodi:nodetypes="ccc" />
    <path
       sodipodi:nodetypes="ccc"
       id="path12204"
       d="m 56.732372,96.057073 c -0.0191,-0.799168 0.90012,-1.260448 0.96017,-1.062249 0.0529,0.23218 -0.25956,0.969791 -0.96017,1.062249 z"
       style="fill:#001302;fill-opacity:1;stroke:none;stroke-width:0.264583px;stroke-linecap:butt;stroke-linejoin:miter;stroke-opacity:1" />
    <path
       style="fill:#001302;fill-opacity:1;stroke:none;stroke-width:0.264583px;stroke-linecap:butt;stroke-linejoin:miter;stroke-opacity:1"
       d="m 59.642722,94.944276 c -0.69297,-0.697201 -1.87413,-0.274363 -1.74872,-0.0524 0.16156,0.24457 1.07834,0.59523 1.74872,0.0524 z"
       id="path12212"
       sodipodi:nodetypes="ccc" />
    <path
       style="fill:#001302;fill-opacity:1;stroke:none;stroke-width:0.264583px;stroke-linecap:butt;stroke-linejoin:miter;stroke-opacity:1"
       d="m 58.503402,94.569943 c -0.62716,0.01 -0.91866,-0.369448 -1.18398,-0.785929 0.14132,0.494872 0.0748,1.031981 -0.23636,1.462299 l 0.38427,-0.203729 0.088,0.0612 0.19633,0.0641 c 0.12844,-0.02432 0.27134,0.0929 0.27788,-0.110792 l 0.1089,-0.17843 0.0905,-0.0964 0.0969,-0.148598 z"
       id="path12214"
       sodipodi:nodetypes="ccccccccccc" />
    <path
       sodipodi:nodetypes="ccc"
       id="path12222"
       d="m 52.782542,97.504254 c 0.87169,0.1928 1.11447,1.29285 0.88281,1.30383 -0.26651,-0.006 -0.97866,-0.53448 -0.88281,-1.30383 z"
       style="fill:#001302;fill-opacity:1;stroke:none;stroke-width:0.264583px;stroke-linecap:butt;stroke-linejoin:miter;stroke-opacity:1" />
    <path
       style="fill:#001302;fill-opacity:1;stroke:none;stroke-width:0.264583px;stroke-linecap:butt;stroke-linejoin:miter;stroke-opacity:1"
       d="m 54.351082,97.709084 c 0.13814,0.634579 -0.52418,1.143921 -0.60257,0.99505 -0.0779,-0.17709 0.0579,-0.813548 0.60257,-0.99505 z"
       id="path12224"
       sodipodi:nodetypes="ccc" />
    <path
       sodipodi:nodetypes="ccc"
       id="path12232"
       d="m 52.200602,99.044394 c 0.66002,0.44958 1.53721,-0.0694 1.40304,-0.227169 -0.1665,-0.170251 -0.95176,-0.30898 -1.40304,0.227169 z"
       style="fill:#001302;fill-opacity:1;stroke:none;stroke-width:0.264583px;stroke-linecap:butt;stroke-linejoin:miter;stroke-opacity:1" />
    <path
       sodipodi:nodetypes="ccccccccccc"
       id="path12234"
       d="m 53.167022,99.167774 c 0.49882,-0.104161 0.78965,0.15343 1.06536,0.44486 -0.18885,-0.373038 -0.21836,-0.811739 -0.0364,-1.202859 l -0.27521,0.22162 -0.0796,-0.0353 -0.16648,-0.02101 c -0.0987,0.0392 -0.23074,-0.0324 -0.20463,0.131119 l -0.0594,0.159081 -0.0574,0.0908 -0.0545,0.133461 z"
       style="fill:#001302;fill-opacity:1;stroke:none;stroke-width:0.264583px;stroke-linecap:butt;stroke-linejoin:miter;stroke-opacity:1" />
    <path
       style="fill:#001302;fill-opacity:1;stroke:none;stroke-width:0.264583px;stroke-linecap:butt;stroke-linejoin:miter;stroke-opacity:1"
       d="m 57.593042,103.11668 c 0.46175,0.76406 -0.16714,1.69869 -0.33491,1.53856 -0.17973,-0.19686 -0.28819,-1.07722 0.33491,-1.53856 z"
       id="path12242"
       sodipodi:nodetypes="ccc" />
    <path
       sodipodi:nodetypes="ccc"
       id="path12244"
       d="m 58.526812,104.39353 c -0.36411,0.53776 -1.18975,0.40965 -1.13605,0.2502 0.0744,-0.17856 0.62891,-0.5193 1.13605,-0.2502 z"
       style="fill:#001302;fill-opacity:1;stroke:none;stroke-width:0.264583px;stroke-linecap:butt;stroke-linejoin:miter;stroke-opacity:1" />
    <path
       style="fill:#001302;fill-opacity:1;stroke:none;stroke-width:0.264583px;stroke-linecap:butt;stroke-linejoin:miter;stroke-opacity:1"
       d="m 56.076592,103.75785 c 0.12985,0.78797 1.11069,1.06501 1.13236,0.85902 0.008,-0.23798 -0.43289,-0.90217 -1.13236,-0.85902 z"
       id="path12246"
       sodipodi:nodetypes="ccc" />
    <path
       style="fill:#001302;fill-opacity:1;stroke:none;stroke-width:0.264583px;stroke-linecap:butt;stroke-linejoin:miter;stroke-opacity:1"
       d="m 56.653962,104.54261 c 0.41952,0.28926 0.43367,0.67751 0.41289,1.07815 0.13978,-0.39406 0.43701,-0.71806 0.84573,-0.85611 l -0.35029,-0.0463 -0.0294,-0.0819 -0.0997,-0.135 c -0.0965,-0.0444 -0.13576,-0.18935 -0.23609,-0.0577 l -0.15617,0.0667 -0.10531,0.0211 -0.1342,0.0526 z"
       id="path12248"
       sodipodi:nodetypes="ccccccccccc" />
    <path
       style="fill:#001302;fill-opacity:1;stroke:none;stroke-width:0.264582px;stroke-linecap:butt;stroke-linejoin:miter;stroke-opacity:1"
       d="m 52.350702,71.485614 c 0.007,-0.17435 0.39158,-0.14496 0.56849,-0.29566 0.38029,-0.32396 0.78382,-0.28849 0.47149,0.21964 0.3191,0.47662 -7.41e-4,0.60847 -0.39963,0.30911 -0.1776,-0.13329 -0.59338,-0.0248 -0.64035,-0.23309 z"
       id="path12252"
       sodipodi:nodetypes="cscsc" />
    <path
       style="fill:#001302;fill-opacity:1;stroke:none;stroke-width:0.264582px;stroke-linecap:butt;stroke-linejoin:miter;stroke-opacity:1"
       d="m 53.381172,71.432854 c 0.12605,-0.005 0.25168,0.0563 0.36094,0.10964 -0.0995,-0.0799 -0.21741,-0.15957 -0.35548,-0.15828 -0.0165,0.0122 -0.0142,0.0295 -0.005,0.0486 z"
       id="path12254"
       sodipodi:nodetypes="cccc" />
    <path
       sodipodi:nodetypes="cscsc"
       id="path12258"
       d="m 54.629172,70.637704 c 0.14173,0.10179 -0.0943,0.40676 -0.0658,0.63739 0.0614,0.49579 -0.19023,0.81328 -0.44278,0.27294 -0.57356,0.004 -0.50775,-0.33531 -0.0383,-0.50377 0.20901,-0.075 0.34712,-0.4819 0.54689,-0.40656 z"
       style="fill:#001302;fill-opacity:1;stroke:none;stroke-width:0.264582px;stroke-linecap:butt;stroke-linejoin:miter;stroke-opacity:1" />
    <path
       sodipodi:nodetypes="cccc"
       id="path12260"
       d="m 54.106422,71.527304 c -0.0651,0.10809 -0.18545,0.17921 -0.29011,0.24111 0.12145,-0.0392 0.25285,-0.0938 0.32773,-0.20981 -10e-4,-0.0205 -0.0168,-0.0281 -0.0376,-0.0313 z"
       style="fill:#001302;fill-opacity:1;stroke:none;stroke-width:0.264582px;stroke-linecap:butt;stroke-linejoin:miter;stroke-opacity:1" />
    <path
       style="fill:#001302;fill-opacity:1;stroke:none;stroke-width:0.264582px;stroke-linecap:butt;stroke-linejoin:miter;stroke-opacity:1"
       d="m 58.217322,76.020854 c 0.0658,0.1616 -0.2963,0.29421 -0.39484,0.50468 -0.21185,0.45242 -0.5938,0.58738 -0.52013,-0.005 -0.48792,-0.30153 -0.2515,-0.55407 0.2356,-0.44693 0.21687,0.0477 0.55032,-0.22333 0.67937,-0.0533 z"
       id="path12264"
       sodipodi:nodetypes="cscsc" />
    <path
       style="fill:#001302;fill-opacity:1;stroke:none;stroke-width:0.264582px;stroke-linecap:butt;stroke-linejoin:miter;stroke-opacity:1"
       d="m 57.301372,76.495924 c -0.1126,0.0569 -0.25238,0.0531 -0.37393,0.0498 0.12369,0.0314 0.26399,0.0551 0.38912,-0.003 0.01,-0.018 6.88e-4,-0.0328 -0.0152,-0.0465 z"
       id="path12266"
       sodipodi:nodetypes="cccc" />
    <path
       sodipodi:nodetypes="cscsc"
       id="path12270"
       d="m 58.157392,78.332144 c -0.071,0.15939 -0.41743,-0.0101 -0.63752,0.0645 -0.47312,0.1604 -0.83494,-0.0217 -0.35688,-0.3784 -0.12026,-0.56083 0.22565,-0.56509 0.4856,-0.13946 0.11574,0.18951 0.54217,0.24245 0.5088,0.45333 z"
       style="fill:#001302;fill-opacity:1;stroke:none;stroke-width:0.264582px;stroke-linecap:butt;stroke-linejoin:miter;stroke-opacity:1" />
    <path
       sodipodi:nodetypes="cccc"
       id="path12272"
       d="m 57.180432,78.000174 c -0.11902,-0.0418 -0.21303,-0.14535 -0.29483,-0.23532 0.063,0.11101 0.14301,0.22865 0.27178,0.2785 0.0199,-0.005 0.0241,-0.0222 0.0231,-0.0432 z"
       style="fill:#001302;fill-opacity:1;stroke:none;stroke-width:0.264582px;stroke-linecap:butt;stroke-linejoin:miter;stroke-opacity:1" />
    <path
       style="fill:#001302;fill-opacity:1;stroke:none;stroke-width:0.264582px;stroke-linecap:butt;stroke-linejoin:miter;stroke-opacity:1"
       d="m 55.661842,77.316484 c 0.0158,0.17378 0.39834,0.12521 0.58255,0.26688 0.39601,0.30454 0.79727,0.24896 0.45993,-0.24293 0.29487,-0.49198 -0.0311,-0.60768 -0.41458,-0.28875 -0.17072,0.142 -0.5914,0.0544 -0.6279,0.2648 z"
       id="path12276"
       sodipodi:nodetypes="cscsc" />
    <path
       style="fill:#001302;fill-opacity:1;stroke:none;stroke-width:0.264582px;stroke-linecap:butt;stroke-linejoin:miter;stroke-opacity:1"
       d="m 56.693662,77.317674 c 0.12615,-10e-4 0.24855,-0.0688 0.35501,-0.12754 -0.0954,0.0847 -0.20916,0.17024 -0.34713,0.17585 -0.0171,-0.0114 -0.0157,-0.0288 -0.008,-0.0483 z"
       id="path12278"
       sodipodi:nodetypes="cccc" />
    <path
       style="fill:#001302;fill-opacity:1;stroke:none;stroke-width:0.264582px;stroke-linecap:butt;stroke-linejoin:miter;stroke-opacity:1"
       d="m 55.114682,82.598554 c -0.071,0.15939 -0.41743,-0.0101 -0.63752,0.0645 -0.47312,0.1604 -0.83494,-0.0217 -0.35688,-0.3784 -0.12026,-0.56083 0.22565,-0.56509 0.4856,-0.13946 0.11574,0.18951 0.54217,0.24245 0.5088,0.45333 z"
       id="path12282"
       sodipodi:nodetypes="cscsc" />
    <path
       style="fill:#001302;fill-opacity:1;stroke:none;stroke-width:0.264582px;stroke-linecap:butt;stroke-linejoin:miter;stroke-opacity:1"
       d="m 54.137722,82.266584 c -0.11902,-0.0418 -0.21303,-0.14535 -0.29483,-0.23532 0.063,0.11101 0.14301,0.22865 0.27178,0.2785 0.0198,-0.005 0.0241,-0.0222 0.023,-0.0432 z"
       id="path12285"
       sodipodi:nodetypes="cccc" />
    <path
       sodipodi:nodetypes="cscsc"
       id="path12289"
       d="m 52.252762,81.078924 c -0.0439,0.16889 0.33266,0.25236 0.45823,0.4479 0.26993,0.42037 0.66638,0.50353 0.51494,-0.0734 0.44367,-0.36352 0.17586,-0.58251 -0.29274,-0.41178 -0.20864,0.076 -0.57505,-0.14844 -0.68043,0.0373 z"
       style="fill:#001302;fill-opacity:1;stroke:none;stroke-width:0.264582px;stroke-linecap:butt;stroke-linejoin:miter;stroke-opacity:1" />
    <path
       sodipodi:nodetypes="cccc"
       id="path12291"
       d="m 53.223582,81.428434 c 0.11914,0.0415 0.25718,0.0192 0.37722,-1.9e-4 -0.11842,0.0476 -0.25435,0.0896 -0.38612,0.0483 -0.0122,-0.0165 -0.005,-0.0324 0.009,-0.0481 z"
       style="fill:#001302;fill-opacity:1;stroke:none;stroke-width:0.264582px;stroke-linecap:butt;stroke-linejoin:miter;stroke-opacity:1" />
    <path
       style="fill:#001302;fill-opacity:1;stroke:none;stroke-width:0.264582px;stroke-linecap:butt;stroke-linejoin:miter;stroke-opacity:1"
       d="m 53.237912,85.246544 c 0.0925,0.14797 0.41197,-0.068 0.6403,-0.0248 0.49083,0.093 0.8238,-0.13765 0.30078,-0.42435 0.0411,-0.5721 -0.30204,-0.52822 -0.50027,-0.0706 -0.0883,0.20376 -0.50318,0.31549 -0.44081,0.51967 z"
       id="path12295"
       sodipodi:nodetypes="cscsc" />
    <path
       style="fill:#001302;fill-opacity:1;stroke:none;stroke-width:0.264582px;stroke-linecap:butt;stroke-linejoin:miter;stroke-opacity:1"
       d="m 54.159212,84.781944 c 0.11204,-0.058 0.19075,-0.17357 0.25924,-0.27403 -0.0469,0.11868 -0.10982,0.24631 -0.23041,0.31358 -0.0204,-0.002 -0.027,-0.0186 -0.0288,-0.0396 z"
       id="path12297"
       sodipodi:nodetypes="cccc" />
    <path
       sodipodi:nodetypes="cscsc"
       id="path12301"
       d="m 57.178632,85.303014 c -0.10267,-0.0876 -0.28803,0.1461 -0.46653,0.16734 -0.3837,0.0456 -0.57559,0.29335 -0.12305,0.38304 0.10288,0.43156 0.34577,0.31929 0.38543,-0.0644 0.0177,-0.17084 0.2977,-0.34986 0.20415,-0.48595 z"
       style="fill:#001302;fill-opacity:1;stroke:none;stroke-width:0.264583px;stroke-linecap:butt;stroke-linejoin:miter;stroke-opacity:1" />
    <path
       sodipodi:nodetypes="cccc"
       id="path12303"
       d="m 56.607242,85.860224 c -0.0691,0.0688 -0.10028,0.17243 -0.1274,0.26249 0.007,-0.0985 0.0236,-0.20726 0.0969,-0.28496 0.0156,-0.003 0.0242,0.007 0.0305,0.0225 z"
       style="fill:#001302;fill-opacity:1;stroke:none;stroke-width:0.264583px;stroke-linecap:butt;stroke-linejoin:miter;stroke-opacity:1" />
    <path
       style="fill:#001302;fill-opacity:1;stroke:none;stroke-width:0.264582px;stroke-linecap:butt;stroke-linejoin:miter;stroke-opacity:1"
       d="m 58.542132,89.302785 c 0.0437,-0.0888 -0.156,-0.178221 -0.20343,-0.30122 -0.10194,-0.264401 -0.31272,-0.355901 -0.29449,-0.0181 -0.28804,0.151281 -0.16426,0.303549 0.1156,0.262229 0.12461,-0.01839 0.30255,0.148182 0.38232,0.0571 z"
       id="path12307"
       sodipodi:nodetypes="cscsc" />
    <path
       style="fill:#001302;fill-opacity:1;stroke:none;stroke-width:0.264582px;stroke-linecap:butt;stroke-linejoin:miter;stroke-opacity:1"
       d="m 58.042662,88.997665 c -0.0615,-0.0367 -0.14071,-0.04 -0.20961,-0.043 0.0712,-0.01291 0.15156,-0.02069 0.22005,0.0173 0.005,0.01061 -8.99e-4,0.0186 -0.0104,0.02569 z"
       id="path12309"
       sodipodi:nodetypes="cccc" />
    <path
       sodipodi:nodetypes="cscsc"
       id="path12313"
       d="m 56.979342,88.874964 c -0.0437,0.0888 0.156,0.178221 0.20343,0.30122 0.10194,0.264401 0.31272,0.355899 0.29449,0.0181 0.28804,-0.151281 0.16426,-0.303551 -0.1156,-0.262231 -0.12461,0.01839 -0.30255,-0.148179 -0.38232,-0.0571 z"
       style="fill:#001302;fill-opacity:1;stroke:none;stroke-width:0.264582px;stroke-linecap:butt;stroke-linejoin:miter;stroke-opacity:1" />
    <path
       sodipodi:nodetypes="cccc"
       id="path12315"
       d="m 57.478812,89.180084 c 0.0615,0.0367 0.14071,0.04 0.20961,0.043 -0.0712,0.01291 -0.15156,0.02069 -0.22005,-0.0173 -0.005,-0.01061 9e-4,-0.0186 0.0104,-0.02569 z"
       style="fill:#001302;fill-opacity:1;stroke:none;stroke-width:0.264582px;stroke-linecap:butt;stroke-linejoin:miter;stroke-opacity:1" />
    <path
       sodipodi:nodetypes="ccc"
       id="path12319"
       d="m 64.289631,104.86296 c 0.905312,-1.23125 2.26781,0.0406 2.994451,2.40538 -1.46618,-0.66037 -3.197061,-0.63556 -2.994451,-2.40538 z"
       style="fill:#041a08;fill-opacity:1;stroke:none;stroke-width:0.264586px;stroke-linecap:butt;stroke-linejoin:miter;stroke-opacity:1" />
    <path
       sodipodi:nodetypes="ccccccc"
       d="m 67.284082,107.26834 c -0.648729,-2.1112 -1.840939,-3.27968 -2.680671,-2.35959 0.313921,0.14892 1.002081,0.78214 1.25167,1.15572 -0.373809,-0.34332 -1.098079,-0.99049 -1.355188,-1.03734 -7.94e-4,0.001 -0.0011,0.002 -0.0021,0.003 -0.188531,1.6468 1.42208,1.62391 2.786349,2.23836 z"
       style="fill:#041a08;fill-opacity:1;stroke:none;stroke-width:0.264586px;stroke-linecap:butt;stroke-linejoin:miter;stroke-opacity:1"
       id="path12321" />
    <path
       style="fill:#041a08;fill-opacity:1;fill-rule:nonzero;stroke:none;stroke-width:0.264586px;stroke-linecap:butt;stroke-linejoin:miter;stroke-opacity:1"
       d="m 63.664003,104.72904 c 0.009,0.002 0.02281,0.007 0.0401,0.0125 v 0 c 0.01659,0.006 0.0265,0.009 0.0492,0.0166 v 0 c 0.0334,0.0112 0.0803,0.0268 0.13806,0.0475 v 0 c 0.121269,0.0436 0.32331,0.12845 0.455599,0.17901 v 0 c 0.019,0.007 0.110972,-0.0489 0.132231,-0.0403 -0.0213,-0.009 -0.0512,-0.11274 -0.0708,-0.12027 v 0 c -0.159588,-0.061 -0.3522,-0.10429 -0.499589,-0.11004 v 0 c -0.0665,-0.003 -0.115321,0.002 -0.15196,0.007 v 0 c -0.02069,0.003 -0.0374,0.005 -0.0513,0.007 v 0 c -0.0185,0.002 -0.0316,0.003 -0.0415,8e-4 z"
       id="path12323"
       sodipodi:nodetypes="cc" />
    <path
       style="fill:#041a08;fill-opacity:1;stroke:none;stroke-width:0.264586px;stroke-linecap:butt;stroke-linejoin:miter;stroke-opacity:1"
       d="m 63.120753,118.75379 c -0.818781,-0.7231 0.173648,-1.61192 1.90355,-1.9783 -0.563711,1.00165 -0.656511,2.23549 -1.90355,1.9783 z"
       id="path12329"
       sodipodi:nodetypes="ccc" />
    <path
       id="path12331"
       style="fill:#041a08;fill-opacity:1;stroke:none;stroke-width:0.264586px;stroke-linecap:butt;stroke-linejoin:miter;stroke-opacity:1"
       d="m 65.024303,116.77549 c -1.544421,0.3271 -2.452371,1.10128 -1.85093,1.75783 0.12605,-0.21398 0.620779,-0.66349 0.90266,-0.81733 -0.268271,0.24421 -0.775232,0.71853 -0.825,0.89858 7.94e-4,5.3e-4 0.0011,0.001 0.0021,0.002 1.160362,0.23932 1.246852,-0.90877 1.771372,-1.84081 z"
       sodipodi:nodetypes="ccccccc" />
    <path
       sodipodi:nodetypes="cc"
       id="path12333"
       d="m 62.985471,119.19063 c 0.0021,-0.006 0.006,-0.0158 0.01151,-0.0277 v 0 c 0.005,-0.0116 0.008,-0.0181 0.015,-0.034 v 0 c 0.01011,-0.023 0.02429,-0.0555 0.0428,-0.0952 v 0 c 0.0389,-0.0836 0.11212,-0.22205 0.156448,-0.31303 v 0 c 0.006,-0.0131 -0.0279,-0.0821 -0.0204,-0.0966 -0.007,0.0146 -0.0835,0.0293 -0.0901,0.0428 v 0 c -0.0534,0.10966 -0.0965,0.24407 -0.110072,0.34856 v 0 c -0.006,0.0472 -0.006,0.0822 -0.005,0.10863 v 0 c 5.29e-4,0.0149 0.0011,0.027 0.0021,0.037 v 0 c 5.29e-4,0.0133 -6.9e-5,0.0227 -0.0021,0.0296 z"
       style="fill:#041a08;fill-opacity:1;fill-rule:nonzero;stroke:none;stroke-width:0.264586px;stroke-linecap:butt;stroke-linejoin:miter;stroke-opacity:1" />
    <path
       sodipodi:nodetypes="ccc"
       id="path12339"
       d="m 64.295473,121.33565 c 0.31105,-0.88635 1.340369,-0.3834 2.19219,0.87618 -0.980461,-0.12488 -1.993461,0.20054 -2.19219,-0.87618 z"
       style="fill:#041a08;fill-opacity:1;stroke:none;stroke-width:0.264586px;stroke-linecap:butt;stroke-linejoin:miter;stroke-opacity:1" />
    <path
       sodipodi:nodetypes="ccccccc"
       d="m 66.487663,122.21183 c -0.760482,-1.12451 -1.67114,-1.59728 -1.99952,-0.90563 0.21127,0.0312 0.729509,0.27981 0.943308,0.45459 -0.281389,-0.13469 -0.823349,-0.38504 -0.982908,-0.36642 -2.65e-4,8e-4 -5.29e-4,0.001 -7.94e-4,0.002 0.18492,1.00189 1.12757,0.69919 2.039869,0.81539 z"
       style="fill:#041a08;fill-opacity:1;stroke:none;stroke-width:0.264586px;stroke-linecap:butt;stroke-linejoin:miter;stroke-opacity:1"
       id="path12341" />
    <path
       style="fill:#041a08;fill-opacity:1;fill-rule:nonzero;stroke:none;stroke-width:0.264586px;stroke-linecap:butt;stroke-linejoin:miter;stroke-opacity:1"
       d="m 63.903663,121.36927 c 0.006,-5.3e-4 0.0146,-2.3e-4 0.0258,1.3e-4 v 0 c 0.01109,2.6e-4 0.0168,5.2e-4 0.0319,0.001 v 0 c 0.02159,5.2e-4 0.052,10e-4 0.0897,0.003 v 0 c 0.0791,0.004 0.213141,0.0175 0.29999,0.0234 v 0 c 0.01249,7.9e-4 0.0564,-0.0487 0.0705,-0.0475 -0.014,-0.001 -0.0503,-0.0571 -0.0632,-0.058 v 0 c -0.104709,-0.007 -0.22575,0.002 -0.313399,0.025 v 0 c -0.0396,0.0104 -0.0674,0.0219 -0.0881,0.0314 v 0 c -0.01169,0.005 -0.02101,0.01 -0.0289,0.0135 v 0 c -0.0104,0.005 -0.0181,0.007 -0.02421,0.008 z"
       id="path12343"
       sodipodi:nodetypes="cc" />
    <path
       style="fill:#041a08;fill-opacity:1;stroke:none;stroke-width:0.264586px;stroke-linecap:butt;stroke-linejoin:miter;stroke-opacity:1"
       d="m 63.881972,125.12934 c 0.56756,-0.66113 1.287571,0.12047 1.59915,1.49609 -0.805209,-0.43838 -1.79033,-0.4986 -1.59915,-1.49609 z"
       id="path12349"
       sodipodi:nodetypes="ccc" />
    <path
       id="path12351"
       style="fill:#041a08;fill-opacity:1;stroke:none;stroke-width:0.264586px;stroke-linecap:butt;stroke-linejoin:miter;stroke-opacity:1"
       d="m 65.481122,126.62543 c -0.27817,-1.22813 -0.905809,-1.94362 -1.422721,-1.45659 0.17208,0.0981 0.536131,0.4877 0.66198,0.7108 -0.197779,-0.21123 -0.58175,-0.61025 -0.725919,-0.64794 -5.29e-4,5.3e-4 -7.93e-4,10e-4 -0.0011,10e-4 -0.17789,0.92815 0.73877,0.98429 1.488011,1.3922 z"
       sodipodi:nodetypes="ccccccc" />
    <path
       sodipodi:nodetypes="cc"
       id="path12353"
       d="m 63.532042,125.02634 c 0.005,10e-4 0.0127,0.005 0.0223,0.009 v 0 c 0.009,0.004 0.0145,0.006 0.0273,0.0116 v 0 c 0.01849,0.008 0.0446,0.0188 0.0764,0.0331 v 0 c 0.0671,0.0301 0.178351,0.0869 0.25141,0.12127 v 0 c 0.0105,0.005 0.0651,-0.0231 0.0769,-0.0174 -0.01169,-0.006 -0.02429,-0.0662 -0.0352,-0.0713 v 0 c -0.0881,-0.0414 -0.195731,-0.0742 -0.279202,-0.0839 v 0 c -0.0377,-0.004 -0.0656,-0.004 -0.0867,-0.003 v 0 c -0.01191,5.3e-4 -0.02151,10e-4 -0.0295,0.002 v 0 c -0.01061,5.2e-4 -0.0181,1.9e-4 -0.0236,-0.001 z"
       style="fill:#041a08;fill-opacity:1;fill-rule:nonzero;stroke:none;stroke-width:0.264586px;stroke-linecap:butt;stroke-linejoin:miter;stroke-opacity:1" />
    <path
       inkscape:export-ydpi="96"
       inkscape:export-xdpi="96"
       inkscape:export-filename="D:\Calcatz\Icon Pack\Adventure Narrative Inspired by Jumanji\Assets\PNG\Vines\06_hanging_vines_main_menu_left.png"
       sodipodi:nodetypes="ccccccccc"
       id="path12359"
       d="m 76.310412,87.612874 c -0.147569,2.692631 -0.781648,5.28795 -0.374169,8.091589 -0.47552,-1.720379 -1.885791,-4.87353 -1.823431,-0.637669 -0.519481,-2.293941 -1.62205,-2.01616 -1.333008,0.63142 -0.286332,-0.53711 -0.930021,-0.156229 -0.701583,1.44994 -0.684808,-1.61164 -2.205468,-0.37152 -1.730568,1.122529 -0.804431,-0.822089 -0.982541,0.0902 -0.98221,1.496711 -0.208661,-0.527089 -0.36943,-2.516809 -1.026641,-2.81963 3.44692,-2.99439 5.937019,-5.39119 7.97161,-9.33489 z"
       style="fill:#050a05;fill-opacity:1;stroke:none;stroke-width:0.264583px;stroke-linecap:butt;stroke-linejoin:miter;stroke-opacity:1" />
    <path
       inkscape:export-ydpi="96"
       inkscape:export-xdpi="96"
       inkscape:export-filename="D:\Calcatz\Icon Pack\Adventure Narrative Inspired by Jumanji\Assets\PNG\Vines\06_hanging_vines_main_menu_left.png"
       sodipodi:nodetypes="cccccccc"
       id="path12361"
       d="m 52.847292,105.20796 c 0.56813,0.53442 1.014,1.09201 0.99299,2.38241 0.47998,-2.93685 1.27021,-2.84323 1.41247,-1.53256 0.39619,-2.02953 1.17581,-1.08776 1.15117,0.76924 0.17077,-2.07939 0.55918,-4.1056 1.22844,-1.29803 0.14713,-1.69846 1.00508,-2.94465 1.08431,0.13379 0.0587,-1.6523 0.27359,-2.85835 1.08895,-3.56453 z"
       style="fill:#050a05;fill-opacity:1;stroke:none;stroke-width:0.264583px;stroke-linecap:butt;stroke-linejoin:miter;stroke-opacity:1" />
    <path
       d="m 67.589991,74.019264 a 1.122532,0.44901281 0 0 1 -0.567388,0.59278 1.122532,0.44901281 0 0 1 -1.482411,-0.22647 1.122532,0.44901281 0 0 1 0.564931,-0.59315 1.122532,0.44901281 0 0 1 1.483349,0.22548"
       style="fill:#001302;fill-opacity:1;stroke:none;stroke-width:0.79375;stroke-linecap:round;stroke-miterlimit:4;stroke-dasharray:none;stroke-opacity:1;paint-order:fill markers stroke"
       id="path12363" />
    <path
       d="m 63.200813,73.721654 a 1.122532,0.44901281 0 0 0 0.567388,0.59278 1.122532,0.44901281 0 0 0 1.48241,-0.22647 1.122532,0.44901281 0 0 0 -0.564927,-0.59315 1.122532,0.44901281 0 0 0 -1.483352,0.22548"
       style="fill:#001302;fill-opacity:1;stroke:none;stroke-width:0.79375;stroke-linecap:round;stroke-miterlimit:4;stroke-dasharray:none;stroke-opacity:1;paint-order:fill markers stroke"
       id="path12365" />
    <path
       d="m 67.589991,76.474834 a 1.122532,0.44901281 0 0 1 -0.567388,0.59277 1.122532,0.44901281 0 0 1 -1.482411,-0.22646 1.122532,0.44901281 0 0 1 0.564931,-0.59315 1.122532,0.44901281 0 0 1 1.483349,0.22548"
       style="fill:#001302;fill-opacity:1;stroke:none;stroke-width:0.79375;stroke-linecap:round;stroke-miterlimit:4;stroke-dasharray:none;stroke-opacity:1;paint-order:fill markers stroke"
       id="path12367" />
    <path
       d="m 63.200813,75.846474 a 1.122532,0.44901281 0 0 0 0.567388,0.59278 1.122532,0.44901281 0 0 0 1.48241,-0.22647 1.122532,0.44901281 0 0 0 -0.564927,-0.59315 1.122532,0.44901281 0 0 0 -1.483352,0.22548"
       style="fill:#001302;fill-opacity:1;stroke:none;stroke-width:0.79375;stroke-linecap:round;stroke-miterlimit:4;stroke-dasharray:none;stroke-opacity:1;paint-order:fill markers stroke"
       id="path12369" />
    <path
       d="m 67.589991,79.164224 a 1.122532,0.44901281 0 0 1 -0.567388,0.59277 1.122532,0.44901281 0 0 1 -1.482411,-0.22646 1.122532,0.44901281 0 0 1 0.564931,-0.59315 1.122532,0.44901281 0 0 1 1.483349,0.22548"
       style="fill:#001302;fill-opacity:1;stroke:none;stroke-width:0.79375;stroke-linecap:round;stroke-miterlimit:4;stroke-dasharray:none;stroke-opacity:1;paint-order:fill markers stroke"
       id="path12371" />
    <path
       d="m 63.200813,78.337384 a 1.122532,0.44901281 0 0 0 0.567388,0.59277 1.122532,0.44901281 0 0 0 1.48241,-0.22646 1.122532,0.44901281 0 0 0 -0.564927,-0.59315 1.122532,0.44901281 0 0 0 -1.483352,0.22548"
       style="fill:#001302;fill-opacity:1;stroke:none;stroke-width:0.79375;stroke-linecap:round;stroke-miterlimit:4;stroke-dasharray:none;stroke-opacity:1;paint-order:fill markers stroke"
       id="path12374" />
    <path
       d="m 67.589991,82.227824 a 1.122532,0.44901281 0 0 1 -0.567388,0.59277 1.122532,0.44901281 0 0 1 -1.482411,-0.22646 1.122532,0.44901281 0 0 1 0.564931,-0.59315 1.122532,0.44901281 0 0 1 1.483349,0.22548"
       style="fill:#001302;fill-opacity:1;stroke:none;stroke-width:0.79375;stroke-linecap:round;stroke-miterlimit:4;stroke-dasharray:none;stroke-opacity:1;paint-order:fill markers stroke"
       id="path12376" />
    <path
       d="m 63.200813,81.599404 a 1.122532,0.44901281 0 0 0 0.567388,0.59277 1.122532,0.44901281 0 0 0 1.48241,-0.22646 1.122532,0.44901281 0 0 0 -0.564927,-0.59315 1.122532,0.44901281 0 0 0 -1.483352,0.22548"
       style="fill:#001302;fill-opacity:1;stroke:none;stroke-width:0.79375;stroke-linecap:round;stroke-miterlimit:4;stroke-dasharray:none;stroke-opacity:1;paint-order:fill markers stroke"
       id="path12378" />
    <path
       d="m 67.847253,84.870464 a 1.122532,0.44901281 0 0 1 -0.56738,0.59277 1.122532,0.44901281 0 0 1 -1.48241,-0.22646 1.122532,0.44901281 0 0 1 0.56493,-0.59315 1.122532,0.44901281 0 0 1 1.483339,0.22548"
       style="fill:#001302;fill-opacity:1;stroke:none;stroke-width:0.79375;stroke-linecap:round;stroke-miterlimit:4;stroke-dasharray:none;stroke-opacity:1;paint-order:fill markers stroke"
       id="path12380" />
    <path
       d="m 63.458083,84.275124 a 1.122532,0.44901281 0 0 0 0.56738,0.59277 1.122532,0.44901281 0 0 0 1.482408,-0.22646 1.122532,0.44901281 0 0 0 -0.564928,-0.59315 1.122532,0.44901281 0 0 0 -1.483341,0.22548"
       style="fill:#001302;fill-opacity:1;stroke:none;stroke-width:0.79375;stroke-linecap:round;stroke-miterlimit:4;stroke-dasharray:none;stroke-opacity:1;paint-order:fill markers stroke"
       id="path12382" />
    <path
       d="m 67.753691,87.746924 a 1.122532,0.44901281 0 0 1 -0.567388,0.59278 1.122532,0.44901281 0 0 1 -1.48241,-0.22647 1.122532,0.44901281 0 0 1 0.56493,-0.59315 1.122532,0.44901281 0 0 1 1.483339,0.22548"
       style="fill:#001302;fill-opacity:1;stroke:none;stroke-width:0.79375;stroke-linecap:round;stroke-miterlimit:4;stroke-dasharray:none;stroke-opacity:1;paint-order:fill markers stroke"
       id="path12384" />
    <path
       d="m 63.364513,87.250834 a 1.122532,0.44901281 0 0 0 0.567389,0.59277 1.122532,0.44901281 0 0 0 1.482399,-0.22646 1.122532,0.44901281 0 0 0 -0.564928,-0.59315 1.122532,0.44901281 0 0 0 -1.483341,0.22548"
       style="fill:#001302;fill-opacity:1;stroke:none;stroke-width:0.79375;stroke-linecap:round;stroke-miterlimit:4;stroke-dasharray:none;stroke-opacity:1;paint-order:fill markers stroke"
       id="path12386" />
    <path
       d="m 68.127833,91.675753 a 1.122532,0.44901281 0 0 1 -0.567391,0.592781 1.122532,0.44901281 0 0 1 -1.482399,-0.22646 1.122532,0.44901281 0 0 1 0.56493,-0.593151 1.122532,0.44901281 0 0 1 1.483339,0.225481"
       style="fill:#001302;fill-opacity:1;stroke:none;stroke-width:0.79375;stroke-linecap:round;stroke-miterlimit:4;stroke-dasharray:none;stroke-opacity:1;paint-order:fill markers stroke"
       id="path12388" />
    <path
       d="m 63.738721,90.915134 a 1.122532,0.44901281 0 0 0 0.567381,0.592781 1.122532,0.44901281 0 0 0 1.48241,-0.22646 1.122532,0.44901281 0 0 0 -0.564931,-0.59315 1.122532,0.44901281 0 0 0 -1.483338,0.22548"
       style="fill:#001302;fill-opacity:1;stroke:none;stroke-width:0.79375;stroke-linecap:round;stroke-miterlimit:4;stroke-dasharray:none;stroke-opacity:1;paint-order:fill markers stroke"
       id="path12390" />
    <path
       d="m 68.034322,95.207076 a 1.122532,0.44901281 0 0 1 -0.567381,0.59277 1.122532,0.44901281 0 0 1 -1.48241,-0.226463 1.122532,0.44901281 0 0 1 0.56493,-0.593148 1.122532,0.44901281 0 0 1 1.483342,0.225478"
       style="fill:#001302;fill-opacity:1;stroke:none;stroke-width:0.79375;stroke-linecap:round;stroke-miterlimit:4;stroke-dasharray:none;stroke-opacity:1;paint-order:fill markers stroke"
       id="path12392" />
    <path
       d="m 63.645151,94.314125 a 1.122532,0.44901281 0 0 0 0.567381,0.592778 1.122532,0.44901281 0 0 0 1.48241,-0.22647 1.122532,0.44901281 0 0 0 -0.56493,-0.593148 1.122532,0.44901281 0 0 0 -1.483339,0.22548"
       style="fill:#001302;fill-opacity:1;stroke:none;stroke-width:0.79375;stroke-linecap:round;stroke-miterlimit:4;stroke-dasharray:none;stroke-opacity:1;paint-order:fill markers stroke"
       id="path12394" />
    <path
       d="m 68.057703,98.294043 a 1.122532,0.44901281 0 0 1 -0.567391,0.592781 1.122532,0.44901281 0 0 1 -1.4824,-0.22647 1.122532,0.44901281 0 0 1 0.564931,-0.593148 1.122532,0.44901281 0 0 1 1.483339,0.225478"
       style="fill:#001302;fill-opacity:1;stroke:none;stroke-width:0.79375;stroke-linecap:round;stroke-miterlimit:4;stroke-dasharray:none;stroke-opacity:1;paint-order:fill markers stroke"
       id="path12396" />
    <path
       d="m 63.668522,97.566445 a 1.122532,0.44901281 0 0 0 0.567391,0.59278 1.122532,0.44901281 0 0 0 1.48241,-0.22647 1.122532,0.44901281 0 0 0 -0.56493,-0.593151 1.122532,0.44901281 0 0 0 -1.483342,0.225481"
       style="fill:#001302;fill-opacity:1;stroke:none;stroke-width:0.79375;stroke-linecap:round;stroke-miterlimit:4;stroke-dasharray:none;stroke-opacity:1;paint-order:fill markers stroke"
       id="path12398" />
    <path
       d="m 68.174643,101.52134 a 1.122532,0.44901281 0 0 1 -0.56738,0.59277 1.122532,0.44901281 0 0 1 -1.48241,-0.22646 1.122532,0.44901281 0 0 1 0.56493,-0.59315 1.122532,0.44901281 0 0 1 1.483339,0.22548"
       style="fill:#001302;fill-opacity:1;stroke:none;stroke-width:0.79375;stroke-linecap:round;stroke-miterlimit:4;stroke-dasharray:none;stroke-opacity:1;paint-order:fill markers stroke"
       id="path12400" />
    <path
       d="m 63.785473,100.59525 a 1.122532,0.44901281 0 0 0 0.567381,0.59277 1.122532,0.44901281 0 0 0 1.482407,-0.22646 1.122532,0.44901281 0 0 0 -0.564928,-0.59315 1.122532,0.44901281 0 0 0 -1.483341,0.22548"
       style="fill:#001302;fill-opacity:1;stroke:none;stroke-width:0.79375;stroke-linecap:round;stroke-miterlimit:4;stroke-dasharray:none;stroke-opacity:1;paint-order:fill markers stroke"
       id="path12402" />
    <path
       d="m 68.174643,103.88334 a 1.122532,0.44901281 0 0 1 -0.56738,0.59277 1.122532,0.44901281 0 0 1 -1.48241,-0.22645 1.122532,0.44901281 0 0 1 0.56493,-0.59316 1.122532,0.44901281 0 0 1 1.483339,0.22548"
       style="fill:#001302;fill-opacity:1;stroke:none;stroke-width:0.79375;stroke-linecap:round;stroke-miterlimit:4;stroke-dasharray:none;stroke-opacity:1;paint-order:fill markers stroke"
       id="path12404" />
    <path
       d="m 63.785473,102.95725 a 1.122532,0.44901281 0 0 0 0.567381,0.59277 1.122532,0.44901281 0 0 0 1.482407,-0.22646 1.122532,0.44901281 0 0 0 -0.564928,-0.59315 1.122532,0.44901281 0 0 0 -1.483341,0.22548"
       style="fill:#001302;fill-opacity:1;stroke:none;stroke-width:0.79375;stroke-linecap:round;stroke-miterlimit:4;stroke-dasharray:none;stroke-opacity:1;paint-order:fill markers stroke"
       id="path12406" />
    <path
       id="path11525"
       d="m 83.929462,65.843684 c -0.88051,8.85886 -4.774668,19.31343 -12.41797,27.31055 -7.643299,7.997106 -19.01595,13.569256 -35.01563,12.716786 l -0.0566,1.05664 c 16.27209,0.86698 28.000812,-4.84115 35.837892,-13.041006 7.83708,-8.19987 11.802387,-18.85739 12.70508,-27.93946 z"
       style="color:#000000;font-style:normal;font-variant:normal;font-weight:normal;font-stretch:normal;font-size:medium;line-height:normal;font-family:sans-serif;font-variant-ligatures:normal;font-variant-position:normal;font-variant-caps:normal;font-variant-numeric:normal;font-variant-alternates:normal;font-variant-east-asian:normal;font-feature-settings:normal;font-variation-settings:normal;text-indent:0;text-align:start;text-decoration:none;text-decoration-line:none;text-decoration-style:solid;text-decoration-color:#000000;letter-spacing:normal;word-spacing:normal;text-transform:none;writing-mode:lr-tb;direction:ltr;text-orientation:mixed;dominant-baseline:auto;baseline-shift:baseline;text-anchor:start;white-space:normal;shape-padding:0;shape-margin:0;inline-size:0;clip-rule:nonzero;display:inline;overflow:visible;visibility:visible;opacity:1;isolation:auto;mix-blend-mode:normal;color-interpolation:sRGB;color-interpolation-filters:linearRGB;solid-color:#000000;solid-opacity:1;vector-effect:none;fill:#050a05;fill-opacity:1;fill-rule:nonzero;stroke:none;stroke-width:1.05833;stroke-linecap:butt;stroke-linejoin:miter;stroke-miterlimit:4;stroke-dasharray:none;stroke-dashoffset:0;stroke-opacity:1;color-rendering:auto;image-rendering:auto;shape-rendering:auto;text-rendering:auto;enable-background:accumulate;stop-color:#000000;stop-opacity:1" />
    <path
       id="path11529"
       d="m 79.648212,65.994074 -0.792969,0.0527 c 0.68862,10.32186 -3.94925,20.99269 -7.054691,26.96875 l 0.70508,0.367191 c 3.134,-6.031031 7.84928,-16.795801 7.14258,-27.388671 z"
       style="color:#000000;font-style:normal;font-variant:normal;font-weight:normal;font-stretch:normal;font-size:medium;line-height:normal;font-family:sans-serif;font-variant-ligatures:normal;font-variant-position:normal;font-variant-caps:normal;font-variant-numeric:normal;font-variant-alternates:normal;font-variant-east-asian:normal;font-feature-settings:normal;font-variation-settings:normal;text-indent:0;text-align:start;text-decoration:none;text-decoration-line:none;text-decoration-style:solid;text-decoration-color:#000000;letter-spacing:normal;word-spacing:normal;text-transform:none;writing-mode:lr-tb;direction:ltr;text-orientation:mixed;dominant-baseline:auto;baseline-shift:baseline;text-anchor:start;white-space:normal;shape-padding:0;shape-margin:0;inline-size:0;clip-rule:nonzero;display:inline;overflow:visible;visibility:visible;opacity:1;isolation:auto;mix-blend-mode:normal;color-interpolation:sRGB;color-interpolation-filters:linearRGB;solid-color:#000000;solid-opacity:1;vector-effect:none;fill:#050a05;fill-opacity:1;fill-rule:nonzero;stroke:none;stroke-width:0.79375;stroke-linecap:butt;stroke-linejoin:miter;stroke-miterlimit:4;stroke-dasharray:none;stroke-dashoffset:0;stroke-opacity:1;color-rendering:auto;image-rendering:auto;shape-rendering:auto;text-rendering:auto;enable-background:accumulate;stop-color:#000000;stop-opacity:1" />
  </g>
</svg>
