<?xml version="1.0" encoding="UTF-8" standalone="no"?>
<svg
   xmlns:dc="http://purl.org/dc/elements/1.1/"
   xmlns:cc="http://creativecommons.org/ns#"
   xmlns:rdf="http://www.w3.org/1999/02/22-rdf-syntax-ns#"
   xmlns:svg="http://www.w3.org/2000/svg"
   xmlns="http://www.w3.org/2000/svg"
   xmlns:sodipodi="http://sodipodi.sourceforge.net/DTD/sodipodi-0.dtd"
   xmlns:inkscape="http://www.inkscape.org/namespaces/inkscape"
   sodipodi:docname="11_hanging_vines_main_menu_left_shadow.svg"
   inkscape:version="1.0 (4035a4fb49, 2020-05-01)"
   id="svg13710"
   version="1.1"
   viewBox="0 0 49.358932 87.852417"
   height="87.852417mm"
   width="49.358932mm">
  <defs
     id="defs13704">
    <filter
       height="1.0094146"
       y="-0.0047072684"
       width="1.0168797"
       x="-0.0084398557"
       id="filter11801"
       style="color-interpolation-filters:sRGB"
       inkscape:collect="always">
      <feGaussianBlur
         id="feGaussianBlur11803"
         stdDeviation="0.17070329"
         inkscape:collect="always" />
    </filter>
  </defs>
  <sodipodi:namedview
     inkscape:window-maximized="1"
     inkscape:window-y="-8"
     inkscape:window-x="-8"
     inkscape:window-height="705"
     inkscape:window-width="1366"
     fit-margin-bottom="0"
     fit-margin-right="0"
     fit-margin-left="0"
     fit-margin-top="0"
     showgrid="false"
     inkscape:document-rotation="0"
     inkscape:current-layer="layer1"
     inkscape:document-units="mm"
     inkscape:cy="157.03775"
     inkscape:cx="201.52623"
     inkscape:zoom="1.3422939"
     inkscape:pageshadow="2"
     inkscape:pageopacity="0.0"
     borderopacity="1.0"
     bordercolor="#666666"
     pagecolor="#ffffff"
     id="base" />
  <metadata
     id="metadata13707">
    <rdf:RDF>
      <cc:Work
         rdf:about="">
        <dc:format>image/svg+xml</dc:format>
        <dc:type
           rdf:resource="http://purl.org/dc/dcmitype/StillImage" />
        <dc:title></dc:title>
      </cc:Work>
    </rdf:RDF>
  </metadata>
  <g
     transform="translate(-62.050173,-112.18714)"
     id="layer1"
     inkscape:groupmode="layer"
     inkscape:label="Layer 1">
    <path
       id="path12500"
       style="color:#000000;font-style:normal;font-variant:normal;font-weight:normal;font-stretch:normal;font-size:medium;line-height:normal;font-family:sans-serif;font-variant-ligatures:normal;font-variant-position:normal;font-variant-caps:normal;font-variant-numeric:normal;font-variant-alternates:normal;font-variant-east-asian:normal;font-feature-settings:normal;font-variation-settings:normal;text-indent:0;text-align:start;text-decoration:none;text-decoration-line:none;text-decoration-style:solid;text-decoration-color:#000000;letter-spacing:normal;word-spacing:normal;text-transform:none;writing-mode:lr-tb;direction:ltr;text-orientation:mixed;dominant-baseline:auto;baseline-shift:baseline;text-anchor:start;white-space:normal;shape-padding:0;shape-margin:0;inline-size:0;clip-rule:nonzero;display:inline;overflow:visible;visibility:visible;opacity:1;isolation:auto;mix-blend-mode:normal;color-interpolation:sRGB;color-interpolation-filters:linearRGB;solid-color:#000000;solid-opacity:1;vector-effect:none;fill:#000000;fill-opacity:1;fill-rule:nonzero;stroke:none;stroke-width:2.3889;stroke-linecap:butt;stroke-linejoin:miter;stroke-miterlimit:4;stroke-dasharray:none;stroke-dashoffset:0;stroke-opacity:1;filter:url(#filter11801);color-rendering:auto;image-rendering:auto;shape-rendering:auto;text-rendering:auto;enable-background:accumulate;stop-color:#000000;stop-opacity:1"
       d="m 88.00374,112.59683 -2.3813,0.0411 0.088,5.12967 c -0.4501,0.39485 -0.8528,0.84455 -1.1937,1.34027 -0.3968,0.57825 -0.7013,1.21533 -0.9173,1.88116 -0.1443,-0.74675 -0.4066,-1.47014 -0.7865,-2.12976 -0.1209,-0.20975 -0.257,-0.40971 -0.3994,-0.60487 0.2129,0.0396 0.4205,0.10595 0.6118,0.20543 l 0.066,-0.12898 0.066,-0.1295 c -0.2914,-0.15058 -0.6108,-0.23742 -0.9354,-0.26682 l -0.041,-4.57265 -1.588,0.0161 0.029,3.16995 c -0.3074,-0.20083 -0.6304,-0.37766 -0.9668,-0.5258 l -0.1349,0.31099 -0.1354,0.31156 c 0.4416,0.19409 0.8597,0.44321 1.2444,0.73748 l 0.01,0.92524 c -0.6267,0.39605 -1.0729,1.06672 -1.1829,1.80524 -0.078,0.54807 0.018,1.09926 0.2165,1.60656 -0.074,-0.049 -0.1532,-0.0892 -0.2444,-0.0926 0.2829,-0.48648 -0.1095,-0.51803 -0.4832,-0.19761 -0.1769,0.15165 -0.5615,0.12201 -0.5684,0.29747 0.047,0.20965 0.4626,0.10044 0.6402,0.23457 0.3913,0.29552 0.7027,0.17141 0.4134,-0.28605 0.087,0.002 0.1715,0.0344 0.2522,0.0713 0.067,0.1676 0.1449,0.33032 0.2315,0.48626 0.2188,0.39576 0.4875,0.75333 0.7705,1.09585 l 0.042,4.60279 c -0.8074,0.12518 -1.263,0.81143 -1.3968,1.28827 -0.01,-0.6609 -0.3871,-1.75778 -1.4252,-2.19218 -0.3279,1.06558 0.2549,2.02524 0.7689,2.46785 -0.5335,-0.2844 -1.5629,-0.4565 -2.3533,0.20647 0.5166,0.50858 1.1989,0.61371 1.7472,0.55026 h 5e-4 c 0.7452,-0.0221 1.1838,0.32393 1.5374,0.777 -0.01,0.0303 -0.02,0.0601 -0.03,0.0905 -0.064,0.20855 -0.1173,0.42142 -0.1644,0.63607 -0.047,4.1e-4 -0.094,-0.005 -0.1385,-0.0172 0.4078,-0.35298 0.1458,-0.56269 -0.3136,-0.39423 -0.2087,0.0765 -0.5752,-0.14938 -0.6806,0.0374 -0.044,0.16998 0.3328,0.25413 0.4583,0.45091 0.2653,0.41573 0.6497,0.50012 0.5194,-0.0478 0.049,0.013 0.098,0.0145 0.1462,0.009 -0.1701,0.79425 -0.2196,1.62243 -0.081,2.43921 0.061,0.33257 0.1535,0.65137 0.2636,0.96218 -0.1509,0.12624 -0.3678,0.22791 -0.3214,0.3807 0.07,0.11251 0.2691,0.016 0.4609,-0.0192 0.115,0.27709 0.2414,0.54847 0.3829,0.81134 0.216,0.40108 0.4552,0.78278 0.7054,1.15928 l 0.036,3.97716 c -0.4395,0.1975 -0.8519,0.41178 -1.2387,0.74113 -0.7914,0.67646 -1.1434,1.63595 -1.1621,2.44911 -0.028,1.24197 0.6342,2.10577 1.0371,2.48654 -0.376,-0.36015 -1.0486,-1.22951 -0.9994,-2.4855 0.031,-0.80011 0.3929,-1.73848 1.1777,-2.38619 0.3703,-0.30685 0.7632,-0.50579 1.1865,-0.6886 l 0.056,6.17922 c -0.2421,0.43183 -0.4656,0.8772 -0.6403,1.34911 -0.055,0.14912 -0.1034,0.30152 -0.1473,0.45508 -0.042,-0.25999 -0.013,-0.53009 0.1034,-0.78066 v 0.003 c 0.1269,-0.18546 0.2187,-0.43317 0.1591,-0.70835 -0.4269,0.14319 -0.6006,0.56531 -0.619,0.82797 -0.056,-0.34391 -0.3521,-0.90087 -0.9499,-1.03393 -0.075,0.60649 0.344,1.05979 0.6579,1.23261 -0.2984,-0.10905 -0.8754,-0.11837 -1.2397,0.31728 0.3198,0.21923 0.6889,0.20792 0.9709,0.12169 l -0.01,0.003 c 0.3808,-0.08 0.6404,0.0527 0.8646,0.25018 -0.1426,0.5928 -0.1903,1.20859 -0.094,1.81354 0.1186,0.70907 0.4254,1.35755 0.8035,1.92488 0.062,0.0932 0.1284,0.18249 0.1938,0.27252 v 0.22832 c -5.3097,1.76819 -11.4323,2.63416 -18.4428,2.25823 l -0.056,1.06307 c 6.143,0.3294 11.6375,-0.28563 16.5205,-1.62165 0.5131,0.50765 0.9012,1.07648 0.8816,2.28788 0.3277,-2.01817 0.8001,-2.61318 1.1121,-2.36849 l 0.1767,19.52891 v 0.28917 0 c 0.068,2.41342 -0.044,5.05156 0.2734,7.61934 0.061,-1.81312 -0.079,-7.62411 0.6547,-4.84882 -0.095,-2.09205 0.1176,-2.97887 0.7018,-0.65896 -0.056,-5.30373 0.1741,-3.01692 0.4677,-2.40073 -0.1837,-1.56949 -0.6923,-4.52868 0.3276,-2.56562 -0.4498,-1.41521 -1.0177,-5.43012 -0.2341,-4.73074 -0.3941,-0.68327 -0.5776,-1.21441 -0.6935,-1.67989 l -0.092,-10.19951 c 0.013,-0.0921 0.025,-0.18781 0.039,-0.27409 0.2568,0.29299 0.5038,0.58802 0.7245,0.9008 0.3887,0.55217 0.6924,1.13784 0.831,1.75789 0.1932,0.84421 0.074,1.75208 -0.058,2.55678 -0.1587,0.95443 -0.3208,1.75067 -0.2739,2.6119 0.01,0.16746 0.03,0.32985 0.054,0.48941 -4e-4,1.5e-4 -7e-4,3.7e-4 -0.001,5e-4 -0.2284,0.0985 -0.4668,0.22275 -0.7178,0.33651 -0.1209,0.0542 -0.2438,0.1066 -0.37,0.15135 0.087,0.049 0.1732,0.0949 0.2584,0.13784 0.3953,0.20083 0.7713,0.34108 1.1059,0.41657 0.1219,0.31835 0.2689,0.61097 0.431,0.87013 0.5642,0.90233 1.2815,1.42683 1.8097,1.72253 -0.5022,-0.288 -1.2185,-0.82105 -1.7684,-1.74802 -0.1477,-0.24885 -0.2811,-0.52759 -0.3912,-0.82953 0.7677,0.15188 1.2954,-0.0503 1.2971,-0.65273 0.12,0.82781 0.43,1.60627 0.8268,2.30504 0.062,0.11015 0.1303,0.2152 0.1959,0.32247 l 0.2005,11.65577 c -0.081,0.11332 -0.1623,0.22703 -0.2388,0.34481 -0.4023,0.61776 -0.7131,1.29493 -0.8382,2.01534 -0.1542,0.91597 0.01,1.83918 0.3256,2.64571 0.225,0.56848 0.5298,1.08803 0.8645,1.56963 l 0.2455,14.27495 c 0.5521,-0.1025 1.096,-0.24217 1.3891,-1.47447 l -0.088,-10.91879 c 0.8583,0.94591 1.6954,1.8119 2.2815,2.76377 0.7876,1.27713 1.1453,2.63184 1.2226,3.82424 0.1022,1.57326 -0.2611,2.85766 -0.6294,3.72645 0.3507,-0.80731 0.7634,-2.11219 0.6899,-3.73009 -0.054,-1.19356 -0.382,-2.57339 -1.1586,-3.89601 -0.6146,-1.04502 -1.5154,-1.9965 -2.4086,-3.03682 l -0.075,-9.31378 c 0.4133,-0.46704 0.8324,-0.9574 1.1911,-1.50308 0.079,-0.11917 0.1515,-0.24402 0.2233,-0.36977 0.049,0.0238 0.097,0.0469 0.1436,0.0696 -0.092,0.60972 0.2719,0.85691 0.754,1.0693 0.1726,0.0791 0.3641,0.15187 0.5555,0.23612 0.1,0.0444 0.1997,0.0915 0.2966,0.14459 0,0 0,-5.3e-4 0,-5.3e-4 -0.035,-0.15722 -0.077,-0.30557 -0.1225,-0.44468 -0.3448,-1.07454 -0.9484,-1.62432 -1.4458,-1.09166 -0.047,-0.0198 -0.094,-0.0359 -0.1422,-0.0483 0.273,-0.49237 0.486,-1.03186 0.5809,-1.61021 0.108,-0.69623 0.037,-1.40355 -0.1514,-2.07882 0.04,0.003 0.074,0.006 0.1095,0.009 0.1445,0.64633 0.6035,0.75269 1.1674,0.77649 0.3125,0.018 0.6631,0.002 1.0103,0.0468 0,0 5e-4,0 5e-4,0 -0.8365,-1.24484 -1.8429,-1.7519 -2.1735,-0.92524 -0.046,-0.001 -0.092,-8.6e-4 -0.138,0.004 -0.071,-0.23829 -0.1555,-0.47247 -0.2532,-0.70003 -0.2385,-0.55889 -0.5418,-1.07737 -0.8682,-1.57797 0.034,-0.0726 0.09,-0.18267 0.1344,-0.27097 0.7535,0.12601 1.0686,-0.32252 1.3405,-0.92159 0.1568,-0.33185 0.2941,-0.7203 0.4945,-1.07868 v -5e-4 c -0.099,0.021 -0.195,0.0441 -0.2884,0.0686 -0.8957,0.23263 -1.5505,0.60977 -1.7967,1.01937 l -0.1732,-10.05075 c 0.2976,-0.47895 0.5803,-0.9737 0.815,-1.50463 0.2135,-0.47918 0.3785,-0.98816 0.4754,-1.51347 0.08,0.032 0.1536,0.0606 0.2279,0.09 -0.08,1.06631 0.5729,1.45387 1.4294,1.75945 0.4822,0.18097 1.0441,0.32466 1.5704,0.56326 -0.041,-0.13282 -0.084,-0.26121 -0.1281,-0.38695 -4e-4,-10e-4 -7e-4,-0.002 -0.001,-0.003 -0.7357,-2.08449 -1.9624,-3.15329 -2.8154,-2.08974 -0.086,-0.029 -0.1724,-0.0507 -0.2599,-0.066 0.064,-0.3994 0.089,-0.8076 0.059,-1.21962 -0.01,-0.0778 -0.017,-0.15413 -0.027,-0.23092 a 1.122532,0.45190357 0 0 0 0.2413,0.2538 1.122532,0.45190357 0 0 0 1.2646,-0.1945 l 0.012,0.62306 a 0.396875,0.39943009 0 0 0 0.4041,0.39112 0.396875,0.39943009 0 0 0 0.1829,-0.0484 1.122532,0.45190357 0 0 0 1.3906,0.1607 1.122532,0.45190357 0 0 0 0.5674,-0.59654 v -0.001 a 1.122532,0.45190357 0 0 0 -1.4831,-0.22727 1.122532,0.45190357 0 0 0 -0.2703,0.0691 l -0.033,-1.70227 a 1.122532,0.45190357 0 0 0 1.2201,0.0811 1.122532,0.45190357 0 0 0 0.5674,-0.59655 v -0.002 a 1.122532,0.45190357 0 0 0 -1.4831,-0.22677 1.122532,0.45190357 0 0 0 -0.3152,0.0853 l -0.046,-2.36069 c 0.072,-0.0515 0.1456,-0.10156 0.217,-0.15343 a 1.122532,0.45190357 0 0 0 0.9441,0.005 1.122532,0.45190357 0 0 0 0.5674,-0.59654 v -0.001 a 1.122532,0.45190357 0 0 0 -0.4527,-0.20388 c 0.354,-0.27491 0.7011,-0.55526 1.0434,-0.83944 0.4079,0.6659 0.547,2.09163 0.7183,2.52715 -3e-4,-1.41559 0.1779,-2.33358 0.9824,-1.50621 -0.4749,-1.50367 1.0458,-2.75164 1.7306,-1.12963 -0.2284,-1.6165 0.4155,-1.99996 0.7018,-1.45936 -0.2891,-2.66462 0.8132,-2.94428 1.3327,-0.63557 -0.062,-4.26312 1.3482,-1.08965 1.8237,0.6418 -0.3278,-2.27004 0.016,-4.40476 0.2408,-6.56354 5.2774,-7.3755 8.0654,-15.90917 8.8036,-23.38434 l -1.0527,-0.10612 c -0.7768,7.86616 -3.8996,16.98305 -9.8727,24.5483 2.9191,-6.27605 6.1882,-15.39067 5.5913,-24.39487 l -0.7906,0.053 c 0.6748,10.17956 -3.762,20.68459 -6.8626,26.76235 -0.1596,0.1738 -0.3182,0.34795 -0.4811,0.51955 -1.5741,1.65755 -3.3096,3.20929 -5.208,4.62465 l -0.039,-2.0372 a 1.122532,0.45190357 0 0 0 1.202,0.0744 1.122532,0.45190357 0 0 0 0.5674,-0.59654 v -0.002 a 1.122532,0.45190357 0 0 0 -1.4836,-0.22674 1.122532,0.45190357 0 0 0 -0.2972,0.0785 l -0.057,-2.95413 a 1.122532,0.45190357 0 0 0 0.8367,0.18464 c 0.3189,0.21689 0.6501,0.43994 0.9694,0.68651 0.1023,0.0795 0.2034,0.16047 0.3023,0.24499 0,-0.19926 -0.011,-0.39363 -0.024,-0.58356 -0.016,-0.2524 -0.038,-0.49567 -0.068,-0.73123 a 1.122532,0.45190357 0 0 0 -0.027,-0.18621 c -0.2839,-1.99526 -1.0563,-3.30528 -2.0598,-3.25368 v -0.20179 a 1.122532,0.45190357 0 0 0 1.0645,0.0327 1.122532,0.45190357 0 0 0 0.5669,-0.59706 l -0.001,-0.001 a 1.122532,0.45190357 0 0 0 -1.2919,-0.25379 c 0.3339,-0.61382 0.5597,-1.29485 0.615,-2.01588 a 1.122532,0.45190357 0 0 0 0.2046,-0.0276 1.122532,0.45190357 0 0 0 0.5674,-0.59656 v -0.001 a 1.122532,0.45190357 0 0 0 -0.802,-0.25795 c -0.089,-0.62807 -0.3057,-1.22659 -0.6103,-1.7678 a 1.122532,0.45190357 0 0 0 0.5891,-0.0364 1.122532,0.45190357 0 0 0 0.5674,-0.59654 v -0.001 a 1.122532,0.45190357 0 0 0 -1.4836,-0.22728 1.122532,0.45190357 0 0 0 -0.1044,0.0218 l -0.044,-2.31285 a 1.122532,0.45190357 0 0 0 1.0666,0.0328 1.122532,0.45190357 0 0 0 0.5674,-0.59657 v -0.002 a 1.122532,0.45190357 0 0 0 -1.4836,-0.22677 1.122532,0.45190357 0 0 0 -0.1633,0.0364 l -0.038,-1.96594 a 1.122532,0.45190357 0 0 0 1.1187,0.0479 1.122532,0.45190357 0 0 0 0.5674,-0.59653 v -0.002 a 1.122532,0.45190357 0 0 0 -1.4836,-0.22677 1.122532,0.45190357 0 0 0 -0.215,0.051 l -0.034,-1.76 a 1.122532,0.45190357 0 0 0 1.1669,0.0624 1.122532,0.45190357 0 0 0 0.5674,-0.59657 v -0.002 a 1.122532,0.45190357 0 0 0 -1.4836,-0.22677 1.122532,0.45190357 0 0 0 -0.2625,0.0665 l -0.1344,-7.01186 c 0.2881,0.0591 0.5726,0.13466 0.8485,0.23454 l 0.168,-0.47119 0.1684,-0.47173 c -0.3918,-0.14137 -0.7956,-0.24528 -1.2046,-0.31621 l -0.012,-0.64439 a 0.396875,0.39943009 0 0 0 -0.4061,-0.39113 0.396875,0.39943009 0 0 0 -0.3886,0.40674 l 0.01,0.53933 c -0.8953,-0.0549 -1.7998,0.0492 -2.6567,0.32556 -0.064,0.0208 -0.1265,0.0481 -0.1902,0.0707 z m 2.574,4.37502 c 0.1192,0.002 0.2381,0.012 0.357,0.0208 l 0.1375,7.13878 a 1.122532,0.45190357 0 0 0 -0.3623,-0.38279 1.122532,0.45190357 0 0 0 -1.4836,0.22677 v 0.002 a 1.122532,0.45190357 0 0 0 0.5674,0.59656 1.122532,0.45190357 0 0 0 1.2847,-0.19713 l 0.037,1.93787 a 1.122532,0.45190357 0 0 0 -0.4041,-0.42702 1.122532,0.45190357 0 0 0 -1.4837,0.22677 v 0.002 a 1.122532,0.45190357 0 0 0 0.5674,0.59654 1.122532,0.45190357 0 0 0 1.3255,-0.20386 l 0.045,2.36483 a 1.122532,0.45190357 0 0 0 -0.4532,-0.47899 1.122532,0.45190357 0 0 0 -1.4836,0.22677 v 0.002 a 1.122532,0.45190357 0 0 0 0.5674,0.59657 1.122532,0.45190357 0 0 0 1.3735,-0.21117 l 0.05,2.58693 c -0.3599,-0.34917 -0.7453,-0.66474 -1.1394,-0.95385 -0.5878,-0.43721 -1.1919,-0.82703 -1.7829,-1.21648 l -0.2062,-11.97978 c 0.1564,-0.0654 0.315,-0.12444 0.476,-0.17631 0.6471,-0.20946 1.3321,-0.3082 2.0149,-0.29645 z m -9.9369,1.68509 0.02,2.22599 c 0,-0.003 0,-0.007 -0.01,-0.0101 -0.1998,-0.0759 -0.3377,0.33382 -0.5468,0.40931 -0.1,0.0361 -0.1776,0.0807 -0.2387,0.12741 -0.1339,-0.41037 -0.1915,-0.83848 -0.1277,-1.25444 0.086,-0.58959 0.4257,-1.13987 0.9008,-1.4984 z m 5.0937,0.50813 0.1437,8.34225 c -0.054,-0.0599 -0.1078,-0.11953 -0.1592,-0.1815 -0.8823,-1.04094 -1.4153,-2.39213 -1.4831,-3.75869 -0.069,-1.36651 0.3259,-2.76475 1.0997,-3.88979 0.1225,-0.17854 0.2579,-0.34755 0.3989,-0.51227 z m -3.501,0.0427 c 0.6444,1.1212 0.926,2.45847 0.7875,3.7462 -0.071,0.719 -0.2743,1.4135 -0.5488,2.09597 -0.061,-0.0899 -0.1243,-0.17694 -0.1886,-0.26368 z m -1.5705,1.93474 0.015,1.71786 c -0.1898,-0.24629 -0.3667,-0.49939 -0.5142,-0.76871 -0.034,-0.0623 -0.066,-0.1258 -0.097,-0.18982 0.034,-0.025 0.065,-0.0543 0.09,-0.09 0.2481,0.50589 0.4903,0.193 0.43,-0.2975 -0.014,-0.117 0.038,-0.25262 0.075,-0.37186 z m -0.6511,0.63711 c 0.032,0.004 0.065,0.007 0.1039,0.008 -0.019,0.0281 -0.042,0.0534 -0.067,0.077 0,0 0,-5.1e-4 0,-5.1e-4 -0.013,-0.0277 -0.024,-0.0563 -0.037,-0.0842 z m 3.3465,2.78353 c 0.1094,0.59341 0.2914,1.17107 0.5406,1.71941 -0.1165,0.0388 -0.2385,0.0831 -0.337,0.0614 -0.215,-0.0476 -0.3761,-0.0218 -0.4526,0.0447 -0.056,-0.20808 -0.1301,-0.41064 -0.2191,-0.60591 0.1759,-0.3981 0.3375,-0.80291 0.4681,-1.21961 z m -1.0702,0.73644 c 0.015,0.0236 0.03,0.0474 0.045,0.0712 -0.014,0.0333 -0.029,0.0666 -0.043,0.0998 z m 0.4377,0.84463 c 0.1676,0.44364 0.2524,0.91182 0.1907,1.36888 0,0.0124 0,0.0245 -0.01,0.0369 -0.055,0.0231 -0.1113,0.0389 -0.169,0.0432 0.2657,-0.47108 -0.052,-0.57949 -0.4279,-0.26471 0,0.002 -0.01,0.003 -0.01,0.004 v -0.34378 c 0.1463,-0.27808 0.2875,-0.55939 0.4222,-0.84463 z m 1.3152,0.43791 c 0.2533,0.49686 0.56,0.96676 0.9209,1.39331 0.2937,0.34088 0.6104,0.6482 0.9405,0.93411 l 0.2372,13.81152 c -0.045,-0.0115 -0.084,-0.0206 -0.1251,-0.0307 -0.063,-1.06902 -0.7629,-1.36441 -1.6541,-1.55143 -0.2579,-0.0584 -0.5363,-0.10705 -0.8202,-0.16018 -0.071,-0.22798 -0.1538,-0.45068 -0.247,-0.66571 0.017,-0.0164 0.036,-0.0305 0.053,-0.0473 0.2617,-0.26074 0.4788,-0.58564 0.5964,-0.95018 0.039,0.005 0.076,0.0139 0.1095,0.0312 -0.2643,0.14889 -0.1425,0.29499 0.1313,0.2543 0.1246,-0.0185 0.3026,0.14888 0.3824,0.0573 0.044,-0.0894 -0.1562,-0.17942 -0.2036,-0.30322 -0.1002,-0.26144 -0.3042,-0.35251 -0.294,-0.0333 -0.038,-0.019 -0.08,-0.0235 -0.121,-0.0224 0.031,-0.0997 0.056,-0.20216 0.071,-0.30736 0,-0.0227 0,-0.0458 0.01,-0.0686 0.051,-0.0101 0.1031,-0.0196 0.1561,-0.0255 0.3334,0.0235 0.7234,-0.0522 1.0294,-0.33962 -0.3833,-0.33326 -0.8592,-0.35584 -1.2201,-0.27252 -0.012,-0.0559 -0.028,-0.11104 -0.044,-0.16592 0.3078,-0.4096 0.5569,-1.05548 0.3333,-1.7371 -0.3995,0.17599 -0.6666,0.474 -0.8345,0.79575 -0.2582,-0.32575 -0.5684,-0.6 -0.8956,-0.85036 0.018,-0.0441 0.041,-0.0852 0.072,-0.12012 0.1061,0.40534 0.3394,0.29288 0.3783,-0.0858 0.018,-0.17194 0.2976,-0.35243 0.2041,-0.48941 -0.1027,-0.0882 -0.2876,0.14713 -0.4661,0.16851 -0.1686,0.0202 -0.2958,0.0803 -0.3519,0.14824 l -0.059,-6.56615 c 0.02,-0.024 0.04,-0.0463 0.059,-0.0707 0.028,-0.0358 0.056,-0.0721 0.084,-0.10871 0.2266,-0.29911 0.4246,-0.62984 0.5612,-0.98607 0.039,0.042 0.084,0.0771 0.1375,0.10089 -0.4412,0.34665 -0.088,0.52216 0.3767,0.36354 0.2201,-0.0751 0.5661,0.0954 0.6371,-0.065 0.033,-0.21223 -0.3927,-0.26591 -0.5085,-0.45663 -0.2549,-0.42015 -0.5899,-0.42067 -0.4893,0.11181 -0.051,-0.0218 -0.098,-0.0527 -0.1411,-0.0905 0.075,-0.20289 0.1311,-0.41365 0.1602,-0.63139 0.029,-0.23533 0.024,-0.47019 0,-0.70212 0.043,-0.003 0.086,-0.0105 0.1271,-0.0276 -0.057,0.5601 0.3128,0.42539 0.5209,-0.0218 0.038,-0.0826 0.1173,-0.15173 0.1948,-0.21689 z m -0.8666,0.0988 c 0.034,0.031 0.079,0.0629 0.1292,0.0957 -0.035,0.0151 -0.072,0.0254 -0.1101,0.0317 -0.01,-0.0427 -0.012,-0.0851 -0.019,-0.12743 z m -0.2713,0.91018 c -0.015,0.0925 -0.034,0.18421 -0.06,0.27459 -0.012,-0.0601 -0.043,-0.13322 -0.1018,-0.22416 0.058,-0.005 0.112,-0.0236 0.1617,-0.0504 z m -0.5912,0.30111 c 0.1942,0.13741 0.3821,0.18936 0.4775,0.14148 -0.1093,0.30823 -0.2761,0.60011 -0.4687,0.87427 z m -1.5854,0.27201 v 0.30791 c -0.3539,0.66066 -0.6903,1.34217 -0.9561,2.05957 0.017,-0.46813 0.1577,-0.92892 0.4346,-1.333 0.2524,-0.25532 0.4701,-0.60878 0.5183,-1.03448 z m 0.016,1.78809 0.01,0.70005 c -0.1849,0.20464 -0.3646,0.42067 -0.5266,0.65323 0.1386,-0.45988 0.3171,-0.90975 0.5198,-1.35328 z m 7.5716,0.69224 c 0.4021,0.26464 0.7973,0.52789 1.1725,0.80355 0.1514,0.11288 0.2986,0.22981 0.4439,0.34792 a 1.122532,0.45190357 0 0 0 -0.7043,0.10818 v 0.001 a 1.122532,0.45190357 0 0 0 0.5674,0.59654 1.122532,0.45190357 0 0 0 0.7963,-0.12223 c 0.2402,0.23628 0.4611,0.48568 0.6563,0.75101 l 0.03,1.56443 a 1.122532,0.45190357 0 0 0 -0.308,-0.32505 1.122532,0.45190357 0 0 0 -1.4831,0.22677 v 0.002 a 1.122532,0.45190357 0 0 0 0.4641,0.48786 c -0.2432,-0.083 -0.5095,-0.14691 -0.786,-0.20493 -0.2478,-0.0561 -0.5079,-0.10489 -0.7757,-0.15341 z m -7.5613,0.43584 0.014,1.49839 c -0.057,-0.0357 -0.1073,-0.0756 -0.1369,-0.1243 -0.255,-0.42015 -0.59,-0.42068 -0.4894,0.11181 -0.063,-0.0271 -0.1185,-0.07 -0.1695,-0.11911 0,-0.0262 0.01,-0.0523 0.01,-0.0785 0.061,-0.18115 0.139,-0.35693 0.2299,-0.5227 0.1507,-0.2733 0.3392,-0.5257 0.5421,-0.76556 z m -0.7865,1.4058 c 0.043,0.0527 0.094,0.0979 0.1581,0.12638 -0.1079,0.0847 -0.1718,0.16028 -0.1943,0.22209 0.01,-0.11613 0.021,-0.23234 0.036,-0.34847 z m -0.042,0.43429 c 0.036,0.12299 0.2849,0.15519 0.5767,0.0557 0.08,-0.0272 0.1749,-0.0207 0.2687,-0.011 l 0.019,2.04136 c -0.029,-0.0272 -0.061,-0.0521 -0.089,-0.0801 -0.3442,-0.34213 -0.6294,-0.7477 -0.7654,-1.19049 -0.025,-0.26948 -0.027,-0.54213 -0.01,-0.8155 z m 0.1664,1.6804 c 0.085,0.11759 0.1765,0.23055 0.2749,0.33651 -0.036,0.0481 -0.075,0.093 -0.122,0.12949 -0.016,-0.0423 -0.028,-0.0854 -0.042,-0.12795 -0.01,-0.0769 -0.029,-0.12819 -0.055,-0.16746 -0.018,-0.057 -0.04,-0.1131 -0.055,-0.17059 z m 0.2914,0.35315 c 0.048,0.051 0.097,0.10111 0.1473,0.14925 0.084,0.0811 0.1731,0.15581 0.262,0.23042 l 0.01,0.88362 c -0.034,-0.0585 -0.069,-0.11567 -0.1018,-0.17474 -0.1005,-0.18301 -0.1913,-0.36798 -0.2765,-0.55443 0.079,-0.0708 0.052,-0.18052 -0.1312,-0.3058 -0.01,-0.0236 -0.021,-0.0466 -0.03,-0.0702 0.053,-0.0429 0.091,-0.0983 0.1225,-0.1581 z m 11.6934,0.0401 c 0,0.0185 0.01,0.037 0.01,0.0557 a 1.122532,0.45190357 0 0 0 -0.01,0.003 z m -0.7948,0.0114 0.024,1.25498 c -0.2096,-0.54847 -0.6136,-0.86963 -1.1297,-1.0849 a 1.122532,0.45190357 0 0 0 1.1059,-0.17008 z m 0.8082,0.70995 a 1.122532,0.45190357 0 0 0 0.023,0.008 c 0,0.0789 -0.01,0.15796 -0.018,0.23665 z m -9.7033,0.37706 c 0.036,0.0352 0.1053,0.0656 0.2078,0.0885 -0.033,0.0382 -0.054,0.0828 -0.067,0.13003 -0.046,-0.0352 -0.093,-0.0697 -0.1401,-0.10401 z m 0,0.38798 c 0.3512,0.25897 0.6787,0.53811 0.9395,0.87427 0.01,0.0101 0.015,0.0206 0.022,0.0307 -0.1081,0.27846 -0.1464,0.55327 -0.1396,0.77441 -0.069,-0.35512 -0.3307,-0.86649 -0.8175,-1.15458 z m 6.0312,0.35574 c 0.3862,0.44024 0.7774,0.76219 1.1539,0.95229 a 1.122532,0.45190357 0 0 0 0.3814,0.40151 1.122532,0.45190357 0 0 0 1.2382,-0.19088 c -0.029,0.0393 -0.056,0.0795 -0.086,0.11807 -0.1889,0.24321 -0.3991,0.47325 -0.6212,0.69589 -0.1513,0.1517 -0.3099,0.29936 -0.4723,0.44518 0,-0.005 -0.011,-0.0101 -0.013,-0.014 0,0.005 0.01,0.0118 0.01,0.0182 -0.3299,0.29603 -0.6763,0.58441 -1.0289,0.87478 -0.1646,0.13399 -0.3312,0.26996 -0.4971,0.40776 z m 1.5807,2.40803 c -7e-4,-0.001 0,-0.004 0,-0.005 l -0.001,0.002 c 6e-4,0.001 0,0.003 0,0.004 z m 0.4858,-0.43115 c -0.001,-8.7e-4 0,-0.003 0,-0.004 l 5e-4,0.003 c 10e-4,5.6e-4 0,5.1e-4 0,0.001 z m 0.8392,-1.42348 0.01,0.41345 c -0.01,0.0101 -0.012,0.0196 -0.019,0.0292 a 1.122532,0.45190357 0 0 0 -0.1901,-0.20076 c 0.07,-0.0697 0.1372,-0.15045 0.201,-0.24183 z m -8.9224,0.72395 c 0.013,0.0128 0.026,0.0253 0.039,0.0374 l 5e-4,5.3e-4 c 0.3575,0.3925 0.4103,0.78941 0.3555,1.18995 -0.1261,-0.22003 -0.2561,-0.43575 -0.3901,-0.64438 z m 1.3968,0.17891 c 0,0.0153 0.01,0.0304 0.011,0.0458 -0.034,0.0127 -0.069,0.0243 -0.1,0.0384 0.029,-0.0262 0.059,-0.0532 0.088,-0.0842 z m 0.046,0.67456 c -1e-4,6.9e-4 1e-4,10e-4 0,0.002 -0.025,0.21122 -0.093,0.41429 -0.1897,0.60433 -0.049,-0.004 -0.098,-0.0117 -0.141,-0.0338 0.2653,-0.14904 0.1438,-0.29504 -0.1303,-0.25433 -0.04,0.006 -0.086,-0.009 -0.1328,-0.0265 0.1793,-0.12899 0.3785,-0.22832 0.5938,-0.29177 z m -0.7555,0.42022 c 0.046,0.0437 0.095,0.0899 0.1152,0.14356 0.1002,0.26144 0.3042,0.35252 0.2941,0.0333 0.048,0.024 0.1,0.0246 0.1514,0.0197 -0.1081,0.21084 -0.2506,0.40525 -0.4134,0.57416 0,0.004 -0.01,0.007 -0.012,0.011 -0.095,-0.20939 -0.1984,-0.41285 -0.307,-0.61216 0.054,-0.0599 0.1113,-0.1164 0.1716,-0.16955 z m 8.0558,0.17581 c -0.038,0.12859 -0.065,0.25178 -0.082,0.36976 -0.061,-0.0397 -0.127,-0.0722 -0.201,-0.0962 0.095,-0.0893 0.1895,-0.18063 0.2827,-0.27356 z m -8.7261,0.44155 c 0.094,0.17381 0.1815,0.34943 0.2615,0.5284 0.01,0.0206 0.016,0.0423 0.025,0.0629 -0.091,0.0612 -0.1848,0.11828 -0.2795,0.17266 z m 0.3396,0.725 c 0.011,0.0263 0.021,0.0526 0.032,0.079 -0.02,-0.006 -0.04,-0.009 -0.059,-0.0146 0.06,0.12997 0.1211,0.25527 0.1839,0.37656 0.01,0.02 0.021,0.04 0.031,0.0598 0.1503,0.4749 0.2406,0.96617 0.2305,1.45782 -0.01,0.7432 -0.2445,1.49054 -0.5783,2.20259 -0.041,0.0874 -0.088,0.17266 -0.1322,0.259 l -0.038,-4.22678 c 0.1119,-0.0599 0.2227,-0.12387 0.3312,-0.19348 z m 6.8874,0.1524 c -0.027,0.37974 0.1026,0.78258 0.2842,1.20973 0.196,0.48324 0.4765,1.00074 0.662,1.55714 h 5e-4 c 0.069,-0.12025 0.1338,-0.23906 0.1953,-0.3573 2e-4,-3.4e-4 4e-4,-7e-4 6e-4,-0.001 0.2936,-0.56394 0.498,-1.10048 0.6087,-1.57743 a 1.122532,0.45190357 0 0 0 0.01,-0.002 l 0.059,3.09508 a 1.122532,0.45190357 0 0 0 -0.3152,-0.33286 1.122532,0.45190357 0 0 0 -1.4831,0.22674 v 0.002 a 1.122532,0.45190357 0 0 0 0.5674,0.59654 1.122532,0.45190357 0 0 0 1.2381,-0.19034 l 0.058,3.01341 a 1.122532,0.45190357 0 0 0 -0.355,-0.37499 1.122532,0.45190357 0 0 0 -1.4836,0.22727 v 0.001 a 1.122532,0.45190357 0 0 0 0.5674,0.59653 1.122532,0.45190357 0 0 0 0.1793,-0.0276 c -1.4047,0.30162 -2.1315,1.01793 -1.5498,1.91186 -0.043,0.0254 -0.085,0.0507 -0.1281,0.076 -0.036,-0.0537 -0.072,-0.10608 -0.108,-0.15915 l -0.1468,-8.52898 c 0.3529,-0.31448 0.7258,-0.61912 1.1028,-0.9294 0.013,-0.0105 0.026,-0.0217 0.039,-0.0322 z m -5.8518,1.63308 c 0.8174,0.95035 1.6738,1.18756 2.1848,0.33754 0.053,0.0102 0.1067,0.02 0.1613,0.0255 v 0.16279 c -0.3782,0.61882 -0.6556,1.32501 -0.7473,2.08973 -0.2834,-0.16251 -0.6009,-0.19846 -0.8707,-0.17111 -0.5344,0.009 -0.822,-0.27148 -1.0604,-0.61267 0.1881,-0.52517 0.3114,-1.07585 0.3307,-1.64349 0,-0.063 -6e-4,-0.12559 0,-0.18827 z m -0.3907,1.99715 c 0.035,0.39402 -0.058,0.79324 -0.2987,1.12807 v -0.003 c -0.1961,0.19437 -0.3632,0.47245 -0.355,0.81862 0.5498,-0.0731 0.8567,-0.54347 0.9394,-0.85659 -0.012,0.42867 0.2164,1.17217 0.9085,1.47342 0.2301,-0.71205 -0.1665,-1.35633 -0.5049,-1.64089 0.278,0.16516 0.7948,0.28988 1.2718,0.0827 -0.014,0.83515 0.197,1.64951 0.5426,2.38566 0.1001,0.21513 0.2106,0.42219 0.3256,0.62516 l 0.058,3.34834 c -1.1999,0.59816 -2.4527,1.14317 -3.7543,1.63569 l -0.065,-7.22302 c 0.2293,-0.3674 0.4509,-0.74292 0.647,-1.13902 0.1027,-0.20645 0.1966,-0.41895 0.2806,-0.63554 z m 8.1318,3.86323 5e-4,0.0292 c -0.1325,0.007 -0.2623,0.0171 -0.3881,0.0302 a 1.122532,0.45190357 0 0 0 0.3876,-0.0593 z m -10.6231,0.52062 0.038,4.21117 c -0.2701,-0.47721 -0.4806,-0.98974 -0.554,-1.52439 -0.1085,-0.74594 0.044,-1.52574 0.3266,-2.25614 0.057,-0.14585 0.1223,-0.28839 0.1891,-0.43064 z m 10.6546,1.1052 0.021,1.10623 a 1.122532,0.45190357 0 0 0 -0.2955,-0.31206 1.122532,0.45190357 0 0 0 -1.2424,0.18983 c 0.5156,-0.31893 1.0217,-0.64664 1.5168,-0.984 z m -1.6914,1.09323 a 1.122532,0.45190357 0 0 0 0.4998,0.52582 1.122532,0.45190357 0 0 0 1.219,-0.18776 l 0.04,2.10116 a 1.122532,0.45190357 0 0 0 -0.3421,-0.36146 1.122532,0.45190357 0 0 0 -1.2221,0.18723 c -0.1372,-0.66284 -0.3935,-1.28479 -0.7059,-1.8484 -0.016,-0.0284 -0.033,-0.055 -0.049,-0.0832 0.1873,-0.11054 0.3754,-0.22038 0.5601,-0.33338 z m -1.1916,1.16083 c 0.2908,0.57657 0.5118,1.18136 0.5622,1.7964 0.078,0.8 -0.1235,1.63827 -0.4547,2.43351 -0.01,0.0243 -0.023,0.0476 -0.034,0.0718 z m -2.3689,0.7786 0.092,5.32885 c -0.2082,-0.36011 -0.5887,-0.61811 -1.0355,-0.86025 -0.4428,-0.24908 -0.9673,-0.47537 -1.4449,-0.78533 -0.01,-0.004 -0.012,-0.007 -0.018,-0.0109 0,0 0,5e-4 0,5e-4 0.02,0.1392 0.043,0.27524 0.068,0.40724 0.01,0.0513 0.021,0.10064 0.031,0.15082 -0.1271,-0.26048 -0.2714,-0.51516 -0.4362,-0.76036 -0.1328,-0.19809 -0.2749,-0.38723 -0.4206,-0.57366 0.087,-0.18219 0.2099,-0.34396 0.3627,-0.47276 0.046,0.15516 0.092,0.32689 0.1401,0.531 0.021,-0.24514 0.058,-0.47836 0.1044,-0.69328 0.056,-0.029 0.1147,-0.0551 0.1762,-0.076 l -0.01,-5e-4 c 0.2211,-0.0354 0.4621,-0.13958 0.6191,-0.37291 -0.2221,-0.11857 -0.4511,-0.11655 -0.647,-0.065 0.3084,-0.85787 0.7794,-0.91647 0.8372,1.34235 0.036,-1.02014 0.1324,-1.86943 0.3886,-2.5391 0.4009,-0.17843 0.7967,-0.36187 1.1875,-0.55075 z m -3.2535,1.57013 c 0.026,0.003 0.054,0.0173 0.082,0.0401 0,0.0899 0.019,0.16959 0.037,0.24133 -0.038,-0.0847 -0.098,-0.17745 -0.1773,-0.26993 0.019,-0.008 0.039,-0.0135 0.058,-0.0115 z m -0.3044,0.45873 c 0.2671,0.22496 0.3301,0.50017 0.3344,0.79159 -0.1313,-0.16534 -0.2694,-0.32886 -0.4072,-0.49098 0.024,-0.1067 0.047,-0.21332 0.073,-0.30061 z m 1.6852,3.59748 c 0.5121,1.13889 1.2601,1.61223 1.9864,0.96061 l 0.015,0.8883 c -0.1207,0.22358 -0.2368,0.45101 -0.3431,0.68547 -0.3956,0.86621 -0.6531,1.82913 -0.615,2.81788 0,0.09 0.014,0.17889 0.023,0.26783 -0.01,0.004 -0.018,0.007 -0.026,0.011 -0.4559,-0.55924 -0.9528,-0.47758 -1.5073,-0.24028 -0.018,-0.14845 -0.033,-0.29917 -0.037,-0.45404 -0.026,-0.8437 0.1557,-1.61769 0.339,-2.57547 0.14,-0.72222 0.269,-1.54348 0.1658,-2.36122 z m 2.035,3.79041 0.051,2.96558 c -0.1645,-0.46912 -0.2703,-0.94961 -0.2801,-1.43129 -0.017,-0.51261 0.073,-1.02891 0.2295,-1.53429 z m 2.4965,6.65354 c 0.035,0.0521 0.078,0.10356 0.1307,0.15445 -0.035,0.0804 -0.061,0.16443 -0.077,0.24341 -0.016,-0.0245 -0.032,-0.0494 -0.048,-0.0739 z m 0.026,1.55976 c 0.1406,0.24199 0.2735,0.48687 0.386,0.74008 0.3601,0.81561 0.5606,1.6986 0.4388,2.53857 -0.088,0.65221 -0.3693,1.27889 -0.724,1.84997 -0.2267,0.36338 -0.493,0.70675 -0.768,1.04432 l -0.012,-1.48849 c 0.7875,0.0935 0.6936,-0.86293 0.7369,-1.33196 z m -2.2293,8.85506 0.091,5.30495 c -0.2178,-0.36556 -0.4097,-0.74995 -0.5581,-1.15359 -0.283,-0.77082 -0.4156,-1.63638 -0.2533,-2.46262 0.1131,-0.59273 0.3799,-1.15613 0.7204,-1.68874 z"
       inkscape:export-filename="D:\Calcatz\Icon Pack\Adventure Narrative Inspired by Jumanji\Assets\PNG\Plant\27_hanging_vines_main_menu_left_shadow.png"
       inkscape:export-xdpi="96"
       inkscape:export-ydpi="96" />
  </g>
</svg>
