<?xml version="1.0" encoding="UTF-8" standalone="no"?>
<svg
   xmlns:dc="http://purl.org/dc/elements/1.1/"
   xmlns:cc="http://creativecommons.org/ns#"
   xmlns:rdf="http://www.w3.org/1999/02/22-rdf-syntax-ns#"
   xmlns:svg="http://www.w3.org/2000/svg"
   xmlns="http://www.w3.org/2000/svg"
   xmlns:sodipodi="http://sodipodi.sourceforge.net/DTD/sodipodi-0.dtd"
   xmlns:inkscape="http://www.inkscape.org/namespaces/inkscape"
   sodipodi:docname="12_bush_main_menu.svg"
   inkscape:version="1.0 (4035a4fb49, 2020-05-01)"
   id="svg14300"
   version="1.1"
   viewBox="0 0 152.69684 39.814926"
   height="39.814926mm"
   width="152.69684mm">
  <defs
     id="defs14294">
    <filter
       inkscape:collect="always"
       style="color-interpolation-filters:sRGB"
       id="filter8148"
       x="-0.0036809016"
       width="1.0073618"
       y="-0.014606326"
       height="1.0292127">
      <feGaussianBlur
         inkscape:collect="always"
         stdDeviation="0.23248104"
         id="feGaussianBlur8150" />
    </filter>
  </defs>
  <sodipodi:namedview
     inkscape:window-maximized="1"
     inkscape:window-y="-8"
     inkscape:window-x="-8"
     inkscape:window-height="705"
     inkscape:window-width="1366"
     fit-margin-bottom="0"
     fit-margin-right="0"
     fit-margin-left="0"
     fit-margin-top="0"
     showgrid="false"
     inkscape:document-rotation="0"
     inkscape:current-layer="layer1"
     inkscape:document-units="mm"
     inkscape:cy="159.417"
     inkscape:cx="231.14005"
     inkscape:zoom="1.3422939"
     inkscape:pageshadow="2"
     inkscape:pageopacity="0.0"
     borderopacity="1.0"
     bordercolor="#666666"
     pagecolor="#ffffff"
     id="base" />
  <metadata
     id="metadata14297">
    <rdf:RDF>
      <cc:Work
         rdf:about="">
        <dc:format>image/svg+xml</dc:format>
        <dc:type
           rdf:resource="http://purl.org/dc/dcmitype/StillImage" />
        <dc:title></dc:title>
      </cc:Work>
    </rdf:RDF>
  </metadata>
  <g
     transform="translate(-12.746576,-110.97545)"
     id="layer1"
     inkscape:groupmode="layer"
     inkscape:label="Layer 1">
    <path
       inkscape:export-ydpi="96"
       inkscape:export-xdpi="96"
       inkscape:export-filename="D:\Calcatz\Icon Pack\Adventure Narrative Inspired by Jumanji\Assets\PNG\Vines\07_bush_main_menu.png"
       d="m 152.77839,112.03383 c -0.61463,0.1287 -1.20752,0.2926 -1.7787,0.4873 -0.95309,0.2924 -1.17275,1.4134 -1.02371,1.9601 0.30235,2.3656 0.82193,3.7465 -0.22428,4.3775 -0.92415,0.5574 -1.43452,-2.0153 -0.98857,-5.3682 -0.52935,0.2816 -1.08462,0.4647 -1.51515,0.9204 -0.5619,0.5947 -0.67686,1.7802 -0.5519,2.2386 0.69422,3.1165 2.21806,4.8941 1.14566,5.6803 -1.31453,0.9637 -2.80284,-2.2153 -2.44998,-6.4306 -0.51845,0.4809 -1.01912,0.9695 -1.43609,1.5063 -0.91254,1.1749 -0.48853,3.044 0.10697,4.0303 1.49023,2.039 3.09986,3.1953 2.56574,4.1336 -0.1651,0.29 -0.42988,0.4453 -0.75241,0.4785 -0.35411,-1.1458 -0.79405,-2.3943 -1.27382,-3.7522 -0.55355,0.6413 -1.08826,1.2611 -1.59216,1.8645 -0.59311,-0.8378 -1.08959,-1.936 -1.33015,-3.2613 -0.9444,1.9574 -1.34207,3.8452 -1.15651,5.2183 0.0529,0.3914 0.16755,0.6837 0.33538,0.9043 -0.24137,0.3831 -0.45428,0.7601 -0.63201,1.1322 -0.47358,-1.0741 -1.03943,-2.2375 -1.65261,-3.498 -0.48613,0.7123 -0.95456,1.3997 -1.39371,2.0671 -0.86748,-1.2482 -1.99326,-2.6113 -3.26285,-4.1444 -0.85643,2.2752 -1.6426,4.3447 -1.96629,6.1401 -1.4628,-0.9306 -3.40936,-1.8097 -5.65392,-2.8261 0.22482,2.3865 0.42298,4.5637 0.90434,6.3071 -0.77633,-0.1555 -1.59465,-0.3082 -2.45877,-0.4693 0.19688,0.5659 0.38702,1.103 0.57826,1.6397 -1.7085,-0.4524 -3.89735,-0.6798 -6.43526,-0.9462 0.73126,1.6617 1.41227,3.2054 2.13578,4.514 -1.02687,0.1052 -2.04568,0.2838 -3.04891,0.5271 -0.10879,0.01 -0.20356,0.016 -0.31367,0.026 0.0103,0.015 0.0197,0.028 0.03,0.043 -0.91761,0.2351 -1.82062,0.5257 -2.70165,0.8754 -0.0859,-0.8773 0.11013,-1.768 0.63046,-2.5254 0.44918,-0.4495 0.82761,-1.1041 0.79736,-1.9002 -1.21861,0.1784 -1.90938,1.2031 -2.1146,1.9177 -0.0154,-0.9868 -0.5861,-2.6169 -2.14095,-3.2633 -0.49241,1.5901 0.3835,3.0228 1.15548,3.6829 -0.80088,-0.4245 -2.34698,-0.6824 -3.53415,0.307 0.77567,0.7587 1.8004,0.9158 2.62362,0.8211 1.08481,-0.032 1.73771,0.4505 2.26032,1.0956 -0.15618,0.065 -0.3135,0.1273 -0.46818,0.1958 -0.81265,0.3598 -1.59523,0.7647 -2.3642,1.1845 -0.31711,-0.3495 -0.51521,-0.7966 -0.52503,-1.2894 l -0.003,0.01 c 0.0486,-0.3261 0.01,-0.7107 -0.24598,-1.034 -0.46059,0.453 -0.43218,1.1 -0.29663,1.4635 -0.30925,-0.4116 -1.05416,-0.926 -1.91099,-0.7184 0.28976,0.8419 1.12964,1.1678 1.65674,1.1943 -0.46564,0.053 -1.22832,0.4158 -1.42885,1.2206 0.56066,0.08 1.04091,-0.1694 1.35857,-0.463 0.40618,-0.3161 0.79298,-0.3415 1.17461,-0.261 -1.44003,0.7941 -2.83219,1.6355 -4.26847,2.3425 -2.26885,1.1167 -4.74893,1.9073 -7.15461,1.6056 -0.589859,-0.074 -1.169549,-0.218 -1.741489,-0.4057 0.10121,-0.2185 0.20324,-0.446 0.30851,-0.6852 -0.58789,0.062 -1.10776,0.1171 -1.54513,0.2041 -0.0793,-0.035 -0.15924,-0.069 -0.23823,-0.1059 0.0349,-0.099 0.0692,-0.1946 0.10491,-0.2972 -0.17978,0.034 -0.34483,0.065 -0.5116,0.098 -0.0545,-0.027 -0.10946,-0.053 -0.16381,-0.081 0.11652,-0.4787 0.17043,-1.0569 0.22996,-1.6888 -0.64441,0.2919 -1.20015,0.5441 -1.61954,0.8114 -0.0926,-0.5149 -0.31763,-1.1085 -0.56328,-1.7612 -0.30668,0.3704 -0.58069,0.7041 -0.80977,1.015 -0.1388,-0.088 -0.27916,-0.1748 -0.41858,-0.2626 -0.0361,-0.053 -0.0691,-0.1031 -0.10593,-0.1571 -0.0118,0.024 -0.0219,0.045 -0.0336,0.069 -0.97945,-0.6151 -1.97771,-1.2246 -3.05046,-1.7332 -0.49216,-0.2333 -0.99326,-0.4361 -1.49914,-0.6217 0.18743,-0.2269 0.43129,-0.406 0.72399,-0.5053 l -0.005,-6e-4 c 0.2696,-0.044 0.56352,-0.1707 0.75448,-0.4537 -0.48608,-0.2569 -1.00264,-0.056 -1.24851,0.1478 0.25435,-0.3378 0.49367,-1.066 0.10594,-1.7053 -0.59211,0.4399 -0.63969,1.1844 -0.52865,1.6076 -0.15609,-0.3481 -0.61994,-0.8445 -1.28571,-0.8216 0.0824,-0.4525 0.25323,-0.8904 0.52658,-1.2873 0.40094,-0.4024 0.73861,-0.9879 0.71159,-1.6991 -1.09197,0.1598 -1.71097,1.0786 -1.89446,1.7188 -0.0136,-0.8838 -0.52431,-2.3442 -1.91719,-2.9234 -0.44086,1.4236 0.34281,2.706 1.03404,3.2975 -0.71756,-0.38 -2.10175,-0.6098 -3.16466,0.276 0.69471,0.6795 1.61241,0.8201 2.34972,0.7353 1.01744,-0.03 1.60957,0.4469 2.08876,1.0656 -3.1937,-0.8379 -6.57427,-0.8997 -9.874331,-0.6491 0.576291,-0.07 1.173051,-0.1485 1.807131,-0.2584 2.22213,-0.2489 3.88662,-1.7095 4.22455,-3.5584 0.17696,-0.9682 0.28644,-1.9643 0.32142,-2.975 -4.13548,4.3394 -8.919191,6.0438 -9.261961,3.9124 -0.27516,-1.7109 2.973171,-2.1547 6.873991,-4.408 1.10081,-0.6115 2.11975,-2.3173 2.13889,-3.331 -0.11354,-0.6681 -0.2654,-1.3355 -0.4594,-1.9989 -3.14791,3.7588 -6.437321,5.8554 -6.812501,4.4493 -0.43829,-1.6424 1.723971,-2.5738 4.725291,-4.8074 1.31221,-0.7839 1.18405,-2.1843 0.73122,-2.9476 -0.35948,-0.6666 -0.77104,-1.3221 -1.23817,-1.9627 -0.9041,-0.071 -1.7922,-0.085 -2.66288,-0.047 -1.439671,0.018 -2.198891,1.4829 -2.214341,2.3011 -0.54156,3.4014 -0.38255,5.5262 -2.08876,5.9759 -1.50715,0.3972 -1.16978,-3.3762 0.80977,-7.8419 -0.84799,0.1753 -1.69203,0.2042 -2.47375,0.661 -1.02026,0.596 -1.66084,2.1918 -1.6738,2.8778 -0.30339,4.6012 1.08671,7.6844 -0.71882,8.3385 -2.21321,0.8019 -2.9847,-4.2091 -0.78393,-9.9079 -0.91385,0.456 -1.80656,0.9301 -2.60243,1.5048 -1.7418,1.2578 -1.91259,4.0204 -1.48776,5.6291 1.23734,3.4312 2.99817,5.6867 1.87689,6.7702 -1.75148,1.6925 -5.6126,-2.3305 -4.96146,-8.4817 -1.11382,1.2333 -2.00482,2.5008 -2.64377,3.715 -0.31535,-0.4395 -0.6584,-0.8667 -1.0299,-1.2753 0.0459,4.1504 -1.50277,7.307 -2.70268,6.4156 -0.9632,-0.7156 0.43324,-2.5052 1.27899,-5.5077 0.25045,-0.8352 -0.0685,-2.1736 -0.5488,-2.6856 -0.37913,-0.2765 -0.77696,-0.5337 -1.19373,-0.769 0.25512,3.3853 -0.36339,6.0144 -1.22887,5.4984 -1.01103,-0.6028 -0.38899,-2.1099 0.0202,-4.6679 0.27199,-1.0229 -0.46798,-1.6551 -1.06143,-1.8149 -0.50032,-0.1571 -1.02094,-0.2832 -1.56218,-0.3752 -0.4828,0.4016 -0.93008,0.824 -1.34358,1.2635 -0.70515,0.7048 -0.37378,1.798 0.014,2.2113 1.37498,1.9485 2.48044,2.9253 1.85156,3.9728 -0.55552,0.9253 -2.21124,-1.109 -3.38739,-4.2803 -0.33583,0.4967 -0.74095,0.9186 -0.90795,1.5229 -0.21796,0.7886 0.23562,1.8895 0.56069,2.236 2.07288,2.4285 4.25197,3.2861 3.67264,4.483 -0.0552,0.1139 -0.12417,0.2038 -0.20309,0.2754 -0.77899,-0.259 -1.55776,-0.535 -2.33784,-0.8144 -0.91354,-0.8668 -1.8894,-2.2503 -2.6355,-3.9962 -0.23285,0.6678 -0.44625,1.3345 -0.56327,2.004 -0.052,0.2974 -0.0397,0.594 0.0176,0.8832 -1.36511,-0.4512 -2.76682,-0.8578 -4.19457,-1.1374 -0.3248,-0.3921 -0.66162,-0.7811 -1.00511,-1.1689 0.37916,-0.04 0.77342,-0.1816 1.10019,-0.4899 -0.59471,-0.5081 -1.34229,-0.5133 -1.8743,-0.3623 -0.031,-0.033 -0.0629,-0.066 -0.0941,-0.099 0.4985,-0.5748 0.96062,-1.5935 0.59893,-2.6691 -0.84002,0.3733 -1.2726,1.1158 -1.44643,1.7927 -0.33554,-0.337 -0.68136,-0.6706 -1.03559,-1.002 -1.3157,-1.7409 -2.32931,-3.3136 -4.51601,-4.9842 -1.4078,-1.217 -7.52705,-3.6206 -10.20712,-3.8876 -2.18506,-0.8065 -4.57333,-1.5298 -7.19543,-2.1534 l -0.30644,1.2873 c 3.79431,0.9023 7.07704,2.006 9.94978,3.2644 0.78132,1.1531 0.76634,3.6297 0.85369,5.7908 0.33894,-4.4094 2.2581,-6.1158 2.54869,-1.5435 0.635,-2.3438 2.24957,-0.5042 2.22208,2.6659 0.15382,-1.4822 1.89776,-4.6147 2.33836,-0.14 0.0222,-0.8023 0.30231,-1.4615 0.64596,-1.7027 0.42168,0.5266 0.82529,1.0642 1.21026,1.6133 0.065,0.4055 0.11127,0.8914 0.13177,1.4692 0.0842,-0.3152 0.17743,-0.6026 0.28991,-0.8517 0.59918,0.8996 1.15156,1.8278 1.65519,2.7859 -0.0262,7e-4 -0.0524,0 -0.0786,0 -0.27095,-0.4686 -0.56389,-0.953 -0.86971,-1.4573 -0.3159,0.5694 -0.61073,1.103 -0.87901,1.6098 -0.36271,0.053 -0.72104,0.1183 -1.07694,0.1906 -0.2149,-0.6859 -0.47891,-1.4318 -0.76378,-2.2381 -0.93692,1.0856 -1.79299,2.0755 -2.36833,3.0097 -0.18863,0.05 -0.37943,0.1014 -0.56741,0.1493 -0.2452,-0.5317 -0.51678,-1.0933 -0.80873,-1.6934 -0.30197,0.4424 -0.59331,0.8696 -0.8661,1.2841 -0.53887,-0.7753 -1.23811,-1.6221 -2.02675,-2.5745 -0.0898,0.2386 -0.17169,0.4624 -0.25787,0.6935 -0.72322,0.086 -1.26136,0.5928 -1.50275,1.0025 0.18035,-0.7258 0.0776,-2.0353 -0.94051,-2.8106 -0.66699,1.0706 -0.30171,2.289 0.13694,2.9223 -0.50627,-0.4653 -1.59006,-0.9508 -2.65048,-0.4543 0.42285,0.706 1.14472,1.0188 1.76682,1.108 0.56182,0.13 0.91641,0.4065 1.16944,0.7565 -0.72052,-0.3719 -1.54537,-0.7471 -2.45515,-1.1591 0.045,0.4781 0.0889,0.9406 0.13694,1.387 -2.82594,-0.4549 -5.55505,-1.5241 -7.90494,-3.1497 l -0.60152,0.8713 c 2.57086,1.7784 5.55716,2.9203 8.64392,3.3693 0.0761,0.5166 0.16698,1.002 0.28784,1.4397 -0.48229,-0.097 -0.99072,-0.1914 -1.52756,-0.2915 0.12284,0.3531 0.24139,0.6885 0.3607,1.0232 -1.06241,-0.2824 -2.41895,-0.4263 -3.99924,-0.5922 0.48679,1.1062 0.93696,2.1318 1.42317,2.9792 -0.672,0.038 -1.39946,0.1004 -2.18487,0.1684 0.43682,0.6309 0.85246,1.2327 1.26142,1.7782 -0.72178,0.383 -1.50719,0.8519 -2.37247,1.371 2.6542,1.4892 4.82207,2.7253 6.45904,1.6785 1.4981,0.8619 3.20717,1.4074 5.5826,0.9534 1.43071,0.7612 2.86154,0.3891 4.29225,-0.2682 1.99896,1.1016 3.46544,0.4728 5.00744,0.089 1.33246,0.6886 2.73025,0.097 3.56826,-0.4661 0.10815,-0.019 0.21649,-0.044 0.32556,-0.075 0.13401,1.2236 0.21949,2.478 0.2527,3.7646 l 0.52968,-0.014 c -0.0347,-1.3451 -0.12693,-2.6559 -0.2713,-3.9352 0.92929,-0.4078 1.90762,-1.1983 2.96882,-2.1244 0.70759,1.1853 1.31511,2.381 1.93114,3.5693 l 0.3514,-0.1835 c -0.62521,-1.2059 -1.24673,-2.4314 -1.97972,-3.6519 0.18006,-0.1588 0.35457,-0.3109 0.54002,-0.4755 -0.37093,-0.1254 -0.7122,-0.238 -1.05782,-0.3524 -0.11192,-0.1725 -0.22532,-0.3448 -0.34313,-0.5167 0.35677,-0.3126 0.71987,-0.6675 1.09244,-1.0511 1.00805,1.5662 1.97609,3.128 2.95744,4.655 l 1.11311,-0.7168 c -0.20123,-0.3131 -0.40794,-0.6425 -0.60926,-0.9596 1.31431,-0.3849 3.04907,-1.9121 5.71128,-2.6515 0.0738,0.3583 0.23564,0.9283 0.46095,1.5621 0.21423,0.6027 0.46262,1.197 0.72657,1.6992 0.0491,0.093 0.096,0.1734 0.14314,0.2552 -0.23224,0.1357 -0.47208,0.2789 -0.72657,0.4315 1.52474,0.8555 2.76924,1.5622 3.70934,0.9597 0.86056,0.4954 1.84022,0.8122 3.20497,0.5514 0.82151,0.4371 1.64294,0.2234 2.46445,-0.154 1.14779,0.6325 1.98986,0.2713 2.87527,0.051 0.76881,0.3973 1.57589,0.053 2.05621,-0.2719 0.81277,-0.1454 1.66718,-0.9076 2.66185,-1.79 -0.35827,-0.1212 -0.68962,-0.2311 -1.00665,-0.3313 0.48082,-0.3851 0.97604,-0.9183 1.51722,-1.5012 -0.64124,-0.1496 -1.21813,-0.2845 -1.72651,-0.3658 0.11746,-0.3975 0.19341,-0.8617 0.25838,-1.3669 2.71953,2.2605 4.0288,4.3569 6.40529,2.9197 1.016141,0.559 1.862501,0.9372 2.520261,0.5158 0.69124,0.3979 1.47778,0.6524 2.574,0.4428 0.65989,0.3511 1.31985,0.1797 1.97973,-0.1235 0.92198,0.5082 1.59872,0.2178 2.30994,0.041 0.0257,0.013 0.0512,0.023 0.077,0.035 0.74847,0.6635 1.40136,1.2243 2.02158,1.3348 0.38593,0.2605 1.03345,0.537 1.65054,0.2181 0.71122,0.1769 1.38796,0.4673 2.30994,-0.041 0.65988,0.3032 1.31984,0.4746 1.97972,0.1235 1.09612,0.2095 1.88281,-0.045 2.57401,-0.4429 0.75512,0.4839 1.75498,-0.084 2.97966,-0.771 -0.4021,-0.2412 -0.7637,-0.4551 -1.09864,-0.6325 0.0913,-0.1215 0.18349,-0.2447 0.27698,-0.3772 0.41209,0.1069 0.83165,0.1917 1.260389,0.2454 2.7175,0.3408 5.38828,-0.5419 7.75198,-1.7053 2.35911,-1.1611 4.51061,-2.6072 6.81457,-3.6271 1.19584,-0.5294 2.44241,-0.942 3.71606,-1.2429 0.45655,0.6551 0.9095,1.3001 1.34927,1.8867 -1.1619,0.6166 -2.42597,1.3726 -3.81889,2.2082 4.27277,2.3973 7.76262,4.3864 10.39782,2.7011 2.41164,1.3876 5.16256,2.2662 8.98653,1.5353 2.30315,1.2254 4.6065,0.6261 6.90965,-0.432 3.21793,1.7734 5.57869,0.7614 8.06101,0.1442 2.14748,1.1098 4.41242,0.1529 5.76089,-0.754 2.27969,-0.4063 4.67669,-2.5529 7.46672,-5.0281 -0.99544,-0.3366 -1.92775,-0.6497 -2.80964,-0.9286 1.34402,-1.0789 2.72864,-2.5786 4.24108,-4.2075 -1.79734,-0.4194 -3.41444,-0.7983 -4.8395,-1.0263 0.425,-1.4385 0.65815,-3.2 0.87747,-5.1119 0.5726,-0.1458 1.04981,-0.4917 1.3224,-0.9818 0.23616,-0.4247 0.44513,-0.8729 0.62167,-1.34 -2.62141,1.3737 -5.12813,1.4122 -4.9506,0.3612 0.14248,-0.8435 1.73136,-0.5361 3.91242,-0.9715 0.61163,-0.1114 1.35847,-0.7476 1.52807,-1.2185 0.0528,-0.3304 0.0879,-0.6668 0.10232,-1.0077 -2.06761,1.2587 -3.93812,1.7179 -3.89072,1.001 0.0554,-0.8375 1.21404,-0.9304 2.9714,-1.4992 0.7378,-0.1585 0.90001,-0.8332 0.80925,-1.2619 -0.0623,-0.3687 -0.15131,-0.7406 -0.2682,-1.1141 -0.41146,-0.1766 -0.82454,-0.3237 -1.23765,-0.4439 -0.67606,-0.2196 -1.26302,0.3448 -1.39992,0.725 -0.79227,1.5045 -1.05485,2.523 -1.92391,2.4629 -0.76766,-0.053 -0.0117,-1.764 1.62161,-3.5383 -0.4243,-0.052 -0.82352,-0.1729 -1.26143,-0.083 -0.57152,0.117 -1.1239,0.7618 -1.23868,1.0805 -0.87106,2.1034 -0.70988,3.7651 -1.65778,3.7848 -0.56568,0.012 -0.74992,-0.5686 -0.57051,-1.4324 1.4098,-0.6035 2.22014,-1.8881 2.08566,-3.1735 -0.071,-0.6778 -0.19235,-1.3613 -0.36587,-2.0397 -0.4174,0.8091 -0.88098,1.534 -1.35598,2.1679 -0.0148,0 -0.0302,0.01 -0.045,0.012 -0.72448,0.223 -1.19119,0.9321 -1.42162,1.618 -0.69048,0.6152 -1.33217,0.975 -1.81695,1.0149 0.0839,-0.4865 0.23785,-1.001 0.48007,-1.526 -0.4833,0.27 -0.92003,0.5641 -1.30534,0.8697 -0.1243,-0.9864 1.79308,-1.9368 3.78168,-4.021 0.61242,-0.6206 0.95721,-1.953 0.77256,-2.6303 -0.2055,-0.4218 -0.43646,-0.8356 -0.69453,-1.2387 -1.35995,3.1106 -3.13719,5.1442 -3.66024,4.283 -0.61102,-1.0061 0.64401,-2.0459 2.20348,-4.1145 0.71933,-0.7764 0.36168,-1.6816 -0.0879,-2.1007 -0.36847,-0.3731 -0.76944,-0.7287 -1.20457,-1.0635 z m 1.44126,12.485 c 0.11433,1.1879 0.26197,2.0313 -0.27079,2.2831 -0.61815,0.2921 -1.26093,-0.3892 -1.46657,-1.54 0.48819,-0.225 1.0829,-0.4623 1.73736,-0.7431 z m -3.09749,2.1115 c 0.36964,0.2493 0.79162,0.516 1.24747,0.8434 -0.45188,-0.02 -0.81031,-0.1397 -1.02526,-0.3551 -0.0698,-0.1387 -0.13931,-0.2781 -0.21342,-0.4191 -0.004,-0.023 -0.007,-0.046 -0.009,-0.069 z m -4.7997,1.0222 c 0.0728,0.01 0.14381,0.01 0.21755,0.014 -0.0468,0.104 -0.0924,0.2074 -0.13642,0.3095 -0.0235,-0.1047 -0.0551,-0.217 -0.0811,-0.324 z m 10.49548,1.2919 c 0.46399,0 1.12147,0.1687 1.91875,0.3379 -0.77415,0.3473 -1.49746,0.6861 -2.15388,1.0258 -0.48066,-0.3432 -0.66263,-0.7571 -0.40824,-1.1064 0.13416,-0.1842 0.35185,-0.2553 0.64337,-0.2573 z m -121.37037,1.5332 c 0.31466,0.2789 0.62169,0.5606 0.92139,0.8444 0.153,0.2752 0.34906,0.5104 0.55552,0.6982 0.55994,0.6035 0.61558,1.2172 0.51108,1.8376 -0.0442,-9e-4 -0.0886,-5e-4 -0.1328,-0.001 -0.58319,-1.1335 -1.23135,-2.2272 -1.94459,-3.281 0.0287,-0.035 0.0585,-0.067 0.0894,-0.098 z m 2.97398,2.9352 c 0.16262,0.1786 0.32131,0.3582 0.47956,0.538 -0.36711,-0.038 -0.7356,-0.064 -1.10485,-0.08 0.18831,-0.1791 0.39742,-0.334 0.62529,-0.4584 z m -12.69432,0.5917 c -0.222,0.6483 -0.40343,1.2598 -0.51521,1.8278 -0.0747,0 -0.14951,0 -0.22427,0 -0.0926,-0.056 -0.1945,-0.1114 -0.29249,-0.1669 0.12647,-0.608 0.43313,-1.1708 0.925,-1.5942 0.0358,-0.021 0.0715,-0.045 0.10697,-0.068 z m 11.48251,0.9116 c 0.0103,1e-4 0.0207,-1e-4 0.031,0 0.15384,0.3213 0.30446,0.6449 0.44803,0.9726 -0.009,0.01 -0.0181,0.017 -0.0274,0.026 -0.12327,-0.322 -0.27757,-0.6557 -0.45165,-0.999 z m 0.62321,0.017 c 0.27895,0.013 0.55805,0.033 0.83716,0.059 -0.19519,0.1737 -0.3938,0.3503 -0.57516,0.5168 -0.0858,-0.193 -0.17264,-0.3854 -0.262,-0.5762 z m 1.88826,0.1896 c 0.0687,0.01 0.13747,0.022 0.20619,0.034 0.4032,0.4922 0.7906,0.9888 1.1684,1.4873 -0.3715,0.177 -0.71308,0.3529 -1.02939,0.5307 -0.0753,-0.6353 -0.20159,-1.3277 -0.3452,-2.0515 z m -5.42396,0.07 c -0.0475,0.1033 -0.0906,0.204 -0.13384,0.3044 -0.0193,-0.086 -0.0446,-0.1776 -0.0667,-0.2661 0.0668,-0.014 0.13367,-0.025 0.2005,-0.038 z m 7.60729,0.3752 c 0.33629,0.083 0.6719,0.1702 1.00666,0.2646 -0.20625,0.089 -0.404,0.1761 -0.601,0.2625 -0.13285,-0.176 -0.26984,-0.3516 -0.40566,-0.5271 z m 15.72204,0.1592 c 0.41171,0.52 1.11832,0.8455 2.01693,1.1301 -0.47694,0.8541 -1.03561,1.5264 -1.58802,2.001 -0.82801,-0.052 -1.65254,-0.1386 -2.47323,-0.2672 0.18473,-0.7116 1.05949,-1.6162 2.04432,-2.8639 z m -14.38724,0.2015 c 0.60816,0.1777 1.21427,0.3664 1.81488,0.569 0.19225,0.065 0.38451,0.1328 0.57671,0.1994 0.39596,0.5673 0.91373,1.0348 1.37614,1.3121 2.27162,1.1038 4.23537,1.3713 4.20285,2.4505 -0.0508,1.6857 -3.9099,1.5561 -6.55929,-1.8092 0.0108,0.2862 0.0308,0.5661 0.0568,0.8403 -0.51779,-0.7766 -1.05196,-1.5544 -1.61179,-2.3306 0.0503,-0.3948 0.0967,-0.8106 0.14366,-1.2315 z m 43.792161,0.8134 c 0.0997,0.4172 0.39504,0.7077 0.6873,0.8739 0.27057,0.1861 0.40115,0.4066 0.4625,0.6449 -0.37557,-0.1293 -0.75522,-0.2432 -1.13688,-0.3488 -0.0678,-0.3888 -0.0734,-0.7837 -0.0129,-1.17 z m -26.118301,0.4759 c 1.2906,0.3366 2.82032,0.7067 4.44624,1.3808 -0.27986,0.03 -0.55983,0.059 -0.83923,0.086 -0.0171,-0.049 -0.0317,-0.091 -0.0491,-0.1405 -0.0466,0.054 -0.0885,0.1039 -0.13435,0.1571 -1.13335,0.1049 -2.26276,0.1818 -3.38688,0.2082 0.0463,-0.52 0.0326,-1.09 -0.0367,-1.6913 z m 18.816421,0.9059 c 1.57747,-0.017 3.14492,0.068 4.67207,0.3034 -0.52678,0.6103 -0.99866,1.1561 -1.24179,1.6686 -0.13689,-0.3115 -0.29349,-0.6417 -0.4718,-1.0082 -0.13953,0.2044 -0.27293,0.4012 -0.39894,0.5927 -0.24857,-0.3576 -0.57152,-0.7487 -0.93535,-1.188 -0.24573,0.6528 -0.47026,1.2467 -0.56275,1.7616 -0.087,-0.055 -0.17946,-0.1102 -0.27802,-0.1648 0.16137,-0.2811 0.319,-0.5694 0.47025,-0.8671 -0.37244,0.2023 -0.74375,0.3809 -1.11207,0.542 -0.21946,-0.1035 -0.4525,-0.2097 -0.70022,-0.3219 0.019,0.2017 0.0374,0.3954 0.0574,0.585 -4.237601,1.6085 -7.872891,0.597 -7.487401,-1.1829 1.1055,-0.1513 2.20833,-0.2973 3.30523,-0.417 1.5514,-0.1693 3.122411,-0.2862 4.683431,-0.3034 z m 4.69222,0.307 c 0.41104,0.064 0.81808,0.1417 1.22267,0.2284 -0.28612,0.5157 -0.53809,0.9739 -0.71314,1.3803 -0.10334,-0.4601 -0.29344,-0.9971 -0.50953,-1.6087 z m 1.28313,0.2418 c 1.33633,0.2905 2.63515,0.7068 3.87263,1.2935 0.17992,0.085 0.35833,0.1758 0.53588,0.2677 -0.35239,0.5809 -0.67368,1.1106 -0.85627,1.589 -0.1035,-0.099 -0.20397,-0.1972 -0.31988,-0.3018 0.0836,-0.4155 0.13695,-0.8893 0.19378,-1.3988 -0.5719,0.2472 -1.07487,0.4649 -1.47691,0.6909 -0.0491,-0.4137 -0.14231,-0.8712 -0.24236,-1.3622 -0.32292,0.2833 -0.61003,0.5392 -0.8661,0.7844 -0.17978,-0.471 -0.49479,-0.9923 -0.84077,-1.5627 z m -42.914701,0.3215 c 0.16222,0.236 0.32436,0.4721 0.48318,0.7084 -0.21774,-0.042 -0.43066,-0.081 -0.63562,-0.1136 0.056,-0.1897 0.10602,-0.389 0.15244,-0.5948 z m 24.22126,0.4878 c -0.0874,0.1398 -0.18493,0.3078 -0.28938,0.495 -0.077,-0.1416 -0.15351,-0.2828 -0.23978,-0.4304 0.17642,-0.021 0.35285,-0.043 0.52916,-0.065 z m -1.4459,0.1679 c -0.1751,0.3282 -0.32903,0.6346 -0.45217,0.9204 -0.0582,-0.2591 -0.14707,-0.5481 -0.24236,-0.8459 0.2316,-0.023 0.46306,-0.049 0.69453,-0.074 z m -2.16989,0.2026 c -0.19861,0.2709 -0.36676,0.5329 -0.48783,0.7881 -0.10227,-0.2328 -0.21345,-0.4772 -0.33693,-0.7343 0.27494,-0.016 0.54991,-0.033 0.82476,-0.054 z m -1.44849,0.086 c -0.0413,0.062 -0.0831,0.1248 -0.123,0.1855 -0.0401,-0.058 -0.0829,-0.1171 -0.12609,-0.1762 0.0831,0 0.16604,-0.01 0.24909,-0.01 z m 6.30607,0.1597 c 0.47228,0.2974 0.90258,0.6061 1.30793,0.9162 -0.39405,0.176 -0.7508,0.3465 -1.05833,0.5194 -0.0521,-0.4395 -0.14589,-0.9242 -0.2496,-1.4356 z m 21.912361,0.1622 c 0.31964,0.1667 0.63571,0.3441 0.95033,0.5271 -0.10025,0.302 -0.18712,0.5846 -0.24443,0.8398 -0.17347,-0.4027 -0.42296,-0.8569 -0.7059,-1.3669 z m -32.061611,1.0031 c 0.0432,0.2901 0.0926,0.5669 0.16071,0.8134 -0.277,-0.056 -0.5686,-0.11 -0.87695,-0.1675 0.0706,0.2028 0.13868,0.3953 0.20723,0.5876 -0.61008,-0.1622 -1.38898,-0.2453 -2.29651,-0.3405 0.28027,0.6368 0.53955,1.2273 0.81959,1.7146 -0.38939,0.022 -0.80127,0.053 -1.25729,0.093 0.2533,0.3658 0.49315,0.7049 0.73019,1.0206 -0.14475,0.077 -0.29359,0.1581 -0.44803,0.2465 -0.0237,-0.081 -0.0476,-0.1588 -0.0708,-0.2486 -0.13738,-0.5319 -0.24673,-1.1464 -0.33383,-1.7596 -0.0984,-0.6924 -0.15442,-1.2885 -0.20929,-1.6319 1.38342,-0.2976 2.58915,-0.2871 3.57498,-0.3276 z m -15.05438,1.5389 c 0.0144,0.021 0.0281,0.042 0.0424,0.064 -0.0297,-0.01 -0.0579,-0.018 -0.0873,-0.027 0.015,-0.012 0.03,-0.024 0.045,-0.036 z"
       style="color:#000000;font-style:normal;font-variant:normal;font-weight:normal;font-stretch:normal;font-size:medium;line-height:normal;font-family:sans-serif;font-variant-ligatures:normal;font-variant-position:normal;font-variant-caps:normal;font-variant-numeric:normal;font-variant-alternates:normal;font-variant-east-asian:normal;font-feature-settings:normal;font-variation-settings:normal;text-indent:0;text-align:start;text-decoration:none;text-decoration-line:none;text-decoration-style:solid;text-decoration-color:#000000;letter-spacing:normal;word-spacing:normal;text-transform:none;writing-mode:lr-tb;direction:ltr;text-orientation:mixed;dominant-baseline:auto;baseline-shift:baseline;text-anchor:start;white-space:normal;shape-padding:0;shape-margin:0;inline-size:0;clip-rule:nonzero;display:inline;overflow:visible;visibility:visible;opacity:1;isolation:auto;mix-blend-mode:normal;color-interpolation:sRGB;color-interpolation-filters:linearRGB;solid-color:#000000;solid-opacity:1;vector-effect:none;fill:#000000;fill-opacity:0.5;fill-rule:nonzero;stroke:none;stroke-width:1.32292;stroke-linecap:butt;stroke-linejoin:miter;stroke-miterlimit:4;stroke-dasharray:none;stroke-dashoffset:0;stroke-opacity:1;filter:url(#filter8148);color-rendering:auto;image-rendering:auto;shape-rendering:auto;text-rendering:auto;enable-background:accumulate;stop-color:#000000;stop-opacity:1"
       id="path11725" />
    <path
       id="path12546"
       d="m 15.172656,118.16302 -0.30469,1.28711 c 20.873251,4.96407 26.333011,15.98931 32.537112,25.64257 l 1.113279,-0.71484 c -6.149001,-9.56753 -12.08873,-21.15951 -33.345701,-26.21484 z"
       style="color:#000000;font-style:normal;font-variant:normal;font-weight:normal;font-stretch:normal;font-size:medium;line-height:normal;font-family:sans-serif;font-variant-ligatures:normal;font-variant-position:normal;font-variant-caps:normal;font-variant-numeric:normal;font-variant-alternates:normal;font-variant-east-asian:normal;font-feature-settings:normal;font-variation-settings:normal;text-indent:0;text-align:start;text-decoration:none;text-decoration-line:none;text-decoration-style:solid;text-decoration-color:#000000;letter-spacing:normal;word-spacing:normal;text-transform:none;writing-mode:lr-tb;direction:ltr;text-orientation:mixed;dominant-baseline:auto;baseline-shift:baseline;text-anchor:start;white-space:normal;shape-padding:0;shape-margin:0;inline-size:0;clip-rule:nonzero;display:inline;overflow:visible;visibility:visible;opacity:1;isolation:auto;mix-blend-mode:normal;color-interpolation:sRGB;color-interpolation-filters:linearRGB;solid-color:#000000;solid-opacity:1;vector-effect:none;fill:#041a08;fill-opacity:1;fill-rule:nonzero;stroke:none;stroke-width:1.32292;stroke-linecap:butt;stroke-linejoin:miter;stroke-miterlimit:4;stroke-dasharray:none;stroke-dashoffset:0;stroke-opacity:1;color-rendering:auto;image-rendering:auto;shape-rendering:auto;text-rendering:auto;enable-background:accumulate;stop-color:#000000;stop-opacity:1" />
    <path
       inkscape:export-ydpi="96"
       inkscape:export-xdpi="96"
       inkscape:export-filename="D:\Calcatz\Icon Pack\Adventure Narrative Inspired by Jumanji\Assets\PNG\Vines\07_bush_main_menu.png"
       d="m 79.958718,118.24882 c -0.90411,-0.071 -1.79238,-0.085 -2.66306,-0.047 -1.43967,0.018 -2.19895,1.483 -2.214402,2.3013 -0.541559,3.4013 -0.382598,5.5262 -2.088808,5.9759 -1.507152,0.3972 -1.169432,-3.376 0.81012,-7.8417 -0.84799,0.1753 -1.69223,0.2039 -2.47396,0.6606 -1.02026,0.596 -1.660671,2.1921 -1.67363,2.8781 -0.303382,4.6012 1.086659,7.6841 -0.718871,8.3383 -2.21321,0.8019 -2.984769,-4.209 -0.784,-9.9079 -0.913839,0.4561 -1.806699,0.9302 -2.60256,1.5049 -1.741811,1.2577 -1.912639,4.0202 -1.4878,5.6289 1.23734,3.4311 2.99824,5.6869 1.876959,6.7704 -1.751478,1.6925 -5.612619,-2.3307 -4.96148,-8.4818 -2.103728,2.3293 -3.421919,4.784 -3.72229,6.7622 -0.57685,3.7991 4.418761,2.6085 9.80114,5.5592 -0.284789,0.4451 -0.69193,1.1976 -1.09769,2.0803 -0.385778,0.8393 -0.727789,1.7045 -0.960908,2.49 -0.125262,0.422 -0.20836,0.7841 -0.260591,1.0968 -0.0704,0.4212 -0.075,0.6925 -0.0818,0.8871 0.007,-0.1898 0.0711,-0.4666 0.228468,-0.8453 0.1178,-0.2835 0.281382,-0.6094 0.492091,-0.9777 0.39394,-0.6886 0.900551,-1.434 1.428429,-2.1561 0.59613,-0.8153 1.138571,-1.4885 1.427912,-1.8991 4.385299,2.7524 5.616339,6.4318 8.774999,4.1492 1.443439,-1.0431 2.857301,-2.8087 3.976161,-5.0114 -5.02388,2.7297 -9.870181,1.6034 -9.214351,-0.4969 0.44028,-1.4098 3.27704,-1.1547 6.946371,-1.7906 2.22214,-0.249 3.886769,-1.7095 4.2247,-3.5584 0.176969,-0.9683 0.286359,-1.9645 0.321339,-2.9751 -4.135479,4.3394 -8.91935,6.0438 -9.26212,3.9125 -0.275159,-1.7109 2.973239,-2.1548 6.87406,-4.4081 1.100799,-0.6115 2.119971,-2.3174 2.139119,-3.3311 -0.113538,-0.6681 -0.2657,-1.3355 -0.459697,-1.9989 -3.147902,3.7588 -6.437122,5.8553 -6.812302,4.4493 -0.43829,-1.6424 1.723851,-2.5739 4.72517,-4.8076 1.312209,-0.7839 1.184119,-2.1838 0.73128,-2.9472 -0.359479,-0.6666 -0.770869,-1.3223 -1.237999,-1.963 z"
       style="fill:#041a08;fill-opacity:1;stroke:none;stroke-width:0.264583px;stroke-linecap:butt;stroke-linejoin:miter;stroke-opacity:1"
       id="path11734" />
    <path
       inkscape:export-ydpi="96"
       inkscape:export-xdpi="96"
       inkscape:export-filename="D:\Calcatz\Icon Pack\Adventure Narrative Inspired by Jumanji\Assets\PNG\Vines\07_bush_main_menu.png"
       id="path11737"
       style="fill:#001302;fill-opacity:1;stroke:none;stroke-width:0.264583px;stroke-linecap:butt;stroke-linejoin:miter;stroke-opacity:1"
       d="m 50.304938,124.56212 c -0.482802,0.4015 -0.93,0.8239 -1.343502,1.2634 -0.705149,0.7047 -0.373919,1.7981 0.01381,2.2114 1.374978,1.9485 2.480609,2.9255 1.851728,3.973 -0.555519,0.9253 -2.21134,-1.1092 -3.387479,-4.2805 -0.33584,0.4967 -0.74073,0.9188 -0.907729,1.5231 -0.217962,0.7886 0.235669,1.8896 0.560739,2.2361 2.072881,2.4285 4.251981,3.2858 3.672649,4.4827 -0.710139,1.4671 -3.514148,-0.6452 -5.176438,-4.5349 -0.232851,0.6677 -0.446561,1.3343 -0.56357,2.0039 -0.256072,1.4655 0.994069,2.918 1.982118,3.5106 2.271623,1.1037 4.234961,1.3716 4.202441,2.4507 -0.0508,1.6858 -3.909798,1.5562 -6.55919,-1.809 0.0822,2.1718 0.614621,4.0261 1.421561,5.1523 1.54972,2.1629 3.45195,-0.8415 7.547139,-1.9789 0.0738,0.3583 0.235529,0.9282 0.46083,1.5621 0.21423,0.6026 0.462672,1.197 0.72663,1.6992 0.141801,0.2698 0.275569,0.4896 0.400752,0.6699 0.168658,0.2429 0.297449,0.3797 0.38812,0.4795 -0.0884,-0.097 -0.190223,-0.2658 -0.295172,-0.5297 -0.0786,-0.1975 -0.15493,-0.4382 -0.228399,-0.7226 -0.13738,-0.5319 -0.246311,-1.1464 -0.33341,-1.7596 -0.0984,-0.6924 -0.154641,-1.2884 -0.20951,-1.6318 3.504869,-0.754 5.893329,0.4759 6.35685,-2.1825 0.21181,-1.2148 0.0599,-2.7736 -0.44962,-4.4067 -1.17254,3.7814 -4.120311,5.5646 -4.80991,4.2061 -0.46292,-0.912 1.06726,-2.1562 2.579751,-4.2446 0.981757,-1.1973 1.101558,-2.726 0.375737,-3.8062 -0.380098,-0.5657 -0.807238,-1.1127 -1.278257,-1.6308 0.0459,4.1504 -1.503011,7.3074 -2.70292,6.416 -0.963192,-0.7156 0.43334,-2.5054 1.279088,-5.5079 0.250449,-0.8352 -0.0684,-2.1736 -0.54873,-2.6856 -0.379119,-0.2765 -0.7771,-0.534 -1.193869,-0.7692 0.25512,3.3852 -0.363079,6.0144 -1.228561,5.4984 -1.011031,-0.6028 -0.388829,-2.1095 0.02029,-4.6676 0.271981,-1.0229 -0.468029,-1.6553 -1.061469,-1.815 -0.500319,-0.1572 -1.021289,-0.2833 -1.562531,-0.3753 z" />
    <path
       id="path12550"
       d="m 13.907026,131.38177 -0.60351,0.86914 c 4.38333,3.03227 9.973891,4.23165 15.214841,3.26172 2.4649,-0.45618 4.76589,-1.33732 7.10156,-1.58204 3.14372,-0.32937 6.34901,0.46862 9.43555,1.50977 3.088769,1.0419 6.162119,2.33887 9.458989,2.98047 6.853282,1.3337 13.784252,-0.31452 20.531251,-1.05078 4.96448,-0.54175 10.13011,-0.54842 14.5332,1.53906 1.68538,0.79903 3.25278,1.90919 4.93164,2.91016 1.680559,1.00198 3.518911,1.90976 5.546873,2.16406 2.71749,0.34076 5.38825,-0.54167 7.75196,-1.70508 2.35911,-1.16115 4.51243,-2.607 6.8164,-3.62695 4.13403,-1.83011 8.86469,-2.30987 13.28125,-1.34375 4.41657,0.96611 8.51545,3.37663 11.50782,6.76562 l 0.79296,-0.70117 c -3.14467,-3.5615 -7.43283,-6.08236 -12.07421,-7.09765 -4.64138,-1.0153 -9.5911,-0.51507 -13.93555,1.4082 -2.41736,1.07015 -4.58203,2.5275 -6.85547,3.64648 -2.26885,1.11672 -4.74667,1.90518 -7.15234,1.60352 -1.795313,-0.22513 -3.507673,-1.05217 -5.136723,-2.02344 -1.630749,-0.97229 -3.22513,-2.10539 -5.02149,-2.95703 -4.69147,-2.2242 -10.060559,-2.18486 -15.101559,-1.63477 -6.835992,0.74598 -13.65612,2.34084 -20.214842,1.06446 -3.153748,-0.61375 -6.184119,-1.88676 -9.322268,-2.94532 -3.140361,-1.0593 -6.490671,-1.91399 -9.882811,-1.55859 -2.52042,0.26407 -4.8493,1.16139 -7.18555,1.59375 -4.95425,0.91687 -10.27442,-0.22344 -14.417971,-3.08984 z"
       style="color:#000000;font-style:normal;font-variant:normal;font-weight:normal;font-stretch:normal;font-size:medium;line-height:normal;font-family:sans-serif;font-variant-ligatures:normal;font-variant-position:normal;font-variant-caps:normal;font-variant-numeric:normal;font-variant-alternates:normal;font-variant-east-asian:normal;font-feature-settings:normal;font-variation-settings:normal;text-indent:0;text-align:start;text-decoration:none;text-decoration-line:none;text-decoration-style:solid;text-decoration-color:#000000;letter-spacing:normal;word-spacing:normal;text-transform:none;writing-mode:lr-tb;direction:ltr;text-orientation:mixed;dominant-baseline:auto;baseline-shift:baseline;text-anchor:start;white-space:normal;shape-padding:0;shape-margin:0;inline-size:0;clip-rule:nonzero;display:inline;overflow:visible;visibility:visible;opacity:1;isolation:auto;mix-blend-mode:normal;color-interpolation:sRGB;color-interpolation-filters:linearRGB;solid-color:#000000;solid-opacity:1;vector-effect:none;fill:#001302;fill-opacity:1;fill-rule:nonzero;stroke:none;stroke-width:1.05833;stroke-linecap:butt;stroke-linejoin:miter;stroke-miterlimit:4;stroke-dasharray:none;stroke-dashoffset:0;stroke-opacity:1;color-rendering:auto;image-rendering:auto;shape-rendering:auto;text-rendering:auto;enable-background:accumulate;stop-color:#000000;stop-opacity:1" />
    <path
       id="path12554"
       d="m 32.213667,125.57122 -0.38671,0.36133 c 5.66756,6.07969 8.61402,13.81419 8.857421,23.24219 l 0.529288,-0.0137 c -0.246059,-9.531 -3.241979,-17.41313 -8.999999,-23.58984 z"
       style="color:#000000;font-style:normal;font-variant:normal;font-weight:normal;font-stretch:normal;font-size:medium;line-height:normal;font-family:sans-serif;font-variant-ligatures:normal;font-variant-position:normal;font-variant-caps:normal;font-variant-numeric:normal;font-variant-alternates:normal;font-variant-east-asian:normal;font-feature-settings:normal;font-variation-settings:normal;text-indent:0;text-align:start;text-decoration:none;text-decoration-line:none;text-decoration-style:solid;text-decoration-color:#000000;letter-spacing:normal;word-spacing:normal;text-transform:none;writing-mode:lr-tb;direction:ltr;text-orientation:mixed;dominant-baseline:auto;baseline-shift:baseline;text-anchor:start;white-space:normal;shape-padding:0;shape-margin:0;inline-size:0;clip-rule:nonzero;display:inline;overflow:visible;visibility:visible;opacity:1;isolation:auto;mix-blend-mode:normal;color-interpolation:sRGB;color-interpolation-filters:linearRGB;solid-color:#000000;solid-opacity:1;vector-effect:none;fill:#041a08;fill-opacity:1;fill-rule:nonzero;stroke:none;stroke-width:0.529167;stroke-linecap:butt;stroke-linejoin:miter;stroke-miterlimit:4;stroke-dasharray:none;stroke-dashoffset:0;stroke-opacity:1;color-rendering:auto;image-rendering:auto;shape-rendering:auto;text-rendering:auto;enable-background:accumulate;stop-color:#000000;stop-opacity:1" />
    <path
       id="path12558"
       d="m 38.891407,136.73919 -0.24414,0.31445 c 3.87655,3.01331 5.498189,6.34167 7.195309,9.61524 l 0.35352,-0.18164 c -1.69405,-3.26764 -3.35843,-6.68056 -7.304689,-9.74805 z"
       style="color:#000000;font-style:normal;font-variant:normal;font-weight:normal;font-stretch:normal;font-size:medium;line-height:normal;font-family:sans-serif;font-variant-ligatures:normal;font-variant-position:normal;font-variant-caps:normal;font-variant-numeric:normal;font-variant-alternates:normal;font-variant-east-asian:normal;font-feature-settings:normal;font-variation-settings:normal;text-indent:0;text-align:start;text-decoration:none;text-decoration-line:none;text-decoration-style:solid;text-decoration-color:#000000;letter-spacing:normal;word-spacing:normal;text-transform:none;writing-mode:lr-tb;direction:ltr;text-orientation:mixed;dominant-baseline:auto;baseline-shift:baseline;text-anchor:start;white-space:normal;shape-padding:0;shape-margin:0;inline-size:0;clip-rule:nonzero;display:inline;overflow:visible;visibility:visible;opacity:1;isolation:auto;mix-blend-mode:normal;color-interpolation:sRGB;color-interpolation-filters:linearRGB;solid-color:#000000;solid-opacity:1;vector-effect:none;fill:#041a08;fill-opacity:1;fill-rule:nonzero;stroke:none;stroke-width:0.396875;stroke-linecap:butt;stroke-linejoin:miter;stroke-miterlimit:4;stroke-dasharray:none;stroke-dashoffset:0;stroke-opacity:1;color-rendering:auto;image-rendering:auto;shape-rendering:auto;text-rendering:auto;enable-background:accumulate;stop-color:#000000;stop-opacity:1" />
    <path
       inkscape:export-ydpi="96"
       inkscape:export-xdpi="96"
       inkscape:export-filename="D:\Calcatz\Icon Pack\Adventure Narrative Inspired by Jumanji\Assets\PNG\Vines\07_bush_main_menu.png"
       d="m 152.77832,110.97545 c -0.61462,0.1287 -1.20757,0.2924 -1.77875,0.4871 -0.95309,0.29247 -1.17244,1.41357 -1.0234,1.96037 0.30235,2.3656 0.8217,3.7466 -0.22451,4.3776 -0.92416,0.5574 -1.4344,-2.0157 -0.98845,-5.3685 -0.52934,0.2816 -1.08477,0.465 -1.5153,0.9206 -0.5619,0.5948 -0.67672,1.78 -0.55176,2.2384 0.69423,3.1165 2.21813,4.8945 1.14574,5.6807 -1.31454,0.9637 -2.80283,-2.2158 -2.44999,-6.4311 -0.51844,0.481 -1.01943,0.9699 -1.43639,1.5067 -0.91254,1.1749 -0.48821,3.0438 0.10729,4.0301 1.49023,2.039 3.09953,3.1951 2.5654,4.1334 -0.83434,1.4657 -4.18334,-0.456 -4.94825,-4.6702 -0.94441,1.9575 -1.34242,3.8452 -1.15687,5.2182 0.35636,2.6368 3.44411,0.8731 7.59515,1.7859 -0.10258,0.3511 -0.22661,0.9305 -0.32437,1.596 -0.093,0.6328 -0.15177,1.2743 -0.15374,1.8417 -0.001,0.3048 0.0142,0.5616 0.0404,0.7795 0.0352,0.2936 0.085,0.4748 0.11837,0.6055 -0.0325,-0.1275 -0.0436,-0.324 -0.0128,-0.6063 0.0231,-0.2113 0.0683,-0.4597 0.13663,-0.7454 0.1277,-0.5343 0.31921,-1.1283 0.52941,-1.7108 0.23738,-0.6579 0.46675,-1.2109 0.5791,-1.54 3.44988,0.9752 4.98426,3.1804 6.63875,1.0487 0.75606,-0.9742 1.35182,-2.4227 1.66644,-4.1042 -2.80688,2.792 -6.24652,2.9871 -6.21962,1.4638 0.0181,-1.0226 1.95276,-1.4053 4.26719,-2.5423 1.42813,-0.598 2.2499,-1.8927 2.11448,-3.1871 -0.071,-0.6778 -0.19219,-1.3611 -0.36571,-2.0395 -1.90313,3.6887 -4.75014,5.7527 -5.39288,4.4031 -0.51594,-1.0833 1.55618,-2.0107 3.70953,-4.2675 0.61243,-0.6206 0.95754,-1.9526 0.77289,-2.6299 -0.20551,-0.4218 -0.43656,-0.8357 -0.69463,-1.2387 -1.35995,3.1105 -3.13743,5.1441 -3.66048,4.2828 -0.61102,-1.0061 0.64436,-2.046 2.20383,-4.1146 0.71932,-0.7764 0.36164,-1.6817 -0.0879,-2.1008 -0.36847,-0.37307 -0.76968,-0.72857 -1.20482,-1.06327 z"
       style="fill:#041a08;fill-opacity:1;stroke:none;stroke-width:0.264583px;stroke-linecap:butt;stroke-linejoin:miter;stroke-opacity:1"
       id="path11752" />
    <path
       inkscape:export-ydpi="96"
       inkscape:export-xdpi="96"
       inkscape:export-filename="D:\Calcatz\Icon Pack\Adventure Narrative Inspired by Jumanji\Assets\PNG\Vines\07_bush_main_menu.png"
       id="path11755"
       style="fill:#041a08;fill-opacity:1;stroke:none;stroke-width:0.264583px;stroke-linecap:butt;stroke-linejoin:miter;stroke-opacity:1"
       d="m 163.08133,120.36192 c -0.41145,-0.1766 -0.8246,-0.3238 -1.23771,-0.4441 -0.67606,-0.2196 -1.26324,0.345 -1.40013,0.7251 -0.79228,1.5046 -1.05472,2.5233 -1.92378,2.4632 -0.76766,-0.053 -0.0117,-1.7639 1.62158,-3.5383 -0.42429,-0.052 -0.82356,-0.1728 -1.26147,-0.083 -0.57152,0.1171 -1.12392,0.7618 -1.23869,1.0806 -0.87107,2.1033 -0.7097,3.7651 -1.6576,3.7848 -1.16194,0.024 -0.72855,-2.4411 1.20364,-4.7569 -0.49957,0.068 -0.99219,0.1486 -1.4554,0.2911 -1.01377,0.3121 -1.53145,1.5767 -1.58776,2.3962 0.0348,1.8005 0.50064,3.1343 -0.19536,3.4632 -1.08719,0.5138 -2.25497,-1.9793 -0.97566,-4.7523 -1.35282,0.7558 -2.35821,1.6946 -2.81217,2.572 -0.87181,1.685 1.65272,1.92 3.70178,4.1527 -0.2037,0.163 -0.51334,0.4503 -0.84295,0.7988 -0.31341,0.3312 -0.61043,0.6816 -0.84392,1.0119 -0.12547,0.1775 -0.2217,0.3336 -0.29568,0.4716 -0.0997,0.1858 -0.14482,0.3119 -0.17884,0.4018 0.0332,-0.088 0.10722,-0.2069 0.2408,-0.359 0.10002,-0.114 0.22815,-0.2404 0.38503,-0.3792 0.29333,-0.2596 0.64834,-0.5278 1.00961,-0.7818 0.40796,-0.2867 0.76827,-0.5155 0.96864,-0.6616 1.61427,1.9819 1.60675,3.8974 3.44544,3.3307 0.84024,-0.259 1.78114,-0.8604 2.65338,-1.713 -2.78167,0.4801 -4.8692,-0.8146 -4.22969,-1.6927 0.42931,-0.5894 1.71528,-0.021 3.53177,0.2636 1.07848,0.2358 2.08831,-0.1833 2.53933,-0.9943 0.23617,-0.4247 0.44523,-0.8731 0.62177,-1.3402 -2.6214,1.3737 -5.12837,1.4125 -4.95085,0.3616 0.14249,-0.8436 1.73172,-0.5364 3.91278,-0.9718 0.61162,-0.1114 1.35852,-0.7475 1.52812,-1.2185 0.0528,-0.3303 0.0874,-0.6665 0.10185,-1.0075 -2.06761,1.2587 -3.93784,1.7177 -3.89043,1.0008 0.0554,-0.8375 1.21395,-0.9303 2.97131,-1.4991 0.73779,-0.1586 0.89976,-0.8335 0.80902,-1.2621 -0.0623,-0.3687 -0.15087,-0.7405 -0.26776,-1.1141 z" />
    <path
       style="fill:#050a05;fill-opacity:1;stroke:none;stroke-width:0.264586px;stroke-linecap:butt;stroke-linejoin:miter;stroke-opacity:1"
       d="m 152.86776,138.35502 c 0.58948,-6.51996 4.90427,-5.48225 12.0174,-3.82253 -4.37219,4.70905 -7.67687,8.34534 -12.0174,3.82253 z"
       id="path11757"
       sodipodi:nodetypes="ccc" />
    <path
       style="fill:#050a05;fill-opacity:1;stroke:none;stroke-width:0.264586px;stroke-linecap:butt;stroke-linejoin:miter;stroke-opacity:1"
       d="m 142.12686,133.60297 c 6.41527,-1.30448 4.90833,-5.4786 2.47523,-12.36538 -4.1985,4.86455 -7.44842,8.54986 -2.47523,12.36538 z"
       id="path11764"
       sodipodi:nodetypes="ccc" />
    <path
       style="fill:#050a05;fill-opacity:1;stroke:none;stroke-width:0.264586px;stroke-linecap:butt;stroke-linejoin:miter;stroke-opacity:1"
       d="m 149.36718,134.54732 c -6.10951,-2.35189 -3.9302,-6.21775 -0.38657,-12.60474 3.3322,5.49432 5.92487,9.66823 0.38657,12.60474 z"
       id="path11767"
       sodipodi:nodetypes="ccc" />
    <path
       sodipodi:nodetypes="ccc"
       id="path11770"
       d="m 137.51112,136.16328 c 6.22694,-2.02053 4.25832,-5.9978 1.06313,-12.56579 -3.62235,5.30753 -6.43535,9.33623 -1.06313,12.56579 z"
       style="fill:#050a05;fill-opacity:1;stroke:none;stroke-width:0.264586px;stroke-linecap:butt;stroke-linejoin:miter;stroke-opacity:1" />
    <path
       style="fill:#050a05;fill-opacity:1;stroke:none;stroke-width:0.264586px;stroke-linecap:butt;stroke-linejoin:miter;stroke-opacity:1"
       d="m 135.85764,133.98038 c 5.57205,-3.43653 2.71825,-6.83506 -1.94028,-12.46053 -2.26365,6.0139 -4.04354,10.59381 1.94028,12.46053 z"
       id="path11775"
       sodipodi:nodetypes="ccc" />
    <path
       sodipodi:nodetypes="ccc"
       id="path11777"
       d="m 133.505,135.18186 c 3.50085,-5.53185 -0.5542,-7.33483 -7.20773,-10.34784 0.60268,6.3975 1.01132,11.29407 7.20773,10.34784 z"
       style="fill:#050a05;fill-opacity:1;stroke:none;stroke-width:0.264586px;stroke-linecap:butt;stroke-linejoin:miter;stroke-opacity:1" />
    <path
       style="fill:#050a05;fill-opacity:1;stroke:none;stroke-width:0.264586px;stroke-linecap:butt;stroke-linejoin:miter;stroke-opacity:1"
       d="m 128.48169,141.46216 c -2.5574,-6.02636 -6.34725,-3.71743 -12.61062,0.0399 5.604,3.14426 9.86329,5.59415 12.61062,-0.0399 z"
       id="path11782"
       sodipodi:nodetypes="ccc" />
    <path
       sodipodi:nodetypes="ccc"
       id="path11784"
       d="m 128.98779,138.91412 c 1.57888,-6.3533 -2.83776,-6.7863 -10.1018,-7.5487 2.58832,5.88147 4.51944,10.39969 10.1018,7.5487 z"
       style="fill:#050a05;fill-opacity:1;stroke:none;stroke-width:0.264586px;stroke-linecap:butt;stroke-linejoin:miter;stroke-opacity:1" />
    <path
       sodipodi:nodetypes="ccc"
       id="path11786"
       d="m 151.12303,142.31196 c 1.21691,-6.43246 5.41121,-4.98254 12.3306,-2.64306 -4.80689,4.26439 -8.44756,7.56422 -12.3306,2.64306 z"
       style="fill:#050a05;fill-opacity:1;stroke:none;stroke-width:0.264586px;stroke-linecap:butt;stroke-linejoin:miter;stroke-opacity:1" />
    <path
       sodipodi:nodetypes="cccccccc"
       id="path11788"
       d="m 124.60352,143.14772 c 2.83433,1.93825 5.92302,3.49493 10.6521,2.59105 2.30315,1.22543 4.60632,0.6263 6.90947,-0.43184 3.21792,1.77345 5.57872,0.76121 8.06105,0.14394 2.59515,1.34117 5.36575,-0.33605 6.47763,-1.29552 l -2.04039,-12.40299 -25.1068,-1.25109 z"
       style="fill:#050a05;fill-opacity:1;stroke:none;stroke-width:0.264583px;stroke-linecap:butt;stroke-linejoin:miter;stroke-opacity:1" />
    <path
       sodipodi:nodetypes="ccc"
       id="path11791"
       d="m 151.17136,136.86051 c -4.95768,-4.27537 -1.60181,-7.1792 3.88903,-11.99602 1.28297,6.29643 2.3153,11.10036 -3.88903,11.99602 z"
       style="fill:#050a05;fill-opacity:1;stroke:none;stroke-width:0.264586px;stroke-linecap:butt;stroke-linejoin:miter;stroke-opacity:1" />
    <path
       style="fill:#050a05;fill-opacity:1;stroke:none;stroke-width:0.264586px;stroke-linecap:butt;stroke-linejoin:miter;stroke-opacity:1"
       d="m 134.21155,139.00097 c 2.07985,-6.20738 -2.28827,-6.99075 -9.46853,-8.32923 2.11169,6.06893 3.67685,10.72659 9.46853,8.32923 z"
       id="path11793"
       sodipodi:nodetypes="ccc" />
    <path
       sodipodi:nodetypes="ccc"
       id="path11795"
       d="m 129.01058,141.92565 c 0.3439,-6.53751 -4.07461,-6.12408 -11.35127,-5.49341 3.65792,5.28306 6.41177,9.35244 11.35127,5.49341 z"
       style="fill:#050a05;fill-opacity:1;stroke:none;stroke-width:0.264586px;stroke-linecap:butt;stroke-linejoin:miter;stroke-opacity:1" />
    <path
       style="fill:#050a05;fill-opacity:1;stroke:none;stroke-width:0.264586px;stroke-linecap:butt;stroke-linejoin:miter;stroke-opacity:1"
       d="m 153.67588,137.42956 c -3.40539,-5.59112 0.68,-7.32423 7.38464,-10.22234 -0.71239,6.38622 -1.20502,11.27505 -7.38464,10.22234 z"
       id="path11797"
       sodipodi:nodetypes="ccc" />
    <path
       sodipodi:nodetypes="ccc"
       id="path11801"
       d="m 38.179297,141.54282 c 0.36618,-4.05017 3.046508,-3.40555 7.46514,-2.37454 -2.71598,2.92524 -4.768831,5.18409 -7.46514,2.37454 z"
       style="fill:#050a05;fill-opacity:1;stroke:none;stroke-width:0.264586px;stroke-linecap:butt;stroke-linejoin:miter;stroke-opacity:1" />
    <path
       sodipodi:nodetypes="ccc"
       id="path11803"
       d="m 31.507097,138.59087 c 3.98513,-0.81034 3.04903,-3.40328 1.5376,-7.68132 -2.60809,3.02184 -4.62693,5.31113 -1.5376,7.68132 z"
       style="fill:#050a05;fill-opacity:1;stroke:none;stroke-width:0.264586px;stroke-linecap:butt;stroke-linejoin:miter;stroke-opacity:1" />
    <path
       sodipodi:nodetypes="ccc"
       id="path11805"
       d="m 36.004747,139.1775 c -3.79519,-1.46099 -2.44142,-3.86244 -0.24013,-7.83001 2.06994,3.41305 3.68049,6.00586 0.24013,7.83001 z"
       style="fill:#050a05;fill-opacity:1;stroke:none;stroke-width:0.264586px;stroke-linecap:butt;stroke-linejoin:miter;stroke-opacity:1" />
    <path
       style="fill:#050a05;fill-opacity:1;stroke:none;stroke-width:0.264586px;stroke-linecap:butt;stroke-linejoin:miter;stroke-opacity:1"
       d="m 28.639817,140.18132 c 3.86815,-1.25515 2.64525,-3.7258 0.66041,-7.80581 -2.25018,3.29701 -3.99761,5.79962 -0.66041,7.80581 z"
       id="path11807"
       sodipodi:nodetypes="ccc" />
    <path
       sodipodi:nodetypes="ccc"
       id="path11809"
       d="m 27.612687,138.82531 c 3.46132,-2.13476 1.68856,-4.2459 -1.20529,-7.74042 -1.40618,3.73581 -2.51184,6.58082 1.20529,7.74042 z"
       style="fill:#050a05;fill-opacity:1;stroke:none;stroke-width:0.264586px;stroke-linecap:butt;stroke-linejoin:miter;stroke-opacity:1" />
    <path
       style="fill:#050a05;fill-opacity:1;stroke:none;stroke-width:0.264586px;stroke-linecap:butt;stroke-linejoin:miter;stroke-opacity:1"
       d="m 26.151237,139.57167 c 2.17471,-3.43636 -0.34427,-4.55636 -4.47741,-6.42803 0.374379,3.97409 0.62823,7.01582 4.47741,6.42803 z"
       id="path11811"
       sodipodi:nodetypes="ccc" />
    <path
       sodipodi:nodetypes="ccc"
       id="path11813"
       d="m 23.030777,143.47296 c -1.588651,-3.74355 -3.942881,-2.30925 -7.833661,0.0248 3.481181,1.9532 6.127031,3.47506 7.833661,-0.0248 z"
       style="fill:#050a05;fill-opacity:1;stroke:none;stroke-width:0.264586px;stroke-linecap:butt;stroke-linejoin:miter;stroke-opacity:1" />
    <path
       style="fill:#050a05;fill-opacity:1;stroke:none;stroke-width:0.264586px;stroke-linecap:butt;stroke-linejoin:miter;stroke-opacity:1"
       d="m 23.345157,141.89013 c 0.980799,-3.94664 -1.762791,-4.21562 -6.27518,-4.68922 1.607849,3.65355 2.807459,6.46024 6.27518,4.68922 z"
       id="path11815"
       sodipodi:nodetypes="ccc" />
    <path
       style="fill:#050a05;fill-opacity:1;stroke:none;stroke-width:0.264586px;stroke-linecap:butt;stroke-linejoin:miter;stroke-opacity:1"
       d="m 37.095477,144.00085 c 0.75594,-3.99581 3.36141,-3.09513 7.659709,-1.64186 -2.986019,2.64903 -5.24759,4.69887 -7.659709,1.64186 z"
       id="path11817"
       sodipodi:nodetypes="ccc" />
    <path
       style="fill:#050a05;fill-opacity:1;stroke:none;stroke-width:0.264583px;stroke-linecap:butt;stroke-linejoin:miter;stroke-opacity:1"
       d="m 20.621677,144.52002 c 1.76067,1.20403 3.67935,2.17104 6.61704,1.60955 1.43071,0.76123 2.86142,0.38905 4.29213,-0.26826 1.99896,1.10166 3.46548,0.47287 5.00748,0.0894 1.61209,0.83313 3.33318,-0.20875 4.02388,-0.80477 l -1.267482,-7.70468 -15.596238,-0.77717 z"
       id="path11819"
       sodipodi:nodetypes="cccccccc" />
    <path
       style="fill:#050a05;fill-opacity:1;stroke:none;stroke-width:0.264586px;stroke-linecap:butt;stroke-linejoin:miter;stroke-opacity:1"
       d="m 37.125497,140.61444 c -3.07969,-2.65584 -0.99504,-4.45969 2.415849,-7.45188 0.79697,3.91132 1.438251,6.8955 -2.415849,7.45188 z"
       id="path11821"
       sodipodi:nodetypes="ccc" />
    <path
       sodipodi:nodetypes="ccc"
       id="path11823"
       d="m 26.590137,141.94408 c 1.29199,-3.85599 -1.42146,-4.34262 -5.8818,-5.17408 1.31177,3.77 2.28404,6.66331 5.8818,5.17408 z"
       style="fill:#050a05;fill-opacity:1;stroke:none;stroke-width:0.264586px;stroke-linecap:butt;stroke-linejoin:miter;stroke-opacity:1" />
    <path
       style="fill:#050a05;fill-opacity:1;stroke:none;stroke-width:0.264586px;stroke-linecap:butt;stroke-linejoin:miter;stroke-opacity:1"
       d="m 23.359327,143.76088 c 0.21362,-4.06107 -2.53113,-3.80425 -7.051371,-3.41248 2.272291,3.28181 3.98297,5.80969 7.051371,3.41248 z"
       id="path11825"
       sodipodi:nodetypes="ccc" />
    <path
       sodipodi:nodetypes="ccc"
       id="path11827"
       d="m 38.681287,140.96793 c -2.11541,-3.47318 0.42242,-4.54978 4.5873,-6.35007 -0.442521,3.96709 -0.748551,7.00401 -4.5873,6.35007 z"
       style="fill:#050a05;fill-opacity:1;stroke:none;stroke-width:0.264586px;stroke-linecap:butt;stroke-linejoin:miter;stroke-opacity:1" />
    <path
       style="fill:#001302;fill-opacity:1;stroke:none;stroke-width:0.264583px;stroke-linecap:butt;stroke-linejoin:miter;stroke-opacity:1"
       d="m 84.474576,131.40917 c 2.083102,0.8661 2.199412,3.71043 1.61821,3.63505 -0.66049,-0.13228 -2.197759,-1.76356 -1.61821,-3.63505 z"
       id="path11831"
       sodipodi:nodetypes="ccc" />
    <path
       sodipodi:nodetypes="ccc"
       id="path11833"
       d="m 88.285986,132.61414 c 0.0623,1.63994 -1.811208,2.61345 -1.940208,2.20834 -0.115321,-0.47509 0.50473,-1.99826 1.940208,-2.20834 z"
       style="fill:#001302;fill-opacity:1;stroke:none;stroke-width:0.264583px;stroke-linecap:butt;stroke-linejoin:miter;stroke-opacity:1" />
    <path
       style="fill:#001302;fill-opacity:1;stroke:none;stroke-width:0.264583px;stroke-linecap:butt;stroke-linejoin:miter;stroke-opacity:1"
       d="m 82.344008,134.98274 c 1.442699,1.41109 3.855059,0.5089 3.591208,0.0569 -0.33873,-0.49736 -2.230808,-1.19062 -3.591208,-0.0569 z"
       id="path11835"
       sodipodi:nodetypes="ccc" />
    <path
       style="fill:#001302;fill-opacity:1;stroke:none;stroke-width:0.264583px;stroke-linecap:butt;stroke-linejoin:miter;stroke-opacity:1"
       d="m 84.693587,135.71815 c 1.28713,-0.038 1.896481,0.73176 2.453191,1.57901 -0.30444,-1.01176 -0.18338,-2.11624 0.44282,-3.00859 l -0.7829,0.42933 -0.182351,-0.12298 -0.40486,-0.12601 c -0.262959,0.0537 -0.559689,-0.18276 -0.567211,0.23549 l -0.218368,0.36943 -0.182941,0.20053 -0.19471,0.30785 z"
       id="path11837"
       sodipodi:nodetypes="ccccccccccc" />
    <path
       sodipodi:nodetypes="ccc"
       id="path11841"
       d="m 88.862188,134.81418 c 0.565391,0.93218 -0.2008,2.0748 -0.40599,1.87956 -0.219879,-0.24005 -0.35405,-1.31495 0.40599,-1.87956 z"
       style="fill:#001302;fill-opacity:1;stroke:none;stroke-width:0.264581px;stroke-linecap:butt;stroke-linejoin:miter;stroke-opacity:1" />
    <path
       style="fill:#001302;fill-opacity:1;stroke:none;stroke-width:0.264581px;stroke-linecap:butt;stroke-linejoin:miter;stroke-opacity:1"
       d="m 90.005019,136.37167 c -0.443622,0.65744 -1.452153,0.50259 -1.386883,0.30777 0.0906,-0.21821 0.767033,-0.63541 1.386883,-0.30777 z"
       id="path11843"
       sodipodi:nodetypes="ccc" />
    <path
       sodipodi:nodetypes="ccc"
       id="path11845"
       d="m 87.011539,135.60014 c 0.160088,0.96203 1.358447,1.29844 1.384519,1.04684 0.01,-0.29064 -0.53041,-1.10091 -1.384519,-1.04684 z"
       style="fill:#001302;fill-opacity:1;stroke:none;stroke-width:0.264581px;stroke-linecap:butt;stroke-linejoin:miter;stroke-opacity:1" />
    <path
       sodipodi:nodetypes="ccccccccccc"
       id="path11847"
       d="m 87.718148,136.55738 c 0.51289,0.35243 0.530929,0.82654 0.506331,1.31585 0.169939,-0.4815 0.532288,-0.87776 1.03115,-1.04715 l -0.427871,-0.0559 -0.036,-0.1 -0.121962,-0.16467 c -0.117888,-0.0541 -0.166158,-0.23097 -0.288428,-0.07 l -0.190589,0.0818 -0.128572,0.026 -0.16379,0.0645 z"
       style="fill:#001302;fill-opacity:1;stroke:none;stroke-width:0.264581px;stroke-linecap:butt;stroke-linejoin:miter;stroke-opacity:1" />
    <path
       sodipodi:nodetypes="ccc"
       id="path11851"
       d="m 112.15994,131.57952 c 2.32576,0.96699 2.45562,4.14265 1.80672,4.05849 -0.73744,-0.14769 -2.45378,-1.96899 -1.80672,-4.05849 z"
       style="fill:#001302;fill-opacity:1;stroke:none;stroke-width:0.264583px;stroke-linecap:butt;stroke-linejoin:miter;stroke-opacity:1" />
    <path
       style="fill:#001302;fill-opacity:1;stroke:none;stroke-width:0.264583px;stroke-linecap:butt;stroke-linejoin:miter;stroke-opacity:1"
       d="m 116.41533,132.92485 c 0.0696,1.83098 -2.02219,2.91789 -2.16623,2.46559 -0.12874,-0.53043 0.56353,-2.23103 2.16623,-2.46559 z"
       id="path11853"
       sodipodi:nodetypes="ccc" />
    <path
       sodipodi:nodetypes="ccc"
       id="path11855"
       d="m 109.78119,135.56937 c 1.61075,1.57546 4.30412,0.56818 4.00953,0.0635 -0.37819,-0.55529 -2.49066,-1.3293 -4.00953,-0.0635 z"
       style="fill:#001302;fill-opacity:1;stroke:none;stroke-width:0.264583px;stroke-linecap:butt;stroke-linejoin:miter;stroke-opacity:1" />
    <path
       sodipodi:nodetypes="ccccccccccc"
       id="path11857"
       d="m 112.40446,136.39044 c 1.43706,-0.0424 2.1174,0.81701 2.73896,1.76296 -0.3399,-1.12963 -0.20474,-2.36276 0.4944,-3.35906 l -0.8741,0.47934 -0.20358,-0.13731 -0.45203,-0.14069 c -0.29358,0.0599 -0.62488,-0.20404 -0.63328,0.26292 l -0.24382,0.41247 -0.20424,0.22389 -0.2174,0.34372 z"
       style="fill:#001302;fill-opacity:1;stroke:none;stroke-width:0.264583px;stroke-linecap:butt;stroke-linejoin:miter;stroke-opacity:1" />
    <path
       style="fill:#001302;fill-opacity:1;stroke:none;stroke-width:0.264583px;stroke-linecap:butt;stroke-linejoin:miter;stroke-opacity:1"
       d="m 108.85082,137.29485 c 1.27813,-0.30978 2.31216,0.98819 2.0128,1.15284 -0.35626,0.16518 -1.64107,-0.0729 -2.0128,-1.15284 z"
       id="path11861"
       sodipodi:nodetypes="ccc" />
    <path
       sodipodi:nodetypes="ccc"
       id="path11863"
       d="m 111.05865,136.54941 c 0.59395,0.75001 0.0478,1.85302 -0.15237,1.70687 -0.21782,-0.18379 -0.45057,-1.1138 0.15237,-1.70687 z"
       style="fill:#001302;fill-opacity:1;stroke:none;stroke-width:0.264583px;stroke-linecap:butt;stroke-linejoin:miter;stroke-opacity:1" />
    <path
       style="fill:#001302;fill-opacity:1;stroke:none;stroke-width:0.264583px;stroke-linecap:butt;stroke-linejoin:miter;stroke-opacity:1"
       d="m 109.07896,139.70948 c 1.16451,0.16708 1.9887,-1.08791 1.70894,-1.20971 -0.33058,-0.11734 -1.45934,0.20799 -1.70894,1.20971 z"
       id="path11865"
       sodipodi:nodetypes="ccc" />
    <path
       style="fill:#001302;fill-opacity:1;stroke:none;stroke-width:0.264583px;stroke-linecap:butt;stroke-linejoin:miter;stroke-opacity:1"
       d="m 110.43744,139.24647 c 0.59241,-0.46104 1.14409,-0.30873 1.69769,-0.10184 -0.49157,-0.37114 -0.8149,-0.93238 -0.82756,-1.56776 l -0.22047,0.47152 -0.12812,0.005 -0.23384,0.0801 c -0.10522,0.11578 -0.32621,0.10673 -0.18575,0.30607 l 0.0245,0.24897 -0.017,0.15732 0.0144,0.21186 z"
       id="path11867"
       sodipodi:nodetypes="ccccccccccc" />
    <path
       style="fill:#050a05;fill-opacity:1;stroke:none;stroke-width:0.264586px;stroke-linecap:butt;stroke-linejoin:miter;stroke-opacity:1"
       d="m 86.783597,142.25794 c 0.168889,-1.86805 1.405131,-1.57073 3.443129,-1.0952 -1.252688,1.3492 -2.199518,2.39105 -3.443129,1.0952 z"
       id="path11871"
       sodipodi:nodetypes="ccc" />
    <path
       style="fill:#050a05;fill-opacity:1;stroke:none;stroke-width:0.264586px;stroke-linecap:butt;stroke-linejoin:miter;stroke-opacity:1"
       d="m 83.706186,140.89642 c 1.838061,-0.37375 1.4063,-1.56969 0.709192,-3.54284 -1.202931,1.39376 -2.134071,2.44965 -0.709192,3.54284 z"
       id="path11873"
       sodipodi:nodetypes="ccc" />
    <path
       style="fill:#050a05;fill-opacity:1;stroke:none;stroke-width:0.264586px;stroke-linecap:butt;stroke-linejoin:miter;stroke-opacity:1"
       d="m 85.780628,141.16699 c -1.750441,-0.67385 -1.126051,-1.78146 -0.110752,-3.61142 0.954712,1.57419 1.697551,2.77007 0.110752,3.61142 z"
       id="path11875"
       sodipodi:nodetypes="ccc" />
    <path
       sodipodi:nodetypes="ccc"
       id="path11877"
       d="m 82.383727,141.62998 c 1.784091,-0.57891 1.22006,-1.71844 0.304591,-3.60026 -1.037841,1.52068 -1.843802,2.67495 -0.304591,3.60026 z"
       style="fill:#050a05;fill-opacity:1;stroke:none;stroke-width:0.264586px;stroke-linecap:butt;stroke-linejoin:miter;stroke-opacity:1" />
    <path
       style="fill:#050a05;fill-opacity:1;stroke:none;stroke-width:0.264586px;stroke-linecap:butt;stroke-linejoin:miter;stroke-opacity:1"
       d="m 81.909978,141.00455 c 1.596458,-0.98461 0.778809,-1.95833 -0.555911,-3.5701 -0.648571,1.72306 -1.158528,3.03526 0.555911,3.5701 z"
       id="path11879"
       sodipodi:nodetypes="ccc" />
    <path
       sodipodi:nodetypes="ccc"
       id="path11886"
       d="m 81.235917,141.34879 c 1.003041,-1.58494 -0.158779,-2.10152 -2.065099,-2.96478 0.17267,1.83296 0.28975,3.23589 2.065099,2.96478 z"
       style="fill:#050a05;fill-opacity:1;stroke:none;stroke-width:0.264586px;stroke-linecap:butt;stroke-linejoin:miter;stroke-opacity:1" />
    <path
       style="fill:#050a05;fill-opacity:1;stroke:none;stroke-width:0.264586px;stroke-linecap:butt;stroke-linejoin:miter;stroke-opacity:1"
       d="m 79.796676,143.14818 c -0.732729,-1.72663 -1.818568,-1.06509 -3.613099,0.0114 1.60561,0.90087 2.825951,1.60279 3.613099,-0.0114 z"
       id="path11888"
       sodipodi:nodetypes="ccc" />
    <path
       sodipodi:nodetypes="ccc"
       id="path11891"
       d="m 79.941676,142.41813 c 0.452371,-1.8203 -0.813049,-1.94436 -2.894288,-2.1628 0.74159,1.68512 1.294879,2.97965 2.894288,2.1628 z"
       style="fill:#050a05;fill-opacity:1;stroke:none;stroke-width:0.264586px;stroke-linecap:butt;stroke-linejoin:miter;stroke-opacity:1" />
    <path
       sodipodi:nodetypes="ccc"
       id="path11896"
       d="m 86.283707,143.39166 c 0.34866,-1.84298 1.550381,-1.42757 3.53287,-0.75727 -1.37723,1.2218 -2.420329,2.16724 -3.53287,0.75727 z"
       style="fill:#050a05;fill-opacity:1;stroke:none;stroke-width:0.264586px;stroke-linecap:butt;stroke-linejoin:miter;stroke-opacity:1" />
    <path
       sodipodi:nodetypes="cccccccc"
       id="path11898"
       d="m 78.685527,143.63111 c 0.81207,0.55533 1.697019,1.00135 3.051971,0.74237 0.659879,0.3511 1.319758,0.17944 1.97965,-0.12373 0.92197,0.50812 1.598369,0.2181 2.30959,0.0412 0.74354,0.38427 1.537348,-0.0963 1.85592,-0.37118 l -0.5846,-3.55361 -7.193412,-0.35846 z"
       style="fill:#050a05;fill-opacity:1;stroke:none;stroke-width:0.264583px;stroke-linecap:butt;stroke-linejoin:miter;stroke-opacity:1" />
    <path
       sodipodi:nodetypes="ccc"
       id="path11900"
       d="m 86.297558,141.82975 c -1.42044,-1.22495 -0.458941,-2.05694 1.11425,-3.43701 0.367588,1.804 0.663358,3.18039 -1.11425,3.43701 z"
       style="fill:#050a05;fill-opacity:1;stroke:none;stroke-width:0.264586px;stroke-linecap:butt;stroke-linejoin:miter;stroke-opacity:1" />
    <path
       style="fill:#050a05;fill-opacity:1;stroke:none;stroke-width:0.264586px;stroke-linecap:butt;stroke-linejoin:miter;stroke-opacity:1"
       d="m 81.438358,142.44302 c 0.5959,-1.7785 -0.655622,-2.00294 -2.71286,-2.38643 0.60503,1.73882 1.05347,3.0733 2.71286,2.38643 z"
       id="path11902"
       sodipodi:nodetypes="ccc" />
    <path
       sodipodi:nodetypes="ccc"
       id="path11909"
       d="m 79.948206,143.28097 c 0.0985,-1.87308 -1.167418,-1.75462 -3.252279,-1.57393 1.048041,1.51367 1.837049,2.6796 3.252279,1.57393 z"
       style="fill:#050a05;fill-opacity:1;stroke:none;stroke-width:0.264586px;stroke-linecap:butt;stroke-linejoin:miter;stroke-opacity:1" />
    <path
       style="fill:#050a05;fill-opacity:1;stroke:none;stroke-width:0.264586px;stroke-linecap:butt;stroke-linejoin:miter;stroke-opacity:1"
       d="m 87.015126,141.99279 c -0.975688,-1.60193 0.194832,-2.09849 2.115791,-2.92883 -0.204099,1.82973 -0.345249,3.23044 -2.115791,2.92883 z"
       id="path11911"
       sodipodi:nodetypes="ccc" />
    <path
       sodipodi:nodetypes="ccc"
       id="path11916"
       d="m 89.019409,143.84544 c -0.168892,-1.86805 -1.405131,-1.57073 -3.443132,-1.0952 1.252691,1.3492 2.199521,2.39105 3.443132,1.0952 z"
       style="fill:#050a05;fill-opacity:1;stroke:none;stroke-width:0.264586px;stroke-linecap:butt;stroke-linejoin:miter;stroke-opacity:1" />
    <path
       sodipodi:nodetypes="ccc"
       id="path11918"
       d="m 92.096817,142.48392 c -1.83806,-0.37375 -1.4063,-1.56969 -0.709189,-3.54284 1.202931,1.39376 2.134068,2.44965 0.709189,3.54284 z"
       style="fill:#050a05;fill-opacity:1;stroke:none;stroke-width:0.264586px;stroke-linecap:butt;stroke-linejoin:miter;stroke-opacity:1" />
    <path
       sodipodi:nodetypes="ccc"
       id="path11920"
       d="m 90.022378,142.75449 c 1.750438,-0.67385 1.126051,-1.78146 0.110749,-3.61142 -0.954709,1.57419 -1.697551,2.77007 -0.110749,3.61142 z"
       style="fill:#050a05;fill-opacity:1;stroke:none;stroke-width:0.264586px;stroke-linecap:butt;stroke-linejoin:miter;stroke-opacity:1" />
    <path
       style="fill:#050a05;fill-opacity:1;stroke:none;stroke-width:0.264586px;stroke-linecap:butt;stroke-linejoin:miter;stroke-opacity:1"
       d="m 93.419279,143.21748 c -1.784091,-0.57891 -1.220063,-1.71844 -0.304591,-3.60026 1.037838,1.52068 1.843799,2.67495 0.304591,3.60026 z"
       id="path11925"
       sodipodi:nodetypes="ccc" />
    <path
       sodipodi:nodetypes="ccc"
       id="path11927"
       d="m 93.893028,142.59205 c -1.596461,-0.98461 -0.778811,-1.95833 0.555908,-3.5701 0.648571,1.72306 1.158531,3.03526 -0.555908,3.5701 z"
       style="fill:#050a05;fill-opacity:1;stroke:none;stroke-width:0.264586px;stroke-linecap:butt;stroke-linejoin:miter;stroke-opacity:1" />
    <path
       style="fill:#050a05;fill-opacity:1;stroke:none;stroke-width:0.264586px;stroke-linecap:butt;stroke-linejoin:miter;stroke-opacity:1"
       d="m 94.567086,142.93629 c -1.003038,-1.58494 0.158782,-2.10152 2.065102,-2.96478 -0.17267,1.83296 -0.28975,3.23589 -2.065102,2.96478 z"
       id="path11932"
       sodipodi:nodetypes="ccc" />
    <path
       sodipodi:nodetypes="ccc"
       id="path11940"
       d="m 96.006327,144.73568 c 0.732732,-1.72663 1.818571,-1.06509 3.6131,0.0114 -1.605609,0.90087 -2.825949,1.60279 -3.6131,-0.0114 z"
       style="fill:#050a05;fill-opacity:1;stroke:none;stroke-width:0.264586px;stroke-linecap:butt;stroke-linejoin:miter;stroke-opacity:1" />
    <path
       style="fill:#050a05;fill-opacity:1;stroke:none;stroke-width:0.264586px;stroke-linecap:butt;stroke-linejoin:miter;stroke-opacity:1"
       d="m 95.861327,144.00563 c -0.452369,-1.8203 0.813052,-1.94436 2.89429,-2.1628 -0.74159,1.68512 -1.294881,2.97965 -2.89429,2.1628 z"
       id="path11942"
       sodipodi:nodetypes="ccc" />
    <path
       style="fill:#050a05;fill-opacity:1;stroke:none;stroke-width:0.264586px;stroke-linecap:butt;stroke-linejoin:miter;stroke-opacity:1"
       d="m 89.519296,144.97916 c -0.34866,-1.84298 -1.550379,-1.42757 -3.53287,-0.75727 1.377231,1.2218 2.420332,2.16724 3.53287,0.75727 z"
       id="path11944"
       sodipodi:nodetypes="ccc" />
    <path
       style="fill:#050a05;fill-opacity:1;stroke:none;stroke-width:0.264583px;stroke-linecap:butt;stroke-linejoin:miter;stroke-opacity:1"
       d="m 97.117476,145.21861 c -0.81207,0.55533 -1.697019,1.00135 -3.051969,0.74237 -0.659881,0.3511 -1.31976,0.17944 -1.979649,-0.12373 -0.92197,0.50812 -1.598372,0.2181 -2.30959,0.0412 -0.74354,0.38427 -1.537351,-0.0963 -1.85592,-0.37118 l 0.584599,-3.55361 7.19341,-0.35846 z"
       id="path11946"
       sodipodi:nodetypes="cccccccc" />
    <path
       style="fill:#050a05;fill-opacity:1;stroke:none;stroke-width:0.264586px;stroke-linecap:butt;stroke-linejoin:miter;stroke-opacity:1"
       d="m 89.505448,143.41725 c 1.42044,-1.22495 0.458938,-2.05694 -1.11425,-3.43701 -0.367591,1.804 -0.663361,3.18039 1.11425,3.43701 z"
       id="path11948"
       sodipodi:nodetypes="ccc" />
    <path
       sodipodi:nodetypes="ccc"
       id="path11950"
       d="m 94.364648,144.03052 c -0.5959,-1.7785 0.655619,-2.00294 2.71286,-2.38643 -0.60503,1.73882 -1.05347,3.0733 -2.71286,2.38643 z"
       style="fill:#050a05;fill-opacity:1;stroke:none;stroke-width:0.264586px;stroke-linecap:butt;stroke-linejoin:miter;stroke-opacity:1" />
    <path
       style="fill:#050a05;fill-opacity:1;stroke:none;stroke-width:0.264586px;stroke-linecap:butt;stroke-linejoin:miter;stroke-opacity:1"
       d="m 95.854797,144.86847 c -0.0985,-1.87308 1.167421,-1.75462 3.25228,-1.57393 -1.048039,1.51367 -1.83705,2.6796 -3.25228,1.57393 z"
       id="path11952"
       sodipodi:nodetypes="ccc" />
    <path
       sodipodi:nodetypes="ccc"
       id="path11954"
       d="m 88.787877,143.58029 c 0.975691,-1.60193 -0.194829,-2.09849 -2.115791,-2.92883 0.204102,1.82973 0.345252,3.23044 2.115791,2.92883 z"
       style="fill:#050a05;fill-opacity:1;stroke:none;stroke-width:0.264586px;stroke-linecap:butt;stroke-linejoin:miter;stroke-opacity:1" />
    <path
       sodipodi:nodetypes="ccc"
       id="path11958"
       d="m 39.574168,128.39636 c 0.61468,1.82783 -1.150281,3.50302 -1.428781,3.08659 -0.2865,-0.49947 -0.10166,-2.40657 1.428781,-3.08659 z"
       style="fill:#001302;fill-opacity:1;stroke:none;stroke-width:0.264583px;stroke-linecap:butt;stroke-linejoin:miter;stroke-opacity:1" />
    <path
       style="fill:#001302;fill-opacity:1;stroke:none;stroke-width:0.264583px;stroke-linecap:butt;stroke-linejoin:miter;stroke-opacity:1"
       d="m 40.943185,131.52707 c -1.020278,0.9628 -2.700878,0.30487 -2.512758,-0.006 0.24084,-0.34151 1.56991,-0.79949 2.512758,0.006 z"
       id="path11960"
       sodipodi:nodetypes="ccc" />
    <path
       sodipodi:nodetypes="ccc"
       id="path11962"
       d="m 36.075727,129.03592 c -0.0964,1.72235 1.84153,2.76716 1.98397,2.34303 0.12949,-0.49781 -0.48895,-2.10547 -1.98397,-2.34303 z"
       style="fill:#001302;fill-opacity:1;stroke:none;stroke-width:0.264583px;stroke-linecap:butt;stroke-linejoin:miter;stroke-opacity:1" />
    <path
       sodipodi:nodetypes="ccccccccccc"
       id="path11964"
       d="m 36.924447,130.96171 c 0.74865,0.80692 0.59613,1.63215 0.36413,2.46711 0.4798,-0.76518 1.25867,-1.3087 2.18525,-1.4078 l -0.71677,-0.26225 -0.0235,-0.18654 -0.146709,-0.33144 c -0.1825,-0.13901 -0.19729,-0.463 -0.47068,-0.23252 l -0.3606,0.0673 -0.23198,-0.005 -0.30766,0.0479 z"
       style="fill:#001302;fill-opacity:1;stroke:none;stroke-width:0.264583px;stroke-linecap:butt;stroke-linejoin:miter;stroke-opacity:1" />
    <path
       style="fill:#001302;fill-opacity:1;stroke:none;stroke-width:0.264583px;stroke-linecap:butt;stroke-linejoin:miter;stroke-opacity:1"
       d="m 23.706196,129.97004 c 1.519681,1.15732 1.003181,3.5117 0.543421,3.32497 -0.51246,-0.25039 -1.42056,-1.91696 -0.543421,-3.32497 z"
       id="path11968"
       sodipodi:nodetypes="ccc" />
    <path
       sodipodi:nodetypes="ccc"
       id="path11970"
       d="m 26.568387,131.7766 c -0.30168,1.35643 -2.04538,1.75073 -2.06389,1.39122 0.008,-0.41387 0.84312,-1.52792 2.06389,-1.39122 z"
       style="fill:#001302;fill-opacity:1;stroke:none;stroke-width:0.264583px;stroke-linecap:butt;stroke-linejoin:miter;stroke-opacity:1" />
    <path
       style="fill:#001302;fill-opacity:1;stroke:none;stroke-width:0.264583px;stroke-linecap:butt;stroke-linejoin:miter;stroke-opacity:1"
       d="m 21.192787,132.43838 c 0.877999,1.4659 3.047639,1.2459 2.92878,0.81895 -0.17043,-0.48016 -1.57084,-1.45485 -2.92878,-0.81895 z"
       id="path11972"
       sodipodi:nodetypes="ccc" />
    <path
       style="fill:#001302;fill-opacity:1;stroke:none;stroke-width:0.264583px;stroke-linecap:butt;stroke-linejoin:miter;stroke-opacity:1"
       d="m 22.958797,133.54598 c 1.06227,0.24571 1.39573,1.00717 1.66943,1.82076 -0.0317,-0.89406 0.30497,-1.77254 1.00972,-2.36865 l -0.73349,0.18322 -0.12288,-0.13993 -0.30446,-0.19028 c -0.2269,-0.0126 -0.41905,-0.27004 -0.515161,0.0709 l -0.2583,0.25558 -0.192939,0.12488 -0.22568,0.21024 z"
       id="path11974"
       sodipodi:nodetypes="ccccccccccc" />
    <path
       inkscape:export-ydpi="96"
       inkscape:export-xdpi="96"
       inkscape:export-filename="D:\Calcatz\Icon Pack\Adventure Narrative Inspired by Jumanji\Assets\PNG\Vines\07_bush_main_menu.png"
       sodipodi:nodetypes="cccccccccc"
       id="path11978"
       d="m 24.781557,122.65812 c 0.81884,1.1288 0.79996,3.6518 0.88867,5.8465 0.33894,-4.4094 2.2585,-6.1158 2.54909,-1.5435 0.635,-2.3438 2.24916,-0.5041 2.22168,2.666 0.15381,-1.4822 1.898,-4.615 2.3386,-0.1403 0.0573,-2.0677 1.82539,-3.1969 1.98782,1.3798 0.3589,-1.3436 0.87308,-2.2053 2.40877,-1.5669 -1.35907,-1.7869 -2.36537,-3.3894 -4.60013,-5.0968 -1.64113,-1.4187 -9.68964,-4.4526 -11.22237,-3.8309 z"
       style="fill:#041a08;fill-opacity:1;stroke:none;stroke-width:0.264583px;stroke-linecap:butt;stroke-linejoin:miter;stroke-opacity:1" />
    <path
       sodipodi:nodetypes="ccc"
       id="path11983"
       d="m 67.419436,143.59145 c 0.210262,-2.32559 1.74929,-1.95545 4.286462,-1.36345 -1.55951,1.67966 -2.738242,2.97668 -4.286462,1.36345 z"
       style="fill:#050a05;fill-opacity:1;stroke:none;stroke-width:0.264583px;stroke-linecap:butt;stroke-linejoin:miter;stroke-opacity:1" />
    <path
       sodipodi:nodetypes="ccc"
       id="path11986"
       d="m 63.588288,141.89645 c 2.288249,-0.46529 1.75074,-1.95415 0.882878,-4.41058 -1.49755,1.73512 -2.656758,3.04963 -0.882878,4.41058 z"
       style="fill:#050a05;fill-opacity:1;stroke:none;stroke-width:0.264583px;stroke-linecap:butt;stroke-linejoin:miter;stroke-opacity:1" />
    <path
       sodipodi:nodetypes="ccc"
       id="path11988"
       d="m 66.170817,142.23329 c -2.179179,-0.83889 -1.401849,-2.2178 -0.137879,-4.49596 1.18855,1.95976 2.11333,3.44854 0.137879,4.49596 z"
       style="fill:#050a05;fill-opacity:1;stroke:none;stroke-width:0.264583px;stroke-linecap:butt;stroke-linejoin:miter;stroke-opacity:1" />
    <path
       style="fill:#050a05;fill-opacity:1;stroke:none;stroke-width:0.264583px;stroke-linecap:butt;stroke-linejoin:miter;stroke-opacity:1"
       d="m 61.941908,142.80968 c 2.221068,-0.7207 1.518888,-2.13934 0.379198,-4.48207 -1.29204,1.89314 -2.295409,3.33013 -0.379198,4.48207 z"
       id="path11990"
       sodipodi:nodetypes="ccc" />
    <path
       sodipodi:nodetypes="ccc"
       id="path11992"
       d="m 61.352128,142.03107 c 1.987478,-1.22577 0.969568,-2.43799 -0.692071,-4.44453 -0.807421,2.14509 -1.442291,3.77869 0.692071,4.44453 z"
       style="fill:#050a05;fill-opacity:1;stroke:none;stroke-width:0.264583px;stroke-linecap:butt;stroke-linejoin:miter;stroke-opacity:1" />
    <path
       style="fill:#050a05;fill-opacity:1;stroke:none;stroke-width:0.264583px;stroke-linecap:butt;stroke-linejoin:miter;stroke-opacity:1"
       d="m 60.512978,142.45962 c 1.248709,-1.97314 -0.197681,-2.61625 -2.570911,-3.69095 0.21496,2.28191 0.360719,4.02846 2.570911,3.69095 z"
       id="path11994"
       sodipodi:nodetypes="ccc" />
    <path
       sodipodi:nodetypes="ccc"
       id="path11996"
       d="m 58.721217,144.69973 c -0.912201,-2.14953 -2.263989,-1.32596 -4.49806,0.0142 1.99888,1.12152 3.51812,1.99537 4.49806,-0.0142 z"
       style="fill:#050a05;fill-opacity:1;stroke:none;stroke-width:0.264583px;stroke-linecap:butt;stroke-linejoin:miter;stroke-opacity:1" />
    <path
       style="fill:#050a05;fill-opacity:1;stroke:none;stroke-width:0.264583px;stroke-linecap:butt;stroke-linejoin:miter;stroke-opacity:1"
       d="m 58.901737,143.79087 c 0.56316,-2.26614 -1.01219,-2.42059 -3.603191,-2.69253 0.923221,2.09785 1.612032,3.70945 3.603191,2.69253 z"
       id="path11998"
       sodipodi:nodetypes="ccc" />
    <path
       style="fill:#050a05;fill-opacity:1;stroke:none;stroke-width:0.264583px;stroke-linecap:butt;stroke-linejoin:miter;stroke-opacity:1"
       d="m 66.797107,145.00284 c 0.43407,-2.29438 1.93012,-1.77721 4.39818,-0.94275 -1.714561,1.52106 -3.013139,2.69807 -4.39818,0.94275 z"
       id="path12000"
       sodipodi:nodetypes="ccc" />
    <path
       style="fill:#050a05;fill-opacity:1;stroke:none;stroke-width:0.264583px;stroke-linecap:butt;stroke-linejoin:miter;stroke-opacity:1"
       d="m 57.337917,145.30095 c 1.01097,0.69135 2.112669,1.2466 3.79948,0.9242 0.82151,0.43709 1.64302,0.22339 2.464531,-0.15404 1.147788,0.63257 1.989859,0.27152 2.87528,0.0513 0.92565,0.47838 1.91389,-0.11986 2.310489,-0.46209 l -0.727781,-4.424 -8.955299,-0.44625 z"
       id="path12002"
       sodipodi:nodetypes="cccccccc" />
    <path
       style="fill:#050a05;fill-opacity:1;stroke:none;stroke-width:0.264583px;stroke-linecap:butt;stroke-linejoin:miter;stroke-opacity:1"
       d="m 66.814348,143.05837 c -1.768341,-1.52497 -0.571342,-2.56073 1.38717,-4.27883 0.457618,2.24586 0.825839,3.95937 -1.38717,4.27883 z"
       id="path12004"
       sodipodi:nodetypes="ccc" />
    <path
       sodipodi:nodetypes="ccc"
       id="path12006"
       d="m 60.764988,143.82185 c 0.74186,-2.2141 -0.816202,-2.49352 -3.377311,-2.97093 0.753219,2.16471 1.31149,3.82604 3.377311,2.97093 z"
       style="fill:#050a05;fill-opacity:1;stroke:none;stroke-width:0.264583px;stroke-linecap:butt;stroke-linejoin:miter;stroke-opacity:1" />
    <path
       style="fill:#050a05;fill-opacity:1;stroke:none;stroke-width:0.264583px;stroke-linecap:butt;stroke-linejoin:miter;stroke-opacity:1"
       d="m 58.909868,144.86505 c 0.122658,-2.33185 -1.453362,-2.18439 -4.048872,-1.95943 1.30474,1.8844 2.287011,3.3359 4.048872,1.95943 z"
       id="path12008"
       sodipodi:nodetypes="ccc" />
    <path
       sodipodi:nodetypes="ccc"
       id="path12010"
       d="m 67.707687,143.26135 c -1.214671,-1.99429 0.242551,-2.61247 2.634009,-3.64619 -0.254098,2.27789 -0.429818,4.02168 -2.634009,3.64619 z"
       style="fill:#050a05;fill-opacity:1;stroke:none;stroke-width:0.264583px;stroke-linecap:butt;stroke-linejoin:miter;stroke-opacity:1" />
  </g>
</svg>
