<?xml version="1.0" encoding="UTF-8" standalone="no"?>
<svg
   xmlns:dc="http://purl.org/dc/elements/1.1/"
   xmlns:cc="http://creativecommons.org/ns#"
   xmlns:rdf="http://www.w3.org/1999/02/22-rdf-syntax-ns#"
   xmlns:svg="http://www.w3.org/2000/svg"
   xmlns="http://www.w3.org/2000/svg"
   xmlns:sodipodi="http://sodipodi.sourceforge.net/DTD/sodipodi-0.dtd"
   xmlns:inkscape="http://www.inkscape.org/namespaces/inkscape"
   sodipodi:docname="13_bush_main_menu_right.svg"
   inkscape:version="1.0 (4035a4fb49, 2020-05-01)"
   id="svg15199"
   version="1.1"
   viewBox="0 0 49.014091 35.445587"
   height="35.445587mm"
   width="49.014091mm">
  <defs
     id="defs15193" />
  <sodipodi:namedview
     inkscape:window-maximized="1"
     inkscape:window-y="-8"
     inkscape:window-x="-8"
     inkscape:window-height="705"
     inkscape:window-width="1366"
     fit-margin-bottom="0"
     fit-margin-right="0"
     fit-margin-left="0"
     fit-margin-top="0"
     showgrid="false"
     inkscape:document-rotation="0"
     inkscape:current-layer="layer1"
     inkscape:document-units="mm"
     inkscape:cy="45.667694"
     inkscape:cx="78.904298"
     inkscape:zoom="1.8982902"
     inkscape:pageshadow="2"
     inkscape:pageopacity="0.0"
     borderopacity="1.0"
     bordercolor="#666666"
     pagecolor="#ffffff"
     id="base" />
  <metadata
     id="metadata15196">
    <rdf:RDF>
      <cc:Work
         rdf:about="">
        <dc:format>image/svg+xml</dc:format>
        <dc:type
           rdf:resource="http://purl.org/dc/dcmitype/StillImage" />
        <dc:title></dc:title>
      </cc:Work>
    </rdf:RDF>
  </metadata>
  <g
     transform="translate(-104.79896,-100.5449)"
     id="layer1"
     inkscape:groupmode="layer"
     inkscape:label="Layer 1">
    <path
       inkscape:export-ydpi="96"
       inkscape:export-xdpi="96"
       inkscape:export-filename="D:\Calcatz\Icon Pack\Adventure Narrative Inspired by Jumanji\Assets\PNG\Vines\08_bush_main_menu_right.png"
       id="path12014"
       style="fill:#041a08;fill-opacity:1;stroke:none;stroke-width:0.264583px;stroke-linecap:butt;stroke-linejoin:miter;stroke-opacity:1"
       d="m 141.70621,100.5449 c -0.61462,0.1287 -1.20757,0.2924 -1.77875,0.4871 -0.95309,0.29247 -1.17244,1.41357 -1.0234,1.96037 0.30235,2.3656 0.8217,3.7466 -0.22451,4.3776 -0.92416,0.5574 -1.43439,-2.0157 -0.98844,-5.3685 -0.52935,0.2816 -1.08478,0.465 -1.51531,0.9206 -0.5619,0.5948 -0.67671,1.78 -0.55175,2.2384 0.69422,3.1165 2.21812,4.8945 1.14573,5.6807 -1.31454,0.9637 -2.80283,-2.2158 -2.44998,-6.4311 -0.51845,0.481 -1.01944,0.9699 -1.4364,1.5067 -0.91254,1.1749 -0.48821,3.0438 0.10729,4.0301 1.49023,2.039 3.09953,3.1951 2.56541,4.1334 -0.83434,1.4657 -4.18335,-0.456 -4.94826,-4.6702 -0.94441,1.9575 -1.34242,3.8452 -1.15687,5.2182 0.35636,2.6368 3.44411,0.8731 7.59516,1.7859 -0.10259,0.3511 -0.22662,0.9305 -0.32438,1.596 -0.093,0.6328 -0.15177,1.2743 -0.15374,1.8417 -10e-4,0.3048 0.0142,0.5616 0.0404,0.7795 0.0352,0.2936 0.085,0.4748 0.11837,0.6055 -0.0325,-0.1275 -0.0436,-0.324 -0.0128,-0.6063 0.0231,-0.2113 0.0683,-0.4597 0.13664,-0.7454 0.12769,-0.5343 0.3192,-1.1283 0.52941,-1.7108 0.23737,-0.6579 0.46674,-1.2109 0.57909,-1.54 3.44989,0.9752 4.98427,3.1804 6.63875,1.0487 0.75607,-0.9742 1.35182,-2.4227 1.66644,-4.1042 -2.80688,2.792 -6.24652,2.9871 -6.21962,1.4638 0.0181,-1.0226 1.95276,-1.4053 4.26719,-2.5423 1.42814,-0.598 2.2499,-1.8927 2.11449,-3.1871 -0.071,-0.6778 -0.1922,-1.3611 -0.36571,-2.0395 -1.90314,3.6887 -4.75015,5.7527 -5.39288,4.4031 -0.51594,-1.0833 1.55617,-2.0107 3.70953,-4.2675 0.61242,-0.6206 0.95754,-1.9526 0.77289,-2.6299 -0.20551,-0.4218 -0.43656,-0.8357 -0.69463,-1.2387 -1.35995,3.1105 -3.13743,5.1441 -3.66048,4.2828 -0.61102,-1.0061 0.64436,-2.046 2.20383,-4.1146 0.71933,-0.7764 0.36165,-1.6817 -0.0879,-2.1008 -0.36848,-0.37307 -0.76969,-0.72857 -1.20483,-1.06327 z" />
    <path
       inkscape:export-ydpi="96"
       inkscape:export-xdpi="96"
       inkscape:export-filename="D:\Calcatz\Icon Pack\Adventure Narrative Inspired by Jumanji\Assets\PNG\Vines\08_bush_main_menu_right.png"
       d="m 152.00922,109.93137 c -0.41145,-0.1766 -0.8246,-0.3238 -1.23771,-0.4441 -0.67606,-0.2196 -1.26323,0.345 -1.40013,0.7251 -0.79228,1.5046 -1.05472,2.5233 -1.92378,2.4632 -0.76766,-0.053 -0.0117,-1.7639 1.62158,-3.5383 -0.42429,-0.052 -0.82356,-0.1728 -1.26147,-0.083 -0.57152,0.1171 -1.12391,0.7618 -1.23869,1.0806 -0.87106,2.1033 -0.7097,3.7651 -1.6576,3.7848 -1.16194,0.024 -0.72855,-2.4411 1.20364,-4.7569 -0.49957,0.068 -0.99219,0.1486 -1.4554,0.2911 -1.01377,0.3121 -1.53145,1.5767 -1.58776,2.3962 0.0348,1.8005 0.50064,3.1343 -0.19536,3.4632 -1.08719,0.5138 -2.25497,-1.9793 -0.97565,-4.7523 -1.35283,0.7558 -2.35821,1.6946 -2.81218,2.572 -0.87181,1.685 1.65272,1.92 3.70178,4.1527 -0.2037,0.163 -0.51334,0.4503 -0.84295,0.7988 -0.31341,0.3312 -0.61043,0.6816 -0.84392,1.0119 -0.12547,0.1775 -0.2217,0.3336 -0.29568,0.4716 -0.0997,0.1858 -0.14482,0.3119 -0.17884,0.4018 0.0332,-0.088 0.10722,-0.2069 0.2408,-0.359 0.10002,-0.114 0.22815,-0.2404 0.38503,-0.3792 0.29333,-0.2596 0.64834,-0.5278 1.00961,-0.7818 0.40796,-0.2867 0.76828,-0.5155 0.96864,-0.6616 1.61427,1.9819 1.60676,3.8974 3.44544,3.3307 0.84025,-0.259 1.78114,-0.8604 2.65338,-1.713 -2.78167,0.4801 -4.8692,-0.8146 -4.22969,-1.6927 0.42931,-0.5894 1.71528,-0.021 3.53177,0.2636 1.07848,0.2358 2.08831,-0.1833 2.53933,-0.9943 0.23617,-0.4247 0.44523,-0.8731 0.62177,-1.3402 -2.6214,1.3737 -5.12837,1.4125 -4.95085,0.3616 0.14249,-0.8436 1.73172,-0.5364 3.91278,-0.9718 0.61163,-0.1114 1.35852,-0.7475 1.52812,-1.2185 0.0528,-0.3303 0.0874,-0.6665 0.10185,-1.0075 -2.06761,1.2587 -3.93784,1.7177 -3.89043,1.0008 0.0554,-0.8375 1.21395,-0.9303 2.97131,-1.4991 0.7378,-0.1586 0.89977,-0.8335 0.80902,-1.2621 -0.0623,-0.3687 -0.15087,-0.7405 -0.26776,-1.1141 z"
       style="fill:#041a08;fill-opacity:1;stroke:none;stroke-width:0.264583px;stroke-linecap:butt;stroke-linejoin:miter;stroke-opacity:1"
       id="path12016" />
    <path
       sodipodi:nodetypes="ccc"
       id="path12018"
       d="m 141.79566,127.92447 c 0.58947,-6.51996 4.90426,-5.48225 12.01739,-3.82253 -4.37219,4.70905 -7.67687,8.34534 -12.01739,3.82253 z"
       style="fill:#050a05;fill-opacity:1;stroke:none;stroke-width:0.264586px;stroke-linecap:butt;stroke-linejoin:miter;stroke-opacity:1" />
    <path
       sodipodi:nodetypes="ccc"
       id="path12020"
       d="m 131.05475,123.17242 c 6.41527,-1.30448 4.90833,-5.4786 2.47523,-12.36538 -4.1985,4.86455 -7.44842,8.54986 -2.47523,12.36538 z"
       style="fill:#050a05;fill-opacity:1;stroke:none;stroke-width:0.264586px;stroke-linecap:butt;stroke-linejoin:miter;stroke-opacity:1" />
    <path
       sodipodi:nodetypes="ccc"
       id="path12022"
       d="m 138.29507,124.11677 c -6.1095,-2.35189 -3.9302,-6.21775 -0.38657,-12.60474 3.3322,5.49432 5.92487,9.66823 0.38657,12.60474 z"
       style="fill:#050a05;fill-opacity:1;stroke:none;stroke-width:0.264586px;stroke-linecap:butt;stroke-linejoin:miter;stroke-opacity:1" />
    <path
       style="fill:#050a05;fill-opacity:1;stroke:none;stroke-width:0.264586px;stroke-linecap:butt;stroke-linejoin:miter;stroke-opacity:1"
       d="m 126.43901,125.73273 c 6.22694,-2.02053 4.25832,-5.9978 1.06313,-12.56579 -3.62235,5.30753 -6.43535,9.33623 -1.06313,12.56579 z"
       id="path12024"
       sodipodi:nodetypes="ccc" />
    <path
       sodipodi:nodetypes="ccc"
       id="path12026"
       d="m 124.78553,123.54983 c 5.57205,-3.43653 2.71825,-6.83506 -1.94027,-12.46053 -2.26366,6.0139 -4.04355,10.59381 1.94027,12.46053 z"
       style="fill:#050a05;fill-opacity:1;stroke:none;stroke-width:0.264586px;stroke-linecap:butt;stroke-linejoin:miter;stroke-opacity:1" />
    <path
       style="fill:#050a05;fill-opacity:1;stroke:none;stroke-width:0.264586px;stroke-linecap:butt;stroke-linejoin:miter;stroke-opacity:1"
       d="m 122.43289,124.75131 c 3.50085,-5.53185 -0.5542,-7.33483 -7.20772,-10.34784 0.60267,6.3975 1.01131,11.29407 7.20772,10.34784 z"
       id="path12028"
       sodipodi:nodetypes="ccc" />
    <path
       sodipodi:nodetypes="ccc"
       id="path12033"
       d="m 117.40958,131.03161 c -2.5574,-6.02636 -6.34725,-3.71743 -12.61062,0.0399 5.604,3.14427 9.86329,5.59415 12.61062,-0.0399 z"
       style="fill:#050a05;fill-opacity:1;stroke:none;stroke-width:0.264586px;stroke-linecap:butt;stroke-linejoin:miter;stroke-opacity:1" />
    <path
       style="fill:#050a05;fill-opacity:1;stroke:none;stroke-width:0.264586px;stroke-linecap:butt;stroke-linejoin:miter;stroke-opacity:1"
       d="m 117.91568,128.48357 c 1.57888,-6.3533 -2.83776,-6.7863 -10.1018,-7.5487 2.58833,5.88147 4.51945,10.39969 10.1018,7.5487 z"
       id="path12035"
       sodipodi:nodetypes="ccc" />
    <path
       style="fill:#050a05;fill-opacity:1;stroke:none;stroke-width:0.264586px;stroke-linecap:butt;stroke-linejoin:miter;stroke-opacity:1"
       d="m 140.05092,131.88141 c 1.21692,-6.43246 5.41121,-4.98254 12.3306,-2.64306 -4.80689,4.26439 -8.44756,7.56422 -12.3306,2.64306 z"
       id="path12038"
       sodipodi:nodetypes="ccc" />
    <path
       style="fill:#050a05;fill-opacity:1;stroke:none;stroke-width:0.264583px;stroke-linecap:butt;stroke-linejoin:miter;stroke-opacity:1"
       d="m 113.53141,132.71717 c 2.83433,1.93825 5.92302,3.49493 10.6521,2.59105 2.30316,1.22543 4.60632,0.6263 6.90947,-0.43184 3.21793,1.77345 5.57873,0.76121 8.06105,0.14394 2.59515,1.34117 5.36575,-0.33605 6.47763,-1.29552 l -2.04039,-12.40299 -25.1068,-1.25109 z"
       id="path12040"
       sodipodi:nodetypes="cccccccc" />
    <path
       style="fill:#050a05;fill-opacity:1;stroke:none;stroke-width:0.264586px;stroke-linecap:butt;stroke-linejoin:miter;stroke-opacity:1"
       d="m 140.09925,126.42996 c -4.95768,-4.27537 -1.60181,-7.1792 3.88903,-11.99602 1.28297,6.29643 2.3153,11.10036 -3.88903,11.99602 z"
       id="path12043"
       sodipodi:nodetypes="ccc" />
    <path
       sodipodi:nodetypes="ccc"
       id="path12045"
       d="m 123.13944,128.57042 c 2.07985,-6.20738 -2.28827,-6.99075 -9.46853,-8.32923 2.1117,6.06893 3.67685,10.72659 9.46853,8.32923 z"
       style="fill:#050a05;fill-opacity:1;stroke:none;stroke-width:0.264586px;stroke-linecap:butt;stroke-linejoin:miter;stroke-opacity:1" />
    <path
       style="fill:#050a05;fill-opacity:1;stroke:none;stroke-width:0.264586px;stroke-linecap:butt;stroke-linejoin:miter;stroke-opacity:1"
       d="m 117.93848,131.4951 c 0.34389,-6.53751 -4.07461,-6.12408 -11.35128,-5.49341 3.65792,5.28306 6.41177,9.35244 11.35128,5.49341 z"
       id="path12051"
       sodipodi:nodetypes="ccc" />
    <path
       sodipodi:nodetypes="ccc"
       id="path12054"
       d="m 142.60377,126.99901 c -3.40539,-5.59112 0.68001,-7.32423 7.38464,-10.22234 -0.71239,6.38622 -1.20502,11.27505 -7.38464,10.22234 z"
       style="fill:#050a05;fill-opacity:1;stroke:none;stroke-width:0.264586px;stroke-linecap:butt;stroke-linejoin:miter;stroke-opacity:1" />
  </g>
</svg>
