<?xml version="1.0" encoding="UTF-8" standalone="no"?>
<svg
   xmlns:dc="http://purl.org/dc/elements/1.1/"
   xmlns:cc="http://creativecommons.org/ns#"
   xmlns:rdf="http://www.w3.org/1999/02/22-rdf-syntax-ns#"
   xmlns:svg="http://www.w3.org/2000/svg"
   xmlns="http://www.w3.org/2000/svg"
   xmlns:sodipodi="http://sodipodi.sourceforge.net/DTD/sodipodi-0.dtd"
   xmlns:inkscape="http://www.inkscape.org/namespaces/inkscape"
   sodipodi:docname="14_bush_main_menu_right_shadow.svg"
   inkscape:version="1.0 (4035a4fb49, 2020-05-01)"
   id="svg15828"
   version="1.1"
   viewBox="0 0 49.586315 36.919228"
   height="36.919228mm"
   width="49.586315mm">
  <defs
     id="defs15822">
    <filter
       height="1.0157442"
       y="-0.0078720804"
       width="1.0116754"
       x="-0.0058376375"
       id="filter12436"
       style="color-interpolation-filters:sRGB"
       inkscape:collect="always">
      <feGaussianBlur
         id="feGaussianBlur12438"
         stdDeviation="0.11921929"
         inkscape:collect="always" />
    </filter>
  </defs>
  <sodipodi:namedview
     inkscape:window-maximized="1"
     inkscape:window-y="-8"
     inkscape:window-x="-8"
     inkscape:window-height="705"
     inkscape:window-width="1366"
     fit-margin-bottom="0"
     fit-margin-right="0"
     fit-margin-left="0"
     fit-margin-top="0"
     showgrid="false"
     inkscape:document-rotation="0"
     inkscape:current-layer="layer1"
     inkscape:document-units="mm"
     inkscape:cy="79.282603"
     inkscape:cx="14.70726"
     inkscape:zoom="1.8982902"
     inkscape:pageshadow="2"
     inkscape:pageopacity="0.0"
     borderopacity="1.0"
     bordercolor="#666666"
     pagecolor="#ffffff"
     id="base" />
  <metadata
     id="metadata15825">
    <rdf:RDF>
      <cc:Work
         rdf:about="">
        <dc:format>image/svg+xml</dc:format>
        <dc:type
           rdf:resource="http://purl.org/dc/dcmitype/StillImage" />
        <dc:title></dc:title>
      </cc:Work>
    </rdf:RDF>
  </metadata>
  <g
     transform="translate(-84.013117,-147.11515)"
     id="layer1"
     inkscape:groupmode="layer"
     inkscape:label="Layer 1">
    <path
       id="path12438"
       style="opacity:0.999;fill:#000000;fill-opacity:1;stroke:none;stroke-width:0.267922px;stroke-linecap:butt;stroke-linejoin:miter;stroke-opacity:1;filter:url(#filter12436)"
       d="m 121.20655,147.40218 c -0.61462,0.1321 -1.20753,0.3002 -1.77871,0.4998 -0.95309,0.2999 -1.17223,1.4492 -1.02319,2.0098 0.30235,2.4258 0.82142,3.8418 -0.22479,4.4888 -0.92416,0.5715 -1.43401,-2.0666 -0.98806,-5.5046 -0.52934,0.2888 -1.08513,0.4766 -1.51566,0.9438 -0.5619,0.6099 -0.67635,1.8254 -0.55139,2.2955 0.69422,3.1956 2.21805,5.0189 1.14566,5.8251 -1.31454,0.9881 -2.80283,-2.2721 -2.44998,-6.5946 -0.51845,0.4933 -1.01964,0.9942 -1.4366,1.5447 -0.91254,1.2047 -0.48801,3.1213 0.10749,4.1326 1.49023,2.0908 3.09933,3.2765 2.56521,4.2386 -0.16515,0.2975 -0.42972,0.4567 -0.7524,0.4907 -0.35411,-1.1749 -0.79406,-2.4551 -1.27383,-3.8475 -0.55356,0.6576 -1.08824,1.2931 -1.59215,1.9119 -0.59312,-0.8592 -1.08908,-1.9852 -1.32963,-3.3443 -0.94441,2.0072 -1.34259,3.943 -1.15704,5.3509 0.0529,0.4016 0.16742,0.7015 0.33538,0.9278 -0.24134,0.3929 -0.45378,0.7795 -0.63148,1.161 -0.47364,-1.1016 -1.03932,-2.2946 -1.65262,-3.5874 -0.48612,0.7304 -0.95509,1.4353 -1.39423,2.1196 -0.86748,-1.2799 -1.99326,-2.6776 -3.26285,-4.2497 -0.85634,2.3329 -1.64254,4.4546 -1.96629,6.2956 -1.462737,-0.9541 -3.409617,-1.8553 -5.653907,-2.8973 0.22482,2.4471 0.42298,4.6795 0.90433,6.4672 -0.77632,-0.1594 -1.59413,-0.316 -2.45824,-0.4812 0.19688,0.5803 0.387,1.1311 0.57825,1.6814 -1.70856,-0.464 -3.89715,-0.6971 -6.43526,-0.9702 0.78376,1.8261 1.50796,3.519 2.29082,4.9179 -1.08173,0.062 -2.25335,0.1653 -3.51762,0.2777 0.70322,1.0414 1.37254,2.0345 2.03088,2.9351 -1.16188,0.6322 -2.42649,1.4068 -3.8194,2.2637 4.27245,2.458 7.76269,4.4977 10.39781,2.7702 2.41164,1.4228 5.1631,2.3232 8.987047,1.5738 2.30316,1.2565 4.60599,0.6425 6.90914,-0.4425 3.21793,1.8185 5.57869,0.7803 8.06101,0.1474 2.14748,1.1379 4.41242,0.1567 5.76089,-0.7732 2.27969,-0.4166 4.67669,-2.6177 7.46672,-5.1558 -0.9955,-0.3452 -1.92771,-0.6662 -2.80964,-0.9522 1.34403,-1.1063 2.72864,-2.644 4.24108,-4.3144 -1.79734,-0.43 -3.41444,-0.8186 -4.8395,-1.0524 0.425,-1.475 0.65815,-3.2812 0.87747,-5.2416 0.57258,-0.1496 1.04983,-0.5037 1.3224,-1.0063 0.23617,-0.4355 0.44564,-0.8956 0.62218,-1.3746 -2.6214,1.4086 -5.12864,1.4486 -4.95112,0.371 0.1425,-0.865 1.73188,-0.5503 3.91294,-0.9968 0.61163,-0.1142 1.35848,-0.7665 1.52808,-1.2494 0.0528,-0.3387 0.0874,-0.6832 0.1018,-1.0328 -2.06761,1.2907 -3.93761,1.7615 -3.8902,1.0264 0.0554,-0.8588 1.21351,-0.9539 2.97087,-1.5372 0.73781,-0.1626 0.90001,-0.8551 0.80926,-1.2945 -0.0623,-0.3781 -0.1508,-0.7594 -0.26769,-1.1424 -0.41145,-0.1811 -0.82454,-0.3319 -1.23765,-0.4552 -0.67606,-0.2252 -1.26353,0.3536 -1.40043,0.7434 -0.79228,1.5428 -1.05433,2.5871 -1.9234,2.5255 -0.76765,-0.054 -0.0122,-1.8087 1.6211,-3.6282 -0.4243,-0.053 -0.82352,-0.1769 -1.26143,-0.085 -0.57152,0.12 -1.1239,0.7811 -1.23868,1.108 -0.87106,2.1567 -0.70936,3.8608 -1.65726,3.8809 -0.56557,0.012 -0.75026,-0.5834 -0.57103,-1.4688 1.4102,-0.6187 2.22016,-1.9364 2.08566,-3.2547 -0.071,-0.695 -0.19183,-1.3958 -0.36535,-2.0915 -0.41738,0.8296 -0.88102,1.573 -1.35599,2.223 -0.0148,0 -0.0302,0.01 -0.045,0.012 -0.72427,0.2287 -1.19111,0.9555 -1.42162,1.6585 -0.69058,0.6311 -1.33205,0.9998 -1.81694,1.0408 0.084,-0.4986 0.2375,-1.0263 0.47956,-1.5643 -0.48332,0.2769 -0.92003,0.5785 -1.30535,0.8918 -0.1243,-1.0114 1.79308,-1.986 3.78168,-4.123 0.61243,-0.6364 0.95773,-2.0027 0.77308,-2.6972 -0.20551,-0.4326 -0.43646,-0.857 -0.69453,-1.2702 -1.35995,3.1895 -3.13771,5.275 -3.66076,4.3918 -0.61102,-1.0317 0.64453,-2.0979 2.204,-4.219 0.71933,-0.7961 0.3617,-1.7242 -0.0879,-2.154 -0.36848,-0.3827 -0.76995,-0.7473 -1.20509,-1.0906 z m 1.44125,12.8023 c 0.11434,1.218 0.26198,2.0834 -0.27078,2.3416 -0.61807,0.2995 -1.26085,-0.3994 -1.46658,-1.5791 0.48819,-0.2308 1.08287,-0.4746 1.73736,-0.7625 z m -3.09697,2.1656 c 0.3694,0.2554 0.79096,0.5289 1.24644,0.8642 -0.45164,-0.021 -0.80935,-0.1432 -1.02423,-0.364 -0.0698,-0.1423 -0.13979,-0.2852 -0.21394,-0.4297 -0.004,-0.023 -0.006,-0.046 -0.008,-0.071 z m -4.80022,1.0482 c 0.0728,0.01 0.14382,0.01 0.21756,0.014 -0.0468,0.1069 -0.0924,0.2131 -0.13643,0.318 -0.0236,-0.1076 -0.0551,-0.2229 -0.0811,-0.3327 z m 10.49548,1.3247 c 0.46399,0 1.12199,0.1724 1.91926,0.346 -0.77429,0.3562 -1.49785,0.7034 -2.15438,1.0518 -0.48022,-0.3518 -0.66253,-0.7759 -0.40825,-1.134 0.13416,-0.1889 0.35185,-0.2618 0.64337,-0.2638 z"
       inkscape:export-filename="D:\Calcatz\Icon Pack\Adventure Narrative Inspired by Jumanji\Assets\PNG\Plant\28_bush_main_menu_right_shadow.png"
       inkscape:export-xdpi="96"
       inkscape:export-ydpi="96" />
  </g>
</svg>
