<?xml version="1.0" encoding="UTF-8" standalone="no"?>
<svg
   xmlns:dc="http://purl.org/dc/elements/1.1/"
   xmlns:cc="http://creativecommons.org/ns#"
   xmlns:rdf="http://www.w3.org/1999/02/22-rdf-syntax-ns#"
   xmlns:svg="http://www.w3.org/2000/svg"
   xmlns="http://www.w3.org/2000/svg"
   xmlns:sodipodi="http://sodipodi.sourceforge.net/DTD/sodipodi-0.dtd"
   xmlns:inkscape="http://www.inkscape.org/namespaces/inkscape"
   sodipodi:docname="15_bush_main_menu_middle.svg"
   inkscape:version="1.0 (4035a4fb49, 2020-05-01)"
   id="svg11596"
   version="1.1"
   viewBox="0 0 54.968918 28.287271"
   height="28.287271mm"
   width="54.968918mm">
  <defs
     id="defs11590" />
  <sodipodi:namedview
     inkscape:window-maximized="1"
     inkscape:window-y="-8"
     inkscape:window-x="-8"
     inkscape:window-height="705"
     inkscape:window-width="1366"
     fit-margin-bottom="0"
     fit-margin-right="0"
     fit-margin-left="0"
     fit-margin-top="0"
     showgrid="false"
     inkscape:document-rotation="0"
     inkscape:current-layer="layer1"
     inkscape:document-units="mm"
     inkscape:cy="77.311108"
     inkscape:cx="109.41835"
     inkscape:zoom="1.8982902"
     inkscape:pageshadow="2"
     inkscape:pageopacity="0.0"
     borderopacity="1.0"
     bordercolor="#666666"
     pagecolor="#ffffff"
     id="base" />
  <metadata
     id="metadata11593">
    <rdf:RDF>
      <cc:Work
         rdf:about="">
        <dc:format>image/svg+xml</dc:format>
        <dc:type
           rdf:resource="http://purl.org/dc/dcmitype/StillImage" />
        <dc:title></dc:title>
      </cc:Work>
    </rdf:RDF>
  </metadata>
  <g
     transform="translate(-78.348872,-134.02303)"
     id="layer1"
     inkscape:groupmode="layer"
     inkscape:label="Layer 1">
    <path
       inkscape:export-ydpi="96"
       inkscape:export-xdpi="96"
       inkscape:export-filename="D:\Calcatz\Icon Pack\Adventure Narrative Inspired by Jumanji\Assets\PNG\Vines\09_bush_main_menu_middle.png"
       id="path12062"
       style="fill:#041a08;fill-opacity:1;stroke:none;stroke-width:0.264583px;stroke-linecap:butt;stroke-linejoin:miter;stroke-opacity:1"
       d="m 113.65708,134.09062 c -0.90411,-0.071 -1.79238,-0.085 -2.66306,-0.047 -1.43967,0.018 -2.19895,1.483 -2.2144,2.3013 -0.54156,3.4013 -0.3826,5.5262 -2.08881,5.9759 -1.50715,0.3972 -1.16943,-3.376 0.81012,-7.8417 -0.84799,0.1753 -1.69223,0.2039 -2.47396,0.6606 -1.02026,0.596 -1.66067,2.1921 -1.67363,2.8781 -0.30338,4.6012 1.08666,7.6841 -0.71887,8.3383 -2.21321,0.8019 -2.984767,-4.209 -0.784,-9.9079 -0.91384,0.4561 -1.8067,0.9302 -2.602557,1.5049 -1.74181,1.2577 -1.91264,4.0202 -1.4878,5.6289 1.23734,3.4311 2.998237,5.6869 1.87696,6.7704 -1.75148,1.6925 -5.61262,-2.3307 -4.96148,-8.4818 -2.10373,2.3293 -3.42192,4.784 -3.72229,6.7622 -0.57685,3.7991 4.41876,2.6085 9.801137,5.5592 -0.28479,0.4451 -0.69193,1.1976 -1.097687,2.0803 -0.38578,0.8393 -0.72779,1.7045 -0.96091,2.49 -0.12526,0.422 -0.20836,0.7841 -0.26059,1.0968 -0.0704,0.4212 -0.075,0.6925 -0.0818,0.8871 0.007,-0.1898 0.0711,-0.4666 0.22847,-0.8453 0.1178,-0.2835 0.28138,-0.6094 0.49209,-0.9777 0.39394,-0.6886 0.90055,-1.434 1.428427,-2.1561 0.59613,-0.8153 1.13857,-1.4885 1.42791,-1.8991 4.3853,2.7524 5.61634,6.4318 8.775,4.1492 1.44344,-1.0431 2.8573,-2.8087 3.97616,-5.0114 -5.02388,2.7297 -9.87018,1.6034 -9.21435,-0.4969 0.44028,-1.4098 3.27704,-1.1547 6.94637,-1.7906 2.22214,-0.249 3.88677,-1.7095 4.2247,-3.5584 0.17697,-0.9683 0.28636,-1.9645 0.32134,-2.9751 -4.13548,4.3394 -8.91935,6.0438 -9.26212,3.9125 -0.27516,-1.7109 2.97324,-2.1548 6.87406,-4.4081 1.1008,-0.6115 2.11997,-2.3174 2.13912,-3.3311 -0.11354,-0.6681 -0.2657,-1.3355 -0.4597,-1.9989 -3.1479,3.7588 -6.43712,5.8553 -6.8123,4.4493 -0.43829,-1.6424 1.72385,-2.5739 4.72517,-4.8076 1.31221,-0.7839 1.18412,-2.1838 0.73128,-2.9472 -0.35948,-0.6666 -0.77087,-1.3223 -1.238,-1.963 z" />
    <path
       inkscape:export-ydpi="96"
       inkscape:export-xdpi="96"
       inkscape:export-filename="D:\Calcatz\Icon Pack\Adventure Narrative Inspired by Jumanji\Assets\PNG\Vines\09_bush_main_menu_middle.png"
       d="m 84.003303,140.40392 c -0.4828,0.4015 -0.93,0.8239 -1.3435,1.2634 -0.70515,0.7047 -0.37392,1.7981 0.0138,2.2114 1.37498,1.9485 2.48061,2.9255 1.85173,3.973 -0.55552,0.9253 -2.21134,-1.1092 -3.38748,-4.2805 -0.33584,0.4967 -0.74073,0.9188 -0.90773,1.5231 -0.21796,0.7886 0.23567,1.8896 0.56074,2.2361 2.072879,2.4285 4.251979,3.2858 3.672649,4.4827 -0.71014,1.4671 -3.51415,-0.6452 -5.17644,-4.5349 -0.23285,0.6677 -0.44656,1.3343 -0.56357,2.0039 -0.25607,1.4655 0.99407,2.918 1.98212,3.5106 2.27162,1.1037 4.23496,1.3716 4.20244,2.4507 -0.0508,1.6858 -3.9098,1.5562 -6.55919,-1.809 0.0822,2.1718 0.61462,4.0261 1.42156,5.1523 1.54972,2.1629 3.45195,-0.8415 7.54714,-1.9789 0.0738,0.3583 0.23553,0.9282 0.46083,1.5621 0.21423,0.6026 0.46267,1.197 0.72663,1.6992 0.1418,0.2698 0.27557,0.4896 0.40075,0.6699 0.16866,0.2429 0.29745,0.3797 0.38812,0.4795 -0.0884,-0.097 -0.19022,-0.2658 -0.29517,-0.5297 -0.0786,-0.1975 -0.15493,-0.4382 -0.2284,-0.7226 -0.13738,-0.5319 -0.24631,-1.1464 -0.33341,-1.7596 -0.0984,-0.6924 -0.15464,-1.2884 -0.20951,-1.6318 3.50487,-0.754 5.89333,0.4759 6.35685,-2.1825 0.21181,-1.2148 0.0599,-2.7736 -0.44962,-4.4067 -1.17254,3.7814 -4.12031,5.5646 -4.80991,4.2061 -0.46292,-0.912 1.06726,-2.1562 2.57975,-4.2446 0.98176,-1.1973 1.10156,-2.726 0.37574,-3.8062 -0.3801,-0.5657 -0.80724,-1.1127 -1.27826,-1.6308 0.0459,4.1504 -1.50301,7.3074 -2.70292,6.416 -0.96319,-0.7156 0.43334,-2.5054 1.27909,-5.5079 0.25045,-0.8352 -0.0684,-2.1736 -0.54873,-2.6856 -0.37912,-0.2765 -0.7771,-0.534 -1.19387,-0.7692 0.25512,3.3852 -0.36308,6.0144 -1.22856,5.4984 -1.01103,-0.6028 -0.38883,-2.1095 0.0203,-4.6676 0.27198,-1.0229 -0.46803,-1.6553 -1.06147,-1.815 -0.50032,-0.1572 -1.02129,-0.2833 -1.56253,-0.3753 z"
       style="fill:#001302;fill-opacity:1;stroke:none;stroke-width:0.264583px;stroke-linecap:butt;stroke-linejoin:miter;stroke-opacity:1"
       id="path12064" />
    <path
       sodipodi:nodetypes="ccc"
       id="path12072"
       d="m 120.48196,158.09974 c 0.16889,-1.86805 1.40513,-1.57073 3.44313,-1.0952 -1.25269,1.3492 -2.19952,2.39105 -3.44313,1.0952 z"
       style="fill:#050a05;fill-opacity:1;stroke:none;stroke-width:0.264586px;stroke-linecap:butt;stroke-linejoin:miter;stroke-opacity:1" />
    <path
       sodipodi:nodetypes="ccc"
       id="path12074"
       d="m 117.40455,156.73822 c 1.83806,-0.37375 1.4063,-1.56969 0.70919,-3.54284 -1.20293,1.39376 -2.13407,2.44965 -0.70919,3.54284 z"
       style="fill:#050a05;fill-opacity:1;stroke:none;stroke-width:0.264586px;stroke-linecap:butt;stroke-linejoin:miter;stroke-opacity:1" />
    <path
       sodipodi:nodetypes="ccc"
       id="path12089"
       d="m 119.47899,157.00879 c -1.75044,-0.67385 -1.12605,-1.78146 -0.11075,-3.61142 0.95471,1.57419 1.69755,2.77007 0.11075,3.61142 z"
       style="fill:#050a05;fill-opacity:1;stroke:none;stroke-width:0.264586px;stroke-linecap:butt;stroke-linejoin:miter;stroke-opacity:1" />
    <path
       style="fill:#050a05;fill-opacity:1;stroke:none;stroke-width:0.264586px;stroke-linecap:butt;stroke-linejoin:miter;stroke-opacity:1"
       d="m 116.08209,157.47178 c 1.78409,-0.57891 1.22006,-1.71844 0.30459,-3.60026 -1.03784,1.52068 -1.8438,2.67495 -0.30459,3.60026 z"
       id="path12092"
       sodipodi:nodetypes="ccc" />
    <path
       sodipodi:nodetypes="ccc"
       id="path12104"
       d="m 115.60834,156.84635 c 1.59646,-0.98461 0.77881,-1.95833 -0.55591,-3.5701 -0.64857,1.72306 -1.15853,3.03526 0.55591,3.5701 z"
       style="fill:#050a05;fill-opacity:1;stroke:none;stroke-width:0.264586px;stroke-linecap:butt;stroke-linejoin:miter;stroke-opacity:1" />
    <path
       style="fill:#050a05;fill-opacity:1;stroke:none;stroke-width:0.264586px;stroke-linecap:butt;stroke-linejoin:miter;stroke-opacity:1"
       d="m 114.93428,157.19059 c 1.00304,-1.58494 -0.15878,-2.10152 -2.0651,-2.96478 0.17267,1.83296 0.28975,3.23589 2.0651,2.96478 z"
       id="path12109"
       sodipodi:nodetypes="ccc" />
    <path
       sodipodi:nodetypes="ccc"
       id="path12115"
       d="m 113.49504,158.98998 c -0.73273,-1.72663 -1.81857,-1.06509 -3.6131,0.0114 1.60561,0.90087 2.82595,1.60279 3.6131,-0.0114 z"
       style="fill:#050a05;fill-opacity:1;stroke:none;stroke-width:0.264586px;stroke-linecap:butt;stroke-linejoin:miter;stroke-opacity:1" />
    <path
       style="fill:#050a05;fill-opacity:1;stroke:none;stroke-width:0.264586px;stroke-linecap:butt;stroke-linejoin:miter;stroke-opacity:1"
       d="m 113.64004,158.25993 c 0.45237,-1.8203 -0.81305,-1.94436 -2.89429,-2.1628 0.74159,1.68512 1.29488,2.97965 2.89429,2.1628 z"
       id="path12122"
       sodipodi:nodetypes="ccc" />
    <path
       style="fill:#050a05;fill-opacity:1;stroke:none;stroke-width:0.264586px;stroke-linecap:butt;stroke-linejoin:miter;stroke-opacity:1"
       d="m 119.98207,159.23346 c 0.34866,-1.84298 1.55038,-1.42757 3.53287,-0.75727 -1.37723,1.2218 -2.42033,2.16724 -3.53287,0.75727 z"
       id="path12132"
       sodipodi:nodetypes="ccc" />
    <path
       style="fill:#050a05;fill-opacity:1;stroke:none;stroke-width:0.264583px;stroke-linecap:butt;stroke-linejoin:miter;stroke-opacity:1"
       d="m 112.38389,159.47291 c 0.81207,0.55533 1.69702,1.00135 3.05197,0.74237 0.65988,0.3511 1.31976,0.17944 1.97965,-0.12373 0.92197,0.50812 1.59837,0.2181 2.30959,0.0412 0.74354,0.38427 1.53735,-0.0963 1.85592,-0.37118 l -0.5846,-3.55361 -7.19341,-0.35846 z"
       id="path12134"
       sodipodi:nodetypes="cccccccc" />
    <path
       style="fill:#050a05;fill-opacity:1;stroke:none;stroke-width:0.264586px;stroke-linecap:butt;stroke-linejoin:miter;stroke-opacity:1"
       d="m 119.99592,157.67155 c -1.42044,-1.22495 -0.45894,-2.05694 1.11425,-3.43701 0.36759,1.804 0.66336,3.18039 -1.11425,3.43701 z"
       id="path12144"
       sodipodi:nodetypes="ccc" />
    <path
       sodipodi:nodetypes="ccc"
       id="path12152"
       d="m 115.13672,158.28482 c 0.5959,-1.7785 -0.65562,-2.00294 -2.71286,-2.38643 0.60503,1.73882 1.05347,3.0733 2.71286,2.38643 z"
       style="fill:#050a05;fill-opacity:1;stroke:none;stroke-width:0.264586px;stroke-linecap:butt;stroke-linejoin:miter;stroke-opacity:1" />
    <path
       style="fill:#050a05;fill-opacity:1;stroke:none;stroke-width:0.264586px;stroke-linecap:butt;stroke-linejoin:miter;stroke-opacity:1"
       d="m 113.64657,159.12277 c 0.0985,-1.87308 -1.16742,-1.75462 -3.25228,-1.57393 1.04804,1.51367 1.83705,2.6796 3.25228,1.57393 z"
       id="path12154"
       sodipodi:nodetypes="ccc" />
    <path
       sodipodi:nodetypes="ccc"
       id="path12162"
       d="m 120.71349,157.83459 c -0.97569,-1.60193 0.19483,-2.09849 2.11579,-2.92883 -0.2041,1.82973 -0.34525,3.23044 -2.11579,2.92883 z"
       style="fill:#050a05;fill-opacity:1;stroke:none;stroke-width:0.264586px;stroke-linecap:butt;stroke-linejoin:miter;stroke-opacity:1" />
    <path
       style="fill:#050a05;fill-opacity:1;stroke:none;stroke-width:0.264586px;stroke-linecap:butt;stroke-linejoin:miter;stroke-opacity:1"
       d="m 122.71777,159.68724 c -0.16889,-1.86805 -1.40513,-1.57073 -3.44313,-1.0952 1.25269,1.3492 2.19952,2.39105 3.44313,1.0952 z"
       id="path12175"
       sodipodi:nodetypes="ccc" />
    <path
       style="fill:#050a05;fill-opacity:1;stroke:none;stroke-width:0.264586px;stroke-linecap:butt;stroke-linejoin:miter;stroke-opacity:1"
       d="m 125.79518,158.32572 c -1.83806,-0.37375 -1.4063,-1.56969 -0.70919,-3.54284 1.20293,1.39376 2.13407,2.44965 0.70919,3.54284 z"
       id="path12183"
       sodipodi:nodetypes="ccc" />
    <path
       style="fill:#050a05;fill-opacity:1;stroke:none;stroke-width:0.264586px;stroke-linecap:butt;stroke-linejoin:miter;stroke-opacity:1"
       d="m 123.72074,158.59629 c 1.75044,-0.67385 1.12605,-1.78146 0.11075,-3.61142 -0.95471,1.57419 -1.69755,2.77007 -0.11075,3.61142 z"
       id="path12185"
       sodipodi:nodetypes="ccc" />
    <path
       sodipodi:nodetypes="ccc"
       id="path12193"
       d="m 127.11764,159.05928 c -1.78409,-0.57891 -1.22006,-1.71844 -0.30459,-3.60026 1.03784,1.52068 1.8438,2.67495 0.30459,3.60026 z"
       style="fill:#050a05;fill-opacity:1;stroke:none;stroke-width:0.264586px;stroke-linecap:butt;stroke-linejoin:miter;stroke-opacity:1" />
    <path
       style="fill:#050a05;fill-opacity:1;stroke:none;stroke-width:0.264586px;stroke-linecap:butt;stroke-linejoin:miter;stroke-opacity:1"
       d="m 127.59139,158.43385 c -1.59646,-0.98461 -0.77881,-1.95833 0.55591,-3.5701 0.64857,1.72306 1.15853,3.03526 -0.55591,3.5701 z"
       id="path12195"
       sodipodi:nodetypes="ccc" />
    <path
       sodipodi:nodetypes="ccc"
       id="path12203"
       d="m 128.26545,158.77809 c -1.00304,-1.58494 0.15878,-2.10152 2.0651,-2.96478 -0.17267,1.83296 -0.28975,3.23589 -2.0651,2.96478 z"
       style="fill:#050a05;fill-opacity:1;stroke:none;stroke-width:0.264586px;stroke-linecap:butt;stroke-linejoin:miter;stroke-opacity:1" />
    <path
       style="fill:#050a05;fill-opacity:1;stroke:none;stroke-width:0.264586px;stroke-linecap:butt;stroke-linejoin:miter;stroke-opacity:1"
       d="m 129.70469,160.57748 c 0.73273,-1.72663 1.81857,-1.06509 3.6131,0.0114 -1.60561,0.90087 -2.82595,1.60279 -3.6131,-0.0114 z"
       id="path12205"
       sodipodi:nodetypes="ccc" />
    <path
       sodipodi:nodetypes="ccc"
       id="path12213"
       d="m 129.55969,159.84743 c -0.45237,-1.8203 0.81305,-1.94436 2.89429,-2.1628 -0.74159,1.68512 -1.29488,2.97965 -2.89429,2.1628 z"
       style="fill:#050a05;fill-opacity:1;stroke:none;stroke-width:0.264586px;stroke-linecap:butt;stroke-linejoin:miter;stroke-opacity:1" />
    <path
       sodipodi:nodetypes="ccc"
       id="path12215"
       d="m 123.21766,160.82096 c -0.34866,-1.84298 -1.55038,-1.42757 -3.53287,-0.75727 1.37723,1.2218 2.42033,2.16724 3.53287,0.75727 z"
       style="fill:#050a05;fill-opacity:1;stroke:none;stroke-width:0.264586px;stroke-linecap:butt;stroke-linejoin:miter;stroke-opacity:1" />
    <path
       sodipodi:nodetypes="cccccccc"
       id="path12250"
       d="m 130.81584,161.06041 c -0.81207,0.55533 -1.69702,1.00135 -3.05197,0.74237 -0.65988,0.3511 -1.31976,0.17944 -1.97965,-0.12373 -0.92197,0.50812 -1.59837,0.2181 -2.30959,0.0412 -0.74354,0.38427 -1.53735,-0.0963 -1.85592,-0.37118 l 0.5846,-3.55361 7.19341,-0.35846 z"
       style="fill:#050a05;fill-opacity:1;stroke:none;stroke-width:0.264583px;stroke-linecap:butt;stroke-linejoin:miter;stroke-opacity:1" />
    <path
       sodipodi:nodetypes="ccc"
       id="path12256"
       d="m 123.20381,159.25905 c 1.42044,-1.22495 0.45894,-2.05694 -1.11425,-3.43701 -0.36759,1.804 -0.66336,3.18039 1.11425,3.43701 z"
       style="fill:#050a05;fill-opacity:1;stroke:none;stroke-width:0.264586px;stroke-linecap:butt;stroke-linejoin:miter;stroke-opacity:1" />
    <path
       style="fill:#050a05;fill-opacity:1;stroke:none;stroke-width:0.264586px;stroke-linecap:butt;stroke-linejoin:miter;stroke-opacity:1"
       d="m 128.06301,159.87232 c -0.5959,-1.7785 0.65562,-2.00294 2.71286,-2.38643 -0.60503,1.73882 -1.05347,3.0733 -2.71286,2.38643 z"
       id="path12262"
       sodipodi:nodetypes="ccc" />
    <path
       sodipodi:nodetypes="ccc"
       id="path12268"
       d="m 129.55316,160.71027 c -0.0985,-1.87308 1.16742,-1.75462 3.25228,-1.57393 -1.04804,1.51367 -1.83705,2.6796 -3.25228,1.57393 z"
       style="fill:#050a05;fill-opacity:1;stroke:none;stroke-width:0.264586px;stroke-linecap:butt;stroke-linejoin:miter;stroke-opacity:1" />
    <path
       style="fill:#050a05;fill-opacity:1;stroke:none;stroke-width:0.264586px;stroke-linecap:butt;stroke-linejoin:miter;stroke-opacity:1"
       d="m 122.48624,159.42209 c 0.97569,-1.60193 -0.19483,-2.09849 -2.11579,-2.92883 0.2041,1.82973 0.34525,3.23044 2.11579,2.92883 z"
       id="path12271"
       sodipodi:nodetypes="ccc" />
    <path
       style="fill:#050a05;fill-opacity:1;stroke:none;stroke-width:0.264583px;stroke-linecap:butt;stroke-linejoin:miter;stroke-opacity:1"
       d="m 101.1178,159.43325 c 0.21026,-2.32559 1.74929,-1.95545 4.28646,-1.36345 -1.55951,1.67966 -2.73824,2.97668 -4.28646,1.36345 z"
       id="path12275"
       sodipodi:nodetypes="ccc" />
    <path
       style="fill:#050a05;fill-opacity:1;stroke:none;stroke-width:0.264583px;stroke-linecap:butt;stroke-linejoin:miter;stroke-opacity:1"
       d="m 97.286653,157.73825 c 2.28825,-0.46529 1.75074,-1.95415 0.88288,-4.41058 -1.49755,1.73512 -2.65676,3.04963 -0.88288,4.41058 z"
       id="path12277"
       sodipodi:nodetypes="ccc" />
    <path
       style="fill:#050a05;fill-opacity:1;stroke:none;stroke-width:0.264583px;stroke-linecap:butt;stroke-linejoin:miter;stroke-opacity:1"
       d="m 99.869183,158.07509 c -2.17918,-0.83889 -1.40185,-2.2178 -0.13788,-4.49596 1.188547,1.95976 2.113327,3.44854 0.13788,4.49596 z"
       id="path12279"
       sodipodi:nodetypes="ccc" />
    <path
       sodipodi:nodetypes="ccc"
       id="path12281"
       d="m 95.640273,158.65148 c 2.22107,-0.7207 1.51889,-2.13934 0.3792,-4.48207 -1.29204,1.89314 -2.29541,3.33013 -0.3792,4.48207 z"
       style="fill:#050a05;fill-opacity:1;stroke:none;stroke-width:0.264583px;stroke-linecap:butt;stroke-linejoin:miter;stroke-opacity:1" />
    <path
       style="fill:#050a05;fill-opacity:1;stroke:none;stroke-width:0.264583px;stroke-linecap:butt;stroke-linejoin:miter;stroke-opacity:1"
       d="m 95.050493,157.87287 c 1.98748,-1.22577 0.96957,-2.43799 -0.69207,-4.44453 -0.80742,2.14509 -1.44229,3.77869 0.69207,4.44453 z"
       id="path12283"
       sodipodi:nodetypes="ccc" />
    <path
       sodipodi:nodetypes="ccc"
       id="path12286"
       d="m 94.211343,158.30142 c 1.24871,-1.97314 -0.19768,-2.61625 -2.57091,-3.69095 0.21496,2.28191 0.36072,4.02846 2.57091,3.69095 z"
       style="fill:#050a05;fill-opacity:1;stroke:none;stroke-width:0.264583px;stroke-linecap:butt;stroke-linejoin:miter;stroke-opacity:1" />
    <path
       style="fill:#050a05;fill-opacity:1;stroke:none;stroke-width:0.264583px;stroke-linecap:butt;stroke-linejoin:miter;stroke-opacity:1"
       d="m 92.419583,160.54153 c -0.9122,-2.14953 -2.26399,-1.32596 -4.49806,0.0142 1.99888,1.12152 3.51812,1.99537 4.49806,-0.0142 z"
       id="path12288"
       sodipodi:nodetypes="ccc" />
    <path
       sodipodi:nodetypes="ccc"
       id="path12290"
       d="m 92.600103,159.63267 c 0.56316,-2.26614 -1.01219,-2.42059 -3.60319,-2.69253 0.92322,2.09785 1.61203,3.70945 3.60319,2.69253 z"
       style="fill:#050a05;fill-opacity:1;stroke:none;stroke-width:0.264583px;stroke-linecap:butt;stroke-linejoin:miter;stroke-opacity:1" />
    <path
       sodipodi:nodetypes="ccc"
       id="path12292"
       d="m 100.49547,160.84464 c 0.43407,-2.29438 1.93012,-1.77721 4.39818,-0.94275 -1.71456,1.52106 -3.01314,2.69807 -4.39818,0.94275 z"
       style="fill:#050a05;fill-opacity:1;stroke:none;stroke-width:0.264583px;stroke-linecap:butt;stroke-linejoin:miter;stroke-opacity:1" />
    <path
       sodipodi:nodetypes="cccccccc"
       id="path12294"
       d="m 91.036283,161.14275 c 1.01097,0.69135 2.11267,1.2466 3.79948,0.9242 0.82151,0.43709 1.64302,0.22339 2.46453,-0.15404 1.14779,0.63257 1.98986,0.27152 2.875277,0.0513 0.92565,0.47838 1.91389,-0.11986 2.31049,-0.46209 l -0.72778,-4.424 -8.955297,-0.44625 z"
       style="fill:#050a05;fill-opacity:1;stroke:none;stroke-width:0.264583px;stroke-linecap:butt;stroke-linejoin:miter;stroke-opacity:1" />
    <path
       sodipodi:nodetypes="ccc"
       id="path12296"
       d="m 100.51271,158.90017 c -1.768337,-1.52497 -0.571337,-2.56073 1.38717,-4.27883 0.45762,2.24586 0.82584,3.95937 -1.38717,4.27883 z"
       style="fill:#050a05;fill-opacity:1;stroke:none;stroke-width:0.264583px;stroke-linecap:butt;stroke-linejoin:miter;stroke-opacity:1" />
    <path
       style="fill:#050a05;fill-opacity:1;stroke:none;stroke-width:0.264583px;stroke-linecap:butt;stroke-linejoin:miter;stroke-opacity:1"
       d="m 94.463353,159.66365 c 0.74186,-2.2141 -0.8162,-2.49352 -3.37731,-2.97093 0.75322,2.16471 1.31149,3.82604 3.37731,2.97093 z"
       id="path12298"
       sodipodi:nodetypes="ccc" />
    <path
       sodipodi:nodetypes="ccc"
       id="path12300"
       d="m 92.608233,160.70685 c 0.12266,-2.33185 -1.45336,-2.18439 -4.04887,-1.95943 1.30474,1.8844 2.28701,3.3359 4.04887,1.95943 z"
       style="fill:#050a05;fill-opacity:1;stroke:none;stroke-width:0.264583px;stroke-linecap:butt;stroke-linejoin:miter;stroke-opacity:1" />
    <path
       style="fill:#050a05;fill-opacity:1;stroke:none;stroke-width:0.264583px;stroke-linecap:butt;stroke-linejoin:miter;stroke-opacity:1"
       d="m 101.40605,159.10315 c -1.21467,-1.99429 0.24255,-2.61247 2.63401,-3.64619 -0.2541,2.27789 -0.42982,4.02168 -2.63401,3.64619 z"
       id="path12302"
       sodipodi:nodetypes="ccc" />
  </g>
</svg>
