<?xml version="1.0" encoding="UTF-8" standalone="no"?>
<svg
   xmlns:dc="http://purl.org/dc/elements/1.1/"
   xmlns:cc="http://creativecommons.org/ns#"
   xmlns:rdf="http://www.w3.org/1999/02/22-rdf-syntax-ns#"
   xmlns:svg="http://www.w3.org/2000/svg"
   xmlns="http://www.w3.org/2000/svg"
   xmlns:sodipodi="http://sodipodi.sourceforge.net/DTD/sodipodi-0.dtd"
   xmlns:inkscape="http://www.inkscape.org/namespaces/inkscape"
   sodipodi:docname="16_bush_main_menu_middle_shadow.svg"
   inkscape:version="1.0 (4035a4fb49, 2020-05-01)"
   id="svg12257"
   version="1.1"
   viewBox="0 0 55.541508 29.578201"
   height="29.578201mm"
   width="55.541508mm">
  <defs
     id="defs12251">
    <filter
       height="1.0197288"
       y="-0.009864402"
       width="1.0104104"
       x="-0.0052052056"
       id="filter12432"
       style="color-interpolation-filters:sRGB"
       inkscape:collect="always">
      <feGaussianBlur
         id="feGaussianBlur12434"
         stdDeviation="0.11921929"
         inkscape:collect="always" />
    </filter>
  </defs>
  <sodipodi:namedview
     inkscape:window-maximized="1"
     inkscape:window-y="-8"
     inkscape:window-x="-8"
     inkscape:window-height="705"
     inkscape:window-width="1366"
     fit-margin-bottom="0"
     fit-margin-right="0"
     fit-margin-left="0"
     fit-margin-top="0"
     showgrid="false"
     inkscape:document-rotation="0"
     inkscape:current-layer="layer1"
     inkscape:document-units="mm"
     inkscape:cy="51.3895"
     inkscape:cx="236.50092"
     inkscape:zoom="1.3422939"
     inkscape:pageshadow="2"
     inkscape:pageopacity="0.0"
     borderopacity="1.0"
     bordercolor="#666666"
     pagecolor="#ffffff"
     id="base" />
  <metadata
     id="metadata12254">
    <rdf:RDF>
      <cc:Work
         rdf:about="">
        <dc:format>image/svg+xml</dc:format>
        <dc:type
           rdf:resource="http://purl.org/dc/dcmitype/StillImage" />
        <dc:title></dc:title>
      </cc:Work>
    </rdf:RDF>
  </metadata>
  <g
     transform="translate(-74.727908,-86.921114)"
     id="layer1"
     inkscape:groupmode="layer"
     inkscape:label="Layer 1">
    <path
       id="path12435"
       style="fill:#000000;fill-opacity:1;stroke:none;stroke-width:0.267922px;stroke-linecap:butt;stroke-linejoin:miter;stroke-opacity:1;filter:url(#filter12432)"
       d="m 108.31589,87.208736 c -0.21984,0 -0.43863,0.01 -0.6563,0.02 -1.43968,0.018 -2.1994,1.5205 -2.21485,2.3595 -0.54155,3.487701 -0.38257,5.666601 -2.08876,6.127701 -1.50714,0.4073 -1.16927,-3.4614 0.81029,-8.040501 -0.84799,0.1797 -1.69204,0.2088 -2.47375,0.6771 -1.02026,0.6112 -1.66084,2.2476 -1.67381,2.951001 -0.303365,4.7181 1.0867,7.879499 -0.718815,8.550299 -2.21321,0.822304 -2.98471,-4.315899 -0.78393,-10.1595 -0.91384,0.4677 -1.80708,0.953701 -2.60294,1.543001 -1.74181,1.2896 -1.9126,4.1225 -1.48776,5.772099 1.23733,3.518204 2.99868,5.831004 1.87741,6.942104 -1.75149,1.7354 -5.61311,-2.3897 -4.96197,-8.697103 -1.11374,1.2644 -2.00433,2.564399 -2.64327,3.809399 -0.31536,-0.4508 -0.65841,-0.8887 -1.02992,-1.3078 0.0459,4.255804 -1.50328,7.492704 -2.70316,6.578604 -0.963221,-0.7337 0.43322,-2.5688 1.27896,-5.647604 0.25046,-0.8564 -0.0685,-2.228799 -0.54879,-2.753799 -0.37913,-0.2836 -0.77695,-0.5473 -1.193721,-0.7885 0.255111,3.471199 -0.36288,6.167203 -1.22836,5.638103 -1.01103,-0.6182 -0.38896,-2.163504 0.0202,-4.786603 0.27197,-1.0489 -0.46799,-1.6972 -1.06143,-1.8609 -0.50032,-0.1612 -1.02145,-0.2904 -1.56271,-0.3848 -0.48278,0.4117 -0.92956,0.845 -1.34307,1.2956 -0.70514,0.7226 -0.37428,1.8436 0.0134,2.267399 1.37498,1.998 2.48097,2.999704 1.85208,4.073804 -0.55552,0.9488 -2.21176,-1.1371 -3.38791,-4.389004 -0.33584,0.5093 -0.74044,0.9419 -0.90741,1.5616 -0.21797,0.8086 0.23561,1.937504 0.56067,2.292804 2.07288,2.4902 4.25196,3.3695 3.67266,4.5968 -0.71014,1.5043 -3.51414,-0.6618 -5.17644,-4.6503 -0.23286,0.6846 -0.44678,1.3683 -0.5638,2.0549 -0.25607,1.5027 0.99428,2.9924 1.98231,3.6001 2.27163,1.1317 4.23487,1.4062 4.20232,2.5127 -0.0508,1.7286 -3.90988,1.5955 -6.55928,-1.8552 0.0822,2.227 0.61468,4.1288 1.42163,5.2836 1.54972,2.2179 3.45215,-0.8632 7.54735,-2.0294 0.0738,0.3674 0.23563,0.9517 0.46095,1.6017 0.21421,0.6179 0.462601,1.2274 0.726551,1.7424 0.0491,0.095 0.0961,0.1773 0.14316,0.2612 -0.23235,0.1391 -0.47196,0.2858 -0.726571,0.4424 1.524721,0.8773 2.769241,1.6024 3.709331,0.9846 0.8605,0.5079 1.83981,0.8328 3.20445,0.5654 0.8215,0.4482 1.64346,0.2291 2.46496,-0.1579 1.14779,0.6486 1.98988,0.2785 2.87528,0.052 0.76838,0.4072 1.57475,0.054 2.05518,-0.2787 0.81309,-0.1487 1.667765,-0.9309 2.662895,-1.8361 -0.35812,-0.1241 -0.68977,-0.2364 -1.00666,-0.3391 0.48082,-0.3949 0.97602,-0.9416 1.5172,-1.5393 -0.64122,-0.1534 -1.21812,-0.2918 -1.72649,-0.3752 0.11745,-0.4075 0.19341,-0.8835 0.25837,-1.4015 2.71981,2.3181 4.02886,4.4679 6.4058,2.9933 1.01592,0.573 1.86155,0.9612 2.51923,0.5293 0.6913,0.4081 1.4782,0.6691 2.57453,0.4542 0.65987,0.36 1.31984,0.1843 1.97971,-0.1266 0.92197,0.521 1.59822,0.2234 2.30942,0.042 0.0254,0.013 0.051,0.024 0.0765,0.035 0.74859,0.6804 1.40182,1.2557 2.02211,1.3692 0.38589,0.2673 1.03385,0.5507 1.65105,0.2236 0.71122,0.1816 1.38745,0.4792 2.30941,-0.042 0.6599,0.3109 1.31985,0.4866 1.97975,0.1266 1.09601,0.2148 1.88285,-0.046 2.574,-0.4541 0.75517,0.4971 1.75516,-0.085 2.98016,-0.7901 -0.40222,-0.2475 -0.76412,-0.4671 -1.09916,-0.6491 0.19042,-0.26 0.38309,-0.5397 0.58653,-0.8409 -0.36619,-0.033 -0.69652,-0.058 -1.00923,-0.076 0.22495,-0.4013 0.43273,-0.8877 0.65783,-1.4122 -0.72871,0.078 -1.35434,0.1462 -1.84433,0.2798 0.055,-0.1583 0.10975,-0.3169 0.1664,-0.4838 -0.24752,0.047 -0.48196,0.092 -0.70435,0.1383 0.13798,-0.5122 0.19447,-1.1517 0.2589,-1.853 -0.64471,0.2993 -1.20058,0.5583 -1.62005,0.8324 -0.0925,-0.528 -0.31755,-1.137 -0.56327,-1.8063 -0.36404,0.4507 -0.68672,0.8518 -0.93535,1.2186 -0.12608,-0.1964 -0.25932,-0.3984 -0.39894,-0.6082 -0.17812,0.3754 -0.33449,0.7136 -0.47128,1.0328 -0.2454,-0.5299 -0.72371,-1.0938 -1.25574,-1.7259 -0.21894,0.6354 -0.41177,1.1918 -0.51625,1.6686 -0.18045,-0.4294 -0.44111,-0.9128 -0.73795,-1.4615 -0.36034,0.6093 -0.69032,1.1628 -0.87643,1.6628 -0.1033,-0.1015 -0.20371,-0.2019 -0.31935,-0.3088 0.0837,-0.4263 0.13639,-0.9127 0.19327,-1.4355 -0.57195,0.2535 -1.07487,0.4771 -1.47693,0.709 -0.0491,-0.4242 -0.14179,-0.8933 -0.24183,-1.3968 -0.32292,0.2905 -0.61005,0.5529 -0.86611,0.8043 -0.18611,-0.5 -0.51557,-1.0535 -0.8759,-1.6628 -0.29697,0.5489 -0.55804,1.0325 -0.73845,1.462 -0.10449,-0.4769 -0.29724,-1.0335 -0.51626,-1.6691 -0.53234,0.6324 -1.00997,1.1967 -1.25521,1.7269 -0.1369,-0.3195 -0.2935,-0.658 -0.4718,-1.0338 -0.13965,0.2097 -0.27287,0.4118 -0.39897,0.6082 -0.2486,-0.3669 -0.57131,-0.7679 -0.93533,-1.2187 -0.24566,0.6692 -0.47072,1.278 -0.56327,1.8059 -0.0868,-0.056 -0.17918,-0.1126 -0.27752,-0.1685 0.16139,-0.2882 0.3185,-0.5839 0.46974,-0.8891 -0.37227,0.2073 -0.74287,0.3905 -1.11104,0.5557 -0.21958,-0.1062 -0.45336,-0.215 -0.70125,-0.33 0.019,0.207 0.0379,0.4057 0.0579,0.6003 -4.33178,1.686 -8.03878,0.5647 -7.46001,-1.3359 0.44027,-1.4456 3.277,-1.184 6.94635,-1.836 2.22213,-0.2554 3.88712,-1.7525 4.22505,-3.6483 0.17698,-0.9929 0.28646,-2.014804 0.32144,-3.051104 -4.13549,4.449604 -8.91971,6.197704 -9.26248,4.012304 -0.27516,-1.7544 2.97318,-2.21 6.87398,-4.520504 1.1008,-0.627 2.12027,-2.376299 2.13942,-3.415699 -0.11356,-0.6851 -0.26593,-1.3693 -0.45992,-2.0496 -3.14791,3.8543 -6.43681,6.004199 -6.81199,4.562399 -0.43828,-1.684099 1.72344,-2.639099 4.72477,-4.929599 1.3122,-0.8038 1.18459,-2.239201 0.73173,-3.021901 -0.35946,-0.6836 -0.77102,-1.3561 -1.23817,-2.0131 -0.67807,-0.054 -1.34705,-0.076 -2.00657,-0.068 z M 87.990495,104.11284 c 0.41175,0.5334 1.11802,0.8673 2.01695,1.1594 -1.37843,2.5311 -3.45311,3.5501 -4.01733,2.4104 -0.40346,-0.815 0.70715,-1.8898 2.00038,-3.5698 z m 3.28613,1.5292 c 1.4565,0.3895 3.21897,0.8211 5.07719,1.6972 -0.35129,0.6493 -0.66101,1.2283 -0.87643,1.7412 -0.13002,-0.5939 -0.36952,-1.287 -0.64233,-2.0787 -0.6627,0.7873 -1.25788,1.4898 -1.56321,2.1498 -0.17039,-0.3977 -0.36513,-0.8189 -0.58706,-1.2866 -0.17375,0.2611 -0.3397,0.5121 -0.4966,0.7567 -0.24169,-0.3567 -0.54744,-0.7472 -0.88315,-1.1653 0.0549,-0.5548 0.0444,-1.1664 -0.0284,-1.8143 z m 5.20173,1.7566 c 0.31186,0.1501 0.626,0.3117 0.94155,0.4891 -0.0976,0.1562 -0.21305,0.3609 -0.33436,0.5839 -0.18071,-0.3409 -0.38544,-0.698 -0.60719,-1.073 z m 2.13889,1.1965 c 0.47218,0.305 0.90265,0.6215 1.30794,0.9395 -0.39407,0.1804 -0.7508,0.3552 -1.05833,0.5325 -0.0521,-0.4506 -0.14589,-0.9476 -0.24961,-1.472 z m -10.14976,1.1949 c 0.0432,0.2973 0.0927,0.5809 0.16071,0.8335 -0.27683,-0.056 -0.5688,-0.1122 -0.87694,-0.1712 0.0706,0.2081 0.13918,0.4053 0.20773,0.6025 -0.6101,-0.1664 -1.38883,-0.2515 -2.29651,-0.3492 0.28025,0.6531 0.53904,1.2586 0.81908,1.7582 -0.38939,0.023 -0.80077,0.054 -1.25678,0.095 0.25316,0.3749 0.49276,0.7225 0.72967,1.046 -0.1448,0.079 -0.2935,0.1625 -0.44802,0.2533 -0.0237,-0.083 -0.0476,-0.1628 -0.0708,-0.2549 -0.13737,-0.5454 -0.24622,-1.1754 -0.33332,-1.8042 -0.0984,-0.7101 -0.15494,-1.3214 -0.20979,-1.6735 1.38316,-0.3051 2.58924,-0.2944 3.57497,-0.3359 z"
       inkscape:export-filename="D:\Calcatz\Icon Pack\Adventure Narrative Inspired by Jumanji\Assets\PNG\Plant\29_bush_main_menu_middle_shadow.png"
       inkscape:export-xdpi="96"
       inkscape:export-ydpi="96" />
  </g>
</svg>
