<?xml version="1.0" encoding="UTF-8" standalone="no"?>
<svg
   xmlns:dc="http://purl.org/dc/elements/1.1/"
   xmlns:cc="http://creativecommons.org/ns#"
   xmlns:rdf="http://www.w3.org/1999/02/22-rdf-syntax-ns#"
   xmlns:svg="http://www.w3.org/2000/svg"
   xmlns="http://www.w3.org/2000/svg"
   xmlns:sodipodi="http://sodipodi.sourceforge.net/DTD/sodipodi-0.dtd"
   xmlns:inkscape="http://www.inkscape.org/namespaces/inkscape"
   sodipodi:docname="17_bush_main_menu_left.svg"
   inkscape:version="1.0 (4035a4fb49, 2020-05-01)"
   id="svg12847"
   version="1.1"
   viewBox="0 0 33.650391 31.009769"
   height="31.009769mm"
   width="33.650391mm">
  <defs
     id="defs12841" />
  <sodipodi:namedview
     inkscape:window-maximized="1"
     inkscape:window-y="-8"
     inkscape:window-x="-8"
     inkscape:window-height="705"
     inkscape:window-width="1366"
     fit-margin-bottom="0"
     fit-margin-right="0"
     fit-margin-left="0"
     fit-margin-top="0"
     showgrid="false"
     inkscape:document-rotation="0"
     inkscape:current-layer="layer1"
     inkscape:document-units="mm"
     inkscape:cy="27.915694"
     inkscape:cx="134.08595"
     inkscape:zoom="1.8982902"
     inkscape:pageshadow="2"
     inkscape:pageopacity="0.0"
     borderopacity="1.0"
     bordercolor="#666666"
     pagecolor="#ffffff"
     id="base" />
  <metadata
     id="metadata12844">
    <rdf:RDF>
      <cc:Work
         rdf:about="">
        <dc:format>image/svg+xml</dc:format>
        <dc:type
           rdf:resource="http://purl.org/dc/dcmitype/StillImage" />
        <dc:title></dc:title>
      </cc:Work>
    </rdf:RDF>
  </metadata>
  <g
     transform="translate(-56.500772,-101.1859)"
     id="layer1"
     inkscape:groupmode="layer"
     inkscape:label="Layer 1">
    <path
       id="path12576"
       d="m 56.807412,101.1859 -0.30664,1.28711 c 20.87325,4.96408 26.33301,15.98932 32.537112,25.64258 l 1.113279,-0.71484 C 84.002162,117.83322 78.064382,106.24123 56.807412,101.1859 Z"
       style="color:#000000;font-style:normal;font-variant:normal;font-weight:normal;font-stretch:normal;font-size:medium;line-height:normal;font-family:sans-serif;font-variant-ligatures:normal;font-variant-position:normal;font-variant-caps:normal;font-variant-numeric:normal;font-variant-alternates:normal;font-variant-east-asian:normal;font-feature-settings:normal;font-variation-settings:normal;text-indent:0;text-align:start;text-decoration:none;text-decoration-line:none;text-decoration-style:solid;text-decoration-color:#000000;letter-spacing:normal;word-spacing:normal;text-transform:none;writing-mode:lr-tb;direction:ltr;text-orientation:mixed;dominant-baseline:auto;baseline-shift:baseline;text-anchor:start;white-space:normal;shape-padding:0;shape-margin:0;inline-size:0;clip-rule:nonzero;display:inline;overflow:visible;visibility:visible;opacity:1;isolation:auto;mix-blend-mode:normal;color-interpolation:sRGB;color-interpolation-filters:linearRGB;solid-color:#000000;solid-opacity:1;vector-effect:none;fill:#041a08;fill-opacity:1;fill-rule:nonzero;stroke:none;stroke-width:1.32292;stroke-linecap:butt;stroke-linejoin:miter;stroke-miterlimit:4;stroke-dasharray:none;stroke-dashoffset:0;stroke-opacity:1;color-rendering:auto;image-rendering:auto;shape-rendering:auto;text-rendering:auto;enable-background:accumulate;stop-color:#000000;stop-opacity:1" />
    <path
       id="path12580"
       d="m 73.848432,108.59411 -0.38868,0.36133 c 5.66757,6.07969 8.61598,13.81223 8.85938,23.24023 l 0.5293,-0.0137 c -0.24606,-9.53099 -3.24199,-17.41117 -9,-23.58788 z"
       style="color:#000000;font-style:normal;font-variant:normal;font-weight:normal;font-stretch:normal;font-size:medium;line-height:normal;font-family:sans-serif;font-variant-ligatures:normal;font-variant-position:normal;font-variant-caps:normal;font-variant-numeric:normal;font-variant-alternates:normal;font-variant-east-asian:normal;font-feature-settings:normal;font-variation-settings:normal;text-indent:0;text-align:start;text-decoration:none;text-decoration-line:none;text-decoration-style:solid;text-decoration-color:#000000;letter-spacing:normal;word-spacing:normal;text-transform:none;writing-mode:lr-tb;direction:ltr;text-orientation:mixed;dominant-baseline:auto;baseline-shift:baseline;text-anchor:start;white-space:normal;shape-padding:0;shape-margin:0;inline-size:0;clip-rule:nonzero;display:inline;overflow:visible;visibility:visible;opacity:1;isolation:auto;mix-blend-mode:normal;color-interpolation:sRGB;color-interpolation-filters:linearRGB;solid-color:#000000;solid-opacity:1;vector-effect:none;fill:#041a08;fill-opacity:1;fill-rule:nonzero;stroke:none;stroke-width:0.529167;stroke-linecap:butt;stroke-linejoin:miter;stroke-miterlimit:4;stroke-dasharray:none;stroke-dashoffset:0;stroke-opacity:1;color-rendering:auto;image-rendering:auto;shape-rendering:auto;text-rendering:auto;enable-background:accumulate;stop-color:#000000;stop-opacity:1" />
    <path
       id="path12584"
       d="m 80.526162,119.76208 -0.24414,0.3125 c 3.876551,3.0133 5.49819,6.34362 7.195309,9.61718 l 0.35156,-0.18359 c -1.69404,-3.26763 -3.35647,-6.6786 -7.302729,-9.74609 z"
       style="color:#000000;font-style:normal;font-variant:normal;font-weight:normal;font-stretch:normal;font-size:medium;line-height:normal;font-family:sans-serif;font-variant-ligatures:normal;font-variant-position:normal;font-variant-caps:normal;font-variant-numeric:normal;font-variant-alternates:normal;font-variant-east-asian:normal;font-feature-settings:normal;font-variation-settings:normal;text-indent:0;text-align:start;text-decoration:none;text-decoration-line:none;text-decoration-style:solid;text-decoration-color:#000000;letter-spacing:normal;word-spacing:normal;text-transform:none;writing-mode:lr-tb;direction:ltr;text-orientation:mixed;dominant-baseline:auto;baseline-shift:baseline;text-anchor:start;white-space:normal;shape-padding:0;shape-margin:0;inline-size:0;clip-rule:nonzero;display:inline;overflow:visible;visibility:visible;opacity:1;isolation:auto;mix-blend-mode:normal;color-interpolation:sRGB;color-interpolation-filters:linearRGB;solid-color:#000000;solid-opacity:1;vector-effect:none;fill:#041a08;fill-opacity:1;fill-rule:nonzero;stroke:none;stroke-width:0.396875;stroke-linecap:butt;stroke-linejoin:miter;stroke-miterlimit:4;stroke-dasharray:none;stroke-dashoffset:0;stroke-opacity:1;color-rendering:auto;image-rendering:auto;shape-rendering:auto;text-rendering:auto;enable-background:accumulate;stop-color:#000000;stop-opacity:1" />
    <path
       style="fill:#050a05;fill-opacity:1;stroke:none;stroke-width:0.264586px;stroke-linecap:butt;stroke-linejoin:miter;stroke-opacity:1"
       d="m 79.813552,124.56513 c 0.36618,-4.05017 3.04651,-3.40555 7.465141,-2.37454 -2.71598,2.92524 -4.768831,5.18409 -7.465141,2.37454 z"
       id="path12312"
       sodipodi:nodetypes="ccc" />
    <path
       style="fill:#050a05;fill-opacity:1;stroke:none;stroke-width:0.264586px;stroke-linecap:butt;stroke-linejoin:miter;stroke-opacity:1"
       d="m 73.141352,121.61318 c 3.98513,-0.81034 3.04903,-3.40328 1.5376,-7.68132 -2.60809,3.02184 -4.62693,5.31113 -1.5376,7.68132 z"
       id="path12314"
       sodipodi:nodetypes="ccc" />
    <path
       style="fill:#050a05;fill-opacity:1;stroke:none;stroke-width:0.264586px;stroke-linecap:butt;stroke-linejoin:miter;stroke-opacity:1"
       d="m 77.639002,122.19981 c -3.79519,-1.46099 -2.44142,-3.86244 -0.24013,-7.83001 2.06994,3.41305 3.68049,6.00586 0.24013,7.83001 z"
       id="path12316"
       sodipodi:nodetypes="ccc" />
    <path
       sodipodi:nodetypes="ccc"
       id="path12318"
       d="m 70.274072,123.20363 c 3.86815,-1.25515 2.64525,-3.7258 0.66041,-7.80581 -2.25018,3.29701 -3.99761,5.79962 -0.66041,7.80581 z"
       style="fill:#050a05;fill-opacity:1;stroke:none;stroke-width:0.264586px;stroke-linecap:butt;stroke-linejoin:miter;stroke-opacity:1" />
    <path
       style="fill:#050a05;fill-opacity:1;stroke:none;stroke-width:0.264586px;stroke-linecap:butt;stroke-linejoin:miter;stroke-opacity:1"
       d="m 69.246942,121.84762 c 3.46132,-2.13476 1.68856,-4.2459 -1.20529,-7.74042 -1.40618,3.73581 -2.511839,6.58082 1.20529,7.74042 z"
       id="path12320"
       sodipodi:nodetypes="ccc" />
    <path
       sodipodi:nodetypes="ccc"
       id="path12322"
       d="m 67.785492,122.59398 c 2.17471,-3.43636 -0.34427,-4.55636 -4.477409,-6.42803 0.37438,3.97409 0.62823,7.01582 4.477409,6.42803 z"
       style="fill:#050a05;fill-opacity:1;stroke:none;stroke-width:0.264586px;stroke-linecap:butt;stroke-linejoin:miter;stroke-opacity:1" />
    <path
       style="fill:#050a05;fill-opacity:1;stroke:none;stroke-width:0.264586px;stroke-linecap:butt;stroke-linejoin:miter;stroke-opacity:1"
       d="m 64.665033,126.49527 c -1.588651,-3.74355 -3.942881,-2.30925 -7.833661,0.0248 3.481181,1.9532 6.127031,3.47506 7.833661,-0.0248 z"
       id="path12324"
       sodipodi:nodetypes="ccc" />
    <path
       sodipodi:nodetypes="ccc"
       id="path12326"
       d="m 64.979413,124.91244 c 0.9808,-3.94664 -1.762791,-4.21562 -6.275181,-4.68922 1.60785,3.65355 2.80746,6.46024 6.275181,4.68922 z"
       style="fill:#050a05;fill-opacity:1;stroke:none;stroke-width:0.264586px;stroke-linecap:butt;stroke-linejoin:miter;stroke-opacity:1" />
    <path
       sodipodi:nodetypes="ccc"
       id="path12328"
       d="m 78.729732,127.02316 c 0.75594,-3.99581 3.36141,-3.09513 7.659709,-1.64186 -2.986018,2.64903 -5.247589,4.69887 -7.659709,1.64186 z"
       style="fill:#050a05;fill-opacity:1;stroke:none;stroke-width:0.264586px;stroke-linecap:butt;stroke-linejoin:miter;stroke-opacity:1" />
    <path
       sodipodi:nodetypes="cccccccc"
       id="path12330"
       d="m 62.255932,127.54233 c 1.760671,1.20403 3.679351,2.17104 6.61704,1.60955 1.43071,0.76123 2.86142,0.38905 4.29213,-0.26826 1.99896,1.10166 3.46548,0.47287 5.00748,0.0894 1.61209,0.83313 3.33318,-0.20875 4.02388,-0.80477 l -1.26748,-7.70468 -15.59624,-0.77717 z"
       style="fill:#050a05;fill-opacity:1;stroke:none;stroke-width:0.264583px;stroke-linecap:butt;stroke-linejoin:miter;stroke-opacity:1" />
    <path
       sodipodi:nodetypes="ccc"
       id="path12332"
       d="m 78.759752,123.63675 c -3.07969,-2.65584 -0.99504,-4.45969 2.41585,-7.45188 0.79697,3.91132 1.43825,6.8955 -2.41585,7.45188 z"
       style="fill:#050a05;fill-opacity:1;stroke:none;stroke-width:0.264586px;stroke-linecap:butt;stroke-linejoin:miter;stroke-opacity:1" />
    <path
       style="fill:#050a05;fill-opacity:1;stroke:none;stroke-width:0.264586px;stroke-linecap:butt;stroke-linejoin:miter;stroke-opacity:1"
       d="m 68.224392,124.96639 c 1.29199,-3.85599 -1.42146,-4.34262 -5.881799,-5.17408 1.31177,3.77 2.284039,6.66331 5.881799,5.17408 z"
       id="path12334"
       sodipodi:nodetypes="ccc" />
    <path
       sodipodi:nodetypes="ccc"
       id="path12336"
       d="m 64.993583,126.78319 c 0.213619,-4.06107 -2.531131,-3.80425 -7.051371,-3.41248 2.27229,3.28181 3.98297,5.80969 7.051371,3.41248 z"
       style="fill:#050a05;fill-opacity:1;stroke:none;stroke-width:0.264586px;stroke-linecap:butt;stroke-linejoin:miter;stroke-opacity:1" />
    <path
       style="fill:#050a05;fill-opacity:1;stroke:none;stroke-width:0.264586px;stroke-linecap:butt;stroke-linejoin:miter;stroke-opacity:1"
       d="m 80.315542,123.99024 c -2.11541,-3.47318 0.42242,-4.54978 4.587301,-6.35007 -0.442521,3.96709 -0.748551,7.00401 -4.587301,6.35007 z"
       id="path12338"
       sodipodi:nodetypes="ccc" />
    <path
       inkscape:export-ydpi="96"
       inkscape:export-xdpi="96"
       inkscape:export-filename="D:\Calcatz\Icon Pack\Adventure Narrative Inspired by Jumanji\Assets\PNG\Vines\10_bush_main_menu_left.png"
       style="fill:#041a08;fill-opacity:1;stroke:none;stroke-width:0.264583px;stroke-linecap:butt;stroke-linejoin:miter;stroke-opacity:1"
       d="m 66.415812,105.68043 c 0.81884,1.1288 0.79996,3.6518 0.88867,5.8465 0.33894,-4.4094 2.2585,-6.1158 2.54909,-1.5435 0.635,-2.3438 2.24916,-0.5041 2.22168,2.666 0.15381,-1.4822 1.898,-4.615 2.3386,-0.1403 0.0573,-2.0677 1.82539,-3.1969 1.98782,1.3798 0.3589,-1.3436 0.87308,-2.2053 2.40877,-1.5669 -1.35907,-1.7869 -2.36537,-3.3894 -4.60013,-5.0968 -1.64113,-1.4187 -9.68964,-4.4526 -11.222369,-3.8309 z"
       id="path12342"
       sodipodi:nodetypes="cccccccccc" />
  </g>
</svg>
