<?xml version="1.0" encoding="UTF-8" standalone="no"?>
<svg
   xmlns:dc="http://purl.org/dc/elements/1.1/"
   xmlns:cc="http://creativecommons.org/ns#"
   xmlns:rdf="http://www.w3.org/1999/02/22-rdf-syntax-ns#"
   xmlns:svg="http://www.w3.org/2000/svg"
   xmlns="http://www.w3.org/2000/svg"
   xmlns:sodipodi="http://sodipodi.sourceforge.net/DTD/sodipodi-0.dtd"
   xmlns:inkscape="http://www.inkscape.org/namespaces/inkscape"
   sodipodi:docname="18_bush_main_menu_left_shadow.svg"
   inkscape:version="1.0 (4035a4fb49, 2020-05-01)"
   id="svg13482"
   version="1.1"
   viewBox="0 0 34.222893 32.370747"
   height="32.370747mm"
   width="34.222893mm">
  <defs
     id="defs13476">
    <filter
       height="1.0179962"
       y="-0.0089981072"
       width="1.0170057"
       x="-0.0085028484"
       id="filter12376"
       style="color-interpolation-filters:sRGB"
       inkscape:collect="always">
      <feGaussianBlur
         id="feGaussianBlur12378"
         stdDeviation="0.11921929"
         inkscape:collect="always" />
    </filter>
  </defs>
  <sodipodi:namedview
     inkscape:window-maximized="1"
     inkscape:window-y="-8"
     inkscape:window-x="-8"
     inkscape:window-height="705"
     inkscape:window-width="1366"
     fit-margin-bottom="0"
     fit-margin-right="0"
     fit-margin-left="0"
     fit-margin-top="0"
     showgrid="false"
     inkscape:document-rotation="0"
     inkscape:current-layer="layer1"
     inkscape:document-units="mm"
     inkscape:cy="13.706038"
     inkscape:cx="203.35344"
     inkscape:zoom="0.94914512"
     inkscape:pageshadow="2"
     inkscape:pageopacity="0.0"
     borderopacity="1.0"
     bordercolor="#666666"
     pagecolor="#ffffff"
     id="base" />
  <metadata
     id="metadata13479">
    <rdf:RDF>
      <cc:Work
         rdf:about="">
        <dc:format>image/svg+xml</dc:format>
        <dc:type
           rdf:resource="http://purl.org/dc/dcmitype/StillImage" />
        <dc:title></dc:title>
      </cc:Work>
    </rdf:RDF>
  </metadata>
  <g
     transform="translate(-101.94469,-98.140058)"
     id="layer1"
     inkscape:groupmode="layer"
     inkscape:label="Layer 1">
    <path
       id="path12446"
       style="color:#000000;font-style:normal;font-variant:normal;font-weight:normal;font-stretch:normal;font-size:medium;line-height:normal;font-family:sans-serif;font-variant-ligatures:normal;font-variant-position:normal;font-variant-caps:normal;font-variant-numeric:normal;font-variant-alternates:normal;font-variant-east-asian:normal;font-feature-settings:normal;font-variation-settings:normal;text-indent:0;text-align:start;text-decoration:none;text-decoration-line:none;text-decoration-style:solid;text-decoration-color:#000000;letter-spacing:normal;word-spacing:normal;text-transform:none;writing-mode:lr-tb;direction:ltr;text-orientation:mixed;dominant-baseline:auto;baseline-shift:baseline;text-anchor:start;white-space:normal;shape-padding:0;shape-margin:0;inline-size:0;clip-rule:nonzero;display:inline;overflow:visible;visibility:visible;opacity:1;isolation:auto;mix-blend-mode:normal;color-interpolation:sRGB;color-interpolation-filters:linearRGB;solid-color:#000000;solid-opacity:1;vector-effect:none;fill:#000000;fill-opacity:1;fill-rule:nonzero;stroke:none;stroke-width:1.33962;stroke-linecap:butt;stroke-linejoin:miter;stroke-miterlimit:4;stroke-dasharray:none;stroke-dashoffset:0;stroke-opacity:1;filter:url(#filter12376);color-rendering:auto;image-rendering:auto;shape-rendering:auto;text-rendering:auto;enable-background:accumulate;stop-color:#000000;stop-opacity:1"
       d="m 102.53726,98.426284 -0.30644,1.3199 c 3.79417,0.925296 7.0771,2.056496 9.94978,3.346796 0.7815,1.1823 0.76632,3.7218 0.85368,5.938 0.33893,-4.5214 2.25809,-6.2712 2.54868,-1.5828 0.635,-2.4033 2.24957,-0.5169 2.2221,2.7337 0.15381,-1.5198 1.89775,-4.732 2.33836,-0.1436 0.0222,-0.823 0.30266,-1.4989 0.64646,-1.746 0.42172,0.5401 0.82476,1.0918 1.20975,1.6549 0.065,0.4156 0.11129,0.9137 0.13177,1.5059 0.0842,-0.3232 0.17745,-0.6174 0.2899,-0.8727 1.01338,1.56 1.89122,3.2049 2.63136,4.937 -0.009,0.01 -0.0181,0.017 -0.0274,0.027 -0.40402,-1.0822 -1.11707,-2.2806 -1.89651,-3.5985 -0.64402,1.1903 -1.21026,2.2395 -1.60147,3.1709 -0.22648,-1.0341 -0.64386,-2.2414 -1.11879,-3.6197 -1.14975,1.3659 -2.18408,2.5861 -2.71767,3.7315 -0.29419,-0.6842 -0.64587,-1.4253 -1.02679,-2.2282 -0.30197,0.4537 -0.59333,0.8911 -0.86612,1.3162 -0.53882,-0.7949 -1.23822,-1.6635 -2.02673,-2.6399 -0.53279,1.4514 -1.02058,2.7711 -1.22113,3.9159 -0.90938,-0.5943 -2.1149,-1.1559 -3.51245,-1.8048 0.1397,1.5205 0.2631,2.9071 0.56224,4.0177 -0.48228,-0.1 -0.99071,-0.1963 -1.52755,-0.2989 0.12285,0.3619 0.24138,0.7058 0.36071,1.0492 -1.06244,-0.2896 -2.41893,-0.4372 -3.99923,-0.6073 0.48683,1.1344 0.93686,2.1859 1.42317,3.0548 -0.67202,0.039 -1.39946,0.1025 -2.18488,0.1723 0.4368,0.6469 0.85246,1.2639 1.2614,1.8233 -0.72176,0.3927 -1.50717,0.8741 -2.37246,1.4064 2.65408,1.5269 4.82211,2.7938 6.45903,1.7205 1.49815,0.8839 3.20707,1.4432 5.5826,0.9776 1.43074,0.7806 2.86155,0.399 4.29226,-0.275 1.99895,1.1296 3.46546,0.4852 5.00745,0.091 1.33218,0.706 2.72965,0.1 3.56775,-0.4779 0.10848,-0.02 0.21717,-0.045 0.32657,-0.077 0.13404,1.2549 0.2195,2.5407 0.25271,3.8602 l 0.52916,-0.013 c -0.0347,-1.3795 -0.12636,-2.7243 -0.27077,-4.0362 0.92908,-0.4184 1.90733,-1.2284 2.96828,-2.1778 0.70776,1.2156 1.31503,2.4419 1.93117,3.6604 l 0.35189,-0.1886 c -0.62521,-1.2367 -1.24722,-2.4934 -1.98022,-3.7453 0.17997,-0.1627 0.35465,-0.3183 0.54002,-0.487 -0.37079,-0.1285 -0.71184,-0.2441 -1.05731,-0.3613 -0.11197,-0.177 -0.22579,-0.3535 -0.34364,-0.53 0.35674,-0.3204 0.71988,-0.6843 1.09244,-1.0778 1.00814,1.6062 1.97599,3.208 2.95743,4.7739 l 1.11364,-0.735 c -1.02669,-1.6381 -2.05373,-3.3358 -3.1409,-5.0488 0.0902,-0.099 0.17597,-0.1912 0.26768,-0.2925 -0.1864,-0.044 -0.35108,-0.082 -0.53123,-0.1245 -0.64349,-1.0049 -1.30982,-2.0138 -2.01745,-3.0199 0.0605,-0.4876 0.11594,-0.9963 0.17312,-1.5218 -0.337,0.1494 -0.644,0.2883 -0.95808,0.4297 -1.5098,-2.0507 -3.21131,-4.0724 -5.21881,-5.9984 -1.31569,-1.785 -2.32931,-3.3976 -4.51601,-5.1108 -1.40806,-1.2481 -7.52941,-3.7134 -10.20868,-3.9863 -2.18464,-0.826696 -4.57237,-1.568296 -7.19386,-2.207496 z m 20.2742,11.543196 c 1.43232,1.3018 2.70634,2.6572 3.86437,4.0462 -0.42998,0.387 -0.84196,0.7599 -1.21698,1.1128 -0.77012,-1.7754 -1.68259,-3.4618 -2.73677,-5.059 0.0286,-0.036 0.0586,-0.069 0.0894,-0.1005 z m 4.21782,4.4759 c 0.49644,0.6104 0.97256,1.226 1.43092,1.8462 -0.37179,0.1816 -0.71337,0.3622 -1.02989,0.5447 -0.0849,-0.7347 -0.23429,-1.5425 -0.40103,-2.3909 z m 3.1254,4.2566 c 0.16221,0.242 0.32387,0.4842 0.48267,0.7265 -0.21775,-0.043 -0.43066,-0.082 -0.63563,-0.1161 0.0562,-0.1948 0.10647,-0.399 0.15296,-0.6104 z m 0.25892,3.9058 c 0.0142,0.022 0.0277,0.043 0.0419,0.064 -0.0293,-0.01 -0.0572,-0.018 -0.0863,-0.028 0.0148,-0.012 0.0297,-0.025 0.0445,-0.037 z"
       inkscape:export-filename="D:\Calcatz\Icon Pack\Adventure Narrative Inspired by Jumanji\Assets\PNG\Plant\30_bush_main_menu_left_shadow.png"
       inkscape:export-xdpi="96"
       inkscape:export-ydpi="96" />
  </g>
</svg>
