<?xml version="1.0" encoding="UTF-8" standalone="no"?>
<svg
   xmlns:dc="http://purl.org/dc/elements/1.1/"
   xmlns:cc="http://creativecommons.org/ns#"
   xmlns:rdf="http://www.w3.org/1999/02/22-rdf-syntax-ns#"
   xmlns:svg="http://www.w3.org/2000/svg"
   xmlns="http://www.w3.org/2000/svg"
   xmlns:sodipodi="http://sodipodi.sourceforge.net/DTD/sodipodi-0.dtd"
   xmlns:inkscape="http://www.inkscape.org/namespaces/inkscape"
   sodipodi:docname="19_vines_main_menu_bottom.svg"
   inkscape:version="1.0 (4035a4fb49, 2020-05-01)"
   id="svg14072"
   version="1.1"
   viewBox="0 0 126.90429 15.67622"
   height="15.67622mm"
   width="126.90429mm">
  <defs
     id="defs14066" />
  <sodipodi:namedview
     inkscape:window-maximized="1"
     inkscape:window-y="-8"
     inkscape:window-x="-8"
     inkscape:window-height="705"
     inkscape:window-width="1366"
     fit-margin-bottom="0"
     fit-margin-right="0"
     fit-margin-left="0"
     fit-margin-top="0"
     showgrid="false"
     inkscape:document-rotation="0"
     inkscape:current-layer="layer1"
     inkscape:document-units="mm"
     inkscape:cy="29.30551"
     inkscape:cx="184.2735"
     inkscape:zoom="1.8982902"
     inkscape:pageshadow="2"
     inkscape:pageopacity="0.0"
     borderopacity="1.0"
     bordercolor="#666666"
     pagecolor="#ffffff"
     id="base" />
  <metadata
     id="metadata14069">
    <rdf:RDF>
      <cc:Work
         rdf:about="">
        <dc:format>image/svg+xml</dc:format>
        <dc:type
           rdf:resource="http://purl.org/dc/dcmitype/StillImage" />
        <dc:title></dc:title>
      </cc:Work>
    </rdf:RDF>
  </metadata>
  <g
     transform="translate(-33.527361,-126.98706)"
     id="layer1"
     inkscape:groupmode="layer"
     inkscape:label="Layer 1">
    <path
       id="path12669"
       d="m 34.130871,129.97187 -0.60351,0.8711 c 4.38333,3.03227 9.97389,4.22969 15.21484,3.25976 2.4649,-0.45617 4.76589,-1.33731 7.10156,-1.58203 3.14372,-0.32937 6.349011,0.46861 9.43555,1.50977 3.08877,1.0419 6.162119,2.34082 9.458992,2.98242 6.85328,1.3337 13.784249,-0.31647 20.531248,-1.05274 4.964479,-0.54174 10.130109,-0.54841 14.533199,1.53907 1.68538,0.79903 3.25278,1.90919 4.93164,2.91015 1.68056,1.00199 3.51891,1.90977 5.54687,2.16407 2.71749,0.34076 5.38825,-0.54167 7.75196,-1.70508 2.35911,-1.16115 4.51243,-2.607 6.8164,-3.62696 4.13403,-1.8301 8.86469,-2.30791 13.28125,-1.34179 4.41657,0.96611 8.51546,3.37468 11.50782,6.76367 l 0.79296,-0.69922 c -3.14467,-3.5615 -7.43283,-6.08432 -12.07421,-7.09961 -4.64138,-1.01529 -9.5911,-0.51506 -13.93555,1.4082 -2.41736,1.07016 -4.58203,2.52751 -6.85547,3.64649 -2.26885,1.11672 -4.74667,1.90713 -7.15234,1.60547 -1.79531,-0.22513 -3.50767,-1.05412 -5.13672,-2.02539 -1.63075,-0.97229 -3.22513,-2.10344 -5.02149,-2.95508 -4.69147,-2.22421 -10.06056,-2.18682 -15.101558,-1.63672 -6.835989,0.74597 -13.656119,2.34279 -20.214841,1.06641 -3.153749,-0.61375 -6.18412,-1.88871 -9.322269,-2.94727 -3.14036,-1.05931 -6.490671,-1.914 -9.882811,-1.55859 -2.52042,0.26407 -4.8493,1.16138 -7.18555,1.59375 -4.95425,0.91687 -10.27442,-0.22345 -14.41797,-3.08985 z"
       style="color:#000000;font-style:normal;font-variant:normal;font-weight:normal;font-stretch:normal;font-size:medium;line-height:normal;font-family:sans-serif;font-variant-ligatures:normal;font-variant-position:normal;font-variant-caps:normal;font-variant-numeric:normal;font-variant-alternates:normal;font-variant-east-asian:normal;font-feature-settings:normal;font-variation-settings:normal;text-indent:0;text-align:start;text-decoration:none;text-decoration-line:none;text-decoration-style:solid;text-decoration-color:#000000;letter-spacing:normal;word-spacing:normal;text-transform:none;writing-mode:lr-tb;direction:ltr;text-orientation:mixed;dominant-baseline:auto;baseline-shift:baseline;text-anchor:start;white-space:normal;shape-padding:0;shape-margin:0;inline-size:0;clip-rule:nonzero;display:inline;overflow:visible;visibility:visible;opacity:1;isolation:auto;mix-blend-mode:normal;color-interpolation:sRGB;color-interpolation-filters:linearRGB;solid-color:#000000;solid-opacity:1;vector-effect:none;fill:#001302;fill-opacity:1;fill-rule:nonzero;stroke:none;stroke-width:1.05833;stroke-linecap:butt;stroke-linejoin:miter;stroke-miterlimit:4;stroke-dasharray:none;stroke-dashoffset:0;stroke-opacity:1;color-rendering:auto;image-rendering:auto;shape-rendering:auto;text-rendering:auto;enable-background:accumulate;stop-color:#000000;stop-opacity:1" />
    <path
       sodipodi:nodetypes="ccc"
       id="path12348"
       d="m 104.69842,129.99984 c 2.0831,0.8661 2.19941,3.71043 1.61821,3.63505 -0.66049,-0.13228 -2.19776,-1.76356 -1.61821,-3.63505 z"
       style="fill:#001302;fill-opacity:1;stroke:none;stroke-width:0.264583px;stroke-linecap:butt;stroke-linejoin:miter;stroke-opacity:1" />
    <path
       style="fill:#001302;fill-opacity:1;stroke:none;stroke-width:0.264583px;stroke-linecap:butt;stroke-linejoin:miter;stroke-opacity:1"
       d="m 108.50983,131.20481 c 0.0623,1.63994 -1.81121,2.61345 -1.94021,2.20834 -0.11532,-0.47509 0.50473,-1.99826 1.94021,-2.20834 z"
       id="path12350"
       sodipodi:nodetypes="ccc" />
    <path
       sodipodi:nodetypes="ccc"
       id="path12352"
       d="m 102.56785,133.57341 c 1.4427,1.41109 3.85506,0.5089 3.59121,0.0569 -0.33873,-0.49736 -2.23081,-1.19062 -3.59121,-0.0569 z"
       style="fill:#001302;fill-opacity:1;stroke:none;stroke-width:0.264583px;stroke-linecap:butt;stroke-linejoin:miter;stroke-opacity:1" />
    <path
       sodipodi:nodetypes="ccccccccccc"
       id="path12354"
       d="m 104.91743,134.30882 c 1.28713,-0.038 1.89648,0.73176 2.45319,1.57901 -0.30444,-1.01176 -0.18338,-2.11624 0.44282,-3.00859 l -0.7829,0.42933 -0.18235,-0.12298 -0.40486,-0.12601 c -0.26296,0.0537 -0.55969,-0.18276 -0.56721,0.23549 l -0.21837,0.36943 -0.18294,0.20053 -0.19471,0.30785 z"
       style="fill:#001302;fill-opacity:1;stroke:none;stroke-width:0.264583px;stroke-linecap:butt;stroke-linejoin:miter;stroke-opacity:1" />
    <path
       style="fill:#001302;fill-opacity:1;stroke:none;stroke-width:0.264581px;stroke-linecap:butt;stroke-linejoin:miter;stroke-opacity:1"
       d="m 109.08603,133.40488 c 0.56539,0.93218 -0.2008,2.0748 -0.40599,1.87956 -0.21988,-0.24005 -0.35405,-1.31495 0.40599,-1.87956 z"
       id="path12358"
       sodipodi:nodetypes="ccc" />
    <path
       sodipodi:nodetypes="ccc"
       id="path12360"
       d="m 110.22886,134.96237 c -0.44362,0.65744 -1.45215,0.50259 -1.38688,0.30777 0.0906,-0.21821 0.76703,-0.63541 1.38688,-0.30777 z"
       style="fill:#001302;fill-opacity:1;stroke:none;stroke-width:0.264581px;stroke-linecap:butt;stroke-linejoin:miter;stroke-opacity:1" />
    <path
       style="fill:#001302;fill-opacity:1;stroke:none;stroke-width:0.264581px;stroke-linecap:butt;stroke-linejoin:miter;stroke-opacity:1"
       d="m 107.23538,134.19084 c 0.16009,0.96203 1.35845,1.29844 1.38452,1.04684 0.01,-0.29064 -0.53041,-1.10091 -1.38452,-1.04684 z"
       id="path12362"
       sodipodi:nodetypes="ccc" />
    <path
       style="fill:#001302;fill-opacity:1;stroke:none;stroke-width:0.264581px;stroke-linecap:butt;stroke-linejoin:miter;stroke-opacity:1"
       d="m 107.94199,135.14808 c 0.51289,0.35243 0.53093,0.82654 0.50633,1.31585 0.16994,-0.4815 0.53229,-0.87776 1.03115,-1.04715 l -0.42787,-0.0559 -0.036,-0.1 -0.12196,-0.16467 c -0.11789,-0.0541 -0.16616,-0.23097 -0.28843,-0.07 l -0.19059,0.0818 -0.12857,0.026 -0.16379,0.0645 z"
       id="path12364"
       sodipodi:nodetypes="ccccccccccc" />
    <path
       style="fill:#001302;fill-opacity:1;stroke:none;stroke-width:0.264583px;stroke-linecap:butt;stroke-linejoin:miter;stroke-opacity:1"
       d="m 132.38378,130.17019 c 2.32576,0.96699 2.45562,4.14265 1.80672,4.05849 -0.73744,-0.14769 -2.45378,-1.96899 -1.80672,-4.05849 z"
       id="path12368"
       sodipodi:nodetypes="ccc" />
    <path
       sodipodi:nodetypes="ccc"
       id="path12370"
       d="m 136.63917,131.51552 c 0.0696,1.83098 -2.02219,2.91789 -2.16622,2.46559 -0.12875,-0.53043 0.56352,-2.23103 2.16622,-2.46559 z"
       style="fill:#001302;fill-opacity:1;stroke:none;stroke-width:0.264583px;stroke-linecap:butt;stroke-linejoin:miter;stroke-opacity:1" />
    <path
       style="fill:#001302;fill-opacity:1;stroke:none;stroke-width:0.264583px;stroke-linecap:butt;stroke-linejoin:miter;stroke-opacity:1"
       d="m 130.00503,134.16004 c 1.61075,1.57546 4.30413,0.56818 4.00954,0.0635 -0.37819,-0.55529 -2.49067,-1.3293 -4.00954,-0.0635 z"
       id="path12372"
       sodipodi:nodetypes="ccc" />
    <path
       style="fill:#001302;fill-opacity:1;stroke:none;stroke-width:0.264583px;stroke-linecap:butt;stroke-linejoin:miter;stroke-opacity:1"
       d="m 132.6283,134.98111 c 1.43707,-0.0424 2.1174,0.81701 2.73896,1.76296 -0.3399,-1.12963 -0.20474,-2.36276 0.4944,-3.35906 l -0.87409,0.47934 -0.20359,-0.13731 -0.45203,-0.14069 c -0.29358,0.0599 -0.62488,-0.20404 -0.63328,0.26292 l -0.24381,0.41247 -0.20425,0.22389 -0.21739,0.34372 z"
       id="path12375"
       sodipodi:nodetypes="ccccccccccc" />
    <path
       sodipodi:nodetypes="ccc"
       id="path12379"
       d="m 129.07466,135.88552 c 1.27813,-0.30978 2.31216,0.98819 2.0128,1.15284 -0.35626,0.16518 -1.64107,-0.0729 -2.0128,-1.15284 z"
       style="fill:#001302;fill-opacity:1;stroke:none;stroke-width:0.264583px;stroke-linecap:butt;stroke-linejoin:miter;stroke-opacity:1" />
    <path
       style="fill:#001302;fill-opacity:1;stroke:none;stroke-width:0.264583px;stroke-linecap:butt;stroke-linejoin:miter;stroke-opacity:1"
       d="m 131.28249,135.14008 c 0.59395,0.75001 0.0478,1.85302 -0.15237,1.70687 -0.21782,-0.18379 -0.45057,-1.1138 0.15237,-1.70687 z"
       id="path12381"
       sodipodi:nodetypes="ccc" />
    <path
       sodipodi:nodetypes="ccc"
       id="path12383"
       d="m 129.3028,138.30015 c 1.16451,0.16708 1.9887,-1.08791 1.70894,-1.20971 -0.33058,-0.11734 -1.45934,0.20799 -1.70894,1.20971 z"
       style="fill:#001302;fill-opacity:1;stroke:none;stroke-width:0.264583px;stroke-linecap:butt;stroke-linejoin:miter;stroke-opacity:1" />
    <path
       sodipodi:nodetypes="ccccccccccc"
       id="path12385"
       d="m 130.66128,137.83714 c 0.59241,-0.46104 1.14409,-0.30873 1.69769,-0.10184 -0.49157,-0.37114 -0.8149,-0.93238 -0.82756,-1.56776 l -0.22047,0.47152 -0.12812,0.005 -0.23384,0.0801 c -0.10522,0.11579 -0.32621,0.10673 -0.18575,0.30607 l 0.0245,0.24897 -0.017,0.15732 0.0144,0.21187 z"
       style="fill:#001302;fill-opacity:1;stroke:none;stroke-width:0.264583px;stroke-linecap:butt;stroke-linejoin:miter;stroke-opacity:1" />
    <path
       style="fill:#001302;fill-opacity:1;stroke:none;stroke-width:0.264583px;stroke-linecap:butt;stroke-linejoin:miter;stroke-opacity:1"
       d="m 59.798011,126.98706 c 0.614681,1.82783 -1.15028,3.50302 -1.42878,3.08659 -0.2865,-0.49947 -0.10166,-2.40657 1.42878,-3.08659 z"
       id="path12397"
       sodipodi:nodetypes="ccc" />
    <path
       sodipodi:nodetypes="ccc"
       id="path12403"
       d="m 61.167032,130.11777 c -1.020281,0.9628 -2.700881,0.30487 -2.512761,-0.006 0.24084,-0.34151 1.569911,-0.79949 2.512761,0.006 z"
       style="fill:#001302;fill-opacity:1;stroke:none;stroke-width:0.264583px;stroke-linecap:butt;stroke-linejoin:miter;stroke-opacity:1" />
    <path
       style="fill:#001302;fill-opacity:1;stroke:none;stroke-width:0.264583px;stroke-linecap:butt;stroke-linejoin:miter;stroke-opacity:1"
       d="m 56.299571,127.62662 c -0.0964,1.72235 1.84153,2.76716 1.98397,2.34303 0.12949,-0.49781 -0.48895,-2.10547 -1.98397,-2.34303 z"
       id="path12408"
       sodipodi:nodetypes="ccc" />
    <path
       style="fill:#001302;fill-opacity:1;stroke:none;stroke-width:0.264583px;stroke-linecap:butt;stroke-linejoin:miter;stroke-opacity:1"
       d="m 57.148291,129.55241 c 0.74865,0.80692 0.59613,1.63215 0.36413,2.46711 0.4798,-0.76518 1.25867,-1.3087 2.18525,-1.4078 l -0.71677,-0.26225 -0.0235,-0.18654 -0.14671,-0.33144 c -0.1825,-0.13901 -0.19729,-0.463 -0.47068,-0.23252 l -0.3606,0.0673 -0.23198,-0.005 -0.30766,0.0479 z"
       id="path12410"
       sodipodi:nodetypes="ccccccccccc" />
    <path
       sodipodi:nodetypes="ccc"
       id="path12419"
       d="m 43.930041,128.56071 c 1.51968,1.15732 1.00318,3.5117 0.54342,3.32497 -0.51246,-0.25039 -1.42056,-1.91696 -0.54342,-3.32497 z"
       style="fill:#001302;fill-opacity:1;stroke:none;stroke-width:0.264583px;stroke-linecap:butt;stroke-linejoin:miter;stroke-opacity:1" />
    <path
       style="fill:#001302;fill-opacity:1;stroke:none;stroke-width:0.264583px;stroke-linecap:butt;stroke-linejoin:miter;stroke-opacity:1"
       d="m 46.792231,130.36727 c -0.30168,1.35643 -2.04538,1.75073 -2.06389,1.39122 0.008,-0.41387 0.84312,-1.52792 2.06389,-1.39122 z"
       id="path12424"
       sodipodi:nodetypes="ccc" />
    <path
       sodipodi:nodetypes="ccc"
       id="path12427"
       d="m 41.416631,131.02905 c 0.878,1.4659 3.04764,1.2459 2.92878,0.81895 -0.17043,-0.48016 -1.57084,-1.45485 -2.92878,-0.81895 z"
       style="fill:#001302;fill-opacity:1;stroke:none;stroke-width:0.264583px;stroke-linecap:butt;stroke-linejoin:miter;stroke-opacity:1" />
    <path
       sodipodi:nodetypes="ccccccccccc"
       id="path12430"
       d="m 43.182641,132.13665 c 1.06227,0.24571 1.39573,1.00717 1.66943,1.82076 -0.0317,-0.89406 0.30497,-1.77254 1.00972,-2.36865 l -0.73349,0.18322 -0.12288,-0.13993 -0.30446,-0.19028 c -0.2269,-0.0126 -0.41905,-0.27004 -0.51516,0.0709 l -0.2583,0.25558 -0.19294,0.12488 -0.22568,0.21024 z"
       style="fill:#001302;fill-opacity:1;stroke:none;stroke-width:0.264583px;stroke-linecap:butt;stroke-linejoin:miter;stroke-opacity:1" />
  </g>
</svg>
