<?xml version="1.0" encoding="UTF-8" standalone="no"?>
<svg
   xmlns:dc="http://purl.org/dc/elements/1.1/"
   xmlns:cc="http://creativecommons.org/ns#"
   xmlns:rdf="http://www.w3.org/1999/02/22-rdf-syntax-ns#"
   xmlns:svg="http://www.w3.org/2000/svg"
   xmlns="http://www.w3.org/2000/svg"
   xmlns:xlink="http://www.w3.org/1999/xlink"
   xmlns:sodipodi="http://sodipodi.sourceforge.net/DTD/sodipodi-0.dtd"
   xmlns:inkscape="http://www.inkscape.org/namespaces/inkscape"
   sodipodi:docname="26_left_top_panel_vines.svg"
   inkscape:version="1.0 (4035a4fb49, 2020-05-01)"
   id="svg15120"
   version="1.1"
   viewBox="0 0 44.429039 25.422636"
   height="25.422636mm"
   width="44.429039mm">
  <defs
     id="defs15114">
    <filter
       height="1.0536278"
       y="-0.02681396"
       width="1.0294076"
       x="-0.014703824"
       id="filter5170"
       style="color-interpolation-filters:sRGB"
       inkscape:collect="always">
      <feGaussianBlur
         id="feGaussianBlur5172"
         stdDeviation="0.24897472"
         inkscape:collect="always" />
    </filter>
    <linearGradient
       inkscape:collect="always"
       xlink:href="#linearGradient4203"
       id="linearGradient12381"
       gradientUnits="userSpaceOnUse"
       gradientTransform="matrix(0.33360553,-0.22055426,0.22055426,0.33360553,-180.7081,-143.85976)"
       x1="-108.98495"
       y1="531.63123"
       x2="-108.98495"
       y2="535.04852" />
    <linearGradient
       id="linearGradient4203"
       inkscape:collect="always">
      <stop
         id="stop4199"
         offset="0"
         style="stop-color:#1d430c;stop-opacity:1" />
      <stop
         id="stop4201"
         offset="1"
         style="stop-color:#123605;stop-opacity:1" />
    </linearGradient>
    <linearGradient
       inkscape:collect="always"
       xlink:href="#linearGradient4215"
       id="linearGradient12383"
       gradientUnits="userSpaceOnUse"
       x1="-26.874197"
       y1="139.34364"
       x2="-26.614283"
       y2="139.54341"
       gradientTransform="matrix(1.5596631,0.01162195,-0.01162195,1.5596631,-55.4567,-157.9701)" />
    <linearGradient
       inkscape:collect="always"
       id="linearGradient4215">
      <stop
         style="stop-color:#0c2a00;stop-opacity:1"
         offset="0"
         id="stop4211" />
      <stop
         style="stop-color:#2b1803;stop-opacity:1"
         offset="1"
         id="stop4213" />
    </linearGradient>
    <linearGradient
       inkscape:collect="always"
       xlink:href="#linearGradient4203"
       id="linearGradient12377"
       gradientUnits="userSpaceOnUse"
       gradientTransform="matrix(-0.0303276,0.22060469,0.22060469,0.0303276,-220.9724,67.255208)"
       x1="-108.98495"
       y1="531.63123"
       x2="-108.98495"
       y2="535.04852" />
    <linearGradient
       inkscape:collect="always"
       xlink:href="#linearGradient4215"
       id="linearGradient12379"
       gradientUnits="userSpaceOnUse"
       x1="-26.874197"
       y1="139.34364"
       x2="-26.614283"
       y2="139.54341"
       gradientTransform="matrix(0.38164513,0.78010696,0.78010696,-0.38164513,-197.8752,133.52789)" />
    <linearGradient
       inkscape:collect="always"
       xlink:href="#linearGradient4203"
       id="linearGradient12373"
       gradientUnits="userSpaceOnUse"
       gradientTransform="matrix(0.09816575,0.30997202,0.30997202,-0.09816575,-256.3172,149.28373)"
       x1="-108.98495"
       y1="531.63123"
       x2="-108.98495"
       y2="535.04852" />
    <linearGradient
       inkscape:collect="always"
       xlink:href="#linearGradient4215"
       id="linearGradient12375"
       gradientUnits="userSpaceOnUse"
       x1="-26.874197"
       y1="139.34364"
       x2="-26.614283"
       y2="139.54341"
       gradientTransform="matrix(0.99198167,0.78993073,0.78993073,-0.99198167,-184.3445,222.23127)" />
    <linearGradient
       inkscape:collect="always"
       xlink:href="#linearGradient4203"
       id="linearGradient12369"
       gradientUnits="userSpaceOnUse"
       gradientTransform="matrix(-0.07333219,0.23155658,-0.23155658,-0.07333219,17.675901,130.24276)"
       x1="-108.98495"
       y1="531.63123"
       x2="-108.98495"
       y2="535.04852" />
    <linearGradient
       inkscape:collect="always"
       xlink:href="#linearGradient4215"
       id="linearGradient12371"
       gradientUnits="userSpaceOnUse"
       x1="-26.874197"
       y1="139.34364"
       x2="-26.614283"
       y2="139.54341"
       gradientTransform="matrix(-0.74103422,0.59009729,-0.59009729,-0.74103422,-36.089401,184.73633)" />
    <linearGradient
       inkscape:collect="always"
       xlink:href="#linearGradient4203"
       id="linearGradient12365"
       gradientUnits="userSpaceOnUse"
       gradientTransform="matrix(-0.05301381,-0.16739848,-0.16739848,0.05301381,-14.776902,18.50449)"
       x1="-108.98495"
       y1="531.63123"
       x2="-108.98495"
       y2="535.04852" />
    <linearGradient
       inkscape:collect="always"
       xlink:href="#linearGradient4215"
       id="linearGradient12367"
       gradientUnits="userSpaceOnUse"
       x1="-26.874197"
       y1="139.34364"
       x2="-26.614283"
       y2="139.54341"
       gradientTransform="matrix(-0.53571359,-0.42659723,-0.42659723,0.53571359,-53.645302,-20.89038)" />
    <linearGradient
       inkscape:collect="always"
       xlink:href="#linearGradient4203"
       id="linearGradient12361"
       gradientUnits="userSpaceOnUse"
       gradientTransform="matrix(-0.00230686,0.16229301,0.16229301,0.00230686,-186.4164,85.594414)"
       x1="-108.98495"
       y1="531.63123"
       x2="-108.98495"
       y2="535.04852" />
    <linearGradient
       inkscape:collect="always"
       xlink:href="#linearGradient4215"
       id="linearGradient12363"
       gradientUnits="userSpaceOnUse"
       x1="-26.874197"
       y1="139.34364"
       x2="-26.614283"
       y2="139.54341"
       gradientTransform="matrix(0.34552445,0.53039388,0.53039388,-0.34552445,-163.8089,131.48303)" />
    <linearGradient
       inkscape:collect="always"
       xlink:href="#linearGradient4203"
       id="linearGradient12357"
       gradientUnits="userSpaceOnUse"
       gradientTransform="matrix(-0.06596898,0.12439973,-0.12439973,-0.06596898,-39.6236,120.53314)"
       x1="-108.98495"
       y1="531.63123"
       x2="-108.98495"
       y2="535.04852" />
    <linearGradient
       inkscape:collect="always"
       xlink:href="#linearGradient4215"
       id="linearGradient12359"
       gradientUnits="userSpaceOnUse"
       x1="-26.874197"
       y1="139.34364"
       x2="-26.614283"
       y2="139.54341"
       gradientTransform="matrix(-0.48412857,0.25922341,-0.25922341,-0.48412857,-75.967401,146.00127)" />
    <linearGradient
       inkscape:collect="always"
       xlink:href="#linearGradient4203"
       id="linearGradient12353"
       gradientUnits="userSpaceOnUse"
       gradientTransform="matrix(0.05993653,-0.11302417,0.11302417,0.05993653,-154.2548,28.347599)"
       x1="-108.98495"
       y1="531.63123"
       x2="-108.98495"
       y2="535.04852" />
    <linearGradient
       inkscape:collect="always"
       xlink:href="#linearGradient4215"
       id="linearGradient12355"
       gradientUnits="userSpaceOnUse"
       x1="-26.874197"
       y1="139.34364"
       x2="-26.614283"
       y2="139.54341"
       gradientTransform="matrix(0.43985809,-0.23551907,0.23551907,0.43985809,-121.2344,5.208371)" />
    <linearGradient
       inkscape:collect="always"
       xlink:href="#linearGradient4203"
       id="linearGradient12349"
       gradientUnits="userSpaceOnUse"
       gradientTransform="matrix(-0.06235694,-0.11170703,0.11170703,-0.06235694,-166.4621,96.067951)"
       x1="-108.98495"
       y1="531.63123"
       x2="-108.98495"
       y2="535.04852" />
    <linearGradient
       inkscape:collect="always"
       xlink:href="#linearGradient4215"
       id="linearGradient12351"
       gradientUnits="userSpaceOnUse"
       x1="-26.874197"
       y1="139.34364"
       x2="-26.614283"
       y2="139.54341"
       gradientTransform="matrix(0.04110375,-0.49724727,0.49724727,0.04110375,-167.9601,55.774961)" />
    <linearGradient
       inkscape:collect="always"
       xlink:href="#linearGradient4203"
       id="linearGradient12345"
       gradientUnits="userSpaceOnUse"
       gradientTransform="matrix(-0.03735614,-0.12235754,-0.12235754,0.03735614,-37.334901,42.671363)"
       x1="-108.98495"
       y1="531.63123"
       x2="-108.98495"
       y2="535.04852" />
    <linearGradient
       inkscape:collect="always"
       xlink:href="#linearGradient4215"
       id="linearGradient12347"
       gradientUnits="userSpaceOnUse"
       x1="-26.874197"
       y1="139.34364"
       x2="-26.614283"
       y2="139.54341"
       gradientTransform="matrix(-0.38706102,-0.3148462,-0.3148462,0.38706102,-65.354,13.676559)" />
    <linearGradient
       inkscape:collect="always"
       xlink:href="#linearGradient4203"
       id="linearGradient12341"
       gradientUnits="userSpaceOnUse"
       gradientTransform="matrix(0.24000585,0.1161687,-0.1161687,0.24000585,-6.5173012,-57.439498)"
       x1="-108.98495"
       y1="531.63123"
       x2="-108.98495"
       y2="535.04852" />
    <linearGradient
       inkscape:collect="always"
       xlink:href="#linearGradient4215"
       id="linearGradient12343"
       gradientUnits="userSpaceOnUse"
       x1="-26.874197"
       y1="139.34364"
       x2="-26.614283"
       y2="139.54341"
       gradientTransform="matrix(0.52427864,0.89808239,-0.89808239,0.52427864,44.210001,9.561359)" />
    <linearGradient
       inkscape:collect="always"
       xlink:href="#linearGradient4203"
       id="linearGradient12337"
       gradientUnits="userSpaceOnUse"
       gradientTransform="matrix(-0.21696475,0.05974657,-0.05974657,-0.21696475,-83.681401,183.44483)"
       x1="-108.98495"
       y1="531.63123"
       x2="-108.98495"
       y2="535.04852" />
    <linearGradient
       inkscape:collect="always"
       xlink:href="#linearGradient4215"
       id="linearGradient12339"
       gradientUnits="userSpaceOnUse"
       x1="-26.874197"
       y1="139.34364"
       x2="-26.614283"
       y2="139.54341"
       gradientTransform="matrix(-0.83231087,-0.27849279,0.27849279,-0.83231087,-153.1478,169.12758)" />
    <linearGradient
       inkscape:collect="always"
       xlink:href="#linearGradient4203"
       id="linearGradient12333"
       gradientUnits="userSpaceOnUse"
       gradientTransform="matrix(-0.12067617,0.17412996,-0.17412996,-0.12067617,-19.266,145.95523)"
       x1="-108.98495"
       y1="531.63123"
       x2="-108.98495"
       y2="535.04852" />
    <linearGradient
       inkscape:collect="always"
       xlink:href="#linearGradient4215"
       id="linearGradient12335"
       gradientUnits="userSpaceOnUse"
       x1="-26.874197"
       y1="139.34364"
       x2="-26.614283"
       y2="139.54341"
       gradientTransform="matrix(-0.76939195,0.30122074,-0.30122074,-0.76939195,-78.092801,177.54435)" />
    <linearGradient
       inkscape:collect="always"
       xlink:href="#linearGradient4203"
       id="linearGradient12329"
       gradientUnits="userSpaceOnUse"
       gradientTransform="matrix(0.03714677,-0.12372045,-0.12372045,-0.03714677,-29.0401,68.230474)"
       x1="-108.98495"
       y1="531.63123"
       x2="-108.98495"
       y2="535.04852" />
    <linearGradient
       inkscape:collect="always"
       xlink:href="#linearGradient4215"
       id="linearGradient12331"
       gradientUnits="userSpaceOnUse"
       x1="-26.874197"
       y1="139.34364"
       x2="-26.614283"
       y2="139.54341"
       gradientTransform="matrix(-0.1488439,-0.4813043,-0.4813043,0.1488439,-36.340401,28.177519)" />
    <linearGradient
       inkscape:collect="always"
       xlink:href="#linearGradient4203"
       id="linearGradient12325"
       gradientUnits="userSpaceOnUse"
       gradientTransform="matrix(0.12845155,-0.01366864,-0.01366864,-0.12845155,-75.086801,127.04978)"
       x1="-108.98495"
       y1="531.63123"
       x2="-108.98495"
       y2="535.04852" />
    <linearGradient
       inkscape:collect="always"
       xlink:href="#linearGradient4215"
       id="linearGradient12327"
       gradientUnits="userSpaceOnUse"
       x1="-26.874197"
       y1="139.34364"
       x2="-26.614283"
       y2="139.54341"
       gradientTransform="matrix(0.38609481,-0.32363425,-0.32363425,-0.38609481,-40.987101,104.80689)" />
    <linearGradient
       inkscape:collect="always"
       xlink:href="#linearGradient4203"
       id="linearGradient12321"
       gradientUnits="userSpaceOnUse"
       gradientTransform="matrix(-0.24944584,0.09420587,0.09420587,0.24944584,-166.0938,-65.496128)"
       x1="-108.98495"
       y1="531.63123"
       x2="-108.98495"
       y2="535.04852" />
    <linearGradient
       inkscape:collect="always"
       xlink:href="#linearGradient4215"
       id="linearGradient12323"
       gradientUnits="userSpaceOnUse"
       x1="-26.874197"
       y1="139.34364"
       x2="-26.614283"
       y2="139.54341"
       gradientTransform="matrix(-0.60260769,0.84751639,0.84751639,0.60260769,-222.6182,-3.3079)" />
    <linearGradient
       inkscape:collect="always"
       xlink:href="#linearGradient4203"
       id="linearGradient12317"
       gradientUnits="userSpaceOnUse"
       gradientTransform="matrix(0.16649348,0.06287803,-0.06287803,0.16649348,-35.8649,-24.403991)"
       x1="-108.98495"
       y1="531.63123"
       x2="-108.98495"
       y2="535.04852" />
    <linearGradient
       inkscape:collect="always"
       xlink:href="#linearGradient4215"
       id="linearGradient12319"
       gradientUnits="userSpaceOnUse"
       x1="-26.874197"
       y1="139.34364"
       x2="-26.614283"
       y2="139.54341"
       gradientTransform="matrix(0.40221254,0.5656777,-0.5656777,0.40221254,1.8625008,17.103749)" />
    <linearGradient
       inkscape:collect="always"
       xlink:href="#linearGradient4203"
       id="linearGradient12313"
       gradientUnits="userSpaceOnUse"
       gradientTransform="matrix(-0.20309828,-0.09692494,0.09692494,-0.20309828,-159.5367,157.9542)"
       x1="-108.98495"
       y1="531.63123"
       x2="-108.98495"
       y2="535.04852" />
    <linearGradient
       inkscape:collect="always"
       xlink:href="#linearGradient4215"
       id="linearGradient12315"
       gradientUnits="userSpaceOnUse"
       x1="-26.874197"
       y1="139.34364"
       x2="-26.614283"
       y2="139.54341"
       gradientTransform="matrix(-0.44665688,-0.75551124,0.75551124,-0.44665688,-202.661,101.64386)" />
    <linearGradient
       inkscape:collect="always"
       xlink:href="#linearGradient4203"
       id="linearGradient12309"
       gradientUnits="userSpaceOnUse"
       gradientTransform="matrix(-0.22503606,-0.00145751,-0.00145751,0.22503606,-105.7081,-61.164158)"
       x1="-108.98495"
       y1="531.63123"
       x2="-108.98495"
       y2="535.04852" />
    <linearGradient
       inkscape:collect="always"
       xlink:href="#linearGradient4215"
       id="linearGradient12311"
       gradientUnits="userSpaceOnUse"
       x1="-26.874197"
       y1="139.34364"
       x2="-26.614283"
       y2="139.54341"
       gradientTransform="matrix(-0.7316589,0.48474203,0.48474203,0.7316589,-169.0879,-29.32776)" />
    <linearGradient
       inkscape:collect="always"
       xlink:href="#linearGradient4203"
       id="linearGradient12305"
       gradientUnits="userSpaceOnUse"
       gradientTransform="matrix(-0.15610899,0.06236825,-0.06236825,-0.15610899,-61.916701,151.17001)"
       x1="-108.98495"
       y1="531.63123"
       x2="-108.98495"
       y2="535.04852" />
    <linearGradient
       inkscape:collect="always"
       xlink:href="#linearGradient4215"
       id="linearGradient12307"
       gradientUnits="userSpaceOnUse"
       x1="-26.874197"
       y1="139.34364"
       x2="-26.614283"
       y2="139.54341"
       gradientTransform="matrix(-0.64101027,-0.13764276,0.13764276,-0.64101027,-114.6756,146.30876)" />
    <linearGradient
       inkscape:collect="always"
       xlink:href="#linearGradient4203"
       id="linearGradient12301"
       gradientUnits="userSpaceOnUse"
       gradientTransform="matrix(0.15610899,-0.06236825,0.06236825,0.15610899,-92.116801,-32.257801)"
       x1="-108.98495"
       y1="531.63123"
       x2="-108.98495"
       y2="535.04852" />
    <linearGradient
       inkscape:collect="always"
       xlink:href="#linearGradient4215"
       id="linearGradient12303"
       gradientUnits="userSpaceOnUse"
       x1="-26.874197"
       y1="139.34364"
       x2="-26.614283"
       y2="139.54341"
       gradientTransform="matrix(0.64101027,0.13764276,-0.13764276,0.64101027,-39.3579,-27.39655)" />
    <linearGradient
       inkscape:collect="always"
       xlink:href="#linearGradient4203"
       id="linearGradient12297"
       gradientUnits="userSpaceOnUse"
       gradientTransform="matrix(-0.15610899,-0.06236825,-0.06236825,0.15610899,-58.9897,-32.257801)"
       x1="-108.98495"
       y1="531.63123"
       x2="-108.98495"
       y2="535.04852" />
    <linearGradient
       inkscape:collect="always"
       xlink:href="#linearGradient4215"
       id="linearGradient12299"
       gradientUnits="userSpaceOnUse"
       x1="-26.874197"
       y1="139.34364"
       x2="-26.614283"
       y2="139.54341"
       gradientTransform="matrix(-0.64101027,0.13764276,0.13764276,0.64101027,-111.7486,-27.39655)" />
    <linearGradient
       inkscape:collect="always"
       xlink:href="#linearGradient4203"
       id="linearGradient12293"
       gradientUnits="userSpaceOnUse"
       gradientTransform="matrix(-0.12592195,-0.03975465,0.03975465,-0.12592195,-106.8156,122.89572)"
       x1="-108.98495"
       y1="531.63123"
       x2="-108.98495"
       y2="535.04852" />
    <linearGradient
       inkscape:collect="always"
       xlink:href="#linearGradient4215"
       id="linearGradient12295"
       gradientUnits="userSpaceOnUse"
       x1="-26.874197"
       y1="139.34364"
       x2="-26.614283"
       y2="139.54341"
       gradientTransform="matrix(-0.3211681,-0.40257817,0.40257817,-0.3211681,-136.4673,93.692572)" />
    <linearGradient
       inkscape:collect="always"
       xlink:href="#linearGradient4203"
       id="linearGradient12289"
       gradientUnits="userSpaceOnUse"
       gradientTransform="matrix(-0.11522104,0.03637628,0.03637628,0.11522104,-100.6912,1.77918)"
       x1="-108.98495"
       y1="531.63123"
       x2="-108.98495"
       y2="535.04852" />
    <linearGradient
       inkscape:collect="always"
       xlink:href="#linearGradient4215"
       id="linearGradient12291"
       gradientUnits="userSpaceOnUse"
       x1="-26.874197"
       y1="139.34364"
       x2="-26.614283"
       y2="139.54341"
       gradientTransform="matrix(-0.29387506,0.36836688,0.36836688,0.29387506,-127.8231,28.500631)" />
    <linearGradient
       inkscape:collect="always"
       xlink:href="#linearGradient4203"
       id="linearGradient12285"
       gradientUnits="userSpaceOnUse"
       gradientTransform="matrix(-0.08240829,0.02839235,-0.02839235,-0.08240829,-59.197101,106.83294)"
       x1="-108.98495"
       y1="531.63123"
       x2="-108.98495"
       y2="535.04852" />
    <linearGradient
       inkscape:collect="always"
       xlink:href="#linearGradient4215"
       id="linearGradient12287"
       gradientUnits="userSpaceOnUse"
       x1="-26.874197"
       y1="139.34364"
       x2="-26.614283"
       y2="139.54341"
       gradientTransform="matrix(-0.32852709,-0.08732856,0.08732856,-0.32852709,-86.398701,102.99477)" />
  </defs>
  <sodipodi:namedview
     inkscape:window-maximized="1"
     inkscape:window-y="-8"
     inkscape:window-x="-8"
     inkscape:window-height="705"
     inkscape:window-width="1366"
     fit-margin-bottom="0"
     fit-margin-right="0"
     fit-margin-left="0"
     fit-margin-top="0"
     showgrid="false"
     inkscape:document-rotation="0"
     inkscape:current-layer="layer1"
     inkscape:document-units="mm"
     inkscape:cy="50.436941"
     inkscape:cx="85.103395"
     inkscape:zoom="3.7965805"
     inkscape:pageshadow="2"
     inkscape:pageopacity="0.0"
     borderopacity="1.0"
     bordercolor="#666666"
     pagecolor="#ffffff"
     id="base" />
  <metadata
     id="metadata15117">
    <rdf:RDF>
      <cc:Work
         rdf:about="">
        <dc:format>image/svg+xml</dc:format>
        <dc:type
           rdf:resource="http://purl.org/dc/dcmitype/StillImage" />
        <dc:title></dc:title>
      </cc:Work>
    </rdf:RDF>
  </metadata>
  <g
     transform="translate(103.425,-55.883942)"
     id="layer1"
     inkscape:groupmode="layer"
     inkscape:label="Layer 1">
    <path
       sodipodi:nodetypes="csssssssssssc"
       id="path10951"
       d="m -99.033199,60.926991 c -0.3261,0.48504 -0.5332,1.096254 -0.5236,1.718575 -0.01,0.757693 0.3282,1.534587 0.6833,2.404265 0.361,0.828953 0.7336,1.76635 0.7454,2.795356 0,0 0,10e-7 0,10e-7 -0.015,1.010868 -0.3797,1.913133 -0.7326,2.719187 -0.3593,0.856892 -0.7002,1.627202 -0.7259,2.438039 -0.035,0.718373 0.1886,1.46878 0.4051,2.142537 0.2651,0.809725 0.5022,1.479915 0.5763,2.23198 0.1582,1.639585 -0.5944,2.829121 -0.9904,3.332045 0.3636,-0.490321 1.0426,-1.712026 0.7707,-3.302888 -0.12,-0.711903 -0.3967,-1.327831 -0.7209,-2.127814 -0.2725,-0.662112 -0.561201,-1.437496 -0.590701,-2.277946 -0.019,-0.943206 0.281201,-1.828554 0.598901,-2.701124 0.2863,-0.826439 0.5804,-1.655378 0.5261,-2.434922 0,0 0,-10e-7 0,-10e-7 -0.028,-0.794921 -0.4144,-1.584049 -0.788,-2.401573 -0.411801,-0.849497 -0.805701,-1.751597 -0.858701,-2.789519 -0.028,-0.875835 0.2386,-1.707668 0.689801,-2.376335 0.1439,-0.213168 0.3081,-0.41323 0.491,-0.596533 0.7814,-0.777608 1.8581,-1.216306 2.9566,-1.214597 0.8739,0.01315 1.6645,0.257827 2.3827,0.489433 0.5859,0.175769 1.1442,0.348604 1.6724,0.386232 0.1214,0.0086 0.2411,0.01015 0.3593,0.0029 0.6701,-0.01418 1.3639,-0.311825 2.1,-0.616183 v 0 c 0.7319,-0.321565 1.5421,-0.662396 2.4644,-0.748451 v 0 c 0.1848,-0.01345 0.3682,-0.01544 0.5496,-0.0074 0.5053,0.0224 0.9949,0.12257 1.455,0.269177 0.6246,0.196793 1.201,0.460519 1.7517,0.720007 v 0 c 1.106,0.49993 2.1658,1.022852 3.1997,0.967974 0.2357,-0.0018 0.4725,-0.03364 0.7108,-0.08753 0.6256,-0.141496 1.2493,-0.423977 1.9572,-0.738316 0.8802,-0.413912 1.913901,-0.881831 3.066399,-0.961529 1.106901,-0.04983 2.129602,0.268876 3.069201,0.625591 0,0 0,0 0,0 0.9627,0.35211 1.833301,0.719627 2.747399,0.807775 1.133502,0.125425 2.3661,-0.199725 3.428802,-0.455376 0,0 0,0 0,0 1.3844,-0.342334 2.4824,-0.538186 3.5834,-0.364391 1.227601,0.196244 2.022801,0.79757 2.429399,1.151778 -0.4259,-0.349889 -1.2709,-0.887015 -2.449499,-0.990062 -1.0819,-0.09697 -2.101001,0.181517 -3.4485,0.609409 0,0 0,10e-7 0,10e-7 -1.038,0.336935 -2.284,0.756264 -3.5887,0.716852 -1.0462,-0.04469 -2.0164,-0.369887 -2.975599,-0.670439 0,0 0,-10e-7 0,-10e-7 -0.939602,-0.281391 -1.860601,-0.534573 -2.720203,-0.435332 -0.894299,0.07535 -1.786599,0.541695 -2.672299,0.961074 -0.6979,0.348962 -1.408,0.666877 -2.1852,0.835846 -0.2974,0.06466 -0.6042,0.10789 -0.921,0.121643 -1.3901,0.01326 -2.6199,-0.545024 -3.7097,-1.074063 v -2e-6 c -0.5473,-0.255044 -1.0761,-0.50031 -1.6091,-0.664627 -0.3916,-0.119104 -0.7864,-0.203418 -1.1705,-0.221608 -0.1379,-0.0065 -0.2744,-0.0045 -0.4089,0.0074 v 0 c -0.676,0.04117 -1.3683,0.352965 -2.1108,0.661341 -0.7383,0.32558 -1.5642,0.653116 -2.496,0.705864 -0.1648,0.0046 -0.3269,3.44e-4 -0.4864,-0.01115 -0.6941,-0.04995 -1.3378,-0.236789 -1.9283,-0.428237 -0.7284,-0.220002 -1.4079,-0.44761 -2.0495,-0.438216 -0.7915,-0.003 -1.6015,0.325666 -2.1566,0.884414 v 0 c -0.1307,0.13032 -0.2489,0.274677 -0.353,0.429417 z"
       style="fill:#351d05;fill-opacity:0.996078;stroke:none;stroke-width:0.264583px;stroke-linecap:butt;stroke-linejoin:miter;stroke-opacity:1"
       inkscape:export-filename="D:\Calcatz\Icon Pack\Adventure Narrative Inspired by Jumanji\Assets\PNG\Plant\17_left_top_panel_vines.png"
       inkscape:export-xdpi="96"
       inkscape:export-ydpi="96" />
    <path
       style="fill:#885728;fill-opacity:1;stroke:none;stroke-width:0.264583px;stroke-linecap:butt;stroke-linejoin:miter;stroke-opacity:1;filter:url(#filter5170)"
       d="m -99.396401,60.682239 c -0.3751,0.55689 -0.605099,1.253832 -0.5884,1.974059 0.016,0.866912 0.3744,1.692763 0.7512,2.55412 0.3658,0.824903 0.7434,1.704441 0.7614,2.642206 0,0 0,10e-7 0,10e-7 0.012,0.920703 -0.3257,1.794491 -0.6527,2.608231 -0.3433,0.862746 -0.6687,1.678092 -0.677,2.54074 -0.01,0.765972 0.2388,1.526321 0.4771,2.195796 0.2877,0.804919 0.5405,1.454978 0.6324,2.191106 0.2001,1.607855 -0.5102,2.807264 -0.9031,3.320544 0.3641,-0.482087 1.0827,-1.692636 0.8541,-3.314037 -0.1021,-0.726733 -0.3632,-1.363419 -0.6647,-2.167858 -0.2506,-0.66632 -0.5143,-1.432553 -0.5186,-2.226017 0,-0.89212 0.3147,-1.733008 0.6487,-2.599455 0.3122,-0.818484 0.6338,-1.675792 0.6066,-2.544788 0,0 0,-2e-6 0,-2e-6 -0.022,-0.885748 -0.4025,-1.732574 -0.7709,-2.55432 -0.39,-0.858043 -0.760899,-1.711107 -0.790299,-2.640102 -0.021,-0.777833 0.2231,-1.523903 0.625499,-2.120859 0.1284,-0.190474 0.2747,-0.368899 0.4373,-0.531623 0.6935,-0.692602 1.6667,-1.088551 2.6459,-1.086352 0.7837,0.0044 1.5311,0.242442 2.2533,0.46954 0.5877,0.181859 1.1792,0.360133 1.7718,0.402548 0.1361,0.0097 0.2724,0.01232 0.4086,0.0061 0.7718,-0.02916 1.5169,-0.338416 2.2539,-0.651016 v 0 c 0.736,-0.316443 1.5004,-0.645996 2.327,-0.714617 v 0 c 0.1653,-0.01288 0.3305,-0.01486 0.495,-0.0074 0.4582,0.02076 0.911,0.114776 1.3445,0.250701 0.589,0.18418 1.1469,0.440735 1.6963,0.698497 v 10e-7 c 1.0997,0.511236 2.2255,1.047893 3.3978,1.00918 0.2671,-0.0064 0.5311,-0.0427 0.7924,-0.10078 0.684,-0.152039 1.3412,-0.448184 2.0457,-0.776335 0.8816,-0.415818 1.8608,-0.883573 2.9134,-0.961821 1.010801,-0.06918 1.994001,0.223833 2.934001,0.551248 0,0 0,0 0,0 0.9613,0.331878 1.8707,0.682861 2.8358,0.75393 1.1995,0.09193 2.4379,-0.270165 3.4903,-0.557206 0,0 0,-1e-6 0,-1e-6 1.3718,-0.376266 2.439,-0.60361 3.5317,-0.459447 1.2152,0.160884 2.0272,0.740177 2.4369,1.090764 -0.4187,-0.353632 -1.2532,-0.916567 -2.4414,-1.054672 -1.0904,-0.127266 -2.1423,0.119996 -3.5016,0.514131 0,0 0,0 0,0 -1.0478,0.305447 -2.2885,0.688277 -3.526,0.615564 -0.9945,-0.06137 -1.9261,-0.402862 -2.8867,-0.72328 0,0 0,0 0,0 -0.9393,-0.310397 -1.9003,-0.589013 -2.856101,-0.508786 -0.9945,0.07724 -1.9412,0.543994 -2.8254,0.96172 -0.7009,0.335232 -1.3782,0.639797 -2.0966,0.798102 -0.2745,0.06048 -0.5541,0.09929 -0.8394,0.108393 -1.2517,0.02943 -2.4155,-0.515124 -3.5116,-1.032857 v 0 c -0.5486,-0.256771 -1.0959,-0.509207 -1.6644,-0.686138 -0.4183,-0.129787 -0.8499,-0.220259 -1.2811,-0.240084 -0.1548,-0.0071 -0.3095,-0.0051 -0.4635,0.0074 v 0 c -0.7717,0.0586 -1.5098,0.381677 -2.2482,0.695177 -0.7374,0.317336 -1.512,0.633261 -2.3421,0.67103 -0.1467,0.0056 -0.2924,0.0024 -0.4371,-0.0079 -0.6297,-0.04517 -1.2402,-0.226564 -1.8289,-0.411922 -0.7244,-0.224509 -1.4471,-0.458748 -2.1789,-0.458109 -0.9107,-0.0025 -1.8244,0.368904 -2.4674,1.012659 v 1e-6 c -0.151,0.150899 -0.287,0.316892 -0.4065,0.494326 z"
       id="path10987"
       sodipodi:nodetypes="csssssssssssc"
       inkscape:export-filename="D:\Calcatz\Icon Pack\Adventure Narrative Inspired by Jumanji\Assets\PNG\Plant\17_left_top_panel_vines.png"
       inkscape:export-xdpi="96"
       inkscape:export-ydpi="96" />
    <path
       style="fill:#0c2a00;fill-opacity:1;stroke:none;stroke-width:0.136902px;stroke-linecap:butt;stroke-linejoin:miter;stroke-opacity:1"
       d="m -98.901899,59.089059 c -1.098801,0.75233 -1.853701,-0.685847 -1.771101,-2.840057 1.016101,0.965008 2.447001,1.442566 1.771101,2.840057 z"
       id="path12035"
       sodipodi:nodetypes="ccc" />
    <path
       id="path12037"
       style="fill:url(#linearGradient12381);fill-opacity:1;stroke:none;stroke-width:0.136902px;stroke-linecap:butt;stroke-linejoin:miter;stroke-opacity:1"
       d="m -100.673,56.249002 c -0.074,1.923231 0.5708,3.227367 1.526201,2.712126 -0.2154,-0.21281 -0.5992,-0.931658 -0.6971,-1.310751 0.2088,0.389948 0.6183,1.130652 0.8163,1.243167 10e-4,-6.61e-4 0,-0.0011 0,-0.0015 0.6288,-1.300355 -0.7026,-1.744885 -1.648001,-2.642812 z"
       sodipodi:nodetypes="ccccccc" />
    <path
       sodipodi:nodetypes="cc"
       id="path12039"
       d="m -98.425799,59.379211 c -0.01,-0.0042 -0.017,-0.01202 -0.029,-0.02184 v 0 c -0.012,-0.0095 -0.019,-0.015 -0.036,-0.02786 v 0 c -0.024,-0.01879 -0.058,-0.0452 -0.1,-0.07887 v 0 c -0.087,-0.07079 -0.229,-0.198699 -0.3233,-0.278306 v 0 c -0.014,-0.01146 -0.1054,0.0084 -0.1204,-0.0048 0.015,0.01318 0.01,0.107436 0.024,0.119288 v 0 c 0.1138,0.096 0.2598,0.187003 0.3793,0.234166 v 0 c 0.054,0.02129 0.096,0.03145 0.127,0.03802 v 0 c 0.018,0.0037 0.032,0.0063 0.044,0.0089 v 0 c 0.016,0.0034 0.027,0.0068 0.034,0.01133 z"
       style="fill:url(#linearGradient12383);fill-opacity:1;fill-rule:nonzero;stroke:none;stroke-width:0.136902px;stroke-linecap:butt;stroke-linejoin:miter;stroke-opacity:1" />
    <path
       sodipodi:nodetypes="ccc"
       id="path12045"
       d="m -99.385999,59.417785 c 0.1129,-0.732895 -0.790901,-0.765261 -1.852301,-0.204717 0.7292,0.2775 1.313701,0.880698 1.852301,0.204717 z"
       style="fill:#0c2a00;fill-opacity:1;stroke:none;stroke-width:0.0762283px;stroke-linecap:butt;stroke-linejoin:miter;stroke-opacity:1" />
    <path
       sodipodi:nodetypes="ccccccc"
       d="m -101.2383,59.213068 c 0.9476,-0.50044 1.757501,-0.491158 1.729101,0.112596 -0.1587,-0.05683 -0.612101,-0.07632 -0.825901,-0.03408 0.246,0.01081 0.716501,0.03792 0.820701,0.110201 -1e-4,6.62e-4 -2e-4,0.001 -1e-4,0.0017 -0.501201,0.629 -1.045201,0.06778 -1.723701,-0.190432 z"
       style="fill:url(#linearGradient12377);fill-opacity:1;stroke:none;stroke-width:0.0762283px;stroke-linecap:butt;stroke-linejoin:miter;stroke-opacity:1"
       id="path12047" />
    <path
       style="fill:url(#linearGradient12379);fill-opacity:1;fill-rule:nonzero;stroke:none;stroke-width:0.0762283px;stroke-linecap:butt;stroke-linejoin:miter;stroke-opacity:1"
       d="m -99.125599,59.586854 c 0,-0.0027 -0.01,-0.0074 -0.014,-0.0145 v 0 c 0,-0.0054 -0.01,-0.01203 -0.015,-0.0201 v 0 c -0.011,-0.01425 -0.026,-0.03263 -0.05,-0.05459 v 0 c -0.052,-0.04863 -0.1334,-0.100002 -0.209,-0.133949 v 0 c -0.01,-0.0042 -0.055,0.0212 -0.066,0.01684 0.01,0.0044 0.022,0.0552 0.031,0.05926 v 0 c 0.063,0.02815 0.1612,0.06851 0.2177,0.09523 v 0 c 0.027,0.01272 0.048,0.02348 0.064,0.03112 v 0 c 0.011,0.0053 0.015,0.0073 0.023,0.01121 v 0 c 0.01,0.0039 0.014,0.007 0.018,0.0095 z"
       id="path12049"
       sodipodi:nodetypes="cc" />
    <path
       sodipodi:nodetypes="ccc"
       id="path12055"
       d="m -100.8535,62.794895 c -0.3101,-1.037375 -1.5225,-0.513999 -2.5715,0.890156 1.1357,-0.0907 2.2844,0.338831 2.5715,-0.890156 z"
       style="fill:#0c2a00;fill-opacity:1;stroke:none;stroke-width:0.111304px;stroke-linecap:butt;stroke-linejoin:miter;stroke-opacity:1" />
    <path
       sodipodi:nodetypes="ccccccc"
       d="m -103.425,63.685051 c 0.9365,-1.253596 2.0106,-1.748629 2.3513,-0.93448 -0.245,0.02445 -0.8551,0.282675 -1.1108,0.472337 0.3313,-0.139841 0.9689,-0.39876 1.1516,-0.368675 3e-4,9.26e-4 4e-4,0.0015 9e-4,0.0023 -0.2672,1.143565 -1.3361,0.744003 -2.3929,0.828398 z"
       style="fill:url(#linearGradient12373);fill-opacity:1;stroke:none;stroke-width:0.111304px;stroke-linecap:butt;stroke-linejoin:miter;stroke-opacity:1"
       id="path12057" />
    <path
       style="fill:url(#linearGradient12375);fill-opacity:1;fill-rule:nonzero;stroke:none;stroke-width:0.111304px;stroke-linecap:butt;stroke-linejoin:miter;stroke-opacity:1"
       d="m -100.4042,62.854827 c -0.01,-10e-4 -0.016,-0.0045 -0.027,-0.01039 v 0 c -0.01,-0.0045 -0.019,-0.01026 -0.033,-0.01704 v 0 c -0.023,-0.01197 -0.055,-0.02676 -0.1,-0.04088 v 0 c -0.1,-0.03128 -0.2386,-0.04838 -0.3596,-0.04582 v 0 c -0.015,3.18e-4 -0.06,0.06263 -0.076,0.06329 0.016,-6.61e-4 0.064,0.05879 0.079,0.05848 v 0 c 0.1003,-0.0021 0.2554,-0.0105 0.3467,-0.01068 v 0 c 0.043,-8.3e-5 0.079,6.88e-4 0.1035,0.0012 v 0 c 0.017,3.44e-4 0.024,4.5e-4 0.037,6.35e-4 v 0 c 0.013,1.84e-4 0.023,2.91e-4 0.03,0.0012 z"
       id="path12059"
       sodipodi:nodetypes="cc" />
    <path
       style="fill:#0c2a00;fill-opacity:1;stroke:none;stroke-width:0.0831472px;stroke-linecap:butt;stroke-linejoin:miter;stroke-opacity:1"
       d="m -98.459199,65.633514 c 0.2317,-0.774944 1.1374,-0.38397 1.921,0.664968 -0.8484,-0.06776 -1.7065,0.253114 -1.921,-0.664968 z"
       id="path12065"
       sodipodi:nodetypes="ccc" />
    <path
       id="path12067"
       style="fill:url(#linearGradient12369);fill-opacity:1;stroke:none;stroke-width:0.0831472px;stroke-linecap:butt;stroke-linejoin:miter;stroke-opacity:1"
       d="m -96.538199,66.298482 c -0.6996,-0.936467 -1.502,-1.306268 -1.7565,-0.698079 0.183,0.01826 0.6388,0.211164 0.8298,0.352847 -0.2475,-0.104464 -0.7238,-0.297884 -0.8603,-0.27541 -2e-4,6.88e-4 -2.91e-4,0.0011 -6.09e-4,0.0017 0.1995,0.85427 0.998101,0.555788 1.787501,0.618833 z"
       sodipodi:nodetypes="ccccccc" />
    <path
       sodipodi:nodetypes="cc"
       id="path12069"
       d="m -98.794899,65.678284 c 0,-6.88e-4 0.012,-7.67e-4 0.022,-9.26e-4 v 0 c 0.01,-1.38e-4 0.015,-2.24e-4 0.027,-4.76e-4 v 0 c 0.019,-3.71e-4 0.045,-9.53e-4 0.077,-8.73e-4 v 0 c 0.068,1.36e-4 0.1842,0.0064 0.2591,0.008 v 0 c 0.011,2.29e-4 0.047,-0.04418 0.059,-0.04369 -0.012,-5.03e-4 -0.046,-0.04704 -0.057,-0.04728 v 0 c -0.09,-0.0019 -0.1941,0.01086 -0.2686,0.03422 v 0 c -0.034,0.01055 -0.057,0.02159 -0.075,0.03054 v 0 c -0.01,0.0051 -0.018,0.0094 -0.024,0.01273 v 0 c -0.01,0.0044 -0.015,0.007 -0.02,0.0078 z"
       style="fill:url(#linearGradient12371);fill-opacity:1;fill-rule:nonzero;stroke:none;stroke-width:0.0831472px;stroke-linecap:butt;stroke-linejoin:miter;stroke-opacity:1" />
    <path
       sodipodi:nodetypes="ccc"
       id="path12075"
       d="m -98.734099,65.212255 c 0.1675,0.560228 0.8222,0.277582 1.3887,-0.480723 -0.6133,0.04898 -1.2337,-0.182984 -1.3887,0.480723 z"
       style="fill:#0c2a00;fill-opacity:1;stroke:none;stroke-width:0.0601094px;stroke-linecap:butt;stroke-linejoin:miter;stroke-opacity:1" />
    <path
       sodipodi:nodetypes="ccccccc"
       d="m -97.345399,64.731532 c -0.5057,0.676997 -1.0858,0.944336 -1.2698,0.50466 0.1323,-0.0132 0.4618,-0.152657 0.5999,-0.255083 -0.1789,0.07552 -0.5232,0.215348 -0.6219,0.199101 -2e-4,-5.03e-4 -2.91e-4,-7.94e-4 -5.03e-4,-0.0013 0.1443,-0.617575 0.7216,-0.401794 1.2922,-0.447371 z"
       style="fill:url(#linearGradient12365);fill-opacity:1;stroke:none;stroke-width:0.0601094px;stroke-linecap:butt;stroke-linejoin:miter;stroke-opacity:1"
       id="path12077" />
    <path
       style="fill:url(#linearGradient12367);fill-opacity:1;fill-rule:nonzero;stroke:none;stroke-width:0.0601094px;stroke-linecap:butt;stroke-linejoin:miter;stroke-opacity:1"
       d="m -98.976799,65.179889 c 0,5.56e-4 0.01,0.0024 0.015,0.0056 v 0 c 0,0.0024 0.011,0.0055 0.018,0.0092 v 0 c 0.013,0.0065 0.03,0.01445 0.054,0.02208 v 0 c 0.054,0.01689 0.1287,0.02612 0.194,0.02474 v 0 c 0.01,-1.71e-4 0.032,-0.03382 0.041,-0.03418 -0.01,3.44e-4 -0.035,-0.03175 -0.042,-0.03158 v 0 c -0.054,0.0011 -0.1377,0.0057 -0.187,0.0058 v 0 c -0.024,4.7e-5 -0.042,-3.7e-4 -0.056,-6.35e-4 v 0 c -0.01,-1.86e-4 -0.013,-2.5e-4 -0.02,-3.44e-4 v 0 c -0.01,-1.01e-4 -0.013,-1.56e-4 -0.016,-6.61e-4 z"
       id="path12079"
       sodipodi:nodetypes="cc" />
    <path
       sodipodi:nodetypes="ccc"
       id="path12085"
       d="m -99.153599,69.103619 c 0.016,-0.540249 -0.6403,-0.483227 -1.358301,0.01676 0.552201,0.135854 1.028801,0.520212 1.358301,-0.01676 z"
       style="fill:#0c2a00;fill-opacity:1;stroke:none;stroke-width:0.0555622px;stroke-linecap:butt;stroke-linejoin:miter;stroke-opacity:1" />
    <path
       sodipodi:nodetypes="ccccccc"
       d="m -100.5119,69.120377 c 0.641001,-0.446374 1.227801,-0.511742 1.260901,-0.07243 -0.1199,-0.02699 -0.4496,-7.41e-4 -0.6005,0.04885 0.1789,-0.01408 0.5217,-0.03634 0.6035,0.0067 0,4.77e-4 0,7.68e-4 10e-5,0.0012 -0.3066,0.499648 -0.7501,0.142051 -1.264001,0.01564 z"
       style="fill:url(#linearGradient12361);fill-opacity:1;stroke:none;stroke-width:0.0555622px;stroke-linecap:butt;stroke-linejoin:miter;stroke-opacity:1"
       id="path12087" />
    <path
       style="fill:url(#linearGradient12363);fill-opacity:1;fill-rule:nonzero;stroke:none;stroke-width:0.0555622px;stroke-linecap:butt;stroke-linejoin:miter;stroke-opacity:1"
       d="m -98.950199,69.202758 c 0,-0.0016 -0.01,-0.0046 -0.011,-0.0092 v 0 c 0,-0.0035 -0.01,-0.0079 -0.013,-0.0132 v 0 c -0.01,-0.0093 -0.022,-0.0213 -0.041,-0.03507 v 0 c -0.042,-0.03051 -0.1055,-0.06048 -0.1632,-0.07831 v 0 c -0.01,-0.0022 -0.038,0.02026 -0.046,0.01801 0.01,0.0022 0.021,0.03794 0.028,0.04007 v 0 c 0.048,0.01479 0.1226,0.03524 0.1659,0.04954 v 0 c 0.021,0.0068 0.037,0.01269 0.049,0.01685 v 0 c 0.01,0.0029 0.011,0.004 0.017,0.0061 v 0 c 0.01,0.0021 0.011,0.0038 0.014,0.0053 z"
       id="path12089"
       sodipodi:nodetypes="cc" />
    <path
       style="fill:#0c2a00;fill-opacity:1;stroke:none;stroke-width:0.0482021px;stroke-linecap:butt;stroke-linejoin:miter;stroke-opacity:1"
       d="m -99.112599,71.576514 c 0.2129,-0.417757 0.6886,-0.10034 1.0261,0.579557 -0.4767,-0.127121 -0.9996,-0.03364 -1.0261,-0.579557 z"
       id="path12095"
       sodipodi:nodetypes="ccc" />
    <path
       id="path12097"
       style="fill:url(#linearGradient12357);fill-opacity:1;stroke:none;stroke-width:0.0482021px;stroke-linecap:butt;stroke-linejoin:miter;stroke-opacity:1"
       d="m -98.086499,72.156071 c -0.3013,-0.606996 -0.7203,-0.901566 -0.9288,-0.58128 0.1024,0.0295 0.3422,0.187042 0.4363,0.287755 -0.1302,-0.08538 -0.3816,-0.245357 -0.4618,-0.246775 -2e-4,3.71e-4 -2.91e-4,5.82e-4 -6.09e-4,9.26e-4 0.025,0.507973 0.511301,0.421045 0.9548,0.539328 z"
       sodipodi:nodetypes="ccccccc" />
    <path
       sodipodi:nodetypes="cc"
       id="path12099"
       d="m -99.308699,71.567038 c 0,1.1e-4 0.01,8.73e-4 0.013,0.0018 v 0 c 0.01,9e-4 0.01,0.0014 0.016,0.0026 v 0 c 0.011,0.0017 0.026,0.0041 0.044,0.0076 v 0 c 0.039,0.0072 0.1043,0.02285 0.1468,0.03157 v 0 c 0.01,0.0013 0.031,-0.02033 0.038,-0.01879 -0.01,-0.0015 -0.021,-0.03158 -0.027,-0.03288 v 0 c -0.051,-0.01052 -0.1117,-0.01406 -0.1567,-0.0085 v 0 c -0.02,0.0025 -0.035,0.0064 -0.046,0.0096 v 0 c -0.01,0.0019 -0.011,0.0035 -0.015,0.0047 v 0 c -0.01,0.0016 -0.01,0.0024 -0.013,0.0023 z"
       style="fill:url(#linearGradient12359);fill-opacity:1;fill-rule:nonzero;stroke:none;stroke-width:0.0482021px;stroke-linecap:butt;stroke-linejoin:miter;stroke-opacity:1" />
    <path
       sodipodi:nodetypes="ccc"
       id="path12105"
       d="m -100.2057,72.827456 c -0.1934,0.379555 -0.6256,0.09116 -0.9322,-0.526561 0.4331,0.115496 0.9081,0.03056 0.9322,0.526561 z"
       style="fill:#0c2a00;fill-opacity:1;stroke:none;stroke-width:0.0437944px;stroke-linecap:butt;stroke-linejoin:miter;stroke-opacity:1" />
    <path
       sodipodi:nodetypes="ccccccc"
       d="m -101.1379,72.300895 c 0.2737,0.55149 0.6544,0.819123 0.8438,0.528126 -0.093,-0.0268 -0.3109,-0.169939 -0.3964,-0.261442 0.1183,0.07758 0.3467,0.22292 0.4196,0.224209 2e-4,-3.44e-4 2.9e-4,-5.29e-4 5e-4,-8.46e-4 -0.023,-0.461522 -0.4645,-0.382544 -0.8675,-0.490011 z"
       style="fill:url(#linearGradient12353);fill-opacity:1;stroke:none;stroke-width:0.0437944px;stroke-linecap:butt;stroke-linejoin:miter;stroke-opacity:1"
       id="path12107" />
    <path
       style="fill:url(#linearGradient12355);fill-opacity:1;fill-rule:nonzero;stroke:none;stroke-width:0.0437944px;stroke-linecap:butt;stroke-linejoin:miter;stroke-opacity:1"
       d="m -100.0275,72.836065 c 0,-1.01e-4 -0.01,-7.94e-4 -0.012,-0.0016 v 0 c 0,-8.2e-4 -0.01,-0.0013 -0.014,-0.0024 v 0 c -0.01,-0.0016 -0.023,-0.0038 -0.04,-0.0069 v 0 c -0.035,-0.0065 -0.095,-0.02076 -0.1335,-0.02868 v 0 c -0.01,-0.0011 -0.028,0.01847 -0.034,0.01707 0.01,0.0014 0.019,0.02869 0.025,0.02987 v 0 c 0.046,0.0096 0.1015,0.01277 0.1424,0.0077 v 0 c 0.019,-0.0023 0.032,-0.0058 0.042,-0.0088 v 0 c 0.01,-0.0017 0.01,-0.0032 0.014,-0.0043 v 0 c 0.01,-0.0015 0.01,-0.0022 0.011,-0.0021 z"
       id="path12109"
       sodipodi:nodetypes="cc" />
    <path
       style="fill:#0c2a00;fill-opacity:1;stroke:none;stroke-width:0.0437944px;stroke-linecap:butt;stroke-linejoin:miter;stroke-opacity:1"
       d="m -99.760799,74.838258 c 0.2136,0.368582 -0.263301,0.574887 -0.948501,0.49688 0.3322,-0.300975 0.5189,-0.745974 0.948501,-0.49688 z"
       id="path12115"
       sodipodi:nodetypes="ccc" />
    <path
       id="path12117"
       style="fill:url(#linearGradient12349);fill-opacity:1;stroke:none;stroke-width:0.0437944px;stroke-linecap:butt;stroke-linejoin:miter;stroke-opacity:1"
       d="m -100.7093,75.335138 c 0.6118,0.06964 1.043201,-0.104682 0.901801,-0.421817 -0.073,0.0636 -0.311601,0.168823 -0.434901,0.190938 0.1294,-0.05723 0.375501,-0.170117 0.416201,-0.230583 -2e-4,-3.44e-4 -2.91e-4,-5.29e-4 -5.03e-4,-8.73e-4 -0.399698,-0.231781 -0.573398,0.182275 -0.882498,0.462331 z"
       sodipodi:nodetypes="ccccccc" />
    <path
       sodipodi:nodetypes="cc"
       id="path12119"
       d="m -99.656899,74.693345 c 0,0.0021 0,0.0051 -0.01,0.0089 v 0 c 0,0.0029 -0.01,0.0065 -0.01,0.01073 v 0 c -0.01,0.0073 -0.016,0.01749 -0.027,0.02995 v 0 c -0.025,0.02611 -0.069,0.06826 -0.097,0.09644 v 0 c 0,0.0041 1e-4,0.03383 0,0.0383 0,-0.0045 0.034,-5.03e-4 0.039,-0.0047 v 0 c 0.033,-0.03396 0.066,-0.07838 0.084,-0.115384 v 0 c 0.01,-0.01671 0.012,-0.02971 0.015,-0.03961 v 0 c 0,-0.0056 0,-0.01018 0,-0.01392 v 0 c 0,-0.005 0,-0.0084 0,-0.01067 z"
       style="fill:url(#linearGradient12351);fill-opacity:1;fill-rule:nonzero;stroke:none;stroke-width:0.0437944px;stroke-linecap:butt;stroke-linejoin:miter;stroke-opacity:1" />
    <path
       sodipodi:nodetypes="ccc"
       id="path12125"
       d="m -98.854399,76.064612 c 0.1178,0.409415 0.5969,0.20845 1.0153,-0.339719 -0.4471,0.03105 -0.8974,-0.142645 -1.0153,0.339719 z"
       style="fill:#0c2a00;fill-opacity:1;stroke:none;stroke-width:0.0437944px;stroke-linecap:butt;stroke-linejoin:miter;stroke-opacity:1" />
    <path
       sodipodi:nodetypes="ccccccc"
       d="m -97.839099,75.724893 c -0.3735,0.489393 -0.7982,0.679771 -0.9289,0.358058 0.097,-0.0086 0.3376,-0.107723 0.439,-0.1813 -0.1309,0.05367 -0.3828,0.152931 -0.4546,0.140348 -1e-4,-3.7e-4 -2e-4,-5.82e-4 -2.91e-4,-9.26e-4 0.1097,-0.448837 0.5287,-0.287264 0.9448,-0.316151 z"
       style="fill:url(#linearGradient12345);fill-opacity:1;stroke:none;stroke-width:0.0437944px;stroke-linecap:butt;stroke-linejoin:miter;stroke-opacity:1"
       id="path12127" />
    <path
       style="fill:url(#linearGradient12347);fill-opacity:1;fill-rule:nonzero;stroke:none;stroke-width:0.0437944px;stroke-linecap:butt;stroke-linejoin:miter;stroke-opacity:1"
       d="m -99.030999,76.039196 c 0,4.24e-4 0.01,0.0018 0.011,0.0042 v 0 c 0,0.0018 0.01,0.0041 0.013,0.0068 v 0 c 0.01,0.0048 0.022,0.01075 0.039,0.01649 v 0 c 0.039,0.01271 0.094,0.02 0.1412,0.01949 v 0 c 0.01,-6.3e-5 0.024,-0.0244 0.03,-0.02459 -0.01,1.92e-4 -0.025,-0.02339 -0.031,-0.02333 v 0 c -0.039,4.23e-4 -0.1004,0.0031 -0.1364,0.0028 v 0 c -0.017,-1.44e-4 -0.031,-5.82e-4 -0.041,-9e-4 v 0 c -0.01,-2.06e-4 -0.01,-2.91e-4 -0.014,-3.96e-4 v 0 c -0.01,-1.27e-4 -0.01,-2.1e-4 -0.012,-6.09e-4 z"
       id="path12129"
       sodipodi:nodetypes="cc" />
    <path
       style="fill:#0c2a00;fill-opacity:1;stroke:none;stroke-width:0.0912775px;stroke-linecap:butt;stroke-linejoin:miter;stroke-opacity:1"
       d="m -95.015599,58.546444 c -0.8054,-0.373869 -0.2379,-1.296185 1.0252,-1.982158 -0.2073,0.910987 0.01,1.893863 -1.0252,1.982158 z"
       id="path12135"
       sodipodi:nodetypes="ccc" />
    <path
       id="path12137"
       style="fill:url(#linearGradient12341);fill-opacity:1;stroke:none;stroke-width:0.0912775px;stroke-linecap:butt;stroke-linejoin:miter;stroke-opacity:1"
       d="m -93.990399,56.564286 c -1.1277,0.612423 -1.6559,1.425859 -1.0353,1.798196 0.049,-0.195916 0.3301,-0.6607 0.5142,-0.845831 -0.1525,0.252397 -0.4377,0.739344 -0.4348,0.891159 6.88e-4,3.44e-4 0,5.37e-4 0,0.001 0.9595,-0.08216 0.7611,-0.996758 0.954,-1.844424 z"
       sodipodi:nodetypes="ccccccc" />
    <path
       sodipodi:nodetypes="cc"
       id="path12139"
       d="m -95.019899,58.918151 c 0,-0.0054 0,-0.01376 0,-0.02427 v 0 c 0,-0.01023 0,-0.01599 0,-0.02995 v 0 c 0,-0.02027 0.01,-0.04886 0.011,-0.08409 v 0 c 0.011,-0.07409 0.036,-0.198937 0.049,-0.280103 v 0 c 0,-0.01169 -0.041,-0.05754 -0.038,-0.07063 0,0.01309 -0.058,0.04212 -0.06,0.05421 v 0 c -0.016,0.09785 -0.019,0.212548 -0.01,0.297112 v 0 c 0.01,0.03817 0.014,0.06543 0.021,0.08575 v 0 c 0,0.0115 0.01,0.02071 0.01,0.02843 v 0 c 0,0.01025 0.01,0.0177 0.01,0.02355 z"
       style="fill:url(#linearGradient12343);fill-opacity:1;fill-rule:nonzero;stroke:none;stroke-width:0.0912775px;stroke-linecap:butt;stroke-linejoin:miter;stroke-opacity:1" />
    <path
       sodipodi:nodetypes="ccc"
       id="path12145"
       d="m -92.014099,60.596434 c 0.7192,-0.210619 0.8719,0.690505 0.4516,1.828474 -0.375,-0.693604 -1.0571,-1.198869 -0.4516,-1.828474 z"
       style="fill:#0c2a00;fill-opacity:1;stroke:none;stroke-width:0.0770366px;stroke-linecap:butt;stroke-linejoin:miter;stroke-opacity:1" />
    <path
       sodipodi:nodetypes="ccccccc"
       d="m -91.562499,62.424908 c 0.3752,-1.015954 0.2581,-1.826113 -0.3429,-1.717279 0.078,0.151441 0.1579,0.603004 0.144,0.822876 -0.043,-0.245037 -0.1333,-0.712775 -0.2196,-0.807531 -6.08e-4,1.81e-4 -0.001,2.91e-4 0,3.71e-4 -0.5634,0.585843 0.071,1.056071 0.4202,1.701462 z"
       style="fill:url(#linearGradient12337);fill-opacity:1;stroke:none;stroke-width:0.0770366px;stroke-linecap:butt;stroke-linejoin:miter;stroke-opacity:1"
       id="path12147" />
    <path
       style="fill:url(#linearGradient12339);fill-opacity:1;fill-rule:nonzero;stroke:none;stroke-width:0.0770366px;stroke-linecap:butt;stroke-linejoin:miter;stroke-opacity:1"
       d="m -92.218199,60.358106 c 0,0.0035 0.01,0.0094 0.012,0.01681 v 0 c 0.01,0.0076 0.01,0.01089 0.014,0.02113 v 0 c 0.01,0.01432 0.023,0.03433 0.04,0.05961 v 0 c 0.034,0.05308 0.088,0.146263 0.1243,0.205314 v 0 c 0.01,0.0085 0.058,0.01393 0.063,0.0236 -0.01,-0.0097 0.014,-0.05915 0.01,-0.06794 v 0 c -0.044,-0.07119 -0.1063,-0.145392 -0.1619,-0.191484 v 0 c -0.025,-0.02081 -0.046,-0.0335 -0.061,-0.04251 v 0 c -0.01,-0.0051 -0.016,-0.009 -0.022,-0.01248 v 0 c -0.01,-0.0046 -0.013,-0.0083 -0.017,-0.01205 z"
       id="path12149"
       sodipodi:nodetypes="cc" />
    <path
       style="fill:#0c2a00;fill-opacity:1;stroke:none;stroke-width:0.0725239px;stroke-linecap:butt;stroke-linejoin:miter;stroke-opacity:1"
       d="m -99.441299,62.23609 c 0.3924,-0.586285 1.0467,-0.02748 1.43,1.048305 -0.6896,-0.274675 -1.4874,-0.227962 -1.43,-1.048305 z"
       id="path12155"
       sodipodi:nodetypes="ccc" />
    <path
       id="path12157"
       style="fill:url(#linearGradient12333);fill-opacity:1;stroke:none;stroke-width:0.0725239px;stroke-linecap:butt;stroke-linejoin:miter;stroke-opacity:1"
       d="m -98.011299,63.284395 c -0.3422,-0.960437 -0.9158,-1.475027 -1.2844,-1.033584 0.1478,0.06228 0.4781,0.340295 0.6008,0.507497 -0.1794,-0.150719 -0.5266,-0.434426 -0.6461,-0.450798 -3.97e-4,5.29e-4 -6.09e-4,8.2e-4 -0.001,0.0013 -0.053,0.763324 0.6889,0.719944 1.3306,0.975524 z"
       sodipodi:nodetypes="ccccccc" />
    <path
       sodipodi:nodetypes="cc"
       id="path12159"
       d="m -99.732599,62.187075 c 0,6.88e-4 0.011,0.0026 0.019,0.005 v 0 c 0.01,0.0023 0.013,0.0036 0.023,0.0067 v 0 c 0.016,0.0045 0.038,0.01075 0.065,0.01914 v 0 c 0.057,0.01766 0.1519,0.05266 0.214,0.07325 v 0 c 0.01,0.003 0.05,-0.02485 0.06,-0.02132 -0.01,-0.0035 -0.026,-0.05093 -0.035,-0.054 v 0 c -0.075,-0.02483 -0.1646,-0.04086 -0.2327,-0.04053 v 0 c -0.031,1.46e-4 -0.053,0.0033 -0.07,0.0063 v 0 c -0.01,0.0017 -0.017,0.0033 -0.024,0.0044 v 0 c -0.01,0.0014 -0.014,0.0019 -0.019,0.0012 z"
       style="fill:url(#linearGradient12335);fill-opacity:1;fill-rule:nonzero;stroke:none;stroke-width:0.0725239px;stroke-linecap:butt;stroke-linejoin:miter;stroke-opacity:1" />
    <path
       sodipodi:nodetypes="ccc"
       id="path12165"
       d="m -99.428399,61.82906 c -0.1304,0.40994 0.3847,0.509466 1.0433,0.283294 -0.3931,-0.224381 -0.674,-0.622467 -1.0433,-0.283294 z"
       style="fill:#0c2a00;fill-opacity:1;stroke:none;stroke-width:0.0442201px;stroke-linecap:butt;stroke-linejoin:miter;stroke-opacity:1" />
    <path
       sodipodi:nodetypes="ccccccc"
       d="m -98.385099,62.112354 c -0.5879,0.20192 -1.0513,0.124035 -0.9809,-0.219455 0.086,0.0468 0.3439,0.09858 0.4703,0.09353 -0.1401,-0.02824 -0.4073,-0.08593 -0.4605,-0.136692 1e-4,-3.7e-4 1e-4,-5.82e-4 2e-4,-9.79e-4 0.3436,-0.315599 0.6051,0.05479 0.9709,0.26358 z"
       style="fill:url(#linearGradient12329);fill-opacity:1;stroke:none;stroke-width:0.0442201px;stroke-linecap:butt;stroke-linejoin:miter;stroke-opacity:1"
       id="path12167" />
    <path
       style="fill:url(#linearGradient12331);fill-opacity:1;fill-rule:nonzero;stroke:none;stroke-width:0.0442201px;stroke-linecap:butt;stroke-linejoin:miter;stroke-opacity:1"
       d="m -99.562499,61.708832 c 0,0.0019 0,0.005 0.01,0.0096 v 0 c 0,0.0034 0,0.0077 0.01,0.01288 v 0 c 0.01,0.0092 0.012,0.02104 0.024,0.03574 v 0 c 0.026,0.03255 0.068,0.06926 0.1076,0.09546 v 0 c 0.01,0.0032 0.034,-0.0072 0.039,-0.0038 -0.01,-0.0034 -0.01,-0.03363 -0.013,-0.03676 v 0 c -0.033,-0.02176 -0.086,-0.05372 -0.116202,-0.07411 v 0 c -0.014,-0.0097 -0.026,-0.01781 -0.034,-0.02354 v 0 c -0.01,-0.0041 -0.01,-0.0054 -0.012,-0.0084 v 0 c 0,-0.003 -0.01,-0.0053 -0.01,-0.0071 z"
       id="path12169"
       sodipodi:nodetypes="cc" />
    <path
       style="fill:#0c2a00;fill-opacity:1;stroke:none;stroke-width:0.0442201px;stroke-linecap:butt;stroke-linejoin:miter;stroke-opacity:1"
       d="m -96.445999,59.675597 c -0.4284,0.03859 -0.3207,0.552045 0.1429,1.071631 0.055,-0.449312 0.3128,-0.862522 -0.1429,-1.071631 z"
       id="path12175"
       sodipodi:nodetypes="ccc" />
    <path
       id="path12177"
       style="fill:url(#linearGradient12325);fill-opacity:1;stroke:none;stroke-width:0.0442201px;stroke-linecap:butt;stroke-linejoin:miter;stroke-opacity:1"
       d="m -96.303099,60.747228 c -0.4139,-0.463875 -0.5215,-0.921252 -0.1776,-0.989398 -0.01,0.0973 0.042,0.355296 0.096,0.469838 -0.028,-0.14005 -0.078,-0.408772 -0.052,-0.477517 3.97e-4,-3.9e-5 6.09e-4,-5.7e-5 0.001,-1.64e-4 0.424,0.194575 0.1838,0.5791 0.133,0.997181 z"
       sodipodi:nodetypes="ccccccc" />
    <path
       sodipodi:nodetypes="cc"
       id="path12179"
       d="m -96.387099,59.505419 c -10e-4,0.0027 0,0.0058 -0.01,0.0099 v 0 c 0,0.0031 -0.01,0.0067 -0.01,0.01132 v 0 c -0.01,0.0081 -0.015,0.0192 -0.024,0.03561 v 0 c -0.02,0.0363 -0.038,0.08907 -0.046,0.136311 v 0 c 0,0.0058 0.02,0.02822 0.019,0.03459 0.001,-0.0064 0.028,-0.0203 0.029,-0.02595 v 0 c 0.01,-0.03923 0.016,-0.100263 0.023,-0.135816 v 0 c 0,-0.01698 0.01,-0.03044 0.01,-0.04016 v 0 c 0,-0.0057 0,-0.01037 0,-0.01428 v 0 c 0,-0.005 0,-0.009 0,-0.01149 z"
       style="fill:url(#linearGradient12327);fill-opacity:1;fill-rule:nonzero;stroke:none;stroke-width:0.0442201px;stroke-linecap:butt;stroke-linejoin:miter;stroke-opacity:1" />
    <path
       sodipodi:nodetypes="ccc"
       id="path12185"
       d="m -88.339399,57.949958 c 0.8356,-0.300232 0.353,-1.269671 -0.8436,-2.066016 0.1249,0.925896 -0.1756,1.885715 0.8436,2.066016 z"
       style="fill:#0c2a00;fill-opacity:1;stroke:none;stroke-width:0.0912775px;stroke-linecap:butt;stroke-linejoin:miter;stroke-opacity:1" />
    <path
       sodipodi:nodetypes="ccccccc"
       d="m -89.182999,55.883942 c 1.0683,0.71096 1.5215,1.568438 0.87,1.883692 -0.031,-0.199489 -0.2696,-0.68761 -0.4363,-0.888479 0.1293,0.265041 0.3698,0.775575 0.3533,0.926521 -7.94e-4,2.78e-4 0,4.31e-4 0,8.39e-4 -0.9483,-0.16777 -0.6688,-1.060925 -0.785,-1.922464 z"
       style="fill:url(#linearGradient12321);fill-opacity:1;stroke:none;stroke-width:0.0912775px;stroke-linecap:butt;stroke-linejoin:miter;stroke-opacity:1"
       id="path12187" />
    <path
       style="fill:url(#linearGradient12323);fill-opacity:1;fill-rule:nonzero;stroke:none;stroke-width:0.0912775px;stroke-linecap:butt;stroke-linejoin:miter;stroke-opacity:1"
       d="m -88.368499,58.320553 c 0,-0.0058 0,-0.01296 0.01,-0.02284 v 0 c 0,-0.0074 0.01,-0.0163 0.013,-0.02745 v 0 c 0.01,-0.01975 0.02,-0.0462 0.029,-0.08382 v 0 c 0.02,-0.08259 0.027,-0.198061 0.02,-0.296242 v 0 c -0.001,-0.0122 -0.054,-0.04604 -0.055,-0.05931 0,0.01326 -0.045,0.05518 -0.044,0.06701 v 0 c 0.01,0.08217 0.021,0.208959 0.026,0.283544 v 0 c 0,0.03596 0,0.0636 0,0.08442 v 1e-6 c 2.91e-4,0.01159 5.03e-4,0.02223 5.03e-4,0.03014 v 0 c 0,0.01069 -2e-4,0.01906 0,0.02454 z"
       id="path12189"
       sodipodi:nodetypes="cc" />
    <path
       style="fill:#0c2a00;fill-opacity:1;stroke:none;stroke-width:0.0609235px;stroke-linecap:butt;stroke-linejoin:miter;stroke-opacity:1"
       d="m -87.762299,57.990517 c -0.5578,-0.200392 -0.2356,-0.847447 0.563,-1.37897 -0.083,0.617993 0.1172,1.258627 -0.563,1.37897 z"
       id="path12195"
       sodipodi:nodetypes="ccc" />
    <path
       id="path12197"
       style="fill:url(#linearGradient12317);fill-opacity:1;stroke:none;stroke-width:0.0609235px;stroke-linecap:butt;stroke-linejoin:miter;stroke-opacity:1"
       d="m -87.199299,56.611547 c -0.713,0.474533 -1.0155,1.046859 -0.5807,1.257277 0.021,-0.13315 0.18,-0.458948 0.2912,-0.593019 -0.086,0.176903 -0.2468,0.517661 -0.2358,0.61841 5.03e-4,1.85e-4 7.94e-4,2.88e-4 0,5.58e-4 0.633,-0.111977 0.4464,-0.708117 0.524,-1.283154 z"
       sodipodi:nodetypes="ccccccc" />
    <path
       sodipodi:nodetypes="cc"
       id="path12199"
       d="m -87.742899,58.237871 c 0,-0.0035 6.88e-4,-0.0092 0,-0.01618 v 0 c 5.03e-4,-0.0058 9e-4,-0.01184 0,-0.02016 v 0 c 6.88e-4,-0.01412 0,-0.03264 0,-0.05681 v 0 c 0,-0.05003 0.011,-0.134387 0.015,-0.189067 v 0 c 6.09e-4,-0.0079 -0.031,-0.03575 -0.03,-0.04461 -7.93e-4,0.0089 -0.036,0.03154 -0.037,0.03971 v 0 c 0,0.06653 9e-4,0.142247 0.016,0.197913 v 0 c 0.01,0.0249 0.014,0.04251 0.019,0.05549 v 0 c 0,0.0077 0.01,0.013 0.01,0.01828 v 0 c 0,0.0066 0,0.01156 0,0.01544 z"
       style="fill:url(#linearGradient12319);fill-opacity:1;fill-rule:nonzero;stroke:none;stroke-width:0.0609235px;stroke-linecap:butt;stroke-linejoin:miter;stroke-opacity:1" />
    <path
       style="fill:#0c2a00;fill-opacity:1;stroke:none;stroke-width:0.0770366px;stroke-linecap:butt;stroke-linejoin:miter;stroke-opacity:1"
       d="m -85.387099,59.653628 c 0.6814,0.311783 0.2067,1.092831 -0.8561,1.677653 0.1708,-0.769809 -0.014,-1.598332 0.8561,-1.677653 z"
       id="path12205"
       sodipodi:nodetypes="ccc" />
    <path
       id="path12207"
       style="fill:url(#linearGradient12313);fill-opacity:1;stroke:none;stroke-width:0.0770366px;stroke-linecap:butt;stroke-linejoin:miter;stroke-opacity:1"
       d="m -86.243199,61.331281 c 0.9489,-0.522117 1.3909,-1.211091 0.8654,-1.522441 -0.04,0.165574 -0.2755,0.559147 -0.43,0.716249 0.1275,-0.213725 0.366,-0.626021 0.3628,-0.754135 -6.08e-4,-2.91e-4 -8.99e-4,-4.5e-4 0,-8.47e-4 -0.8094,0.07381 -0.6377,0.844778 -0.7966,1.561079 z"
       sodipodi:nodetypes="ccccccc" />
    <path
       sodipodi:nodetypes="cc"
       id="path12209"
       d="m -85.385299,59.3399 c 0,0.0046 -8.99e-4,0.01162 0,0.02049 v 0 c 0,0.0086 0,0.01351 0,0.02529 v 0 c 0,0.01709 0,0.04129 -0.01,0.07103 v 0 c -0.01,0.0626 -0.029,0.168109 -0.04,0.236681 v 0 c 0,0.0099 0.035,0.04832 0.033,0.05938 0,-0.01106 0.049,-0.03588 0.051,-0.04608 v 0 c 0.013,-0.08263 0.015,-0.179452 0,-0.250724 v 0 c -0.01,-0.03218 -0.013,-0.05515 -0.018,-0.07226 v 0 c 0,-0.0097 -0.01,-0.01744 -0.01,-0.02395 v 0 c 0,-0.0086 0,-0.01492 0,-0.01985 z"
       style="fill:url(#linearGradient12315);fill-opacity:1;fill-rule:nonzero;stroke:none;stroke-width:0.0770366px;stroke-linecap:butt;stroke-linejoin:miter;stroke-opacity:1" />
    <path
       sodipodi:nodetypes="ccc"
       id="path12215"
       d="m -81.908399,59.644513 c 0.7492,0.01698 0.6631,-0.892936 -0.038,-1.883049 -0.1824,0.767123 -0.7102,1.43194 0.038,1.883049 z"
       style="fill:#0c2a00;fill-opacity:1;stroke:none;stroke-width:0.0770366px;stroke-linecap:butt;stroke-linejoin:miter;stroke-opacity:1" />
    <path
       sodipodi:nodetypes="ccccccc"
       d="m -81.946199,57.761464 c 0.6258,0.883952 0.7227,1.696772 0.114,1.74748 0.036,-0.166502 0,-0.623331 -0.074,-0.832097 0.021,0.247958 0.056,0.722982 0,0.836866 -6.88e-4,-8e-6 0,-2e-5 0,9.2e-5 -0.696,-0.419754 -0.205,-1.038432 -0.035,-1.752233 z"
       style="fill:url(#linearGradient12309);fill-opacity:1;stroke:none;stroke-width:0.0770366px;stroke-linecap:butt;stroke-linejoin:miter;stroke-opacity:1"
       id="path12217" />
    <path
       style="fill:url(#linearGradient12311);fill-opacity:1;fill-rule:nonzero;stroke:none;stroke-width:0.0770366px;stroke-linecap:butt;stroke-linejoin:miter;stroke-opacity:1"
       d="m -82.043599,59.927587 c 0,-0.0044 0.01,-0.0094 0.013,-0.01589 v 0 c 0,-0.0049 0.011,-0.01056 0.018,-0.0178 v 0 c 0.013,-0.01279 0.029,-0.03033 0.048,-0.05695 v 0 c 0.042,-0.05895 0.083,-0.146739 0.1068,-0.226918 v 0 c 0,-0.0099 -0.028,-0.0527 -0.025,-0.06352 0,0.01083 -0.052,0.02967 -0.055,0.03925 v 0 c -0.02,0.06651 -0.047,0.170386 -0.067,0.230549 v 0 c -0.01,0.02864 -0.017,0.05154 -0.023,0.06786 v 0 c 0,0.01144 -0.01,0.01564 -0.01,0.0241 v 0 c 0,0.0085 -0.01,0.01521 -0.01,0.01932 z"
       id="path12219"
       sodipodi:nodetypes="cc" />
    <path
       style="fill:#0c2a00;fill-opacity:1;stroke:none;stroke-width:0.0575466px;stroke-linecap:butt;stroke-linejoin:miter;stroke-opacity:1"
       d="m -78.302299,60.662081 c 0.5164,-0.21607 0.7046,0.440223 0.4871,1.319917 -0.3361,-0.483775 -0.8844,-0.802241 -0.4871,-1.319917 z"
       id="path12225"
       sodipodi:nodetypes="ccc" />
    <path
       id="path12227"
       style="fill:url(#linearGradient12305);fill-opacity:1;stroke:none;stroke-width:0.0575466px;stroke-linecap:butt;stroke-linejoin:miter;stroke-opacity:1"
       d="m -77.815199,61.981998 c 0.1942,-0.785372 0.04,-1.377092 -0.3972,-1.246393 0.071,0.105946 0.1673,0.434544 0.1753,0.598922 -0.053,-0.178292 -0.1582,-0.518075 -0.2301,-0.581256 -5.03e-4,1.88e-4 -7.94e-4,3.18e-4 0,3.97e-4 -0.3696,0.481694 0.1406,0.77809 0.4533,1.228237 z"
       sodipodi:nodetypes="ccccccc" />
    <path
       sodipodi:nodetypes="cc"
       id="path12229"
       d="m -78.473599,60.502092 c 0,0.0023 0.01,0.0064 0.01,0.01148 v 0 c 0,0.0046 0.01,0.0081 0.012,0.01451 v 0 c 0.01,0.0098 0.02,0.02364 0.034,0.04098 v 0 c 0.03,0.03658 0.078,0.101297 0.1096,0.14209 v 0 c 0,0.0059 0.044,0.0055 0.049,0.01223 -0.01,-0.0067 0.01,-0.04505 3.97e-4,-0.05112 v 0 c -0.039,-0.04924 -0.091,-0.0991 -0.1364,-0.128708 v 0 c -0.02,-0.01335 -0.037,-0.02107 -0.049,-0.02645 v 0 c -0.01,-0.003 -0.013,-0.0053 -0.017,-0.0074 v 0 c -0.01,-0.0028 -0.01,-0.0051 -0.013,-0.0076 z"
       style="fill:url(#linearGradient12307);fill-opacity:1;fill-rule:nonzero;stroke:none;stroke-width:0.0575466px;stroke-linecap:butt;stroke-linejoin:miter;stroke-opacity:1" />
    <path
       sodipodi:nodetypes="ccc"
       id="path12235"
       d="m -75.731199,58.250132 c -0.516401,0.21607 -0.704599,-0.440223 -0.487101,-1.319917 0.336101,0.483775 0.884402,0.802241 0.487101,1.319917 z"
       style="fill:#0c2a00;fill-opacity:1;stroke:none;stroke-width:0.0575466px;stroke-linecap:butt;stroke-linejoin:miter;stroke-opacity:1" />
    <path
       sodipodi:nodetypes="ccccccc"
       d="m -76.2183,56.930215 c -0.194199,0.785372 -0.04,1.377092 0.397201,1.246393 -0.071,-0.105946 -0.167299,-0.434544 -0.1753,-0.598922 0.053,0.178292 0.1582,0.518075 0.2301,0.581256 5.29e-4,-1.88e-4 7.94e-4,-3.04e-4 0,-4.07e-4 0.369599,-0.481694 -0.140599,-0.77809 -0.4533,-1.228237 z"
       style="fill:url(#linearGradient12301);fill-opacity:1;stroke:none;stroke-width:0.0575466px;stroke-linecap:butt;stroke-linejoin:miter;stroke-opacity:1"
       id="path12237" />
    <path
       style="fill:url(#linearGradient12303);fill-opacity:1;fill-rule:nonzero;stroke:none;stroke-width:0.0575466px;stroke-linecap:butt;stroke-linejoin:miter;stroke-opacity:1"
       d="m -75.5599,58.410121 c 0,-0.0023 -0.01,-0.0064 -0.01,-0.01149 v 0 c 0,-0.0046 -0.01,-0.0081 -0.01201,-0.01451 v 0 c -0.01,-0.0098 -0.02,-0.02364 -0.034,-0.04098 v 0 c -0.03,-0.03658 -0.077,-0.101297 -0.109601,-0.14209 v 0 c 0,-0.0059 -0.044,-0.0055 -0.049,-0.01223 0.01,0.0067 -0.01,0.04505 -5.3e-4,0.05112 v 0 c 0.039,0.04924 0.091,0.09909 0.136398,0.128708 v 0 c 0.02,0.01335 0.037,0.02107 0.049,0.02645 v 0 c 0.01,0.003 0.01299,0.0053 0.01701,0.0074 v 0 c 0.01,0.0028 0.01,0.0051 0.01299,0.0076 z"
       id="path12239"
       sodipodi:nodetypes="cc" />
    <path
       style="fill:#0c2a00;fill-opacity:1;stroke:none;stroke-width:0.0575466px;stroke-linecap:butt;stroke-linejoin:miter;stroke-opacity:1"
       d="m -75.375297,58.250132 c 0.516397,0.21607 0.704598,-0.440223 0.487097,-1.319917 -0.3361,0.483775 -0.884398,0.802241 -0.487097,1.319917 z"
       id="path12245"
       sodipodi:nodetypes="ccc" />
    <path
       id="path12247"
       style="fill:url(#linearGradient12297);fill-opacity:1;stroke:none;stroke-width:0.0575466px;stroke-linecap:butt;stroke-linejoin:miter;stroke-opacity:1"
       d="m -74.8882,56.930215 c 0.194202,0.785372 0.04,1.377092 -0.3972,1.246393 0.071,-0.105946 0.167301,-0.434544 0.175302,-0.598922 -0.053,0.178292 -0.158202,0.518075 -0.2301,0.581256 -5.29e-4,-1.88e-4 -7.94e-4,-3.04e-4 0,-4.07e-4 -0.369602,-0.481694 0.1406,-0.77809 0.4533,-1.228237 z"
       sodipodi:nodetypes="ccccccc" />
    <path
       sodipodi:nodetypes="cc"
       id="path12249"
       d="m -75.546599,58.410121 c 0,-0.0025 0.01,-0.0048 0.01299,-0.0076 v 0 c 0,-0.0021 0.01,-0.0044 0.01701,-0.0074 v 0 c 0.01199,-0.0054 0.029,-0.0131 0.049,-0.02645 v 0 c 0.045,-0.02961 0.098,-0.07947 0.1364,-0.128708 v 0 c 0,-0.0061 -0.01,-0.04442 -5.29e-4,-0.05112 -0.01,0.0067 -0.044,0.0064 -0.049,0.01223 v 0 c -0.032,0.04079 -0.08,0.105513 -0.109598,0.14209 v 0 c -0.014,0.01735 -0.02601,0.03123 -0.034,0.04098 v 0 c -0.01,0.0064 -0.01,0.0099 -0.01198,0.01451 v 0 c 0,0.0051 -0.01,0.0092 -0.01,0.01149 z"
       style="fill:url(#linearGradient12299);fill-opacity:1;fill-rule:nonzero;stroke:none;stroke-width:0.0575466px;stroke-linecap:butt;stroke-linejoin:miter;stroke-opacity:1" />
    <path
       sodipodi:nodetypes="ccc"
       id="path12255"
       d="m -71.747098,59.727171 c 0.421399,0.125585 0.209299,0.618153 -0.360601,1.044672 0.037,-0.461247 -0.1384,-0.927624 0.360601,-1.044672 z"
       style="fill:#0c2a00;fill-opacity:1;stroke:none;stroke-width:0.045203px;stroke-linecap:butt;stroke-linejoin:miter;stroke-opacity:1" />
    <path
       sodipodi:nodetypes="ccccccc"
       d="m -72.107699,60.771843 c 0.508799,-0.380788 0.709499,-0.81719 0.378701,-0.955243 -0.01,0.09949 -0.114501,0.347382 -0.191399,0.451268 0.057,-0.134593 0.161599,-0.393618 0.149299,-0.467805 -5.29e-4,-1.17e-4 -5.29e-4,-1.81e-4 -0.0011,-3.7e-4 -0.464301,0.108912 -0.301601,0.542901 -0.335499,0.972087 z"
       style="fill:url(#linearGradient12293);fill-opacity:1;stroke:none;stroke-width:0.045203px;stroke-linecap:butt;stroke-linejoin:miter;stroke-opacity:1"
       id="path12257" />
    <path
       style="fill:url(#linearGradient12295);fill-opacity:1;fill-rule:nonzero;stroke:none;stroke-width:0.045203px;stroke-linecap:butt;stroke-linejoin:miter;stroke-opacity:1"
       d="m -71.771598,59.544718 c 0,0.0028 -5.3e-4,0.0066 -7.94e-4,0.01196 v 0 c -1.99e-4,0.0042 -2.65e-4,0.0088 -1.99e-4,0.01499 v 0 c 0,0.01051 5.3e-4,0.02432 7.94e-4,0.0423 v 0 c 2.65e-4,0.01972 2.65e-4,0.04037 -5.29e-4,0.06712 v 0 c -7.94e-4,0.02558 0,0.0531 0,0.07352 v 0 c -1.01e-4,0.0059 0.024,0.02523 0.024,0.03182 2.64e-4,-0.0066 0.025,-0.02485 0.02601,-0.03093 v 0 c 2.65e-4,-0.02184 0,-0.04964 0,-0.07684 v 0 c 0,-0.02729 -0.01,-0.05019 -0.01601,-0.06928 v 0 c -0.01,-0.01813 -0.01199,-0.03088 -0.01701,-0.0402 v 0 c 0,-0.0055 0,-0.0094 -0.01,-0.01317 v 0 c 0,-0.0048 0,-0.0084 0,-0.01128 z"
       id="path12259"
       sodipodi:nodetypes="cc" />
    <path
       style="fill:#0c2a00;fill-opacity:1;stroke:none;stroke-width:0.0413618px;stroke-linecap:butt;stroke-linejoin:miter;stroke-opacity:1"
       d="m -68.602798,59.579635 c 0.385599,-0.114913 0.191501,-0.565622 -0.330001,-0.955895 0.033,0.42205 -0.126601,0.848794 0.330001,0.955895 z"
       id="path12265"
       sodipodi:nodetypes="ccc" />
    <path
       id="path12267"
       style="fill:url(#linearGradient12289);fill-opacity:1;stroke:none;stroke-width:0.0413618px;stroke-linecap:butt;stroke-linejoin:miter;stroke-opacity:1"
       d="m -68.932799,58.62374 c 0.4656,0.348428 0.6492,0.747745 0.346501,0.874065 -0.01,-0.09103 -0.104802,-0.31786 -0.175202,-0.412919 0.052,0.123156 0.147902,0.360169 0.136702,0.428051 -5.29e-4,1.07e-4 -5.29e-4,1.66e-4 -7.93e-4,3.44e-4 -0.4249,-0.09966 -0.275998,-0.496764 -0.306999,-0.889478 z"
       sodipodi:nodetypes="ccccccc" />
    <path
       sodipodi:nodetypes="cc"
       id="path12269"
       d="m -68.625298,59.746583 c 0,-0.0026 7.94e-4,-0.0059 0,-0.01033 v 0 c 0,-0.0035 0,-0.0071 0.01,-0.01207 v 0 c 0,-0.0085 0.01,-0.02021 0.015,-0.03679 v 0 c 0.01201,-0.03729 0.019,-0.08816 0.019,-0.133622 v 0 c -10e-5,-0.0056 -0.02299,-0.02232 -0.02299,-0.02835 1.99e-4,0.006 -0.02199,0.02372 -0.02199,0.02907 v 0 c 5.29e-4,0.03719 0,0.09469 0,0.12877 v 0 c -2.01e-4,0.01646 -5.29e-4,0.02909 -5.29e-4,0.03869 v 0 c 0,0.0056 1.01e-4,0.0098 2.65e-4,0.0137 v 0 c 2.64e-4,0.0049 7.93e-4,0.0084 7.93e-4,0.01093 z"
       style="fill:url(#linearGradient12291);fill-opacity:1;fill-rule:nonzero;stroke:none;stroke-width:0.0413618px;stroke-linecap:butt;stroke-linejoin:miter;stroke-opacity:1" />
    <path
       sodipodi:nodetypes="ccc"
       id="path12275"
       d="m -65.417598,59.549716 c 0.272899,-0.09897 0.353899,0.245624 0.219199,0.695763 -0.161901,-0.258952 -0.437901,-0.437607 -0.219199,-0.695763 z"
       style="fill:#0c2a00;fill-opacity:1;stroke:none;stroke-width:0.0298376px;stroke-linecap:butt;stroke-linejoin:miter;stroke-opacity:1" />
    <path
       sodipodi:nodetypes="ccccccc"
       d="m -65.198399,60.245479 c 0.120301,-0.401874 0.055,-0.71218 -0.1745,-0.655435 0.034,0.05663 0.076,0.229234 0.076,0.314563 -0.02299,-0.09365 -0.069,-0.272265 -0.1046,-0.306786 -2.01e-4,8.6e-5 -5.29e-4,1.39e-4 -5.29e-4,1.8e-4 -0.203499,0.240212 0.053,0.406483 0.203901,0.647435 z"
       style="fill:url(#linearGradient12285);fill-opacity:1;stroke:none;stroke-width:0.0298376px;stroke-linecap:butt;stroke-linejoin:miter;stroke-opacity:1"
       id="path12277" />
    <path
       style="fill:url(#linearGradient12287);fill-opacity:1;fill-rule:nonzero;stroke:none;stroke-width:0.0298376px;stroke-linecap:butt;stroke-linejoin:miter;stroke-opacity:1"
       d="m -65.502299,59.462573 c 0,0.0013 0,0.0035 0.01,0.0062 v 0 c 0,0.0021 0,0.0047 0.01,0.0078 v 0 c 0,0.0053 0.01,0.01266 0.01699,0.02207 v 0 c 0.014,0.01968 0.037,0.05438 0.053,0.07632 v 0 c 0,0.0032 0.02299,0.004 0.025,0.0076 0,-0.0036 0,-0.02318 0,-0.02645 v 0 c -0.019,-0.02643 -0.045,-0.05362 -0.067,-0.07007 v 0 c -0.01,-0.0074 -0.01799,-0.01184 -0.025,-0.01495 v 0 c 0,-0.0018 -0.01,-0.0031 -0.01,-0.0043 v 0 c 0,-0.0016 -0.01,-0.0029 -0.01,-0.0043 z"
       id="path12279"
       sodipodi:nodetypes="cc" />
  </g>
</svg>
