<?xml version="1.0" encoding="UTF-8" standalone="no"?>
<svg
   xmlns:dc="http://purl.org/dc/elements/1.1/"
   xmlns:cc="http://creativecommons.org/ns#"
   xmlns:rdf="http://www.w3.org/1999/02/22-rdf-syntax-ns#"
   xmlns:svg="http://www.w3.org/2000/svg"
   xmlns="http://www.w3.org/2000/svg"
   xmlns:sodipodi="http://sodipodi.sourceforge.net/DTD/sodipodi-0.dtd"
   xmlns:inkscape="http://www.inkscape.org/namespaces/inkscape"
   sodipodi:docname="01_padlock.svg"
   inkscape:version="1.0 (4035a4fb49, 2020-05-01)"
   id="svg14473"
   version="1.1"
   viewBox="0 0 9.5249996 9.5249996"
   height="9.5249996mm"
   width="9.5249996mm">
  <defs
     id="defs14467" />
  <sodipodi:namedview
     inkscape:window-maximized="1"
     inkscape:window-y="-8"
     inkscape:window-x="-8"
     inkscape:window-height="705"
     inkscape:window-width="1366"
     fit-margin-bottom="0"
     fit-margin-right="0"
     fit-margin-left="0"
     fit-margin-top="0"
     showgrid="false"
     inkscape:document-rotation="0"
     inkscape:current-layer="layer1"
     inkscape:document-units="mm"
     inkscape:cy="27.039059"
     inkscape:cx="8.1880178"
     inkscape:zoom="7.593161"
     inkscape:pageshadow="2"
     inkscape:pageopacity="0.0"
     borderopacity="1.0"
     bordercolor="#666666"
     pagecolor="#ffffff"
     id="base" />
  <metadata
     id="metadata14470">
    <rdf:RDF>
      <cc:Work
         rdf:about="">
        <dc:format>image/svg+xml</dc:format>
        <dc:type
           rdf:resource="http://purl.org/dc/dcmitype/StillImage" />
        <dc:title></dc:title>
      </cc:Work>
    </rdf:RDF>
  </metadata>
  <g
     transform="translate(-97.368057,-120.81871)"
     id="layer1"
     inkscape:groupmode="layer"
     inkscape:label="Layer 1">
    <path
       id="path15057"
       style="fill:#d2c7c3;fill-opacity:1;stroke:none;stroke-width:0.264583px;stroke-linecap:butt;stroke-linejoin:miter;stroke-opacity:1"
       d="m 102.13078,121.06302 -0.69813,0.33485 -0.87386,0.27028 -0.890906,1.51204 0.0822,1.08984 -0.0217,0.33951 -0.0941,0.006 -0.64339,0.2925 -0.42476,0.74311 0.0796,1.4061 -0.1416,0.39015 0.0357,1.3343 0.15915,0.6904 0.47749,0.37156 0.928636,0.15914 1.6242,0.0966 1.86137,-0.20929 0.81288,0.19225 0.92913,-0.23873 0.37103,-0.58397 -0.063,-0.86299 0.0806,-0.90175 -0.12351,-0.33126 0.15917,-1.40663 -0.31832,-0.79581 -0.78549,-0.3452 h -0.0238 l 0.0134,-1.05162 -0.39119,-1.36734 -1.00563,-0.79634 z m 0.0351,0.97821 1.13121,0.4563 0.25942,0.35452 0.22479,1.1131 -0.10697,0.48678 0.006,0.15402 -1.98281,-0.12248 -1.12502,0.0723 -0.0589,-0.7493 0.22999,-0.8227 0.44804,-0.5674 z m -0.0207,4.35272 0.22223,0.0734 0.13901,0.0661 0.10644,0.19897 0.0263,0.23873 -0.0729,0.23876 -0.10904,0.0811 -0.0372,0.52917 0.0532,0.2191 -0.016,0.19638 -0.3819,-0.0176 -0.24286,0.0176 0.0372,-0.66093 -0.0372,-0.28319 -0.16846,-0.22738 -0.0264,-0.29869 0.17262,-0.29197 z"
       inkscape:export-filename="D:\Calcatz\Icon Pack\Adventure Narrative Inspired by Jumanji\Assets\PNG\Icons\01_padlock.png"
       inkscape:export-xdpi="96"
       inkscape:export-ydpi="96" />
  </g>
</svg>
