<?xml version="1.0" encoding="UTF-8" standalone="no"?>
<svg
   xmlns:dc="http://purl.org/dc/elements/1.1/"
   xmlns:cc="http://creativecommons.org/ns#"
   xmlns:rdf="http://www.w3.org/1999/02/22-rdf-syntax-ns#"
   xmlns:svg="http://www.w3.org/2000/svg"
   xmlns="http://www.w3.org/2000/svg"
   xmlns:sodipodi="http://sodipodi.sourceforge.net/DTD/sodipodi-0.dtd"
   xmlns:inkscape="http://www.inkscape.org/namespaces/inkscape"
   sodipodi:docname="02_create_new_save.svg"
   inkscape:version="1.0 (4035a4fb49, 2020-05-01)"
   id="svg15083"
   version="1.1"
   viewBox="0 0 7.8424001 7.9690499"
   height="7.9690499mm"
   width="7.8424001mm">
  <defs
     id="defs15077" />
  <sodipodi:namedview
     inkscape:window-maximized="1"
     inkscape:window-y="-8"
     inkscape:window-x="-8"
     inkscape:window-height="705"
     inkscape:window-width="1366"
     fit-margin-bottom="0"
     fit-margin-right="0"
     fit-margin-left="0"
     fit-margin-top="0"
     showgrid="false"
     inkscape:document-rotation="0"
     inkscape:current-layer="layer1"
     inkscape:document-units="mm"
     inkscape:cy="28.412302"
     inkscape:cx="49.738051"
     inkscape:zoom="5.3691756"
     inkscape:pageshadow="2"
     inkscape:pageopacity="0.0"
     borderopacity="1.0"
     bordercolor="#666666"
     pagecolor="#ffffff"
     id="base" />
  <metadata
     id="metadata15080">
    <rdf:RDF>
      <cc:Work
         rdf:about="">
        <dc:format>image/svg+xml</dc:format>
        <dc:type
           rdf:resource="http://purl.org/dc/dcmitype/StillImage" />
        <dc:title></dc:title>
      </cc:Work>
    </rdf:RDF>
  </metadata>
  <g
     transform="translate(-101.73127,-128.47528)"
     id="layer1"
     inkscape:groupmode="layer"
     inkscape:label="Layer 1">
    <path
       id="path24306"
       style="font-style:normal;font-variant:normal;font-weight:normal;font-stretch:normal;font-size:31.75px;line-height:1.05;font-family:THEME;-inkscape-font-specification:THEME;text-align:center;text-anchor:middle;fill:#3d3f48;fill-opacity:1;stroke-width:1.26827;stroke-linecap:square;paint-order:fill markers stroke"
       d="m 101.98527,132.66628 q -0.0635,-0.0635 -0.127,-0.0952 -0.0317,-0.0635 -0.0635,-0.15875 -0.0317,-0.0635 -0.0635,-0.127 0,-0.0635 0.0635,-0.127 0,0 0,-0.15875 0,-0.0317 0.0953,-0.0953 0.15875,-0.0635 0.0953,-0.22225 -0.0635,-0.0953 -0.0635,-0.0953 0.0317,-0.0317 0.15875,-0.127 0.0635,-0.0635 0.15875,-0.0952 0.127,-0.0635 0.1905,-0.127 0.0952,-0.0317 0.1905,0 0.0952,0 0.1905,0 h 1.49225 q 0.0635,-0.0635 0.0635,-0.127 0,-0.0953 0,-0.15875 v -1.143 -0.41275 q 0.15875,-0.0635 0.127,-0.15875 -0.0317,-0.127 0.0317,-0.22225 0.0318,-0.0317 0.0318,-0.0635 0,-0.0317 0.0317,-0.0635 0.0317,-0.15875 0.22225,-0.0317 0.0317,0.0317 0.0635,0.0317 0.127,-0.0952 0.15875,-0.0952 0.0317,0 0.127,0.0952 0.0635,0.0318 0.0635,0.0635 0.0317,0.0317 0.0953,0.0317 0.0635,-0.0635 0.0317,-0.15875 0,-0.127 0,-0.1905 0.0635,-0.0635 0.127,-0.0635 0.0952,-0.0317 0.15875,-0.0952 0.0635,0 0.0635,0.0635 v 0.28575 q 0,0.15875 0.0953,0.0635 0.0635,-0.0317 0.127,-0.0317 0.0635,-0.0317 0.127,-0.0635 0.0635,-0.0317 0.0635,-0.0635 0,-0.0317 0.0317,-0.0952 0,-0.0635 0.127,-0.0635 0.0952,0 0.0952,0.0635 -0.0317,0.0952 0.0318,0.1905 0.0952,0.0635 0.0952,0.1905 -0.0317,0.53975 -0.0317,1.04775 0,0.47625 0,1.016 0.0635,0.0635 0.0953,0.0952 0.0317,0 0.0635,0.0635 h 2.44475 q 0.0953,0.0635 0.15875,0.15875 0.0635,0.0952 0.1905,0.0635 0.0635,0.0953 0.0953,0.1905 0.0317,0.0635 0.0635,0.127 0,0.0635 -0.0317,0.0953 0,0.0317 -0.0635,0.0317 h -0.508 q -0.0635,0.0953 0.0318,0.0953 0.127,0.0317 0.22225,0 0.127,-0.0317 0.254,0.0317 v 0.22225 q 0,0.0953 -0.0635,0.0953 -0.15875,-0.0317 -0.15875,0.0635 0,0.0953 0,0.1905 0,0.0635 0.0318,0.0635 0.0635,0 0.127,0.0317 0.0635,0.0635 0.0318,0.15875 0,0.0635 0.0317,0.127 0,0.0317 -0.0317,0.0635 0,0 0,0.0317 l -0.0318,0.0317 q -0.127,0 -0.22225,0.0953 -0.0635,0.0952 -0.1905,0.0317 h -2.0955 -0.381 q -0.0635,0.0635 -0.0635,0.15875 0.0317,0.0635 0,0.127 v 0.22225 q 0,0.28575 0,0.5715 0.0317,0.28575 0,0.5715 0,0.127 0,0.254 0.0317,0.0953 -0.0635,0.22225 -0.0635,0.0952 -0.0953,0.22225 0,0.127 -0.0635,0.22225 -0.0635,0.15875 -0.22225,0.0317 l -0.0635,-0.0635 q -0.0635,0.127 -0.0635,0.254 0.0317,0.127 -0.15875,0.1905 -0.0635,-0.0952 -0.0317,-0.1905 0.0317,-0.127 -0.0635,-0.254 -0.127,0.127 -0.15875,0.1905 -0.0318,0.0635 -0.0318,0.127 0,0.0317 -0.0952,0.0317 -0.0635,0 -0.127,0.0635 -0.0317,0.0317 -0.0953,0.0317 -0.0952,0.0318 -0.1905,0.0318 -0.0953,-0.0318 -0.1905,-0.0318 -0.0635,0.0953 -0.1905,0.22225 -0.1905,-0.0953 -0.1905,-0.28575 0,-0.0953 -0.0317,-0.1905 0,-0.127 0.0317,-0.254 0.0317,-0.0952 -0.0635,-0.127 -0.0635,-0.0635 -0.0635,-0.15875 0.0318,-0.127 0,-0.22225 -0.0317,-0.127 0.0953,-0.22225 0.0317,-0.0317 0.0317,-0.127 v -1.36525 q 0,-0.254 -0.254,-0.254 h -0.60325 -0.34925 q -0.1905,0 -0.28575,-0.0953 -0.0635,-0.0317 -0.15875,0 -0.0952,0 -0.15875,-0.0317 -0.0952,-0.0317 -0.1905,-0.0635 -0.0635,-0.0635 -0.15875,-0.0318 -0.0635,0 -0.0635,-0.127 0,-0.0953 0.0952,-0.0953 0.0953,0 0.0953,-0.0635 0,0.0317 -0.0953,-0.0635 h -0.0952 z" />
  </g>
</svg>
