<?xml version="1.0" encoding="UTF-8" standalone="no"?>
<svg
   xmlns:dc="http://purl.org/dc/elements/1.1/"
   xmlns:cc="http://creativecommons.org/ns#"
   xmlns:rdf="http://www.w3.org/1999/02/22-rdf-syntax-ns#"
   xmlns:svg="http://www.w3.org/2000/svg"
   xmlns="http://www.w3.org/2000/svg"
   xmlns:sodipodi="http://sodipodi.sourceforge.net/DTD/sodipodi-0.dtd"
   xmlns:inkscape="http://www.inkscape.org/namespaces/inkscape"
   sodipodi:docname="07_mouse_middle_click_1.svg"
   inkscape:version="1.0 (4035a4fb49, 2020-05-01)"
   id="svg11506"
   version="1.1"
   viewBox="0 0 9.5249996 9.5249901"
   height="9.5249901mm"
   width="9.5249996mm">
  <defs
     id="defs11500" />
  <sodipodi:namedview
     inkscape:window-maximized="1"
     inkscape:window-y="-8"
     inkscape:window-x="-8"
     inkscape:window-height="705"
     inkscape:window-width="1366"
     fit-margin-bottom="0"
     fit-margin-right="0"
     fit-margin-left="0"
     fit-margin-top="0"
     showgrid="false"
     inkscape:document-rotation="0"
     inkscape:current-layer="layer1"
     inkscape:document-units="mm"
     inkscape:cy="13.98886"
     inkscape:cx="9.0317438"
     inkscape:zoom="5.3691756"
     inkscape:pageshadow="2"
     inkscape:pageopacity="0.0"
     borderopacity="1.0"
     bordercolor="#666666"
     pagecolor="#ffffff"
     id="base" />
  <metadata
     id="metadata11503">
    <rdf:RDF>
      <cc:Work
         rdf:about="">
        <dc:format>image/svg+xml</dc:format>
        <dc:type
           rdf:resource="http://purl.org/dc/dcmitype/StillImage" />
        <dc:title></dc:title>
      </cc:Work>
    </rdf:RDF>
  </metadata>
  <g
     transform="translate(-46.486832,-163.96608)"
     id="layer1"
     inkscape:groupmode="layer"
     inkscape:label="Layer 1">
    <path
       sodipodi:nodetypes="cccccccccccccccc"
       id="path25230"
       d="m 53.380233,166.46263 c 0,0 -10e-5,-0.002 -10e-5,-0.002 -0.088,-0.41722 -0.1312,-0.70726 -0.1594,-0.93496 -0.2429,-0.20903 -0.3787,-0.36215 -0.678301,-0.61174 0.310201,0.19538 0.536301,0.30537 0.8465,0.50075 0.076,0.22635 0.170501,0.5353 0.286,1.00315 0,0 2e-4,0.002 2e-4,0.002 l 0.084,1.35047 -0.2606,1.48989 v 0 l -0.197199,1.86321 v 0 l -0.5033,0.87613 -0.6189,0.49812 -0.658701,0.0182 -0.3899,0.0108 -0.6032,0.0166 -0.9565,-0.58957 -0.4621,-1.289 v -1e-5 l -0.1389,-1.55445 -0.2294,-1.10003 0.03,-1.43079 c 0,-0.13347 0.01,-0.25362 0.011,-0.36247 0.2343,-0.47628 0.3847,-0.71702 0.5254,-0.94377 0,0 0,0 0,0 0.1618,-0.0752 0.3222,-0.14749 0.519,-0.24807 -0.1849,0.12784 -0.3123,0.2282 -0.434299,0.32382 -0.079,0.25363 -0.153001,0.50375 -0.3324,0.93121 7.99e-4,0.10429 3.99e-4,0.21869 0,0.3454 l -0.021,1.35671 0.2288,1.08415 0.133899,1.53625 v 0 l 0.390901,1.17453 0.811499,0.48905 0.5401,-0.0121 0.349,-0.008 0.589501,-0.0132 0.4933,-0.42338 0.449899,-0.77625 v 0 l 0.179401,-1.81445 v -1e-5 l 0.2602,-1.4653 z"
       style="fill:#c9bfb9;fill-opacity:1;stroke:none;stroke-width:0.127305;stroke-linecap:butt;stroke-linejoin:miter;stroke-miterlimit:4;stroke-dasharray:none;stroke-opacity:1" />
    <path
       id="path25232"
       d="m 49.363432,168.68809 c -0.2874,-0.0278 -0.3198,-0.0971 -0.4826,-0.13912 0.1677,-0.0113 0.2178,-0.0711 0.4952,-0.044 l 0.8484,0.0828 0.9061,-0.0544 0.093,-0.006 0.588701,-0.0353 1.1629,0.0952 v 0 l 0.011,7e-5 c 0.278199,0.002 0.3217,0.0663 0.4873,0.0947 -0.1663,0.0251 -0.206,0.0907 -0.495201,0.0889 l -0.011,-7e-5 v 0 l -1.1569,-0.0954 -0.589199,0.0353 -0.093,0.006 -0.9069,0.0543 z"
       style="fill:#c9bfb9;fill-opacity:1;stroke:none;stroke-width:0.127105px;stroke-linecap:butt;stroke-linejoin:miter;stroke-opacity:1"
       sodipodi:nodetypes="ccccc" />
    <path
       sodipodi:nodetypes="cccc"
       id="path25234"
       d="m 51.136033,165.03415 c 0,-0.0391 0.049,-0.0483 0.068,-0.0726 0.024,0.0209 0.075,0.023 0.078,0.0611 l 0.019,0.24027 8.99e-4,0.0127 0.019,0.24025 c 0,0.0381 -0.048,0.0483 -0.068,0.0726 -0.022,-0.021 -0.075,-0.0221 -0.078,-0.0612 l -0.019,-0.24025 -8.99e-4,-0.0127 z m 0.038,2.88079 c 0,-0.051 0.056,-0.0544 0.079,-0.0825 0.02,0.0308 0.071,0.0421 0.068,0.0918 l -0.02,0.31325 v 0.0166 l -0.02,0.31323 c 0,0.0497 -0.055,0.0545 -0.079,0.0825 -0.019,-0.0308 -0.071,-0.0409 -0.068,-0.0918 l 0.02,-0.31322 v -0.0166 z"
       style="fill:#c9bfb9;fill-opacity:1;stroke:none;stroke-width:0.127105px;stroke-linecap:butt;stroke-linejoin:miter;stroke-opacity:1" />
    <path
       sodipodi:nodetypes="cccccccccccc"
       id="path25236"
       d="m 51.550833,166.1413 c 0.01,-0.10964 0.021,-0.18724 0.034,-0.24949 -0.048,-0.0825 -0.061,-0.13842 -0.120101,-0.2371 0.079,0.0816 0.1379,0.12115 0.2187,0.20732 0.01,0.0604 0.01,0.13916 0,0.25456 l -0.026,0.48012 0.023,0.50298 v 0 l -0.043,0.52139 -0.2268,0.26712 -0.1614,0.008 -0.1174,0.006 -0.1081,0.005 -0.2714,-0.27875 v 0 l -0.051,-0.59565 0.076,-0.7049 -0.025,-0.20571 c -0.011,-0.0931 -0.016,-0.16332 -0.017,-0.21827 0.093,-0.11088 0.155101,-0.15077 0.2413,-0.24382 -0.063,0.11138 -0.071,0.1688 -0.132699,0.27074 0.015,0.0536 0.03,0.11961 0.044,0.20541 l 0.032,0.18907 -0.076,0.70996 0.031,0.53859 v 0 l 0.196199,0.21237 0.078,-0.004 0.085,-0.005 0.1167,-0.007 0.159,-0.2006 0.027,-0.47253 v 0 l -0.023,-0.50262 z"
       style="fill:#c9bfb9;fill-opacity:1;stroke:none;stroke-width:0.264583;stroke-linecap:butt;stroke-linejoin:miter;stroke-miterlimit:4;stroke-dasharray:none;stroke-opacity:1" />
    <path
       id="path25238"
       d="m 51.320932,165.51587 -0.344199,0.14423 -0.1327,0.27074 0.076,0.39448 -0.076,0.70996 0.031,0.53859 0.1963,0.21237 0.2797,-0.015 0.159,-0.2006 0.027,-0.47253 -0.023,-0.50262 0.037,-0.45424 0.034,-0.24943 -0.120201,-0.23711 z"
       style="fill:#e2d7d0;fill-opacity:0.5;stroke:none;stroke-width:0.264583px;stroke-linecap:butt;stroke-linejoin:miter;stroke-opacity:1" />
  </g>
</svg>
