<?xml version="1.0" encoding="UTF-8" standalone="no"?>
<svg
   xmlns:dc="http://purl.org/dc/elements/1.1/"
   xmlns:cc="http://creativecommons.org/ns#"
   xmlns:rdf="http://www.w3.org/1999/02/22-rdf-syntax-ns#"
   xmlns:svg="http://www.w3.org/2000/svg"
   xmlns="http://www.w3.org/2000/svg"
   xmlns:sodipodi="http://sodipodi.sourceforge.net/DTD/sodipodi-0.dtd"
   xmlns:inkscape="http://www.inkscape.org/namespaces/inkscape"
   sodipodi:docname="08_mouse_middle_click_2.svg"
   inkscape:version="1.0 (4035a4fb49, 2020-05-01)"
   id="svg12105"
   version="1.1"
   viewBox="0 0 9.5249996 9.5249996"
   height="9.5249996mm"
   width="9.5249996mm">
  <defs
     id="defs12099" />
  <sodipodi:namedview
     inkscape:window-maximized="1"
     inkscape:window-y="-8"
     inkscape:window-x="-8"
     inkscape:window-height="705"
     inkscape:window-width="1366"
     fit-margin-bottom="0"
     fit-margin-right="0"
     fit-margin-left="0"
     fit-margin-top="0"
     showgrid="false"
     inkscape:document-rotation="0"
     inkscape:current-layer="layer1"
     inkscape:document-units="mm"
     inkscape:cy="24.000991"
     inkscape:cx="10.547542"
     inkscape:zoom="7.593161"
     inkscape:pageshadow="2"
     inkscape:pageopacity="0.0"
     borderopacity="1.0"
     bordercolor="#666666"
     pagecolor="#ffffff"
     id="base" />
  <metadata
     id="metadata12102">
    <rdf:RDF>
      <cc:Work
         rdf:about="">
        <dc:format>image/svg+xml</dc:format>
        <dc:type
           rdf:resource="http://purl.org/dc/dcmitype/StillImage" />
        <dc:title></dc:title>
      </cc:Work>
    </rdf:RDF>
  </metadata>
  <g
     transform="translate(-112.71674,-178.94665)"
     id="layer1"
     inkscape:groupmode="layer"
     inkscape:label="Layer 1">
    <path
       style="fill:#c9bfb9;fill-opacity:1;stroke:none;stroke-width:0.127305;stroke-linecap:butt;stroke-linejoin:miter;stroke-miterlimit:4;stroke-dasharray:none;stroke-opacity:1"
       d="m 119.61014,181.4432 c 0,0 -1e-4,-0.002 -1e-4,-0.002 -0.088,-0.41722 -0.1312,-0.70726 -0.1594,-0.93496 -0.2429,-0.20903 -0.3787,-0.36215 -0.6783,-0.61174 0.3102,0.19538 0.5363,0.30537 0.8465,0.50075 0.076,0.22635 0.1705,0.5353 0.286,1.00315 0,0 2e-4,0.002 2e-4,0.002 l 0.084,1.35047 -0.2606,1.48989 v 0 l -0.1972,1.86321 v 0 l -0.5033,0.87613 -0.6189,0.49812 -0.6587,0.0182 -0.3899,0.0107 -0.6032,0.0166 -0.9565,-0.58957 -0.4621,-1.289 v -1e-5 l -0.1389,-1.55445 -0.2294,-1.10003 0.03,-1.43079 c 0,-0.13347 0.01,-0.25362 0.011,-0.36247 0.2343,-0.47628 0.3847,-0.71702 0.5254,-0.94377 0,0 0,0 0,0 0.1618,-0.0752 0.3222,-0.14749 0.519,-0.24807 -0.1849,0.12784 -0.3123,0.2282 -0.4343,0.32382 -0.079,0.25363 -0.153,0.50375 -0.3324,0.93121 8e-4,0.10429 4e-4,0.21869 0,0.3454 l -0.021,1.35671 0.2288,1.08415 0.1339,1.53625 v 0 l 0.3909,1.17453 0.8115,0.48905 0.5401,-0.0121 0.349,-0.008 0.5895,-0.0132 0.4933,-0.42338 0.4499,-0.77625 v 0 l 0.1794,-1.81445 v -1e-5 l 0.2602,-1.4653 z"
       id="path25020"
       sodipodi:nodetypes="cccccccccccccccc" />
    <path
       sodipodi:nodetypes="ccccc"
       style="fill:#c9bfb9;fill-opacity:1;stroke:none;stroke-width:0.127105px;stroke-linecap:butt;stroke-linejoin:miter;stroke-opacity:1"
       d="m 115.59334,183.66866 c -0.2874,-0.0278 -0.3198,-0.0971 -0.4826,-0.13912 0.1677,-0.0113 0.2178,-0.0711 0.4952,-0.044 l 0.8484,0.0828 0.9061,-0.0544 0.093,-0.006 0.5887,-0.0353 1.1629,0.0952 v 0 l 0.011,7e-5 c 0.2782,0.002 0.3217,0.0663 0.4873,0.0947 -0.1663,0.0251 -0.206,0.0907 -0.4952,0.0889 l -0.011,-7e-5 v 0 l -1.1569,-0.0954 -0.5892,0.0353 -0.093,0.006 -0.9069,0.0543 z"
       id="path25022" />
    <path
       style="fill:#c9bfb9;fill-opacity:1;stroke:none;stroke-width:0.127105px;stroke-linecap:butt;stroke-linejoin:miter;stroke-opacity:1"
       d="m 117.36594,180.01472 c 0,-0.0391 0.049,-0.0483 0.068,-0.0726 0.024,0.0209 0.075,0.023 0.078,0.0611 l 0.019,0.24027 9e-4,0.0127 0.019,0.24025 c 0,0.0381 -0.048,0.0483 -0.068,0.0726 -0.022,-0.021 -0.075,-0.0221 -0.078,-0.0612 l -0.019,-0.24025 -9e-4,-0.0127 z m 0.038,2.88079 c 0,-0.051 0.056,-0.0544 0.079,-0.0825 0.02,0.0308 0.071,0.0421 0.067,0.0918 l -0.02,0.31325 v 0.0166 l -0.02,0.31323 c 0,0.0497 -0.055,0.0545 -0.079,0.0825 -0.019,-0.0308 -0.071,-0.0409 -0.067,-0.0918 l 0.02,-0.31323 v -0.0166 z"
       id="path25024"
       sodipodi:nodetypes="cccc" />
    <path
       style="fill:#c9bfb9;fill-opacity:1;stroke:none;stroke-width:0.264583;stroke-linecap:butt;stroke-linejoin:miter;stroke-miterlimit:4;stroke-dasharray:none;stroke-opacity:1"
       d="m 117.78084,181.12182 c 0.01,-0.1096 0.021,-0.18719 0.034,-0.24943 -0.048,-0.0825 -0.061,-0.13843 -0.1202,-0.23711 0.079,0.0816 0.1379,0.12113 0.2188,0.20731 0.01,0.0604 0.01,0.13914 0,0.25451 l -0.026,0.48018 0.023,0.50298 -0.043,0.52139 v 0 l -0.2268,0.26712 -0.1613,0.008 -0.1175,0.006 -0.1081,0.005 -0.2714,-0.27875 -0.051,-0.59565 v 0 l 0.076,-0.70491 -0.025,-0.2057 c -0.012,-0.0931 -0.016,-0.16333 -0.017,-0.21827 0.093,-0.11088 0.1551,-0.15078 0.2413,-0.24383 -0.063,0.11139 -0.071,0.1688 -0.1327,0.27074 0.015,0.0536 0.03,0.11962 0.044,0.20543 l 0.032,0.18905 -0.076,0.70996 0.031,0.53859 v 0 l 0.1962,0.21237 0.078,-0.004 0.085,-0.005 0.1167,-0.007 0.159,-0.2006 v 0 l 0.027,-0.47253 v 0 l -0.023,-0.50262 z"
       id="path25026"
       sodipodi:nodetypes="cccccccccccc" />
    <path
       style="fill:#e2d7d0;fill-opacity:0.5;stroke:none;stroke-width:0.264583px;stroke-linecap:butt;stroke-linejoin:miter;stroke-opacity:1"
       d="m 117.55084,180.49644 -0.3442,0.14423 -0.1327,0.27074 0.076,0.39448 -0.076,0.70996 0.031,0.53859 0.1962,0.21237 0.2797,-0.015 0.159,-0.2006 0.027,-0.47253 -0.023,-0.50262 0.037,-0.45424 0.034,-0.24943 -0.1202,-0.23711 z"
       id="path25028" />
    <path
       style="fill:#c9bfb9;fill-opacity:1;stroke:none;stroke-width:0.264583px;stroke-linecap:butt;stroke-linejoin:miter;stroke-opacity:1"
       d="m 116.43304,179.48836 c -0.031,-0.0175 -1e-4,-0.0757 -0.01,-0.10957 0.033,-0.0125 0.073,-0.0638 0.1068,-0.0428 l 0.2146,0.13192 0.01,0.005 v 0.003 l 0.1341,0.21357 c 0.021,0.0339 -0.03,0.0741 -0.042,0.10727 -0.034,-0.005 -0.092,0.026 -0.1095,-0.005 l -0.1094,-0.18904 v -0.003 l -0.01,-0.004 z"
       id="path25072"
       sodipodi:nodetypes="ccc" />
    <path
       style="fill:#c9bfb9;fill-opacity:1;stroke:none;stroke-width:0.264583px;stroke-linecap:butt;stroke-linejoin:miter;stroke-opacity:1"
       d="m 117.34034,179.13105 c -0.01,-0.039 0.059,-0.0525 0.082,-0.0796 0.031,0.0195 0.096,0.0178 0.1014,0.0588 l 0.035,0.25806 v 0.0128 l -1e-4,8.6e-4 -0.032,0.25883 c -0.01,0.0411 -0.07,0.0404 -0.1006,0.0603 -0.023,-0.0268 -0.088,-0.0395 -0.083,-0.0784 l 0.032,-0.23949 1e-4,-7.8e-4 v -0.0119 z"
       id="path25076"
       sodipodi:nodetypes="ccc" />
    <path
       style="fill:#c9bfb9;fill-opacity:1;stroke:none;stroke-width:0.264583px;stroke-linecap:butt;stroke-linejoin:miter;stroke-opacity:1"
       d="m 118.31334,179.29624 c 0.028,-0.0281 0.079,0.0147 0.1129,0.0185 0,0.0349 0.045,0.0843 0.02,0.1078 l -0.1468,0.13776 -0.01,0.0143 v 0.0107 l -0.085,0.20147 c -0.014,0.032 -0.074,0.0102 -0.1084,0.0191 -0.015,-0.0304 -0.073,-0.0627 -0.057,-0.0989 l 0.1,-0.2226 0.01,-0.0118 0.01,-0.0158 z"
       id="path25080"
       sodipodi:nodetypes="ccc" />
  </g>
</svg>
