<?xml version="1.0" encoding="UTF-8" standalone="no"?>
<svg
   xmlns:dc="http://purl.org/dc/elements/1.1/"
   xmlns:cc="http://creativecommons.org/ns#"
   xmlns:rdf="http://www.w3.org/1999/02/22-rdf-syntax-ns#"
   xmlns:svg="http://www.w3.org/2000/svg"
   xmlns="http://www.w3.org/2000/svg"
   xmlns:sodipodi="http://sodipodi.sourceforge.net/DTD/sodipodi-0.dtd"
   xmlns:inkscape="http://www.inkscape.org/namespaces/inkscape"
   sodipodi:docname="12_mouse_right_click_2.svg"
   inkscape:version="1.0 (4035a4fb49, 2020-05-01)"
   id="svg15096"
   version="1.1"
   viewBox="0 0 9.5249996 9.5249996"
   height="9.5249996mm"
   width="9.5249996mm">
  <defs
     id="defs15090" />
  <sodipodi:namedview
     inkscape:window-maximized="1"
     inkscape:window-y="-8"
     inkscape:window-x="-8"
     inkscape:window-height="705"
     inkscape:window-width="1366"
     fit-margin-bottom="0"
     fit-margin-right="0"
     fit-margin-left="0"
     fit-margin-top="0"
     showgrid="false"
     inkscape:document-rotation="0"
     inkscape:current-layer="layer1"
     inkscape:document-units="mm"
     inkscape:cy="20.482354"
     inkscape:cx="-9.9822162"
     inkscape:zoom="5.3691756"
     inkscape:pageshadow="2"
     inkscape:pageopacity="0.0"
     borderopacity="1.0"
     bordercolor="#666666"
     pagecolor="#ffffff"
     id="base" />
  <metadata
     id="metadata15093">
    <rdf:RDF>
      <cc:Work
         rdf:about="">
        <dc:format>image/svg+xml</dc:format>
        <dc:type
           rdf:resource="http://purl.org/dc/dcmitype/StillImage" />
        <dc:title></dc:title>
      </cc:Work>
    </rdf:RDF>
  </metadata>
  <g
     transform="translate(-135.58183,-120.60125)"
     id="layer1"
     inkscape:groupmode="layer"
     inkscape:label="Layer 1">
    <path
       style="fill:#e2d7d0;fill-opacity:0.501961;stroke:none;stroke-width:0.264583px;stroke-linecap:butt;stroke-linejoin:miter;stroke-opacity:1"
       d="m 140.29883,121.59672 0.1169,0.55432 0.3626,0.34615 -0.026,0.73469 0.023,0.50298 -0.043,0.52139 -0.2268,0.26712 -0.2366,0.0267 0.1069,0.65238 0.5316,-0.0749 1.1629,0.0952 0.49851,0.0948 0.2852,-0.9121 -0.3789,-1.30767 -0.1595,-0.93696 -0.6783,-0.61174 z"
       id="path25040" />
    <path
       sodipodi:nodetypes="cccccccccccccccc"
       id="path25042"
       d="m 142.47513,123.0978 c 0,0 -1e-4,-0.002 -1e-4,-0.002 -0.088,-0.41722 -0.1312,-0.70726 -0.1594,-0.93496 -0.2429,-0.20903 -0.3787,-0.36215 -0.6783,-0.61174 0.3102,0.19538 0.5363,0.30537 0.8465,0.50075 0.076,0.22635 0.1705,0.5353 0.286,1.00315 0,0 2e-4,0.002 2e-4,0.002 l 0.084,1.35047 -0.2606,1.48989 v 0 l -0.1972,1.86321 v 0 l -0.5033,0.87613 -0.6189,0.49812 -0.6587,0.0182 -0.3899,0.0107 -0.6032,0.0166 -0.9565,-0.58957 -0.4621,-1.289 v -1e-5 l -0.1389,-1.55445 -0.2294,-1.10003 0.03,-1.43079 c 0,-0.13347 0.01,-0.25362 0.011,-0.36247 0.2343,-0.47628 0.3847,-0.71702 0.5254,-0.94377 0,0 0,0 0,0 0.1618,-0.0752 0.3222,-0.14749 0.519,-0.24807 -0.1849,0.12783 -0.3123,0.22819 -0.4343,0.32382 -0.079,0.25365 -0.153,0.50379 -0.3324,0.93121 7.9e-4,0.10429 4e-4,0.21869 0,0.3454 l -0.021,1.35671 0.2288,1.08415 0.1339,1.53625 v 0 l 0.3909,1.17453 0.8115,0.48905 0.5401,-0.0121 0.349,-0.008 0.5895,-0.0132 0.4933,-0.42338 0.4499,-0.77625 v 0 l 0.1794,-1.81445 v -10e-6 l 0.2602,-1.4653 z"
       style="fill:#c9bfb9;fill-opacity:1;stroke:none;stroke-width:0.127305;stroke-linecap:butt;stroke-linejoin:miter;stroke-miterlimit:4;stroke-dasharray:none;stroke-opacity:1" />
    <path
       id="path25044"
       d="m 138.45833,125.32326 c -0.2874,-0.0278 -0.3198,-0.0971 -0.4826,-0.13912 0.1677,-0.0113 0.2178,-0.0711 0.4952,-0.044 l 0.8484,0.0828 0.9061,-0.0544 0.093,-0.006 0.5887,-0.0353 1.1629,0.0952 v 0 l 0.011,7e-5 c 0.2782,0.002 0.3217,0.0663 0.48731,0.0947 -0.16631,0.0251 -0.20611,0.0907 -0.4952,0.0889 l -0.011,-7e-5 v 0 l -1.1569,-0.0954 -0.5892,0.0353 -0.093,0.006 -0.9069,0.0543 z"
       style="fill:#c9bfb9;fill-opacity:1;stroke:none;stroke-width:0.127105px;stroke-linecap:butt;stroke-linejoin:miter;stroke-opacity:1"
       sodipodi:nodetypes="ccccc" />
    <path
       sodipodi:nodetypes="cccc"
       id="path25046"
       d="m 140.23093,121.66932 c 0,-0.0391 0.049,-0.0483 0.068,-0.0726 0.024,0.0209 0.075,0.023 0.078,0.0611 l 0.019,0.24027 9e-4,0.0127 0.019,0.24025 c 0,0.0381 -0.048,0.0483 -0.068,0.0726 -0.022,-0.021 -0.075,-0.0221 -0.078,-0.0612 l -0.019,-0.24026 -9e-4,-0.0127 z m 0.038,2.88079 c 0,-0.051 0.056,-0.0543 0.079,-0.0825 0.02,0.0308 0.071,0.0421 0.067,0.0918 l -0.02,0.31325 v 0.0166 l -0.02,0.31324 c 0,0.0497 -0.055,0.0545 -0.079,0.0825 -0.019,-0.0308 -0.071,-0.0409 -0.067,-0.0918 l 0.02,-0.31324 v -0.0166 z"
       style="fill:#c9bfb9;fill-opacity:1;stroke:none;stroke-width:0.127105px;stroke-linecap:butt;stroke-linejoin:miter;stroke-opacity:1" />
    <path
       sodipodi:nodetypes="cccccccccccc"
       id="path25048"
       d="m 140.64583,122.77644 c 0.01,-0.10961 0.021,-0.1872 0.034,-0.24945 -0.048,-0.0825 -0.061,-0.13843 -0.1202,-0.23711 0.079,0.0816 0.1379,0.12113 0.2188,0.20731 0.01,0.0604 0.01,0.13915 0,0.25454 l -0.026,0.48015 0.023,0.50298 v 0 l -0.043,0.52139 v 0 l -0.2268,0.26712 -0.1614,0.008 -0.1174,0.006 -0.1081,0.005 -0.2714,-0.27875 v 0 l -0.051,-0.59565 v 0 l 0.076,-0.7049 -0.025,-0.20575 c -0.012,-0.0931 -0.016,-0.16329 -0.017,-0.21823 0.093,-0.11089 0.1552,-0.15077 0.2414,-0.24381 -0.063,0.11139 -0.071,0.16879 -0.1328,0.27074 0.015,0.0536 0.03,0.11959 0.044,0.20538 l 0.032,0.18909 -0.076,0.70996 0.031,0.53859 v 0 l 0.1962,0.21237 0.078,-0.004 0.085,-0.005 0.1167,-0.007 0.159,-0.2006 0.027,-0.47253 v 0 l -0.023,-0.50262 z"
       style="fill:#c9bfb9;fill-opacity:1;stroke:none;stroke-width:0.264583;stroke-linecap:butt;stroke-linejoin:miter;stroke-miterlimit:4;stroke-dasharray:none;stroke-opacity:1" />
    <path
       sodipodi:nodetypes="ccc"
       id="path25084"
       d="m 142.06553,120.74887 c 0.01,-0.0379 0.071,-0.032 0.1008,-0.0509 0.024,0.027 0.087,0.0442 0.08,0.0844 l -0.04,0.25329 v 0.0134 0.0116 l -0.1099,0.21998 c -0.018,0.0366 -0.079,0.0142 -0.1144,0.0223 -0.013,-0.0325 -0.07,-0.066 -0.052,-0.0998 l 0.1029,-0.19832 v -0.0107 -0.0123 z"
       style="fill:#c9bfb9;fill-opacity:1;stroke:none;stroke-width:0.264583px;stroke-linecap:butt;stroke-linejoin:miter;stroke-opacity:1" />
    <path
       sodipodi:nodetypes="ccc"
       id="path25088"
       d="m 143.04773,121.42038 c 0.022,-0.0283 0.077,0.01 0.1106,0.009 0.01,0.0339 0.055,0.0793 0.032,0.10836 l -0.1458,0.18312 -0.01,0.01 -0.01,0.007 -0.17089,0.14845 c -0.028,0.0244 -0.075,-0.0202 -0.1097,-0.0271 -9e-4,-0.0338 -0.041,-0.0866 -0.014,-0.11001 l 0.1616,-0.13872 v -0.006 l 0.01,-0.009 z"
       style="fill:#c9bfb9;fill-opacity:1;stroke:none;stroke-width:0.264583px;stroke-linecap:butt;stroke-linejoin:miter;stroke-opacity:1" />
    <path
       sodipodi:nodetypes="ccc"
       id="path25092"
       d="m 143.52283,122.39243 c 0.041,-0.009 0.062,0.0537 0.09,0.0746 -0.017,0.0317 -0.01,0.0957 -0.044,0.10273 l -0.2265,0.0441 -0.012,0.002 -0.01,0.002 -0.1694,0.13849 c -0.028,0.023 -0.071,-0.0248 -0.1066,-0.0322 0,-0.0349 -0.033,-0.091 6.8e-4,-0.11697 l 0.1989,-0.15237 0.012,-0.003 0.013,-0.003 z"
       style="fill:#c9bfb9;fill-opacity:1;stroke:none;stroke-width:0.264583px;stroke-linecap:butt;stroke-linejoin:miter;stroke-opacity:1" />
  </g>
</svg>
