<?xml version="1.0" encoding="UTF-8" standalone="no"?>
<svg
   xmlns:dc="http://purl.org/dc/elements/1.1/"
   xmlns:cc="http://creativecommons.org/ns#"
   xmlns:rdf="http://www.w3.org/1999/02/22-rdf-syntax-ns#"
   xmlns:svg="http://www.w3.org/2000/svg"
   xmlns="http://www.w3.org/2000/svg"
   xmlns:sodipodi="http://sodipodi.sourceforge.net/DTD/sodipodi-0.dtd"
   xmlns:inkscape="http://www.inkscape.org/namespaces/inkscape"
   sodipodi:docname="13_mouse_right_click_3.svg"
   inkscape:version="1.0 (4035a4fb49, 2020-05-01)"
   id="svg15704"
   version="1.1"
   viewBox="0 0 9.5249996 9.524991"
   height="9.524991mm"
   width="9.5249996mm">
  <defs
     id="defs15698" />
  <sodipodi:namedview
     inkscape:window-maximized="1"
     inkscape:window-y="-8"
     inkscape:window-x="-8"
     inkscape:window-height="705"
     inkscape:window-width="1366"
     fit-margin-bottom="0"
     fit-margin-right="0"
     fit-margin-left="0"
     fit-margin-top="0"
     showgrid="false"
     inkscape:document-rotation="0"
     inkscape:current-layer="layer1"
     inkscape:document-units="mm"
     inkscape:cy="30.857689"
     inkscape:cx="18.846885"
     inkscape:zoom="5.3691756"
     inkscape:pageshadow="2"
     inkscape:pageopacity="0.0"
     borderopacity="1.0"
     bordercolor="#666666"
     pagecolor="#ffffff"
     id="base" />
  <metadata
     id="metadata15701">
    <rdf:RDF>
      <cc:Work
         rdf:about="">
        <dc:format>image/svg+xml</dc:format>
        <dc:type
           rdf:resource="http://purl.org/dc/dcmitype/StillImage" />
        <dc:title></dc:title>
      </cc:Work>
    </rdf:RDF>
  </metadata>
  <g
     transform="translate(59.954089,-81.967144)"
     id="layer1"
     inkscape:groupmode="layer"
     inkscape:label="Layer 1">
    <path
       id="path25158"
       d="m -55.237089,82.962614 0.1169,0.55432 0.3626,0.34615 -0.026,0.73469 0.023,0.50298 -0.043,0.52139 -0.2268,0.267121 -0.2367,0.0267 0.107,0.652379 0.5315,-0.0749 1.1629,0.0952 0.498501,0.0948 0.2852,-0.912099 -0.3789,-1.307671 -0.1595,-0.93696 -0.6783,-0.61174 z"
       style="fill:#e2d7d0;fill-opacity:0.501961;stroke:none;stroke-width:0.264583px;stroke-linecap:butt;stroke-linejoin:miter;stroke-opacity:1" />
    <path
       style="fill:#c9bfb9;fill-opacity:1;stroke:none;stroke-width:0.127305;stroke-linecap:butt;stroke-linejoin:miter;stroke-miterlimit:4;stroke-dasharray:none;stroke-opacity:1"
       d="m -53.060889,84.463694 c 0,0 -10e-5,-0.002 -10e-5,-0.002 -0.088,-0.41722 -0.1312,-0.70726 -0.1594,-0.93496 -0.2429,-0.20903 -0.3787,-0.36215 -0.6783,-0.61174 0.3102,0.19538 0.5363,0.30537 0.8465,0.50075 0.076,0.22635 0.1705,0.5353 0.286,1.00315 0,0 2e-4,0.002 2e-4,0.002 l 0.084,1.35047 -0.2606,1.489891 v 0 l -0.1972,1.863209 v 0 l -0.5033,0.876131 -0.6189,0.49812 -0.6587,0.0182 -0.3899,0.0108 -0.6032,0.0166 -0.9565,-0.58957 -0.4621,-1.289 v -1e-5 l -0.1389,-1.554451 -0.2294,-1.10003 0.03,-1.43079 c 0,-0.13347 0.01,-0.25362 0.011,-0.36247 0.2343,-0.47628 0.3847,-0.71702 0.5254,-0.94377 0,0 0,0 0,0 0.1618,-0.0752 0.3222,-0.14749 0.519,-0.24807 -0.1849,0.12784 -0.3123,0.2282 -0.4343,0.32382 -0.079,0.25363 -0.153,0.50375 -0.3324,0.93121 7.99e-4,0.10429 4e-4,0.21869 0,0.345401 l -0.021,1.35671 0.2288,1.08415 0.1339,1.53625 v 0 l 0.3909,1.174529 0.8115,0.48905 0.5401,-0.0121 0.349,-0.008 0.5895,-0.0132 0.4933,-0.42338 0.4499,-0.776251 v 0 l 0.1794,-1.81445 v -1e-5 l 0.2602,-1.4653 z"
       id="path25160"
       sodipodi:nodetypes="cccccccccccccccc" />
    <path
       sodipodi:nodetypes="ccccc"
       style="fill:#c9bfb9;fill-opacity:1;stroke:none;stroke-width:0.127105px;stroke-linecap:butt;stroke-linejoin:miter;stroke-opacity:1"
       d="m -57.077689,86.689154 c -0.2874,-0.0278 -0.3198,-0.0971 -0.4826,-0.13912 0.1677,-0.0112 0.2178,-0.0711 0.4952,-0.044 l 0.8484,0.0828 0.9061,-0.0544 0.093,-0.006 0.5887,-0.0353 1.1629,0.0952 v 0 l 0.011,7.1e-5 c 0.2782,0.002 0.3217,0.0663 0.4873,0.0947 -0.1663,0.0251 -0.206,0.0907 -0.4952,0.0889 l -0.011,-7.1e-5 v 0 l -1.1569,-0.0954 -0.589199,0.0353 -0.093,0.006 -0.906901,0.0543 z"
       id="path25162" />
    <path
       style="fill:#c9bfb9;fill-opacity:1;stroke:none;stroke-width:0.127105px;stroke-linecap:butt;stroke-linejoin:miter;stroke-opacity:1"
       d="m -55.305089,83.035214 c 0,-0.0391 0.049,-0.0483 0.068,-0.0726 0.024,0.0209 0.075,0.023 0.078,0.0611 l 0.019,0.24027 9e-4,0.0127 0.019,0.24025 c 0,0.0381 -0.048,0.0483 -0.068,0.0726 -0.022,-0.021 -0.075,-0.0221 -0.078,-0.0612 l -0.019,-0.24025 -9e-4,-0.0127 z m 0.038,2.88079 c 0,-0.051 0.056,-0.0544 0.079,-0.0825 0.02,0.0308 0.071,0.0421 0.068,0.0918 l -0.02,0.31325 v 0.0166 l -0.02,0.31323 c 0,0.0497 -0.055,0.0545 -0.079,0.0825 -0.019,-0.0308 -0.071,-0.0409 -0.068,-0.0918 l 0.02,-0.313229 v -0.0166 z"
       id="path25164"
       sodipodi:nodetypes="cccc" />
    <path
       style="fill:#c9bfb9;fill-opacity:1;stroke:none;stroke-width:0.264583;stroke-linecap:butt;stroke-linejoin:miter;stroke-miterlimit:4;stroke-dasharray:none;stroke-opacity:1"
       d="m -54.890189,84.142314 c 0.01,-0.1096 0.021,-0.18719 0.034,-0.24943 -0.048,-0.0825 -0.061,-0.13843 -0.1202,-0.23711 0.079,0.0816 0.1379,0.12113 0.2188,0.20731 0.01,0.0604 0.01,0.13914 0,0.25451 l -0.026,0.48018 0.023,0.50298 -0.043,0.52139 v 0 l -0.2268,0.267121 -0.1613,0.008 -0.1175,0.006 -0.1081,0.005 -0.2714,-0.278751 -0.051,-0.59565 v 0 l 0.076,-0.7049 -0.025,-0.2057 c -0.011,-0.0931 -0.016,-0.16333 -0.017,-0.21827 0.093,-0.11088 0.1551,-0.15078 0.2413,-0.24383 -0.063,0.11139 -0.071,0.1688 -0.1327,0.27074 0.015,0.0536 0.03,0.11962 0.044,0.20543 l 0.032,0.18905 -0.076,0.70996 0.031,0.538591 v 0 l 0.1962,0.212369 0.078,-0.004 0.085,-0.005 0.1167,-0.006 0.159,-0.200599 v 0 l 0.027,-0.47253 v 0 l -0.023,-0.50262 z"
       id="path25166"
       sodipodi:nodetypes="cccccccccccc" />
    <path
       style="fill:#c9bfb9;fill-opacity:1;stroke:none;stroke-width:0.264583px;stroke-linecap:butt;stroke-linejoin:miter;stroke-opacity:1"
       d="m -53.568489,82.128364 c -0.2242,-0.0102 -0.2596,0.0536 -0.387,0.0749 0.125,0.0325 0.1528,0.0974 0.3604,0.10416 l 0.4575,0.0148 v 0 l 0.6584,0.39362 v 0 l 0.036,0.0514 0.039,0.0557 0.4318,0.61718 0.035,0.5391 c 0.013,0.20747 0.079,0.2333 0.1155,0.35726 0.017,-0.12805 0.08,-0.16543 0.062,-0.38903 l -0.044,-0.56669 -0.4702,-0.67929 -0.042,-0.0613 -0.039,-0.0566 v 0 l -0.7306,-0.4332 v 0 z"
       id="path25202"
       sodipodi:nodetypes="ccccc" />
  </g>
</svg>
