<?xml version="1.0" encoding="UTF-8" standalone="no"?>
<svg
   xmlns:dc="http://purl.org/dc/elements/1.1/"
   xmlns:cc="http://creativecommons.org/ns#"
   xmlns:rdf="http://www.w3.org/1999/02/22-rdf-syntax-ns#"
   xmlns:svg="http://www.w3.org/2000/svg"
   xmlns="http://www.w3.org/2000/svg"
   xmlns:sodipodi="http://sodipodi.sourceforge.net/DTD/sodipodi-0.dtd"
   xmlns:inkscape="http://www.inkscape.org/namespaces/inkscape"
   sodipodi:docname="14_mouse_movement.svg"
   inkscape:version="1.0 (4035a4fb49, 2020-05-01)"
   id="svg9101"
   version="1.1"
   viewBox="0 0 9.5249996 9.5249996"
   height="9.5249996mm"
   width="9.5249996mm">
  <defs
     id="defs9095" />
  <sodipodi:namedview
     inkscape:window-maximized="1"
     inkscape:window-y="-8"
     inkscape:window-x="-8"
     inkscape:window-height="705"
     inkscape:window-width="1366"
     fit-margin-bottom="0"
     fit-margin-right="0"
     fit-margin-left="0"
     fit-margin-top="0"
     showgrid="false"
     inkscape:document-rotation="0"
     inkscape:current-layer="layer1"
     inkscape:document-units="mm"
     inkscape:cy="21.61903"
     inkscape:cx="19.786743"
     inkscape:zoom="10.738351"
     inkscape:pageshadow="2"
     inkscape:pageopacity="0.0"
     borderopacity="1.0"
     bordercolor="#666666"
     pagecolor="#ffffff"
     id="base" />
  <metadata
     id="metadata9098">
    <rdf:RDF>
      <cc:Work
         rdf:about="">
        <dc:format>image/svg+xml</dc:format>
        <dc:type
           rdf:resource="http://purl.org/dc/dcmitype/StillImage" />
        <dc:title></dc:title>
      </cc:Work>
    </rdf:RDF>
  </metadata>
  <g
     transform="translate(-74.871078,-171.06213)"
     id="layer1"
     inkscape:groupmode="layer"
     inkscape:label="Layer 1">
    <g
       transform="translate(-1061.3271,-287.2533)"
       style="font-style:normal;font-variant:normal;font-weight:normal;font-stretch:normal;font-size:6.35px;line-height:1.05;font-family:THEME;-inkscape-font-specification:THEME;text-align:center;text-anchor:middle;fill:#c9bfb9;fill-opacity:1;stroke:none;stroke-width:0.264999;stroke-linecap:square;stroke-miterlimit:4;stroke-dasharray:none;stroke-opacity:1;paint-order:fill markers stroke"
       id="text24968"
       aria-label="&gt;">
      <path
         id="path25347"
         style="fill:#c9bfb9;fill-opacity:1;stroke-width:0.265"
         d="m 1144.1704,464.03678 q -0.013,0.0127 -0.025,0.019 -0.01,0.006 -0.019,0.019 0,-0.006 -0.01,-0.006 0,0 0,-0.006 v -0.10795 q 0.013,-0.0254 0.038,-0.0381 0.025,-0.019 0.025,-0.0572 0.019,-0.019 0.038,-0.0381 0.025,-0.019 0.038,-0.0508 0.032,-0.0254 0.051,-0.0572 0.019,-0.0381 0.051,-0.0698 0.013,-0.0127 0.025,-0.0317 0.013,-0.0254 0.025,-0.0444 0.013,-0.0191 0.032,-0.0318 0.019,-0.019 0.032,-0.0444 0.013,-0.019 0.032,-0.0317 0.019,-0.019 0.032,-0.0381 0,-0.0318 0.013,-0.0445 0.019,-0.0127 0.032,-0.0254 0.013,-0.0127 0.025,-0.0254 0.013,-0.0127 0.025,-0.0381 0,-0.0127 0.013,-0.0254 0.019,-0.0191 0.032,-0.0318 0.038,-0.0254 0.044,-0.0571 0,-0.0127 0.032,-0.0317 0.019,-0.0127 0.025,-0.0317 0.01,-0.0254 0.019,-0.0381 0.013,-0.019 0.01,-0.0381 0,-0.019 0,-0.0381 -0.019,-0.0254 -0.044,-0.0381 -0.019,-0.0191 -0.025,-0.0508 -0.019,-0.0254 -0.044,-0.0381 -0.019,-0.019 -0.032,-0.0444 -0.013,-0.0381 -0.044,-0.0635 -0.025,-0.0254 -0.051,-0.0508 -0.019,-0.0127 -0.025,-0.0317 0,-0.0254 -0.025,-0.0381 -0.013,-0.0127 -0.032,-0.0317 -0.013,-0.019 -0.032,-0.0317 -0.019,-0.0127 -0.025,-0.0381 0,-0.0254 -0.025,-0.0381 -0.025,-0.0127 -0.032,-0.0381 -0.01,-0.0254 -0.025,-0.0381 -0.019,-0.019 -0.038,-0.0381 -0.013,-0.019 -0.032,-0.0317 0.01,-0.0254 -0.013,-0.0381 -0.013,-0.0127 -0.025,-0.0254 -0.013,-0.019 -0.025,-0.0698 l -0.038,-0.0572 q -0.01,-0.0127 0,-0.019 0.025,-0.0254 0,-0.0508 -0.025,-0.0317 0.025,-0.0444 h 0.032 q -0.038,-0.0445 0,-0.0762 0.01,0 0,-0.006 0,-0.0127 0.01,-0.0254 0.038,0.0381 0.057,0.0444 0.025,0.006 0.032,0.019 0.013,0.0127 0.025,0.0254 0.013,-0.0127 0.019,-0.019 0.01,-0.006 0.019,-0.019 -0.01,-0.006 -0.013,-0.006 -0.01,-0.006 -0.019,-0.019 -0.025,-0.0254 0,-0.0508 l 0.019,-0.019 q 0.013,0.0317 0.038,0.0381 0.032,0.006 0.051,0.0317 0.019,0.019 0.038,0.0381 0.025,0.019 0.044,0.0381 0.025,0.0381 0.063,0.0635 -0.01,0.0317 0.013,0.0444 0.019,0.0127 0.032,0.0254 0.038,0.0381 0.051,0.0699 0,0.0127 0.013,0.019 0.013,0.006 0.025,0.019 0.051,0.0508 0.1016,0.1016 0.051,0.0508 0.1016,0.1016 0.013,0.0191 0.038,0.0381 0.025,0.019 0.025,0.0508 l 0.076,0.0762 0.01,0.006 q -0.01,0.0317 0.019,0.0444 0.025,0.0127 0.032,0.0381 0,0.0127 0.013,0.0254 0.032,0.0254 0.044,0.0635 0.019,0.0381 0.044,0.0698 0.013,0.0127 0,0.0127 -0.01,0 -0.01,0.006 -0.013,0.0127 -0.019,0.0318 0,0.0127 -0.013,0.0254 -0.01,0.0127 -0.01,0.0317 0.01,0.019 0.01,0.0317 0.013,0.0127 0.032,0.0127 0.019,-0.006 0.013,0.0254 0,0.0254 0.01,0.0381 0.01,0.0127 0.044,0 -0.019,0.0254 -0.032,0.0381 -0.013,0.0127 -0.019,0.0317 -0.01,0.0127 -0.019,0.0254 -0.013,0.0127 0,0.0317 -0.025,0.0127 -0.032,0.0381 0,0.0254 -0.025,0.0381 -0.025,0.0127 -0.032,0.0381 -0.01,0.0254 -0.025,0.0381 -0.019,0.0127 -0.025,0.0381 0,0.019 -0.019,0.0317 -0.038,0.0254 -0.045,0.0571 -0.01,0.019 -0.025,0.0381 -0.019,0.0127 -0.032,0.0317 -0.013,0.0317 -0.032,0.0508 -0.019,0.019 -0.038,0.0381 0,0.0317 -0.032,0.0508 -0.025,0.0127 -0.019,0.0444 l -0.01,0.006 q -0.01,0.006 -0.01,0.006 -0.019,0.0254 -0.044,0.0444 -0.019,0.0127 -0.032,0.0445 -0.013,0.0254 -0.038,0.0444 -0.025,0.0127 -0.038,0.0381 -0.032,0.0571 -0.076,0.1016 -0.044,0.0381 -0.089,0.0825 -0.019,0.0254 -0.07,0.0508 -0.013,0.0127 -0.025,0.0317 -0.013,0.0127 -0.025,0.0254 -0.013,0.006 -0.032,0.006 -0.019,-0.006 -0.025,-0.019 -0.019,-0.0317 -0.032,-0.0381 -0.01,-0.0127 -0.051,-0.0445 -0.032,-0.0127 -0.032,-0.0381 0,-0.0127 0.01,-0.019 0.013,-0.006 0.013,-0.019 0.01,-0.0127 0.01,-0.019 0,-0.006 0.013,-0.019 v -0.006 l -0.01,-0.006 q -0.019,0 -0.019,0 -0.013,0.0127 -0.025,0.019 -0.013,0.019 -0.051,0.0571 0,-0.0381 0.01,-0.0698 -0.01,0 -0.01,0.006 -0.01,0 -0.01,0.006 0,0 0.01,0 0,0.006 0,0.006 0.01,0 0.01,-0.006 0,0 0.013,-0.0127 z m 0.7429,-1.17475 q -0.01,-0.006 -0.01,-0.0127 h -0.013 v 0.0127 l 0.013,0.0127 v -0.006 q 0,0.006 -0.013,-0.019 0,-0.019 -0.019,-0.019 0,-0.0254 -0.032,-0.0254 h 0.01 v -0.006 q -0.013,-0.0127 -0.019,-0.006 0,0.0127 0.019,0.0127 0,0.0254 0.025,0.0254 0,0.0254 0.038,0.0317 z m 0.07,-0.10795 -0.013,-0.0127 h -0.01 q -0.01,0 -0.01,0.006 0,0 0.01,0 0,0.0127 0.013,0.0127 v -0.006 l -0.013,-0.0127 q 0,-0.0254 -0.025,-0.0254 0,-0.019 -0.032,-0.019 h 0.013 v -0.0127 q -0.013,-0.0127 -0.019,0 -0.01,0 0.019,0.0127 0,0.0317 0.019,0.019 0,0.0254 0.044,0.0381 z m -0.381,-0.2667 q 0,-0.006 -0.01,-0.006 0,0 0,-0.006 h -0.013 v 0.006 q 0.013,0.0127 0.013,0.0127 v -0.006 l -0.013,-0.0127 q 0,-0.0254 -0.019,-0.0254 0,-0.019 -0.025,-0.019 0,-0.0254 -0.032,-0.0254 h 0.013 v -0.006 q -0.013,-0.0127 -0.019,-0.006 -0.013,0.0127 0.019,0.0127 0,0.0254 0.019,0.0254 0,0.0254 0.025,0.019 0,0.0254 0.038,0.0381 z" />
    </g>
    <g
       style="font-style:normal;font-variant:normal;font-weight:normal;font-stretch:normal;font-size:6.35px;line-height:1.05;font-family:THEME;-inkscape-font-specification:THEME;text-align:center;text-anchor:middle;fill:#c9bfb9;fill-opacity:1;stroke:none;stroke-width:0.264999;stroke-linecap:square;stroke-miterlimit:4;stroke-dasharray:none;stroke-opacity:1;paint-order:fill markers stroke"
       id="text24972"
       transform="matrix(-1,0,0,1,-1061.3271,-287.2533)"
       aria-label="&gt;">
      <path
         id="path25350"
         style="fill:#c9bfb9;fill-opacity:1;stroke-width:0.265"
         d="m -1137.7515,464.03678 q -0.013,0.0127 -0.025,0.019 -0.01,0.006 -0.019,0.019 0,-0.006 -0.01,-0.006 0,0 0,-0.006 v -0.10795 q 0.013,-0.0254 0.038,-0.0381 0.025,-0.019 0.025,-0.0572 0.019,-0.019 0.038,-0.0381 0.025,-0.019 0.038,-0.0508 0.032,-0.0254 0.051,-0.0572 0.019,-0.0381 0.051,-0.0698 0.013,-0.0127 0.025,-0.0317 0.013,-0.0254 0.025,-0.0444 0.013,-0.0191 0.032,-0.0318 0.019,-0.019 0.032,-0.0444 0.013,-0.019 0.032,-0.0317 0.019,-0.019 0.032,-0.0381 0,-0.0318 0.013,-0.0445 0.019,-0.0127 0.032,-0.0254 0.013,-0.0127 0.025,-0.0254 0.013,-0.0127 0.025,-0.0381 0,-0.0127 0.013,-0.0254 0.019,-0.0191 0.032,-0.0318 0.038,-0.0254 0.044,-0.0571 0,-0.0127 0.032,-0.0317 0.019,-0.0127 0.025,-0.0317 0.01,-0.0254 0.019,-0.0381 0.013,-0.019 0.01,-0.0381 0,-0.019 0,-0.0381 -0.019,-0.0254 -0.044,-0.0381 -0.019,-0.0191 -0.025,-0.0508 -0.019,-0.0254 -0.044,-0.0381 -0.019,-0.019 -0.032,-0.0444 -0.013,-0.0381 -0.044,-0.0635 -0.025,-0.0254 -0.051,-0.0508 -0.019,-0.0127 -0.025,-0.0317 0,-0.0254 -0.025,-0.0381 -0.013,-0.0127 -0.032,-0.0317 -0.013,-0.019 -0.032,-0.0317 -0.019,-0.0127 -0.025,-0.0381 0,-0.0254 -0.025,-0.0381 -0.025,-0.0127 -0.032,-0.0381 -0.01,-0.0254 -0.025,-0.0381 -0.019,-0.019 -0.038,-0.0381 -0.013,-0.019 -0.032,-0.0317 0.01,-0.0254 -0.013,-0.0381 -0.013,-0.0127 -0.025,-0.0254 -0.013,-0.019 -0.025,-0.0698 l -0.038,-0.0572 q -0.01,-0.0127 0,-0.019 0.025,-0.0254 0,-0.0508 -0.025,-0.0317 0.025,-0.0444 h 0.032 q -0.038,-0.0445 0,-0.0762 0.01,0 0,-0.006 0,-0.0127 0.01,-0.0254 0.038,0.0381 0.057,0.0444 0.025,0.006 0.032,0.019 0.013,0.0127 0.025,0.0254 0.013,-0.0127 0.019,-0.019 0.01,-0.006 0.019,-0.019 -0.01,-0.006 -0.013,-0.006 -0.01,-0.006 -0.019,-0.019 -0.025,-0.0254 0,-0.0508 l 0.019,-0.019 q 0.013,0.0317 0.038,0.0381 0.032,0.006 0.051,0.0317 0.019,0.019 0.038,0.0381 0.025,0.019 0.044,0.0381 0.025,0.0381 0.063,0.0635 -0.01,0.0317 0.013,0.0444 0.019,0.0127 0.032,0.0254 0.038,0.0381 0.051,0.0699 0,0.0127 0.013,0.019 0.013,0.006 0.025,0.019 0.051,0.0508 0.1016,0.1016 0.051,0.0508 0.1016,0.1016 0.013,0.0191 0.038,0.0381 0.025,0.019 0.025,0.0508 l 0.076,0.0762 0.01,0.006 q -0.01,0.0317 0.019,0.0444 0.025,0.0127 0.032,0.0381 0,0.0127 0.013,0.0254 0.032,0.0254 0.044,0.0635 0.019,0.0381 0.044,0.0698 0.013,0.0127 0,0.0127 -0.01,0 -0.01,0.006 -0.013,0.0127 -0.019,0.0318 0,0.0127 -0.013,0.0254 -0.01,0.0127 -0.01,0.0317 0.01,0.019 0.01,0.0317 0.013,0.0127 0.032,0.0127 0.019,-0.006 0.013,0.0254 0,0.0254 0.01,0.0381 0.01,0.0127 0.044,0 -0.019,0.0254 -0.032,0.0381 -0.013,0.0127 -0.019,0.0317 -0.01,0.0127 -0.019,0.0254 -0.013,0.0127 0,0.0317 -0.025,0.0127 -0.032,0.0381 0,0.0254 -0.025,0.0381 -0.025,0.0127 -0.032,0.0381 -0.01,0.0254 -0.025,0.0381 -0.019,0.0127 -0.025,0.0381 0,0.019 -0.019,0.0317 -0.038,0.0254 -0.044,0.0571 -0.01,0.019 -0.025,0.0381 -0.019,0.0127 -0.032,0.0317 -0.013,0.0317 -0.032,0.0508 -0.019,0.019 -0.038,0.0381 0,0.0317 -0.032,0.0508 -0.025,0.0127 -0.019,0.0444 l -0.01,0.006 q -0.01,0.006 -0.01,0.006 -0.019,0.0254 -0.044,0.0444 -0.019,0.0127 -0.032,0.0445 -0.013,0.0254 -0.038,0.0444 -0.025,0.0127 -0.038,0.0381 -0.032,0.0571 -0.076,0.1016 -0.044,0.0381 -0.089,0.0825 -0.019,0.0254 -0.07,0.0508 -0.013,0.0127 -0.025,0.0317 -0.013,0.0127 -0.025,0.0254 -0.013,0.006 -0.032,0.006 -0.019,-0.006 -0.025,-0.019 -0.019,-0.0317 -0.032,-0.0381 -0.01,-0.0127 -0.051,-0.0445 -0.032,-0.0127 -0.032,-0.0381 0,-0.0127 0.01,-0.019 0.013,-0.006 0.013,-0.019 0.01,-0.0127 0.01,-0.019 0,-0.006 0.013,-0.019 v -0.006 l -0.01,-0.006 q -0.019,0 -0.019,0 -0.013,0.0127 -0.025,0.019 -0.013,0.019 -0.051,0.0571 0,-0.0381 0.01,-0.0698 -0.01,0 -0.01,0.006 -0.01,0 -0.01,0.006 0,0 0.01,0 0,0.006 0,0.006 0.01,0 0.01,-0.006 0,0 0.013,-0.0127 z m 0.7429,-1.17475 q -0.01,-0.006 -0.01,-0.0127 h -0.013 v 0.0127 l 0.013,0.0127 v -0.006 q 0,0.006 -0.013,-0.019 0,-0.019 -0.019,-0.019 0,-0.0254 -0.032,-0.0254 h 0.01 v -0.006 q -0.013,-0.0127 -0.019,-0.006 0,0.0127 0.019,0.0127 0,0.0254 0.025,0.0254 0,0.0254 0.038,0.0317 z m 0.07,-0.10795 -0.013,-0.0127 h -0.01 q -0.01,0 -0.01,0.006 0,0 0.01,0 0,0.0127 0.013,0.0127 v -0.006 l -0.013,-0.0127 q 0,-0.0254 -0.025,-0.0254 0,-0.019 -0.032,-0.019 h 0.013 v -0.0127 q -0.013,-0.0127 -0.019,0 -0.01,0 0.019,0.0127 0,0.0317 0.019,0.019 0,0.0254 0.044,0.0381 z m -0.381,-0.2667 q 0,-0.006 -0.01,-0.006 0,0 0,-0.006 h -0.013 v 0.006 q 0.013,0.0127 0.013,0.0127 v -0.006 l -0.013,-0.0127 q 0,-0.0254 -0.019,-0.0254 0,-0.019 -0.025,-0.019 0,-0.0254 -0.032,-0.0254 h 0.013 v -0.006 q -0.013,-0.0127 -0.019,-0.006 -0.013,0.0127 0.019,0.0127 0,0.0254 0.019,0.0254 0,0.0254 0.025,0.019 0,0.0254 0.038,0.0381 z" />
    </g>
    <g
       style="font-style:normal;font-variant:normal;font-weight:normal;font-stretch:normal;font-size:6.35px;line-height:1.05;font-family:THEME;-inkscape-font-specification:THEME;text-align:center;text-anchor:middle;fill:#c9bfb9;fill-opacity:1;stroke:none;stroke-width:0.264999;stroke-linecap:square;stroke-miterlimit:4;stroke-dasharray:none;stroke-opacity:1;paint-order:fill markers stroke"
       id="text24976"
       transform="matrix(0,-1,-1,0,-1061.3271,-287.2533)"
       aria-label="&gt;">
      <path
         id="path25353"
         style="fill:#c9bfb9;fill-opacity:1;stroke-width:0.265"
         d="m -459.64891,-1140.0019 q -0.0127,0.013 -0.0254,0.019 -0.006,0.01 -0.019,0.019 0,-0.01 -0.006,-0.01 0,0 0,-0.01 v -0.1079 q 0.0127,-0.025 0.0381,-0.038 0.0254,-0.019 0.0254,-0.057 0.019,-0.019 0.0381,-0.038 0.0254,-0.019 0.0381,-0.051 0.0317,-0.025 0.0508,-0.057 0.019,-0.038 0.0508,-0.07 0.0127,-0.013 0.0254,-0.032 0.0127,-0.025 0.0254,-0.044 0.0127,-0.019 0.0317,-0.032 0.019,-0.019 0.0317,-0.044 0.0127,-0.019 0.0317,-0.032 0.019,-0.019 0.0317,-0.038 0,-0.032 0.0127,-0.044 0.019,-0.013 0.0317,-0.025 0.0127,-0.013 0.0254,-0.025 0.0127,-0.013 0.0254,-0.038 0,-0.013 0.0127,-0.025 0.019,-0.019 0.0317,-0.032 0.0381,-0.025 0.0445,-0.057 0,-0.013 0.0317,-0.032 0.019,-0.013 0.0254,-0.032 0.006,-0.025 0.019,-0.038 0.0127,-0.019 0.006,-0.038 0,-0.019 0,-0.038 -0.019,-0.025 -0.0444,-0.038 -0.019,-0.019 -0.0254,-0.051 -0.019,-0.025 -0.0445,-0.038 -0.019,-0.019 -0.0317,-0.044 -0.0127,-0.038 -0.0444,-0.063 -0.0254,-0.025 -0.0508,-0.051 -0.0191,-0.013 -0.0254,-0.032 0,-0.025 -0.0254,-0.038 -0.0127,-0.013 -0.0317,-0.032 -0.0127,-0.019 -0.0317,-0.032 -0.019,-0.013 -0.0254,-0.038 0,-0.025 -0.0254,-0.038 -0.0254,-0.013 -0.0318,-0.038 -0.006,-0.025 -0.0254,-0.038 -0.019,-0.019 -0.0381,-0.038 -0.0127,-0.019 -0.0317,-0.032 0.006,-0.025 -0.0127,-0.038 -0.0127,-0.013 -0.0254,-0.025 -0.0127,-0.019 -0.0254,-0.07 l -0.0381,-0.057 q -0.006,-0.013 0,-0.019 0.0254,-0.025 0,-0.051 -0.0254,-0.032 0.0254,-0.044 h 0.0317 q -0.0381,-0.044 0,-0.076 0.006,0 0,-0.01 0,-0.013 0.006,-0.025 0.0381,0.038 0.0572,0.045 0.0254,0.01 0.0317,0.019 0.0127,0.013 0.0254,0.025 0.0127,-0.013 0.019,-0.019 0.006,-0.01 0.019,-0.019 -0.006,-0.01 -0.0127,-0.01 -0.006,-0.01 -0.019,-0.019 -0.0254,-0.025 0,-0.051 l 0.019,-0.019 q 0.0127,0.032 0.0381,0.038 0.0317,0.01 0.0508,0.032 0.019,0.019 0.0381,0.038 0.0254,0.019 0.0444,0.038 0.0254,0.038 0.0635,0.063 -0.006,0.032 0.0127,0.044 0.019,0.013 0.0317,0.025 0.0381,0.038 0.0508,0.07 0,0.013 0.0127,0.019 0.0127,0.01 0.0254,0.019 0.0508,0.051 0.1016,0.1016 0.0508,0.051 0.1016,0.1016 0.0127,0.019 0.0381,0.038 0.0254,0.019 0.0254,0.051 l 0.0762,0.076 0.006,0.01 q -0.006,0.032 0.019,0.044 0.0254,0.013 0.0317,0.038 0,0.013 0.0127,0.025 0.0318,0.025 0.0445,0.063 0.019,0.038 0.0444,0.07 0.0127,0.013 0,0.013 -0.006,0 -0.006,0.01 -0.0127,0.013 -0.019,0.032 0,0.013 -0.0127,0.025 -0.006,0.013 -0.006,0.032 0.006,0.019 0.006,0.032 0.0127,0.013 0.0317,0.013 0.019,-0.01 0.0127,0.025 0,0.025 0.006,0.038 0.006,0.013 0.0444,0 -0.019,0.025 -0.0317,0.038 -0.0127,0.013 -0.019,0.032 -0.006,0.013 -0.019,0.025 -0.0127,0.013 0,0.032 -0.0254,0.013 -0.0317,0.038 0,0.025 -0.0254,0.038 -0.0254,0.013 -0.0318,0.038 -0.006,0.025 -0.0254,0.038 -0.019,0.013 -0.0254,0.038 0,0.019 -0.019,0.032 -0.0381,0.025 -0.0444,0.057 -0.006,0.019 -0.0254,0.038 -0.019,0.013 -0.0317,0.032 -0.0127,0.032 -0.0317,0.051 -0.019,0.019 -0.0381,0.038 0,0.032 -0.0317,0.051 -0.0254,0.013 -0.0191,0.045 l -0.006,0.01 q -0.006,0.01 -0.006,0.01 -0.019,0.025 -0.0444,0.044 -0.019,0.013 -0.0317,0.044 -0.0127,0.025 -0.0381,0.044 -0.0254,0.013 -0.0381,0.038 -0.0317,0.057 -0.0762,0.1016 -0.0444,0.038 -0.0889,0.083 -0.019,0.025 -0.0698,0.051 -0.0127,0.013 -0.0254,0.032 -0.0127,0.013 -0.0254,0.025 -0.0127,0.01 -0.0318,0.01 -0.019,-0.01 -0.0254,-0.019 -0.019,-0.032 -0.0317,-0.038 -0.006,-0.013 -0.0508,-0.044 -0.0318,-0.013 -0.0318,-0.038 0,-0.013 0.006,-0.019 0.0127,-0.01 0.0127,-0.019 0.006,-0.013 0.006,-0.019 0,-0.01 0.0127,-0.019 v -0.01 l -0.006,-0.01 q -0.0191,0 -0.0191,0 -0.0127,0.013 -0.0254,0.019 -0.0127,0.019 -0.0508,0.057 0,-0.038 0.006,-0.07 -0.006,0 -0.006,0.01 -0.006,0 -0.006,0.01 0,0 0.006,0 0,0.01 0,0.01 0.006,0 0.006,-0.01 0,0 0.0127,-0.013 z m 0.74295,-1.1747 q -0.006,-0.01 -0.006,-0.013 h -0.0127 v 0.013 l 0.0127,0.013 v -0.01 q 0,0.01 -0.0127,-0.019 0,-0.019 -0.019,-0.019 0,-0.025 -0.0318,-0.025 h 0.006 v -0.01 q -0.0127,-0.013 -0.019,-0.01 0,0.013 0.019,0.013 0,0.025 0.0254,0.025 0,0.025 0.0381,0.032 z m 0.0698,-0.108 -0.0127,-0.013 h -0.006 q -0.006,0 -0.006,0.01 0,0 0.006,0 0,0.013 0.0127,0.013 v -0.01 l -0.0127,-0.013 q 0,-0.025 -0.0254,-0.025 0,-0.019 -0.0317,-0.019 h 0.0127 v -0.013 q -0.0127,-0.013 -0.019,0 -0.006,0 0.019,0.013 0,0.032 0.019,0.019 0,0.025 0.0444,0.038 z m -0.381,-0.2667 q 0,-0.01 -0.006,-0.01 0,0 0,-0.01 h -0.0127 v 0.01 q 0.0127,0.013 0.0127,0.013 v -0.01 l -0.0127,-0.013 q 0,-0.025 -0.019,-0.025 0,-0.019 -0.0254,-0.019 0,-0.025 -0.0317,-0.025 h 0.0127 v -0.01 q -0.0127,-0.013 -0.019,-0.01 -0.0127,0.013 0.019,0.013 0,0.025 0.019,0.025 0,0.025 0.0254,0.019 0,0.025 0.0381,0.038 z" />
    </g>
    <g
       style="font-style:normal;font-variant:normal;font-weight:normal;font-stretch:normal;font-size:6.35px;line-height:1.05;font-family:THEME;-inkscape-font-specification:THEME;text-align:center;text-anchor:middle;fill:#c9bfb9;fill-opacity:1;stroke:none;stroke-width:0.264999;stroke-linecap:square;stroke-miterlimit:4;stroke-dasharray:none;stroke-opacity:1;paint-order:fill markers stroke"
       id="text24980"
       transform="rotate(90,-387.03692,-674.29021)"
       aria-label="&gt;">
      <path
         id="path25356"
         style="fill:#c9bfb9;fill-opacity:1;stroke-width:0.265"
         d="m 466.50694,-1140.0019 q -0.0127,0.013 -0.0254,0.019 -0.006,0.01 -0.019,0.019 0,-0.01 -0.006,-0.01 0,0 0,-0.01 v -0.1079 q 0.0127,-0.025 0.0381,-0.038 0.0254,-0.019 0.0254,-0.057 0.019,-0.019 0.0381,-0.038 0.0254,-0.019 0.0381,-0.051 0.0317,-0.025 0.0508,-0.057 0.019,-0.038 0.0508,-0.07 0.0127,-0.013 0.0254,-0.032 0.0127,-0.025 0.0254,-0.044 0.0127,-0.019 0.0317,-0.032 0.019,-0.019 0.0317,-0.044 0.0127,-0.019 0.0317,-0.032 0.0191,-0.019 0.0318,-0.038 0,-0.032 0.0127,-0.044 0.019,-0.013 0.0317,-0.025 0.0127,-0.013 0.0254,-0.025 0.0127,-0.013 0.0254,-0.038 0,-0.013 0.0127,-0.025 0.019,-0.019 0.0318,-0.032 0.0381,-0.025 0.0444,-0.057 0,-0.013 0.0317,-0.032 0.019,-0.013 0.0254,-0.032 0.006,-0.025 0.019,-0.038 0.0127,-0.019 0.006,-0.038 0,-0.019 0,-0.038 -0.019,-0.025 -0.0444,-0.038 -0.019,-0.019 -0.0254,-0.051 -0.019,-0.025 -0.0444,-0.038 -0.019,-0.019 -0.0318,-0.044 -0.0127,-0.038 -0.0444,-0.063 -0.0254,-0.025 -0.0508,-0.051 -0.019,-0.013 -0.0254,-0.032 0,-0.025 -0.0254,-0.038 -0.0127,-0.013 -0.0317,-0.032 -0.0127,-0.019 -0.0317,-0.032 -0.019,-0.013 -0.0254,-0.038 0,-0.025 -0.0254,-0.038 -0.0254,-0.013 -0.0317,-0.038 -0.006,-0.025 -0.0254,-0.038 -0.019,-0.019 -0.0381,-0.038 -0.0127,-0.019 -0.0317,-0.032 0.006,-0.025 -0.0127,-0.038 -0.0127,-0.013 -0.0254,-0.025 -0.0127,-0.019 -0.0254,-0.07 l -0.0381,-0.057 q -0.006,-0.013 0,-0.019 0.0254,-0.025 0,-0.051 -0.0254,-0.032 0.0254,-0.044 h 0.0318 q -0.0381,-0.044 0,-0.076 0.006,0 0,-0.01 0,-0.013 0.006,-0.025 0.0381,0.038 0.0571,0.045 0.0254,0.01 0.0317,0.019 0.0127,0.013 0.0254,0.025 0.0127,-0.013 0.0191,-0.019 0.006,-0.01 0.019,-0.019 -0.006,-0.01 -0.0127,-0.01 -0.006,-0.01 -0.0191,-0.019 -0.0254,-0.025 0,-0.051 l 0.0191,-0.019 q 0.0127,0.032 0.0381,0.038 0.0317,0.01 0.0508,0.032 0.019,0.019 0.0381,0.038 0.0254,0.019 0.0445,0.038 0.0254,0.038 0.0635,0.063 -0.006,0.032 0.0127,0.044 0.019,0.013 0.0317,0.025 0.0381,0.038 0.0508,0.07 0,0.013 0.0127,0.019 0.0127,0.01 0.0254,0.019 0.0508,0.051 0.1016,0.1016 0.0508,0.051 0.1016,0.1016 0.0127,0.019 0.0381,0.038 0.0254,0.019 0.0254,0.051 l 0.0762,0.076 0.006,0.01 q -0.006,0.032 0.019,0.044 0.0254,0.013 0.0318,0.038 0,0.013 0.0127,0.025 0.0317,0.025 0.0444,0.063 0.019,0.038 0.0444,0.07 0.0127,0.013 0,0.013 -0.006,0 -0.006,0.01 -0.0127,0.013 -0.019,0.032 0,0.013 -0.0127,0.025 -0.006,0.013 -0.006,0.032 0.006,0.019 0.006,0.032 0.0127,0.013 0.0317,0.013 0.019,-0.01 0.0127,0.025 0,0.025 0.006,0.038 0.006,0.013 0.0445,0 -0.019,0.025 -0.0318,0.038 -0.0127,0.013 -0.019,0.032 -0.006,0.013 -0.019,0.025 -0.0127,0.013 0,0.032 -0.0254,0.013 -0.0317,0.038 0,0.025 -0.0254,0.038 -0.0254,0.013 -0.0317,0.038 -0.006,0.025 -0.0254,0.038 -0.019,0.013 -0.0254,0.038 0,0.019 -0.019,0.032 -0.0381,0.025 -0.0444,0.057 -0.006,0.019 -0.0254,0.038 -0.019,0.013 -0.0318,0.032 -0.0127,0.032 -0.0317,0.051 -0.019,0.019 -0.0381,0.038 0,0.032 -0.0317,0.051 -0.0254,0.013 -0.019,0.045 l -0.006,0.01 q -0.006,0.01 -0.006,0.01 -0.0191,0.025 -0.0445,0.044 -0.019,0.013 -0.0317,0.044 -0.0127,0.025 -0.0381,0.044 -0.0254,0.013 -0.0381,0.038 -0.0318,0.057 -0.0762,0.1016 -0.0444,0.038 -0.0889,0.083 -0.0191,0.025 -0.0699,0.051 -0.0127,0.013 -0.0254,0.032 -0.0127,0.013 -0.0254,0.025 -0.0127,0.01 -0.0317,0.01 -0.0191,-0.01 -0.0254,-0.019 -0.019,-0.032 -0.0317,-0.038 -0.006,-0.013 -0.0508,-0.044 -0.0317,-0.013 -0.0317,-0.038 0,-0.013 0.006,-0.019 0.0127,-0.01 0.0127,-0.019 0.006,-0.013 0.006,-0.019 0,-0.01 0.0127,-0.019 v -0.01 l -0.006,-0.01 q -0.019,0 -0.019,0 -0.0127,0.013 -0.0254,0.019 -0.0127,0.019 -0.0508,0.057 0,-0.038 0.006,-0.07 -0.006,0 -0.006,0.01 -0.006,0 -0.006,0.01 0,0 0.006,0 0,0.01 0,0.01 0.006,0 0.006,-0.01 0,0 0.0127,-0.013 z m 0.74295,-1.1747 q -0.006,-0.01 -0.006,-0.013 h -0.0127 v 0.013 l 0.0127,0.013 v -0.01 q 0,0.01 -0.0127,-0.019 0,-0.019 -0.019,-0.019 0,-0.025 -0.0317,-0.025 h 0.006 v -0.01 q -0.0127,-0.013 -0.019,-0.01 0,0.013 0.019,0.013 0,0.025 0.0254,0.025 0,0.025 0.0381,0.032 z m 0.0699,-0.108 -0.0127,-0.013 h -0.006 q -0.006,0 -0.006,0.01 0,0 0.006,0 0,0.013 0.0127,0.013 v -0.01 l -0.0127,-0.013 q 0,-0.025 -0.0254,-0.025 0,-0.019 -0.0317,-0.019 h 0.0127 v -0.013 q -0.0127,-0.013 -0.019,0 -0.006,0 0.019,0.013 0,0.032 0.019,0.019 0,0.025 0.0445,0.038 z m -0.381,-0.2667 q 0,-0.01 -0.006,-0.01 0,0 0,-0.01 h -0.0127 v 0.01 q 0.0127,0.013 0.0127,0.013 v -0.01 l -0.0127,-0.013 q 0,-0.025 -0.019,-0.025 0,-0.019 -0.0254,-0.019 0,-0.025 -0.0318,-0.025 h 0.0127 v -0.01 q -0.0127,-0.013 -0.0191,-0.01 -0.0127,0.013 0.0191,0.013 0,0.025 0.019,0.025 0,0.025 0.0254,0.019 0,0.025 0.0381,0.038 z" />
    </g>
    <path
       sodipodi:nodetypes="cccccccccccccccc"
       id="path25120"
       d="m 81.085378,174.28081 c 0,0 0,-0.001 0,-0.001 -0.06,-0.28424 -0.089,-0.48184 -0.1086,-0.63698 -0.1656,-0.14242 -0.2581,-0.24674 -0.4622,-0.41677 0.2114,0.13313 0.3654,0.20802 0.5768,0.34115 0.052,0.15419 0.1161,0.36466 0.1948,0.68338 0,0 10e-5,0.001 10e-5,0.001 l 0.058,0.92016 -0.1776,1.01504 v 0 l -0.1343,1.26935 v 0 l -0.3429,0.59688 -0.4216,0.33935 -0.4488,0.0124 -0.2656,0.007 -0.411,0.0113 -0.6516,-0.40166 -0.3148,-0.87816 v 0 l -0.095,-1.05899 v 0 l -0.1562,-0.74944 0.02,-0.97471 c 0,-0.0909 0,-0.17281 0.01,-0.24698 0.1597,-0.32446 0.2621,-0.48846 0.358,-0.64295 0,0 0,0 0,0 0.1103,-0.0512 0.2195,-0.10047 0.3536,-0.169 -0.126,0.0871 -0.2128,0.15545 -0.2959,0.22059 -0.054,0.1728 -0.1043,0.3432 -0.2265,0.63443 6.09e-4,0.0711 2e-4,0.14902 0,0.23535 l -0.015,0.92425 0.156,0.73858 v 0 l 0.091,1.04659 c 0.089,0.26673 0.1776,0.53345 0.2664,0.80018 l 0.5528,0.33318 c 0.1227,-0.003 0.2454,-0.005 0.368,-0.008 l 0.2377,-0.005 0.4017,-0.009 0.336,-0.28843 c 0.1022,-0.17628 0.2044,-0.35256 0.3065,-0.52884 0.041,-0.41204 0.082,-0.82409 0.1223,-1.23613 v 0 l 0.1772,-0.99824 z"
       style="fill:#c9bfb9;fill-opacity:1;stroke:none;stroke-width:0.0867288;stroke-linecap:butt;stroke-linejoin:miter;stroke-miterlimit:4;stroke-dasharray:none;stroke-opacity:1" />
    <path
       id="path25122"
       d="m 78.348878,175.79705 c -0.1958,-0.0189 -0.2179,-0.0661 -0.3288,-0.0948 0.1142,-0.008 0.1484,-0.0484 0.3373,-0.03 l 0.5781,0.0564 0.6172,-0.0371 0.064,-0.004 0.4011,-0.0241 0.7922,0.0649 v 0 l 0.01,4e-5 c 0.1895,0.001 0.2192,0.0452 0.332,0.0645 -0.1133,0.0171 -0.1404,0.0618 -0.3374,0.0606 l -0.01,-5e-5 v 0 l -0.7882,-0.0649 -0.4014,0.024 -0.064,0.004 -0.6178,0.037 z"
       style="fill:#c9bfb9;fill-opacity:1;stroke:none;stroke-width:0.0865926px;stroke-linecap:butt;stroke-linejoin:miter;stroke-opacity:1"
       sodipodi:nodetypes="ccccc" />
    <path
       sodipodi:nodetypes="cccc"
       id="path25124"
       d="m 79.556378,173.30769 c 0,-0.0266 0.033,-0.0329 0.046,-0.0494 0.016,0.0142 0.051,0.0157 0.053,0.0417 l 0.013,0.16369 6.09e-4,0.009 0.013,0.16368 c 0,0.026 -0.033,0.0329 -0.046,0.0494 -0.015,-0.0143 -0.051,-0.0151 -0.053,-0.0417 l -0.013,-0.16368 -6.09e-4,-0.009 z m 0.026,1.96267 c 0,-0.0347 0.038,-0.0371 0.053,-0.0563 0.014,0.021 0.048,0.0286 0.046,0.0625 l -0.013,0.2134 -6.88e-4,0.0113 -0.013,0.21338 c 0,0.0339 -0.037,0.0372 -0.053,0.0563 -0.013,-0.021 -0.048,-0.0278 -0.046,-0.0625 l 0.013,-0.21338 6.88e-4,-0.0113 z"
       style="fill:#c9bfb9;fill-opacity:1;stroke:none;stroke-width:0.0865926px;stroke-linecap:butt;stroke-linejoin:miter;stroke-opacity:1" />
    <path
       sodipodi:nodetypes="cccccccccccc"
       id="path25126"
       d="m 79.839178,174.062 c 0.01,-0.0747 0.014,-0.12755 0.023,-0.16996 -0.032,-0.0562 -0.042,-0.0943 -0.082,-0.16154 0.054,0.0556 0.094,0.0825 0.149,0.14124 0,0.0412 0.01,0.0948 7.94e-4,0.1734 l -0.018,0.32709 0.016,0.34268 v 0 l -0.029,0.35523 -0.1545,0.18197 -0.1099,0.006 -0.08,0.004 -0.074,0.004 -0.184799,-0.1899 c 0,0 0,0 0,0 -0.012,-0.13527 -0.023,-0.27054 -0.035,-0.40581 l 0.052,-0.48025 -0.017,-0.14013 c -0.01,-0.0634 -0.011,-0.11126 -0.012,-0.14869 0.064,-0.0755 0.1058,-0.1027 0.1645,-0.16609 -0.043,0.0759 -0.049,0.115 -0.09,0.18446 0.01,0.0365 0.02,0.0815 0.03,0.13995 l 0.021,0.1288 -0.052,0.48365 0.021,0.36693 v 0 l 0.1336,0.14468 0.053,-0.003 0.058,-0.003 0.08,-0.004 0.1083,-0.13669 0.019,-0.32189 -0.016,-0.3424 z"
       style="fill:#c9bfb9;fill-opacity:1;stroke:none;stroke-width:0.180252;stroke-linecap:butt;stroke-linejoin:miter;stroke-miterlimit:4;stroke-dasharray:none;stroke-opacity:1" />
  </g>
</svg>
