<?xml version="1.0" encoding="UTF-8" standalone="no"?>
<svg
   xmlns:dc="http://purl.org/dc/elements/1.1/"
   xmlns:cc="http://creativecommons.org/ns#"
   xmlns:rdf="http://www.w3.org/1999/02/22-rdf-syntax-ns#"
   xmlns:svg="http://www.w3.org/2000/svg"
   xmlns="http://www.w3.org/2000/svg"
   xmlns:sodipodi="http://sodipodi.sourceforge.net/DTD/sodipodi-0.dtd"
   xmlns:inkscape="http://www.inkscape.org/namespaces/inkscape"
   sodipodi:docname="15_small_keyboard_button.svg"
   inkscape:version="1.0 (4035a4fb49, 2020-05-01)"
   id="svg9721"
   version="1.1"
   viewBox="0 0 9.5250034 9.5249996"
   height="9.5249996mm"
   width="9.5250034mm">
  <defs
     id="defs9715" />
  <sodipodi:namedview
     inkscape:window-maximized="1"
     inkscape:window-y="-8"
     inkscape:window-x="-8"
     inkscape:window-height="705"
     inkscape:window-width="1366"
     fit-margin-bottom="0"
     fit-margin-right="0"
     fit-margin-left="0"
     fit-margin-top="0"
     showgrid="false"
     inkscape:document-rotation="0"
     inkscape:current-layer="layer1"
     inkscape:document-units="mm"
     inkscape:cy="13.19465"
     inkscape:cx="27.738938"
     inkscape:zoom="5.3691756"
     inkscape:pageshadow="2"
     inkscape:pageopacity="0.0"
     borderopacity="1.0"
     bordercolor="#666666"
     pagecolor="#ffffff"
     id="base" />
  <metadata
     id="metadata9718">
    <rdf:RDF>
      <cc:Work
         rdf:about="">
        <dc:format>image/svg+xml</dc:format>
        <dc:type
           rdf:resource="http://purl.org/dc/dcmitype/StillImage" />
        <dc:title></dc:title>
      </cc:Work>
    </rdf:RDF>
  </metadata>
  <g
     transform="translate(-99.313067,-230.19598)"
     id="layer1"
     inkscape:groupmode="layer"
     inkscape:label="Layer 1">
    <path
       sodipodi:nodetypes="ccccccccccccccc"
       id="path24934"
       d="m 107.26897,233.07461 c 0.01,-0.13108 0.015,-0.25037 0.024,-0.35969 -0.095,-0.30058 -0.1589,-0.53136 -0.2096,-0.72282 -0.2907,-0.12791 -0.4852,-0.23566 -0.8568,-0.39505 0.3726,0.11461 0.5999,0.16512 0.9725,0.27974 0.091,0.19517 0.2026,0.44631 0.3465,0.80076 0,0.11049 -0.01,0.23125 -0.017,0.3641 l -0.1168,2.156 0.1146,1.69839 -0.3005,0.97613 v 0 l -0.9998,0.44772 -1.9463,-0.0867 -0.413,-0.0184 -0.1458,-0.007 -2.1314,-0.007 v 0 l -0.7178,-0.37625 -0.2027,-0.78833 0.021,-2.70053 -0.067,-1.32412 c -0.01,-0.15087 -0.013,-0.28637 -0.017,-0.40883 0.1773,-0.36543 0.3093,-0.6127 0.4171,-0.8076 0.3126,-0.073 0.5533,-0.11375 0.9113,-0.19876 -0.352,0.12448 -0.5499,0.21436 -0.8119,0.31187 -0.066,0.19687 -0.146,0.42865 -0.2686,0.73985 0.01,0.11946 0.018,0.25122 0.027,0.39767 l 0.076,1.28372 -0.025,2.67827 0.1287,0.66773 0.5878,0.27245 2.0782,-0.007 0.1429,0.007 0.4043,0.0202 1.9055,0.095 0.8652,-0.35114 v 0 l 0.2199,-0.84427 -0.1194,-1.66919 z"
       style="fill:#c9bfb9;fill-opacity:1;stroke:none;stroke-width:0.264583px;stroke-linecap:butt;stroke-linejoin:miter;stroke-opacity:1" />
  </g>
</svg>
