<?xml version="1.0" encoding="UTF-8" standalone="no"?>
<svg
   xmlns:dc="http://purl.org/dc/elements/1.1/"
   xmlns:cc="http://creativecommons.org/ns#"
   xmlns:rdf="http://www.w3.org/1999/02/22-rdf-syntax-ns#"
   xmlns:svg="http://www.w3.org/2000/svg"
   xmlns="http://www.w3.org/2000/svg"
   xmlns:sodipodi="http://sodipodi.sourceforge.net/DTD/sodipodi-0.dtd"
   xmlns:inkscape="http://www.inkscape.org/namespaces/inkscape"
   sodipodi:docname="16_medium_keyboard_button.svg"
   inkscape:version="1.0 (4035a4fb49, 2020-05-01)"
   id="svg10308"
   version="1.1"
   viewBox="0 0 15.875 9.5249996"
   height="9.5249996mm"
   width="15.875mm">
  <defs
     id="defs10302" />
  <sodipodi:namedview
     inkscape:window-maximized="1"
     inkscape:window-y="-8"
     inkscape:window-x="-8"
     inkscape:window-height="705"
     inkscape:window-width="1366"
     fit-margin-bottom="0"
     fit-margin-right="0"
     fit-margin-left="0"
     fit-margin-top="0"
     showgrid="false"
     inkscape:document-rotation="0"
     inkscape:current-layer="layer1"
     inkscape:document-units="mm"
     inkscape:cy="25.37122"
     inkscape:cx="27.463698"
     inkscape:zoom="7.593161"
     inkscape:pageshadow="2"
     inkscape:pageopacity="0.0"
     borderopacity="1.0"
     bordercolor="#666666"
     pagecolor="#ffffff"
     id="base" />
  <metadata
     id="metadata10305">
    <rdf:RDF>
      <cc:Work
         rdf:about="">
        <dc:format>image/svg+xml</dc:format>
        <dc:type
           rdf:resource="http://purl.org/dc/dcmitype/StillImage" />
        <dc:title></dc:title>
      </cc:Work>
    </rdf:RDF>
  </metadata>
  <g
     transform="translate(-131.61837,-87.486298)"
     id="layer1"
     inkscape:groupmode="layer"
     inkscape:label="Layer 1">
    <path
       sodipodi:nodetypes="cccccccccccccccc"
       id="path24938"
       d="m 146.29317,91.053978 c 0.027,-0.470119 0.055,-0.82873 0.083,-1.12117 -0.085,-0.28661 -0.1479,-0.51969 -0.2084,-0.73707 -0.2566,-0.11185 -0.5058,-0.22673 -0.8734,-0.37851 0.3759,0.12156 0.6529,0.20133 0.9562,0.29602 0.098,0.21721 0.208,0.45991 0.347,0.78681 0,0.29498 -0.017,0.65714 -0.043,1.1321 l -0.075,1.38567 0.1146,1.698391 -0.3005,0.976129 v 0 l -0.9943,0.44775 -3.8155,0.14025 v 0 l -1.6569,-0.0844 -0.5545,-0.0282 -2.7348,-0.13924 -3.0571,-0.007 v 0 l -0.7178,-0.37625 -0.2027,-0.78833 v 0 l 0.021,-2.70053 -0.028,-0.54731 c -0.025,-0.50088 -0.037,-0.87898 -0.04,-1.18264 0.1678,-0.33192 0.297,-0.57222 0.4154,-0.79391 0.2802,-0.0675 0.5462,-0.12691 0.8966,-0.21545 -0.3445,0.11656 -0.5885,0.2087 -0.8268,0.29489 -0.08,0.22664 -0.1607,0.46057 -0.2698,0.75388 0.029,0.29768 0.059,0.6661 0.088,1.15373 l 0.032,0.53061 -0.025,2.678271 0.1287,0.66773 0.5878,0.272449 3.0045,-0.007 2.7321,0.139291 0.554,0.0282 1.6553,0.0844 v 0 l 3.7563,-0.129631 0.8707,-0.35111 0.2199,-0.84427 -0.1194,-1.66919 z"
       style="fill:#c9bfb9;fill-opacity:1;stroke:none;stroke-width:0.264583px;stroke-linecap:butt;stroke-linejoin:miter;stroke-opacity:1" />
  </g>
</svg>
