<?xml version="1.0" encoding="UTF-8" standalone="no"?>
<svg
   xmlns:dc="http://purl.org/dc/elements/1.1/"
   xmlns:cc="http://creativecommons.org/ns#"
   xmlns:rdf="http://www.w3.org/1999/02/22-rdf-syntax-ns#"
   xmlns:svg="http://www.w3.org/2000/svg"
   xmlns="http://www.w3.org/2000/svg"
   xmlns:sodipodi="http://sodipodi.sourceforge.net/DTD/sodipodi-0.dtd"
   xmlns:inkscape="http://www.inkscape.org/namespaces/inkscape"
   sodipodi:docname="17_big_keyboard_button.svg"
   inkscape:version="1.0 (4035a4fb49, 2020-05-01)"
   id="svg10895"
   version="1.1"
   viewBox="0 0 19.8437 9.5249996"
   height="9.5249996mm"
   width="19.8437mm">
  <defs
     id="defs10889" />
  <sodipodi:namedview
     inkscape:window-maximized="1"
     inkscape:window-y="-8"
     inkscape:window-x="-8"
     inkscape:window-height="705"
     inkscape:window-width="1366"
     fit-margin-bottom="0"
     fit-margin-right="0"
     fit-margin-left="0"
     fit-margin-top="0"
     showgrid="false"
     inkscape:document-rotation="0"
     inkscape:current-layer="layer1"
     inkscape:document-units="mm"
     inkscape:cy="27.445172"
     inkscape:cx="51.204199"
     inkscape:zoom="5.3691756"
     inkscape:pageshadow="2"
     inkscape:pageopacity="0.0"
     borderopacity="1.0"
     bordercolor="#666666"
     pagecolor="#ffffff"
     id="base" />
  <metadata
     id="metadata10892">
    <rdf:RDF>
      <cc:Work
         rdf:about="">
        <dc:format>image/svg+xml</dc:format>
        <dc:type
           rdf:resource="http://purl.org/dc/dcmitype/StillImage" />
        <dc:title></dc:title>
      </cc:Work>
    </rdf:RDF>
  </metadata>
  <g
     transform="translate(-49.211995,-119.02435)"
     id="layer1"
     inkscape:groupmode="layer"
     inkscape:label="Layer 1">
    <path
       style="fill:#c9bfb9;fill-opacity:1;stroke:none;stroke-width:0.264583px;stroke-linecap:butt;stroke-linejoin:miter;stroke-opacity:1"
       d="m 67.762595,122.99816 c 0.039,-0.67775 0.079,-1.15241 0.1166,-1.5287 -0.082,-0.27972 -0.1444,-0.50813 -0.2118,-0.74191 -0.2523,-0.10807 -0.5164,-0.22427 -0.8797,-0.37224 0.3645,0.11988 0.6622,0.21075 0.95,0.30216 0.1013,0.22946 0.21,0.47137 0.3435,0.78211 0,0.38013 -0.018,0.85933 -0.055,1.54272 l -0.053,0.97361 0.1146,1.69839 -0.3005,0.97613 -0.9986,0.44777 -3.9102,-0.10713 v 0 l -3.4356,0.18486 -0.6322,0.034 -0.5284,0.0284 -5.0134,-0.25177 -2.1312,-0.007 -0.7178,-0.37625 -0.2027,-0.78833 0.021,-2.70053 -0.01,-0.13177 c -0.036,-0.71295 -0.049,-1.20884 -0.052,-1.59639 0.1601,-0.31394 0.2881,-0.55443 0.4109,-0.78966 0.268,-0.0662 0.5519,-0.13394 0.8913,-0.22149 -0.3396,0.11312 -0.5956,0.2052 -0.8322,0.28872 -0.1097,0.29948 -0.1646,0.45879 -0.2742,0.75826 0.039,0.37984 0.08,0.86309 0.1216,1.55838 l 0.01,0.12775 -0.025,2.67827 v 0 l 0.1287,0.66773 0.5878,0.27245 2.0784,-0.007 v 0 l 5.0064,0.25197 0.528,-0.0284 0.6318,-0.034 3.4334,-0.18494 3.865,0.11771 0.8664,-0.35109 0.2199,-0.84427 -0.1194,-1.66919 z"
       id="path24930"
       sodipodi:nodetypes="ccccccccccccccccc" />
  </g>
</svg>
