<?xml version="1.0" encoding="UTF-8" standalone="no"?>
<svg
   xmlns:dc="http://purl.org/dc/elements/1.1/"
   xmlns:cc="http://creativecommons.org/ns#"
   xmlns:rdf="http://www.w3.org/1999/02/22-rdf-syntax-ns#"
   xmlns:svg="http://www.w3.org/2000/svg"
   xmlns="http://www.w3.org/2000/svg"
   xmlns:sodipodi="http://sodipodi.sourceforge.net/DTD/sodipodi-0.dtd"
   xmlns:inkscape="http://www.inkscape.org/namespaces/inkscape"
   sodipodi:docname="18_chevron_left.svg"
   inkscape:version="1.0 (4035a4fb49, 2020-05-01)"
   id="svg25685"
   version="1.1"
   viewBox="0 0 8.4666662 8.4666662"
   height="31.999998"
   width="31.999998">
  <defs
     id="defs25679" />
  <sodipodi:namedview
     units="px"
     inkscape:window-maximized="1"
     inkscape:window-y="-8"
     inkscape:window-x="-8"
     inkscape:window-height="705"
     inkscape:window-width="1366"
     fit-margin-bottom="0"
     fit-margin-right="0"
     fit-margin-left="0"
     fit-margin-top="0"
     showgrid="false"
     inkscape:document-rotation="0"
     inkscape:current-layer="layer1"
     inkscape:document-units="mm"
     inkscape:cy="14.33158"
     inkscape:cx="20.208113"
     inkscape:zoom="10.738351"
     inkscape:pageshadow="2"
     inkscape:pageopacity="0.0"
     borderopacity="1.0"
     bordercolor="#666666"
     pagecolor="#ffffff"
     id="base" />
  <metadata
     id="metadata25682">
    <rdf:RDF>
      <cc:Work
         rdf:about="">
        <dc:format>image/svg+xml</dc:format>
        <dc:type
           rdf:resource="http://purl.org/dc/dcmitype/StillImage" />
        <dc:title></dc:title>
      </cc:Work>
    </rdf:RDF>
  </metadata>
  <g
     transform="translate(-50.958256,-123.49577)"
     id="layer1"
     inkscape:groupmode="layer"
     inkscape:label="Layer 1">
    <rect
       style="fill:#d8dfff;fill-opacity:1;stroke-width:0.264999;stroke-linecap:square;paint-order:fill markers stroke"
       id="rect14480"
       width="8.4666662"
       height="8.4666662"
       x="50.958256"
       y="123.49577"
       inkscape:export-filename="D:\Calcatz\Icon Pack\Adventure Narrative Inspired by Jumanji\Assets\PNG\Icons\17_chevron_left.png"
       inkscape:export-xdpi="96"
       inkscape:export-ydpi="96" />
    <g
       aria-label="&gt;"
       id="g14478"
       style="font-weight:500;font-size:12.7px;line-height:1.05;font-family:Roboto;-inkscape-font-specification:'Roboto Medium';text-align:center;text-anchor:middle;fill:#ffffff;fill-opacity:1;stroke:none;stroke-width:1.5875;stroke-linecap:square;stroke-miterlimit:4;stroke-dasharray:none;stroke-opacity:1;paint-order:fill markers stroke"
       transform="matrix(-1.3923782,0,0,1.3923782,-238.44513,-452.80713)">
      <path
         d="m -211.96812,418.85631 q -0.0254,0.0254 -0.0508,0.0381 -0.0127,0.0127 -0.0381,0.0381 0,-0.0127 -0.0127,-0.0127 0,0 0,-0.0127 v -0.2159 q 0.0254,-0.0508 0.0762,-0.0762 0.0508,-0.0381 0.0508,-0.1143 0.0381,-0.0381 0.0762,-0.0762 0.0508,-0.0381 0.0762,-0.1016 0.0635,-0.0508 0.1016,-0.1143 0.0381,-0.0762 0.1016,-0.1397 0.0254,-0.0254 0.0508,-0.0635 0.0254,-0.0508 0.0508,-0.0889 0.0254,-0.0381 0.0635,-0.0635 0.0381,-0.0381 0.0635,-0.0889 0.0254,-0.0381 0.0635,-0.0635 0.0381,-0.0381 0.0635,-0.0762 0,-0.0635 0.0254,-0.0889 0.0381,-0.0254 0.0635,-0.0508 0.0254,-0.0254 0.0508,-0.0508 0.0254,-0.0254 0.0508,-0.0762 0,-0.0254 0.0254,-0.0508 0.0381,-0.0381 0.0635,-0.0635 0.0762,-0.0508 0.0889,-0.1143 0,-0.0254 0.0635,-0.0635 0.0381,-0.0254 0.0508,-0.0635 0.0127,-0.0508 0.0381,-0.0762 0.0254,-0.0381 0.0127,-0.0762 0,-0.0381 0,-0.0762 -0.0381,-0.0508 -0.0889,-0.0762 -0.0381,-0.0381 -0.0508,-0.1016 -0.0381,-0.0508 -0.0889,-0.0762 -0.0381,-0.0381 -0.0635,-0.0889 -0.0254,-0.0762 -0.0889,-0.127 -0.0508,-0.0508 -0.1016,-0.1016 -0.0381,-0.0254 -0.0508,-0.0635 0,-0.0508 -0.0508,-0.0762 -0.0254,-0.0254 -0.0635,-0.0635 -0.0254,-0.0381 -0.0635,-0.0635 -0.0381,-0.0254 -0.0508,-0.0762 0,-0.0508 -0.0508,-0.0762 -0.0508,-0.0254 -0.0635,-0.0762 -0.0127,-0.0508 -0.0508,-0.0762 -0.0381,-0.0381 -0.0762,-0.0762 -0.0254,-0.0381 -0.0635,-0.0635 0.0127,-0.0508 -0.0254,-0.0762 -0.0254,-0.0254 -0.0508,-0.0508 -0.0254,-0.0381 -0.0508,-0.1397 l -0.0762,-0.1143 q -0.0127,-0.0254 0,-0.0381 0.0508,-0.0508 0,-0.1016 -0.0508,-0.0635 0.0508,-0.0889 h 0.0635 q -0.0762,-0.0889 0,-0.1524 0.0127,0 0,-0.0127 0,-0.0254 0.0127,-0.0508 0.0762,0.0762 0.1143,0.0889 0.0508,0.0127 0.0635,0.0381 0.0254,0.0254 0.0508,0.0508 0.0254,-0.0254 0.0381,-0.0381 0.0127,-0.0127 0.0381,-0.0381 -0.0127,-0.0127 -0.0254,-0.0127 -0.0127,-0.0127 -0.0381,-0.0381 -0.0508,-0.0508 0,-0.1016 l 0.0381,-0.0381 q 0.0254,0.0635 0.0762,0.0762 0.0635,0.0127 0.1016,0.0635 0.0381,0.0381 0.0762,0.0762 0.0508,0.0381 0.0889,0.0762 0.0508,0.0762 0.127,0.127 -0.0127,0.0635 0.0254,0.0889 0.0381,0.0254 0.0635,0.0508 0.0762,0.0762 0.1016,0.1397 0,0.0254 0.0254,0.0381 0.0254,0.0127 0.0508,0.0381 0.1016,0.1016 0.2032,0.2032 0.1016,0.1016 0.2032,0.2032 0.0254,0.0381 0.0762,0.0762 0.0508,0.0381 0.0508,0.1016 l 0.1524,0.1524 0.0127,0.0127 q -0.0127,0.0635 0.0381,0.0889 0.0508,0.0254 0.0635,0.0762 0,0.0254 0.0254,0.0508 0.0635,0.0508 0.0889,0.127 0.0381,0.0762 0.0889,0.1397 0.0254,0.0254 0,0.0254 -0.0127,0 -0.0127,0.0127 -0.0254,0.0254 -0.0381,0.0635 0,0.0254 -0.0254,0.0508 -0.0127,0.0254 -0.0127,0.0635 0.0127,0.0381 0.0127,0.0635 0.0254,0.0254 0.0635,0.0254 0.0381,-0.0127 0.0254,0.0508 0,0.0508 0.0127,0.0762 0.0127,0.0254 0.0889,0 -0.0381,0.0508 -0.0635,0.0762 -0.0254,0.0254 -0.0381,0.0635 -0.0127,0.0254 -0.0381,0.0508 -0.0254,0.0254 0,0.0635 -0.0508,0.0254 -0.0635,0.0762 0,0.0508 -0.0508,0.0762 -0.0508,0.0254 -0.0635,0.0762 -0.0127,0.0508 -0.0508,0.0762 -0.0381,0.0254 -0.0508,0.0762 0,0.0381 -0.0381,0.0635 -0.0762,0.0508 -0.0889,0.1143 -0.0127,0.0381 -0.0508,0.0762 -0.0381,0.0254 -0.0635,0.0635 -0.0254,0.0635 -0.0635,0.1016 -0.0381,0.0381 -0.0762,0.0762 0,0.0635 -0.0635,0.1016 -0.0508,0.0254 -0.0381,0.0889 l -0.0127,0.0127 q -0.0127,0.0127 -0.0127,0.0127 -0.0381,0.0508 -0.0889,0.0889 -0.0381,0.0254 -0.0635,0.0889 -0.0254,0.0508 -0.0762,0.0889 -0.0508,0.0254 -0.0762,0.0762 -0.0635,0.1143 -0.1524,0.2032 -0.0889,0.0762 -0.1778,0.1651 -0.0381,0.0508 -0.1397,0.1016 -0.0254,0.0254 -0.0508,0.0635 -0.0254,0.0254 -0.0508,0.0508 -0.0254,0.0127 -0.0635,0.0127 -0.0381,-0.0127 -0.0508,-0.0381 -0.0381,-0.0635 -0.0635,-0.0762 -0.0127,-0.0254 -0.1016,-0.0889 -0.0635,-0.0254 -0.0635,-0.0762 0,-0.0254 0.0127,-0.0381 0.0254,-0.0127 0.0254,-0.0381 0.0127,-0.0254 0.0127,-0.0381 0,-0.0127 0.0254,-0.0381 v -0.0127 l -0.0127,-0.0127 q -0.0381,0 -0.0381,0 -0.0254,0.0254 -0.0508,0.0381 -0.0254,0.0381 -0.1016,0.1143 0,-0.0762 0.0127,-0.1397 -0.0127,0 -0.0127,0.0127 -0.0127,0 -0.0127,0.0127 0,0 0.0127,0 0,0.0127 0,0.0127 0.0127,0 0.0127,-0.0127 0,0 0.0254,-0.0254 z m 1.4859,-2.3495 q -0.0127,-0.0127 -0.0127,-0.0254 h -0.0254 v 0.0254 l 0.0254,0.0254 v -0.0127 q 0,0.0127 -0.0254,-0.0381 0,-0.0381 -0.0381,-0.0381 0,-0.0508 -0.0635,-0.0508 h 0.0127 v -0.0127 q -0.0254,-0.0254 -0.0381,-0.0127 0,0.0254 0.0381,0.0254 0,0.0508 0.0508,0.0508 0,0.0508 0.0762,0.0635 z m 0.1397,-0.2159 -0.0254,-0.0254 h -0.0127 q -0.0127,0 -0.0127,0.0127 0,0 0.0127,0 0,0.0254 0.0254,0.0254 v -0.0127 l -0.0254,-0.0254 q 0,-0.0508 -0.0508,-0.0508 0,-0.0381 -0.0635,-0.0381 h 0.0254 v -0.0254 q -0.0254,-0.0254 -0.0381,0 -0.0127,0 0.0381,0.0254 0,0.0635 0.0381,0.0381 0,0.0508 0.0889,0.0762 z m -0.762,-0.5334 q 0,-0.0127 -0.0127,-0.0127 0,0 0,-0.0127 h -0.0254 v 0.0127 q 0.0254,0.0254 0.0254,0.0254 v -0.0127 l -0.0254,-0.0254 q 0,-0.0508 -0.0381,-0.0508 0,-0.0381 -0.0508,-0.0381 0,-0.0508 -0.0635,-0.0508 h 0.0254 v -0.0127 q -0.0254,-0.0254 -0.0381,-0.0127 -0.0254,0.0254 0.0381,0.0254 0,0.0508 0.0381,0.0508 0,0.0508 0.0508,0.0381 0,0.0508 0.0762,0.0762 z"
         style="font-style:normal;font-variant:normal;font-weight:normal;font-stretch:normal;font-size:12.7px;font-family:THEME;-inkscape-font-specification:THEME;fill:#ffffff;fill-opacity:1;stroke-width:1.5875"
         id="path14476" />
    </g>
  </g>
</svg>
