<?xml version="1.0" encoding="UTF-8" standalone="no"?>
<svg
   xmlns:dc="http://purl.org/dc/elements/1.1/"
   xmlns:cc="http://creativecommons.org/ns#"
   xmlns:rdf="http://www.w3.org/1999/02/22-rdf-syntax-ns#"
   xmlns:svg="http://www.w3.org/2000/svg"
   xmlns="http://www.w3.org/2000/svg"
   xmlns:sodipodi="http://sodipodi.sourceforge.net/DTD/sodipodi-0.dtd"
   xmlns:inkscape="http://www.inkscape.org/namespaces/inkscape"
   sodipodi:docname="20_right_arrow.svg"
   inkscape:version="1.0 (4035a4fb49, 2020-05-01)"
   id="svg26854"
   version="1.1"
   viewBox="0 0 9.5249996 9.5249996"
   height="9.5249996mm"
   width="9.5249996mm">
  <defs
     id="defs26848" />
  <sodipodi:namedview
     inkscape:window-maximized="1"
     inkscape:window-y="-8"
     inkscape:window-x="-8"
     inkscape:window-height="705"
     inkscape:window-width="1366"
     fit-margin-bottom="0"
     fit-margin-right="0"
     fit-margin-left="0"
     fit-margin-top="0"
     showgrid="false"
     inkscape:document-rotation="0"
     inkscape:current-layer="layer1"
     inkscape:document-units="mm"
     inkscape:cy="15.714266"
     inkscape:cx="21.174246"
     inkscape:zoom="10.738351"
     inkscape:pageshadow="2"
     inkscape:pageopacity="0.0"
     borderopacity="1.0"
     bordercolor="#666666"
     pagecolor="#ffffff"
     id="base" />
  <metadata
     id="metadata26851">
    <rdf:RDF>
      <cc:Work
         rdf:about="">
        <dc:format>image/svg+xml</dc:format>
        <dc:type
           rdf:resource="http://purl.org/dc/dcmitype/StillImage" />
        <dc:title></dc:title>
      </cc:Work>
    </rdf:RDF>
  </metadata>
  <g
     transform="translate(-89.851652,-88.27475)"
     id="layer1"
     inkscape:groupmode="layer"
     inkscape:label="Layer 1">
    <path
       d="m 95.524261,90.53435 c -0.0079,0.0082 0,0.02664 0.02593,0.05477 0.03601,0.05453 0.02249,0.08165 -0.04082,0.08165 -0.04599,0 -0.07774,-0.0085 -0.09509,-0.02593 -0.0079,-0.0082 -0.02143,-0.01243 -0.0408,-0.01243 -0.01746,-0.0082 -0.02593,-0.0082 -0.02593,0 -0.0172,0.0172 -0.03596,0.03082 -0.0553,0.04082 -0.01746,0 -0.03508,0.0085 -0.05374,0.02593 0.03363,0.03395 0.04564,0.06813 0.0403,0.102314 -0.01693,0.0077 -0.03868,0.01191 -0.06562,0.01191 -0.02733,-0.0082 -0.03585,0.0098 -0.02593,0.05424 0,0.0082 -0.01773,0.0217 -0.05374,0.04083 -0.03601,0.0082 -0.04503,0.03585 -0.02646,0.08218 0.01746,0.0172 0.02646,0.03519 0.02646,0.05427 0.01746,0.08199 0.05345,0.154993 0.109035,0.218572 0.01746,0.0172 0.03559,0.03522 0.05427,0.05427 0.0172,0.0172 0.03082,0.03995 0.04082,0.06821 0,0.0172 0.0085,0.03572 0.02593,0.05479 0.01746,0.0172 0.03561,0.03519 0.05427,0.05424 0.01746,0.0172 0.03971,0.03572 0.06771,0.05479 0.0172,0.0172 0.03596,0.03995 0.0553,0.06821 0.01746,0.04554 0.04482,0.08652 0.08215,0.122979 0.03601,0.02728 0.06723,0.06387 0.09456,0.109564 0.02733,0.02725 0.05059,0.05913 0.06924,0.09559 0.0079,0.02728 0.02566,0.04995 0.05376,0.06821 0.07292,0.05474 0.118877,0.100118 0.136948,0.136445 0.02733,0.07295 0.06831,0.132398 0.122978,0.177747 0.05247,0.03487 0.100595,0.07845 0.144701,0.130228 -0.02011,0.0095 -0.04106,0.01561 -0.06305,0.01561 -0.04199,-0.0066 -0.08358,-0.01032 -0.125069,-0.01032 h -2.848901 c -0.03469,0 -0.07279,-0.0032 -0.114723,-0.0098 -0.04202,-0.0066 -0.08014,0.01058 -0.114723,0.0522 -0.02802,-0.01323 -0.0594,-0.01323 -0.09406,0 -0.02799,0.0066 -0.05937,-0.0034 -0.09406,-0.03101 -0.0066,-0.0066 -0.02408,-0.01032 -0.05218,-0.01032 h -0.657331 c -0.03466,0 -0.06607,0.01058 -0.09406,0.03151 -0.02064,0.01323 -0.04837,0.0164 -0.08371,0.0098 -0.02064,0.03487 -0.0489,0.04554 -0.08422,0.03154 -0.02802,0 -0.04905,0.01349 -0.06305,0.04133 -0.01323,0.02781 -0.0272,0.05577 -0.04186,0.08371 -0.02064,0.0209 -0.02749,0.04884 -0.02011,0.08371 v 0.125069 c -0.0066,0.02778 -0.0066,0.05577 0,0.08371 0.0066,0.02778 -0.0071,0.05577 -0.04186,0.08371 v 0.03101 0.490405 l 0.02011,0.02011 c 0.04199,0.0066 0.08358,0.0066 0.125042,0 0.04202,-0.01323 0.08353,-0.0029 0.125068,0.03098 0.0066,0.01323 0.01693,0.01667 0.03101,0.01032 0.01323,-0.0066 0.0277,-0.01032 0.04236,-0.01032 h 0.813912 c 0.02799,0 0.0522,0.0037 0.07287,0.01032 0.02064,0 0.03818,-0.01402 0.0522,-0.04186 h 0.219101 c 0.01323,0.02781 0.02717,0.04186 0.04186,0.04186 0.02064,-0.0066 0.0417,-0.01032 0.06305,-0.01032 0.02064,0.0066 0.0417,0.01032 0.06302,0.01032 0.02064,-0.0066 0.03821,-0.01032 0.0522,-0.01032 0.02799,0 0.0522,0.0037 0.07287,0.01032 0.02064,0 0.04487,-0.0037 0.07287,-0.01032 0.02799,-0.0066 0.04905,-1.59e-4 0.06305,0.01958 0.02064,0.01323 0.0417,0.01958 0.06305,0.01958 0.04199,0.0066 0.08358,0.01032 0.125042,0.01032 0.04866,-0.0066 0.09745,-0.01032 0.146236,-0.01032 0.02064,0 0.03821,-0.0066 0.0522,-0.01958 0.02064,-0.0209 0.04487,-0.02738 0.07287,-0.01958 0.02064,0.0066 0.04172,0.01032 0.06305,0.01032 0.02799,-0.0066 0.0522,-0.01032 0.07287,-0.01032 h 0.146235 0.135387 0.135917 1.48156 c -0.0087,0.01032 -0.01878,0.01958 -0.03151,0.02791 -0.0172,0.0172 -0.03545,0.03995 -0.05479,0.06821 -0.02733,0.0172 -0.05019,0.04048 -0.06821,0.06874 -0.03598,0.07297 -0.07263,0.123084 -0.109537,0.150389 -0.02733,0.0172 -0.04509,0.04469 -0.05376,0.08215 -0.0079,0.02728 -0.02196,0.04995 -0.04133,0.06821 -0.073,0.05474 -0.118375,0.100119 -0.136419,0.136419 -0.01746,0.04554 -0.04008,0.08213 -0.06874,0.109564 -0.03601,0.0172 -0.0635,0.04469 -0.08218,0.08215 -0.01746,0.04554 -0.04056,0.08162 -0.06924,0.109062 -0.02733,0.0172 -0.04969,0.04487 -0.06768,0.08215 -0.01746,0.04554 -0.05834,0.100065 -0.123005,0.163803 -0.03598,0.02728 -0.05427,0.06387 -0.05427,0.109564 -0.0079,0.04554 -0.03498,0.08652 -0.08162,0.122978 v 0.136446 c 0.01746,0.0172 0.03969,0.03082 0.06768,0.04082 0.01746,0 0.03559,0.0085 0.05427,0.02593 0.04532,0.02728 0.06768,0.01879 0.06768,-0.02593 0,-0.0172 0.004,-0.03082 0.01191,-0.04082 0.0079,-0.0082 0.01693,-0.0217 0.02646,-0.04082 0.01746,-0.0172 0.03508,-0.02593 0.05374,-0.02593 h 0.05427 c 0,-0.03633 0.01773,-0.05477 0.05374,-0.05477 0,0.0082 -0.004,0.0082 -0.01191,0 v -0.01243 c 0.0172,-0.0172 0.03082,-0.0209 0.04082,-0.01191 0.01746,0.0172 0.0087,0.02593 -0.02593,0.02593 -0.0079,0.03635 -0.02566,0.05427 -0.05374,0.05427 -0.0079,0.0172 -0.0079,0.03082 0,0.04082 0,0.0082 -0.0045,0.02222 -0.01243,0.04135 -0.05466,0.100251 -0.04064,0.163909 0.04135,0.191188 0.02733,0.02728 0.05908,0.04519 0.09509,0.05427 0.04532,0.02728 0.06768,0.04572 0.06768,0.05477 0,0.0082 -0.01349,0.03088 -0.04082,0.06824 0.0079,0.0172 0.03074,0.02593 0.06874,0.02593 l 0.163803,-0.08215 c 0.02733,-0.0172 0.05485,-0.03995 0.08218,-0.06824 0.0172,-0.02725 0.04022,-0.04993 0.06821,-0.06821 0.02733,-0.0172 0.05432,-0.03569 0.08165,-0.05477 0.02733,-0.0172 0.05056,-0.03519 0.06924,-0.05427 0.01746,-0.0172 0.04022,-0.03569 0.06821,-0.05477 0.02733,-0.02728 0.04546,-0.05437 0.05477,-0.08165 0.0079,-0.03633 0.02143,-0.06377 0.04082,-0.08215 0.0172,-0.0172 0.03561,-0.03522 0.05427,-0.05427 0.01746,-0.0172 0.04006,-0.03572 0.06874,-0.05479 0.02733,-0.0172 0.04133,-0.04874 0.04133,-0.09507 l 0.04082,-0.04135 c 0.02733,-0.02725 0.05485,-0.04995 0.08218,-0.06821 0.02733,-0.02725 0.04506,-0.05874 0.05374,-0.09509 0.0172,-0.04554 0.04482,-0.07752 0.08215,-0.09559 0.03667,-0.0172 0.05479,-0.04437 0.05479,-0.08165 0.0079,-0.04554 0.03088,-0.07297 0.06821,-0.08215 0.03601,-0.0172 0.04948,-0.04926 0.04082,-0.09562 0,-0.0172 0.009,-0.02593 0.02646,-0.02593 0.01746,-0.02728 0.04432,-0.04995 0.08165,-0.06821 0.02733,-0.02728 0.04133,-0.06387 0.04133,-0.109564 0.01746,-0.0172 0.03971,-0.03995 0.06771,-0.06821 0.02733,-0.02728 0.05059,-0.05437 0.06924,-0.08165 0.0172,-0.03633 0.03969,-0.06377 0.06771,-0.08215 0.01746,-0.02728 0.03559,-0.05472 0.05427,-0.08218 0.01746,-0.0172 0.03082,-0.03995 0.04082,-0.06821 0.0079,-0.02728 0.02143,-0.04995 0.0408,-0.06821 0.01746,-0.0172 0.03561,-0.03995 0.05427,-0.06821 0.0172,-0.02728 0.03508,-0.05472 0.05374,-0.08218 0.02736,-0.02725 0.05022,-0.07316 0.06824,-0.136948 0.0079,-0.02725 0.02143,-0.04519 0.04082,-0.05424 0.0172,-0.0172 0.03559,-0.04035 0.05424,-0.06874 0,-0.03633 -0.009,-0.05427 -0.02646,-0.05427 -0.04599,0 -0.06871,-0.03199 -0.06871,-0.09559 -0.01746,-0.03633 -0.03082,-0.06781 -0.04082,-0.09509 -0.0172,-0.03633 -0.0217,-0.07731 -0.01244,-0.122978 0.0079,-0.0082 0.01244,-0.01667 0.01244,-0.02593 -0.0079,-0.0172 -0.0079,-0.03133 0,-0.04133 0.05466,-0.04554 0.06816,-0.08162 0.04082,-0.109035 -0.03601,-0.03635 -0.05427,-0.07292 -0.05427,-0.109564 -0.04601,-0.03633 -0.073,-0.07734 -0.08165,-0.123005 -0.01746,-0.04551 -0.04908,-0.0821 -0.09509,-0.109538 -0.03598,-0.02728 -0.05887,-0.05927 -0.06821,-0.09559 -0.0079,-0.04554 -0.03072,-0.07742 -0.06874,-0.09562 -0.0079,-0.04554 -0.02619,-0.07702 -0.05424,-0.09507 -0.02733,-0.02728 -0.05432,-0.05472 -0.08165,-0.08218 -0.0172,-0.02725 -0.04022,-0.04995 -0.06821,-0.06821 -0.03601,-0.0172 -0.05376,-0.04926 -0.05376,-0.09559 -0.04532,-0.05474 -0.09544,-0.104881 -0.150363,-0.15039 -0.02733,-0.03633 -0.05485,-0.06781 -0.08218,-0.09509 -0.02733,-0.02725 -0.05482,-0.05469 -0.08215,-0.08215 -0.05466,-0.04554 -0.104775,-0.09567 -0.150389,-0.150389 -0.02733,-0.02725 -0.05482,-0.04993 -0.08215,-0.06821 -0.02733,-0.02725 -0.05006,-0.0549 -0.06874,-0.08215 -0.06334,-0.10025 -0.131445,-0.186743 -0.204629,-0.259424 -0.08202,-0.07297 -0.159755,-0.150548 -0.232542,-0.232542 -0.04601,-0.04554 -0.09612,-0.06347 -0.150389,-0.05427 -0.0079,0 -0.01191,-0.0042 -0.01191,-0.01244 -0.0079,-0.0082 -0.02143,-0.01667 -0.04082,-0.02593 z m -0.244449,0.274399 c 0.02699,0 0.04032,0.02302 0.04032,0.06821 v -0.01243 h 0.02646 c 0.0172,0.0172 0.0172,0.03082 0,0.04082 l -0.02646,-0.02593 c -0.02733,-0.0082 -0.04082,-0.03088 -0.04082,-0.06821 z m 1.602502,1.484154 0.02328,0.02275 v 0.01243 c -0.0027,0.0027 -0.0042,0 -0.0061,0 -0.004,-0.01164 -0.0058,-0.02275 -0.01693,-0.03514 z m -0.01508,0.0093 0.01958,0.02593 c -0.0027,0 -0.005,0.0027 -0.0077,0 -0.0079,-0.0082 -0.01191,-0.01667 -0.01191,-0.02593 z m 0.04135,0.02842 h 0.01191 c 0.02733,0.0172 0.03122,0.03572 0.01191,0.05479 l -0.01191,-0.01243 c -0.0079,-0.0082 -0.01191,-0.01667 -0.01191,-0.02593 z m -0.316256,0.01402 c 0.0079,0.0082 0.01693,0.01244 0.02646,0.01244 v 0.02593 c 0.02733,0 0.04082,0.01349 0.04082,0.04082 0.05654,0.02117 0.08763,0.05913 0.09456,0.113162 h -0.06615 c -0.0172,-0.02514 -0.02646,-0.06099 -0.02646,-0.109035 -0.0127,0.0061 -0.02887,-0.01376 -0.04702,-0.04495 h -0.02222 v -0.01244 l 0.02064,0.0098 c -0.0064,-0.01138 -0.01244,-0.01852 -0.01958,-0.03461 z m 0.02064,0.03564 c 0,0 0,0.0027 0.0026,0.0027 h 0.0042 z m -4.699979,0.240823 0.0098,0.0098 c 0,0.0066 -0.0032,0.01376 -0.0098,0.02011 v 0.0098 l -0.02011,-0.02011 z m 0.0217,0.08371 c 0.01323,0 0.0277,0.01005 0.04236,0.03101 0.01323,0.01323 0.03035,0.01667 0.05167,0.01032 l 0.01032,0.01958 c -0.02064,0.01323 -0.04172,0.01958 -0.06305,0.01958 -0.02064,-0.0066 -0.0417,-0.0098 -0.06305,-0.0098 -0.01296,0 -0.01984,-0.01773 -0.02011,-0.05117 0,-0.01323 0.01376,-0.01958 0.04186,-0.01958 z m 4.457594,0.276465 h 0.161739 c -0.01693,0.0309 -0.04008,0.05871 -0.07234,0.08268 -0.0027,2.64e-4 -0.0037,0 -0.0056,0 -0.04199,0.0066 -0.08012,0.0034 -0.114723,-0.0098 v -0.06305 c 0.0066,-0.0066 0.01693,-0.0098 0.03101,-0.0098 z m 0.04548,0.136948 c -0.0077,0.0172 -0.01244,0.03572 -0.01244,0.05686 0,0 0,0 -0.0027,0.0027 h -0.356579 -0.04186 c -0.0066,0 -0.01693,-0.0066 -0.03101,-0.01958 0.02799,-0.01323 0.0522,-0.0164 0.07287,-0.0098 h 0.08424 c 0.02799,-0.0066 0.05218,-0.0066 0.07284,0 h 0.08424 c 0.02799,-0.0066 0.0522,-0.0066 0.07287,0 0.0164,0 0.0354,-0.01164 0.05633,-0.02894 z m -1.184434,0.02487 c 0.09041,0 0.166846,0.0063 0.229447,0.01958 -0.06265,0.01323 -0.139118,0.01958 -0.229447,0.01958 -0.08345,0 -0.156501,-0.0066 -0.219102,-0.01958 0.06268,-0.01323 0.135705,-0.01958 0.219102,-0.01958 z m -3.353277,0.23614 c 0.0087,0.0026 0.01614,0.0063 0.02328,0.01296 l 0.04236,0.04133 c -0.0066,0.01323 -0.02117,0.03045 -0.04236,0.0522 -0.0066,0 -0.01693,0.0037 -0.03101,0.01032 h -0.01958 c -0.01323,-0.01323 -0.02011,-0.03045 -0.02011,-0.05218 v -0.03051 c 0,-0.0209 0.0069,-0.03151 0.02011,-0.03151 0.01032,-0.0034 0.01984,-0.0042 0.02842,-0.0027 z m -0.19431,0.04395 h 0.01032 c 0.01323,0.0066 0.01958,0.0172 0.01958,0.03151 0,0.01323 -0.0064,0.02328 -0.01958,0.03101 0,0.0066 -0.0037,0.0066 -0.01032,0 -0.01323,-0.0066 -0.01958,-0.01667 -0.01958,-0.03101 0,-0.01323 0.0063,-0.02381 0.01958,-0.03151 z"
       style="font-style:normal;font-variant:normal;font-weight:normal;font-stretch:normal;font-size:4.23333px;line-height:1.05;font-family:THEME;-inkscape-font-specification:THEME;text-align:center;text-anchor:middle;fill:#d2c8c4;fill-opacity:1;stroke-width:3.41477;stroke-linecap:square;paint-order:fill markers stroke"
       id="path25272" />
  </g>
</svg>
