<?xml version="1.0" encoding="UTF-8" standalone="no"?>
<svg
   xmlns:dc="http://purl.org/dc/elements/1.1/"
   xmlns:cc="http://creativecommons.org/ns#"
   xmlns:rdf="http://www.w3.org/1999/02/22-rdf-syntax-ns#"
   xmlns:svg="http://www.w3.org/2000/svg"
   xmlns="http://www.w3.org/2000/svg"
   xmlns:sodipodi="http://sodipodi.sourceforge.net/DTD/sodipodi-0.dtd"
   xmlns:inkscape="http://www.inkscape.org/namespaces/inkscape"
   sodipodi:docname="21_down_arrow.svg"
   inkscape:version="1.0 (4035a4fb49, 2020-05-01)"
   id="svg27442"
   version="1.1"
   viewBox="0 0 9.5249977 9.5249996"
   height="9.5249996mm"
   width="9.5249977mm">
  <defs
     id="defs27436" />
  <sodipodi:namedview
     inkscape:window-maximized="1"
     inkscape:window-y="-8"
     inkscape:window-x="-8"
     inkscape:window-height="705"
     inkscape:window-width="1366"
     fit-margin-bottom="0"
     fit-margin-right="0"
     fit-margin-left="0"
     fit-margin-top="0"
     showgrid="false"
     inkscape:document-rotation="0"
     inkscape:current-layer="layer1"
     inkscape:document-units="mm"
     inkscape:cy="27.296835"
     inkscape:cx="27.145699"
     inkscape:zoom="7.593161"
     inkscape:pageshadow="2"
     inkscape:pageopacity="0.0"
     borderopacity="1.0"
     bordercolor="#666666"
     pagecolor="#ffffff"
     id="base" />
  <metadata
     id="metadata27439">
    <rdf:RDF>
      <cc:Work
         rdf:about="">
        <dc:format>image/svg+xml</dc:format>
        <dc:type
           rdf:resource="http://purl.org/dc/dcmitype/StillImage" />
        <dc:title></dc:title>
      </cc:Work>
    </rdf:RDF>
  </metadata>
  <g
     transform="translate(-96.159262,-143.46634)"
     id="layer1"
     inkscape:groupmode="layer"
     inkscape:label="Layer 1">
    <path
       d="m 100.9237,145.26861 c -0.028,0.0344 -0.0562,0.0485 -0.0842,0.0419 -0.028,-0.007 -0.0562,-0.007 -0.0842,0 h -0.12504 c -0.0354,-0.008 -0.0631,0 -0.0837,0.0196 -0.0274,0.0146 -0.0552,0.0287 -0.0832,0.0419 -0.028,0.014 -0.0419,0.0347 -0.0419,0.0625 0.014,0.0349 0.004,0.0629 -0.031,0.0837 0.007,0.0349 0.003,0.0629 -0.0103,0.0837 -0.0206,0.0277 -0.031,0.0587 -0.031,0.0935 v 0.65733 c 0,0.0282 0.004,0.046 0.0103,0.0527 0.0273,0.0348 0.0377,0.0658 0.031,0.0936 -0.0132,0.0348 -0.0132,0.0662 0,0.094 -0.0413,0.0349 -0.0589,0.073 -0.0522,0.11473 0.007,0.0417 0.01,0.0804 0.01,0.11525 v 2.8489 c 0,0.0418 0.004,0.0833 0.0103,0.12507 0,0.0225 -0.006,0.044 -0.0161,0.0646 -0.0533,-0.0448 -0.0977,-0.0935 -0.13282,-0.14673 -0.0453,-0.0547 -0.10483,-0.0957 -0.17777,-0.12301 -0.03638,-0.018 -0.08176,-0.0635 -0.136423,-0.13642 -0.01799,-0.0281 -0.04088,-0.0461 -0.06821,-0.0543 -0.03667,-0.0185 -0.06826,-0.0415 -0.09559,-0.0687 -0.04567,-0.0273 -0.08223,-0.0593 -0.109564,-0.0956 -0.03667,-0.0373 -0.07766,-0.0644 -0.122979,-0.0816 -0.02802,-0.0191 -0.05088,-0.037 -0.06821,-0.0543 -0.01879,-0.0283 -0.03643,-0.0509 -0.05376,-0.0682 -0.01879,-0.019 -0.03691,-0.0375 -0.05424,-0.0548 -0.01878,-0.0172 -0.03643,-0.0259 -0.05376,-0.0259 -0.02799,-0.0101 -0.05088,-0.0236 -0.06821,-0.0408 -0.01852,-0.0191 -0.03641,-0.0375 -0.05374,-0.0548 -0.06361,-0.0557 -0.136604,-0.0918 -0.218598,-0.10904 -0.01852,0 -0.03691,-0.009 -0.05427,-0.0265 -0.04665,-0.019 -0.07363,-0.01 -0.08162,0.0265 -0.01932,0.0363 -0.03336,0.0543 -0.04135,0.0543 -0.044,-0.0101 -0.06175,-0.003 -0.05374,0.0259 0,0.0283 -0.004,0.051 -0.01191,0.0682 l 0.01508,0.003 c 0.03733,0 0.05969,0.0135 0.06771,0.0408 l 0.02593,0.0259 c -0.01005,0.0172 -0.02355,0.0172 -0.04083,0 v -0.0259 h 0.01191 c -0.04532,0 -0.06768,-0.0135 -0.06768,-0.0408 -0.03694,0.009 -0.07355,-0.005 -0.109564,-0.0408 -0.0172,0.019 -0.02593,0.037 -0.02593,0.0543 -0.01005,0.019 -0.02408,0.037 -0.04135,0.0543 -0.0079,0 -0.0079,0.009 0,0.0265 0,0.019 0.0045,0.0326 0.01243,0.0408 0.01746,0.018 0.02593,0.0494 0.02593,0.0951 0,0.0636 -0.02749,0.0772 -0.08215,0.0408 -0.02799,-0.0254 -0.04575,-0.034 -0.05374,-0.0259 v 0.0687 c 0.0093,0.0191 0.01773,0.0326 0.02593,0.0408 0.0079,0 0.01191,0.004 0.01191,0.0124 -0.0093,0.0546 0.009,0.10472 0.05427,0.15039 0.08199,0.0728 0.159544,0.15002 0.232542,0.23201 0.07268,0.073 0.159147,0.14158 0.259424,0.20516 0.02733,0.0185 0.05432,0.041 0.08165,0.0682 0.01799,0.0273 0.04088,0.0544 0.06821,0.0816 0.05493,0.0455 0.10504,0.0957 0.150389,0.15039 l 0.08215,0.0821 c 0.02733,0.0275 0.05858,0.0549 0.09456,0.0822 0.04554,0.0547 0.09573,0.10486 0.150389,0.15039 0.04599,0 0.07776,0.018 0.09509,0.0542 0.01799,0.0283 0.04088,0.051 0.06821,0.0682 l 0.08165,0.0822 c 0.01799,0.0281 0.04974,0.0461 0.09506,0.0543 0.01879,0.0375 0.0508,0.0605 0.09613,0.0687 0.036,0.009 0.0678,0.0319 0.0951,0.0682 0.0277,0.0464 0.0642,0.0778 0.10956,0.0951 0.0453,0.009 0.0863,0.0365 0.12298,0.0822 0.0369,0 0.073,0.0185 0.10904,0.0548 0.0277,0.0275 0.0642,0.0135 0.10956,-0.0413 0.0101,-0.008 0.0241,-0.008 0.0413,0 0.009,0 0.018,-0.004 0.0259,-0.0119 0.046,-0.009 0.087,-0.005 0.12297,0.0119 0.0273,0.01 0.0591,0.0241 0.0951,0.0413 0.0633,0 0.0951,0.0225 0.0951,0.0682 0,0.0172 0.018,0.0259 0.0548,0.0259 0.028,-0.019 0.0509,-0.037 0.0682,-0.0543 0.009,-0.0191 0.0264,-0.0326 0.0538,-0.0408 0.0637,-0.0183 0.10909,-0.041 0.13642,-0.0682 0.0273,-0.019 0.0548,-0.0375 0.0821,-0.0548 0.028,-0.019 0.0509,-0.037 0.0682,-0.0543 0.018,-0.019 0.0404,-0.0332 0.0677,-0.0413 0.028,-0.0101 0.0509,-0.0236 0.0682,-0.0408 0.0273,-0.0191 0.0548,-0.037 0.0822,-0.0543 0.0188,-0.0283 0.0456,-0.0509 0.0816,-0.0682 0.0274,-0.0185 0.0549,-0.0415 0.0822,-0.0687 0.028,-0.0283 0.0503,-0.051 0.0677,-0.0682 0.0456,0 0.0822,-0.0135 0.10954,-0.0408 0.018,-0.0375 0.0409,-0.0649 0.0682,-0.0822 0,-0.0172 0.008,-0.0259 0.0259,-0.0259 0.046,0.009 0.0777,-0.005 0.0951,-0.0408 0.009,-0.0375 0.0368,-0.0605 0.0821,-0.0687 0.0373,0 0.0643,-0.018 0.0816,-0.0543 0.018,-0.0375 0.0497,-0.0649 0.0951,-0.0822 0.036,-0.009 0.0677,-0.0275 0.0951,-0.0548 0.018,-0.0275 0.0409,-0.0549 0.0682,-0.0822 l 0.0408,-0.0408 c 0.046,0 0.0777,-0.0135 0.0951,-0.0408 0.0193,-0.0284 0.0375,-0.051 0.0548,-0.0682 0.0188,-0.019 0.0369,-0.0375 0.0542,-0.0548 0.0188,-0.019 0.0457,-0.0327 0.0816,-0.0408 0.0273,-0.009 0.0549,-0.027 0.0822,-0.0543 0.0188,-0.0283 0.0364,-0.0515 0.0537,-0.0687 0.0188,-0.0185 0.0369,-0.0409 0.0543,-0.0682 0.0185,-0.0275 0.0364,-0.0549 0.0537,-0.0821 0.018,-0.0283 0.0409,-0.051 0.0682,-0.0682 0.028,-0.0275 0.0509,-0.0549 0.0682,-0.0822 l 0.0816,-0.1638 c 0,-0.0375 -0.008,-0.0605 -0.0259,-0.0687 -0.0373,0.0273 -0.0602,0.0408 -0.0682,0.0408 -0.009,0 -0.0275,-0.0228 -0.0548,-0.0682 -0.009,-0.0363 -0.0265,-0.0683 -0.0537,-0.0956 -0.0273,-0.082 -0.091,-0.0955 -0.19119,-0.0408 -0.0193,0.008 -0.0334,0.0124 -0.0414,0.0124 -0.0101,-0.008 -0.0235,-0.008 -0.0408,0 0,0.0282 -0.0183,0.0466 -0.0543,0.0548 0,0.0345 -0.008,0.0431 -0.0259,0.0259 -0.009,-0.0101 -0.006,-0.0236 0.0119,-0.0408 h 0.0119 c 0.008,0.008 0.008,0.0119 0,0.0119 0,-0.0363 0.0182,-0.0542 0.0543,-0.0542 v -0.0548 c 0,-0.019 0.008,-0.037 0.0259,-0.0543 0.0193,-0.009 0.0334,-0.0177 0.0414,-0.0259 0.0101,-0.008 0.0236,-0.0124 0.0408,-0.0124 0.0447,0 0.0532,-0.0228 0.0259,-0.0682 -0.0172,-0.019 -0.0259,-0.0375 -0.0259,-0.0548 -0.0101,-0.0283 -0.0236,-0.051 -0.0408,-0.0682 h -0.13694 c -0.0367,0.0463 -0.0777,0.0739 -0.12298,0.0821 -0.0456,0 -0.0817,0.018 -0.10904,0.0543 -0.064,0.0648 -0.11901,0.10573 -0.16433,0.12298 -0.0373,0.0183 -0.0643,0.041 -0.0816,0.0682 -0.0276,0.0284 -0.0642,0.0515 -0.10956,0.0687 -0.0373,0.0183 -0.0648,0.0453 -0.0822,0.0817 -0.0277,0.0284 -0.0642,0.0515 -0.10956,0.0687 -0.0363,0.018 -0.0818,0.0634 -0.13642,0.13642 -0.018,0.0191 -0.0404,0.0326 -0.0677,0.0408 -0.0373,0.009 -0.0648,0.0275 -0.0821,0.0548 -0.0273,0.0367 -0.0774,0.0727 -0.15039,0.10904 -0.028,0.0183 -0.0509,0.041 -0.0682,0.0682 -0.028,0.0191 -0.0504,0.0375 -0.0677,0.0548 -0.007,0.0111 -0.0156,0.0193 -0.0243,0.0274 v -1.47641 -0.13591 -0.13539 -0.14624 c 0,-0.0209 0.004,-0.0451 0.0103,-0.0729 0,-0.0209 -0.004,-0.0417 -0.0103,-0.0625 -0.007,-0.0278 0,-0.0525 0.0201,-0.0734 0.0132,-0.014 0.0201,-0.0313 0.0201,-0.0522 0,-0.0488 0.003,-0.0976 0.01,-0.14627 0,-0.0418 -0.003,-0.0833 -0.01,-0.12504 0,-0.0209 -0.007,-0.0417 -0.0201,-0.0625 -0.0201,-0.014 -0.0268,-0.0347 -0.0201,-0.0625 0.007,-0.0278 0.0103,-0.0525 0.0103,-0.0734 -0.007,-0.0209 -0.0103,-0.0451 -0.0103,-0.0729 0,-0.014 0.004,-0.0313 0.0103,-0.0522 0,-0.0209 -0.004,-0.0417 -0.0103,-0.0625 0,-0.0209 0.004,-0.0417 0.0103,-0.0625 0,-0.0146 -0.0143,-0.0287 -0.0424,-0.0419 v -0.21913 c 0.028,-0.014 0.0424,-0.0313 0.0424,-0.0522 -0.007,-0.0209 -0.0103,-0.0451 -0.0103,-0.0729 v -0.81444 c 0,-0.0146 0.004,-0.0282 0.0103,-0.0413 0.007,-0.0143 0.003,-0.0249 -0.0103,-0.0315 -0.034,-0.0418 -0.0443,-0.0833 -0.031,-0.12507 0.007,-0.0418 0.007,-0.0839 0,-0.12557 l -0.0201,-0.0196 h -0.4904 z m 0.41497,0.0325 c 0.014,0 0.0243,0.007 0.031,0.0196 0.007,0.007 0.007,0.01 0,0.01 -0.007,0.0132 -0.0177,0.0196 -0.031,0.0196 -0.014,0 -0.0243,-0.007 -0.031,-0.0196 v -0.01 c 0.007,-0.0132 0.0177,-0.0196 0.031,-0.0196 z m -0.0413,0.16486 0.031,0.003 c 0.0214,0 0.0389,0.007 0.0522,0.0196 v 0.0196 c -0.007,0.0143 -0.01,0.0249 -0.01,0.0315 -0.0214,0.0212 -0.0389,0.0347 -0.0522,0.0414 l -0.0419,-0.0414 c -0.0132,-0.014 -0.0169,-0.0313 -0.0103,-0.0522 0,-0.0132 0.0103,-0.0201 0.031,-0.0201 z m -0.77203,0.0413 0.0201,0.0196 h -0.0103 c -0.007,0.007 -0.013,0.0103 -0.0196,0.0103 l -0.0103,-0.0103 z m 0.0832,0 c 0.0347,0 0.0517,0.007 0.0517,0.0196 0,0.0209 0.004,0.0417 0.0103,0.0626 0,0.0209 -0.007,0.0416 -0.0201,0.0625 l -0.0201,-0.01 c 0.007,-0.0217 0.003,-0.0391 -0.01,-0.0522 -0.0206,-0.0146 -0.031,-0.0287 -0.031,-0.0419 0,-0.0267 0.007,-0.0398 0.0191,-0.0408 z m 0.43874,3.14039 c 0.0132,0.0626 0.0196,0.13613 0.0196,0.21961 0,0.0904 -0.006,0.16684 -0.0196,0.22944 -0.0132,-0.0626 -0.0201,-0.13904 -0.0201,-0.22944 0,-0.0835 0.007,-0.15701 0.0201,-0.21961 z m -0.005,0.96221 c 0.0132,0.0143 0.0196,0.0243 0.0196,0.031 v 0.0419 0.34983 c -0.003,0.003 -0.004,0.005 -0.007,0.008 -0.0191,0 -0.0353,0.005 -0.0512,0.0114 0.0169,-0.0204 0.0279,-0.0396 0.0279,-0.0558 -0.007,-0.0209 -0.007,-0.0451 0,-0.0729 v -0.0837 c -0.007,-0.0209 -0.007,-0.0451 0,-0.0729 v -0.0837 c -0.007,-0.0209 -0.003,-0.0451 0.0103,-0.0729 z m -0.1664,0.36534 h 0.0631 c 0.0132,0.0348 0.0169,0.073 0.0103,0.11472 -8e-5,0 8e-5,0 0,0.003 0,0.003 -0.003,0.003 -0.004,0.003 -0.0228,0.0318 -0.0497,0.0551 -0.0796,0.0723 v -0.16071 c 0,-0.0143 0.003,-0.0243 0.01,-0.031 z m -0.64492,0.23048 c 0.0151,0.007 0.0214,0.0124 0.0325,0.0185 l -0.008,-0.018 h 0.0119 v 0.0201 c 0.0319,0.0185 0.0513,0.0354 0.0455,0.048 0.0485,0 0.0849,0.009 0.11006,0.0269 v 0.0661 c -0.0545,-0.007 -0.0934,-0.0377 -0.11472,-0.0946 -0.0273,0 -0.0408,-0.0135 -0.0408,-0.0408 h -0.0259 c 0,-0.009 -0.004,-0.0177 -0.0119,-0.0259 z m 0.0362,0.0265 v -0.006 c 0,0 -0.003,-0.003 -0.004,-0.003 z m -0.0811,0.24857 c 0.009,0 0.0183,0.004 0.0265,0.0124 0.003,0.003 0,0.005 0,0.007 z m -0.008,0.0164 c 0.0119,0.0101 0.023,0.0124 0.0341,0.0159 0,0.003 0.003,0.004 0,0.006 h -0.0124 z m 0.0362,0.0243 h 0.0156 c 0.009,0 0.0183,0.004 0.0265,0.0124 l 0.0119,0.0124 c -0.0185,0.019 -0.0364,0.0148 -0.0537,-0.0124 z"
       style="font-style:normal;font-variant:normal;font-weight:normal;font-stretch:normal;font-size:4.23333px;line-height:1.05;font-family:THEME;-inkscape-font-specification:THEME;text-align:center;text-anchor:middle;fill:#d2c8c4;fill-opacity:1;stroke-width:3.41477;stroke-linecap:square;paint-order:fill markers stroke"
       id="path25282" />
  </g>
</svg>
