<?xml version="1.0" encoding="UTF-8" standalone="no"?>
<svg
   xmlns:dc="http://purl.org/dc/elements/1.1/"
   xmlns:cc="http://creativecommons.org/ns#"
   xmlns:rdf="http://www.w3.org/1999/02/22-rdf-syntax-ns#"
   xmlns:svg="http://www.w3.org/2000/svg"
   xmlns="http://www.w3.org/2000/svg"
   xmlns:sodipodi="http://sodipodi.sourceforge.net/DTD/sodipodi-0.dtd"
   xmlns:inkscape="http://www.inkscape.org/namespaces/inkscape"
   sodipodi:docname="22_up_arrow.svg"
   inkscape:version="1.0 (4035a4fb49, 2020-05-01)"
   id="svg28029"
   version="1.1"
   viewBox="0 0 9.5249977 9.5249996"
   height="9.5249996mm"
   width="9.5249977mm">
  <defs
     id="defs28023" />
  <sodipodi:namedview
     inkscape:window-maximized="1"
     inkscape:window-y="-8"
     inkscape:window-x="-8"
     inkscape:window-height="705"
     inkscape:window-width="1366"
     fit-margin-bottom="0"
     fit-margin-right="0"
     fit-margin-left="0"
     fit-margin-top="0"
     showgrid="false"
     inkscape:document-rotation="0"
     inkscape:current-layer="layer1"
     inkscape:document-units="mm"
     inkscape:cy="22.248855"
     inkscape:cx="19.272054"
     inkscape:zoom="10.738351"
     inkscape:pageshadow="2"
     inkscape:pageopacity="0.0"
     borderopacity="1.0"
     bordercolor="#666666"
     pagecolor="#ffffff"
     id="base" />
  <metadata
     id="metadata28026">
    <rdf:RDF>
      <cc:Work
         rdf:about="">
        <dc:format>image/svg+xml</dc:format>
        <dc:type
           rdf:resource="http://purl.org/dc/dcmitype/StillImage" />
        <dc:title></dc:title>
      </cc:Work>
    </rdf:RDF>
  </metadata>
  <g
     transform="translate(-96.159262,-134.00492)"
     id="layer1"
     inkscape:groupmode="layer"
     inkscape:label="Layer 1">
    <path
       d="m 100.79354,135.80719 c -0.0287,0.0191 -0.0514,0.0375 -0.0687,0.0548 -0.009,0.019 -0.0269,0.0326 -0.0542,0.0408 -0.0637,0.0183 -0.10912,0.041 -0.13645,0.0682 -0.0273,0.019 -0.0548,0.0375 -0.0821,0.0548 -0.028,0.0191 -0.0504,0.037 -0.0677,0.0543 -0.018,0.019 -0.0409,0.0326 -0.0682,0.0408 -0.028,0.0101 -0.0503,0.0236 -0.0677,0.0408 -0.0273,0.0191 -0.0548,0.0375 -0.0822,0.0548 -0.018,0.0283 -0.0455,0.051 -0.0821,0.0682 -0.0274,0.0185 -0.0543,0.0415 -0.0816,0.0687 -0.02802,0.0283 -0.05088,0.051 -0.06824,0.0682 -0.04567,0 -0.08221,0.0135 -0.109537,0.0408 -0.01799,0.0375 -0.04037,0.0649 -0.06771,0.0822 0,0.0172 -0.009,0.0259 -0.02646,0.0259 -0.04599,-0.009 -0.07774,0.005 -0.09509,0.0408 -0.0093,0.0375 -0.0363,0.0605 -0.08165,0.0687 -0.03733,0 -0.06482,0.018 -0.08215,0.0543 -0.01799,0.0375 -0.04974,0.0649 -0.09509,0.0821 -0.03598,0.009 -0.06773,0.027 -0.09507,0.0543 -0.01799,0.0275 -0.04037,0.0549 -0.06771,0.0822 l -0.04135,0.0408 c -0.04599,0 -0.07723,0.014 -0.09456,0.0413 -0.01852,0.0284 -0.03691,0.0509 -0.05427,0.0682 -0.01852,0.019 -0.03641,0.0375 -0.05374,0.0548 -0.01878,0.0191 -0.04617,0.0326 -0.08215,0.0408 -0.02733,0.009 -0.05485,0.027 -0.08218,0.0543 -0.01852,0.0283 -0.03641,0.051 -0.05374,0.0682 -0.01878,0.0185 -0.03694,0.0415 -0.05427,0.0687 -0.01932,0.0275 -0.03744,0.0549 -0.05477,0.0821 -0.01799,0.0283 -0.04088,0.051 -0.06821,0.0682 -0.02802,0.0275 -0.05038,0.0549 -0.06771,0.0822 l -0.08215,0.16381 c 0,0.0375 0.0085,0.0605 0.02593,0.0687 0.03733,-0.0273 0.06022,-0.0413 0.06821,-0.0413 0.0087,0 0.02646,0.0233 0.05376,0.0687 0.0087,0.0363 0.02691,0.0678 0.05424,0.0951 0.02728,0.082 0.09094,0.0956 0.191214,0.0408 0.01931,-0.008 0.03283,-0.0119 0.04082,-0.0119 0.01005,0.008 0.02408,0.008 0.04133,0 0,-0.0282 0.01773,-0.0466 0.05376,-0.0548 0,-0.0345 0.009,-0.0431 0.02646,-0.0259 0.0093,0.01 0.005,0.0235 -0.01244,0.0408 h -0.01191 c -0.0079,-0.008 -0.0079,-0.0124 0,-0.0124 0,0.0363 -0.01773,0.0548 -0.05374,0.0548 v 0.0543 c 0,0.019 -0.009,0.0375 -0.02646,0.0548 -0.01931,0.009 -0.03281,0.0177 -0.04082,0.0259 -0.01005,0.008 -0.02355,0.0124 -0.0408,0.0124 -0.04469,0 -0.05371,0.0228 -0.02646,0.0682 0.01746,0.019 0.02646,0.037 0.02646,0.0543 0.01005,0.0283 0.02355,0.0509 0.0408,0.0682 h 0.136446 c 0.03667,-0.0463 0.07765,-0.0735 0.122978,-0.0816 0.04567,0 0.08223,-0.018 0.109564,-0.0543 0.06392,-0.0647 0.118481,-0.10572 0.163804,-0.12298 0.03733,-0.0183 0.06485,-0.0415 0.08218,-0.0687 0.02765,-0.0284 0.06421,-0.051 0.109537,-0.0682 0.03733,-0.0183 0.06432,-0.0453 0.08165,-0.0816 0.0276,-0.0284 0.06421,-0.0515 0.109564,-0.0687 0.03641,-0.018 0.08176,-0.0634 0.136419,-0.13642 0.01799,-0.019 0.04088,-0.0326 0.06821,-0.0408 0.03733,-0.009 0.06485,-0.0275 0.08218,-0.0548 0.0272,-0.0366 0.0774,-0.0732 0.15036,-0.10956 0.028,-0.0183 0.0504,-0.0409 0.0677,-0.0682 0.028,-0.019 0.0509,-0.037 0.0682,-0.0543 0.007,-0.0108 0.0153,-0.019 0.0238,-0.0268 v 1.47587 0.13539 0.13591 0.14624 c 0,0.0209 -0.003,0.0451 -0.01,0.0729 0,0.0209 0.003,0.0417 0.01,0.0625 0.007,0.0278 0,0.052 -0.0201,0.0729 -0.0132,0.014 -0.0196,0.0319 -0.0196,0.0527 0,0.0488 -0.004,0.0971 -0.0103,0.14573 0,0.0418 0.004,0.0839 0.0103,0.12557 0,0.0209 0.006,0.0417 0.0196,0.0625 0.0201,0.014 0.0268,0.0347 0.0201,0.0625 -0.007,0.0278 -0.01,0.052 -0.01,0.0729 0.007,0.0209 0.01,0.0456 0.01,0.0734 0,0.014 -0.003,0.0313 -0.01,0.0522 0,0.0209 0.003,0.0416 0.01,0.0625 0,0.0209 -0.003,0.0417 -0.01,0.0625 0,0.0145 0.0138,0.0287 0.0419,0.0418 v 0.21913 c -0.028,0.014 -0.0419,0.0313 -0.0419,0.0522 0.007,0.0209 0.01,0.0451 0.01,0.0729 v 0.81392 c 0,0.0145 -0.003,0.0287 -0.01,0.0418 -0.007,0.0143 -0.003,0.0249 0.01,0.0315 0.034,0.0418 0.0444,0.0834 0.031,0.12507 -0.007,0.0417 -0.007,0.0833 0,0.12507 l 0.0201,0.0196 h 0.49041 0.031 c 0.0273,-0.0345 0.0547,-0.048 0.0827,-0.0413 0.028,0.007 0.0562,0.007 0.0842,0 h 0.12504 c 0.0353,0.008 0.0636,0 0.0842,-0.0196 0.028,-0.0146 0.0557,-0.0287 0.0837,-0.0419 0.028,-0.014 0.0424,-0.0347 0.0424,-0.0625 -0.014,-0.0349 -0.004,-0.0629 0.031,-0.0837 -0.007,-0.0349 -0.003,-0.0629 0.01,-0.0837 0.0206,-0.0277 0.031,-0.0592 0.031,-0.0941 v -0.65733 c 0,-0.0282 -0.003,-0.0455 -0.01,-0.0522 -0.0273,-0.0348 -0.0377,-0.0662 -0.031,-0.094 0.0132,-0.0348 0.0132,-0.0658 0,-0.0935 0.0413,-0.0349 0.0583,-0.0735 0.0517,-0.11525 -0.007,-0.0417 -0.01,-0.0799 -0.01,-0.11473 v -2.84893 c 0,-0.0418 -0.003,-0.0833 -0.01,-0.12504 0,-0.0225 0.006,-0.0436 0.0161,-0.0641 0.0526,0.0445 0.097,0.093 0.13176,0.14573 0.0453,0.0547 0.10425,0.0957 0.17725,0.12298 0.0364,0.018 0.0823,0.064 0.13695,0.13695 0.018,0.0281 0.0404,0.0461 0.0677,0.0543 0.0367,0.0185 0.0688,0.0415 0.0961,0.0687 0.0456,0.0273 0.0822,0.0588 0.10953,0.0951 0.0367,0.0373 0.0777,0.0649 0.12301,0.0822 0.028,0.019 0.0503,0.037 0.0677,0.0542 0.0193,0.0283 0.038,0.051 0.0553,0.0682 0.0188,0.0191 0.0364,0.0375 0.0537,0.0548 0.0188,0.0172 0.0369,0.0259 0.0543,0.0259 0.028,0.0101 0.0504,0.0236 0.0677,0.0408 0.0188,0.019 0.0369,0.037 0.0543,0.0543 0.0636,0.0557 0.13608,0.0923 0.21807,0.10957 0.0185,0 0.0369,0.008 0.0542,0.0259 0.0467,0.019 0.0742,0.0106 0.0822,-0.0259 0.0193,-0.0363 0.0328,-0.0543 0.0408,-0.0543 0.044,0.01 0.0617,0.003 0.0537,-0.0259 0,-0.0283 0.004,-0.0515 0.0124,-0.0687 h -0.0114 -0.003 c -0.0373,0 -0.0602,-0.0135 -0.0682,-0.0408 l -0.0259,-0.0259 c 0.0101,-0.0172 0.0236,-0.0172 0.0408,0 v 0.0259 h -0.0119 c 0.0453,0 0.0677,0.0135 0.0677,0.0408 0.037,-0.009 0.0735,0.005 0.10956,0.0408 0.0172,-0.019 0.0265,-0.037 0.0265,-0.0543 0.0101,-0.019 0.0236,-0.0375 0.0408,-0.0548 0.008,0 0.008,-0.008 0,-0.0259 0,-0.019 -0.004,-0.0326 -0.0119,-0.0408 -0.0175,-0.018 -0.0265,-0.0499 -0.0265,-0.0956 0,-0.0636 0.0275,-0.0772 0.0821,-0.0408 0.028,0.0254 0.0463,0.034 0.0543,0.0259 v -0.0682 c -0.009,-0.019 -0.0183,-0.0326 -0.0265,-0.0408 -0.008,0 -0.0119,-0.004 -0.0119,-0.0124 0.009,-0.0546 -0.009,-0.10472 -0.0543,-0.15039 -0.082,-0.0728 -0.15909,-0.15002 -0.23204,-0.23204 -0.0727,-0.073 -0.1592,-0.14155 -0.2594,-0.20513 -0.0273,-0.0185 -0.0548,-0.041 -0.0822,-0.0682 -0.018,-0.0273 -0.0404,-0.0549 -0.0677,-0.0822 -0.0549,-0.0455 -0.10506,-0.0957 -0.15038,-0.15039 l -0.0822,-0.0817 c -0.0273,-0.0275 -0.0591,-0.0549 -0.0951,-0.0821 -0.0456,-0.0547 -0.0957,-0.10486 -0.15039,-0.15039 -0.046,0 -0.0778,-0.018 -0.0951,-0.0542 -0.018,-0.0283 -0.0404,-0.051 -0.0677,-0.0682 l -0.0822,-0.0821 c -0.018,-0.0281 -0.0497,-0.0461 -0.0951,-0.0543 -0.0188,-0.0375 -0.0508,-0.0605 -0.0961,-0.0687 -0.036,-0.009 -0.0672,-0.0319 -0.0946,-0.0682 -0.0276,-0.0463 -0.0642,-0.0783 -0.10953,-0.0956 -0.046,-0.009 -0.087,-0.036 -0.12301,-0.0816 -0.037,0 -0.0735,-0.0185 -0.10954,-0.0548 -0.0276,-0.0275 -0.0642,-0.014 -0.10956,0.0408 -0.0101,0.008 -0.0236,0.008 -0.0408,0 -0.009,0 -0.0177,0.004 -0.0259,0.0124 -0.046,0.009 -0.087,0.005 -0.12301,-0.0124 -0.0273,-0.0101 -0.0591,-0.0236 -0.0951,-0.0408 -0.0633,0 -0.0951,-0.0225 -0.0951,-0.0682 0,-0.0172 -0.0183,-0.0265 -0.0543,-0.0265 z m 0.80872,0.63045 c 0.009,0.003 0.0177,0.0101 0.0265,0.0238 v 0.0124 h -0.0161 c -0.009,0 -0.0177,-0.004 -0.0259,-0.0124 l -0.0124,-0.0124 c 0.009,-0.01 0.0188,-0.0135 0.0279,-0.0114 z m 0.0284,0.0388 h 0.0119 l 0.0228,0.0228 c -0.0119,-0.0108 -0.0233,-0.0127 -0.0346,-0.0164 0,-0.003 -0.003,-0.004 0,-0.006 z m 0,0.0185 0.0259,0.0196 c -0.009,0 -0.0177,-0.004 -0.0259,-0.0124 -0.003,-0.003 0,-0.005 0,-0.007 z m -0.20982,0.13229 c 0.0548,0.007 0.0934,0.038 0.11472,0.0951 0.0273,0 0.0408,0.0135 0.0408,0.0408 h 0.0265 c 0,0.009 0.004,0.0177 0.0119,0.0259 h -0.003 c -0.0156,-0.007 -0.0225,-0.0127 -0.0336,-0.019 l 0.009,0.0185 h -0.0119 v -0.0206 c -0.0317,-0.0185 -0.0513,-0.035 -0.0455,-0.0476 -0.0489,0 -0.0848,-0.01 -0.11007,-0.0274 z m 0.15555,0.14108 c 0,0 0.003,0.003 0.003,0.003 l -0.003,-0.007 z m -0.59997,0.0599 v 0.16073 c 0,0.0143 -0.003,0.0243 -0.01,0.031 h -0.063 c -0.0132,-0.0349 -0.0169,-0.073 -0.0103,-0.11472 1.3e-4,0 -8e-5,-0.003 0,-0.003 0,-0.003 0.003,-0.003 0.004,-0.003 0.0233,-0.0317 0.0502,-0.0546 0.0796,-0.0718 z m -0.13798,0.11525 c -0.0169,0.0204 -0.0279,0.0396 -0.0279,0.0558 0.007,0.0209 0.007,0.0451 0,0.0729 v 0.0837 c 0.007,0.0209 0.007,0.0451 0,0.0729 v 0.0837 c 0.007,0.0209 0.003,0.0451 -0.0103,0.0729 -0.0132,-0.0143 -0.0196,-0.0249 -0.0196,-0.0315 v -0.0414 -0.34933 c 0.003,-0.003 0.005,-0.005 0.007,-0.008 0.0188,0 0.035,-0.005 0.0506,-0.0114 z m -0.0424,0.95499 c 0.0132,0.0626 0.0201,0.13904 0.0201,0.22944 0,0.0835 -0.007,0.15651 -0.0201,0.21911 -0.0132,-0.0626 -0.0196,-0.13563 -0.0196,-0.21911 0,-0.0904 0.006,-0.16684 0.0196,-0.22944 z m 0.39791,3.44421 0.0201,0.0103 c -0.007,0.0217 -0.003,0.0391 0.01,0.0522 0.0206,0.0145 0.031,0.0287 0.031,0.0419 0,0.0269 -0.007,0.04 -0.0191,0.0408 -0.0347,0 -0.0517,-0.007 -0.0517,-0.0196 0,-0.0209 -0.004,-0.0417 -0.0103,-0.0625 0,-0.0209 0.007,-0.0422 0.0201,-0.0631 z m -0.66921,0.0734 0.0419,0.0419 c 0.0132,0.014 0.0169,0.0313 0.0103,0.0522 0,0.0132 -0.0103,0.0196 -0.031,0.0196 h -0.031 c -0.0214,0 -0.0389,-0.007 -0.0522,-0.0196 v -0.0196 c 0.007,-0.0143 0.01,-0.0249 0.01,-0.0315 0.0214,-0.0212 0.0389,-0.0352 0.0522,-0.0419 z m 0.80406,0.0429 0.01,0.01 -0.0196,0.0196 -0.0201,-0.0196 h 0.01 c 0.007,-0.007 0.0135,-0.01 0.0201,-0.01 z m -0.82423,0.18706 c 0.014,0 0.0243,0.007 0.031,0.0196 v 0.01 c -0.007,0.0132 -0.0177,0.0196 -0.031,0.0196 -0.014,0 -0.0243,-0.007 -0.031,-0.0196 -0.007,-0.007 -0.007,-0.01 0,-0.01 0.007,-0.0132 0.0177,-0.0196 0.031,-0.0196 z"
       style="font-style:normal;font-variant:normal;font-weight:normal;font-stretch:normal;font-size:4.23333px;line-height:1.05;font-family:THEME;-inkscape-font-specification:THEME;text-align:center;text-anchor:middle;fill:#d2c8c4;fill-opacity:1;stroke-width:3.41477;stroke-linecap:square;paint-order:fill markers stroke"
       id="path25292" />
  </g>
</svg>
