<?xml version="1.0" encoding="UTF-8" standalone="no"?>
<svg
   xmlns:dc="http://purl.org/dc/elements/1.1/"
   xmlns:cc="http://creativecommons.org/ns#"
   xmlns:rdf="http://www.w3.org/1999/02/22-rdf-syntax-ns#"
   xmlns:svg="http://www.w3.org/2000/svg"
   xmlns="http://www.w3.org/2000/svg"
   xmlns:sodipodi="http://sodipodi.sourceforge.net/DTD/sodipodi-0.dtd"
   xmlns:inkscape="http://www.inkscape.org/namespaces/inkscape"
   sodipodi:docname="23_left_arrow.svg"
   inkscape:version="1.0 (4035a4fb49, 2020-05-01)"
   id="svg28626"
   version="1.1"
   viewBox="0 0 9.5249996 9.5249996"
   height="9.5249996mm"
   width="9.5249996mm">
  <defs
     id="defs28620" />
  <sodipodi:namedview
     inkscape:window-maximized="1"
     inkscape:window-y="-8"
     inkscape:window-x="-8"
     inkscape:window-height="705"
     inkscape:window-width="1366"
     fit-margin-bottom="0"
     fit-margin-right="0"
     fit-margin-left="0"
     fit-margin-top="0"
     showgrid="false"
     inkscape:document-rotation="0"
     inkscape:current-layer="layer1"
     inkscape:document-units="mm"
     inkscape:cy="16.598906"
     inkscape:cx="26.574037"
     inkscape:zoom="10.738351"
     inkscape:pageshadow="2"
     inkscape:pageopacity="0.0"
     borderopacity="1.0"
     bordercolor="#666666"
     pagecolor="#ffffff"
     id="base" />
  <metadata
     id="metadata28623">
    <rdf:RDF>
      <cc:Work
         rdf:about="">
        <dc:format>image/svg+xml</dc:format>
        <dc:type
           rdf:resource="http://purl.org/dc/dcmitype/StillImage" />
        <dc:title></dc:title>
      </cc:Work>
    </rdf:RDF>
  </metadata>
  <g
     transform="translate(-112.71674,-147.40859)"
     id="layer1"
     inkscape:groupmode="layer"
     inkscape:label="Layer 1">
    <path
       d="m 116.49999,149.66819 c -0.0193,0.009 -0.0328,0.0177 -0.0408,0.0259 0,0.008 -0.004,0.0124 -0.0119,0.0124 -0.055,-0.009 -0.10507,0.009 -0.15039,0.0543 -0.0728,0.082 -0.15002,0.15957 -0.23204,0.23255 -0.0733,0.0727 -0.14182,0.15917 -0.20516,0.25942 -0.018,0.0273 -0.0409,0.0549 -0.0682,0.0821 -0.0273,0.0183 -0.0543,0.041 -0.0816,0.0682 -0.0456,0.0547 -0.0957,0.10486 -0.15036,0.15039 -0.0273,0.0275 -0.0549,0.0549 -0.0822,0.0822 -0.0273,0.0273 -0.0548,0.0588 -0.0821,0.0951 -0.0549,0.0455 -0.10504,0.0956 -0.15039,0.15039 0,0.0463 -0.0177,0.0783 -0.0537,0.0956 -0.028,0.0183 -0.0509,0.041 -0.0682,0.0682 -0.0273,0.0275 -0.0543,0.0549 -0.0817,0.0822 -0.028,0.018 -0.0463,0.0495 -0.0543,0.0951 -0.0373,0.0182 -0.0602,0.0501 -0.0682,0.0956 -0.009,0.0363 -0.0317,0.0683 -0.0677,0.0956 -0.046,0.0274 -0.0778,0.064 -0.0951,0.10954 -0.009,0.0457 -0.0362,0.0867 -0.0822,0.123 0,0.0366 -0.0177,0.0732 -0.0537,0.10957 -0.0273,0.0274 -0.0138,0.0635 0.0408,0.10903 0.008,0.0101 0.008,0.0241 0,0.0413 0,0.009 0.004,0.0177 0.0119,0.0259 0.009,0.0457 0.006,0.0867 -0.0119,0.12298 -0.0101,0.0273 -0.0236,0.0588 -0.0408,0.0951 0,0.0636 -0.0233,0.0956 -0.0692,0.0956 -0.0172,0 -0.0259,0.018 -0.0259,0.0543 0.0188,0.0284 0.0369,0.0515 0.0543,0.0687 0.0193,0.009 0.0328,0.027 0.0408,0.0542 0.018,0.0638 0.0404,0.10969 0.0677,0.13694 0.0185,0.0275 0.0369,0.0549 0.0542,0.0822 0.0188,0.0283 0.0364,0.0509 0.0538,0.0682 0.0193,0.0183 0.0333,0.0409 0.0413,0.0682 0.0101,0.0283 0.0236,0.0509 0.0408,0.0682 0.0188,0.0275 0.0369,0.0549 0.0543,0.0822 0.028,0.0183 0.0504,0.0458 0.0677,0.0822 0.018,0.0273 0.0409,0.0544 0.0682,0.0816 0.028,0.0283 0.0503,0.0509 0.0677,0.0682 0,0.0457 0.014,0.0823 0.0414,0.10956 0.0373,0.0183 0.0643,0.0409 0.0816,0.0682 0.0175,0 0.0265,0.008 0.0265,0.0259 -0.009,0.0464 0.005,0.0783 0.0408,0.0956 0.038,0.009 0.0613,0.0366 0.0692,0.0822 0,0.0373 0.0177,0.0644 0.0537,0.0816 0.0373,0.018 0.0648,0.0501 0.0822,0.0956 0.009,0.0363 0.0264,0.0678 0.0537,0.0951 0.0273,0.0182 0.0548,0.041 0.0822,0.0682 l 0.0408,0.0413 c 0,0.0463 0.014,0.0778 0.0414,0.0951 0.028,0.019 0.0504,0.0375 0.0677,0.0548 0.0193,0.0191 0.038,0.037 0.0553,0.0543 0.0193,0.0185 0.0328,0.0458 0.0408,0.0822 0.009,0.0273 0.0265,0.0544 0.0537,0.0816 0.028,0.019 0.0509,0.0375 0.0682,0.0548 0.0185,0.0191 0.0419,0.037 0.0692,0.0543 0.0273,0.019 0.0543,0.0375 0.0816,0.0548 0.028,0.0183 0.0509,0.041 0.0682,0.0682 0.0273,0.0283 0.0548,0.051 0.0822,0.0682 l 0.16383,0.0821 c 0.0373,0 0.0597,-0.008 0.0677,-0.0259 -0.0273,-0.0374 -0.0408,-0.06 -0.0408,-0.0682 0,-0.009 0.0227,-0.0275 0.0682,-0.0548 0.036,-0.009 0.0673,-0.027 0.0946,-0.0543 0.082,-0.0273 0.096,-0.0909 0.0413,-0.19118 -0.008,-0.0191 -0.0124,-0.0332 -0.0124,-0.0414 0.008,-0.0101 0.008,-0.0236 0,-0.0408 -0.028,0 -0.0457,-0.018 -0.0537,-0.0543 -0.0347,0 -0.0431,-0.008 -0.0259,-0.0259 0.0101,-0.009 0.0235,-0.005 0.0408,0.0119 v 0.0124 c -0.008,0.008 -0.0119,0.008 -0.0119,0 0.036,0 0.0538,0.0185 0.0538,0.0548 h 0.0553 c 0.0188,0 0.0364,0.008 0.0538,0.0259 0.009,0.019 0.0183,0.0326 0.0265,0.0408 0.008,0.0101 0.0119,0.0235 0.0119,0.0408 0,0.0445 0.0222,0.0531 0.0677,0.0259 0.0185,-0.0172 0.0369,-0.0259 0.0542,-0.0259 0.028,-0.0101 0.0504,-0.0236 0.0677,-0.0408 v -0.13645 c -0.0467,-0.0365 -0.0737,-0.0774 -0.0816,-0.12298 0,-0.0457 -0.0183,-0.0823 -0.0543,-0.10956 -0.0647,-0.0637 -0.10564,-0.11827 -0.12297,-0.16381 -0.018,-0.0373 -0.0404,-0.0649 -0.0677,-0.0821 -0.0286,-0.0274 -0.0519,-0.0635 -0.0692,-0.10906 -0.0188,-0.0375 -0.0462,-0.0649 -0.0822,-0.0822 -0.0287,-0.0274 -0.0514,-0.064 -0.0687,-0.10957 -0.018,-0.0363 -0.0634,-0.0817 -0.13642,-0.13642 -0.0193,-0.0183 -0.0333,-0.0409 -0.0413,-0.0682 -0.009,-0.0375 -0.0265,-0.0649 -0.0537,-0.0821 -0.0369,-0.0273 -0.0736,-0.0774 -0.10957,-0.15039 -0.018,-0.0283 -0.0409,-0.0515 -0.0682,-0.0687 -0.0185,-0.0283 -0.0364,-0.0509 -0.0537,-0.0682 -0.0127,-0.008 -0.023,-0.0177 -0.0315,-0.0279 h 1.48052 0.13589 0.13539 0.14626 c 0.0206,0 0.0448,0.004 0.0729,0.0103 0.0214,0 0.0424,-0.004 0.0631,-0.0103 0.028,-0.008 0.0522,0 0.0728,0.0196 0.014,0.0132 0.0315,0.0196 0.0522,0.0196 0.0488,0 0.0976,0.004 0.14624,0.0103 0.0415,0 0.0831,-0.004 0.12507,-0.0103 0.0214,0 0.0424,-0.007 0.0631,-0.0196 0.014,-0.0199 0.035,-0.0265 0.063,-0.0196 0.028,0.007 0.0522,0.0103 0.0729,0.0103 0.0206,-0.007 0.0448,-0.0103 0.0728,-0.0103 0.014,0 0.0315,0.004 0.0522,0.0103 0.0214,0 0.0424,-0.004 0.0631,-0.0103 0.0214,0 0.0424,0.004 0.063,0.0103 0.0146,0 0.0285,-0.014 0.0419,-0.0419 h 0.2191 c 0.014,0.0278 0.0315,0.0419 0.0522,0.0419 0.0206,-0.007 0.0448,-0.0103 0.0729,-0.0103 h 0.81388 c 0.0146,0 0.0291,0.004 0.0424,0.0103 0.014,0.006 0.0243,0.003 0.031,-0.0103 0.0415,-0.034 0.0831,-0.0441 0.12504,-0.031 0.0415,0.007 0.0831,0.007 0.12507,0 l 0.0201,-0.0201 v -0.49041 -0.031 c -0.0347,-0.0279 -0.0485,-0.0559 -0.0419,-0.0837 0.007,-0.0279 0.007,-0.0559 0,-0.0837 v -0.12507 c 0.007,-0.0349 0,-0.0628 -0.0201,-0.0837 -0.0145,-0.0279 -0.0285,-0.0559 -0.0418,-0.0837 -0.014,-0.0278 -0.0351,-0.0413 -0.0631,-0.0413 -0.0353,0.014 -0.0636,0.003 -0.0842,-0.0315 -0.0353,0.006 -0.0631,0.003 -0.0837,-0.01 -0.028,-0.0209 -0.0594,-0.0315 -0.094,-0.0315 h -0.65733 c -0.028,0 -0.0455,0.004 -0.0522,0.0103 -0.0347,0.0275 -0.066,0.0377 -0.094,0.031 -0.0347,-0.0132 -0.0661,-0.0132 -0.0941,0 -0.0346,-0.0415 -0.0727,-0.0589 -0.11472,-0.0522 -0.0419,0.007 -0.0801,0.01 -0.11472,0.01 h -2.84893 c -0.0415,0 -0.0836,0.004 -0.12557,0.0103 -0.0217,0 -0.0422,-0.006 -0.062,-0.0151 0.0442,-0.052 0.0926,-0.0958 0.14523,-0.13075 0.0547,-0.0453 0.0957,-0.1048 0.12298,-0.17775 0.018,-0.0363 0.0635,-0.0817 0.13642,-0.13645 0.028,-0.0182 0.0463,-0.0409 0.0543,-0.0682 0.0188,-0.0365 0.0414,-0.0683 0.0687,-0.0956 0.0273,-0.0457 0.0591,-0.0823 0.0951,-0.10956 0.0373,-0.0365 0.0648,-0.0774 0.0822,-0.12298 0.0185,-0.0283 0.0369,-0.051 0.0543,-0.0682 0.028,-0.019 0.0503,-0.0375 0.0677,-0.0548 0.0188,-0.019 0.0369,-0.037 0.0543,-0.0542 0.0175,-0.019 0.0259,-0.0375 0.0259,-0.0548 0.01,-0.0283 0.0236,-0.0509 0.0408,-0.0682 0.0188,-0.0191 0.0369,-0.037 0.0542,-0.0543 0.0556,-0.0636 0.0917,-0.13658 0.10906,-0.21857 0,-0.019 0.009,-0.037 0.0265,-0.0543 0.0185,-0.0463 0.01,-0.074 -0.0265,-0.0822 -0.036,-0.0191 -0.0538,-0.0326 -0.0538,-0.0408 0.0101,-0.0445 0.003,-0.0624 -0.0259,-0.0542 -0.0278,0 -0.0504,-0.004 -0.0677,-0.0124 -0.005,-0.034 0.007,-0.068 0.0408,-0.10181 -0.0185,-0.0172 -0.0369,-0.0259 -0.0543,-0.0259 -0.0185,-0.0101 -0.0364,-0.0235 -0.0537,-0.0408 0,-0.008 -0.009,-0.008 -0.0265,0 -0.0193,0 -0.0328,0.004 -0.0408,0.0124 -0.018,0.0172 -0.0497,0.0259 -0.0951,0.0259 -0.064,0 -0.0775,-0.0271 -0.0408,-0.0816 0.0254,-0.0281 0.0338,-0.0466 0.0259,-0.0548 z m 0.31213,0.2744 v 0.003 c 0,0.0373 -0.0135,0.06 -0.0408,0.0682 l -0.0259,0.0259 c -0.0175,-0.0101 -0.0175,-0.0235 0,-0.0408 h 0.0259 v 0.0124 c 0,-0.0455 0.0135,-0.0682 0.0408,-0.0682 z m -1.60094,1.48416 c -0.0111,0.0124 -0.0132,0.0236 -0.0169,0.0351 -0.003,0 -0.004,0.003 -0.006,0 v -0.0124 z m 0.0151,0.009 c 0,0.009 -0.004,0.0177 -0.0119,0.0259 -0.003,0.003 -0.005,0 -0.008,0 z m -0.0532,0.0284 h 0.0119 v 0.0164 c 0,0.009 -0.004,0.0177 -0.0119,0.0259 l -0.0119,0.0124 c -0.0193,-0.0191 -0.0153,-0.0375 0.0119,-0.0548 z m 0.32817,0.014 v 0 c -0.007,0.0159 -0.0132,0.0228 -0.0196,0.0341 l 0.0196,-0.009 v 0.0124 h -0.0212 c -0.0185,0.0314 -0.0355,0.0509 -0.048,0.045 0,0.0481 -0.009,0.0839 -0.0265,0.10903 h -0.0661 c 0.007,-0.054 0.038,-0.092 0.0946,-0.11316 0,-0.0272 0.0135,-0.0408 0.0408,-0.0408 v -0.0259 c 0.009,0 0.0183,-0.004 0.0265,-0.0124 z m -0.0265,0.0382 h 0.005 c 0,0 0,-0.003 0.003,-0.003 z m 4.70564,0.23823 0.0201,0.0196 -0.0201,0.0201 v -0.01 c -0.007,-0.006 -0.01,-0.0135 -0.01,-0.0201 z m -0.0217,0.0837 c 0.028,0 0.0419,0.007 0.0419,0.0196 0,0.0335 -0.007,0.0512 -0.0201,0.0512 -0.0214,0 -0.0424,0.003 -0.0631,0.01 -0.0214,0 -0.0424,-0.007 -0.063,-0.0196 l 0.0103,-0.0196 c 0.0214,0.006 0.0383,0.003 0.0517,-0.0103 0.0145,-0.0209 0.0291,-0.031 0.0424,-0.031 z m -4.61883,0.27647 h 0.1633 c 0.014,0 0.0243,0.003 0.031,0.01 v 0.0631 c -0.0346,0.0132 -0.0732,0.0164 -0.11523,0.01 -0.003,0 -0.004,0 -0.006,0 -0.0323,-0.0241 -0.0559,-0.0518 -0.0729,-0.0827 z m 0.11576,0.13539 c 0.0217,0.0185 0.0415,0.0305 0.0584,0.0305 0.0206,-0.007 0.0449,-0.007 0.0729,0 h 0.0842 c 0.0206,-0.007 0.0449,-0.007 0.0729,0 h 0.0832 c 0.0206,-0.006 0.0448,-0.003 0.0729,0.01 -0.014,0.0132 -0.0243,0.0196 -0.031,0.0196 h -0.0419 -0.35658 c 0,0 0,0 -0.003,-0.003 0,-0.0217 -0.005,-0.0409 -0.0135,-0.0584 z m 1.18441,0.0264 c 0.0834,0 0.15644,0.006 0.21912,0.0196 -0.0626,0.0132 -0.13565,0.0196 -0.21912,0.0196 -0.0903,0 -0.16677,-0.007 -0.22945,-0.0196 0.0626,-0.0132 0.13906,-0.0196 0.22945,-0.0196 z m 3.3533,0.23614 c 0.009,-0.003 0.018,0 0.0284,0.003 0.0132,0 0.0201,0.0106 0.0201,0.0315 v 0.0305 c 0,0.0217 -0.007,0.0391 -0.0201,0.0522 h -0.0196 c -0.014,-0.007 -0.0243,-0.0103 -0.031,-0.0103 -0.0214,-0.0217 -0.0357,-0.0391 -0.0424,-0.0522 l 0.0424,-0.0413 c 0.007,-0.007 0.0145,-0.0114 0.0233,-0.013 z m 0.18396,0.0439 h 0.0103 c 0.0132,0.008 0.0196,0.0185 0.0196,0.0315 0,0.0143 -0.006,0.0243 -0.0196,0.031 -0.007,0.007 -0.0103,0.007 -0.0103,0 -0.0132,-0.008 -0.0196,-0.018 -0.0196,-0.031 0,-0.0143 0.006,-0.0249 0.0196,-0.0315 z"
       style="font-style:normal;font-variant:normal;font-weight:normal;font-stretch:normal;font-size:4.23333px;line-height:1.05;font-family:THEME;-inkscape-font-specification:THEME;text-align:center;text-anchor:middle;fill:#d2c8c4;fill-opacity:1;stroke-width:3.41477;stroke-linecap:square;paint-order:fill markers stroke"
       id="path25302" />
  </g>
</svg>
