<?xml version="1.0" encoding="UTF-8" standalone="no"?>
<svg
   xmlns:dc="http://purl.org/dc/elements/1.1/"
   xmlns:cc="http://creativecommons.org/ns#"
   xmlns:rdf="http://www.w3.org/1999/02/22-rdf-syntax-ns#"
   xmlns:svg="http://www.w3.org/2000/svg"
   xmlns="http://www.w3.org/2000/svg"
   xmlns:sodipodi="http://sodipodi.sourceforge.net/DTD/sodipodi-0.dtd"
   xmlns:inkscape="http://www.inkscape.org/namespaces/inkscape"
   sodipodi:docname="01_main_menu_load_image_mask.svg"
   inkscape:version="1.0 (4035a4fb49, 2020-05-01)"
   id="svg15295"
   version="1.1"
   viewBox="0 0 55.451511 31.845831"
   height="31.845831mm"
   width="55.451511mm">
  <defs
     id="defs15289" />
  <sodipodi:namedview
     inkscape:window-maximized="1"
     inkscape:window-y="-8"
     inkscape:window-x="-8"
     inkscape:window-height="705"
     inkscape:window-width="1366"
     fit-margin-bottom="0"
     fit-margin-right="0"
     fit-margin-left="0"
     fit-margin-top="0"
     showgrid="false"
     inkscape:document-rotation="0"
     inkscape:current-layer="layer1"
     inkscape:document-units="mm"
     inkscape:cy="141.04688"
     inkscape:cx="151.03522"
     inkscape:zoom="0.67114695"
     inkscape:pageshadow="2"
     inkscape:pageopacity="0.0"
     borderopacity="1.0"
     bordercolor="#666666"
     pagecolor="#ffffff"
     id="base" />
  <metadata
     id="metadata15292">
    <rdf:RDF>
      <cc:Work
         rdf:about="">
        <dc:format>image/svg+xml</dc:format>
        <dc:type
           rdf:resource="http://purl.org/dc/dcmitype/StillImage" />
        <dc:title></dc:title>
      </cc:Work>
    </rdf:RDF>
  </metadata>
  <g
     transform="translate(-54.273178,-142.55579)"
     id="layer1"
     inkscape:groupmode="layer"
     inkscape:label="Layer 1">
    <path
       d="m 57.317078,142.55579 -2.1254,1.57749 0.1137,3.12662 c 0.3842,0.35683 0.9089,0.88578 1.4903,1.48467 l 0.126601,0.13022 -0.01,0.1266 c -0.061,0.76993 -0.132601,1.6016 -0.1943,2.37453 0.4701,0.42797 0.8922,0.80033 1.1622,0.99323 -0.282301,-0.20165 -0.8034,-0.49738 -1.392101,-0.8196 l -0.053,-0.0289 -0.01,-0.0873 c -0.058,-0.72899 -0.1252,-1.51357 -0.1845,-2.25102 -0.5118,-0.38007 -0.9734,-0.72876 -1.3374,-1.01802 l -0.63,0.8661 1.0372,7.78349 -0.8558,14.66802 2.805,2.36108 13.1052,0.55862 17.1038,-1.25263 c 0.491199,-0.3854 1.241401,-0.92686 2.091399,-1.52859 l 0.099,-0.0703 0.077,-0.004 c 1.029301,-0.0586 2.143001,-0.11663 3.173899,-0.17518 0.884301,-0.58436 1.667402,-1.11298 2.1043,-1.45056 -0.443597,0.34279 -1.167799,0.98154 -1.970899,1.70326 l -0.02199,0.0202 -0.048,0.009 c -0.984901,0.17653 -2.047201,0.37179 -3.038102,0.54982 -0.547,0.5119 -1.047999,0.97373 -1.464498,1.34411 l 0.968899,0.52141 h 18.326504 l 1.5798,-2.01384 -0.5312,-7.68341 0.91,-7.42383 -1.0485,-1.71567 c -0.3764,0.3404 -0.8142,0.72661 -1.3425,1.18133 -0.079,0.63177 -0.1677,1.31631 -0.2569,2.00092 l -0.014,0.10954 -0.059,0.0501 c -0.6194,0.52442 -1.23891,1.04907 -1.7994,1.52962 -0.10731,0.63459 -0.1906,1.18319 -0.22011,1.53735 0.03,-0.362 0.038,-0.93346 0.037,-1.59525 v -0.03 l 0.029,-0.031 c 0.48481,-0.52229 1.013,-1.09894 1.54361,-1.67794 -0.01,-0.72765 -0.012,-1.45286 -0.013,-2.11305 v -0.13022 l 0.11929,-0.12713 c 0.64511,-0.68563 1.19311,-1.25394 1.60881,-1.6619 l 1.25468,-8.47958 -3.3792,-2.30425 -15.005703,-0.92605 -18.425799,0.30282 -1.3291,0.50125 c 0.3686,0.3926 0.7788,0.83518 1.2583,1.36271 1.0676,-0.12006 2.2374,-0.24748 3.4416,-0.37774 l 0.1458,-0.016 0.088,0.0811 c 0.4679,0.43198 0.9481,0.87661 1.4169,1.30948 0.9116,-0.0712 1.7941,-0.14126 2.5926,-0.20877 l 0.022,-0.002 0.013,0.007 c 0.579302,0.28823 1.078102,0.52707 1.423201,0.67179 -0.341199,-0.14307 -0.853099,-0.32863 -1.455701,-0.53692 -0.8125,0.13121 -1.7115,0.28091 -2.6381,0.43667 l -0.067,0.0114 -0.07,-0.0512 c -0.4953,-0.3581 -1.0044,-0.72477 -1.5017,-1.08416 -1.2359,0.21516 -2.4331,0.42264 -3.5171,0.60616 l -0.1933,0.0326 -0.1612,-0.15399 c -0.7585,-0.72407 -1.3873,-1.33571 -1.8542,-1.80764 l -7.293599,-0.8847 z"
       style="fill:#ffffff;fill-opacity:1;stroke:none;stroke-width:1.05833;stroke-linecap:butt;stroke-linejoin:miter;stroke-miterlimit:4;stroke-dasharray:none;stroke-opacity:1"
       id="path15287"
       sodipodi:nodetypes="ccccccccsccccccccccccccccccccccccccccccccccccccccccccccccsccccccccccccsccc"
       inkscape:export-filename="D:\Calcatz\Icon Pack\Adventure Narrative Inspired by Jumanji\Assets\PNG\Image Mask\01_main_menu_load_image_mask.png"
       inkscape:export-xdpi="96"
       inkscape:export-ydpi="96" />
  </g>
</svg>
