<?xml version="1.0" encoding="UTF-8" standalone="no"?>
<svg
   xmlns:dc="http://purl.org/dc/elements/1.1/"
   xmlns:cc="http://creativecommons.org/ns#"
   xmlns:rdf="http://www.w3.org/1999/02/22-rdf-syntax-ns#"
   xmlns:svg="http://www.w3.org/2000/svg"
   xmlns="http://www.w3.org/2000/svg"
   xmlns:sodipodi="http://sodipodi.sourceforge.net/DTD/sodipodi-0.dtd"
   xmlns:inkscape="http://www.inkscape.org/namespaces/inkscape"
   sodipodi:docname="02_episodes_image_mask.svg"
   inkscape:version="1.0 (4035a4fb49, 2020-05-01)"
   id="svg16473"
   version="1.1"
   viewBox="0 0 40.329403 39.525154"
   height="39.525154mm"
   width="40.329403mm">
  <defs
     id="defs16467" />
  <sodipodi:namedview
     inkscape:window-maximized="1"
     inkscape:window-y="-8"
     inkscape:window-x="-8"
     inkscape:window-height="705"
     inkscape:window-width="1366"
     fit-margin-bottom="0"
     fit-margin-right="0"
     fit-margin-left="0"
     fit-margin-top="0"
     showgrid="false"
     inkscape:document-rotation="0"
     inkscape:current-layer="layer1"
     inkscape:document-units="mm"
     inkscape:cy="327.75595"
     inkscape:cx="365.95403"
     inkscape:zoom="0.33557348"
     inkscape:pageshadow="2"
     inkscape:pageopacity="0.0"
     borderopacity="1.0"
     bordercolor="#666666"
     pagecolor="#ffffff"
     id="base" />
  <metadata
     id="metadata16470">
    <rdf:RDF>
      <cc:Work
         rdf:about="">
        <dc:format>image/svg+xml</dc:format>
        <dc:type
           rdf:resource="http://purl.org/dc/dcmitype/StillImage" />
        <dc:title></dc:title>
      </cc:Work>
    </rdf:RDF>
  </metadata>
  <g
     transform="translate(-9.0079975,-61.447905)"
     id="layer1"
     inkscape:groupmode="layer"
     inkscape:label="Layer 1">
    <path
       inkscape:export-ydpi="96"
       inkscape:export-xdpi="96"
       inkscape:export-filename="D:\Calcatz\Icon Pack\Adventure Narrative Inspired by Jumanji\Assets\PNG\Image Mask\02_episodes_image_mask.png"
       style="fill:#ffffff;fill-opacity:1;stroke:none;stroke-width:1.55707;stroke-linecap:butt;stroke-linejoin:miter;stroke-miterlimit:4;stroke-dasharray:none;stroke-opacity:1"
       d="m 13.509298,61.447905 -2.910401,3.14613 0.6378,4.85366 c 0.6634,0.60279 1.5146,1.4068 2.525,2.38125 l 0.2022,0.1954 -0.042,0.23037 c -0.1658,0.91145 -0.3539,1.91088 -0.5428,2.9142 0.6307,0.54473 1.2577,1.08511 1.8338,1.57531 l 0.05,0.0425 v 0.0494 c -0.03,1.13043 -0.045,2.1081 -0.023,2.72944 -0.022,-0.60939 -0.102899,-1.55772 -0.210699,-2.65569 -0.673701,-0.43589 -1.416801,-0.90964 -2.159901,-1.38296 l -0.133,-0.0844 0.013,-0.19691 c 0.062,-0.96898 0.1247,-1.93774 0.187,-2.83288 -0.9377,-0.76171 -1.708,-1.40248 -2.3349,-1.93795 l -0.8561005,0.73673 0.9481005,13.78177 0.01,0.092 -1.6953995,10.097449 2.5804005,5.336436 3.0199,-1.482544 10.4251,1.450624 1.9957,-0.788425 c -0.4637,-0.63823 -0.9912,-1.379921 -1.6133,-2.273239 -1.0241,-0.0506 -2.1353,-0.11094 -3.2464,-0.17109 l -0.077,-0.005 -0.04,-0.01931 c -1.0595,-0.507918 -2.1184,-1.016109 -3.083,-1.471949 -0.6692,-0.0687 -1.247499,-0.116369 -1.617899,-0.116369 0.3766,0 0.967799,-0.0487 1.651399,-0.119321 h 0.016 l 0.03,0.01029 c 0.9865,0.35116 2.0734,0.731369 3.1628,1.1123 1.1925,-0.0644 2.3839,-0.129191 3.4662,-0.18171 l 0.2189,-0.01029 0.1688,0.203002 c 0.8986,1.08154 1.6387,1.991558 2.191901,2.699049 l 11.462201,1.617882 7.447798,-2.310511 2.1463,-5.94246 -0.9511,-10.488141 0.974701,-13.045857 -0.986901,-0.577039 c -0.558998,0.526009 -1.250997,1.157679 -2.094598,1.90907 -0.152101,1.01951 -0.3225,2.12874 -0.4934,3.23804 l -0.028,0.18022 -0.134699,0.06 c -0.959602,0.42394 -1.9192,0.84789 -2.7887,1.23853 -0.7531,0.95467 -1.3945,1.78627 -1.779001,2.3356 0.3883,-0.55483 0.9578,-1.45385 1.604899,-2.50136 l 0.01201,-0.02 0.032,-0.0184 c 0.778701,-0.45969 1.629802,-0.96906 2.484602,-1.48104 0.05,-1.14562 0.1001,-2.2869 0.151299,-3.326271 l 0.01,-0.153539 0.136901,-0.14668 c 0.817801,-0.87821 1.505101,-1.59939 2.069499,-2.172131 l -2.729512,-5.284056 -13.045899,-0.78994 -4.5662,1.33737 c 0.214,0.27679 0.4401,0.57474 0.6849,0.90399 1.3896,0.076 2.8761,0.16328 4.2546,0.23796 l 0.065,0.005 0.031,0.0241 c 0.8325,0.64887 1.5837,1.220039 2.0452,1.513729 -0.4519,-0.28753 -1.2619,-0.71387 -2.1782,-1.1815 -1.4419,0.0783 -2.9995,0.1698 -4.4394,0.24786 l -0.152,0.007 -0.165,-0.148229 c -0.5443,-0.489971 -1.0386,-0.943601 -1.405,-1.304671 z"
       id="path15878" />
  </g>
</svg>
