<?xml version="1.0" encoding="UTF-8" standalone="no"?>
<svg
   xmlns:dc="http://purl.org/dc/elements/1.1/"
   xmlns:cc="http://creativecommons.org/ns#"
   xmlns:rdf="http://www.w3.org/1999/02/22-rdf-syntax-ns#"
   xmlns:svg="http://www.w3.org/2000/svg"
   xmlns="http://www.w3.org/2000/svg"
   xmlns:sodipodi="http://sodipodi.sourceforge.net/DTD/sodipodi-0.dtd"
   xmlns:inkscape="http://www.inkscape.org/namespaces/inkscape"
   sodipodi:docname="03_pause_menu_save_load_image_mask.svg"
   inkscape:version="1.0 (4035a4fb49, 2020-05-01)"
   id="svg9124"
   version="1.1"
   viewBox="0 0 43.690807 25.09202"
   height="25.09202mm"
   width="43.690807mm">
  <defs
     id="defs9118" />
  <sodipodi:namedview
     inkscape:window-maximized="1"
     inkscape:window-y="-8"
     inkscape:window-x="-8"
     inkscape:window-height="705"
     inkscape:window-width="1366"
     fit-margin-bottom="0"
     fit-margin-right="0"
     fit-margin-left="0"
     fit-margin-top="0"
     showgrid="false"
     inkscape:document-rotation="0"
     inkscape:current-layer="layer1"
     inkscape:document-units="mm"
     inkscape:cy="57.898719"
     inkscape:cx="122.95366"
     inkscape:zoom="1.3422939"
     inkscape:pageshadow="2"
     inkscape:pageopacity="0.0"
     borderopacity="1.0"
     bordercolor="#666666"
     pagecolor="#ffffff"
     id="base" />
  <metadata
     id="metadata9121">
    <rdf:RDF>
      <cc:Work
         rdf:about="">
        <dc:format>image/svg+xml</dc:format>
        <dc:type
           rdf:resource="http://purl.org/dc/dcmitype/StillImage" />
        <dc:title></dc:title>
      </cc:Work>
    </rdf:RDF>
  </metadata>
  <g
     transform="translate(-97.999186,-124.64451)"
     id="layer1"
     inkscape:groupmode="layer"
     inkscape:label="Layer 1">
    <path
       sodipodi:nodetypes="ccccccccsccccccccccccccccccccccccccccccccccccccccccccccccsccccccccccccsccc"
       id="path9100"
       style="fill:#ffffff;fill-opacity:1;stroke:none;stroke-width:0.833877;stroke-linecap:butt;stroke-linejoin:miter;stroke-miterlimit:4;stroke-dasharray:none;stroke-opacity:1"
       d="m 100.39444,124.64451 -1.674687,1.24294 0.0896,2.46352 c 0.30273,0.28115 0.71615,0.69792 1.17428,1.16979 l 0.0998,0.1026 -0.008,0.0998 c -0.0482,0.60665 -0.104501,1.26194 -0.153091,1.87094 0.370391,0.3372 0.702921,0.63059 0.915701,0.78259 -0.22241,-0.15889 -0.63303,-0.39191 -1.096881,-0.64578 l -0.0415,-0.0227 -0.005,-0.0688 c -0.0456,-0.57438 -0.0986,-1.19256 -0.14536,-1.77362 -0.40325,-0.29947 -0.76695,-0.5742 -1.05376,-0.80212 l -0.49635,0.68242 0.8172,6.13276 -0.67427,11.5572 2.210081,1.86034 10.3258,0.44014 13.47644,-0.98696 c 0.38702,-0.30367 0.97807,-0.73029 1.64782,-1.20441 l 0.0778,-0.0554 0.0607,-0.003 c 0.81101,-0.0462 1.68856,-0.0919 2.50083,-0.13803 0.69668,-0.46042 1.31378,-0.87693 1.65799,-1.14292 -0.34952,0.27009 -0.92016,0.77337 -1.55295,1.34203 l -0.0175,0.0159 -0.0379,0.007 c -0.77597,0.13909 -1.61302,0.29294 -2.39374,0.43321 -0.43096,0.40333 -0.82573,0.76721 -1.15393,1.05904 l 0.76347,0.41083 h 14.43978 l 1.24476,-1.58673 -0.41856,-6.05391 0.71698,-5.84937 -0.82611,-1.3518 c -0.29662,0.2682 -0.64156,0.57251 -1.05783,0.93078 -0.0619,0.49778 -0.13209,1.03715 -0.20236,1.57657 l -0.0114,0.0863 -0.0468,0.0395 c -0.48809,0.41319 -0.97614,0.82658 -1.41777,1.20521 -0.0846,0.50001 -0.15022,0.93226 -0.17347,1.21131 0.0238,-0.28523 0.0302,-0.73549 0.0293,-1.25693 v -0.0236 l 0.0232,-0.0244 c 0.38197,-0.41152 0.7982,-0.86587 1.21622,-1.32207 -0.005,-0.57334 -0.009,-1.14475 -0.0103,-1.66492 v -0.1026 l 0.0941,-0.10017 c 0.50821,-0.54021 0.93999,-0.988 1.26754,-1.30944 l 0.98857,-6.68123 -2.66248,-1.81556 -11.82333,-0.72965 -14.51801,0.2386 -1.04723,0.39494 c 0.29047,0.30934 0.61362,0.65806 0.99146,1.07371 0.8412,-0.0946 1.76288,-0.19499 2.71174,-0.29763 l 0.11482,-0.0126 0.0693,0.0639 c 0.36872,0.34036 0.74707,0.6907 1.11645,1.03176 0.71824,-0.0561 1.4136,-0.1113 2.04276,-0.16449 l 0.0171,-0.002 0.0106,0.005 c 0.45644,0.2271 0.84943,0.41528 1.12135,0.52931 -0.26885,-0.11273 -0.67221,-0.25894 -1.14701,-0.42305 -0.64013,0.10338 -1.3485,0.22134 -2.07859,0.34406 l -0.0526,0.009 -0.0554,-0.0403 c -0.39026,-0.28216 -0.79139,-0.57106 -1.18323,-0.85423 -0.97373,0.16953 -1.91703,0.333 -2.77119,0.4776 l -0.15227,0.0257 -0.12705,-0.12133 c -0.59762,-0.57051 -1.09307,-1.05243 -1.4609,-1.42428 l -5.74677,-0.69707 z"
       inkscape:export-filename="D:\Calcatz\Icon Pack\Adventure Narrative Inspired by Jumanji\Assets\PNG\Image Mask\03_pause_menu_save_load_image_mask.png"
       inkscape:export-xdpi="96"
       inkscape:export-ydpi="96" />
  </g>
</svg>
