<?xml version="1.0" encoding="UTF-8" standalone="no"?>
<svg
   xmlns:dc="http://purl.org/dc/elements/1.1/"
   xmlns:cc="http://creativecommons.org/ns#"
   xmlns:rdf="http://www.w3.org/1999/02/22-rdf-syntax-ns#"
   xmlns:svg="http://www.w3.org/2000/svg"
   xmlns="http://www.w3.org/2000/svg"
   xmlns:sodipodi="http://sodipodi.sourceforge.net/DTD/sodipodi-0.dtd"
   xmlns:inkscape="http://www.inkscape.org/namespaces/inkscape"
   sodipodi:docname="04_pause_menu_save_load_image_mask_big.svg"
   inkscape:version="1.0 (4035a4fb49, 2020-05-01)"
   id="svg9708"
   version="1.1"
   viewBox="0 0 102.39931 58.808628"
   height="58.808628mm"
   width="102.39931mm">
  <defs
     id="defs9702" />
  <sodipodi:namedview
     inkscape:window-maximized="1"
     inkscape:window-y="-8"
     inkscape:window-x="-8"
     inkscape:window-height="705"
     inkscape:window-width="1366"
     fit-margin-bottom="0"
     fit-margin-right="0"
     fit-margin-left="0"
     fit-margin-top="0"
     showgrid="false"
     inkscape:document-rotation="0"
     inkscape:current-layer="layer1"
     inkscape:document-units="mm"
     inkscape:cy="147.38525"
     inkscape:cx="208.07105"
     inkscape:zoom="1.3422939"
     inkscape:pageshadow="2"
     inkscape:pageopacity="0.0"
     borderopacity="1.0"
     bordercolor="#666666"
     pagecolor="#ffffff"
     id="base" />
  <metadata
     id="metadata9705">
    <rdf:RDF>
      <cc:Work
         rdf:about="">
        <dc:format>image/svg+xml</dc:format>
        <dc:type
           rdf:resource="http://purl.org/dc/dcmitype/StillImage" />
        <dc:title></dc:title>
      </cc:Work>
    </rdf:RDF>
  </metadata>
  <g
     transform="translate(18.873153,-62.056032)"
     id="layer1"
     inkscape:groupmode="layer"
     inkscape:label="Layer 1">
    <path
       sodipodi:nodetypes="ccccccccsccccccccccccccccccccccccccccccccccccccccccccccccsccccccccccccsccc"
       id="path9107"
       style="opacity:1;fill:#ffffff;fill-opacity:1;stroke:none;stroke-width:1.95438;stroke-linecap:butt;stroke-linejoin:miter;stroke-miterlimit:4;stroke-dasharray:none;stroke-opacity:1"
       d="m -13.258183,62.056032 -3.925,2.9131 0.20994,5.77383 c 0.70949,0.65895 1.67844,1.63574 2.75219,2.74169 l 0.23378,0.24047 -0.0185,0.23379 c -0.11302,1.42181 -0.24495,2.95762 -0.35883,4.38497 0.86814,0.7903 1.64749,1.47794 2.1462,1.83416 -0.52128,-0.37238 -1.48367,-0.91851 -2.57084,-1.51352 l -0.0973,-0.0534 -0.0129,-0.16122 c -0.10692,-1.3462 -0.23114,-2.79506 -0.34069,-4.15688 -0.9451,-0.70186 -1.79751,-1.34578 -2.46971,-1.87995 l -1.16331,1.5994 1.91531,14.37352 -1.58033,27.086948 5.17987,4.36013 24.200869,1.03159 31.585123,-2.31319 c 0.907079,-0.71171 2.292357,-1.71161 3.86203,-2.8228 l 0.182258,-0.12982 0.1422,-0.007 c 1.900791,-0.10821 3.95754,-0.21538 5.861262,-0.3235 1.63285,-1.07912 3.079139,-2.0553 3.885869,-2.6787 -0.819181,0.63302 -2.156571,1.81258 -3.639672,3.14535 l -0.041,0.0373 -0.0888,0.0166 c -1.818709,0.32599 -3.78048,0.68657 -5.61028,1.01533 -1.010079,0.94531 -1.935279,1.79816 -2.704489,2.48213 l 1.78935,0.96287 h 33.84295 l 2.91737,-3.7189 -0.98101,-14.1887 1.68043,-13.709337 -1.93621,-3.168271 c -0.695182,0.6286 -1.503616,1.3418 -2.479246,2.18152 -0.145148,1.16667 -0.309576,2.430791 -0.474279,3.695031 l -0.02678,0.20229 -0.109691,0.0925 c -1.143955,0.96842 -2.287818,1.937282 -3.322857,2.824692 -0.198221,1.171879 -0.352086,2.184958 -0.406564,2.838979 0.05577,-0.668499 0.07091,-1.72379 0.0687,-2.9459 v -0.0554 l 0.05429,-0.0572 c 0.89521,-0.964501 1.870747,-2.02938 2.850478,-3.098601 -0.01109,-1.343729 -0.02196,-2.68295 -0.024,-3.9021 v -0.24047 l 0.220453,-0.23477 c 1.19112,-1.26613 2.203093,-2.31561 2.970771,-3.06898 l 2.316985,-15.658971 -6.240125,-4.25518 -27.710664,-1.71011 -34.026301,0.55921 -2.45442,0.92564 c 0.68081,0.725 1.43818,1.5423 2.323711,2.51647 1.97154,-0.22171 4.131738,-0.45701 6.35559,-0.69756 l 0.269108,-0.0295 0.162322,0.14976 c 0.86419,0.79772 1.750938,1.61881 2.616668,2.41817 1.683332,-0.13148 3.313092,-0.26086 4.787673,-0.38552 l 0.0401,-0.004 0.0249,0.0129 c 1.069731,0.53226 1.990801,0.97332 2.628122,1.24057 -0.6301,-0.2642 -1.575491,-0.60687 -2.68827,-0.99151 -1.500291,0.2423 -3.16053,0.51875 -4.871651,0.80638 l -0.12318,0.0211 -0.12982,-0.0945 c -0.914651,-0.661301 -1.854811,-1.338411 -2.77318,-2.002091 -2.28214,0.397331 -4.49299,0.780481 -6.494931,1.119381 l -0.35687,0.0602 -0.297749,-0.28437 c -1.400662,-1.33713 -2.56187,-2.46663 -3.423981,-3.33813 l -13.468872,-1.63375 z"
       inkscape:export-filename="D:\Calcatz\Icon Pack\Adventure Narrative Inspired by Jumanji\Assets\PNG\Image Mask\04_pause_menu_save_load_image_mask_big.png"
       inkscape:export-xdpi="95.451996"
       inkscape:export-ydpi="95.451996" />
  </g>
</svg>
