<?xml version="1.0" encoding="UTF-8" standalone="no"?>
<svg
   xmlns:dc="http://purl.org/dc/elements/1.1/"
   xmlns:cc="http://creativecommons.org/ns#"
   xmlns:rdf="http://www.w3.org/1999/02/22-rdf-syntax-ns#"
   xmlns:svg="http://www.w3.org/2000/svg"
   xmlns="http://www.w3.org/2000/svg"
   xmlns:sodipodi="http://sodipodi.sourceforge.net/DTD/sodipodi-0.dtd"
   xmlns:inkscape="http://www.inkscape.org/namespaces/inkscape"
   sodipodi:docname="06_item_image_mask.svg"
   inkscape:version="1.0 (4035a4fb49, 2020-05-01)"
   id="svg6631"
   version="1.1"
   viewBox="0 0 21.1756 20.748287"
   height="20.748287mm"
   width="21.1756mm">
  <defs
     id="defs6625" />
  <sodipodi:namedview
     inkscape:window-maximized="1"
     inkscape:window-y="-8"
     inkscape:window-x="-8"
     inkscape:window-height="705"
     inkscape:window-width="1366"
     fit-margin-bottom="0"
     fit-margin-right="0"
     fit-margin-left="0"
     fit-margin-top="0"
     showgrid="false"
     inkscape:document-rotation="0"
     inkscape:current-layer="layer1"
     inkscape:document-units="mm"
     inkscape:cy="450.2107"
     inkscape:cx="326.77789"
     inkscape:zoom="0.33557348"
     inkscape:pageshadow="2"
     inkscape:pageopacity="0.0"
     borderopacity="1.0"
     bordercolor="#666666"
     pagecolor="#ffffff"
     id="base" />
  <metadata
     id="metadata6628">
    <rdf:RDF>
      <cc:Work
         rdf:about="">
        <dc:format>image/svg+xml</dc:format>
        <dc:type
           rdf:resource="http://purl.org/dc/dcmitype/StillImage" />
        <dc:title></dc:title>
      </cc:Work>
    </rdf:RDF>
  </metadata>
  <g
     transform="translate(-19.373349,-29.048418)"
     id="layer1"
     inkscape:groupmode="layer"
     inkscape:label="Layer 1">
    <path
       id="path6603"
       d="m 21.739048,29.048418 -1.5279,1.65172 0.3348,2.54819 c 0.3483,0.31648 0.7952,0.73857 1.3256,1.25014 l 0.1062,0.10258 -0.022,0.12096 c -0.087,0.47851 -0.1858,1.00322 -0.285,1.52996 0.3311,0.286 0.660401,0.56969 0.962801,0.82706 l 0.026,0.0222 v 0.026 c -0.015,0.59346 -0.024,1.10674 -0.012,1.43295 -0.011,-0.31993 -0.054,-0.8178 -0.1106,-1.39425 -0.353699,-0.228842 -0.7438,-0.477562 -1.134,-0.726052 l -0.07,-0.0444 0.01,-0.10339 c 0.033,-0.50874 0.065,-1.01734 0.098,-1.48728 -0.4923,-0.39988 -0.8967,-0.7363 -1.2258,-1.01739 l -0.4494,0.38679 0.4977,7.23539 v 0.0483 l -0.8901,5.30117 1.3547,2.80164 1.5854,-0.77835 5.473201,0.76157 1.0478,-0.41391 c -0.2435,-0.33509 -0.520401,-0.72448 -0.847,-1.19344 -0.5377,-0.0265 -1.121001,-0.0583 -1.7044,-0.0898 l -0.04,-0.005 -0.021,-0.01 c -0.556201,-0.266672 -1.1121,-0.533452 -1.618501,-0.772772 -0.3514,-0.0359 -0.654999,-0.0611 -0.849399,-0.0611 0.197699,0 0.508,-0.0255 0.8669,-0.0627 h 0.01 l 0.016,0.005 c 0.517999,0.18437 1.088599,0.38395 1.660499,0.58396 0.626101,-0.034 1.251501,-0.0678 1.819801,-0.0954 l 0.114899,-0.005 0.089,0.10655 c 0.4718,0.5678 0.860301,1.04559 1.1508,1.41702 l 6.017602,0.849372 3.9101,-1.213 1.1268,-3.11978 -0.499301,-5.50628 0.5117,-6.84907 -0.5181,-0.30297 c -0.2935,0.27618 -0.6568,0.60778 -1.0997,1.00227 -0.08,0.53524 -0.1693,1.1176 -0.2591,1.69996 l -0.015,0.0946 -0.071,0.0317 c -0.5037,0.22254 -1.0075,0.44514 -1.464,0.6502 -0.3954,0.50123 -0.7321,0.93782 -0.934,1.22619 0.2039,-0.29125 0.5028,-0.76328 0.8426,-1.31322 l 0.01,-0.0104 0.017,-0.009 c 0.4088,-0.2413 0.8556,-0.50874 1.3044,-0.77754 0.026,-0.60145 0.053,-1.20062 0.079,-1.74627 v -0.0806 l 0.072,-0.077 c 0.4293,-0.46107 0.7902,-0.83968 1.0865,-1.14038 l -1.433,-2.774139 -6.8491,-0.41472 -2.397299,0.70214 c 0.1124,0.14529 0.2311,0.30174 0.3597,0.47458 0.729499,0.0397 1.509899,0.0858 2.233599,0.12493 l 0.034,0.005 0.016,0.0128 c 0.437101,0.34067 0.831401,0.64052 1.073701,0.79474 -0.237201,-0.15096 -0.662501,-0.37478 -1.143601,-0.62029 -0.7569,0.0411 -1.5747,0.0891 -2.3306,0.13012 l -0.08,0.005 -0.087,-0.0778 c -0.2858,-0.25723 -0.545299,-0.49542 -0.737599,-0.68499 z"
       style="fill:#ffffff;fill-opacity:1;stroke:none;stroke-width:0.817462;stroke-linecap:butt;stroke-linejoin:miter;stroke-miterlimit:4;stroke-dasharray:none;stroke-opacity:1"
       mask="none"
       inkscape:export-filename="D:\Calcatz\Icon Pack\Adventure Narrative Inspired by Jumanji\Assets\PNG\Image Mask\06_item_image_mask.png"
       inkscape:export-xdpi="96"
       inkscape:export-ydpi="96" />
  </g>
</svg>
