<?xml version="1.0" encoding="UTF-8" standalone="no"?>
<svg
   xmlns:dc="http://purl.org/dc/elements/1.1/"
   xmlns:cc="http://creativecommons.org/ns#"
   xmlns:rdf="http://www.w3.org/1999/02/22-rdf-syntax-ns#"
   xmlns:svg="http://www.w3.org/2000/svg"
   xmlns="http://www.w3.org/2000/svg"
   xmlns:sodipodi="http://sodipodi.sourceforge.net/DTD/sodipodi-0.dtd"
   xmlns:inkscape="http://www.inkscape.org/namespaces/inkscape"
   sodipodi:docname="02_background_item_elephant.svg"
   inkscape:version="1.0 (4035a4fb49, 2020-05-01)"
   id="svg11573"
   version="1.1"
   viewBox="0 0 49.858368 47.322262"
   height="47.322262mm"
   width="49.858368mm">
  <defs
     id="defs11567" />
  <sodipodi:namedview
     inkscape:window-maximized="1"
     inkscape:window-y="-8"
     inkscape:window-x="-8"
     inkscape:window-height="705"
     inkscape:window-width="1366"
     fit-margin-bottom="0"
     fit-margin-right="0"
     fit-margin-left="0"
     fit-margin-top="0"
     showgrid="false"
     inkscape:document-rotation="0"
     inkscape:current-layer="layer1"
     inkscape:document-units="mm"
     inkscape:cy="22.089257"
     inkscape:cx="83.119946"
     inkscape:zoom="1.3422939"
     inkscape:pageshadow="2"
     inkscape:pageopacity="0.0"
     borderopacity="1.0"
     bordercolor="#666666"
     pagecolor="#ffffff"
     id="base" />
  <metadata
     id="metadata11570">
    <rdf:RDF>
      <cc:Work
         rdf:about="">
        <dc:format>image/svg+xml</dc:format>
        <dc:type
           rdf:resource="http://purl.org/dc/dcmitype/StillImage" />
        <dc:title></dc:title>
      </cc:Work>
    </rdf:RDF>
  </metadata>
  <g
     transform="translate(-80.904151,-124.50553)"
     id="layer1"
     inkscape:groupmode="layer"
     inkscape:label="Layer 1">
    <path
       inkscape:export-ydpi="96"
       inkscape:export-xdpi="96"
       inkscape:export-filename="D:\Calcatz\Icon Pack\Adventure Narrative Inspired by Jumanji\Assets\PNG\Background\02_background_item_elephant.png"
       id="path11549"
       style="fill:#0c1f0b;fill-opacity:0.14902;stroke:#348233;stroke-width:0.201167;stroke-linecap:butt;stroke-linejoin:miter;stroke-miterlimit:4;stroke-dasharray:none;stroke-opacity:0.2"
       d="m 130.63708,127.9607 -3.1262,-0.77658 -5.8649,-2.56519 -2.42841,1.51473 -3.5233,1.02428 2.46211,2.41778 4.64909,3.57928 -2.02049,7.97732 -1.3307,1.31338 -2.40841,9.52411 3.3984,-1.7708 3.72461,-2.8519 0.9941,-4.84091 1.8576,-5.65034 1.3193,-0.88952 z m -16.81981,-0.3916 -5.12859,-0.0896 -1.37271,0.83026 -9.434195,-0.68706 -2.5661,2.83089 -4.6056,3.40007 0.9381,4.74989 1.7788,4.4916 1.0524,0.60132 1.9213,8.18496 2.9148,2.84526 2.870995,-0.0714 5.27161,-0.3684 5.01779,0.40333 2.9626,-2.92932 2.48781,-9.83834 c -0.3657,-0.45538 -0.7916,-1.0036 -1.2942,-1.66951 l -0.17561,-0.23337 c 0.037,-0.0681 0.065,-0.13946 0.096,-0.21042 0.24701,-0.53742 0.52301,-1.12651 0.80041,-1.71656 -0.1338,-0.50475 -0.2672,-1.00551 -0.3936,-1.46207 l -0.015,-0.053 0.023,-0.03 c 0.4118,-0.75157 0.7579,-1.40605 0.9521,-1.83488 -0.1906,0.41936 -0.4467,1.09142 -0.7308,1.87512 0.2243,0.45099 0.4757,0.94332 0.7268,1.43577 l 0.071,0.15608 c -0.04,0.0309 -0.03,0.009 -0.07,0.0396 -0.1487,0.55269 -0.2964,1.10554 -0.4382,1.6207 0.4291,0.45088 0.7952,0.84386 1.1188,1.19878 l 0.7436,-0.73271 1.6523,-6.51996 -3.88899,-2.99127 z m -23.825395,-2.95501 -4.3804,1.1425 -0.4673,0.45744 c 0.2244,0.18036 0.4642,0.37691 0.7268,0.59583 0.6494,-0.13324 1.3509,-0.27295 2.0527,-0.41264 l 0.2038,-2.1e-4 c 0.032,0.0312 0.019,0.0242 0.05,0.0553 0.2834,0.31284 0.567,0.62589 0.8296,0.90861 0.6245,-0.17362 1.1593,-0.33337 1.4949,-0.46172 -0.3488,0.13342 -0.8798,0.38502 -1.4897,0.68774 l -0.047,0.023 -0.064,-0.0417 c -0.2912,-0.18894 -0.6111,-0.39148 -0.9348,-0.59533 -0.7218,0.25999 -1.4406,0.51823 -2.0972,0.74917 l -0.1699,0.0603 c -0.07,-0.0425 -0.14,-0.0847 -0.2101,-0.12706 -0.4723,-0.28485 -0.8681,-0.53254 -1.2128,-0.75592 l -3.2519,1.07754 2.2032,8.72403 1.9572,5.58128 2.2897,4.98358 4.5545,2.38925 2.683,2.07499 -1.6393,-6.98338 -0.9347,-0.53606 -2.0412,-5.15063 -1.1627,-5.89576 5.2968,-3.91267 1.857,-2.04653 -3.3712,-0.97321 z m 24.519105,11.74376 1.0395,2.3994 -2.82641,-0.009 -1.9118,0.26815 2.0524,-1.39724 z m -18.200705,-0.19911 1.4695,0.92504 2.1891,1.94558 -1.7326,-0.006 -2.39,-0.65108 z m 19.285995,17.70949 -1.80229,1.78183 0.90159,1.50236 1.2865,2.90097 -0.4776,3.25037 0.47881,-0.77482 0.6877,-4.24125 -0.66701,-1.60827 z m -3.83919,2.37899 -4.30801,-0.34815 -5.1861,0.36412 -2.312995,0.0579 0.919995,5.21675 0.332,0.25214 c 0.3203,-0.25277 0.6866,-0.53239 1.1114,-0.84658 0,-0.47271 0.014,-0.96826 0.016,-1.43094 l 5.1e-4,-0.0995 0.043,-0.0346 c 0.5291,-0.42563 0.9945,-0.81353 1.2352,-1.06807 -0.2288,0.24208 -0.5663,0.69435 -0.9386,1.21322 0.1369,0.51175 0.2894,1.06092 0.4252,1.57004 l 0.042,0.15701 -0.1691,0.18572 c -0.4306,0.47251 -0.8043,0.86767 -1.1324,1.20086 l 1.7083,8.46493 1.117,0.62426 2.2789,-0.0765 1.2839,-0.59079 2.1715,-7.91424 -0.038,-0.23203 c -0.3215,0.0838 -0.6833,0.17337 -1.075,0.26774 -0.1654,0.41828 -0.3328,0.86858 -0.5094,1.31537 l -0.053,0.13221 -0.072,0.0316 c -0.3973,0.17328 -0.7949,0.34704 -1.1555,0.50969 -0.1267,0.61924 -0.2254,1.15407 -0.262,1.50199 0.038,-0.35994 0.052,-0.92984 0.056,-1.59021 l 6.1e-4,-0.0422 0.052,-0.0412 c 0.28599,-0.22457 0.596,-0.47337 0.90779,-0.72515 0.092,-0.54835 0.18441,-1.09484 0.27361,-1.59116 l 0.037,-0.20434 c 0.087,-0.0345 0.1737,-0.0688 0.2605,-0.10315 0.5748,-0.22753 1.0613,-0.41054 1.488,-0.56418 z m -15.716505,-2.47007 -0.5324,1.66037 -0.5392,4.24845 0.3691,0.29298 1.3032,3.74754 -0.4249,-1.9147 0.2259,-3.21046 1.5577,-2.90936 z" />
  </g>
</svg>
