<?xml version="1.0" encoding="UTF-8" standalone="no"?>
<svg
   xmlns:dc="http://purl.org/dc/elements/1.1/"
   xmlns:cc="http://creativecommons.org/ns#"
   xmlns:rdf="http://www.w3.org/1999/02/22-rdf-syntax-ns#"
   xmlns:svg="http://www.w3.org/2000/svg"
   xmlns="http://www.w3.org/2000/svg"
   xmlns:sodipodi="http://sodipodi.sourceforge.net/DTD/sodipodi-0.dtd"
   xmlns:inkscape="http://www.inkscape.org/namespaces/inkscape"
   sodipodi:docname="03_background_item_crocodile.svg"
   inkscape:version="1.0 (4035a4fb49, 2020-05-01)"
   id="svg12157"
   version="1.1"
   viewBox="0 0 30.485378 36.15567"
   height="36.15567mm"
   width="30.485378mm">
  <defs
     id="defs12151" />
  <sodipodi:namedview
     inkscape:window-maximized="1"
     inkscape:window-y="-8"
     inkscape:window-x="-8"
     inkscape:window-height="705"
     inkscape:window-width="1366"
     fit-margin-bottom="0"
     fit-margin-right="0"
     fit-margin-left="0"
     fit-margin-top="0"
     showgrid="false"
     inkscape:document-rotation="0"
     inkscape:current-layer="layer1"
     inkscape:document-units="mm"
     inkscape:cy="77.511397"
     inkscape:cx="44.241424"
     inkscape:zoom="2.6845878"
     inkscape:pageshadow="2"
     inkscape:pageopacity="0.0"
     borderopacity="1.0"
     bordercolor="#666666"
     pagecolor="#ffffff"
     id="base" />
  <metadata
     id="metadata12154">
    <rdf:RDF>
      <cc:Work
         rdf:about="">
        <dc:format>image/svg+xml</dc:format>
        <dc:type
           rdf:resource="http://purl.org/dc/dcmitype/StillImage" />
        <dc:title></dc:title>
      </cc:Work>
    </rdf:RDF>
  </metadata>
  <g
     transform="translate(-39.9489,-141.18932)"
     id="layer1"
     inkscape:groupmode="layer"
     inkscape:label="Layer 1">
    <path
       inkscape:export-ydpi="96"
       inkscape:export-xdpi="96"
       inkscape:export-filename="D:\Calcatz\Icon Pack\Adventure Narrative Inspired by Jumanji\Assets\PNG\Background\03_background_item_crocodile.png"
       id="path11551"
       style="fill:#0c1f0b;fill-opacity:0.14902;stroke:#348233;stroke-width:0.201167;stroke-linecap:butt;stroke-linejoin:miter;stroke-miterlimit:4;stroke-dasharray:none;stroke-opacity:0.2"
       d="m 57.301606,141.29063 -2.3519,0.51078 c 0.3025,0.38314 0.639999,0.81947 1.004299,1.29503 0.7066,0.0604 1.4708,0.12986 2.2348,0.1996 l 0.1,0.009 0.04,0.0315 c 0.3599,0.288 0.719301,0.5758 1.0499,0.83371 0.6715,0.022 1.251,0.031 1.621101,0.009 -0.378401,0.023 -0.9703,0.10355 -1.6533,0.2098 l -0.022,0.005 -0.042,-0.0196 c -0.3576,-0.1647 -0.7514,-0.3405 -1.148101,-0.51706 -0.8343,0.042 -1.6679,0.0836 -2.424999,0.11633 l -0.176001,0.008 -0.1556,-0.16501 c -0.6598,-0.69839 -1.2002,-1.28558 -1.6376,-1.77673 l -7.4872,-0.26637 -2.010099,1.73737 -2.432801,2.97587 -1.7492,1.97159 1.9747,6.83733 1.1583,7.61207 2.1562,8.9629 0.2405,0.2546 c 0.3338,-0.37993 0.7121,-0.80186 1.1559,-1.28635 -0.1464,-1.03042 -0.3006,-2.15118 -0.455,-3.2721 l -0.023,-0.16422 0.095,-0.0801 c 0.4082,-0.34312 0.8162,-0.68629 1.1858,-1.00346 -0.2021,-0.86269 -0.3862,-1.60436 -0.5312,-2.07298 0.1492,0.48167 0.4265,1.22489 0.7591,2.08005 l 0.02,0.0511 -0.046,0.0573 c -0.2794,0.35583 -0.5805,0.74789 -0.8841,1.14334 0.2747,1.14417 0.5481,2.28528 0.7921,3.32478 l 0.042,0.17992 -0.1359,0.18705 c -0.5141,0.70408 -0.9493,1.28288 -1.3209,1.76096 l 0.4361,3.80961 4.7455,-0.19959 6.4334,0.60349 5.8566,-0.33554 0.5941,-3.00885 1.7994,-4.54117 -0.4691,-0.84318 2.645,-11.44133 c -0.399101,-0.3749 -0.864799,-0.83054 -1.4066,-1.3791 l -0.179099,-0.1815 0.046,-0.18072 c 0.198099,-0.78894 0.417899,-1.64075 0.616799,-2.43212 -0.263901,-0.48123 -0.505801,-0.90082 -0.6805,-1.12684 0.184301,0.23849 0.557599,0.60426 0.9847,1.00582 l 0.039,0.0369 -0.01,0.0896 c -0.053,0.74328 -0.104402,1.54307 -0.157202,2.2977 0.483002,0.34588 0.901901,0.65411 1.269902,0.93275 l 0.292198,-0.38976 1.226701,-7.25536 -2.0612,-2.43206 -1.5087,-0.68049 -2.794298,-3.64378 z m -10.748201,5.80474 2.4061,1.20701 3.015901,2.23563 -4.299901,-0.73235 -2.757399,-0.21453 0.589399,-0.71509 0.2994,-1.08442 z m 17.436201,0 0.715099,1.33198 0.920201,1.16378 -2.755801,0.52098 -2.187699,0.0754 -2.1138,0.35046 3.376599,-1.98256 z m -12.202001,24.01429 1.849801,0.42667 0.675799,1.31542 -1.209299,0.79996 -2.169601,0.16029 -0.942199,-0.58697 -0.3026,-1.20856 z m 7.837701,0.0997 1.0058,0.95555 -0.2012,1.10641 -1.760201,0.55322 -1.4584,-0.30176 -0.9053,-1.23215 1.207001,-0.93039 z" />
  </g>
</svg>
