<?xml version="1.0" encoding="UTF-8" standalone="no"?>
<svg
   xmlns:dc="http://purl.org/dc/elements/1.1/"
   xmlns:cc="http://creativecommons.org/ns#"
   xmlns:rdf="http://www.w3.org/1999/02/22-rdf-syntax-ns#"
   xmlns:svg="http://www.w3.org/2000/svg"
   xmlns="http://www.w3.org/2000/svg"
   xmlns:sodipodi="http://sodipodi.sourceforge.net/DTD/sodipodi-0.dtd"
   xmlns:inkscape="http://www.inkscape.org/namespaces/inkscape"
   sodipodi:docname="04_background_item_rhino.svg"
   inkscape:version="1.0 (4035a4fb49, 2020-05-01)"
   id="svg12741"
   version="1.1"
   viewBox="0 0 32.80619 38.527599"
   height="38.527599mm"
   width="32.80619mm">
  <defs
     id="defs12735" />
  <sodipodi:namedview
     inkscape:window-maximized="1"
     inkscape:window-y="-8"
     inkscape:window-x="-8"
     inkscape:window-height="705"
     inkscape:window-width="1366"
     fit-margin-bottom="0"
     fit-margin-right="0"
     fit-margin-left="0"
     fit-margin-top="0"
     showgrid="false"
     inkscape:document-rotation="0"
     inkscape:current-layer="layer1"
     inkscape:document-units="mm"
     inkscape:cy="4.0337034"
     inkscape:cx="35.859767"
     inkscape:zoom="0.33557348"
     inkscape:pageshadow="2"
     inkscape:pageopacity="0.0"
     borderopacity="1.0"
     bordercolor="#666666"
     pagecolor="#ffffff"
     id="base" />
  <metadata
     id="metadata12738">
    <rdf:RDF>
      <cc:Work
         rdf:about="">
        <dc:format>image/svg+xml</dc:format>
        <dc:type
           rdf:resource="http://purl.org/dc/dcmitype/StillImage" />
        <dc:title></dc:title>
      </cc:Work>
    </rdf:RDF>
  </metadata>
  <g
     transform="translate(-96.345437,-147.09942)"
     id="layer1"
     inkscape:groupmode="layer"
     inkscape:label="Layer 1">
    <path
       inkscape:export-ydpi="96"
       inkscape:export-xdpi="96"
       inkscape:export-filename="D:\Calcatz\Icon Pack\Adventure Narrative Inspired by Jumanji\Assets\PNG\Background\04_background_item_rhino.png"
       id="path11553"
       style="fill:#0c1f0b;fill-opacity:0.14902;stroke:#348233;stroke-width:0.201167;stroke-linecap:butt;stroke-linejoin:miter;stroke-miterlimit:4;stroke-dasharray:none;stroke-opacity:0.2"
       d="m 96.559088,151.54892 0.9914,2.01672 c 0.3291,0.0939 0.6997,0.20815 1.1187,0.34527 l 0.227,0.0741 c 0.013,0.04 0.027,0.0806 0.04,0.12073 0.1398,0.38666 0.2827,0.80801 0.4225,1.19775 0.2888,0.0717 0.5412,0.12268 0.695702,0.12042 -0.177002,0.002 -0.480402,0.0798 -0.819002,0.17756 l -0.063,0.0158 c -0.028,-0.034 -0.055,-0.0682 -0.083,-0.10219 -0.2214,-0.27104 -0.4612,-0.55897 -0.6894,-0.83592 -0.2928,-0.0194 -0.5584,-0.0405 -0.8088,-0.0627 l -0.041,0.39957 1.7675,3.60253 0.5721,-0.75212 1.830602,-3.24406 -2.704502,-1.9662 z m 16.737202,-4.43227 -0.065,0.61309 -1.8833,7.83853 0.7226,1.28953 -1.3971,9.66034 -1.5782,7.9056 -1.5785,-0.31756 1.57,-7.85888 1.314,-9.08251 -0.3976,-0.7064 c -0.4165,0.13924 -0.8895,0.29203 -1.4375,0.46056 -0.084,0.51291 -0.1741,1.04976 -0.2546,1.55154 l -0.017,0.11115 -0.069,0.0282 c -0.7591,0.31041 -1.433,0.59778 -1.8049,0.80211 0.3546,-0.19485 0.9201,-0.58149 1.552,-1.02831 -0.049,-0.58292 -0.1075,-1.208 -0.1556,-1.78727 l -0.017,-0.2162 c 0.089,-0.0463 0.1777,-0.092 0.2661,-0.13789 0.6454,-0.33416 1.1956,-0.60742 1.6642,-0.82708 l 0.6729,-2.79331 -5.0646,-0.3936 -1.8828,2.602 -2.2144,3.92498 -3.436803,4.52159 1.9081,4.4495 c 0.393103,0.19341 0.880503,0.45857 1.451803,0.78907 l 0.2396,0.13943 0.029,0.16486 c 0.1438,0.8008 0.2923,1.67727 0.4371,2.49031 0.5116,0.42507 0.973,0.79222 1.2692,0.96861 -0.3117,-0.18557 -0.8953,-0.4317 -1.5529,-0.69406 l -0.051,-0.0202 -0.042,-0.0944 c -0.2807,-0.69219 -0.587,-1.4318 -0.8703,-2.12842 -0.3257,-0.0941 -0.6212,-0.18391 -0.894803,-0.27018 l -0.056,0.70826 3.508703,8.41593 2.1093,6.86371 3.1845,-0.0751 4.618,0.54199 6.9665,-0.31167 1.908,-6.57739 c -0.2957,-0.37416 -0.6323,-0.81638 -1.0259,-1.35395 l -0.1977,-0.27122 c 0.038,-0.0754 0.077,-0.15048 0.1152,-0.22572 0.2426,-0.47355 0.5152,-0.99148 0.7889,-1.51144 -0.08,-0.42423 -0.1606,-0.84489 -0.2381,-1.22863 l -0.011,-0.0619 0.017,-0.0284 c 0.3103,-0.48651 0.5678,-0.91242 0.7036,-1.19706 -0.1306,0.27426 -0.2911,0.71944 -0.4659,1.24109 0.1848,0.38549 0.3918,0.80579 0.5997,1.22634 l 0.034,0.0674 -0.038,0.14154 c -0.1312,0.47311 -0.2623,0.9458 -0.3884,1.38912 0.3587,0.36289 0.6619,0.67913 0.9291,0.96544 l 0.8459,-0.43433 3.1214,-8.6682 1.2078,-5.15695 -3.7253,-6.16114 -0.412,-0.12669 c -0.1918,0.32055 -0.4142,0.67716 -0.6737,1.07778 0.2861,0.48824 0.5821,1.00101 0.8633,1.47711 l 0.045,0.0759 -0.011,0.0364 c -0.089,0.66428 -0.1565,1.25819 -0.1464,1.60238 -0.01,-0.32856 -0.1025,-0.88028 -0.2212,-1.50196 -0.4659,-0.46277 -0.9741,-0.95728 -1.4385,-1.41899 l -0.1641,-0.16389 c 0.037,-0.10804 0.076,-0.21536 0.1147,-0.32341 0.213,-0.59813 0.4135,-1.14199 0.5881,-1.56695 l -2.3221,-4.19172 -2.7632,0.19354 -1.8482,-0.12795 0.1536,0.8758 0.5934,8.90554 1.4078,7.19177 -0.5934,1.24148 0.7629,3.53717 -1.5746,0.33823 -0.8765,-4.07263 0.6001,-1.25862 -1.3254,-6.76941 -0.5948,-8.9192 z m 15.6701,4.47983 -1.5337,1.27648 -3.762,1.92685 0.4731,0.85344 1.1558,0.35615 1.0725,1.77416 1.6709,-2.92561 z m -25.2589,13.5175 2.0826,2.30414 0.9782,2.05177 -2.36,-0.62063 -1.7362,-0.87628 z m 18.24,0.41863 1.3845,2.64013 -1.804,0.92606 -2.4497,0.83624 1.9167,-2.2546 z m -13.4276,13.76725 1.1852,0.29327 0.3901,0.69154 -0.6116,0.86718 -1.7655,-0.12582 -0.4938,-1.16059 z m 7.5308,0.32006 1.5584,-0.0968 0.6763,0.6754 -0.238,0.55679 -1.2242,0.54172 -1.2246,-0.333 -0.1044,-0.86666 z" />
  </g>
</svg>
