<?xml version="1.0" encoding="UTF-8" standalone="no"?>
<svg
   xmlns:dc="http://purl.org/dc/elements/1.1/"
   xmlns:cc="http://creativecommons.org/ns#"
   xmlns:rdf="http://www.w3.org/1999/02/22-rdf-syntax-ns#"
   xmlns:svg="http://www.w3.org/2000/svg"
   xmlns="http://www.w3.org/2000/svg"
   xmlns:sodipodi="http://sodipodi.sourceforge.net/DTD/sodipodi-0.dtd"
   xmlns:inkscape="http://www.inkscape.org/namespaces/inkscape"
   sodipodi:docname="05_background_item_monkey.svg"
   inkscape:version="1.0 (4035a4fb49, 2020-05-01)"
   id="svg13325"
   version="1.1"
   viewBox="0 0 45.121914 33.412472"
   height="33.412472mm"
   width="45.121914mm">
  <defs
     id="defs13319" />
  <sodipodi:namedview
     inkscape:window-maximized="1"
     inkscape:window-y="-8"
     inkscape:window-x="-8"
     inkscape:window-height="705"
     inkscape:window-width="1366"
     fit-margin-bottom="0"
     fit-margin-right="0"
     fit-margin-left="0"
     fit-margin-top="0"
     showgrid="false"
     inkscape:document-rotation="0"
     inkscape:current-layer="layer1"
     inkscape:document-units="mm"
     inkscape:cy="-3.0125053"
     inkscape:cx="105.76074"
     inkscape:zoom="1.8982902"
     inkscape:pageshadow="2"
     inkscape:pageopacity="0.0"
     borderopacity="1.0"
     bordercolor="#666666"
     pagecolor="#ffffff"
     id="base" />
  <metadata
     id="metadata13322">
    <rdf:RDF>
      <cc:Work
         rdf:about="">
        <dc:format>image/svg+xml</dc:format>
        <dc:type
           rdf:resource="http://purl.org/dc/dcmitype/StillImage" />
        <dc:title></dc:title>
      </cc:Work>
    </rdf:RDF>
  </metadata>
  <g
     transform="translate(-46.822755,-152.02234)"
     id="layer1"
     inkscape:groupmode="layer"
     inkscape:label="Layer 1">
    <path
       inkscape:export-ydpi="96"
       inkscape:export-xdpi="96"
       inkscape:export-filename="D:\Calcatz\Icon Pack\Adventure Narrative Inspired by Jumanji\Assets\PNG\Background\05_background_item_monkey.png"
       id="path11547"
       style="fill:#0c1f0b;fill-opacity:0.14902;stroke:#348233;stroke-width:0.201167;stroke-linecap:butt;stroke-linejoin:miter;stroke-miterlimit:4;stroke-dasharray:none;stroke-opacity:0.2"
       d="m 65.075689,152.12629 -3.9919,2.94595 -4.7698,2.55153 0.1878,5.26882 -0.2201,6.12145 -1.9841,2.82103 -1.0986,2.25447 0.1486,3.23673 -0.1367,2.56016 3.3279,1.82385 c 0.4237,-0.19693 0.9256,-0.41665 1.5229,-0.6632 l 0.2365,-0.0975 0.1508,0.088 c 0.8371,0.48864 1.7396,1.02302 2.5783,1.51269 0.6523,-0.0266 1.2295,-0.0616 1.5629,-0.12408 -0.3469,0.0651 -0.9291,0.25342 -1.5771,0.4762 l -0.038,0.0137 -0.072,-0.0281 c -0.8356,-0.32322 -1.7368,-0.66514 -2.5837,-0.99166 -0.4229,0.29137 -0.7969,0.53929 -1.1316,0.75356 l 0.1745,0.54299 4.4901,2.13269 5.3167,-0.65693 5.6311,0.0809 4.383199,0.58149 5.158801,-2.58688 3.584901,-2.8061 0.1666,-1.14334 -0.315101,-3.2171 0.083,-1.39562 -1.717,-2.18925 -1.380699,-3.11807 0.311999,-2.93104 -0.2766,-0.49588 c -0.3487,0.19864 -0.741501,0.41606 -1.186599,0.65617 -0.178101,0.71053 -0.3748,1.47724 -0.572,2.24426 l -0.033,0.12652 -0.064,0.0456 c -0.488199,0.34626 -0.976,0.69214 -1.416,1.0113 -0.284998,0.52079 -0.5202,0.97498 -0.643599,1.27774 0.126101,-0.30964 0.278199,-0.8142 0.442399,-1.40266 l 0.01,-0.0152 0.027,-0.029 c 0.346001,-0.37135 0.720802,-0.78245 1.097802,-1.19597 0.089,-0.85141 0.1788,-1.70043 0.265599,-2.47217 l 0.02,-0.17679 0.1972,-0.14537 c 0.569701,-0.42032 1.049901,-0.76287 1.4655,-1.04752 l 0.363096,-6.78073 -3.741999,-3.02063 -4.909802,-2.38728 -3.7883,0.48091 c -0.3288,0.45286 -0.7436,0.99425 -1.2471,1.62739 l -0.1406,0.17684 -0.1462,0.0106 c -0.8014,0.0528 -1.6698,0.1028 -2.4729,0.15559 -0.6673,0.47201 -1.2524,0.90053 -1.5685,1.18498 0.3252,-0.29269 0.8321,-0.85366 1.3901,-1.48988 l 0.022,-0.0249 0.067,-0.0181 c 0.7146,-0.18845 1.481601,-0.39649 2.2058,-0.58856 0.217501,-0.40853 0.421101,-0.78294 0.611301,-1.1253 z m -13.4302,8.90394 -2.46196,2.68512 -0.0274,0.49033 c 0.35031,0.0695 0.744959,0.15481 1.17948,0.2546 0.428829,-0.43095 0.88248,-0.8816 1.30206,-1.30522 l 0.0598,-0.0598 0.0409,-0.005 c 0.667419,-0.0487 1.262319,-0.10325 1.598319,-0.17916 -0.3215,0.0727 -0.8485,0.26428 -1.439579,0.4935 -0.3572,0.57787 -0.73751,1.20534 -1.09385,1.7814 l -0.099,0.16034 c -0.0946,-3.2e-4 -0.18905,0 -0.28368,0 -0.61541,-0.005 -1.13796,-0.0176 -1.58496,-0.0403 l -1.89143,2.09185 1.37831,2.65757 3.07092,3.68621 0.2169,-0.0675 1.29737,-2.66232 1.7822,-2.53344 0.2019,-5.58631 -0.025,-0.70565 z m 35.494101,0.005 -3.005,1.04827 -0.119501,2.23954 0.715901,1.28324 -0.3175,3.01118 1.122098,2.5421 1.969302,2.50673 -0.01,0.0496 2.4234,-2.44623 -0.046,-1.08203 c -0.293201,-0.13123 -0.620599,-0.28582 -0.985398,-0.46521 -0.482002,0.24224 -0.989902,0.49373 -1.461601,0.73239 l -0.100499,0.0511 -0.057,-0.0306 c -0.5714,-0.30234 -1.0859,-0.56185 -1.4003,-0.67027 0.296,0.10203 0.814301,0.20784 1.405001,0.3151 0.448699,-0.39611 0.927,-0.82591 1.373601,-1.21956 l 0.117798,-0.1037 c 0.086,0.0176 0.173,0.0354 0.259299,0.0534 0.4587,0.0953 0.859301,0.18657 1.211802,0.27423 l 1.583299,-1.89377 -2.604101,-3.75068 z m -23.918401,1.86002 2.0069,1.80813 2.3252,2.52479 -3.7836,-0.56343 -3.2156,-0.10294 1.9834,-2.31108 z m 12.624799,0 0.748001,1.33035 0.905301,0.72923 1.012899,1.607 -3.577799,0.1532 -3.421401,0.51314 2.440699,-2.24819 z m -7.161899,6.49155 3.1629,0.4754 1.6101,0.8581 0.326901,1.2117 -1.553601,0.41569 -0.1453,-0.53433 -0.7513,-0.40078 -2.5216,-0.37717 -1.717,0.54064 -0.2137,0.76617 -1.5504,-0.42829 0.4455,-1.60932 z m -12.3254,6.61097 5.5808,3.46931 5.2838,-0.18148 5.8,0.70092 4.0304,-0.47541 5.651601,-3.49842 0.8494,1.36968 -5.9572,3.68542 -4.574201,0.54062 -5.8684,-0.71036 -5.6491,0.19333 -5.9965,-3.72395 z" />
  </g>
</svg>
