<?xml version="1.0" encoding="UTF-8" standalone="no"?>
<svg
   xmlns:dc="http://purl.org/dc/elements/1.1/"
   xmlns:cc="http://creativecommons.org/ns#"
   xmlns:rdf="http://www.w3.org/1999/02/22-rdf-syntax-ns#"
   xmlns:svg="http://www.w3.org/2000/svg"
   xmlns="http://www.w3.org/2000/svg"
   xmlns:sodipodi="http://sodipodi.sourceforge.net/DTD/sodipodi-0.dtd"
   xmlns:inkscape="http://www.inkscape.org/namespaces/inkscape"
   sodipodi:docname="06_stone_path.svg"
   inkscape:version="1.0 (4035a4fb49, 2020-05-01)"
   id="svg13909"
   version="1.1"
   viewBox="0 0 369.41483 192.80988"
   height="192.80988mm"
   width="369.41483mm">
  <defs
     id="defs13903" />
  <sodipodi:namedview
     inkscape:window-maximized="1"
     inkscape:window-y="-8"
     inkscape:window-x="-8"
     inkscape:window-height="705"
     inkscape:window-width="1366"
     fit-margin-bottom="0"
     fit-margin-right="0"
     fit-margin-left="0"
     fit-margin-top="0"
     showgrid="false"
     inkscape:document-rotation="0"
     inkscape:current-layer="layer1"
     inkscape:document-units="mm"
     inkscape:cy="474.38915"
     inkscape:cx="731.57006"
     inkscape:zoom="0.33557348"
     inkscape:pageshadow="2"
     inkscape:pageopacity="0.0"
     borderopacity="1.0"
     bordercolor="#666666"
     pagecolor="#ffffff"
     id="base" />
  <metadata
     id="metadata13906">
    <rdf:RDF>
      <cc:Work
         rdf:about="">
        <dc:format>image/svg+xml</dc:format>
        <dc:type
           rdf:resource="http://purl.org/dc/dcmitype/StillImage" />
        <dc:title></dc:title>
      </cc:Work>
    </rdf:RDF>
  </metadata>
  <g
     transform="translate(87.727913,-22.651203)"
     id="layer1"
     inkscape:groupmode="layer"
     inkscape:label="Layer 1">
    <path
       inkscape:export-ydpi="96"
       inkscape:export-xdpi="96"
       inkscape:export-filename="D:\Calcatz\Icon Pack\Adventure Narrative Inspired by Jumanji\Assets\PNG\Background\06_stone_path.png"
       sodipodi:nodetypes="csssc"
       id="path11555"
       d="m -50.696548,183.26362 c -0.567489,-0.13247 -1.136219,-0.26162 -1.706161,-0.38743 -0.428048,0.2977 -0.854389,0.60179 -1.278829,0.9122 -2.04316,-0.76429 -4.09372,-1.51146 -6.151459,-2.24145 -2.891231,-1.41359 -5.780551,-2.83113 -8.667941,-4.2526 -0.062,-0.27018 -0.12278,-0.54116 -0.18225,-0.81293 0.79487,-0.70376 0.57404,-0.50934 1.36891,-1.2131 0.91062,0.40234 2.18138,0.96192 3.09199,1.36426 0.0456,0.0201 0.0912,0.0402 0.13686,0.0604 0.0393,-0.0249 0.0785,-0.0497 0.11778,-0.0745 0.65058,-0.41034 1.30374,-0.81011 1.96056,-1.19756 0.483,0.21624 0.946009,0.42606 1.367281,0.62164 0.009,0.003 0.01709,0.007 0.02561,0.01 0.007,-0.002 0.01341,-0.004 0.02021,-0.006 0.827069,-0.2604 1.528778,-0.45697 2.011979,-0.56997 -0.467511,0.10934 -1.18722,0.2559 -2.00556,0.42885 -0.410589,-0.26224 -0.857509,-0.55411 -1.32132,-0.85958 -0.0208,-0.0138 -0.0416,-0.0276 -0.0624,-0.0414 -0.0311,0.0142 -0.0621,0.0284 -0.0932,0.0427 -0.65965,0.30417 -1.32007,0.61896 -1.97993,0.9462 -1.07536,-0.57881 -2.13728,-1.15027 -3.08135,-1.65315 l -0.19042,-0.0996 c -0.0744,0.0555 -0.14872,0.11122 -0.223,0.16707 -0.67458,0.50653 -1.23684,0.95444 -1.68608,1.32805 -2.51314,-0.87218 -5.03755,-1.71762 -7.57276,-2.53614 0.22682,-1.60984 0.4975,-3.22507 0.8131,-4.84356 1.83878,-3.16389 3.85294,-6.22233 6.03336,-9.15753 0.55439,-0.0872 1.19199,-0.19714 2.009,-0.33684 0.0787,-0.0133 0.15728,-0.0265 0.2359,-0.0396 0.0411,-0.0627 0.0823,-0.12535 0.12352,-0.18798 0.52316,-0.79034 1.07762,-1.61179 1.67792,-2.4677 0.70398,-0.3839 1.38458,-0.74245 2.02892,-1.06742 0.015,-0.007 0.03,-0.015 0.045,-0.0224 0.006,-0.0113 0.0127,-0.0227 0.0191,-0.034 0.73144,-1.27327 1.38991,-2.32999 1.85133,-3.01041 -0.44935,0.66263 -1.17289,1.68579 -1.98202,2.88438 -0.68448,0.25052 -1.39419,0.5146 -2.14455,0.80608 -0.0206,0.008 -0.0412,0.0162 -0.0617,0.0242 -0.0243,0.0283 -0.0485,0.0566 -0.0727,0.085 -0.62524,0.73564 -1.21933,1.45738 -1.77516,2.15696 -0.58576,0.0255 -1.09462,0.0593 -1.53979,0.0973 0.0953,-0.39091 0.19346,-0.78204 0.29444,-1.17337 1.95998,-2.28681 4.02237,-4.47842 6.1806,-6.56585 0.15948,-0.19587 0.3198,-0.3912 0.48097,-0.58595 1.691628,-2.03199 3.466451,-3.99246 5.318359,-5.87717 1.14703,-0.50304 2.29688,-0.97912 3.448611,-1.42869 0.13643,0.424 0.274878,0.84687 0.41533,1.26861 1.325038,1.03937 2.638869,2.09067 3.94136,3.15368 -0.003,0.189 -0.006,0.37782 -0.008,0.56644 -0.643279,0.19976 -1.43768,0.46519 -2.36778,0.80797 -0.419169,-0.27578 -0.86482,-0.56152 -1.321761,-0.8516 -0.0529,-0.0335 -0.10573,-0.0669 -0.158628,-0.10039 -0.0492,0.0397 -0.0983,0.0794 -0.14746,0.11926 -0.59604,0.48479 -1.15298,0.95023 -1.69018,1.40363 -1.007821,-0.15667 -1.916631,-0.28995 -2.4624,-0.39319 0.57177,0.10817 1.43315,0.32186 2.42878,0.60092 0,0 0.0403,0.0112 0.0403,0.0112 0.01749,-0.0116 0.035,-0.0232 0.0525,-0.0349 0.524168,-0.34891 1.08422,-0.70921 1.66861,-1.07435 0.400339,0.38191 0.799428,0.76239 1.16558,1.10607 0.0393,0.0367 0.0787,0.0735 0.118009,0.11018 0.0765,-0.022 0.153001,-0.044 0.229489,-0.0658 1.042721,-0.29802 2.018102,-0.5629 2.68256,-0.74728 -1.58e-4,-1.8e-4 7.421481,8.5203 7.421312,8.52012 1.724699,1.69288 3.437368,3.3972 5.13793,5.11282 -0.19961,1.07193 -0.369289,2.1389 -0.509032,3.19939 -1.42177,1.20159 -2.791589,2.46344 -4.102169,3.78293 -0.27034,0.26981 -0.538461,0.54236 -0.80433,0.8176 -0.37383,0.0866 -0.74812,0.17718 -1.122799,0.27183 -0.154461,-1.037 -0.130321,-0.86509 -0.284782,-1.9021 0.216191,-0.19408 0.436041,-0.38927 0.659982,-0.58547 0.594558,-0.52469 1.18881,-1.03101 1.780648,-1.51481 0,0 0.0576,-0.0471 0.0576,-0.0471 -0.0021,-0.0204 -0.005,-0.0408 -0.007,-0.0611 -0.139391,-1.23913 -0.21544,-2.32235 -0.219962,-2.98628 0.004,0.63593 -0.0329,1.71592 -0.0407,2.91449 -0.651912,0.42702 -1.30843,0.87083 -1.968301,1.33662 0,0 0,0 0,0 -0.27214,0.19077 -0.53897,0.38121 -0.799939,0.57093 -0.0381,0.0277 -0.0761,0.0554 -0.114202,0.0832 0.0011,0.0596 0.0021,0.11918 0.003,0.17873 0.01691,0.94096 0.0595,1.75821 0.11594,2.35742 -1.339339,2.2641 -2.53429,4.59628 -3.585109,6.97519 -1.123932,1.91624 -2.153949,3.88844 -3.08682,5.90412 z m 79.261936,-35.0521 c -0.0485,-0.33827 -0.0973,-0.67654 -0.14647,-1.01479 -0.0354,-0.24341 -0.071,-0.48684 -0.10672,-0.73029 -0.47642,-0.31193 -0.95329,-0.62275 -1.43088,-0.93219 0.0578,-2.18288 0.10867,-4.3668 0.15209,-6.55167 0.4455,-3.18908 0.89278,-6.37783 1.3418,-9.56626 0.23208,-0.14382 0.46454,-0.28723 0.69736,-0.43024 0.43841,0.26027 0.93245,0.54879 1.54286,0.90141 -0.0872,1.03924 -0.18152,2.19679 -0.2763,3.36773 -0.004,0.0497 -0.008,0.0994 -0.012,0.14906 0.006,0.005 0.0114,0.009 0.0172,0.0136 0.0307,0.0243 0.0613,0.0487 0.092,0.073 0.60227,0.47877 1.20202,0.95907 1.79912,1.44276 -0.0357,0.52706 -0.072,1.03581 -0.10889,1.4979 -1e-4,0.009 -2.1e-4,0.0183 -2.7e-4,0.0275 0.004,0.006 0.009,0.0112 0.013,0.0169 0.54384,0.68577 0.9985,1.27872 1.28908,1.6891 -0.28751,-0.40603 -0.68782,-1.01541 -1.15149,-1.73155 0.10383,-0.47481 0.22332,-0.99731 0.34832,-1.53723 0.006,-0.0243 0.0114,-0.0486 0.0172,-0.0729 5e-5,5e-5 -0.0732,-0.0727 -0.0732,-0.0726 -0.51949,-0.51354 -1.04176,-1.02724 -1.56902,-1.53978 0.18742,-1.21206 0.36945,-2.39284 0.52861,-3.4559 l 0.0303,-0.21272 c -0.0746,-0.0512 -0.14933,-0.10234 -0.22408,-0.15347 -0.13425,-0.0919 -0.26439,-0.18051 -0.39046,-0.26575 -0.51398,-0.34833 -0.96286,-0.64299 -1.35025,-0.88954 0.0363,-2.65966 0.0613,-5.32086 0.0742,-7.98337 0.86359,-0.17535 1.72625,-0.34508 2.58719,-0.50967 0.61246,-0.12009 1.2243,-0.23836 1.83531,-0.35505 3.23115,0.59068 6.39465,1.22422 9.50008,1.86498 0.25718,0.44414 0.58539,0.98625 0.98905,1.6355 2.7e-4,5.3e-4 0.11801,0.19057 0.1183,0.19104 0.0652,0.008 0.13044,0.0155 0.19562,0.0233 0.8038,0.0977 1.70127,0.20204 2.58037,0.30456 0.56656,0.42106 1.12628,0.8385 1.63428,1.22308 0.0119,0.009 0.0238,0.0182 0.0357,0.0273 0.0113,-2.7e-4 0.0227,-5.3e-4 0.034,-8e-4 1.26301,-0.0181 2.3679,-0.0282 3.05365,-0.0125 -0.68994,-0.0158 -1.75265,-0.0777 -3.00994,-0.16363 -0.4608,-0.44945 -0.96859,-0.95086 -1.47398,-1.44859 -0.0142,-0.0139 -0.0284,-0.0278 -0.0426,-0.0417 -0.0313,-0.007 -0.0626,-0.0144 -0.0939,-0.0216 -0.80659,-0.18273 -1.60431,-0.36321 -2.3576,-0.5294 -0.23653,-0.50755 -0.44449,-0.93842 -0.63403,-1.31795 0.34226,-0.0934 0.68403,-0.18671 1.02528,-0.28005 2.48797,0.66153 4.93602,1.32255 7.35257,1.96431 2.39132,0.28077 4.74956,0.54298 7.07489,0.76858 0.34544,0.21697 0.69077,0.43311 1.0361,0.64838 0.53436,0.33029 1.06888,0.6593 1.60385,0.98668 -0.19675,0.38715 -0.3944,0.77401 -0.59291,1.16059 0.025,1.67555 0.0553,3.3519 0.0913,5.02893 -0.13051,0.1248 -0.26126,0.24946 -0.39224,0.37401 -0.45828,-0.30725 -0.99871,-0.66259 -1.64176,-1.07995 -0.001,-5.3e-4 -0.26118,-0.17001 -0.26218,-0.17067 -0.0371,-0.48932 -0.0813,-1.02939 -0.12369,-1.55672 -0.005,-0.0619 -0.0101,-0.12377 -0.0151,-0.18566 -0.0535,-0.0122 -0.10708,-0.0245 -0.16064,-0.0367 -0.64244,-0.14572 -1.27478,-0.29157 -1.86147,-0.4328 -0.40626,-0.89853 -0.74499,-1.67836 -0.93795,-2.18495 0.19619,0.51516 0.46725,1.33574 0.77312,2.28599 0.004,0.0128 0.008,0.0256 0.0119,0.0385 0.0172,0.007 0.0344,0.0133 0.0515,0.0199 0.49723,0.19114 1.07863,0.41725 1.62527,0.62877 -0.0545,0.55128 -0.10788,1.09869 -0.15255,1.59953 -0.005,0.0536 -0.009,0.10722 -0.0139,0.16083 0.0576,0.0451 0.11529,0.0902 0.17296,0.13521 0.26878,0.20965 0.52357,0.40638 0.76431,0.59034 0.4901,0.37334 0.92098,0.69329 1.29019,0.95917 -0.53412,3.73162 -1.06917,7.46302 -1.60515,11.19423 -0.13967,2.4163 -0.27352,4.83358 -0.40122,7.25175 -0.7403,0.33846 -1.48154,0.67304 -2.22294,1.00393 -0.41026,0.18524 -0.82066,0.36971 -1.23108,0.5535 -2.83439,-0.53562 -5.61536,-1.10264 -8.34976,-1.67699 -0.34396,-0.28571 -0.68674,-0.5715 -1.02845,-0.85734 0.49445,-0.32476 1.07205,-0.71592 1.74574,-1.18566 1.25523,0.33874 2.50915,0.66816 3.77314,0.9985 0.0293,0.008 0.0587,0.0153 0.088,0.0229 0.0183,-0.0131 0.0365,-0.0262 0.0548,-0.0393 1.09166,-0.78309 2.09086,-1.49367 2.68219,-1.87118 -0.59118,0.37741 -1.61993,0.95992 -2.80102,1.6117 -1.27233,-0.45526 -2.52914,-0.91835 -3.77713,-1.3783 -0.0522,-0.0192 -0.10439,-0.0385 -0.15657,-0.0577 -0.0586,0.0307 -0.11712,0.0614 -0.17567,0.0921 -0.92069,0.48208 -1.73523,0.9157 -2.31186,1.24597 -3.17355,-0.12419 -6.29643,-0.25108 -9.35991,-0.34227 -2.6058,-0.3325 -5.17094,-0.6389 -7.6965,-0.89543 z M 186.15743,66.069802 c -0.45767,-0.360479 -0.91789,-0.718389 -1.38067,-1.07368 -0.51152,0.0867 -1.02394,0.179941 -1.53713,0.279879 -1.52908,-1.554469 -3.07258,-3.095929 -4.63034,-4.62416 -2.0263,-2.497989 -4.04908,-4.998889 -6.06832,-7.50271 0.0578,-0.271349 0.11705,-0.542898 0.17791,-0.814639 0.39986,-0.11965 1.1635,-0.349559 1.75406,-0.524761 0.75506,0.862452 1.47146,1.67854 2.22653,2.541 0.0329,0.0375 0.0657,0.075 0.0986,0.112451 2e-5,0 0.13816,-0.01781 0.13818,-0.01781 0.76274,-0.0973 1.52339,-0.183398 2.28222,-0.256529 0.34623,0.400201 0.67699,0.78609 0.97599,1.1415 0.006,0.007 0.0127,0.0132 0.019,0.01979 0.007,0.0011 0.014,0.0021 0.0209,0.003 0.85907,0.11429 1.57792,0.23376 2.0633,0.336238 -0.46969,-0.0992 -1.18354,-0.2715 -1.99787,-0.461309 -0.26117,-0.41126 -0.54266,-0.864661 -0.83373,-1.337641 -0.0132,-0.02109 -0.0267,-0.0421 -0.04,-0.0632 -0.0342,-2.65e-4 -0.0683,-5.29e-4 -0.10247,-7.94e-4 -0.72628,-0.004 -1.45767,0.003 -2.19384,0.0205 -0.72988,-0.978339 -1.45128,-1.945187 -2.09411,-2.799379 l -0.13048,-0.170698 c -0.0909,0.019 -0.18191,0.0382 -0.27289,0.0576 -0.82597,0.175238 -1.52526,0.345138 -2.09071,0.495469 -1.91091,-1.848871 -3.84407,-3.67725 -5.79923,-5.48467 0.88943,-1.37101 1.82158,-2.72716 2.79581,-4.06605 3.01316,-2.103001 6.13816,-4.02624 9.3554,-5.762201 0.53898,0.156131 1.16305,0.3269 1.96207,0.54694 0.0769,0.0213 0.15364,0.0427 0.2304,0.0642 0.0637,-0.0394 0.12753,-0.0787 0.19137,-0.11794 0.80801,-0.494259 1.65682,-1.00298 2.5613,-1.52342 0.79915,-0.0489 1.56641,-0.0847 2.2864,-0.10553 0.0167,-3.97e-4 0.0335,-8.2e-4 0.0502,-10e-4 0.0106,-0.008 0.0212,-0.0151 0.0316,-0.0227 1.19766,-0.84227 2.2375,-1.51978 2.93963,-1.93959 -1.05736,0.6322 -1.94755,1.13785 -3.0049,1.77004 -0.72488,-0.0636 -1.47873,-0.12574 -2.28074,-0.18027 -0.022,-0.001 -0.0441,-0.003 -0.0661,-0.004 -0.0339,0.0153 -0.0678,0.0307 -0.10165,0.0461 -0.87617,0.40082 -1.71871,0.8024 -2.5178,1.20047 -0.54118,-0.22552 -1.01627,-0.41078 -1.4355,-0.56523 0.25162,-0.31383 0.50583,-0.62661 0.76256,-0.93832 2.74068,-1.24007 5.52913,-2.34752 8.35387,-3.31995 2.5917,-1.25496 5.24547,-2.39607 7.95298,-3.417381 1.25214,0.0255 2.4969,0.0763 3.73327,0.151991 -0.0544,0.44211 -0.10636,0.88407 -0.15602,1.32584 0.76734,1.49985 1.51945,3.00575 2.25612,4.5175 -0.0826,0.17012 -0.16449,0.34033 -0.24574,0.51063 -0.66868,-0.0888 -1.50143,-0.18123 -2.49029,-0.26059 -0.26495,-0.42637 -0.54977,-0.8729 -0.84298,-1.32814 -0.0339,-0.0526 -0.0679,-0.10517 -0.10195,-0.15774 -0.0613,0.0154 -0.12261,0.0308 -0.18391,0.0463 -0.74451,0.1897 -1.44521,0.37824 -2.12246,0.56394 -0.8495,-0.56639 -1.61597,-1.06849 -2.06822,-1.39237 0.47278,0.33862 1.16459,0.89508 1.95072,1.56677 0.0106,0.009 0.0214,0.018 0.032,0.0271 0.0204,-0.003 0.041,-0.006 0.0615,-0.009 0.62177,-0.0964 1.28148,-0.188279 1.96533,-0.274309 0.20349,0.51532 0.40523,1.02759 0.59372,1.49383 0.0204,0.0498 0.0406,0.0997 0.0609,0.149579 0.0787,0.0121 0.15738,0.0243 0.23598,0.0366 1.07344,0.16755 2.06754,0.33598 2.75024,0.44778 1.05175,3.61741 2.10614,7.23405 3.16312,10.84994 0.85553,2.26069 1.69511,4.52668 2.5187,6.79781 -0.62894,0.889932 -1.22962,1.78843 -1.80205,2.693911 -2.16548,0.59903 -4.31077,1.31037 -6.42252,2.129078 -0.37764,-0.0776 -0.75726,-0.152019 -1.13879,-0.223149 0.23413,-0.78272 0.31721,-1.068441 0.55136,-1.85116 1.03971,-0.32049 2.07918,-0.619001 3.11785,-0.886429 0.0241,-0.006 0.0483,-0.01249 0.0724,-0.01871 0.007,-0.0195 0.0132,-0.039 0.0196,-0.0585 0.39785,-1.184992 0.78502,-2.201071 1.0605,-2.80652 -0.26379,0.57976 -0.75279,1.545749 -1.26757,2.631948 -1.11069,0.16456 -2.22324,0.352642 -3.33364,0.573482 -0.0465,0.009 -0.0929,0.01849 -0.13938,0.0279 -0.0246,0.0547 -0.0489,0.109318 -0.0732,0.163989 -0.38402,0.863261 -0.69342,1.62419 -0.89773,2.193279 -2.18454,1.49628 -4.26503,3.105761 -6.22679,4.81157 -1.83171,1.256091 -3.59605,2.597581 -5.28182,4.016981 z M -31.485816,160.43943 c -0.980041,-0.22444 -1.971623,-0.42855 -2.974023,-0.61162 -8e-6,-2e-5 -2.006518,-2.56747 -2.006539,-2.56749 -1.34929,-2.01584 -2.682931,-4.04319 -4.000831,-6.08184 -2.90481,-3.28467 -5.842929,-6.54141 -8.814078,-9.76964 -0.468151,-1.13623 -0.925121,-2.27907 -1.370822,-3.4283 1.824072,-1.00763 3.67044,-1.95024 5.53507,-2.82799 0.996651,-1.03966 2.020711,-2.06106 3.07154,-3.06292 3.37412,-2.09844 6.872952,-3.99132 10.473791,-5.66719 0.1026,0.005 0.20515,0.0103 0.30762,0.0157 -0.372819,0.55966 -0.79661,1.2265 -1.260771,2.00444 -0.702008,0.32946 -1.39332,0.66829 -2.079249,1.0099 -0.0168,0.009 -0.0336,0.0174 -0.0504,0.0261 -0.006,0.006 -0.01241,0.013 -0.0186,0.0195 -0.930079,0.96454 -1.90549,2.03771 -2.835569,3.00226 0.62643,-0.6487 1.704769,-1.66212 3.019891,-2.80339 0.777748,-0.25475 1.557679,-0.4937 2.336959,-0.72719 0.0431,-0.013 0.0863,-0.026 0.12945,-0.0389 0.038,-0.0496 0.0761,-0.0992 0.114289,-0.1488 0.596601,-0.77739 1.232162,-1.57871 1.82876,-2.35611 3.081431,-1.68062 6.26686,-3.20253 9.54264,-4.55345 1.291111,-0.0296 2.57656,-0.0329 3.85531,-0.0103 0.43203,0.6666 0.859031,1.33547 1.280951,2.00659 0.381471,2.28641 0.780352,4.56904 1.196549,6.84771 0.672711,1.70279 1.334752,3.40915 1.986061,5.11899 -0.120039,0.28224 -0.238279,0.56469 -0.35473,0.84732 -0.550719,-0.12453 -1.223208,-0.26202 -2.021589,-0.40074 -0.225081,-0.58322 -0.46795,-1.1971 -0.716851,-1.82461 -0.01439,-0.0364 -0.0289,-0.0727 -0.0434,-0.10908 -0.0319,-0.009 -0.0639,-0.0183 -0.0958,-0.0275 -0.942589,-0.26785 -1.84789,-0.50614 -2.724269,-0.72656 -0.32593,-0.6576 -0.60085,-1.22935 -0.751361,-1.6048 0.1538,0.38341 0.353272,1.00137 0.57349,1.71999 l 0.01111,0.032 c 0.01529,0.005 0.0307,0.0109 0.046,0.0164 0.804651,0.28478 1.644862,0.60219 2.506361,0.9457 0.167531,0.70352 0.332621,1.3899 0.491709,2.0268 0.01471,0.0578 0.0294,0.11568 0.044,0.17352 0.0759,0.0198 0.151741,0.0396 0.227499,0.0596 0.94058,0.24808 1.715222,0.46158 2.324621,0.62366 1.162079,3.08635 2.29466,6.18238 3.3975307,9.28772 -0.56437,0.82788 -1.1055697,1.66238 -1.6236397,2.50237 -2.762962,0.85929 -5.479912,1.89447 -8.125761,3.09331 -1.23683,0.1656 -2.47831,0.36641 -3.722029,0.6029 -0.56765,-0.154 -1.308502,-0.33341 -2.199762,-0.515 -0.0619,-0.0127 -0.123939,-0.0254 -0.18597,-0.0379 -0.0406,0.0348 -0.0812,0.0697 -0.121698,0.10455 -1.008951,0.86543 -2.039641,1.80451 -3.07635,2.81142 -0.842092,0.004 -1.645211,0.0227 -2.419591,0.0497 0,0 -0.0282,0.001 -0.0282,0.001 -0.005,0.003 -0.01,0.006 -0.01439,0.01 -0.860801,0.53574 -1.597952,1.01064 -2.07721,1.29711 0.479819,-0.28682 1.23467,-0.68845 2.13881,-1.12922 0.79548,0.0516 1.63041,0.12512 2.490409,0.21821 0,0 0.0801,0.009 0.0801,0.009 0,0 0.0753,-0.0639 0.0753,-0.0639 1.061771,-0.90316 2.109671,-1.74071 3.13504,-2.52273 0.75787,0.22915 1.380501,0.42304 1.898701,0.58157 -0.02551,0.32912 -0.0488,0.65785 -0.0699,0.98615 -2.915348,1.6583 -5.706729,3.5209 -8.33619,5.56633 z M 145.2643,123.65918 c -1.17533,0.24566 -2.35022,0.47363 -3.52276,0.68193 -0.83673,-0.69623 -1.6737,-1.39222 -2.51093,-2.08795 -1.72303,-1.71872 -3.45927,-3.42504 -5.20816,-5.11923 -3.59973,-2.5276 -7.17343,-5.08445 -10.71952,-7.67141 -0.75034,-0.9557 -1.50956,-1.90416 -2.27707,-2.8456 1.16219,-0.96198 2.32511,-1.98398 3.48831,-3.05493 0.37858,-1.049 0.74671,-2.10835 1.10792,-3.17625 1.67482,-2.481878 3.33216,-5.079628 5.00252,-7.733558 0.0243,-0.0415 0.0485,-0.083 0.0728,-0.124589 0.0781,-0.0388 0.15626,-0.0777 0.23443,-0.1167 0.0172,0.146439 0.0356,0.298458 0.0552,0.4567 0.0502,0.467079 0.11067,0.984168 0.18388,1.57299 -0.34469,0.527018 -0.68715,1.05505 -1.02807,1.57004 -0.008,0.01288 -0.0164,0.0258 -0.0246,0.0387 -10e-4,0.007 -0.003,0.015 -0.004,0.02249 -0.2388,1.41469 -0.45992,2.63348 -0.63228,3.367831 0.16231,-0.69147 0.51128,-1.94133 0.88744,-3.280201 0.46382,-0.48509 0.93065,-0.969971 1.39385,-1.462469 0.0256,-0.0273 0.0512,-0.0547 0.0768,-0.082 2.6e-4,-0.0534 5.3e-4,-0.10691 0.001,-0.16035 0.002,-0.37719 0.002,-0.740212 2.6e-4,-1.079371 -0.0129,-0.568438 -0.0299,-1.076848 -0.0519,-1.484511 1.20718,-2.622859 2.41885,-5.323959 3.68,-8.08546 0.8474,-0.73488 1.70069,-1.476788 2.56024,-2.222828 0.76241,0.201869 1.52471,0.40409 2.28681,0.60679 1.89435,1.342009 3.79041,2.68178 5.68784,4.01973 1.67015,0.76045 3.33965,1.52201 5.00833,2.284889 0.11159,0.28798 0.22339,0.575839 0.33534,0.86361 -0.49386,0.307179 -1.06834,0.675072 -1.75792,1.12902 -0.5601,-0.271381 -1.16599,-0.55975 -1.77287,-0.849209 -0.0354,-0.01691 -0.0708,-0.0337 -0.10624,-0.0506 -0.0295,0.01468 -0.059,0.0294 -0.0885,0.0442 -0.86028,0.4308 -1.70264,0.8533 -2.48638,1.240621 -0.67952,-0.28249 -1.26155,-0.535101 -1.62291,-0.72013 0.36862,0.188691 0.92755,0.52233 1.56877,0.917969 l 0.0295,0.01691 c 0.015,-0.006 0.0299,-0.0113 0.0449,-0.01691 0.76841,-0.291679 1.63101,-0.61437 2.48028,-0.93178 0.59754,0.402661 1.19229,0.80318 1.73716,1.164349 0.05,0.0329 0.1,0.0658 0.14998,0.0986 0.07,-0.0376 0.13997,-0.0751 0.20995,-0.112671 0.86632,-0.464812 1.5904,-0.86283 2.1483,-1.181761 2.99015,1.41379 5.97848,2.830491 8.96437,4.251039 0.11867,1.091581 0.23703,2.186641 0.35239,3.28658 -1.73885,3.01079 -3.52944,6.1074 -5.43004,9.24491 -0.14617,0.14824 -0.29262,0.29653 -0.43933,0.44485 -0.92001,0.98432 -1.86116,1.96778 -2.82265,2.94608 -0.64197,0.26744 -1.41591,0.60189 -2.39262,1.02516 -0.0668,0.0288 -0.13354,0.0576 -0.20036,0.0863 -0.0257,0.0612 -0.0514,0.12245 -0.0771,0.18368 -0.64244,1.51976 -1.35368,3.133 -2.14756,4.81199 -0.89213,0.50507 -1.75547,0.98026 -2.57722,1.41674 -0.01,0.005 -0.02,0.0108 -0.03,0.0162 -0.004,0.006 -0.009,0.0123 -0.0133,0.0185 -0.79247,1.03256 -1.48908,1.88837 -1.96935,2.43235 0.46916,-0.53142 1.22273,-1.34211 2.07929,-2.28614 0.87809,-0.36961 1.78423,-0.75632 2.74203,-1.17865 0.0295,-0.013 0.0591,-0.0261 0.0886,-0.0391 0.0205,-0.0378 0.041,-0.0756 0.0615,-0.11337 0.86045,-1.59522 1.64449,-3.14086 2.35027,-4.60494 0.85057,-0.28029 1.56409,-0.53175 2.14489,-0.74816 0.11768,0.34416 0.23425,0.68927 0.34965,1.03534 -2.26785,3.80196 -4.79829,7.61132 -7.65106,11.32378 z m 67.97112,-70.19574 c -0.78721,-0.616997 -1.59531,-1.219679 -2.42356,-1.807329 -0.24738,-1.05751 -0.49437,-2.1151 -0.74099,-3.172789 -0.37735,-2.395991 -0.73506,-4.79582 -1.07304,-7.199281 -1.25294,-4.20113 -2.5495,-8.39081 -3.88938,-12.56843 0.0545,-1.2277 0.1224,-2.45666 0.20389,-3.68666 2.08986,-0.14709 4.17634,-0.22437 6.25515,-0.23199 1.35551,-0.52095 2.73113,-1.01244 4.12628,-1.47312 0.39436,-0.0461 0.78917,-0.0897 1.18438,-0.13078 3.61077,-0.36383 7.22979,-0.51743 10.83821,-0.46607 0.0906,0.0491 0.1811,0.0984 0.27146,0.14784 -0.58362,0.34134 -1.26093,0.75753 -2.02277,1.25636 -0.78139,-0.008 -1.5576,-0.002 -2.33042,0.009 -0.0191,5.51e-4 -0.0382,10e-4 -0.0573,0.002 -0.009,0.003 -0.0172,0.006 -0.0259,0.01 -1.19946,0.44173 -2.69118,1.04227 -3.89062,1.484 0.85432,-0.31647 2.27558,-0.76543 3.97132,-1.22517 0.81854,0.10682 1.63158,0.22945 2.44102,0.3573 0.0448,0.007 0.0897,0.014 0.13451,0.0211 0.0562,-0.0282 0.11253,-0.0563 0.16889,-0.0843 0.83357,-0.41673 1.85782,-0.90836 2.69139,-1.32509 3.53092,-0.17052 7.08017,-0.14382 10.62847,0.0799 1.17692,0.53999 2.3359,1.10169 3.47647,1.68409 0.0949,0.78884 0.18415,1.57757 0.26781,2.36611 -0.66463,2.22209 -1.31183,4.44835 -1.94154,6.67859 -0.14547,1.825761 -0.30223,3.650111 -0.47024,5.472941 -0.23212,0.20066 -0.46271,0.40228 -0.6917,0.60486 -0.43961,-0.35434 -0.9833,-0.77419 -1.63912,-1.25004 0.0545,-0.62294 0.10639,-1.28114 0.15888,-1.95434 0.003,-0.039 0.006,-0.078 0.009,-0.11705 -0.0246,-0.0223 -0.0493,-0.0446 -0.074,-0.0668 -0.72908,-0.65522 -1.43788,-1.267129 -2.12905,-1.850009 -0.004,-0.733861 1.6e-4,-1.36821 0.0298,-1.77156 -0.0302,0.411929 -0.1225,1.05472 -0.23984,1.79701 l -0.004,0.0337 c 0.0114,0.0116 0.0228,0.0233 0.0341,0.0349 0.59838,0.60924 1.21378,1.26339 1.83682,1.95093 -0.15899,0.70569 -0.31258,1.39469 -0.44982,2.03681 -0.0122,0.0584 -0.0246,0.11682 -0.0368,0.17523 0.0595,0.0512 0.11883,0.10236 0.17807,0.15364 0.73549,0.63666 1.33702,1.16954 1.81284,1.58356 -0.31517,3.28408 -0.66148,6.56408 -1.03878,9.83956 -0.87029,0.49429 -1.72172,1.004718 -2.55354,1.530379 -2.84803,-0.44723 -5.71955,-0.712351 -8.58642,-0.787058 -1.17033,-0.389972 -2.35921,-0.748163 -3.5651,-1.072521 -0.43863,-0.38382 -1.02148,-0.865661 -1.73768,-1.41274 -0.0497,-0.0381 -0.0996,-0.0762 -0.14946,-0.11422 -0.0509,0.0139 -0.10181,0.0279 -0.15267,0.042 -0.78772,0.216029 -1.60351,0.458149 -2.44065,0.727699 -0.49334,0.156879 -0.98724,0.320871 -1.48145,0.491831 -0.75253,-0.35679 -1.47984,-0.68232 -2.18488,-0.986901 -0.009,-0.004 -0.0172,-0.007 -0.0259,-0.0109 -0.006,0.0011 -0.0122,0.0021 -0.0185,0.003 -0.9956,0.118621 -1.85639,0.236731 -2.40707,0.293622 0.55118,-0.0569 1.39766,-0.101262 2.39212,-0.115602 0.69152,0.384791 1.40777,0.806992 2.13604,1.258882 0.0225,0.014 0.0452,0.0281 0.0678,0.0421 0.0313,-0.009 0.0626,-0.01701 0.0939,-0.02551 0.49618,-0.1353 0.99142,-0.263861 1.48569,-0.386011 0.81108,-0.203819 1.59978,-0.38503 2.36376,-0.54778 0.53441,0.49303 1.09054,1.015201 1.4409,1.34199 -0.16206,0.285631 -0.32179,0.571889 -0.47922,0.85875 -1.04608,0.0762 -2.08814,0.178721 -3.12467,0.30796 -2.22131,0.26621 -4.43315,0.65641 -6.623,1.16332 z M -58.563558,212.07023 c -0.805349,0.64122 -1.601131,1.30619 -2.386229,1.99492 -1.201831,-0.16334 -2.403001,-0.33489 -3.603431,-0.51461 -0.4274,-0.49318 -1.03646,-1.18585 -1.71412,-1.98381 -0.0462,-0.0543 -0.0923,-0.10864 -0.13834,-0.16312 -0.0575,0.008 -0.11503,0.0165 -0.17254,0.0248 -0.69012,0.10008 -1.42368,0.21498 -2.18235,0.33877 -0.38913,-0.52577 -0.7582,-1.04135 -1.09859,-1.5358 -0.01,-0.0142 -0.0195,-0.0284 -0.0292,-0.0426 l -0.0367,-0.002 c -0.84019,-0.025 -1.56685,-0.0543 -2.02679,-0.0994 0.4506,0.0445 1.15175,0.15293 1.96121,0.28619 0.29904,0.57843 0.61102,1.17228 0.94944,1.7929 0.0198,0.0363 0.0395,0.0726 0.0593,0.10888 0.0489,-0.002 0.0978,-0.004 0.14665,-0.006 1.21344,-0.0456 0.89642,-0.0329 2.10987,-0.0786 0.53771,0.74456 1.01275,1.35497 1.40287,1.83242 -0.18439,0.21632 -0.3678,0.43428 -0.55021,0.65389 -3.41649,-0.24288 -6.83144,-0.52043 -10.2444,-0.83248 -0.0228,-0.002 -0.0455,-0.004 -0.0683,-0.006 -2.50779,0.47188 -5.01189,0.98911 -7.511221,1.55206 -1.32856,-0.81557 -2.64583,-1.66729 -3.95059,-2.55444 0.38799,-1.00084 0.79153,-1.98873 1.20998,-2.96346 -0.18107,-3.44873 -0.17473,-6.91923 0.0188,-10.39359 0.29793,-0.62309 0.60188,-1.24098 0.9117,-1.85361 0.38115,0.53118 0.84241,1.14853 1.395531,1.84862 -0.12619,1.00117 -0.23837,2.05196 -0.33502,3.14096 -0.002,0.0248 -0.004,0.0496 -0.006,0.0744 0.003,0.0133 0.006,0.0267 0.009,0.04 0.246349,1.08741 0.499579,2.11123 0.751579,3.08442 -0.0114,0.64296 -0.0231,1.20412 -0.0515,1.55655 0.0291,-0.36238 0.112681,-0.9221 0.228971,-1.5715 5.02e-4,-0.005 9.79e-4,-0.0101 0.001,-0.0152 -0.002,-0.01 -0.003,-0.0199 -0.005,-0.0298 -0.16968,-0.98103 -0.32888,-2.02629 -0.474511,-3.1216 0.200681,-1.15611 0.41304,-2.24994 0.627831,-3.29216 0.0141,-0.0691 0.0284,-0.13808 0.0427,-0.2071 -0.0405,-0.062 -0.081,-0.12401 -0.12138,-0.18614 -0.645811,-0.99233 -1.176541,-1.83136 -1.588751,-2.46786 0.32596,-3.77687 0.875741,-7.55333 1.64914,-11.30552 1.29687,-2.18493 2.66935,-4.30015 4.110601,-6.34171 1.62904,-0.099 3.25324,-0.16573 4.87154,-0.20048 2.27404,1.29691 4.5592,2.57158 6.85515,3.82386 3.09323,0.98868 6.17549,2.00708 9.24633,3.05504 0.0331,0.28609 0.0679,0.57138 0.104381,0.85585 -0.5188,0.23691 -1.162831,0.55015 -1.9157,0.94777 -0.75688,-0.17006 -1.558011,-0.34248 -2.384811,-0.51541 -0.0444,-0.009 -0.0887,-0.0184 -0.1331,-0.0275 -0.0268,0.0279 -0.0535,0.0559 -0.0802,0.0838 -0.57918,0.61025 -1.11974,1.20026 -1.63717,1.77475 -0.85974,0.33042 -1.63779,0.63838 -2.11352,0.80496 0.49675,-0.17395 1.27141,-0.39847 2.18331,-0.63192 0.006,-10e-4 0.0114,-0.003 0.0171,-0.004 0.007,-0.007 0.0142,-0.0131 0.0213,-0.0197 0.53684,-0.48255 1.11256,-0.97975 1.71591,-1.48317 0.80633,0.26425 1.622819,0.53304 2.354768,0.77061 0.0362,0.0118 0.0725,0.0237 0.108751,0.0355 0.0465,-0.0197 0.0929,-0.0393 0.13938,-0.0589 0.834149,-0.35049 1.52477,-0.63235 2.078861,-0.86312 0.956558,1.12565 1.935279,2.22162 2.934808,3.28709 -0.902409,2.95773 -1.60836,5.96174 -2.11106,8.97935 -0.5657,0.9657 -1.11061,1.95111 -1.633209,2.95529 -0.17689,-0.1891 -0.360651,-0.38396 -0.570162,-0.60483 0.135822,-1.01453 0.289222,-2.02581 0.468691,-3.02962 0.003,-0.0153 0.005,-0.0307 0.008,-0.0461 0,0 -0.0122,-0.026 -0.0122,-0.026 -0.332591,-0.69966 -0.605591,-1.32715 -0.733552,-1.71398 0.121301,0.36673 0.286991,1.03328 0.470871,1.7506 -0.304929,1.0289 -0.591769,2.06342 -0.84982,3.1049 0,0 -0.0258,0.10724 -0.0258,0.10724 0.0288,0.0459 0.0576,0.0918 0.0864,0.13755 0.287649,0.45572 0.555479,0.85837 0.777592,1.16308 -0.0409,2.9864 0.114617,5.9385 0.466129,8.8257 z M 109.93096,149.89046 c -1.21942,-0.39842 -2.41219,-0.82843 -3.57885,-1.2873 -0.13981,-1.21537 -0.28951,-2.42842 -0.44922,-3.63899 0.47753,-0.61705 1.07923,-1.44587 1.7415,-2.44338 0.0443,-0.0668 0.0884,-0.13374 0.13243,-0.20066 -0.0313,-0.0494 -0.0626,-0.0988 -0.0939,-0.14826 -0.38474,-0.60719 -0.76711,-1.20955 -1.18444,-1.87925 0.41911,-0.5792 0.80405,-1.13074 1.1672,-1.66147 0.0104,-0.0151 0.0207,-0.0302 0.0311,-0.0453 l -0.0128,-0.0344 c -0.31791,-0.77729 -0.58289,-1.45279 -0.7261,-1.89191 0.14041,0.43129 0.31943,1.11439 0.51133,1.91341 -0.45944,0.5199 -0.96028,1.06151 -1.49473,1.6171 -0.0315,0.0327 -0.0631,0.0653 -0.0947,0.0979 0.0192,0.045 0.0384,0.09 0.0576,0.13499 0.28184,0.66627 0.563,1.32842 0.83057,1.94135 -0.63428,0.79348 -1.23333,1.51931 -1.6715,2.04966 -0.31383,-0.0954 -0.62599,-0.19308 -0.93647,-0.29287 -0.65886,-3.36759 -1.35889,-6.72399 -2.10071,-10.06817 -0.005,-0.0223 -0.0101,-0.0446 -0.0152,-0.0668 -1.16276,-2.26405 -2.273382,-4.551 -3.333162,-6.85828 0.23894,-1.43663 0.43001,-2.86924 0.57092,-4.29514 0.740422,0.15765 1.486482,0.29876 2.237942,0.42166 2.04079,-1.10458 3.92103,-2.33884 5.59614,-3.71058 0.44891,-0.0319 0.89802,-0.0729 1.34722,-0.12325 10e-4,0.54322 -0.003,1.22229 -0.0268,1.98686 -0.56633,0.3716 -1.16672,0.74582 -1.81105,1.11914 -0.0146,0.009 -0.0292,0.0171 -0.0438,0.0256 -0.006,0.008 -0.0114,0.0162 -0.0171,0.0244 -0.46467,0.65798 -0.94139,1.28282 -1.41831,1.86397 -0.40056,0.2297 -0.75352,0.41289 -0.99136,0.50898 0.23914,-0.0966 0.63254,-0.2191 1.08235,-0.35789 0.003,-10e-4 0.007,-0.003 0.0101,-0.004 0.005,-0.005 0.0108,-0.0102 0.0161,-0.0154 0.52503,-0.5178 1.05782,-1.06661 1.58874,-1.65387 0.7417,-0.31778 1.43872,-0.64407 2.0857,-0.97595 0.0429,-0.0221 0.0858,-0.0443 0.12862,-0.0666 0.007,-0.0625 0.0138,-0.12492 0.0204,-0.18737 0.0467,-0.44019 0.0802,-0.84791 0.10368,-1.22021 0,0 0,0 0,0 0.038,-0.45874 0.0606,-0.86555 0.0721,-1.21035 1.8602,-1.54305 3.54846,-3.32077 5.11322,-5.28861 1.56962,-0.66371 3.14963,-1.46106 4.73544,-2.37067 1.41359,0.62412 2.85056,1.21754 4.30847,1.78196 1.78773,1.9016 3.55606,3.8202 5.30406,5.75621 2.57867,1.95931 5.1811,3.89404 7.80612,5.80484 -0.10019,0.32539 -0.20283,0.65096 -0.30801,0.9767 -1.10326,0.22027 -1.28816,0.26074 -2.39142,0.48101 -0.67056,-0.43105 -1.32903,-0.85356 -2.05394,-1.32454 -0.0381,-0.0246 -0.0761,-0.0492 -0.11417,-0.0739 -0.039,0.0191 -0.0781,0.0381 -0.11713,0.0571 -0.84421,0.41409 -1.65819,0.79498 -2.43302,1.13725 -0.98493,-0.0345 -1.80819,-0.0931 -2.33787,-0.1609 0.51183,0.0655 1.36879,0.20936 2.31047,0.35767 0.006,0.001 0.0119,0.002 0.0178,0.003 0.01,-0.003 0.0198,-0.007 0.0296,-0.01 0.75543,-0.24812 1.54283,-0.51547 2.37422,-0.81394 0.64175,0.55881 1.27897,1.11146 1.86711,1.61272 0.0289,0.0247 0.0577,0.0494 0.0866,0.0741 0.0561,-0.006 0.11228,-0.0111 0.16845,-0.0168 1.0016,-0.10049 1.85565,-0.21364 2.53167,-0.32023 0.36655,1.52057 0.69308,3.06134 0.97545,4.62349 -2.96433,3.24566 -6.24419,6.35258 -9.89385,9.24636 -1.5075,0.6886 -3.03816,1.33347 -4.59108,1.92977 0.0876,-0.29902 0.17623,-0.62054 0.26525,-0.96906 1.23742,-0.87181 2.42783,-1.77013 3.5794,-2.68401 0.0174,-0.0141 0.0348,-0.0282 0.0522,-0.0423 0.005,-0.0112 0.0105,-0.0224 0.0157,-0.0336 0.40882,-0.88381 0.77938,-1.71908 1.0081,-2.16048 -0.23591,0.45528 -0.69379,1.19597 -1.26235,2.0432 -1.27244,0.85739 -2.58028,1.6786 -3.92014,2.46986 -0.0458,0.0273 -0.0916,0.0546 -0.13753,0.0818 -0.0296,0.0626 -0.0593,0.12516 -0.0892,0.18777 -0.002,0.005 -0.0921,0.19304 -0.0945,0.19794 -0.2645,0.52054 -0.52261,1.02127 -0.70349,1.39154 -3.62809,2.58143 -7.46468,4.80682 -11.43338,6.68746 z M 7.4746607,146.53868 c -1.550897,-0.0491 -3.085369,-0.0486 -4.603099,0.009 -0.647409,0.0171 -1.29576,0.0444 -1.94473,0.0817 -1.38431,0.31339 -2.75659,0.67239 -4.114239,1.07478 -0.92025,-0.527 -1.8631,-1.03463 -2.827411,-1.52199 -0.167601,-0.63754 -0.335759,-1.27495 -0.5045,-1.91221 l -0.0011,-0.006 c -0.469069,-1.63321 -0.94434,-3.26482 -1.425811,-4.89481 0.322012,-0.30401 0.647872,-0.60595 0.977572,-0.90575 0.642761,0.14862 1.543148,0.35213 2.52494,0.59047 0.0864,0.97948 0.185971,2.01993 0.291579,3.07973 0.005,0.0465 0.009,0.093 0.01371,0.13953 0.0354,0.0153 0.0708,0.0306 0.106112,0.046 0.619569,0.27309 1.209548,0.54505 1.758418,0.81179 0.24502,0.63397 0.443381,1.18248 0.54973,1.54282 -0.10808,-0.36632 -0.245279,-0.95336 -0.39501,-1.63308 l -0.005,-0.029 c -0.0118,-0.008 -0.0236,-0.016 -0.0354,-0.024 -0.483809,-0.31924 -0.9905,-0.64931 -1.535001,-0.99269 -0.008,-1.14332 -0.007,-2.20961 -0.004,-3.25084 2.65e-4,-0.0793 5.3e-4,-0.1585 0.0011,-0.23776 -0.0881,-0.0297 -0.176282,-0.0593 -0.26461,-0.0887 -1.087501,-0.36168 -2.024412,-0.63362 -2.745042,-0.82046 -0.97274,-2.96337 -1.9842,-5.91636 -3.034008,-8.85832 -0.5211107,-2.17606 -1.0443107,-4.35165 -1.5695797,-6.52676 1.13261,-1.11814 2.3077797,-2.21615 3.5255697,-3.29147 2.603029,-0.49603 5.23176,-0.88619 7.879638,-1.16694 0.28742,-0.0282 0.574551,-0.0552 0.861402,-0.081 3.06615,0.10467 6.064448,0.33979 8.99945,0.68165 0.3272393,0.36972 0.8095083,0.88331 1.3085213,1.41855 0.0432,0.0464 0.0863,0.0929 0.129399,0.13932 0.0526,0.003 0.105188,0.007 0.157758,0.0101 1.214909,0.0829 2.423139,0.1786 3.624919,0.29593 0.59574,0.54425 1.10149,1.0328 1.36903,1.34327 -0.27171,-0.31534 -0.69093,-0.89852 -1.15258,-1.54428 -0.009,-0.013 -0.0184,-0.026 -0.0276,-0.039 -0.0266,-0.005 -0.0531,-0.0108 -0.0797,-0.0161 -1.11864,-0.22321 -2.2507,-0.43762 -3.400437,-0.63302 -0.35305,-0.5589 -0.666721,-1.02428 -0.93685,-1.399 0.16047,-0.20447 0.321659,-0.40862 0.483539,-0.61249 1.928278,0.12686 3.834028,0.29801 5.717208,0.50705 2.39044,-0.0136 4.75921,0.0334 7.10146,0.12912 0.35556,0.93694 0.70314,1.87501 1.04331,2.81401 -0.659,1.52582 -1.30649,3.05509 -1.94117,4.58766 -0.55326,0.37533 -1.25807,0.87772 -2.07662,1.49043 -0.0559,0.042 -0.11177,0.084 -0.1676,0.12596 0.004,0.054 0.009,0.10793 0.013,0.1619 0.0905,1.08856 0.17743,2.10742 0.27377,3.30112 -0.90639,0.4658 -1.75128,0.91167 -2.56281,1.34563 -0.0129,0.007 -0.0258,0.014 -0.0386,0.021 -0.003,0.01 -0.006,0.02 -0.008,0.03 -0.24652,0.89417 -0.46659,1.67033 -0.62994,2.15393 0.16212,-0.47998 0.4534,-1.21229 0.81021,-2.06134 0.88705,-0.37955 1.83347,-0.76746 2.82623,-1.16111 0.0443,-0.0175 0.0886,-0.035 0.13287,-0.0525 8e-4,-0.0496 0.002,-0.0992 0.002,-0.14873 0.0201,-1.1132 0.0384,-2.2141 0.0493,-3.23679 0.69341,-0.42393 1.22016,-0.74743 1.73383,-1.06675 0.31545,0.59415 0.62676,1.18921 0.93421,1.78505 -0.07,1.90859 -0.14445,3.81687 -0.22318,5.72478 -0.40941,0.9715 -0.81367,1.94438 -1.21242,2.91859 -0.22309,2.63309 -0.44874,5.26594 -0.67692,7.89855 -0.62404,0.63367 -1.23929,1.27086 -1.84478,1.9117 -0.58882,-0.30258 -1.17848,-0.60157 -1.76932,-0.89652 -0.29124,-0.44419 -0.66472,-0.99174 -1.12218,-1.63246 -0.0432,-0.0605 -0.0865,-0.12098 -0.12978,-0.18142 -0.0655,-5.3e-4 -0.13095,-8e-4 -0.19638,-0.001 -0.77646,-0.005 -1.61461,0.002 -2.48936,0.0209 -0.50087,-0.2692 -1.00305,-0.53371 -1.5064,-0.79474 -0.017,-0.009 -0.0341,-0.0174 -0.0511,-0.0261 -0.0117,7.9e-4 -0.0234,0.001 -0.0351,0.002 -0.64066,0.0175 -1.221091,0.038 -1.778762,0.0586 -0.520009,-0.1481 -0.96671,-0.27846 -1.261589,-0.38103 0.300009,0.10439 0.73028,0.28301 1.230929,0.50654 0.0021,0.001 0.004,0.002 0.007,0.003 0.005,8e-5 0.01,1.6e-4 0.015,2.4e-4 0.532741,0.0374 1.110022,0.0862 1.719902,0.14512 0.48218,0.33232 0.96065,0.66849 1.43641,1.00733 0.0178,0.0129 0.0356,0.0259 0.0534,0.0389 0.0322,0.003 0.0644,0.005 0.0965,0.008 0.80941,0.0531 1.57826,0.11126 2.30787,0.16945 0.33353,0.55656 0.59618,0.99097 0.84517,1.39669 -0.26347,0.20639 -0.5252,0.41358 -0.78512,0.62157 -3.35723,-0.17116 -6.629342,-0.20111 -9.7990233,-0.0237 z m 73.4562173,7.90663 c -3.00175,-0.12424 -5.95185,-0.35771 -8.84998,-0.67731 -1.91223,0.0244 -3.81141,0.0115 -5.69486,-0.0325 -0.999,-0.79305 -1.97877,-1.59511 -2.94156,-2.40453 7e-5,-7.9e-4 0.15186,-1.97454 0.15194,-1.97542 l 7.9e-4,-0.007 c 0.0883,-1.70075 0.17955,-3.40124 0.2736,-5.10146 0.4464,-0.17124 0.8919,-0.34408 1.33634,-0.51859 0.63611,0.36484 1.47518,0.82369 2.4838,1.34557 -0.18004,0.87076 -0.4452,2.16817 -0.62525,3.03893 -0.01,0.0459 -0.02,0.0917 -0.03,0.13757 -5e-5,-3e-5 0.10738,0.0758 0.10733,0.0758 0.63465,0.4526 1.22813,0.86796 1.81542,1.27742 0.11129,0.67671 0.19917,1.26239 0.22804,1.63773 -0.0294,-0.38377 -0.0303,-0.98641 -0.0179,-1.68438 l 0.002,-0.0294 c -0.0116,-0.0108 -0.0232,-0.0216 -0.0347,-0.0324 -0.48251,-0.43204 -0.9871,-0.89673 -1.50301,-1.38053 0.33729,-1.08674 0.65882,-2.14087 0.95217,-3.13069 -2e-5,5e-5 0.0686,-0.22916 0.0685,-0.22911 -0.0868,-0.0525 -0.1734,-0.10503 -0.25997,-0.15765 -1.06586,-0.64907 -1.94593,-1.19375 -2.62679,-1.6046 -0.0223,-3.12663 -0.0254,-6.25241 -0.0107,-9.37702 0.2306,-2.22913 0.46215,-4.45816 0.69466,-6.68707 1.19348,-0.70917 2.36518,-1.43046 3.51039,-2.16512 2.25595,0.19281 4.47798,0.33221 6.66205,0.39904 2.25776,0.44868 4.49956,0.81914 6.73036,1.0881 0.2681,0.37218 0.641,0.84877 1.0674,1.37001 0.0362,0.0443 0.0725,0.0886 0.10877,0.1328 0.0412,7.9e-4 0.0824,10e-4 0.12354,0.002 0.79981,0.0162 1.60824,0.0156 2.42019,0.002 0.14269,-0.003 0.28381,-0.006 0.42358,-0.009 0.51953,0.46585 0.99813,0.89317 1.24986,1.15732 -0.26611,-0.27929 -0.6691,-0.79071 -1.10802,-1.38217 -0.009,-0.0118 -0.0173,-0.0236 -0.026,-0.0354 -0.021,-0.002 -0.0421,-0.004 -0.0631,-0.007 -0.16612,-0.017 -0.33424,-0.035 -0.50418,-0.0537 0,0 0,0 0,0 -0.72979,-0.0828 -1.45292,-0.17884 -2.1717,-0.28248 -0.31047,-0.5411 -0.5688,-0.98399 -0.79197,-1.35088 0.10968,-0.21068 0.21829,-0.42162 0.32582,-0.63285 0.81999,0.0199 1.63585,0.0251 2.4476,0.0144 0.59883,-0.0109 1.19668,-0.0279 1.7931,-0.0513 1.73396,-0.34569 3.43274,-0.74646 5.08072,-1.20777 0.49554,0.81819 1.00485,1.63083 1.52821,2.43723 -0.0352,1.63191 -0.10271,3.26786 -0.20173,4.90651 -0.33915,0.48736 -0.81828,1.1858 -1.36263,1.95461 -0.038,0.0538 -0.0761,0.10764 -0.11436,0.16142 0.0166,0.0514 0.0332,0.10285 0.0499,0.15427 0.32884,0.99476 0.68867,2.04346 1.07203,3.1325 -0.71652,0.67667 -1.42681,1.31632 -2.11705,1.90902 -0.011,0.01 -0.0219,0.0192 -0.0329,0.0288 -5.3e-4,0.0104 -0.001,0.0208 -0.002,0.0312 -0.05,0.9312 -0.10924,1.73042 -0.17665,2.24234 0.0656,-0.49842 0.20923,-1.28887 0.3718,-2.19029 0.78362,-0.56446 1.58922,-1.1633 2.41192,-1.8068 0.0366,-0.0286 0.0731,-0.0572 0.10964,-0.0858 -0.0126,-0.048 -0.0252,-0.096 -0.0378,-0.14403 -0.28532,-1.0971 -0.5492,-2.12791 -0.80882,-3.13763 0.47379,-0.56091 0.86483,-1.05463 1.1864,-1.47832 0.43341,0.48358 0.87436,0.96304 1.32295,1.43803 0.52944,1.83564 1.06932,3.66842 1.61975,5.49818 -0.077,1.05403 -0.16735,2.10927 -0.27079,3.16537 0.60495,2.57455 1.2159,5.14764 1.832882,7.71925 -0.537582,0.82954 -1.093102,1.65367 -1.665642,2.4715 -0.84058,-0.0899 -1.67448,-0.19351 -2.50152,-0.31015 -0.87424,-0.62452 -0.93518,-0.66452 -1.80943,-1.28905 -0.0675,-0.0484 -0.13491,-0.0969 -0.20218,-0.14545 -0.0812,0.0155 -0.16242,0.0309 -0.24365,0.0461 -0.96966,0.18098 -2.00443,0.35991 -3.10979,0.52828 -0.52347,-0.14069 -1.04498,-0.28625 -1.56467,-0.43735 -0.14645,-0.0424 -0.2919,-0.0848 -0.43634,-0.12742 -0.0222,-0.006 -0.0445,-0.0129 -0.0667,-0.0193 -0.0145,0.002 -0.0289,0.004 -0.0434,0.007 -0.78442,0.0977 -1.52896,0.18033 -2.21519,0.24665 -0.66489,-0.10446 -1.22411,-0.20697 -1.59835,-0.29477 0.37538,0.0881 0.92678,0.24208 1.56914,0.4225 0.003,0.001 0.006,0.002 0.009,0.003 0.006,-2.6e-4 0.0125,-7.9e-4 0.0188,-0.001 0.6766,-0.007 1.39563,-0.018 2.17146,-0.0368 0.20836,0.0872 0.4186,0.17436 0.63085,0.26143 0.44051,0.18122 0.88171,0.35817 1.32337,0.53016 0.0247,0.01 0.0494,0.0197 0.0742,0.0296 0.0415,-0.003 0.0829,-0.005 0.12444,-0.008 1.03904,-0.0845 2.02854,-0.18605 2.95933,-0.29999 0.52826,0.45555 0.99327,0.83517 1.39809,1.15343 -0.28913,0.27089 -0.58062,0.54013 -0.87438,0.80766 -1.59304,0.23729 -3.18423,0.42657 -4.76993,0.56965 -2.81372,0.26522 -5.60067,0.42124 -8.35671,0.48528 z M 172.49027,79.905602 c -1.44711,1.744279 -2.8586,3.60018 -4.25632,5.544871 -0.71819,1.399169 -1.42605,2.830369 -2.13187,4.290028 -1.06377,0.435271 -2.1325,0.887582 -3.20544,1.353201 -0.58109,-0.31418 -1.16228,-0.62823 -1.74355,-0.94216 l -0.006,-0.003 c -1.51683,-0.774409 -3.03461,-1.547411 -4.55327,-2.3191 0.0118,-0.4621 0.0244,-0.923999 0.0379,-1.385779 0.6012,-0.42223 1.29947,-0.92652 2.19425,-1.571381 0.78497,0.590719 1.62921,1.21898 2.48414,1.853631 0.0376,0.028 0.0751,0.0559 0.1127,0.0839 0.0363,-0.01849 0.0726,-0.037 0.10894,-0.0554 0.63897,-0.32045 1.25641,-0.62452 1.83826,-0.901578 0.64469,0.220639 1.19514,0.42096 1.53918,0.572 -0.35046,-0.15394 -0.8853,-0.43103 -1.49892,-0.760841 l -0.0251,-0.0154 c -0.0142,0.004 -0.0284,0.009 -0.0426,0.01331 -0.58502,0.191188 -1.16664,0.380949 -1.81273,0.596058 -0.63318,-0.569521 -1.78946,-1.61458 -2.42264,-2.184101 -0.059,-0.0532 -0.11806,-0.106378 -0.17707,-0.159588 -0.0823,0.0498 -0.16459,0.0997 -0.24689,0.149698 -1.00998,0.613921 -1.86505,1.15833 -2.50097,1.58147 -2.84828,-1.286269 -5.70307,-2.562349 -8.56325,-3.82987 -1.94565,-1.114258 -3.89161,-2.228059 -5.8379,-3.34141 -0.0995,-1.482349 -0.18232,-2.976178 -0.24265,-4.484629 1.37048,-2.27883 2.80666,-4.574961 4.33042,-6.872959 1.89991,-2.179971 3.88167,-4.344361 5.96199,-6.465221 0.49781,-0.0334 1.19088,-0.10151 1.92741,-0.172371 0.0634,-0.006 0.12684,-0.01209 0.19024,-0.0181 0.0354,-0.0401 0.0708,-0.0801 0.10621,-0.120169 0.82249,-0.922451 1.66129,-1.842349 2.52566,-2.751151 0.23817,-0.0437 0.46738,-0.084 0.68427,-0.119941 0,0 0,0 0,0 0.52355,-0.0847 0.96722,-0.141978 1.26146,-0.158059 -0.33431,0.0182 -0.85513,0.008 -1.45303,-0.009 -0.16417,-0.004 -0.33638,-0.009 -0.51075,-0.0145 -0.0161,-5.29e-4 -0.0322,-0.0011 -0.0483,-0.0021 -0.0213,0.01841 -0.0426,0.0368 -0.064,0.0552 -0.89537,0.776661 -1.78062,1.563071 -2.6536,2.367042 -0.65997,-0.0599 -1.2224,-0.0945 -1.68483,-0.108471 -0.0611,-0.25391 -0.1214,-0.508519 -0.18072,-0.76382 0.99518,-1.122839 2.01867,-2.23769 3.07303,-3.341709 0.33417,-0.340741 0.67064,-0.678611 1.00938,-1.0136 1.59921,-1.971371 3.27833,-3.877792 5.03193,-5.715021 0.96665,0.32028 1.92565,0.652862 2.87683,0.997471 0.67842,1.526691 1.38,3.038319 2.10446,4.534249 -0.0957,0.678331 -0.19402,1.555761 -0.27392,2.59162 -0.005,0.0708 -0.0106,0.141571 -0.0158,0.21231 0,0 0.13233,0.094 0.13233,0.094 0.86856,0.613709 1.74896,1.236779 2.69689,1.918981 -0.23986,0.993579 -0.44632,1.936668 -0.63053,2.83496 -0.003,0.01439 -0.006,0.0287 -0.008,0.0431 0.006,0.009 0.0118,0.01709 0.0177,0.02561 0.52956,0.758709 0.9898,1.423591 1.25898,1.854769 -0.26827,-0.429749 -0.64785,-1.117478 -1.0726,-1.934487 0.27529,-0.924481 0.59053,-1.900103 0.94419,-2.91465 0.016,-0.0454 0.032,-0.0908 0.048,-0.136163 -0.037,-0.0328 -0.0741,-0.0657 -0.11117,-0.0985 -0.83198,-0.739651 -1.65366,-1.465829 -2.42524,-2.13745 0.13068,-0.74459 0.26919,-1.50545 0.36734,-2.044059 0.66465,0.143028 1.32553,0.29319 1.98254,0.450349 1.38299,1.313051 2.75925,2.632721 4.12874,3.958929 0.45412,0.948822 0.91784,1.891231 1.39111,2.827031 1.82545,1.904621 3.64695,3.81295 5.46454,5.72498 0.0973,0.85358 0.21018,1.700659 0.33848,2.540712 -0.56936,0.207877 -1.13792,0.425008 -1.7054,0.651478 -0.50572,-0.0817 -1.14239,-0.169619 -1.9003,-0.250029 -0.0717,-0.008 -0.14337,-0.01511 -0.21513,-0.02241 -0.0387,0.0471 -0.0774,0.0942 -0.116,0.14133 -0.4596,0.560059 -0.94215,1.173408 -1.43614,1.831308 -0.10571,0.0423 -0.21181,0.0851 -0.31828,0.128431 -0.40202,0.159499 -0.80139,0.324229 -1.1986,0.493139 -0.017,0.007 -0.0341,0.01471 -0.0511,0.02209 -0.006,0.009 -0.013,0.01839 -0.0194,0.0276 -0.36823,0.488458 -0.70629,0.949129 -1.02423,1.385829 -0.43058,0.30761 -0.80401,0.573709 -1.06434,0.74027 0.2645,-0.169191 0.66676,-0.393409 1.14449,-0.639511 0.002,-0.0011 0.004,-0.0021 0.007,-0.003 0.003,-0.004 0.006,-0.008 0.01,-0.0117 0.35071,-0.38504 0.73671,-0.794051 1.14822,-1.21471 0.50127,-0.14188 1.0033,-0.275362 1.50523,-0.401082 0,0 0,0 0,0 0.0461,-0.01191 0.092,-0.02371 0.13787,-0.0354 0.0205,-0.005 0.041,-0.01021 0.0615,-0.01529 0.0207,-0.02199 0.0414,-0.0439 0.0621,-0.0659 0.5095,-0.561451 1.00026,-1.083749 1.4697,-1.57299 0.34449,0.0634 1.21606,0.22642 1.56052,0.289851 0.005,0.31986 0.013,0.63881 0.0236,0.956818 -0.56251,0.62352 -1.11139,1.257451 -1.64598,1.901391 -1.46874,1.697921 -2.86039,3.524099 -4.20433,5.45901 z m 71.86909,-25.64639 c -0.44563,-0.934191 -0.91646,-1.864921 -1.41234,-2.791061 0.43794,-1.131779 0.88341,-2.26119 1.33641,-3.388159 0.57626,-0.298 1.40753,-0.73606 2.33876,-1.208181 0.0638,-0.0324 0.1276,-0.0647 0.19153,-0.097 0.005,-0.0579 0.0103,-0.11588 0.0153,-0.17382 0.0604,-0.695379 0.11647,-1.43669 0.16968,-2.20425 0.60389,-0.25732 1.19293,-0.49777 1.75453,-0.71533 0.0161,-0.006 0.0323,-0.0128 0.0485,-0.0191 l 0.0106,-0.0353 c 0.21709,-0.81278 0.41233,-1.51393 0.56179,-1.95166 -0.14676,0.42875 -0.41357,1.08681 -0.72951,1.84466 -0.63449,0.15792 -1.28653,0.32451 -1.97183,0.51043 -0.0401,0.0108 -0.0801,0.0217 -0.12017,0.0326 -0.009,0.0481 -0.0185,0.0962 -0.0279,0.14424 -0.2119,1.07797 -0.19687,0.99505 -0.4088,2.07302 -0.8527,0.35091 -1.56031,0.67156 -2.11823,0.93981 -0.16955,-0.23004 -0.34087,-0.45953 -0.51396,-0.68844 1.02773,-3.26895 2.08757,-6.52912 3.1794,-9.78001 0.007,-0.0215 0.0143,-0.0431 0.0214,-0.0646 0.11869,-2.55075 0.19396,-5.10772 0.22558,-7.66974 1.09974,-1.10561 2.23121,-2.19274 3.39379,-3.26005 0.88278,0.6068 1.75053,1.22597 2.60305,1.85686 3.39788,0.6136 6.78127,1.41563 10.13145,2.40755 0.54078,0.43435 1.07526,0.87356 1.60342,1.31748 -0.60623,0.2481 -1.31452,0.55405 -2.12473,0.93112 -0.94951,-0.35441 -1.95011,-0.70548 -2.9912,-1.05039 -0.0238,-0.008 -0.0475,-0.0156 -0.0712,-0.0234 -0.0138,-1e-4 -0.0274,-1.9e-4 -0.0411,-2.91e-4 -1.11755,-0.0103 -2.1748,0.002 -3.18141,0.0238 -0.62455,-0.15878 -1.16882,-0.2989 -1.50595,-0.40739 0.3466,0.11155 0.87336,0.32085 1.48008,0.58324 0.005,0.002 0.01,0.003 0.0145,0.005 0.0101,7.14e-4 0.0201,0.001 0.0301,0.002 0.99558,0.0599 2.05203,0.14498 3.15436,0.25524 1.08289,0.46173 2.10257,0.92083 3.07195,1.37103 0.0643,0.0297 0.12843,0.0596 0.19262,0.0895 0.0698,-0.0252 0.13964,-0.0502 0.20957,-0.0752 1.11699,-0.39965 2.05835,-0.72196 2.77479,-0.9756 3.61874,1.19532 7.19164,2.61827 10.69383,4.2709 1.84414,1.78644 3.60185,3.63549 5.26825,5.54036 -0.28475,1.60968 -0.60206,3.20622 -0.95179,4.78853 -1.80927,1.89161 -3.59759,3.800702 -5.3648,5.7269 -1.70121,2.7642 -3.43122,5.509281 -5.18993,8.23472 -0.28371,-0.036 -0.56706,-0.0699 -0.84997,-0.101889 -0.10224,-0.558591 -0.24847,-1.256882 -0.45175,-2.08045 0.34604,-0.69391 0.7044,-1.429639 1.06936,-2.19107 0.0193,-0.0407 0.0388,-0.0814 0.0582,-0.122071 -0.0206,-0.0326 -0.0413,-0.0651 -0.0621,-0.0977 -0.45259,-0.705948 -0.89707,-1.37047 -1.3322,-2.007518 -0.11758,-0.910791 -0.23476,-1.741951 -0.28514,-2.241661 0.0528,0.523488 0.0893,1.32847 0.10078,2.26873 -1.6e-4,0.006 0,0.01199 0,0.01799 0.005,0.008 0.009,0.01669 0.0135,0.025 0.34158,0.634619 0.68728,1.310389 1.03106,2.014688 -0.4476,0.719222 -0.90334,1.449171 -1.30749,2.102422 -0.0201,0.0322 -0.04,0.0644 -0.06,0.0966 0.008,0.0497 0.0156,0.0993 0.0236,0.148971 0.13205,0.847709 0.25034,1.6701 0.33192,2.217849 -1.31596,0.6615 -2.60652,1.35383 -3.87089,2.075529 -2.6245,-1.557779 -5.36093,-2.925249 -8.1744,-4.098369 -0.80709,-0.769009 -1.64071,-1.522781 -2.49973,-2.259809 0.22479,-0.12922 0.45659,-0.2637 0.71974,-0.41737 0.95724,0.362969 1.90556,0.742051 2.83917,1.144889 0.0143,0.006 0.0287,0.01191 0.043,0.01781 0.009,-0.0021 0.0188,-0.004 0.0283,-0.006 0.75631,-0.16424 1.42777,-0.28597 1.83285,-0.322041 -0.38341,0.0342 -1.06945,0.0433 -1.80811,0.0588 -0.92914,-0.530651 -1.86992,-1.045011 -2.82562,-1.533252 -0.0328,-0.01651 -0.0657,-0.033 -0.0986,-0.0495 -0.0513,0.01749 -0.1026,0.0351 -0.15383,0.0528 -0.50982,0.17626 -0.96379,0.345369 -1.31172,0.492239 -2.90322,-0.719789 -5.83046,-1.243809 -8.74982,-1.575359 z"
       style="fill:#0c1f0b;fill-opacity:0.14902;stroke:#348233;stroke-width:0.132292;stroke-linecap:butt;stroke-linejoin:miter;stroke-miterlimit:4;stroke-dasharray:none;stroke-opacity:0.2" />
  </g>
</svg>
