<?xml version="1.0" encoding="UTF-8" standalone="no"?>
<svg
   xmlns:dc="http://purl.org/dc/elements/1.1/"
   xmlns:cc="http://creativecommons.org/ns#"
   xmlns:rdf="http://www.w3.org/1999/02/22-rdf-syntax-ns#"
   xmlns:svg="http://www.w3.org/2000/svg"
   xmlns="http://www.w3.org/2000/svg"
   xmlns:sodipodi="http://sodipodi.sourceforge.net/DTD/sodipodi-0.dtd"
   xmlns:inkscape="http://www.inkscape.org/namespaces/inkscape"
   sodipodi:docname="01_selected_menu.svg"
   inkscape:version="1.0 (4035a4fb49, 2020-05-01)"
   id="svg13114"
   version="1.1"
   viewBox="0 0 85.338432 10.799822"
   height="10.799822mm"
   width="85.338432mm">
  <defs
     id="defs13108" />
  <sodipodi:namedview
     inkscape:window-maximized="1"
     inkscape:window-y="-8"
     inkscape:window-x="-8"
     inkscape:window-height="705"
     inkscape:window-width="1366"
     fit-margin-bottom="0"
     fit-margin-right="0"
     fit-margin-left="0"
     fit-margin-top="0"
     showgrid="false"
     inkscape:document-rotation="0"
     inkscape:current-layer="layer1"
     inkscape:document-units="mm"
     inkscape:cy="59.616261"
     inkscape:cx="187.05771"
     inkscape:zoom="1.8982902"
     inkscape:pageshadow="2"
     inkscape:pageopacity="0.0"
     borderopacity="1.0"
     bordercolor="#666666"
     pagecolor="#ffffff"
     id="base" />
  <metadata
     id="metadata13111">
    <rdf:RDF>
      <cc:Work
         rdf:about="">
        <dc:format>image/svg+xml</dc:format>
        <dc:type
           rdf:resource="http://purl.org/dc/dcmitype/StillImage" />
        <dc:title></dc:title>
      </cc:Work>
    </rdf:RDF>
  </metadata>
  <g
     transform="translate(-27.502945,-91.579594)"
     id="layer1"
     inkscape:groupmode="layer"
     inkscape:label="Layer 1">
    <path
       inkscape:export-ydpi="96"
       inkscape:export-xdpi="96"
       inkscape:export-filename="D:\Calcatz\Icon Pack\Adventure Narrative Inspired by Jumanji\Assets\PNG\Highlighter\01_selected_menu.png"
       id="path13094"
       style="fill:#cbbfba;fill-opacity:0.4;stroke-width:0.396875;stroke-linecap:round;stroke-opacity:0.326613;paint-order:fill markers stroke"
       d="m 40.555449,91.581514 c -2.05523,0.0201 -4.09538,0.19652 -6.10619,0.66765 0.0714,0.037 0.0982,0.0879 0.16111,0.12734 -3.00679,0.27105 -0.10444,-0.0671 1.00523,0.31645 0.32864,0.1135 -1.04363,0.0149 -1.34815,0.1352 -0.16654,0.0662 0.39177,0.11767 0.6281,0.15142 0.38229,0.0545 0.84118,0.0389 1.20056,0.10897 0.12403,0.0238 0.0605,0.0946 0.0905,0.1419 -0.62971,0.0207 -1.40011,-0.0739 -1.88925,0.0628 -0.3092,0.0862 1.48087,0.1064 1.1086,0.15626 -0.63341,0.0845 -1.35923,-0.0427 -2.03895,-0.0317 -0.33467,0.006 -0.65251,0.0513 -0.97814,0.0782 -0.39555,0.0326 -0.9909,-0.0205 -1.18559,0.10027 -0.15077,0.0943 0.43632,0.15441 0.65447,0.23155 -3.56658,0.19993 -1.54311,0.0209 1.40159,0.27209 1.31906,0.11313 -2.10562,-0.10627 -2.60788,0.0598 -0.16842,0.0556 0.23602,0.13728 0.37429,0.20164 0.15362,0.0718 0.33269,0.13631 0.49906,0.20455 -1.90081,0.40973 0.12788,-0.13422 -0.14902,0.3541 -0.0553,0.0976 -0.45821,0.13436 -0.74143,0.15925 -0.26253,0.0238 -1.07304,-0.0464 -0.80987,-0.0241 4.25562,0.35523 4.10453,-0.18166 4.08647,0.47086 0.69363,0.5695 -0.28867,-0.40299 -1.17846,0.24602 -0.16935,0.12361 1.02438,0.0828 1.0152,0.21903 -0.009,0.12292 -0.6787,0.0923 -1.03731,0.10897 -0.78991,0.0373 -1.63706,-0.0385 -2.38758,0.053 -0.20958,0.0268 0.20253,0.13424 0.3037,0.20166 0.28657,0.0693 0.58518,0.13383 0.85979,0.2084 0.19678,0.0535 0.3199,0.14227 0.5511,0.17663 0.58753,0.0871 2.40416,0.0708 1.84861,0.17941 -0.941,0.18393 -3.9976,-0.17251 -3.24523,0.0935 1.03592,0.36628 9.32104,-0.0264 0.16825,0.30008 0.30651,0.44134 2.58799,0.0186 2.90658,0.35121 0.23059,0.24051 -1.44559,0.12084 -2.16728,0.1824 -0.69065,0.059 -2.72821,0.0873 -2.06963,0.17943 3.60063,0.50352 5.97147,-0.21143 3.90826,0.33867 -0.58929,0.0601 -2.00783,-0.011 -1.76805,0.18035 0.30163,0.24231 1.53484,0.0976 2.24428,0.20261 0.23907,0.0355 0.37031,0.1279 0.50047,0.20456 0.10701,0.0631 0.39699,0.18017 0.1982,0.20744 -0.9943,0.13644 -2.12088,0.1135 -3.16325,0.19874 -0.57353,0.047 -1.11451,0.13203 -1.6718,0.19779 0.19402,0.0714 0.80775,0.1546 0.58175,0.2142 -0.0644,0.0186 -0.12651,0.0271 -0.19036,0.0424 0.932,0.0703 2.12829,0.191176 3.68939,0.398476 -0.86835,0.0666 -1.73667,0.13411 -2.60503,0.20069 -0.0421,0.0312 -0.21205,0.0755 -0.12623,0.0935 0.45685,0.0939 1.00099,0.12596 1.50142,0.18911 -2.61387,0.12109 -2.50395,0.0189 0.14401,0.32803 -0.25034,0.7734 73.209241,0.11962 73.209241,0.11962 0,0 1.25323,-0.0825 6.91038,-0.0878 -1.30689,-0.12084 -2.66348,-0.19193 -3.92109,-0.36278 -0.35679,-0.0484 -0.88917,-0.15142 -0.80631,-0.27883 0.0909,-0.13984 0.7512,-0.1305 1.11857,-0.20068 0.35969,-0.0687 1.08685,-0.077 1.06155,-0.217086 -0.0988,-0.54669 -3.15141,0.104306 0.16967,-0.43901 0.39853,-0.0656 1.52599,-0.0977 1.19558,-0.19778 -0.24911,-0.0758 -3.80887,-0.23155 -4.29609,-0.40619 -0.20249,-0.0726 0.55951,-0.10982 0.64591,-0.20551 0.13714,-0.15161 -0.14252,-0.19812 -0.45484,-0.20937 0.43737,-0.0268 1.08151,-0.0744 2.2065,-0.17457 -0.60612,-0.12279 -0.94738,-0.16879 -1.41872,-0.33867 -0.14836,-0.0535 -0.58574,-0.15049 -0.38569,-0.17849 0.92068,-0.12844 2.11065,0.01 2.9401,-0.17941 0.61023,-0.13783 -2.14197,-0.0915 -1.97195,-0.32902 -0.54322,-0.047 -1.1828,-0.0273 -1.62975,-0.1419 -0.19888,-0.0512 0.44387,-0.0809 0.68584,-0.10137 0.47902,-0.0405 1.10827,0.0371 1.46221,-0.0802 0.22334,-0.0741 -0.994,-0.0195 -0.8712,-0.1157 0.31662,-0.25087 2.39646,0.13093 0.21174,-0.19875 -6.73511,-0.62288 0.0161,0.0699 1.20128,-0.17943 0.8394,-0.17663 -3.69653,-0.17532 -2.80607,-0.32032 0.8264,-0.13438 1.51465,-0.22071 2.09528,-0.27403 -0.0203,-0.01 -0.0403,-0.0191 -0.0606,-0.0271 -0.27365,-0.13148 0.93305,-0.0562 1.39947,-0.084 -2.47997,-0.32015 -2.14914,-0.14882 -0.31796,-0.34446 0.62417,-0.0666 2.43929,-0.1419 1.84077,-0.23155 -1.42079,-0.21329 -3.10278,-0.0857 -4.62759,-0.18615 -0.12113,-0.01 0.13753,-0.0699 0.20603,-0.10517 1.52056,0.0369 3.04073,0.0736 4.5613,0.10995 -8.73416,-0.61151 -0.88558,-0.0269 -0.45129,-0.12458 0.6797,-0.1544 -1.68636,-0.0907 -2.32627,-0.26338 -0.29232,-0.0787 1.21638,0.053 1.10289,-0.0676 -0.17072,-0.18184 -1.97643,-0.23569 -1.44296,-0.29523 1.04927,-0.11729 2.20244,0.0587 3.3037,0.0878 -8.64543,-0.69444 -2.11962,-0.10823 -1.31606,-0.22286 0.4164,-0.0596 -0.79439,-0.14525 -1.19558,-0.21613 -0.56895,-0.10003 -1.5697,-0.083 -1.71458,-0.29524 -0.13244,-0.19401 1.7669,0.0559 1.5834,-0.25857 -0.12788,-0.0476 -0.24767,-0.0986 -0.37927,-0.1447 0.81048,0.14582 1.79793,0.19535 1.82865,-0.3647 0.007,-0.1283 -0.58679,-0.17232 -1.26758,-0.1824 0.36783,-0.0149 0.64588,-0.0235 1.14638,-0.0471 0.22645,-0.01 0.42819,-0.0538 0.64235,-0.0809 -0.5203,-0.0506 -1.64897,0.0301 -1.56131,-0.15143 0.0895,-0.1852 1.12655,0.0186 1.65328,-0.0405 0.12596,-0.0149 -0.0719,-0.10138 -0.19606,-0.11668 -0.0839,-0.01 -0.17626,-0.0149 -0.26307,-0.0212 -4.52592,-5.19e-4 -66.34503,-0.713779 -70.86657,-0.669599 z m 70.032451,4.27518 c -0.34907,-5.03e-4 -0.78362,0.0189 -1.31392,0.0676 2.03524,0.94117 3.75738,-0.0631 1.31392,-0.0676 z m -81.833491,3.88343 c -2.54015,-0.0578 -0.76633,0.568076 1.36382,0.0713 -0.55051,-0.0414 -1.00095,-0.0631 -1.36382,-0.0713 z m 3.85336,1.744406 c 0.01,10e-4 0.0153,10e-4 0.0263,0.004 -0.009,1.3e-4 -0.01,-1.7e-4 -0.0178,9.8e-4 0.009,2.3e-4 0.0252,-2.2e-4 0.0335,0 0.20836,0.026 0.50003,0.0559 0.55893,0.0888 0.0426,0.0242 -0.44063,-0.01 -0.42133,0.0149 0.0333,0.0425 0.30212,0.0873 0.54825,0.12158 -0.009,0.001 -0.0174,0.001 -0.0242,0.004 -0.337371,-0.0338 -0.87746,-0.0862 -1.84791,-0.17457 -1.63255,0.41286 5.12509,0.81394 10.27966,0.83074 v 0.004 c 2.34299,0.007 61.578661,-0.0661 62.320741,-0.25374 0.63801,0.006 4.63505,0.45664 2.60004,0.11092 -0.60314,-0.10235 -1.66629,-0.14768 -1.9249,-0.28654 -0.17464,-0.0937 1.05689,0.0768 1.59553,0.10994 0.3963,0.0244 0.80527,0.0424 1.20769,0.0637 -1.2135,-0.17121 -1.82465,-0.24973 -2.12594,-0.28559 0.43609,0.0395 1.20222,0.0717 0.35646,-0.26438 -0.14861,-0.0587 -1.11867,-0.0149 -1.02803,-0.0771 0.005,-0.004 0.0153,-0.007 0.025,-0.011 -4.74358,0.31764 -66.906262,0.37181 -72.161953,0 z"
       sodipodi:nodetypes="sccscccccccccccsccscccssccccccscsscccsscccccccccccccsscccscccsccccccccsccccscccccccccccsccccccscccssssscsccccccccccccssscccscccc" />
    <path
       inkscape:export-ydpi="96"
       inkscape:export-xdpi="96"
       inkscape:export-filename="D:\Calcatz\Icon Pack\Adventure Narrative Inspired by Jumanji\Assets\PNG\Highlighter\01_selected_menu.png"
       id="path13096"
       style="fill:#e5d8d2;fill-opacity:0.8;stroke-width:0.396875;stroke-linecap:round;stroke-opacity:0.326613;paint-order:fill markers stroke"
       d="m 105.18151,92.189694 -64.626111,0.0684 c -0.072,0.0124 -0.14278,0.0251 -0.18749,0.0449 -0.2484,0.1048 0.58529,0.18366 0.93821,0.23598 0.57089,0.0845 1.25623,0.0589 1.793,0.16825 0.18521,0.0383 0.0904,0.14848 0.13548,0.22314 -0.94001,0.0367 -2.09062,-0.11203 -2.82034,0.10407 -0.46129,0.13671 2.21167,0.1622 1.65612,0.24167 -0.94526,0.13465 -2.02952,-0.0619 -3.04418,-0.0435 -0.49958,0.0124 -0.97412,0.0836 -1.46008,0.1276 -0.59043,0.0514 -1.47928,-0.0312 -1.76949,0.16113 -0.2247,0.14849 0.65222,0.24101 0.97814,0.36217 -5.32359,0.32664 -2.30367,0.0349 2.09314,0.42205 1.96952,0.1736 -3.14408,-0.15924 -3.89327,0.10334 -0.25124,0.0879 0.35303,0.21585 0.55965,0.31653 0.22959,0.11203 0.49713,0.21348 0.74572,0.32011 -2.83613,0.65072 0.19068,-0.21217 -0.22101,0.55681 -0.0823,0.15363 -0.68374,0.21297 -1.10645,0.25236 -0.39189,0.0348 -1.60205,-0.0687 -1.20913,-0.0365 6.35421,0.54432 6.12657,-0.29958 6.10192,0.72648 1.03748,0.89326 -0.43205,-0.63347 -1.75806,0.38997 -0.25238,0.19504 1.52957,0.12693 1.51637,0.34149 -0.0124,0.1936 -1.0126,0.14818 -1.54775,0.17681 -1.17907,0.0613 -2.44454,-0.0562 -3.56462,0.0905 -0.31284,0.0392 0.30288,0.21198 0.45413,0.317959 0.42805,0.10823 0.87449,0.20774 1.28469,0.32438 0.29398,0.0839 0.47746,0.22195 0.82271,0.275181 0.87741,0.134929 3.58942,0.1037 2.76045,0.27661 -1.40408,0.29288 -5.96842,-0.258561 -4.84433,0.157559 1.23414,0.456541 8.75802,0.16329 5.06891,0.29088 l 2.70055,-0.002 c -0.0377,0.0171 -0.0787,0.0332 -0.114719,0.0507 -0.20662,0.100641 -0.810881,0.22937 -0.559641,0.317241 0.74919,0.262619 5.86279,-0.0709 3.89327,0.102599 -4.39682,0.387097 -7.41745,0.0961 -2.09385,0.422757 -0.32594,0.12109 -1.20213,0.21369 -0.97741,0.36218 0.29019,0.19237 1.17904,0.1097 1.76947,0.16112 0.48596,0.044 0.96049,0.11448 1.46007,0.12692 1.01465,0.0185 2.09822,-0.17813 3.043471,-0.0435 0.555549,0.0795 -2.116691,0.10492 -1.655411,0.24167 0.72971,0.21606 1.88032,0.0673 2.82033,0.10407 -0.0452,0.0747 0.0498,0.18479 -0.13547,0.22315 -0.53677,0.10934 -1.22211,0.0839 -1.793009,0.16825 -0.35292,0.0523 -1.186601,0.13107 -0.938211,0.23598 0.0447,0.0198 0.11546,0.0326 0.1875,0.0449 l 47.715531,0.0684 c 0.12845,-0.0388 0.220231,-0.0829 0.218159,-0.14188 -0.0439,-0.88118 -1.51793,-0.80665 -2.72837,-0.58031 0.196641,-0.0731 0.375661,-0.15265 0.56678,-0.22742 0.275032,-0.49427 -2.561759,-0.10664 -2.36334,-0.41136 0.217061,-0.33338 1.7111,-0.30292 2.56082,-0.458406 0.59913,-0.109211 2.40729,-0.241721 1.785882,-0.336511 -1.19915,-0.18334 -10.943072,0.718007 1.965528,-0.34505 -1.644078,0.0422 -3.36677,0.31495 -4.93273,0.12693 -0.561319,-0.0675 0.603192,-0.13038 1.434412,-0.25953 l 5.706248,-0.006 c -0.0282,-0.01 -0.0619,-0.01 -0.0891,-0.0164 -0.297071,-0.0798 0.661901,-0.12871 1.023051,-0.16182 0.71506,-0.0648 1.65432,0.0539 2.18226,-0.1319 0.33315,-0.11705 -1.48335,-0.0223 -1.30038,-0.17751 0.47177,-0.39565 3.57771,0.19738 0.31512,-0.3144 -10.05658,-0.95679 0.0246,0.11081 1.793,-0.28516 1.25247,-0.28026 -5.519361,-0.26433 -4.19057,-0.49479 1.23324,-0.21403 2.26029,-0.35231 3.12689,-0.43844 -0.0302,-0.0124 -0.0602,-0.0262 -0.0905,-0.0435 -0.40899,-0.20574 1.39267,-0.0906 2.08887,-0.13686 -3.7033,-0.49508 -3.20844,-0.22702 -0.47553,-0.5411 0.93147,-0.10812 3.64071,-0.23078 2.7469,-0.37 -2.12174,-0.33062 -4.63229,-0.12541 -6.908952,-0.27806 -0.18084,-0.0124 0.205129,-0.11104 0.307272,-0.1661 2.27009,0.0526 4.53975,0.1059 6.80986,0.15827 -13.040793,-0.93219 -1.32239,-0.0355 -0.67443,-0.19391 1.01414,-0.24512 -2.51748,-0.13782 -3.47337,-0.40709 -0.43667,-0.12319 1.81599,0.0806 1.64614,-0.10909 -0.2555,-0.28554 -2.95135,-0.36421 -2.15517,-0.45983 1.56596,-0.18804 3.28793,0.084 4.93202,0.12623 -12.908604,-1.06306 -3.16468,-0.16171 -1.96554,-0.34505 0.62142,-0.0948 -1.18603,-0.2272 -1.78516,-0.3365 -0.84972,-0.15549 -2.34376,-0.12499 -2.56083,-0.45841 -0.19841,-0.30467 2.63766,0.0829 2.36264,-0.41137 -0.19113,-0.0748 -0.37015,-0.15429 -0.56678,-0.22741 1.21043,0.22636 2.68521,0.30087 2.72908,-0.58032 0.002,-0.0589 -0.0904,-0.1032 -0.21887,-0.14186 z m -0.78707,4.81152 c -0.5211,1.7e-4 -1.16908,0.0327 -1.96055,0.11117 3.0416,1.47324 5.60823,-0.1124 1.96055,-0.11117 z"
       sodipodi:nodetypes="ccccccccccccccccsccccccccccscccccccccccccccccccccsccccccccccccccccccccccccscccccccccscs" />
  </g>
</svg>
