<?xml version="1.0" encoding="UTF-8" standalone="no"?>
<svg
   xmlns:dc="http://purl.org/dc/elements/1.1/"
   xmlns:cc="http://creativecommons.org/ns#"
   xmlns:rdf="http://www.w3.org/1999/02/22-rdf-syntax-ns#"
   xmlns:svg="http://www.w3.org/2000/svg"
   xmlns="http://www.w3.org/2000/svg"
   xmlns:sodipodi="http://sodipodi.sourceforge.net/DTD/sodipodi-0.dtd"
   xmlns:inkscape="http://www.inkscape.org/namespaces/inkscape"
   sodipodi:docname="04_main_menu_tab_selected.svg"
   inkscape:version="1.0 (4035a4fb49, 2020-05-01)"
   id="svg24802"
   version="1.1"
   viewBox="0 0 78.52594 10.867326"
   height="10.867326mm"
   width="78.52594mm">
  <defs
     id="defs24796" />
  <sodipodi:namedview
     inkscape:window-maximized="1"
     inkscape:window-y="-8"
     inkscape:window-x="-8"
     inkscape:window-height="705"
     inkscape:window-width="1366"
     fit-margin-bottom="0"
     fit-margin-right="0"
     fit-margin-left="0"
     fit-margin-top="0"
     showgrid="false"
     inkscape:document-rotation="0"
     inkscape:current-layer="layer1"
     inkscape:document-units="mm"
     inkscape:cy="-61.500591"
     inkscape:cx="69.719596"
     inkscape:zoom="1.3422939"
     inkscape:pageshadow="2"
     inkscape:pageopacity="0.0"
     borderopacity="1.0"
     bordercolor="#666666"
     pagecolor="#ffffff"
     id="base" />
  <metadata
     id="metadata24799">
    <rdf:RDF>
      <cc:Work
         rdf:about="">
        <dc:format>image/svg+xml</dc:format>
        <dc:type
           rdf:resource="http://purl.org/dc/dcmitype/StillImage" />
        <dc:title></dc:title>
      </cc:Work>
    </rdf:RDF>
  </metadata>
  <g
     transform="translate(-28.543843,-117.56474)"
     id="layer1"
     inkscape:groupmode="layer"
     inkscape:label="Layer 1">
    <path
       inkscape:export-ydpi="96"
       inkscape:export-xdpi="96"
       inkscape:export-filename="D:\Calcatz\Icon Pack\Adventure Narrative Inspired by Jumanji\Assets\PNG\Highlighter\03_main_menu_tab_selected.png"
       sodipodi:nodetypes="sccscccccccccccsccscccssccccccscsscccsscccccccccccccsscccscccsccccccccsccccscccccccccccsccccccscccssssscsccccccccccccssscccscccc"
       d="m 41.596374,117.63416 c -2.0552,0.0201 -4.0954,0.19652 -6.1062,0.66765 0.071,0.037 0.098,0.0879 0.1611,0.12734 -3.0068,0.27105 -0.1044,-0.0671 1.0052,0.31645 0.3287,0.1135 -1.0436,0.0149 -1.3481,0.1352 -0.1666,0.0662 0.3918,0.11767 0.6281,0.15142 0.3823,0.0545 0.8412,0.0389 1.2005,0.10897 0.1241,0.0238 0.061,0.0946 0.091,0.1419 -0.6297,0.0207 -1.4001,-0.0739 -1.8892,0.0628 -0.3092,0.0862 1.4809,0.1064 1.1086,0.15626 -0.6334,0.0845 -1.3592,-0.0427 -2.039,-0.0317 -0.3346,0.006 -0.6525,0.0513 -0.9781,0.0782 -0.3955,0.0326 -0.9909,-0.0205 -1.1856,0.10027 -0.1508,0.0943 0.4363,0.15441 0.6545,0.23155 -3.5666,0.19993 -1.5431,0.0209 1.4016,0.27209 1.319,0.11313 -2.1056,-0.10627 -2.6079,0.0598 -0.1684,0.0556 0.236,0.13728 0.3743,0.20164 0.1536,0.0718 0.3327,0.13631 0.499,0.20455 -1.9008,0.40973 0.1279,-0.13422 -0.149,0.3541 -0.055,0.0976 -0.4582,0.13436 -0.7414,0.15925 -0.2625,0.0238 -1.073,-0.0464 -0.8099,-0.0241 4.2556,0.35523 4.1046,-0.18166 4.0865,0.47086 0.6936,0.5695 -0.2887,-0.40299 -1.1785,0.24602 -0.1693,0.12361 1.0244,0.0828 1.0152,0.21903 -0.01,0.12292 -0.6787,0.0923 -1.0373,0.10897 -0.7899,0.0373 -1.637,-0.0385 -2.3876,0.053 -0.2095,0.0268 0.2026,0.13424 0.3037,0.20166 0.2866,0.0693 0.5852,0.13383 0.8598,0.2084 0.1968,0.0535 0.3199,0.14227 0.5511,0.17663 0.5876,0.0871 2.4042,0.0708 1.8486,0.17941 -0.941,0.18393 -3.9976,-0.17251 -3.2452,0.0935 1.0359,0.36628 9.3211,-0.0264 0.1683,0.30008 0.3065,0.44134 2.588,0.0186 2.9065,0.35121 0.2306,0.24051 -1.4455,0.12084 -2.1672,0.1824 -0.6907,0.059 -2.7282,0.0873 -2.0697,0.17943 3.6007,0.50352 5.9715,-0.21143 3.9083,0.33867 -0.5893,0.0601 -2.0078,-0.011 -1.7681,0.18035 0.3017,0.24231 1.5349,0.0976 2.2443,0.20261 0.2391,0.0355 0.3703,0.1279 0.5005,0.20456 0.107,0.0631 0.397,0.18017 0.1982,0.20744 -0.9943,0.13644 -2.1209,0.1135 -3.1633,0.19874 -0.5735,0.047 -1.1145,0.13203 -1.6718,0.19779 0.1941,0.0714 0.8078,0.1546 0.5818,0.2142 -0.064,0.0186 -0.1265,0.0271 -0.1904,0.0424 0.932,0.0703 2.1283,0.19118 3.6894,0.39848 -0.8683,0.0666 -1.7366,0.13411 -2.605,0.20069 -0.042,0.0312 -0.2121,0.0755 -0.1262,0.0935 0.4568,0.0939 1.001,0.12596 1.5014,0.18911 -2.6139,0.12109 -2.504,0.0189 0.144,0.32803 -0.2503,0.7734 66.396196,0.11962 66.396196,0.11962 0,0 1.2532,-0.0825 6.91041,-0.0878 -1.30691,-0.12084 -2.66351,-0.19193 -3.92111,-0.36278 -0.3568,-0.0484 -0.8892,-0.15142 -0.8063,-0.27883 0.091,-0.13984 0.7512,-0.1305 1.1186,-0.20068 0.3596,-0.0687 1.0868,-0.077 1.0615,-0.21709 -0.099,-0.54669 -3.1514,0.10431 0.1697,-0.43901 0.3985,-0.0656 1.526,-0.0977 1.1956,-0.19778 -0.24919,-0.0758 -3.8089,-0.23155 -4.2961,-0.40619 -0.2025,-0.0726 0.5595,-0.10982 0.6459,-0.20551 0.1371,-0.15161 -0.1425,-0.19812 -0.4549,-0.20937 0.4374,-0.0268 1.0815,-0.0744 2.2065,-0.17457 -0.6061,-0.12279 -0.9473,-0.16879 -1.4187,-0.33867 -0.1483,-0.0535 -0.5857,-0.15049 -0.3857,-0.17849 0.9207,-0.12844 2.1107,0.01 2.9401,-0.17941 0.6103,-0.13783 -2.1419,-0.0915 -1.9719,-0.32902 -0.5432,-0.047 -1.1828,-0.0273 -1.6298,-0.1419 -0.1988,-0.0512 0.4439,-0.0809 0.6859,-0.10137 0.479,-0.0405 1.1082,0.0371 1.4622,-0.0802 0.2233,-0.0741 -0.994,-0.0195 -0.8712,-0.1157 0.3166,-0.25087 2.3964,0.13093 0.2117,-0.19875 -6.735095,-0.62288 0.016,0.0699 1.2013,-0.17943 0.8394,-0.17663 -3.6965,-0.17532 -2.8061,-0.32032 0.8264,-0.13438 1.5147,-0.22071 2.0953,-0.27403 -0.02,-0.01 -0.04,-0.0191 -0.061,-0.0271 -0.2736,-0.13148 0.9331,-0.0562 1.3995,-0.084 -2.48,-0.32015 -2.1492,-0.14882 -0.318,-0.34446 0.6242,-0.0666 2.4393,-0.1419 1.8408,-0.23155 -1.4208,-0.21329 -3.1028,-0.0857 -4.6276,-0.18615 -0.1211,-0.01 0.1375,-0.0699 0.206,-0.10517 1.5206,0.0369 3.0408,0.0736 4.5613,0.10995 -8.734096,-0.61151 -0.8856,-0.0269 -0.4513,-0.12458 0.6797,-0.1544 -1.6863,-0.0907 -2.3262,-0.26338 -0.2924,-0.0787 1.2163,0.053 1.1029,-0.0676 -0.1708,-0.18184 -1.9765,-0.23569 -1.443,-0.29523 1.0493,-0.11729 2.2024,0.0587 3.3037,0.0878 -8.645397,-0.69444 -2.1196,-0.10823 -1.3161,-0.22286 0.4164,-0.0596 -0.7944,-0.14525 -1.1955,-0.21613 -0.569,-0.10003 -1.5697,-0.083 -1.7146,-0.29524 -0.1325,-0.19401 1.7669,0.0559 1.5834,-0.25857 -0.1279,-0.0476 -0.2477,-0.0986 -0.3793,-0.1447 0.8105,0.14582 1.79791,0.19535 1.8287,-0.3647 0.01,-0.1283 -0.5868,-0.17232 -1.2676,-0.1824 0.3678,-0.0149 0.6459,-0.0235 1.1464,-0.0471 0.2264,-0.01 0.4282,-0.0538 0.6423,-0.0809 -0.5203,-0.0506 -1.649,0.0301 -1.5613,-0.15143 0.089,-0.1852 1.1265,0.0186 1.6533,-0.0405 0.1259,-0.0149 -0.072,-0.10138 -0.1961,-0.11668 -0.084,-0.01 -0.1762,-0.0149 -0.263,-0.0212 -4.526,-5.2e-4 -59.532096,-0.71378 -64.053596,-0.6696 z m 63.219396,4.27518 c -0.3491,-5e-4 -0.7836,0.0189 -1.3139,0.0676 2.0352,0.94117 3.7574,-0.0631 1.3139,-0.0676 z m -75.020496,3.88343 c -2.5401,-0.0578 -0.7663,0.56808 1.3639,0.0713 -0.5505,-0.0414 -1.001,-0.0631 -1.3639,-0.0713 z m 3.8534,1.74441 c 0.01,10e-4 0.015,10e-4 0.026,0.004 -0.01,1.3e-4 -0.01,-1.7e-4 -0.018,9.8e-4 0.01,2.3e-4 0.025,-2.2e-4 0.034,0 0.2084,0.026 0.5,0.0559 0.5589,0.0888 0.043,0.0242 -0.4406,-0.01 -0.4213,0.0149 0.033,0.0425 0.3021,0.0873 0.5483,0.12158 -0.01,0.001 -0.017,0.001 -0.024,0.004 -0.3374,-0.0338 -0.8775,-0.0862 -1.848,-0.17457 -1.6325,0.41286 5.1251,0.81394 10.279699,0.83074 v 0.004 c 2.343,0.007 54.7656,-0.0661 55.507701,-0.25374 0.638,0.006 4.635096,0.45664 2.600096,0.11092 -0.6032,-0.10235 -1.666297,-0.14768 -1.924898,-0.28654 -0.174699,-0.0937 1.056798,0.0768 1.595498,0.10994 0.3963,0.0244 0.8053,0.0424 1.2077,0.0637 -1.2135,-0.17121 -1.824697,-0.24973 -2.125997,-0.28559 0.436097,0.0395 1.202297,0.0717 0.356497,-0.26438 -0.148598,-0.0587 -1.118698,-0.0149 -1.027996,-0.0771 0.01,-0.004 0.015,-0.007 0.025,-0.011 -4.743601,0.31764 -60.093301,0.37181 -65.349001,0 z"
       style="fill:#cbbfba;fill-opacity:0.4;stroke-width:0.396875;stroke-linecap:round;stroke-opacity:0.326613;paint-order:fill markers stroke"
       id="path24192" />
    <path
       inkscape:export-ydpi="96"
       inkscape:export-xdpi="96"
       inkscape:export-filename="D:\Calcatz\Icon Pack\Adventure Narrative Inspired by Jumanji\Assets\PNG\Highlighter\03_main_menu_tab_selected.png"
       sodipodi:nodetypes="ccccccccccccccccsccccccccccscccccccccccccccccccccsccccccccccccccccccccccccscccccccccscs"
       d="m 99.409374,117.56587 -57.8131,0.0684 c -0.072,0.0124 -0.1427,0.0251 -0.187501,0.0449 -0.248399,0.1048 0.585301,0.18366 0.938301,0.23598 0.570799,0.0845 1.2562,0.0589 1.793,0.16825 0.1852,0.0383 0.09,0.14848 0.1354,0.22314 -0.94,0.0367 -2.0906,-0.11203 -2.820301,0.10407 -0.4613,0.13671 2.211701,0.1622 1.656101,0.24167 -0.9452,0.13465 -2.0295,-0.0619 -3.044201,-0.0435 -0.4995,0.0124 -0.9741,0.0836 -1.459999,0.1276 -0.5905,0.0514 -1.4793,-0.0312 -1.7695,0.16113 -0.2247,0.14849 0.6522,0.24101 0.9781,0.36217 -5.3236,0.32664 -2.3037,0.0349 2.0931,0.42205 1.969599,0.1736 -3.144,-0.15924 -3.8932,0.10334 -0.2513,0.0879 0.353,0.21585 0.5596,0.31653 0.2296,0.11203 0.4972,0.21348 0.7457,0.32011 -2.8361,0.65072 0.1907,-0.21217 -0.221,0.55681 -0.082,0.15363 -0.6837,0.21297 -1.1064,0.25236 -0.3919,0.0348 -1.6021,-0.0687 -1.2091,-0.0365 6.3542,0.54432 6.126499,-0.29958 6.101899,0.72648 1.037501,0.89326 -0.4321,-0.63347 -1.758099,0.38997 -0.2524,0.19504 1.5296,0.12693 1.516399,0.34149 -0.012,0.1936 -1.012599,0.14818 -1.5478,0.17681 -1.178999,0.0613 -2.444499,-0.0562 -3.564599,0.0905 -0.3128,0.0392 0.3029,0.21198 0.4541,0.31796 0.4281,0.10823 0.8745,0.20774 1.2847,0.32438 0.294,0.0839 0.4775,0.22195 0.8227,0.27518 0.8775,0.13493 3.5895,0.1037 2.760499,0.27661 -1.404099,0.29288 -5.968399,-0.25856 -4.844299,0.15756 1.2341,0.45654 8.757999,0.16329 5.068899,0.29088 l 2.7005,-0.002 c -0.038,0.0171 -0.079,0.0332 -0.114699,0.0507 -0.206601,0.10064 -0.8109,0.22937 -0.5596,0.31724 0.7492,0.26262 5.8628,-0.0709 3.8932,0.1026 -4.3968,0.3871 -7.4174,0.0961 -2.0938,0.42276 -0.326,0.12109 -1.2021,0.21369 -0.9774,0.36218 0.2902,0.19237 1.179,0.1097 1.7694,0.16112 0.486,0.044 0.9605,0.11448 1.4601,0.12692 1.0147,0.0185 2.0982,-0.17813 3.0435,-0.0435 0.5555,0.0795 -2.1167,0.10492 -1.6554,0.24167 0.7297,0.21606 1.8803,0.0673 2.8203,0.10407 -0.045,0.0747 0.05,0.18479 -0.1355,0.22315 -0.5367,0.10934 -1.2221,0.0839 -1.793,0.16825 -0.3529,0.0523 -1.1866,0.13107 -0.9382,0.23598 0.045,0.0198 0.1155,0.0326 0.1875,0.0449 l 40.902501,0.0684 c 0.128498,-0.0388 0.2202,-0.0829 0.2182,-0.14188 -0.044,-0.88118 -1.518,-0.80665 -2.7284,-0.58031 0.196599,-0.0731 0.375698,-0.15265 0.566799,-0.22742 0.275,-0.49427 -2.561799,-0.10664 -2.363399,-0.41136 0.217099,-0.33338 1.7111,-0.30292 2.5609,-0.45841 0.599098,-0.10921 2.407298,-0.24172 1.785799,-0.33651 -1.199099,-0.18334 -10.943,0.71801 1.965601,-0.34505 -1.6441,0.0422 -3.366802,0.31495 -4.932702,0.12693 -0.561398,-0.0675 0.603102,-0.13038 1.434402,-0.25953 l 5.7062,-0.006 c -0.028,-0.01 -0.062,-0.01 -0.089,-0.0164 -0.2971,-0.0798 0.661901,-0.12871 1.023099,-0.16182 0.715002,-0.0648 1.654302,0.0539 2.182201,-0.1319 0.333201,-0.11705 -1.483299,-0.0223 -1.3004,-0.17751 0.4718,-0.39565 3.577701,0.19738 0.315201,-0.3144 -10.056601,-0.95679 0.025,0.11081 1.792999,-0.28516 1.2524,-0.28026 -5.519399,-0.26433 -4.190601,-0.49479 1.233202,-0.21403 2.260301,-0.35231 3.126902,-0.43844 -0.03,-0.0124 -0.06,-0.0262 -0.091,-0.0435 -0.409001,-0.20574 1.3926,-0.0906 2.088801,-0.13686 -3.703302,-0.49508 -3.208401,-0.22702 -0.475502,-0.5411 0.9315,-0.10812 3.640705,-0.23078 2.746905,-0.37 -2.121705,-0.33062 -4.632304,-0.12541 -6.908904,-0.27806 -0.1809,-0.0124 0.2051,-0.11104 0.3072,-0.1661 2.270101,0.0526 4.5398,0.1059 6.809894,0.15827 -13.040794,-0.93219 -1.322393,-0.0355 -0.67439,-0.19391 1.0141,-0.24512 -2.517504,-0.13782 -3.473404,-0.40709 -0.4367,-0.12319 1.816,0.0806 1.6461,-0.10909 -0.2555,-0.28553 -2.9513,-0.3642 -2.1551,-0.45982 1.565899,-0.18804 3.2879,0.084 4.932004,0.12623 -12.908604,-1.06306 -3.164704,-0.16171 -1.965604,-0.34505 0.621504,-0.0948 -1.186,-0.2272 -1.785099,-0.3365 -0.849701,-0.15549 -2.343801,-0.12499 -2.560801,-0.45841 -0.198499,-0.30467 2.637599,0.0829 2.362599,-0.41137 -0.191098,-0.0748 -0.3702,-0.15429 -0.566798,-0.22741 1.2105,0.22636 2.6852,0.30087 2.7291,-0.58032 -2e-6,-0.0589 -0.09,-0.10319 -0.218902,-0.14185 z m -0.787099,4.81152 c -0.521102,1.7e-4 -1.169,0.0327 -1.960501,0.11117 3.041599,1.47324 5.608196,-0.1124 1.960501,-0.11117 z"
       style="fill:#e5d8d2;fill-opacity:0.8;stroke-width:0.396875;stroke-linecap:round;stroke-opacity:0.326613;paint-order:fill markers stroke"
       id="path24194" />
  </g>
</svg>
