<?xml version="1.0" encoding="UTF-8" standalone="no"?>
<svg
   xmlns:dc="http://purl.org/dc/elements/1.1/"
   xmlns:cc="http://creativecommons.org/ns#"
   xmlns:rdf="http://www.w3.org/1999/02/22-rdf-syntax-ns#"
   xmlns:svg="http://www.w3.org/2000/svg"
   xmlns="http://www.w3.org/2000/svg"
   xmlns:sodipodi="http://sodipodi.sourceforge.net/DTD/sodipodi-0.dtd"
   xmlns:inkscape="http://www.inkscape.org/namespaces/inkscape"
   sodipodi:docname="05_main_menu_tab_selected_slice.svg"
   inkscape:version="1.0 (4035a4fb49, 2020-05-01)"
   id="svg25389"
   version="1.1"
   viewBox="0 0 53.256336 10.799827"
   height="10.799827mm"
   width="53.256336mm">
  <defs
     id="defs25383" />
  <sodipodi:namedview
     inkscape:window-maximized="1"
     inkscape:window-y="-8"
     inkscape:window-x="-8"
     inkscape:window-height="705"
     inkscape:window-width="1366"
     fit-margin-bottom="0"
     fit-margin-right="0"
     fit-margin-left="0"
     fit-margin-top="0"
     showgrid="false"
     inkscape:document-rotation="0"
     inkscape:current-layer="layer1"
     inkscape:document-units="mm"
     inkscape:cy="38.078882"
     inkscape:cx="107.05757"
     inkscape:zoom="1.3422939"
     inkscape:pageshadow="2"
     inkscape:pageopacity="0.0"
     borderopacity="1.0"
     bordercolor="#666666"
     pagecolor="#ffffff"
     id="base" />
  <metadata
     id="metadata25386">
    <rdf:RDF>
      <cc:Work
         rdf:about="">
        <dc:format>image/svg+xml</dc:format>
        <dc:type
           rdf:resource="http://purl.org/dc/dcmitype/StillImage" />
        <dc:title></dc:title>
      </cc:Work>
    </rdf:RDF>
  </metadata>
  <g
     transform="translate(-54.582312,-169.63627)"
     id="layer1"
     inkscape:groupmode="layer"
     inkscape:label="Layer 1">
    <path
       id="path24176"
       style="fill:#cbbfba;fill-opacity:0.4;stroke-width:0.396875;stroke-linecap:round;stroke-opacity:0.326613;paint-order:fill markers stroke"
       d="m 67.634849,169.63819 c -2.0553,0.0201 -4.0954,0.19652 -6.1062,0.66765 0.071,0.037 0.098,0.0879 0.161099,0.12734 -3.0068,0.27105 -0.1045,-0.0671 1.005201,0.31645 0.328599,0.1135 -1.0436,0.0149 -1.348101,0.1352 -0.1666,0.0662 0.3917,0.11767 0.628101,0.15142 0.382199,0.0545 0.841099,0.0389 1.2005,0.10897 0.123999,0.0238 0.06,0.0946 0.091,0.1419 -0.629701,0.0207 -1.400101,-0.0739 -1.889201,0.0628 -0.3092,0.0862 1.480801,0.1064 1.1086,0.15626 -0.633399,0.0845 -1.3593,-0.0427 -2.038999,-0.0317 -0.3347,0.006 -0.652501,0.0513 -0.9781,0.0782 -0.3956,0.0326 -0.990901,-0.0205 -1.185601,0.10027 -0.1508,0.0943 0.436301,0.15441 0.654501,0.23155 -3.566601,0.19993 -1.5432,0.0209 1.401499,0.27209 1.3191,0.11313 -2.1056,-0.10627 -2.6078,0.0598 -0.1685,0.0556 0.236,0.13728 0.374301,0.20164 0.153599,0.0718 0.332599,0.13631 0.498999,0.20455 -1.9008,0.40973 0.1279,-0.13422 -0.149,0.3541 -0.055,0.0976 -0.4582,0.13436 -0.7414,0.15925 -0.262599,0.0238 -1.0731,-0.0464 -0.8099,-0.0241 4.255601,0.35523 4.1045,-0.18166 4.086501,0.47086 0.693599,0.5695 -0.288701,-0.40299 -1.178501,0.24602 -0.1693,0.12361 1.0244,0.0828 1.0152,0.21903 -0.01,0.12292 -0.6787,0.0923 -1.0373,0.10897 -0.7899,0.0373 -1.6371,-0.0385 -2.3876,0.053 -0.2096,0.0268 0.2025,0.13424 0.3037,0.20166 0.2866,0.0693 0.5852,0.13383 0.8598,0.2084 0.1968,0.0535 0.3199,0.14227 0.5511,0.17663 0.5875,0.0871 2.4042,0.0708 1.8486,0.17941 -0.941,0.18393 -3.9976,-0.17251 -3.2452,0.0935 1.0359,0.36628 9.321001,-0.0264 0.1682,0.30008 0.3065,0.44134 2.588,0.0186 2.9066,0.35121 0.2306,0.24051 -1.4456,0.12084 -2.1673,0.1824 -0.6906,0.059 -2.7282,0.0873 -2.0696,0.17943 3.6006,0.50352 5.9715,-0.21143 3.9083,0.33867 -0.589299,0.0601 -2.0079,-0.011 -1.7681,0.18035 0.3016,0.24231 1.5349,0.0976 2.2443,0.20261 0.2391,0.0355 0.3703,0.1279 0.500501,0.20456 0.106999,0.0631 0.396999,0.18017 0.198199,0.20744 -0.9943,0.13644 -2.1209,0.1135 -3.1633,0.19874 -0.5735,0.047 -1.1145,0.13203 -1.6718,0.19779 0.194,0.0714 0.8078,0.1546 0.5818,0.2142 -0.064,0.0186 -0.1265,0.0271 -0.1904,0.0424 0.932,0.0703 2.1283,0.19118 3.6894,0.39848 -0.868399,0.0666 -1.7367,0.13411 -2.605,0.20069 -0.042,0.0312 -0.2121,0.0755 -0.1263,0.0935 0.4569,0.0939 1.001,0.12596 1.5015,0.18911 -2.6139,0.12109 -2.504,0.0189 0.144,0.32803 -0.250399,0.7734 41.126602,0.11962 41.126602,0.11962 0,0 1.2532,-0.0825 6.9104,-0.0878 -1.3069,-0.12084 -2.6635,-0.19193 -3.9211,-0.36278 -0.3568,-0.0484 -0.8892,-0.15142 -0.8063,-0.27883 0.091,-0.13984 0.7512,-0.1305 1.1186,-0.20068 0.3597,-0.0687 1.0868,-0.077 1.0615,-0.21709 -0.099,-0.54669 -3.1514,0.10431 0.1697,-0.43901 0.3985,-0.0656 1.526,-0.0977 1.1956,-0.19778 -0.2491,-0.0758 -3.8089,-0.23155 -4.2961,-0.40619 -0.2025,-0.0726 0.5595,-0.10982 0.6459,-0.20551 0.1371,-0.15161 -0.1425,-0.19812 -0.4549,-0.20937 0.4374,-0.0268 1.0816,-0.0744 2.2065,-0.17457 -0.6061,-0.12279 -0.9473,-0.16879 -1.4187,-0.33867 -0.1483,-0.0535 -0.5857,-0.15049 -0.3857,-0.17849 0.9207,-0.12844 2.1107,0.01 2.9401,-0.17941 0.6103,-0.13783 -2.1419,-0.0915 -1.9719,-0.32902 -0.5432,-0.047 -1.1828,-0.0273 -1.6298,-0.1419 -0.1988,-0.0512 0.4439,-0.0809 0.6859,-0.10137 0.479,-0.0405 1.1082,0.0371 1.4622,-0.0802 0.2233,-0.0741 -0.994,-0.0195 -0.8712,-0.1157 0.3166,-0.25087 2.3965,0.13093 0.2117,-0.19875 -6.735101,-0.62288 0.016,0.0699 1.2013,-0.17943 0.8394,-0.17663 -3.6965,-0.17532 -2.8061,-0.32032 0.8264,-0.13438 1.5147,-0.22071 2.0953,-0.27403 -0.02,-0.01 -0.04,-0.0191 -0.061,-0.0271 -0.2736,-0.13148 0.9331,-0.0562 1.3995,-0.084 -2.48,-0.32015 -2.1491,-0.14882 -0.318,-0.34446 0.6242,-0.0666 2.4393,-0.1419 1.8408,-0.23155 -1.4208,-0.21329 -3.1028,-0.0857 -4.6276,-0.18615 -0.1211,-0.01 0.1375,-0.0699 0.206,-0.10517 1.5206,0.0369 3.0408,0.0736 4.5613,0.10995 -8.734098,-0.61151 -0.8855,-0.0269 -0.4513,-0.12458 0.6798,-0.1544 -1.6863,-0.0907 -2.3262,-0.26338 -0.2923,-0.0787 1.2164,0.053 1.1029,-0.0676 -0.1708,-0.18184 -1.9765,-0.23569 -1.443,-0.29523 1.0493,-0.11729 2.2024,0.0587 3.3037,0.0878 -8.645401,-0.69444 -2.1196,-0.10823 -1.3161,-0.22286 0.4164,-0.0596 -0.7943,-0.14525 -1.1955,-0.21613 -0.569,-0.10003 -1.5697,-0.083 -1.7146,-0.29524 -0.1325,-0.19401 1.7669,0.0559 1.5834,-0.25857 -0.1279,-0.0476 -0.2477,-0.0986 -0.3793,-0.1447 0.8105,0.14582 1.7979,0.19535 1.8287,-0.3647 0.01,-0.1283 -0.5868,-0.17232 -1.2676,-0.1824 0.3678,-0.0149 0.6459,-0.0235 1.1464,-0.0471 0.2264,-0.01 0.4282,-0.0538 0.6423,-0.0809 -0.5203,-0.0506 -1.6489,0.0301 -1.5613,-0.15143 0.09,-0.1852 1.1266,0.0186 1.6533,-0.0405 0.1259,-0.0149 -0.072,-0.10138 -0.1961,-0.11668 -0.084,-0.01 -0.1762,-0.0149 -0.263,-0.0212 -4.526,-5.2e-4 -34.262501,-0.71378 -38.784001,-0.6696 z m 37.949801,4.27518 c -0.3491,-5e-4 -0.7836,0.0189 -1.3139,0.0676 2.0352,0.94117 3.7574,-0.0631 1.3139,-0.0676 z m -49.750902,3.88343 c -2.5401,-0.0578 -0.7663,0.56808 1.3638,0.0713 -0.5505,-0.0414 -1.0009,-0.0631 -1.3638,-0.0713 z m 3.8534,1.74441 c 0.01,0.001 0.015,0.001 0.026,0.004 -0.01,1.3e-4 -0.01,-1.7e-4 -0.018,9.8e-4 0.01,2.3e-4 0.025,-2.2e-4 0.034,0 0.2083,0.026 0.5,0.0559 0.5589,0.0888 0.043,0.0242 -0.4406,-0.01 -0.4213,0.0149 0.033,0.0425 0.3021,0.0873 0.5482,0.12158 -0.01,0.001 -0.017,0.001 -0.024,0.004 -0.3373,-0.0338 -0.8774,-0.0862 -1.8479,-0.17457 -1.6325,0.41286 5.1251,0.81394 10.2797,0.83074 v 0.004 c 2.343,0.007 29.496001,-0.0661 30.238099,-0.25374 0.638001,0.006 4.635103,0.45664 2.600103,0.11092 -0.6032,-0.10235 -1.666301,-0.14768 -1.924902,-0.28654 -0.174699,-0.0937 1.056902,0.0768 1.595502,0.10994 0.3963,0.0244 0.8053,0.0424 1.2077,0.0637 -1.2135,-0.17121 -1.8247,-0.24973 -2.126,-0.28559 0.4361,0.0395 1.2023,0.0717 0.3565,-0.26438 -0.1486,-0.0587 -1.118702,-0.0149 -1.028003,-0.0771 0,-0.004 0.015,-0.007 0.025,-0.011 -4.7436,0.31764 -34.823699,0.37181 -40.0794,0 z"
       sodipodi:nodetypes="sccscccccccccccsccscccssccccccscsscccsscccccccccccccsscccscccsccccccccsccccscccccccccccsccccccscccssssscsccccccccccccssscccscccc"
       inkscape:export-filename="D:\Calcatz\Icon Pack\Adventure Narrative Inspired by Jumanji\Assets\PNG\Highlighter\10_main_menu_tab_selected_slice.png"
       inkscape:export-xdpi="96"
       inkscape:export-ydpi="96" />
    <path
       id="path24178"
       style="fill:#e5d8d2;fill-opacity:0.8;stroke-width:0.396875;stroke-linecap:round;stroke-opacity:0.326613;paint-order:fill markers stroke"
       d="m 100.17825,170.24637 -32.543501,0.0684 c -0.072,0.0124 -0.1428,0.0251 -0.1875,0.0449 -0.2484,0.1048 0.5853,0.18366 0.9382,0.23598 0.5709,0.0845 1.2563,0.0589 1.793,0.16825 0.1852,0.0383 0.09,0.14848 0.1355,0.22314 -0.94,0.0367 -2.0906,-0.11203 -2.8203,0.10407 -0.4613,0.13671 2.2116,0.1622 1.6561,0.24167 -0.9453,0.13465 -2.0295,-0.0619 -3.0442,-0.0435 -0.4996,0.0124 -0.9741,0.0836 -1.4601,0.1276 -0.590401,0.0514 -1.479301,-0.0312 -1.769501,0.16113 -0.2247,0.14849 0.6523,0.24101 0.9782,0.36217 -5.3236,0.32664 -2.3037,0.0349 2.093101,0.42205 1.9695,0.1736 -3.144101,-0.15924 -3.893301,0.10334 -0.2512,0.0879 0.353101,0.21585 0.5597,0.31653 0.229601,0.11203 0.4971,0.21348 0.745701,0.32011 -2.836101,0.65072 0.1907,-0.21217 -0.221001,0.55681 -0.082,0.15363 -0.6837,0.21297 -1.1064,0.25236 -0.3919,0.0348 -1.602099,-0.0687 -1.2092,-0.0365 6.354201,0.54432 6.126601,-0.29958 6.101901,0.72648 1.0375,0.89326 -0.432,-0.63347 -1.758,0.38997 -0.2524,0.19504 1.5296,0.12693 1.5164,0.34149 -0.012,0.1936 -1.0126,0.14818 -1.5478,0.17681 -1.1791,0.0613 -2.4445,-0.0562 -3.5646,0.0905 -0.3129,0.0392 0.3029,0.21198 0.454099,0.31796 0.4281,0.10823 0.8745,0.20774 1.2847,0.32438 0.294,0.0839 0.477501,0.22195 0.822701,0.27518 0.8774,0.13493 3.5894,0.1037 2.7605,0.27661 -1.4041,0.29288 -5.968501,-0.25856 -4.844401,0.15756 1.2342,0.45654 8.758101,0.16329 5.068901,0.29088 l 2.7006,-0.002 c -0.038,0.0171 -0.079,0.0332 -0.1147,0.0507 -0.2066,0.10064 -0.8109,0.22937 -0.5597,0.31724 0.7492,0.26262 5.8628,-0.0709 3.8933,0.1026 -4.3968,0.3871 -7.4174,0.0961 -2.0938,0.42276 -0.326,0.12109 -1.2022,0.21369 -0.9775,0.36218 0.2902,0.19237 1.1791,0.1097 1.7695,0.16112 0.486,0.044 0.9605,0.11448 1.4601,0.12692 1.0146,0.0185 2.0982,-0.17813 3.0435,-0.0435 0.5555,0.0795 -2.1167,0.10492 -1.6555,0.24167 0.7298,0.21606 1.8804,0.0673 2.8204,0.10407 -0.045,0.0747 0.05,0.18479 -0.1355,0.22315 -0.5368,0.10934 -1.2221,0.0839 -1.793,0.16825 -0.3529,0.0523 -1.1866,0.13107 -0.9382,0.23598 0.045,0.0198 0.1154,0.0326 0.1875,0.0449 l 15.6329,0.0684 c 0.1285,-0.0388 0.2203,-0.0829 0.218199,-0.14188 -0.044,-0.88118 -1.517899,-0.80665 -2.728399,-0.58031 0.196699,-0.0731 0.3757,-0.15265 0.566801,-0.22742 0.275,-0.49427 -2.561802,-0.10664 -2.363301,-0.41136 0.217001,-0.33338 1.7111,-0.30292 2.560799,-0.45841 0.599101,-0.10921 2.407301,-0.24172 1.785901,-0.33651 -1.199201,-0.18334 -10.9431,0.71801 1.965499,-0.34505 -1.644099,0.0422 -3.366799,0.31495 -4.932698,0.12693 -0.561401,-0.0675 0.603199,-0.13038 1.434399,-0.25953 l 5.706199,-0.006 c -0.028,-0.01 -0.062,-0.01 -0.089,-0.0164 -0.297098,-0.0798 0.6619,-0.12871 1.023101,-0.16182 0.715,-0.0648 1.6543,0.0539 2.182199,-0.1319 0.3332,-0.11705 -1.483299,-0.0223 -1.300398,-0.17751 0.4718,-0.39565 3.577799,0.19738 0.315198,-0.3144 -10.056598,-0.95679 0.025,0.11081 1.793002,-0.28516 1.2524,-0.28026 -5.519401,-0.26433 -4.1906,-0.49479 1.233199,-0.21403 2.260298,-0.35231 3.126898,-0.43844 -0.03,-0.0124 -0.06,-0.0262 -0.09,-0.0435 -0.409001,-0.20574 1.392698,-0.0906 2.088899,-0.13686 -3.703299,-0.49508 -3.208499,-0.22702 -0.475599,-0.5411 0.9315,-0.10812 3.640702,-0.23078 2.746902,-0.37 -2.121702,-0.33062 -4.632302,-0.12541 -6.908904,-0.27806 -0.180898,-0.0124 0.2051,-0.11104 0.3072,-0.1661 2.270101,0.0526 4.5398,0.1059 6.809904,0.15827 -13.040802,-0.93219 -1.3224,-0.0355 -0.6744,-0.19391 1.0141,-0.24512 -2.517502,-0.13782 -3.473402,-0.40709 -0.4367,-0.12319 1.816,0.0806 1.6461,-0.10909 -0.2555,-0.28553 -2.9513,-0.3642 -2.1551,-0.45982 1.5659,-0.18804 3.287902,0.084 4.932002,0.12623 -12.908602,-1.06306 -3.164704,-0.16171 -1.9655,-0.34505 0.6214,-0.0948 -1.186102,-0.2272 -1.785203,-0.3365 -0.849699,-0.15549 -2.343801,-0.12499 -2.560799,-0.45841 -0.198401,-0.30467 2.637599,0.0829 2.362599,-0.41137 -0.1911,-0.0748 -0.370099,-0.15429 -0.566801,-0.22741 1.210501,0.22636 2.685204,0.30087 2.729104,-0.58032 0,-0.0589 -0.09,-0.1032 -0.2189,-0.14186 z m -0.787001,4.81152 c -0.521099,1.7e-4 -1.169101,0.0327 -1.960599,0.11117 3.0416,1.47324 5.6082,-0.1124 1.960599,-0.11117 z"
       sodipodi:nodetypes="ccccccccccccccccsccccccccccscccccccccccccccccccccsccccccccccccccccccccccccscccccccccscs"
       inkscape:export-filename="D:\Calcatz\Icon Pack\Adventure Narrative Inspired by Jumanji\Assets\PNG\Highlighter\10_main_menu_tab_selected_slice.png"
       inkscape:export-xdpi="96"
       inkscape:export-ydpi="96" />
  </g>
</svg>
