<?xml version="1.0" encoding="UTF-8" standalone="no"?>
<svg
   xmlns:dc="http://purl.org/dc/elements/1.1/"
   xmlns:cc="http://creativecommons.org/ns#"
   xmlns:rdf="http://www.w3.org/1999/02/22-rdf-syntax-ns#"
   xmlns:svg="http://www.w3.org/2000/svg"
   xmlns="http://www.w3.org/2000/svg"
   xmlns:sodipodi="http://sodipodi.sourceforge.net/DTD/sodipodi-0.dtd"
   xmlns:inkscape="http://www.inkscape.org/namespaces/inkscape"
   sodipodi:docname="06_main_menu_tab_not_selected.svg"
   inkscape:version="1.0 (4035a4fb49, 2020-05-01)"
   id="svg25976"
   version="1.1"
   viewBox="0 0 78.525909 10.867326"
   height="10.867326mm"
   width="78.525909mm">
  <defs
     id="defs25970" />
  <sodipodi:namedview
     inkscape:window-maximized="1"
     inkscape:window-y="-8"
     inkscape:window-x="-8"
     inkscape:window-height="705"
     inkscape:window-width="1366"
     fit-margin-bottom="0"
     fit-margin-right="0"
     fit-margin-left="0"
     fit-margin-top="0"
     showgrid="false"
     inkscape:document-rotation="0"
     inkscape:current-layer="layer1"
     inkscape:document-units="mm"
     inkscape:cy="-23.296688"
     inkscape:cx="155.10017"
     inkscape:zoom="1.8982902"
     inkscape:pageshadow="2"
     inkscape:pageopacity="0.0"
     borderopacity="1.0"
     bordercolor="#666666"
     pagecolor="#ffffff"
     id="base" />
  <metadata
     id="metadata25973">
    <rdf:RDF>
      <cc:Work
         rdf:about="">
        <dc:format>image/svg+xml</dc:format>
        <dc:type
           rdf:resource="http://purl.org/dc/dcmitype/StillImage" />
        <dc:title></dc:title>
      </cc:Work>
    </rdf:RDF>
  </metadata>
  <g
     transform="translate(-75.850933,-154.62195)"
     id="layer1"
     inkscape:groupmode="layer"
     inkscape:label="Layer 1">
    <path
       inkscape:export-ydpi="96"
       inkscape:export-xdpi="96"
       inkscape:export-filename="D:\Calcatz\Icon Pack\Adventure Narrative Inspired by Jumanji\Assets\PNG\Highlighter\04_main_menu_tab_not_selected.png"
       id="path24188"
       style="fill:#171b26;fill-opacity:0.329412;stroke-width:0.396875;stroke-linecap:round;stroke-opacity:0.326613;paint-order:fill markers stroke"
       d="m 88.903437,154.69137 c -2.0552,0.0201 -4.0954,0.19652 -6.1062,0.66765 0.071,0.037 0.098,0.0879 0.1611,0.12734 -3.0068,0.27105 -0.1044,-0.0671 1.0053,0.31645 0.3286,0.1135 -1.0437,0.0149 -1.3482,0.1352 -0.1665,0.0662 0.3918,0.11767 0.6281,0.15142 0.3823,0.0545 0.8412,0.0389 1.2006,0.10897 0.124,0.0238 0.061,0.0946 0.091,0.1419 -0.6297,0.0207 -1.4001,-0.0739 -1.8893,0.0628 -0.3092,0.0862 1.4809,0.1064 1.1086,0.15626 -0.6334,0.0845 -1.3592,-0.0427 -2.0389,-0.0317 -0.3347,0.006 -0.6525,0.0513 -0.9782,0.0782 -0.3955,0.0326 -0.9909,-0.0205 -1.1856,0.10027 -0.1507,0.0943 0.4364,0.15441 0.6545,0.23155 -3.5666,0.19993 -1.5431,0.0209 1.4016,0.27209 1.3191,0.11313 -2.1056,-0.10627 -2.6079,0.0598 -0.1684,0.0556 0.236,0.13728 0.3743,0.20164 0.1536,0.0718 0.3327,0.13631 0.4991,0.20455 -1.9008,0.40973 0.1278,-0.13422 -0.1491,0.3541 -0.055,0.0976 -0.4582,0.13436 -0.7414,0.15925 -0.2625,0.0238 -1.073,-0.0464 -0.8099,-0.0241 4.2557,0.35523 4.1046,-0.18166 4.0865,0.47086 0.6936,0.5695 -0.2887,-0.40299 -1.1784,0.24602 -0.1694,0.12361 1.0243,0.0828 1.0152,0.21903 -0.01,0.12292 -0.6787,0.0923 -1.0374,0.10897 -0.7899,0.0373 -1.637,-0.0385 -2.3875,0.053 -0.2096,0.0268 0.2025,0.13424 0.3037,0.20166 0.2865,0.0693 0.5851,0.13383 0.8598,0.2084 0.1967,0.0535 0.3199,0.14227 0.5511,0.17663 0.5875,0.0871 2.4041,0.0708 1.8486,0.17941 -0.941,0.18393 -3.9976,-0.17251 -3.2453,0.0935 1.036,0.36628 9.3211,-0.0264 0.1683,0.30008 0.3065,0.44134 2.588,0.0186 2.9066,0.35121 0.2306,0.24051 -1.4456,0.12084 -2.1673,0.1824 -0.6907,0.059 -2.7282,0.0873 -2.0696,0.17943 3.6006,0.50352 5.9714,-0.21143 3.9082,0.33867 -0.5893,0.0601 -2.0078,-0.011 -1.768,0.18035 0.3016,0.24231 1.5348,0.0976 2.2442,0.20261 0.2391,0.0355 0.3704,0.1279 0.5005,0.20456 0.107,0.0631 0.397,0.18017 0.1982,0.20744 -0.9943,0.13644 -2.1209,0.1135 -3.1632,0.19874 -0.5736,0.047 -1.1145,0.13203 -1.6718,0.19779 0.194,0.0714 0.8077,0.1546 0.5817,0.2142 -0.064,0.0186 -0.1265,0.0271 -0.1903,0.0424 0.932,0.0703 2.1282,0.19118 3.6893,0.39848 -0.8683,0.0666 -1.7366,0.13411 -2.605,0.20069 -0.042,0.0312 -0.212,0.0755 -0.1262,0.0935 0.4568,0.0939 1.001,0.12596 1.5014,0.18911 -2.6139,0.12109 -2.5039,0.0189 0.144,0.32803 -0.2503,0.7734 66.396203,0.11962 66.396203,0.11962 0,0 1.2533,-0.0825 6.9104,-0.0878 -1.3069,-0.12084 -2.6635,-0.19193 -3.9211,-0.36278 -0.3568,-0.0484 -0.8892,-0.15142 -0.8063,-0.27883 0.091,-0.13984 0.7512,-0.1305 1.1186,-0.20068 0.3597,-0.0687 1.0868,-0.077 1.0615,-0.21709 -0.099,-0.54669 -3.1514,0.10431 0.1697,-0.43901 0.3985,-0.0656 1.526,-0.0977 1.1956,-0.19778 -0.2491,-0.0758 -3.8089,-0.23155 -4.2961,-0.40619 -0.2025,-0.0726 0.5595,-0.10982 0.6459,-0.20551 0.1371,-0.15161 -0.1425,-0.19812 -0.4548,-0.20937 0.4373,-0.0268 1.0815,-0.0744 2.2065,-0.17457 -0.6062,-0.12279 -0.9474,-0.16879 -1.4188,-0.33867 -0.1483,-0.0535 -0.5857,-0.15049 -0.3857,-0.17849 0.9207,-0.12844 2.1107,0.01 2.9401,-0.17941 0.6103,-0.13783 -2.1419,-0.0915 -1.9719,-0.32902 -0.5432,-0.047 -1.1828,-0.0273 -1.6297,-0.1419 -0.1989,-0.0512 0.4438,-0.0809 0.6858,-0.10137 0.479,-0.0405 1.1083,0.0371 1.4622,-0.0802 0.2233,-0.0741 -0.994,-0.0195 -0.8712,-0.1157 0.3166,-0.25087 2.3965,0.13093 0.2117,-0.19875 -6.7351,-0.62288 0.016,0.0699 1.2013,-0.17943 0.8394,-0.17663 -3.6965,-0.17532 -2.8061,-0.32032 0.8264,-0.13438 1.5147,-0.22071 2.0953,-0.27403 -0.02,-0.01 -0.04,-0.0191 -0.061,-0.0271 -0.2736,-0.13148 0.9331,-0.0562 1.3995,-0.084 -2.48,-0.32015 -2.1491,-0.14882 -0.318,-0.34446 0.6242,-0.0666 2.4393,-0.1419 1.8408,-0.23155 -1.4208,-0.21329 -3.1028,-0.0857 -4.6276,-0.18615 -0.1211,-0.01 0.1375,-0.0699 0.206,-0.10517 1.5206,0.0369 3.0408,0.0736 4.5613,0.10995 -8.7341,-0.61151 -0.8855,-0.0269 -0.4512,-0.12458 0.6797,-0.1544 -1.6864,-0.0907 -2.3263,-0.26338 -0.2923,-0.0787 1.2164,0.053 1.1029,-0.0676 -0.1707,-0.18184 -1.9765,-0.23569 -1.443,-0.29523 1.0493,-0.11729 2.2025,0.0587 3.3037,0.0878 -8.6454,-0.69444 -2.1196,-0.10823 -1.316,-0.22286 0.4164,-0.0596 -0.7944,-0.14525 -1.1956,-0.21613 -0.569,-0.10003 -1.5697,-0.083 -1.7146,-0.29524 -0.1324,-0.19401 1.7669,0.0559 1.5834,-0.25857 -0.1279,-0.0476 -0.2477,-0.0986 -0.3793,-0.1447 0.8105,0.14582 1.798,0.19535 1.8287,-0.3647 0.01,-0.1283 -0.5868,-0.17232 -1.2676,-0.1824 0.3678,-0.0149 0.6459,-0.0235 1.1464,-0.0471 0.2264,-0.01 0.4282,-0.0538 0.6423,-0.0809 -0.5203,-0.0506 -1.6489,0.0301 -1.5613,-0.15143 0.09,-0.1852 1.1266,0.0186 1.6533,-0.0405 0.126,-0.0149 -0.072,-0.10138 -0.1961,-0.11668 -0.084,-0.01 -0.1762,-0.0149 -0.263,-0.0212 -4.526,-5.2e-4 -59.532003,-0.71378 -64.053603,-0.6696 z m 63.219403,4.27518 c -0.349,-5e-4 -0.7836,0.0189 -1.3139,0.0676 2.0353,0.94117 3.7574,-0.0631 1.3139,-0.0676 z m -75.020403,3.88343 c -2.5402,-0.0578 -0.7664,0.56808 1.3638,0.0713 -0.5505,-0.0414 -1.001,-0.0631 -1.3638,-0.0713 z m 3.8533,1.74441 c 0.01,0.001 0.015,0.001 0.026,0.004 -0.01,1.3e-4 -0.01,-1.7e-4 -0.018,9.8e-4 0.01,2.3e-4 0.025,-2.2e-4 0.034,0 0.2084,0.026 0.5001,0.0559 0.559,0.0888 0.043,0.0242 -0.4407,-0.01 -0.4214,0.0149 0.033,0.0425 0.3021,0.0873 0.5483,0.12158 -0.01,0.001 -0.017,0.001 -0.024,0.004 -0.337399,-0.0338 -0.8775,-0.0862 -1.8479,-0.17457 -1.6326,0.41286 5.1251,0.81394 10.2796,0.83074 v 0.004 c 2.343,0.007 54.765703,-0.0661 55.507703,-0.25374 0.638,0.006 4.6351,0.45664 2.6001,0.11092 -0.6032,-0.10235 -1.6663,-0.14768 -1.9249,-0.28654 -0.1747,-0.0937 1.0569,0.0768 1.5955,0.10994 0.3963,0.0244 0.8053,0.0424 1.2077,0.0637 -1.2135,-0.17121 -1.8247,-0.24973 -2.1259,-0.28559 0.436,0.0395 1.2022,0.0717 0.3564,-0.26438 -0.1486,-0.0587 -1.1187,-0.0149 -1.028,-0.0771 0,-0.004 0.015,-0.007 0.025,-0.011 -4.7436,0.31764 -60.093203,0.37181 -65.348903,0 z"
       sodipodi:nodetypes="sccscccccccccccsccscccssccccccscsscccsscccccccccccccsscccscccsccccccccsccccscccccccccccsccccccscccssssscsccccccccccccssscccscccc" />
    <path
       inkscape:export-ydpi="96"
       inkscape:export-xdpi="96"
       inkscape:export-filename="D:\Calcatz\Icon Pack\Adventure Narrative Inspired by Jumanji\Assets\PNG\Highlighter\04_main_menu_tab_not_selected.png"
       id="path24190"
       style="fill:#25272c;fill-opacity:0.329412;stroke-width:0.396875;stroke-linecap:round;stroke-opacity:0.326613;paint-order:fill markers stroke"
       d="m 146.71644,154.62308 -57.813003,0.0684 c -0.072,0.0124 -0.1428,0.0251 -0.1875,0.0449 -0.2484,0.1048 0.5853,0.18366 0.9382,0.23598 0.5709,0.0845 1.2562,0.0589 1.793,0.16825 0.1852,0.0383 0.09,0.14848 0.1355,0.22314 -0.9401,0.0367 -2.0907,-0.11203 -2.8204,0.10407 -0.4613,0.13671 2.2117,0.1622 1.6561,0.24167 -0.9452,0.13465 -2.0295,-0.0619 -3.0441,-0.0435 -0.4996,0.0124 -0.9742,0.0836 -1.4601,0.1276 -0.5905,0.0514 -1.4793,-0.0312 -1.7695,0.16113 -0.2247,0.14849 0.6522,0.24101 0.9781,0.36217 -5.3236,0.32664 -2.3036,0.0349 2.0932,0.42205 1.9695,0.1736 -3.1441,-0.15924 -3.8933,0.10334 -0.2512,0.0879 0.353,0.21585 0.5596,0.31653 0.2296,0.11203 0.4972,0.21348 0.7458,0.32011 -2.8362,0.65072 0.1906,-0.21217 -0.221,0.55681 -0.082,0.15363 -0.6838,0.21297 -1.1065,0.25236 -0.3919,0.0348 -1.602,-0.0687 -1.2091,-0.0365 6.3542,0.54432 6.1265,-0.29958 6.1019,0.72648 1.0375,0.89326 -0.4321,-0.63347 -1.7581,0.38997 -0.2523,0.19504 1.5296,0.12693 1.5164,0.34149 -0.012,0.1936 -1.0126,0.14818 -1.5477,0.17681 -1.1791,0.0613 -2.4446,-0.0562 -3.5647,0.0905 -0.3128,0.0392 0.3029,0.21198 0.4542,0.31796 0.428,0.10823 0.8745,0.20774 1.2847,0.32438 0.2939,0.0839 0.4774,0.22195 0.8227,0.27518 0.8774,0.13493 3.5894,0.1037 2.7604,0.27661 -1.4041,0.29288 -5.9684,-0.25856 -4.8443,0.15756 1.2341,0.45654 8.758,0.16329 5.0689,0.29088 l 2.7005,-0.002 c -0.038,0.0171 -0.079,0.0332 -0.1147,0.0507 -0.2066,0.10064 -0.8109,0.22937 -0.5596,0.31724 0.7492,0.26262 5.8628,-0.0709 3.8933,0.1026 -4.3969,0.3871 -7.4175,0.0961 -2.0939,0.42276 -0.3259,0.12109 -1.2021,0.21369 -0.9774,0.36218 0.2902,0.19237 1.179,0.1097 1.7695,0.16112 0.4859,0.044 0.9605,0.11448 1.46,0.12692 1.0147,0.0185 2.0983,-0.17813 3.0435,-0.0435 0.5556,0.0795 -2.1167,0.10492 -1.6554,0.24167 0.7297,0.21606 1.8803,0.0673 2.8203,0.10407 -0.045,0.0747 0.05,0.18479 -0.1354,0.22315 -0.5368,0.10934 -1.2222,0.0839 -1.7931,0.16825 -0.3529,0.0523 -1.1866,0.13107 -0.9382,0.23598 0.045,0.0198 0.1155,0.0326 0.1875,0.0449 l 40.902503,0.0684 c 0.1285,-0.0388 0.2203,-0.0829 0.2182,-0.14188 -0.044,-0.88118 -1.5179,-0.80665 -2.7284,-0.58031 0.1967,-0.0731 0.3757,-0.15265 0.5668,-0.22742 0.275,-0.49427 -2.5618,-0.10664 -2.3633,-0.41136 0.217,-0.33338 1.7111,-0.30292 2.5608,-0.45841 0.5991,-0.10921 2.4073,-0.24172 1.7859,-0.33651 -1.1992,-0.18334 -10.9431,0.71801 1.9655,-0.34505 -1.6441,0.0422 -3.3668,0.31495 -4.9327,0.12693 -0.5614,-0.0675 0.6032,-0.13038 1.4344,-0.25953 l 5.7062,-0.006 c -0.028,-0.01 -0.062,-0.01 -0.089,-0.0164 -0.297,-0.0798 0.66189,-0.12871 1.0231,-0.16182 0.715,-0.0648 1.6543,0.0539 2.1822,-0.1319 0.3332,-0.11705 -1.4833,-0.0223 -1.3003,-0.17751 0.4717,-0.39565 3.5777,0.19738 0.31509,-0.3144 -10.05659,-0.95679 0.025,0.11081 1.79301,-0.28516 1.2524,-0.28026 -5.5194,-0.26433 -4.1906,-0.49479 1.2332,-0.21403 2.2603,-0.35231 3.1269,-0.43844 -0.03,-0.0124 -0.06,-0.0262 -0.091,-0.0435 -0.409,-0.20574 1.3927,-0.0906 2.08889,-0.13686 -3.70329,-0.49508 -3.20849,-0.22702 -0.47559,-0.5411 0.9315,-0.10812 3.6407,-0.23078 2.74689,-0.37 -2.12169,-0.33062 -4.63229,-0.12541 -6.90889,-0.27806 -0.1809,-0.0124 0.2051,-0.11104 0.30729,-0.1661 2.27,0.0526 4.53971,0.1059 6.80981,0.15827 -13.0408,-0.93219 -1.32241,-0.0355 -0.6744,-0.19391 1.0141,-0.24512 -2.5175,-0.13782 -3.4734,-0.40709 -0.43661,-0.12319 1.816,0.0806 1.64619,-0.10909 -0.25549,-0.28553 -2.95139,-0.3642 -2.15519,-0.45982 1.5659,-0.18804 3.2879,0.084 4.932,0.12623 -12.9086,-1.06306 -3.1647,-0.16171 -1.9655,-0.34505 0.62139,-0.0948 -1.1861,-0.2272 -1.78521,-0.3365 -0.84969,-0.15549 -2.34379,-0.12499 -2.56079,-0.45841 -0.1984,-0.30467 2.6376,0.0829 2.3626,-0.41137 -0.19111,-0.0748 -0.3701,-0.15429 -0.56681,-0.22741 1.2105,0.22636 2.68531,0.30087 2.7291,-0.58032 10e-6,-0.0589 -0.09,-0.10319 -0.21889,-0.14185 z m -0.787,4.81152 c -0.5211,1.7e-4 -1.1691,0.0327 -1.9606,0.11117 3.0416,1.47324 5.6082,-0.1124 1.9606,-0.11117 z"
       sodipodi:nodetypes="ccccccccccccccccsccccccccccscccccccccccccccccccccsccccccccccccccccccccccccscccccccccscs" />
  </g>
</svg>
