<?xml version="1.0" encoding="UTF-8" standalone="no"?>
<svg
   xmlns:dc="http://purl.org/dc/elements/1.1/"
   xmlns:cc="http://creativecommons.org/ns#"
   xmlns:rdf="http://www.w3.org/1999/02/22-rdf-syntax-ns#"
   xmlns:svg="http://www.w3.org/2000/svg"
   xmlns="http://www.w3.org/2000/svg"
   xmlns:sodipodi="http://sodipodi.sourceforge.net/DTD/sodipodi-0.dtd"
   xmlns:inkscape="http://www.inkscape.org/namespaces/inkscape"
   sodipodi:docname="11_options_highlight.svg"
   inkscape:version="1.0 (4035a4fb49, 2020-05-01)"
   id="svg11522"
   version="1.1"
   viewBox="0 0 32.233921 11.753531"
   height="11.753531mm"
   width="32.233921mm">
  <defs
     id="defs11516" />
  <sodipodi:namedview
     inkscape:window-maximized="1"
     inkscape:window-y="-8"
     inkscape:window-x="-8"
     inkscape:window-height="705"
     inkscape:window-width="1366"
     fit-margin-bottom="0"
     fit-margin-right="0"
     fit-margin-left="0"
     fit-margin-top="0"
     showgrid="false"
     inkscape:document-rotation="0"
     inkscape:current-layer="layer1"
     inkscape:document-units="mm"
     inkscape:cy="25.18058"
     inkscape:cx="80.541008"
     inkscape:zoom="3.7965805"
     inkscape:pageshadow="2"
     inkscape:pageopacity="0.0"
     borderopacity="1.0"
     bordercolor="#666666"
     pagecolor="#ffffff"
     id="base" />
  <metadata
     id="metadata11519">
    <rdf:RDF>
      <cc:Work
         rdf:about="">
        <dc:format>image/svg+xml</dc:format>
        <dc:type
           rdf:resource="http://purl.org/dc/dcmitype/StillImage" />
        <dc:title></dc:title>
      </cc:Work>
    </rdf:RDF>
  </metadata>
  <g
     transform="translate(50.020366,-87.160484)"
     id="layer1"
     inkscape:groupmode="layer"
     inkscape:label="Layer 1">
    <path
       sodipodi:nodetypes="scscccccccccccsccscccssccccccscsscccsscccccccccccccsscccscccsccccccccsccccscccccccccccsccccccsccccscsccccccccccccccssscccsccccc"
       d="m -42.010244,87.231369 c 0.082,0.0427 0.113,0.10136 0.1857,0.14684 -3.4672,0.31256 -0.1204,-0.0774 1.1592,0.36491 0.379,0.13089 -1.2034,0.0172 -1.5546,0.15591 -0.1921,0.0763 0.4517,0.13569 0.7243,0.17461 0.4409,0.0628 0.97,0.0448 1.3844,0.12565 0.1431,0.0275 0.07,0.10909 0.1049,0.16364 -0.7261,0.0239 -1.6145,-0.0852 -2.1785,0.0724 -0.3566,0.0994 1.7077,0.12268 1.2783,0.18018 -0.7304,0.0974 -1.5673,-0.0492 -2.3512,-0.0366 -0.3858,0.007 -0.7524,0.0591 -1.1279,0.0902 -0.4562,0.0376 -1.1426,-0.0236 -1.3672,0.11563 -0.1738,0.10874 0.5032,0.17806 0.7548,0.26701 -4.1128,0.23056 -1.7794,0.0241 1.6162,0.31377 1.521,0.13045 -2.4282,-0.12256 -3.0073,0.069 -0.1941,0.0641 0.2722,0.15831 0.4317,0.23252 0.1771,0.0828 0.3836,0.15719 0.5754,0.23588 -2.1919,0.47247 0.1475,-0.15478 -0.1718,0.40832 -0.063,0.11255 -0.5284,0.15494 -0.855,0.18364 -0.3027,0.0275 -1.2374,-0.0535 -0.9339,-0.0278 4.9073,0.40963 4.7331,-0.20948 4.7123,0.54297 0.7998,0.65671 -0.3329,-0.46471 -1.359,0.28369 -0.1952,0.14254 1.1813,0.0955 1.1707,0.25258 -0.012,0.14174 -0.7826,0.10643 -1.1962,0.12565 -0.9108,0.043 -1.887601,-0.0444 -2.7532,0.0611 -0.241601,0.0309 0.2336,0.1548 0.3502,0.23254 0.3305,0.0799 0.6748,0.15433 0.991499,0.24032 0.226901,0.0617 0.368901,0.16405 0.635501,0.20368 0.6776,0.10043 2.7724,0.0816 2.1317,0.20688 -1.0851,0.2121 -4.6098,-0.19893 -3.7422,0.10782 1.1945,0.42237 10.7484,-0.0304 0.194099,0.34603 0.3534,0.50893 2.984201,0.0215 3.351601,0.405 0.2659,0.27734 -1.667,0.13934 -2.4991,0.21033 -0.7965,0.068 -3.1461,0.10067 -2.3867,0.20691 4.1522,0.58063 6.886,-0.24381 4.5069,0.39053 -0.6796,0.0693 -2.3153,-0.0127 -2.0389,0.20797 0.3479,0.27942 1.7699,0.11255 2.588,0.23364 0.2757,0.0409 0.427,0.14749 0.5771,0.23589 0.1234,0.0728 0.4578,0.20776 0.2286,0.2392 -1.1466,0.15734 -2.4457,0.13088 -3.6477,0.22918 -0.6614,0.0542 -1.285201,0.15225 -1.9279,0.22808 0.2239,0.0823 0.9315,0.17827 0.6709,0.247 -0.074,0.0215 -0.1458,0.0312 -0.2195,0.0489 1.0747,0.0811 2.4542,0.22046 4.2544,0.45951 -1.0013,0.0768 -2.0027,0.15464 -3.004,0.23142 -0.048,0.036 -0.2445,0.0871 -0.1455,0.10782 0.5268,0.10828 1.1542,0.14525 1.7313,0.21807 -3.0142,0.13963 -2.8874,0.0218 0.166099,0.378259 3.862901,0.74867 18.584801,-0.0181 18.246601,0.13794 0,0 1.4452,-0.0951 7.968701,-0.10124 -1.507101,-0.13935 -3.071302,-0.22133 -4.521602,-0.418339 -0.4113,-0.0558 -1.0253,-0.17461 -0.929799,-0.32153 0.105,-0.16125 0.866299,-0.15048 1.289899,-0.23141 0.414801,-0.0792 1.2534,-0.0888 1.224201,-0.25034 -0.1142,-0.63041 -3.634,0.12029 0.195601,-0.50624 0.4596,-0.0756 1.759699,-0.11266 1.378699,-0.22806 -0.287301,-0.0874 -4.3922,-0.26701 -4.954,-0.4684 -0.2336,-0.0837 0.645099,-0.12664 0.744799,-0.23698 0.1582,-0.17483 -0.164399,-0.22846 -0.524499,-0.24143 0.504399,-0.0309 1.2471,-0.0858 2.5444,-0.20131 -0.6989,-0.14159 -1.092499,-0.19464 -1.6359,-0.39053 -0.171199,-0.0617 -0.6755,-0.17354 -0.444799,-0.20582 1.061698,-0.14811 2.433798,0.0115 3.390299,-0.20689 0.703699,-0.15894 -2.469999,-0.10551 -2.273901,-0.37941 -0.626398,-0.0542 -1.363999,-0.0315 -1.879299,-0.16363 -0.2294,-0.059 0.5117,-0.0933 0.790801,-0.11689 0.5524,-0.0467 1.277998,0.0428 1.6861,-0.0925 0.257598,-0.0854 -1.146202,-0.0225 -1.004602,-0.13342 0.365101,-0.28929 2.763501,0.15098 0.2442,-0.22919 -7.766499,-0.71826 0.01799,0.0806 1.385202,-0.2069 0.967899,-0.20368 -4.262601,-0.20217 -3.235701,-0.36938 0.9529,-0.15496 1.746499,-0.25451 2.416199,-0.31599 -0.02299,-0.0115 -0.046,-0.022 -0.07,-0.0312 -0.315601,-0.15162 1.075899,-0.0648 1.613699,-0.0969 -2.859601,-0.36918 -2.478199,-0.17161 -0.366599,-0.39721 0.719698,-0.0768 2.812899,-0.16363 2.122599,-0.26701 -1.6382,-0.24595 -3.577799,-0.0988 -5.3362,-0.21465 -0.1397,-0.0115 0.1586,-0.0806 0.2376,-0.12128 1.753401,0.0425 3.506401,0.0849 5.2598,0.12679 -10.0717,-0.70516 -1.021199,-0.031 -0.520401,-0.14366 0.783801,-0.17805 -1.944598,-0.10459 -2.6825,-0.30371 -0.3371,-0.0908 1.402702,0.0611 1.2718,-0.078 -0.196898,-0.20968 -2.2791,-0.27178 -1.663999,-0.34044 1.21,-0.13525 2.539801,0.0677 3.8096,0.10125 -9.9693,-0.80079 -2.4442,-0.12481 -1.517499,-0.25699 0.4802,-0.0687 -0.916101,-0.1675 -1.378702,-0.24923 -0.655999,-0.11535 -1.810099,-0.0957 -1.977199,-0.34045 -0.152699,-0.22372 2.037501,0.0645 1.8259,-0.29817 -0.1475,-0.0549 -0.285501,-0.1137 -0.437301,-0.16686 0.934501,0.16815 2.073302,0.22527 2.108701,-0.42055 0.01201,-0.14795 -0.676699,-0.19871 -1.4618,-0.21033 0.424199,-0.0172 0.7449,-0.0271 1.321999,-0.0543 0.261202,-0.0115 0.4938,-0.062 0.740701,-0.0933 -0.5999,-0.0584 -1.9015,0.0347 -1.800299,-0.17462 0.1026,-0.21357 1.298998,0.0214 1.9064,-0.0467 0.145198,-0.0172 -0.083,-0.1169 -0.2261,-0.13455 -0.097,-0.0115 -0.203301,-0.0172 -0.3034,-0.0244 -9.118701,-0.12143 -17.970101,-0.07 -22.586901,-0.002 z m 21.624701,4.15999 c -0.402601,-5.82e-4 -0.9037,0.0218 -1.5152,0.078 2.347,1.0853 4.332798,-0.0728 1.5152,-0.078 z m -28.191801,4.47814 c -2.929,-0.0666 -0.8836,0.65507 1.5728,0.0822 -0.6349,-0.0477 -1.1543,-0.0728 -1.5728,-0.0822 z m 4.4436,2.011539 c 0.011,10e-4 0.017,10e-4 0.03,0.005 -0.012,1.5e-4 -0.012,-2e-4 -0.021,0.001 0.012,2.6e-4 0.029,-2.6e-4 0.039,0 0.2403,0.03 0.5766,0.0645 0.6445,0.1024 0.05,0.0279 -0.5081,-0.0115 -0.4858,0.0172 0.038,0.049 0.3483,0.10067 0.6321,0.1402 -0.011,10e-4 -0.02,10e-4 -0.028,0.005 -0.3889,-0.039 -1.0117,-0.0994 -2.1309,-0.2013 -1.8825,0.47608 5.91,0.93858 11.854,0.95796 v 0.005 c 2.7018,0.008 4.835,-0.0762 5.6908,-0.2926 0.7357,0.007 5.3448,0.52657 2.9981,0.12791 -0.6954,-0.11803 -1.9215,-0.1703 -2.2197,-0.33042 -0.2013,-0.10805 1.2188,0.0886 1.8399,0.12677 0.457,0.0281 0.9286,0.0489 1.3926,0.0735 -1.3993,-0.19743 -2.104,-0.28798 -2.4514,-0.32933 0.5028,0.0455 1.3863,0.0827 0.4111,-0.30487 -0.1715,-0.0677 -1.2901,-0.0172 -1.1856,-0.0889 0.012,-0.005 0.017,-0.008 0.029,-0.0127 -5.3204,0.36629 -11.3426,0.36019 -17.039,0 z"
       style="fill:#c8beb8;fill-opacity:1;stroke-width:0.457652;stroke-linecap:round;stroke-opacity:0.326613;paint-order:fill markers stroke"
       id="path9161"
       inkscape:export-filename="D:\Calcatz\Icon Pack\Adventure Narrative Inspired by Jumanji\Assets\PNG\Highlighter\15_options_highlight.png"
       inkscape:export-xdpi="96"
       inkscape:export-ydpi="96" />
  </g>
</svg>
