<?xml version="1.0" encoding="UTF-8" standalone="no"?>
<svg
   xmlns:dc="http://purl.org/dc/elements/1.1/"
   xmlns:cc="http://creativecommons.org/ns#"
   xmlns:rdf="http://www.w3.org/1999/02/22-rdf-syntax-ns#"
   xmlns:svg="http://www.w3.org/2000/svg"
   xmlns="http://www.w3.org/2000/svg"
   xmlns:sodipodi="http://sodipodi.sourceforge.net/DTD/sodipodi-0.dtd"
   xmlns:inkscape="http://www.inkscape.org/namespaces/inkscape"
   sodipodi:docname="16_main_menu_episodes_selected.svg"
   inkscape:version="1.0 (4035a4fb49, 2020-05-01)"
   id="svg17080"
   version="1.1"
   viewBox="0 0 57.944393 106.85328"
   height="106.85328mm"
   width="57.944393mm">
  <defs
     id="defs17074" />
  <sodipodi:namedview
     inkscape:window-maximized="1"
     inkscape:window-y="-8"
     inkscape:window-x="-8"
     inkscape:window-height="705"
     inkscape:window-width="1366"
     fit-margin-bottom="0"
     fit-margin-right="0"
     fit-margin-left="0"
     fit-margin-top="0"
     showgrid="false"
     inkscape:document-rotation="0"
     inkscape:current-layer="layer1"
     inkscape:document-units="mm"
     inkscape:cy="106.33332"
     inkscape:cx="14.825692"
     inkscape:zoom="0.33557348"
     inkscape:pageshadow="2"
     inkscape:pageopacity="0.0"
     borderopacity="1.0"
     bordercolor="#666666"
     pagecolor="#ffffff"
     id="base" />
  <metadata
     id="metadata17077">
    <rdf:RDF>
      <cc:Work
         rdf:about="">
        <dc:format>image/svg+xml</dc:format>
        <dc:type
           rdf:resource="http://purl.org/dc/dcmitype/StillImage" />
        <dc:title></dc:title>
      </cc:Work>
    </rdf:RDF>
  </metadata>
  <g
     transform="translate(-101.9107,-120.03264)"
     id="layer1"
     inkscape:groupmode="layer"
     inkscape:label="Layer 1">
    <path
       inkscape:export-ydpi="96"
       inkscape:export-xdpi="96"
       inkscape:export-filename="D:\Calcatz\Icon Pack\Adventure Narrative Inspired by Jumanji\Assets\PNG\Highlighter\07_main_menu_episodes_selected.png"
       id="path24200"
       style="fill:#cbbfba;fill-opacity:0.7;stroke:none;stroke-width:0.813591;stroke-linecap:square;stroke-miterlimit:4;stroke-dasharray:none;stroke-opacity:0.5;paint-order:fill markers stroke"
       d="m 142.19768,226.88592 c 0.058,-1.1745 0.025,-2.6785 -0.2183,-3.5212 -0.1401,-0.4849 -0.099,1.4772 -0.2638,1.8541 -0.1002,0.2288 -0.2107,-0.5612 -0.3288,-0.4987 -0.147,0.078 -0.2826,1.2886 -0.3712,0.8692 -0.1822,-0.8622 -0.087,-2.4865 -0.1596,-3.5104 -0.047,0.493 -0.094,0.8269 -0.1193,0.4863 -0.034,-0.4563 -0.062,-0.9067 -0.086,-1.3518 0,0 0,-0.01 -0.01,-0.01 -0.3633,-0.3199 -0.2349,2.499 -0.3525,3.7486 -0.41,-3.0141 -0.1382,-3.1622 -0.6807,-1.6496 -0.1022,0.2849 -0.1807,0.7338 -0.3065,0.8553 -0.094,0.091 -0.2047,-0.4979 -0.282,-0.2873 -0.149,0.4058 -0.081,1.9745 -0.2603,1.7642 -0.2493,-0.2933 -0.2899,-1.5 -0.4085,-2.3642 -0.026,0.092 -0.058,0.1725 -0.099,0.2248 -0.079,0.1017 -0.1524,0.1861 -0.2203,0.2548 -0.023,0.056 -0.046,0.1119 -0.069,0.1679 0,-0.03 0,-0.072 -0.01,-0.1049 -0.4763,0.4223 -0.651,-0.01 -0.6611,-0.8082 -0.051,0.7299 -0.1025,1.4695 -0.2296,1.9653 -0.093,0.3638 -0.1151,-0.9148 -0.1239,-1.4036 -0.1466,-8.0925 0.1936,0.033 -0.045,-5.1309 -0.2035,1.6547 -0.2222,3.7849 -0.6103,4.964 -0.1388,0.4217 -0.017,-0.8223 0,-1.8164 -0.019,0.01 -0.037,0.019 -0.053,0.051 -0.2898,0.5928 -0.2682,1.0879 -0.2975,1.0847 -0.019,0.086 -0.042,0.1032 -0.072,0 -0.031,-0.1043 -0.051,-0.265 -0.062,-0.4532 -0.043,-0.1499 -0.096,-0.3321 -0.1722,-0.5721 -0.012,0.013 -0.023,0.018 -0.034,0.024 -0.1983,2.8903 -0.108,5.6277 -0.1897,0.4796 0,-0.193 0,-0.42911 0.01,-0.68211 -0.104,-0.27689 -0.1932,-0.7474 -0.296,-0.9633 0.012,0.89921 0.027,1.8122 -0.042,2.58851 -0.036,0.4016 -0.114,-0.74211 -0.1561,-1.1364 -0.033,-0.3054 -0.035,-0.7821 -0.044,-1.21081 -0.074,0.41581 -0.1227,1.02931 -0.211,0.81031 -0.07,-0.173 -0.1038,-0.448 -0.126,-0.75651 -0.045,0.65761 -0.048,1.5186 -0.037,2.19881 -0.027,-0.7778 -0.088,-2.24331 -0.1768,-4.22091 -0.064,-0.098 -0.1141,0.1314 -0.1602,0.4413 -0.3227,8.75981 0.1316,4.42971 -0.4713,2.44691 -0.07,-0.231 -0.2087,0.085 -0.2872,-0.1111 -0.1335,-0.33351 -0.1393,-1.40231 -0.3028,-1.36071 -0.174,0.044 -0.1591,1.8884 -0.297,1.51311 -0.1911,-0.5198 -0.2214,-1.4512 -0.2696,-2.33731 -0.2042,0.936 -0.6529,2.15401 -0.7222,1.51721 -0.01,-0.065 -0.013,-0.1448 -0.019,-0.2186 -0.014,1.1142 -0.013,2.2391 -0.1239,3.267 -0.059,0.5451 -0.1544,-1.0395 -0.2038,-1.5963 -0.2514,-2.83231 -0.038,-3.16911 -0.2245,-3.27471 0.01,1.5589 0.062,3.1884 -0.032,4.64621 -0.03,0.4762 -0.2742,1.41589 -0.3167,0.9514 -0.2289,-2.497 -0.2076,-5.19581 -0.3111,-7.79391 0,0.013 -0.052,0.3534 -0.064,0.4383 -5.3e-4,0 0,0.012 0,0.015 -0.018,0.1612 -0.034,0.3175 -0.047,0.4387 -0.1355,1.2425 -0.029,2.88881 -0.2878,3.86131 -0.077,0.2893 -0.1,-0.4395 -0.1452,-1.0325 -0.029,0.1954 -0.1025,0.7071 -0.1057,0.7193 -0.056,0.2153 -0.1624,0.1232 -0.2478,0.1679 -0.015,0.2384 -0.034,0.4652 -0.067,0.645 -0.039,0.2139 -0.094,0.3795 -0.1524,0.5369 -0.035,0.3509 -0.076,0.6389 -0.167,0.6212 -0.3231,-0.063 -0.3433,-0.8098 -0.3136,-1.385 -0.01,-0.074 -0.013,-0.149 -0.018,-0.2268 -0.047,0.2801 -0.1146,0.6727 -0.2437,1.3673 -0.076,-1.096 -0.1017,-2.2555 -0.2001,-3.32331 -0.023,0.38301 -0.05,0.75521 -0.1001,0.96321 -0.067,0.2772 -0.2145,0.074 -0.3002,0.277 -0.3233,1.2067 -0.2633,1.103 -0.4567,1.4811 -0.015,1.1111 -0.046,2.2099 -0.1395,3.2618 -0.065,0.7361 -0.2151,-1.3434 -0.3194,-2.0221 -0.036,-0.2358 -0.071,-0.4747 -0.1062,-0.7121 -2e-4,-5.3e-4 -4e-4,-5.3e-4 -5e-4,-0.001 -0.04,-0.1389 -0.068,-0.3557 -0.09,-0.601 -0.038,-0.2575 -0.077,-0.5141 -0.1151,-0.771 0.067,-0.2937 -0.072,-1.0733 -0.2608,-1.75131 -0.2408,0.51871 -0.058,2.62631 -0.2779,3.49801 -0.093,0.3674 -0.2691,-0.4 -0.3526,-0.7933 -0.1169,-0.5505 -0.1977,-0.9592 -0.2623,-1.3017 0,0.049 -0.01,0.1126 -0.011,0.1597 -0.134,-0.5326 -0.2856,-1.053 -0.4366,-1.5172 -0.052,0.715 -0.092,1.46 -0.2436,1.9264 -0.093,0.288 -0.229,-0.427 -0.2961,-0.7947 -0.1308,-0.7176 -0.042,-2.54551 -0.2789,-2.3611 -0.01,0.01 -0.018,0.022 -0.027,0.034 -0.1327,1.0148 -0.1308,2.2072 -0.2292,3.2757 -0.06,0.6512 -0.1891,2.5368 -0.2385,1.8749 -0.042,-0.5601 -0.074,-1.1104 -0.1016,-1.6521 -0.048,0.5148 -0.096,1.0297 -0.1446,1.5446 -0.068,-1.6339 -0.1362,-3.2681 -0.2043,-4.902 -0.1612,1.9795 -0.1225,2.2219 -0.3748,3.4049 -0.015,0.5819 -0.035,1.1613 -0.072,1.7291 -0.023,0.3481 -0.1585,1.0938 -0.2084,0.7829 -0.176,-1.0947 -0.1415,-2.4711 -0.2546,-3.6638 0,-0.037 -0.01,-0.071 -0.012,-0.107 -0.055,-0.1661 -0.1396,-0.2264 -0.2048,-0.3571 -0.078,-0.7077 -0.1566,-1.4152 -0.2348,-2.1229 -0.589,14.5342 0.045,1.9773 -0.3137,0.2589 -0.015,0.1058 -0.028,0.2111 -0.045,0.3173 -0.043,0.2693 -0.1336,0.2002 -0.238,0 -0.2003,1.4337 0.4102,5.081 -0.074,5.6999 -1.264,1.617 -1.0324,-1.0834 -0.675,-3.2851 -0.022,0.088 -0.044,0.1747 -0.065,0.2641 -0.073,0.3295 -0.1407,1.0995 -0.2152,1.3648 -0.01,0.1524 -0.023,0.4486 -0.026,0.5436 0,-0.1251 0,-0.3043 0,-0.4749 -0.023,0.046 -0.047,0.041 -0.072,-0.049 -0.1266,-0.4557 -0.1205,-1.3107 -0.1255,-2.0836 -0.023,-0.059 -0.048,-0.1105 -0.077,-0.1457 -0.1533,-0.1882 -0.2066,1.8502 -0.2934,1.3678 -0.034,-0.1892 -0.057,-0.3958 -0.075,-0.6097 -0.013,0.421 -0.033,0.8164 -0.083,1.0903 -0.056,0.3069 -0.2192,-0.027 -0.309,0.1566 -0.5074,1.0377 -0.059,1.7822 -0.6035,0.063 -0.2729,0.3095 -0.4043,-1.3958 -0.646,-1.2439 -0.1504,0.095 -0.195,1.4637 -0.3199,1.154 -0.2312,-0.5738 -0.087,-2.2228 -0.3256,-2.7554 -0.1385,-0.3085 -0.2093,0.8868 -0.3142,1.3301 -0.098,-0.3468 -0.1975,-0.6938 -0.296,-1.0407 -0.092,0.4408 -0.1851,1.7674 -0.2753,1.3224 -0.2228,-1.0999 0.042,-3.097 -0.2566,-3.9481 -0.1964,-0.5603 -0.058,1.9144 -0.2406,2.528 -0.086,0.2868 -0.1165,-0.8263 -0.2291,-0.9518 -0.081,-0.09 -0.147,0.3012 -0.2204,0.4516 -0.071,-0.1267 -0.1423,-0.2536 -0.2136,-0.3803 0.089,3.2401 -0.3735,-0.041 -0.4158,0.4459 -0.1501,1.7298 -0.022,3.6873 -0.2053,5.3775 -0.059,0.5451 -0.1549,-1.0395 -0.2043,-1.5963 -0.3169,-3.5714 0.1079,-3.1768 -0.4661,-3.3512 -0.087,-0.8225 -0.054,-1.9842 -0.2623,-2.467 -0.1234,-0.2854 -0.2157,0.7549 -0.2686,1.2397 -0.1355,1.2425 -0.029,2.8888 -0.2877,3.8612 -0.1278,0.4809 -0.1061,-1.8554 -0.2877,-1.695 -0.2211,0.1954 -0.1552,1.5201 -0.2779,2.1947 -0.07,0.384 -0.1932,0.6115 -0.2893,0.9173 -0.6168,-0.4904 -0.2291,-3.5533 -0.6139,-4.546 -0.1845,-0.4758 -0.1446,1.5685 -0.2924,2.1823 -0.067,0.2771 -0.214,0.074 -0.2997,0.277 -0.4118,1.5366 -0.1836,0.9096 -0.6771,1.9182 -0.674,1.4519 -0.3548,-3.3729 -0.7346,-3.1398 -0.3564,0.2186 -0.1145,2.6518 -0.3542,3.6039 -0.093,0.3675 -0.2695,-0.4 -0.353,-0.7933 -1.0166,-4.7871 0.1911,-0.8326 -0.6439,-3.393 -0.1031,0.8867 -0.1041,2.0288 -0.309,2.6603 -0.093,0.2879 -0.2296,-0.4271 -0.2966,-0.7948 -0.1308,-0.7175 -0.042,-2.5455 -0.2789,-2.3611 -0.2714,0.2112 -0.1038,1.9773 -0.2613,2.7817 -0.048,0.243 -0.1643,-0.1278 -0.2463,-0.1917 -0.078,0.8289 -0.1551,1.6578 -0.2328,2.4867 -0.074,-1.7872 -0.149,-3.5748 -0.2234,-5.362 -0.072,-0.025 -0.1974,-0.3221 -0.2162,-0.077 -0.1407,1.8409 -0.091,3.8122 -0.2116,5.6705 -0.023,0.3481 -0.1579,1.0938 -0.2079,0.7829 -0.1759,-1.0948 -0.1414,-2.4711 -0.2545,-3.6639 -0.064,-0.672 -0.1814,-1.2646 -0.2722,-1.897 -0.4828,-6.0617 -0.064,-3.0911 -0.5387,-0.1137 -0.127,0.7973 -0.6723,-1.3426 -0.7528,-1.295 -0.1233,0.073 -0.1718,0.6399 -0.2576,0.9596 -0.1989,3.0491 -0.2632,4.3903 -0.2831,4.9196 0.018,-0.7213 0.021,-2.3971 -0.2696,-2.7533 -0.1533,-0.1881 -0.2067,1.8503 -0.2935,1.3679 -0.2394,-1.3311 -0.011,-3.3829 -0.2903,-4.6126 -0.1344,-0.5906 -0.1963,1.3474 -0.3038,2.0024 -0.019,0.1149 -0.041,0.2234 -0.06,0.3364 -1.4305,-43.5013 0,-51.181 0,-91.89245 0.025,0.57555 0.038,0.95775 0.041,1.12805 0,-0.394 0.02,-1.80215 0.3235,-2.47885 0.6393,-1.4237 -0.073,4.72425 0.5838,-1.4185 0.1212,-1.1334 0.024,-2.6763 0.2768,-3.499 0.1363,-0.4434 0.1838,1.133 0.2759,1.6996 0.4649,1.2997 0.2222,0.3555 0.5143,3.3641 0.156,0.5552 0.2897,-1.8493 0.4961,-1.5616 0.1495,0.2083 0.105,1.4563 0.2655,1.4169 0.1724,-0.042 0.1822,-1.0325 0.2732,-1.5487 0.3794,-2.5885 0.184,-2.4336 0.5267,0.2212 0.065,0.508 0.063,1.2806 0.2079,1.5058 0.4016,0.6225 0.03,-2.9153 0.4278,-2.9166 0.2091,0 0.149,1.3734 0.2234,2.0598 0.5399,-7.9146 -0.075,-1.2881 0.4791,-0.1638 0.1977,0.4013 0.098,-1.6639 0.2613,-2.2247 0.071,-0.244 0.2122,0.1098 0.2789,0.3685 0.4994,1.936 0.1035,3.228 0.6056,-0.3266 0.1032,1.7878 0.067,3.7508 0.3095,5.36345 0.071,0.4712 0.2628,-0.6158 0.3349,-1.08465 1.1711,-7.6165 -0.3113,-0.093 0.7072,-5.3713 0.1171,-0.6071 0.2849,-2.4422 0.3707,-1.7735 0.2966,2.3128 0.2427,5.0013 0.3639,7.5019 0.1201,-1.9096 -0.084,-4.552 0.3604,-5.7284 0.3102,-0.8204 0.096,2.8132 0.3162,3.9378 0.07,0.3607 0.1893,-0.9861 0.2997,-0.7839 0.1793,0.3282 0.1055,1.5965 0.2924,1.8676 0.3824,0.5544 0.3502,-0.5016 0.2795,-1.2982 0.063,0.4938 0.155,1.1898 0.3349,2.43915 0.8867,-2.74855 -0.4975,1.9227 0.5667,-6.78825 0.06,-0.4957 0.1932,0.8385 0.2877,1.2635 0.097,0.4379 0.2371,0.7985 0.2878,1.325 0.1384,1.4393 -0.09,5.30955 0.2685,4.45915 0.4555,-1.08095 0.1748,-3.81255 0.2623,-5.71905 0.1501,3.4438 0.2202,5.24535 0.2593,6.32725 -0.049,-1.83705 -0.089,-5.01065 0.2068,-4.44615 0.3714,0.7077 -0.053,5.57125 0.2043,4.39395 0.3645,-1.66815 0.137,-4.17895 0.2053,-6.26825 0.069,0.2865 0.1149,1.0504 0.2069,0.8599 0.153,-0.3171 0.1391,-1.1474 0.2089,-1.7214 0.071,1.433 0.085,2.9156 0.2136,4.2985 0.025,0.2709 0.1827,0.6177 0.2204,0.3653 0.1528,-1.0228 -0.086,-3.0343 0.2291,-3.3709 0.2714,-0.2904 0.024,3.5079 0.2411,2.8676 0.643,-1.8933 -0.1019,-8.0942 0.532,-1.447 0.8455,-3.7088 -0.4338,1.2303 0.6096,4.61265 0.2791,0.9044 0.1646,-2.62605 0.3256,-3.83385 0.6315,-4.7357 0.591,8.24595 0.9659,-0.9364 0.1824,0.5506 0.4111,1.2835 0.5309,1.4873 0.044,-0.3823 0.1153,-0.7582 0.2276,-1.0361 0.041,-0.5163 0.07,-1.0646 0.154,-1.4935 0.071,-0.3629 0.245,-1.0061 0.3245,-0.6656 0.057,0.2453 0.083,0.5862 0.097,0.9571 0.016,-0.1464 0.012,-0.1147 0.03,-0.278 0.1213,-1.1334 0.024,-2.6763 0.2769,-3.4991 0.1362,-0.4433 0.1838,1.1331 0.2758,1.6997 0.4649,1.2997 0.2227,0.3555 0.5148,3.3641 0.035,0.1229 0.068,0.096 0.1011,-0.01 0,-0.8017 -0.032,-1.6783 0.083,-2.3125 0.062,-0.3428 0.068,0.6338 0.1327,1.1395 0.054,-0.2755 0.1132,-0.4711 0.1794,-0.3788 0.03,0.042 0.051,0.1318 0.068,0.2382 0.1702,-1.2923 -0.067,-5.0908 0.2899,-4.1072 0.4142,3.0229 0.1305,0.7743 0.2877,2.9419 0.2077,-1.5764 0.1237,-1.2694 0.4189,1.0165 0.065,0.508 0.063,1.2806 0.2084,1.5058 0.4016,0.6226 0.03,-2.9152 0.4272,-2.9166 0.065,0 0.1025,0.1422 0.1276,0.3467 0.028,-0.1658 0.063,-0.3143 0.1151,-0.4175 0.052,-0.1028 0.091,-0.1163 0.1213,-0.065 0.1996,-3.2666 -0.1291,1.0828 0.3386,2.0319 0.1977,0.4013 0.099,-1.6639 0.2618,-2.2246 0.071,-0.244 0.2122,0.1097 0.2789,0.3684 0.4994,1.936 0.1035,3.228 0.6056,-0.3266 0.1032,1.7879 0.066,3.7508 0.3089,5.3635 0,0.029 0.011,0.035 0.016,0.053 0.097,-0.4492 0.214,-0.8595 0.2676,-1.3859 0.1496,-1.4712 -0.046,-3.6461 0.3157,-4.5543 0.1147,-0.288 0.1586,0.1508 0.1877,0.7855 0.054,-0.2949 0.082,-0.4584 0.2551,-1.3545 0.1171,-0.6071 0.2854,-2.4422 0.3712,-1.7735 0.2966,2.3127 0.2422,5.0013 0.3634,7.5019 0.1201,-1.9096 -0.084,-4.552 0.3603,-5.7284 0.2983,-0.789 0.1132,2.535 0.294,3.7915 0.015,0.027 0.03,0.042 0.048,0.029 0.031,-0.022 0.058,-0.055 0.082,-0.091 0.055,-0.2659 0.1154,-0.622 0.17569,-0.5916 0.17271,-1.2724 -0.22649,-3.3988 0.31681,0.7715 0.097,-0.6543 0.1607,-2.5439 0.28979,-1.9627 0.1873,0.8433 0.1423,2.0574 0.1716,3.1626 0.05,0.3614 0.067,0.5137 0.1447,1.0532 0.1465,-0.4542 0.21641,-0.668 0.2602,-0.8108 0,-0.03 0.012,-0.082 0.017,-0.1075 0.01,-0.042 0.014,-0.087 0.022,-0.1297 -0.076,-0.069 -0.4312,-0.02 0.26751,-5.7402 0.061,-0.4958 0.19319,0.8384 0.28779,1.2635 0.097,0.4378 0.2376,0.7985 0.2883,1.3249 0.01,0.076 0.01,0.1821 0.015,0.2708 0.029,-0.358 0.056,-0.7207 0.098,-1.0464 0.1033,-0.032 0.2373,-0.3554 0.31,-0.096 0.032,0.1152 0.062,0.2478 0.09,0.3922 8e-4,-0.2704 0.01,-0.533 0.018,-0.7809 0.022,0.5072 0.032,0.7539 0.05,1.1927 0.082,0.5655 0.1391,1.2558 0.1846,1.9508 0.022,-0.9166 0.087,-1.5381 0.2312,-1.2624 0.2493,0.4752 0.1459,2.7274 0.1249,3.8633 0.2106,-2.244 0,-4.9211 0.2188,-7.1996 0.058,-0.611 0.2046,0.3594 0.3723,1.8862 0.05,-0.3865 0.061,-0.8921 0.1088,-1.2857 0.071,1.4331 0.086,2.9156 0.2142,4.2985 0.01,0.09 0.033,0.1808 0.061,0.2625 0.036,-1.0257 0.086,-2.0311 0.2322,-2.9048 0.016,-0.093 0.033,-0.1219 0.051,-0.11 0.025,-0.1141 0.059,-0.2036 0.1053,-0.2532 0.1583,-0.1695 0.1406,1.0455 0.141,1.9662 5.3e-4,0 7.9e-4,0.011 0,0.015 0.03,0.3061 0.053,0.618 0.076,0.9307 0.01,-0.012 0.014,-0.019 0.023,-0.045 0.6429,-1.8932 -0.1019,-8.0941 0.5319,-1.4469 0.5841,-2.5621 0.1549,-0.9964 0.1773,1.3312 0.019,-0.3216 0.042,-0.6383 0.075,-0.9473 0.1022,-0.9616 0.1814,1.9509 0.2722,2.9265 0.6181,-10.4662 0.089,-3.7771 0.3324,-1.3198 0.016,-0.4767 0.039,-0.9152 0.079,-1.2118 0.1016,-0.7622 0.1857,-1.0638 0.2571,-1.0744 0.016,-0.3942 0.057,-0.6887 0.1477,-0.7648 0.3235,-0.2696 0.055,2.395 0.2121,3.4236 0.041,0.2645 0.1368,0.042 0.238,-0.2595 0.033,-0.5279 0.069,-1.2389 0.1104,-2.2613 0.1044,0.3151 0.2226,0.6805 0.3287,0.9839 0.4737,-2.287 0.086,-0.7933 0.1758,0.4506 0.047,0.096 0.084,0.1434 0.1,0.09 0.1912,-0.6409 0.1585,-1.8018 0.3084,-2.5668 0.071,-0.3629 0.2455,-1.0061 0.3251,-0.6655 0.22,0.9414 -0.012,3.2636 0.3298,3.4664 0.3061,0.1816 0.2055,-2.0584 0.3084,-3.0877 0.097,0.3646 0.2226,0.6568 0.2914,1.0935 0.053,0.3341 0.072,0.9867 0.095,1.5198 0.059,-0.1672 0.1424,-0.3213 0.2665,-0.4222 0.019,-0.8836 -0.044,-1.9237 0.088,-2.6484 0.082,-0.4539 0.064,1.4085 0.2177,1.4232 0.4554,0.044 0.023,-5.7155 0.4526,-4.5315 0.5093,3.7166 -0.048,-0.6553 0.4729,5.1836 0.034,0.3781 0.061,0.7913 0.1047,1.1643 0.023,-0.685 0.047,-1.2471 0.1073,-0.8935 0.072,0.4246 0.098,0.9651 0.1011,1.5498 0.048,-0.1481 0.099,-0.4251 0.1571,-0.4072 0.4481,0.1389 -0.039,2.0449 0.4226,-0.631 0.073,-1.1632 -0.077,-2.9048 0.2187,-3.4892 0.4611,-0.9118 -0.051,4.9223 0.4656,5.3304 0.2816,0.2226 0.1666,-5.6784 0.8098,-3.4215 0.054,0.9053 0.063,1.8739 0.098,2.8055 0.034,0.016 0.068,0.03 0.096,0.019 0.021,0.6617 0.042,1.3233 0.064,1.9849 0.015,0.1033 0.028,0.2097 0.046,0.3091 0.1003,0.56155 0.2084,-1.1075 0.3142,-1.6563 0.1007,-0.5221 0.245,-0.9626 0.3054,-1.5565 0.1496,-1.4711 -0.046,-3.646 0.3157,-4.5542 0.2453,-0.6157 0.1699,2.0473 0.309,2.9869 0.073,0.4958 0.2122,0.8323 0.3184,1.2485 0.9128,-7.035 -0.4748,2.3276 0.6309,1.9384 0.4423,-0.1557 0.043,-3.3061 0.309,-4.5568 0.1119,-0.5259 0.1297,1.7676 0.3127,1.635 0.6906,-0.5006 -0.1044,-5.1216 0.5744,0.088 0.097,-0.6543 0.1607,-2.5438 0.2898,-1.9626 0.2723,1.2261 0.05,3.2418 0.2862,4.5563 0.084,0.4673 0.2217,-0.7951 0.3074,-1.2589 0.1268,-0.686 0.2175,-1.4466 0.3261,-2.1699 0.1113,0.2124 0.2362,0.92 0.3339,0.6372 0.2023,-0.585 0.2122,-1.683 0.3184,-2.5244 0.1033,-0.032 0.2373,-0.3553 0.31,-0.096 0.4978,1.7785 0.4277,7.38035 0.619,6.0513 0.3411,-2.3689 0.06,-5.3767 0.2987,-7.8951 0.099,-1.0426 0.4494,2.3067 0.7382,5.6803 0.038,-1.2036 0.079,-2.4026 0.2505,-3.4236 0.093,-0.5538 0.2392,1.0101 0.2981,1.6185 0.1443,1.4927 0.1912,3.0814 0.3038,4.6075 0.085,1.15525 0.1564,4.53165 0.2893,3.43325 0.3073,-2.5404 0.015,-5.63195 0.2898,-8.21795 0.1022,-0.9617 0.1819,1.9508 0.2727,2.9264 0.7217,-12.2203 -0.1248,-1.0345 0.5262,-0.5292 0.3682,0.2858 -0.078,-3.5359 0.2893,-3.8416 0.3235,-0.2696 0.054,2.3951 0.2121,3.4235 0.097,0.6318 0.5116,-1.4866 0.5521,-0.9332 0.8926,-4.1848 -0.1775,-0.1019 0.5657,0.7803 0.2008,0.2384 0.1917,-1.768 0.4033,-1.727 0.3268,0.063 0.061,3.9812 0.3956,2.8014 0.1984,-0.7004 0.2055,-1.8391 0.3085,-2.7585 0.5037,3.0396 -0.06,0.7526 0.6538,0.1767 0.1042,-0.084 0.207,0.4288 0.227,0.7979 0.056,1.0278 -0.1439,2.2001 -0.012,3.1393 0.086,0.6165 0.089,-1.3505 0.1768,-1.9652 0.044,-0.3087 0.1374,-0.491 0.2063,-0.7364 -0.016,7.07275 -0.03,-2.6309 0.2546,-3.2525 0.3788,-0.8285 -0.061,3.595 0.2826,4.5966 0.2244,0.6549 0.1563,-3.7593 0.3064,-2.8805 0.3277,1.9189 -0.2921,6.14425 0.3308,6.61195 0.5774,0.4336 0.2328,-4.06675 0.3494,-6.10035 0.21,3.6536 0.3119,5.65085 0.3749,6.98505 -0.054,-1.9421 -0.056,-4.62805 0.3504,-4.10095 0.3929,0.5097 0.015,4.99525 0.3707,4.21675 0.4723,-1.0345 0.1422,-3.90845 0.3287,-5.75055 0.03,-0.2932 0.1759,-0.071 0.2639,-0.1059 0.073,2.2602 0.1457,4.52025 0.2183,6.78045 0.068,0 0.1348,0.1016 0.1996,0.2883 1.2478,43.3433 0.6307,50.1835 0,92.1225 -0.065,0.1867 -0.1311,0.2889 -0.1996,0.2889 -0.073,-1.1738 0.025,-2.6786 -0.2183,-3.5213 -0.1401,-0.4848 -0.099,1.4772 -0.2639,1.8542 -0.1001,0.2288 -0.2106,-0.5613 -0.3287,-0.4987 -0.147,0.078 -0.2821,1.2886 -0.3707,0.8692 -0.2588,-1.2252 0.049,-4.0154 -0.3727,-4.3863 -0.3634,-0.3199 -0.235,2.499 -0.3526,3.7486 -0.41,-3.014 -0.1377,-3.1621 -0.6802,-1.6495 -0.1022,0.2849 -0.1812,0.7337 -0.3069,0.8552 -0.094,0.091 -0.2048,-0.4979 -0.2821,-0.2873 -0.149,0.4058 -0.081,1.9746 -0.2603,1.7642 -0.2713,-0.3192 -0.2937,-1.7265 -0.4406,-2.5895 -0.1183,0.2909 -0.2363,0.582 -0.3547,0.8729 -0.092,-1.0862 0.031,-3.617 -0.2747,-3.2582 -0.4349,0.5101 -0.3148,3.1137 -0.6217,4.3103 -0.093,0.3638 -0.115,-0.9148 -0.1239,-1.4035 -0.1466,-8.0925 0.1932,0.033 -0.045,-5.1309 -0.2034,1.6547 -0.2221,3.7848 -0.6102,4.964 -0.2073,0.6298 0.1716,-2.4721 -0.077,-2.8758 -0.2155,-0.3498 -0.1675,2.7717 -0.3401,2.1988 -0.2322,-0.7709 0.155,-4.3245 -0.012,-3.3672 -0.5238,3.0034 -0.3405,9.4884 -0.4459,2.8458 -0.018,-1.6724 0.3149,-6.0721 -0.055,-5.0173 -0.4448,1.2685 -0.1038,4.0405 -0.2758,5.9604 -0.036,0.4016 -0.1145,-0.7421 -0.1566,-1.1364 -0.074,-0.6942 0.014,-2.3001 -0.1913,-2.1208 -0.2277,0.1995 -0.2442,1.9701 -0.2265,3.1626 -0.035,-1.0089 -0.1057,-2.7862 -0.2546,-5.9573 -0.4967,11.849 0.097,6.7653 -0.5537,4.6246 -0.07,-0.231 -0.2083,0.085 -0.2867,-0.1111 -0.1336,-0.3335 -0.1394,-1.4023 -0.3028,-1.3606 -0.174,0.044 -0.1596,1.8883 -0.2976,1.513 -0.1911,-0.5198 -0.2214,-1.4512 -0.2696,-2.3373 -0.2042,0.936 -0.6529,2.154 -0.7222,1.5172 -0.2035,-1.8693 0.041,-7.5114 -0.3007,-5.9102 -0.5008,2.3462 -0.119,5.8722 -0.3017,8.7338 -0.03,0.4762 -0.2742,1.4159 -0.3168,0.9514 -0.2289,-2.497 -0.2071,-5.1958 -0.3106,-7.7939 -0.019,0.1302 -0.633,4.3652 -0.6527,4.4406 -0.075,0.29 -0.2423,0.022 -0.3261,0.2821 -0.1425,0.443 -0.1175,1.7258 -0.3074,1.6888 -0.7801,-0.1519 0.1892,-4.3619 -0.5761,-0.2444 -0.094,-1.3527 -0.1093,-2.8044 -0.282,-4.0576 -0.043,-0.3106 -0.227,0.1453 -0.2924,-0.1121 -0.1593,-0.6276 -0.2397,-3.0722 -0.3126,-2.2713 -0.2649,2.9101 -0.05,6.1844 -0.309,9.1008 -0.065,0.7361 -0.2157,-1.3434 -0.3199,-2.0221 -0.106,-0.6906 -0.2074,-1.3902 -0.3111,-2.0851 0.1524,-0.6728 -0.7534,-3.9288 -0.943,-2.5518 -0.1311,0.9514 -0.1889,1.7051 -0.2183,2.3161 -2.6e-4,0.019 -2.6e-4,0.038 -5.3e-4,0.057 0.4641,1.8492 0.7101,3.7419 -0.046,3.1905 -0.016,1.0676 -0.031,2.2172 -0.047,3.2685 -0.065,0.1868 -0.1311,0.2889 -0.1996,0.2889 z m -16.4588,-5.4359 c 0.5691,2.2631 0.8163,4.6041 -0.7015,2.4485 0.821,-0.1188 0.6122,-0.5231 0.7015,-2.4485 z m -23.1792,-94.53875 v -0.9163 c 0,-0.1422 0.043,0.2864 0.045,0.4413 0,0.1521 -0.014,0.3118 -0.045,0.475 z m 16.7477,-1.3224 v -0.9163 c 0,-0.1422 0.044,0.2864 0.045,0.4414 0,0.152 -0.015,0.3116 -0.045,0.4749 z m 7.178,-1.0279 c 0,-0.091 0,-0.1477 -0.01,-0.1591 0,0.052 0,0.1058 0.01,0.1591 z"
       sodipodi:nodetypes="ssssscscccsssscsccccsccscccsccccccsscsccccsssscscsscsscsccscccscsccccsccsssccccsscccssscssccccsscccccccscccccsccscsscsssccssssccssscssssscssccssscsssscccsssscssccsssscccsssccsscssccssscscsscssssccssssccsscscsssscsscccssccscccscscccssccscssscccsscsscscscccscccccsscccsccccscsccccscsccccccsccccsscccccssscsccsscscscscssccccssssscssscssscscssscssssscssscssscsssscssssccssscccccssssscssssccssscsssscssssccsssscsssscssscssssscscccccsccccscccsccccc" />
    <path
       inkscape:export-ydpi="96"
       inkscape:export-xdpi="96"
       inkscape:export-filename="D:\Calcatz\Icon Pack\Adventure Narrative Inspired by Jumanji\Assets\PNG\Highlighter\07_main_menu_episodes_selected.png"
       sodipodi:nodetypes="csssscscccsssscsccccsccsccccccccccsscsccccsscscscsscssccccscscscsccccsccsssccccsscccssccssccccsscccccscscccccscsscscccssccssssccssscsscccssccsscccsscccscscccccsccccscscsccsccccccccsscccsscsscscccccsccssccssscscscccssssccccssssccssssccsscscsssscsscccssccscccscscccssscscssscccsscsscscccccscccscsscccsccccscsccccsccccccccsccscsscccccssscsccsccscscscsscccccsssscssscsccccssscccscsccccscccsssscccscccscscssccsssccccssscccccsccccsccsccssccccsscccssccssccccccsccscccscsccccccccsscsscccccscsscccssscssssscscccccccccccccccccccscc"
       d="m 142.16138,126.48501 c -0.072,1.1732 0.025,2.6756 -0.2176,3.51761 -0.1397,0.48479 -0.099,-1.47721 -0.263,-1.85421 -0.1,-0.2287 -0.21,0.5613 -0.3277,0.4987 -0.1465,-0.078 -0.2816,-1.2886 -0.37,-0.8692 -0.1815,0.8622 -0.087,2.4865 -0.1591,3.5104 -0.047,-0.4929 -0.093,-0.8269 -0.1189,-0.4863 -0.034,0.4563 -0.062,0.9067 -0.086,1.3519 0,0 0,0.01 -0.01,0.01 -0.3622,0.3198 -0.2342,-2.4995 -0.3514,-3.7491 -0.4086,3.0141 -0.1377,3.1626 -0.6785,1.65 -0.1018,-0.2849 -0.18,-0.7342 -0.3054,-0.8557 -0.094,-0.091 -0.2041,0.4979 -0.2811,0.2873 -0.1486,-0.4058 -0.081,-1.974 -0.2594,-1.7637 -0.2485,0.2933 -0.289,1.5 -0.4072,2.3642 -0.026,-0.093 -0.057,-0.17299 -0.098,-0.22529 -0.079,-0.10171 -0.1519,-0.18601 -0.2197,-0.25481 -0.023,-0.056 -0.046,-0.1114 -0.068,-0.1674 0,0.03 0,0.072 -0.01,0.1049 -0.4747,-0.4223 -0.6488,0.01 -0.6588,0.8077 -0.05,-0.7299 -0.1022,-1.4695 -0.229,-1.9653 -0.093,-0.3638 -0.1147,0.9153 -0.1235,1.4041 -0.1461,8.0924 0.193,-0.034 -0.044,5.1304 -0.2027,-1.6547 -0.2214,-3.7849 -0.6082,-4.96399 -0.1383,-0.42171 -0.017,0.82229 0,1.81639 -0.019,-0.01 -0.037,-0.019 -0.053,-0.051 -0.2889,-0.5928 -0.2673,-1.0879 -0.2966,-1.0847 -0.019,-0.086 -0.042,-0.1032 -0.072,0 -0.031,0.1043 -0.05,0.265 -0.062,0.4532 -0.042,0.1499 -0.096,0.332 -0.1716,0.572 -0.012,-0.013 -0.022,-0.018 -0.034,-0.024 -0.1977,-2.8903 -0.1077,-5.6276 -0.1891,-0.4795 0,0.193 0,0.4291 0.01,0.6821 -0.1037,0.277 -0.1926,0.7473 -0.2951,0.9632 0.012,-0.8991 0.027,-1.8121 -0.042,-2.5884 -0.036,-0.40159 -0.1136,0.7421 -0.1555,1.1363 -0.033,0.3054 -0.035,0.7821 -0.043,1.2108 -0.073,-0.4158 -0.1224,-1.0293 -0.2104,-0.8103 -0.07,0.173 -0.1034,0.4481 -0.1255,0.7566 -0.045,-0.6575 -0.047,-1.5186 -0.037,-2.1989 -0.027,0.7779 -0.088,2.2434 -0.1763,4.221 -0.064,0.098 -0.1137,-0.1314 -0.1596,-0.4413 -0.3217,-8.75971 0.1312,-4.4297 -0.4698,-2.4469 -0.07,0.231 -0.2081,-0.085 -0.2863,0.1111 -0.1331,0.3335 -0.1388,1.4022 -0.3018,1.3606 -0.1734,-0.044 -0.1586,-1.8884 -0.2961,-1.5131 -0.1904,0.5198 -0.2206,1.4513 -0.2687,2.3374 -0.2035,-0.936 -0.6507,-2.1541 -0.7198,-1.5173 -0.01,0.065 -0.013,0.1449 -0.019,0.2186 -0.014,-1.1142 -0.013,-2.239 -0.1235,-3.26701 -0.059,-0.54499 -0.1539,1.03951 -0.2031,1.59631 -0.2506,2.8323 -0.038,3.1692 -0.2238,3.2748 0.01,-1.5589 0.061,-3.1884 -0.031,-4.64631 -0.03,-0.47619 -0.2733,-1.41579 -0.3157,-0.9513 -0.2282,2.49701 -0.2069,5.19581 -0.3101,7.79381 0,-0.013 -0.052,-0.3533 -0.064,-0.4382 -5.3e-4,0 0,-0.012 0,-0.015 -0.018,-0.1612 -0.034,-0.3175 -0.047,-0.4387 -0.1351,-1.2425 -0.029,-2.8889 -0.2868,-3.8613 -0.077,-0.2894 -0.099,0.4394 -0.1447,1.0325 -0.029,-0.1954 -0.1022,-0.7071 -0.1054,-0.7193 -0.056,-0.2153 -0.1619,-0.1233 -0.247,-0.168 -0.015,-0.2384 -0.035,-0.4651 -0.067,-0.6449 -0.039,-0.2139 -0.094,-0.3794 -0.1514,-0.5369 -0.034,-0.3509 -0.076,-0.639 -0.1664,-0.6212 -0.3221,0.063 -0.3422,0.8098 -0.3127,1.385 -0.01,0.074 -0.013,0.1489 -0.018,0.2268 -0.047,-0.2802 -0.1147,-0.6727 -0.2434,-1.3673 -0.076,1.096 -0.1014,2.2555 -0.1994,3.3233 -0.023,-0.383 -0.049,-0.7552 -0.099,-0.9633 -0.067,-0.2772 -0.2138,-0.074 -0.2992,-0.2769 -0.3224,-1.2068 -0.2625,-1.103 -0.4553,-1.4811 -0.015,-1.11111 -0.046,-2.20991 -0.139,-3.26181 -0.065,-0.7361 -0.2145,1.3435 -0.3184,2.0221 -0.036,0.23581 -0.071,0.47481 -0.1059,0.71211 -1e-4,5.1e-4 -4e-4,6.1e-4 -5e-4,0.001 -0.04,0.1389 -0.067,0.3558 -0.089,0.601 -0.038,0.2575 -0.077,0.5141 -0.1147,0.771 0.066,0.2938 -0.071,1.0733 -0.26,1.7514 -0.2399,-0.5188 -0.058,-2.6264 -0.2769,-3.49799 -0.092,-0.36751 -0.2682,0.39999 -0.3514,0.79319 -0.1166,0.5505 -0.1972,0.9592 -0.2615,1.3017 0,-0.049 -0.01,-0.1126 -0.011,-0.1597 -0.1335,0.5325 -0.2847,1.053 -0.4351,1.5173 -0.052,-0.7151 -0.092,-1.46 -0.2429,-1.9265 -0.093,-0.2879 -0.2283,0.4269 -0.2951,0.7947 -0.1304,0.7176 -0.042,2.5455 -0.278,2.3612 -0.01,-0.01 -0.018,-0.022 -0.027,-0.034 -0.1323,-1.0149 -0.1303,-2.2073 -0.2284,-3.2758 -0.06,-0.6512 -0.1885,-2.5363 -0.2377,-1.8743 -0.042,0.5601 -0.074,1.1099 -0.1013,1.6515 -0.048,-0.5148 -0.096,-1.0297 -0.1442,-1.5446 -0.068,1.6339 -0.1357,3.2682 -0.2036,4.9021 -0.1607,-1.9795 -0.1221,-2.222 -0.3736,-3.405 -0.015,-0.5819 -0.035,-1.16129 -0.071,-1.72911 -0.023,-0.34809 -0.158,-1.09379 -0.2078,-0.78289 -0.1753,1.0948 -0.141,2.4711 -0.2537,3.6639 0,0.037 -0.01,0.071 -0.012,0.1069 -0.055,0.1661 -0.1391,0.2264 -0.2041,0.3571 -0.078,0.7077 -0.1562,1.4152 -0.2341,2.1229 -0.587,-14.5342 0.045,-1.9773 -0.3126,-0.2589 -0.015,-0.1058 -0.028,-0.2111 -0.045,-0.3173 -0.043,-0.2693 -0.1332,-0.2002 -0.2372,0 -0.1996,-1.4337 0.4088,-5.081 -0.073,-5.6999 -1.2599,-1.617 -1.0291,1.08339 -0.6729,3.2851 -0.022,-0.088 -0.043,-0.1747 -0.065,-0.2641 -0.073,-0.3295 -0.1401,-1.0995 -0.2144,-1.3648 -0.01,-0.1524 -0.023,-0.4486 -0.026,-0.54361 0,0.1251 0,0.30432 0,0.47491 -0.023,-0.046 -0.046,-0.041 -0.071,0.049 -0.1262,0.4557 -0.1201,1.3107 -0.1251,2.0836 -0.023,0.059 -0.048,0.1105 -0.077,0.1457 -0.1528,0.1882 -0.206,-1.8503 -0.2925,-1.3679 -0.034,0.1892 -0.057,0.3959 -0.074,0.6098 -0.013,-0.421 -0.033,-0.8165 -0.083,-1.0904 -0.056,-0.3069 -0.2185,0.027 -0.308,-0.1565 -0.5057,-1.0377 -0.059,-1.7823 -0.6015,-0.063 -0.272,-0.3095 -0.4029,1.3959 -0.6439,1.2439 -0.1499,-0.095 -0.1944,-1.4637 -0.3188,-1.154 -0.2305,0.5738 -0.086,2.2228 -0.3245,2.7554 -0.1381,0.3085 -0.2087,-0.8868 -0.3132,-1.3301 -0.098,0.3468 -0.1969,0.6939 -0.2951,1.0407 -0.091,-0.4408 -0.1845,-1.7674 -0.2744,-1.3224 -0.2221,1.0999 0.042,3.097 -0.2558,3.9481 -0.1957,0.5603 -0.057,-1.9144 -0.2398,-2.528 -0.085,-0.2868 -0.1161,0.8265 -0.2284,0.9519 -0.081,0.09 -0.1465,-0.3013 -0.2196,-0.4517 -0.071,0.1267 -0.1419,0.2537 -0.2129,0.3804 0.088,-3.2401 -0.3723,0.041 -0.4144,-0.446 -0.1496,-1.7298 -0.022,-3.6873 -0.2047,-5.37741 -0.059,-0.54519 -0.1543,1.03941 -0.2036,1.59621 -0.3159,3.5714 0.1075,3.177 -0.4646,3.3513 -0.087,0.8224 -0.053,1.9842 -0.2614,2.467 -0.1231,0.2854 -0.2151,-0.7549 -0.2677,-1.2397 -0.095,-0.8779 -0.072,-1.9532 -0.1406,-2.8541 v 6.9303 c -0.038,-0.4061 -0.076,-0.812 -0.1137,-1.218 -0.028,0.5416 -0.06,1.0915 -0.1013,1.6516 -0.049,0.662 -0.1779,-1.2231 -0.2377,-1.8743 -0.098,-1.0685 -0.096,-2.261 -0.2284,-3.2758 -0.01,-0.012 -0.017,-0.024 -0.027,-0.034 -0.236,-0.1844 -0.1476,1.6436 -0.278,2.3611 -0.067,0.3678 -0.2019,1.0827 -0.2951,0.7948 -0.151,-0.4665 -0.1908,-1.2114 -0.2429,-1.9265 -0.1504,0.4643 -0.3016,0.9847 -0.4351,1.5172 0,-0.047 -0.01,-0.1102 -0.011,-0.1592 -0.064,0.3425 -0.1449,0.7513 -0.2615,1.3018 -0.083,0.3932 -0.2592,1.1602 -0.3514,0.7927 -0.2187,-0.8716 -0.037,-2.9792 -0.277,-3.498 -0.1885,0.6781 -0.3262,1.4579 -0.2599,1.7518 -0.038,0.2568 -0.077,0.5136 -0.1147,0.771 -0.022,0.2452 -0.049,0.4621 -0.089,0.601 -2e-4,4e-4 -4e-4,6.1e-4 -6.1e-4,0 -0.035,0.2373 -0.07,0.4763 -0.1059,0.7121 -0.091,0.5938 -0.2162,2.2595 -0.2899,2.1735 l 5e-4,-5e-4 c -0.01,-0.012 -0.02,-0.06 -0.028,-0.1519 -0.093,-1.052 -0.1241,-2.1508 -0.139,-3.2619 -0.1928,-0.3781 -0.1329,-0.2743 -0.4553,-1.481 -0.085,-0.2029 -0.2327,10e-5 -0.2992,-0.277 -0.05,-0.2082 -0.077,-0.5803 -0.1,-0.9632 -0.098,1.0678 -0.1235,2.2273 -0.1994,3.3232 -0.1287,-0.6945 -0.196,-1.0872 -0.2429,-1.3673 0,0.078 -0.011,0.1529 -0.018,0.2269 0.03,0.5752 0.01,1.3219 -0.3127,1.3849 -0.091,0.018 -0.132,-0.2703 -0.1664,-0.6212 -0.058,-0.1575 -0.1131,-0.323 -0.1519,-0.5369 -0.033,-0.1798 -0.052,-0.4065 -0.067,-0.6449 -0.085,-0.045 -0.1911,0.047 -0.247,-0.168 0,-0.012 -0.076,-0.5239 -0.1054,-0.7193 -0.045,0.5931 -0.068,1.3219 -0.1447,1.0325 -0.2576,-0.9724 -0.1518,-2.6188 -0.2868,-3.8613 -0.013,-0.1212 -0.029,-0.2775 -0.047,-0.4387 v -0.015 c -7.9e-4,-0.01 0,-0.021 0,-0.028 -0.02,0.4808 -0.04,0.9615 -0.06,1.4423 v 7.5597 c -0.046,0.081 -0.082,0.092 -0.1091,0.045 -0.1772,2.9094 0.062,-0.2178 -0.2129,-1.6082 -0.038,0.1752 -0.1312,-0.085 -0.2067,-0.4175 -0.087,0.3058 -0.046,1.7614 -0.1788,2.2185 -0.071,0.2439 -0.2115,-0.1098 -0.278,-0.3685 -0.4978,-1.936 -0.1032,-3.228 -0.6036,0.3266 -0.1028,-1.7879 -0.066,-3.7508 -0.308,-5.3635 0,-0.029 -0.011,-0.035 -0.016,-0.053 -0.096,0.4493 -0.2132,0.86 -0.2666,1.3865 -0.1492,1.4711 0.046,3.646 -0.3147,4.5542 -0.1144,0.288 -0.1581,-0.1508 -0.1871,-0.7855 -0.054,0.2949 -0.082,0.4583 -0.2542,1.3544 -0.1168,0.6071 -0.2845,2.4423 -0.37,1.7736 -0.2957,-2.3127 -0.2414,-5.0013 -0.3623,-7.5019 -0.1197,1.9096 0.084,4.5519 -0.3591,5.7283 -0.2974,0.789 -0.1129,-2.535 -0.2931,-3.7914 -0.015,-0.027 -0.03,-0.043 -0.047,-0.03 -0.013,0.01 -0.023,0.026 -0.035,0.039 -1.051,36.5433 0.1614,33.7507 0.2011,70.6586 0.017,0.1926 0.021,0.274 0.044,0.5136 0.1555,0.5554 0.2887,-1.8493 0.4945,-1.5616 0.149,0.2083 0.1046,1.4564 0.2646,1.4169 0.1719,-0.042 0.1816,-1.0325 0.2723,-1.5487 0.3782,-2.5885 0.1834,-2.4336 0.5251,0.2212 0.065,0.508 0.062,1.2806 0.2072,1.5058 0.4002,0.6225 0.03,-2.9153 0.4263,-2.9166 0.2084,0 0.1485,1.3734 0.2227,2.0598 0.5382,-7.9146 -0.075,-1.2881 0.4775,-0.1638 0.1971,0.4013 0.098,-1.6638 0.2605,-2.2247 0.071,-0.244 0.2115,0.1098 0.278,0.3685 0.4977,1.936 0.1032,3.228 0.6036,-0.3266 0.1028,1.7878 0.067,3.7508 0.3085,5.3635 0.071,0.4712 0.2619,-0.6158 0.3338,-1.0847 1.1672,-7.6165 -0.3103,-0.093 0.7049,-5.3712 0.1022,-0.5312 0.2429,-2.0025 0.3338,-1.9141 0.013,0.013 0.025,0.057 0.036,0.1405 0.2956,2.3128 0.2419,5.0013 0.3628,7.5019 0.1197,-1.9096 -0.084,-4.5519 0.3591,-5.7283 0.3092,-0.8204 0.096,2.8131 0.3153,3.9377 0.07,0.3607 0.1885,-0.9861 0.2986,-0.7839 0.1788,0.3282 0.1052,1.5965 0.2915,1.8676 0.3811,0.5544 0.349,-0.5016 0.2785,-1.2981 0.032,0.2545 0.1163,0.8473 0.1721,1.2573 v 6.5742 c 0.1713,-2.0483 0.1501,-4.3037 0.2527,-6.4259 0.1197,1.9096 -0.084,4.5519 0.3592,5.7283 0.3092,0.8204 0.096,-2.8132 0.3152,-3.9377 0.07,-0.3608 0.1886,0.9861 0.2987,0.7839 0.1788,-0.3282 0.1052,-1.5965 0.2915,-1.8676 0.3811,-0.5544 0.349,0.5015 0.2785,1.2981 0.062,-0.4938 0.1545,-1.1897 0.3338,-2.4391 0.8839,2.7486 -0.4958,-1.9228 0.5649,6.7882 0.06,0.4957 0.1925,-0.8385 0.2868,-1.2635 0.097,-0.4379 0.2363,-0.7985 0.2868,-1.325 0.1379,-1.4393 -0.09,-5.3095 0.2677,-4.4591 0.454,1.081 0.1742,3.8125 0.2614,5.719 0.1496,-3.4438 0.2194,-5.2454 0.2584,-6.3273 -0.049,1.8371 -0.089,5.0108 0.2062,4.4463 0.3702,-0.7077 -0.053,-5.5714 0.2036,-4.3941 0.3633,1.6682 0.1365,4.1791 0.2047,6.2684 0.069,-0.2865 0.1145,-1.0504 0.2061,-0.8599 0.1526,0.3171 0.1387,1.1473 0.2083,1.7213 0.071,-1.433 0.085,-2.9155 0.2129,-4.2984 0.025,-0.2709 0.1821,-0.6178 0.2196,-0.3654 0.1523,1.0228 -0.085,3.0343 0.2284,3.3709 0.2706,0.2904 0.024,-3.5078 0.2403,-2.8675 0.6409,1.8933 -0.1016,8.0941 0.5302,1.4469 0.8428,3.7088 -0.4323,-1.2303 0.6078,-4.6126 0.2781,-0.9044 0.164,2.626 0.3245,3.8338 0.6294,4.7357 0.589,-8.246 0.9627,0.9364 0.1818,-0.5506 0.4097,-1.2834 0.5292,-1.4872 0.044,0.3823 0.1149,0.7582 0.2268,1.0361 0.041,0.5163 0.07,1.0645 0.1535,1.4934 0.071,0.3629 0.2442,1.0061 0.3235,0.6656 0.057,-0.2453 0.083,-0.5861 0.097,-0.957 0.016,0.1464 0.012,0.1147 0.029,0.278 0.1208,1.1334 0.024,2.6762 0.276,3.499 0.1358,0.4433 0.1831,-1.133 0.2749,-1.6996 0.4634,-1.2997 0.222,-0.3556 0.5131,-3.3642 0.034,-0.1229 0.067,-0.096 0.1008,0.01 0,0.8017 -0.032,1.6778 0.083,2.312 0.062,0.3428 0.068,-0.6338 0.1323,-1.1395 0.054,0.2755 0.1127,0.4711 0.1788,0.3788 0.03,-0.042 0.051,-0.1313 0.068,-0.2377 0.1696,1.2923 -0.067,5.0903 0.2889,4.1067 0.4128,-3.0229 0.13,-0.7743 0.2868,-2.9419 0.2069,1.5764 0.1233,1.2694 0.4175,-1.0165 0.065,-0.508 0.063,-1.2802 0.2077,-1.5053 0.4003,-0.6227 0.03,2.9152 0.4259,2.9166 0.065,0 0.102,-0.1423 0.1271,-0.3468 0.028,0.1658 0.063,0.3144 0.1147,0.4176 0.052,0.1028 0.091,0.1159 0.1209,0.065 0.199,3.2666 -0.1286,-1.0829 0.3375,-2.032 0.197,-0.4013 0.098,1.664 0.2609,2.2247 0.071,0.244 0.2115,-0.1097 0.2781,-0.3684 0.4977,-1.936 0.1031,-3.2281 0.6035,0.3265 0.1029,-1.7878 0.066,-3.7507 0.308,-5.3634 0,-0.029 0.011,-0.035 0.016,-0.053 0.096,0.44919 0.2133,0.85959 0.2667,1.38599 0.1491,1.4712 -0.046,3.646 0.3147,4.55431 0.1143,0.28799 0.158,-0.15081 0.1871,-0.7855 0.054,0.29489 0.082,0.45829 0.2542,1.3544 0.1168,0.60709 0.2845,2.4422 0.37,1.77349 0.2956,-2.31269 0.2414,-5.00119 0.3623,-7.5018 0.1197,1.90961 -0.084,4.5519 0.3591,5.72831 0.2973,0.789 0.1129,-2.535 0.293,-3.79151 0.015,-0.027 0.03,-0.042 0.048,-0.029 0.03,0.022 0.057,0.055 0.082,0.091 0.054,0.26591 0.115,0.6221 0.1752,0.59171 0.1721,1.2724 -0.2258,3.3988 0.3157,-0.77151 0.096,0.65431 0.16031,2.5439 0.2889,1.9627 0.1867,-0.8433 0.1418,-2.0574 0.1711,-3.16259 0.049,-0.36141 0.067,-0.51371 0.1441,-1.0532 0.1461,0.45419 0.2158,0.66799 0.2595,0.81079 0,0.03 0.012,0.082 0.017,0.10751 0.01,0.042 0.014,0.087 0.022,0.12969 -0.076,0.069 -0.4298,0.02 0.2666,5.74021 0.06,0.4958 0.1926,-0.83841 0.2868,-1.26351 0.097,-0.43779 0.2368,-0.7986 0.2873,-1.325 0.01,-0.076 0.01,-0.18209 0.015,-0.2707 0.029,0.358 0.056,0.72071 0.097,1.0464 0.103,0.032 0.2366,0.355 0.3091,0.096 0.032,-0.11519 0.062,-0.24779 0.089,-0.3922 0.001,0.27041 0.01,0.5334 0.018,0.78131 0.022,-0.5072 0.031,-0.7539 0.05,-1.1927 0.082,-0.56551 0.13861,-1.25581 0.1839,-1.95081 0.022,0.91671 0.086,1.5377 0.2305,1.26201 0.2485,-0.4752 0.1454,-2.72741 0.1245,-3.8633 0.21,2.244 0,4.92149 0.21811,7.2 0.058,0.611 0.20389,-0.3593 0.37109,-1.8862 0.05,0.3866 0.061,0.8921 0.1085,1.2858 0.071,-1.4331 0.085,-2.9161 0.2134,-4.299 0.01,-0.09 0.033,-0.1808 0.06,-0.26251 0.036,1.0257 0.086,2.0315 0.2315,2.90521 0.015,0.093 0.033,0.1215 0.051,0.10959 0.025,0.11411 0.059,0.2036 0.1049,0.25321 0.1579,0.1695 0.1402,-1.0451 0.1406,-1.96581 5.3e-4,0 0,-0.011 0,-0.015 0.029,-0.30599 0.053,-0.6179 0.075,-0.9307 0.01,0.012 0.014,0.019 0.023,0.045 0.6408,1.89321 -0.1016,8.09411 0.5302,1.447 0.5822,2.562 0.1544,0.9963 0.1767,-1.3312 0.019,0.3216 0.042,0.6382 0.075,0.9472 0.1018,0.96161 0.1808,-1.9508 0.2713,-2.9265 0.6161,10.46621 0.088,3.77721 0.3312,1.3199 0.016,0.4767 0.039,0.91471 0.078,1.2113 0.1013,0.7622 0.1852,1.0642 0.2564,1.0748 0.016,0.3942 0.056,0.6888 0.1472,0.7649 0.3225,0.2695 0.054,-2.3955 0.2114,-3.4241 0.04,-0.26449 0.1364,-0.042 0.2372,0.2599 0.033,0.5279 0.068,1.239 0.1101,2.2614 0.104,-0.3152 0.2218,-0.6806 0.3276,-0.984 0.4721,2.287 0.085,0.7933 0.1752,-0.4506 0.047,-0.096 0.083,-0.1438 0.099,-0.09 0.1906,0.6409 0.158,1.8023 0.3074,2.5673 0.071,0.3629 0.2447,1.0056 0.3241,0.665 0.2193,-0.9414 -0.012,-3.2636 0.3286,-3.4664 0.3052,-0.1816 0.2049,2.0584 0.3075,3.0877 0.097,-0.3646 0.2219,-0.6568 0.2904,-1.0935 0.052,-0.3341 0.072,-0.9867 0.095,-1.5198 0.059,0.1672 0.142,0.3213 0.2656,0.4222 0.019,0.8836 -0.044,1.9237 0.087,2.6484 0.082,0.4539 0.064,-1.4085 0.2171,-1.4232 0.4539,-0.044 0.023,5.71551 0.4511,4.53151 0.5076,-3.71661 -0.048,0.65529 0.4713,-5.18361 0.034,-0.3781 0.061,-0.7913 0.1044,-1.1643 0.023,0.685 0.047,1.2471 0.107,0.8935 0.072,-0.4246 0.097,-0.9651 0.1007,-1.5498 0.048,0.1481 0.099,0.4251 0.1566,0.4072 0.4466,-0.1389 -0.039,-2.0449 0.4212,0.631 0.073,1.1632 -0.076,2.9048 0.2181,3.4892 0.4595,0.9118 -0.05,-4.9218 0.464,-5.3299 0.2807,-0.2226 0.166,5.6784 0.8072,3.4215 0.054,-0.9053 0.063,-1.8739 0.098,-2.8055 0.034,-0.016 0.068,-0.03 0.096,-0.019 0.021,-0.6617 0.042,-1.3233 0.064,-1.9848 0.015,-0.1034 0.028,-0.2097 0.045,-0.3091 0.1,-0.5616 0.2077,1.1075 0.3132,1.6563 0.1003,0.5221 0.2441,0.9625 0.3043,1.5565 0.1492,1.471 -0.046,3.646 0.3148,4.5542 0.2445,0.6157 0.1693,-2.0473 0.3079,-2.9869 0.073,-0.4958 0.2115,-0.8323 0.3173,-1.2485 0.9099,7.03501 -0.4732,-2.3276 0.6289,-1.9384 0.4409,0.1557 0.043,3.3061 0.308,4.5568 0.1116,0.5259 0.1292,-1.7676 0.3116,-1.635 0.6885,0.5006 -0.1039,5.12121 0.5726,-0.088 0.096,0.6543 0.1603,2.5439 0.2889,1.9627 0.2714,-1.2261 0.049,-3.2418 0.2852,-4.5563 0.01,-0.053 0.02,-0.081 0.03,-0.094 0.031,-1.0091 0.057,-1.9326 0.091,-2.9894 0.02,0.113 0.041,0.2215 0.06,0.3364 0.1072,0.6551 0.1689,2.593 0.3029,2.0024 0.2787,-1.2297 0.051,-3.2814 0.2894,-4.6126 0.087,-0.4824 0.1396,1.5559 0.2924,1.3679 0.2894,-0.3561 0.2869,-2.032 0.2688,-2.7533 0.02,0.5293 0.084,1.8706 0.2821,4.9196 0.086,0.3197 0.1339,0.8866 0.2568,0.9596 0.08,0.048 0.6238,-2.0922 0.7504,-1.295 0.4727,2.9775 0.056,5.9479 0.5369,-0.1137 0.091,-0.6324 0.2078,-1.2251 0.2713,-1.897 0.1127,-1.1929 0.078,-2.5691 0.2537,-3.6639 0.01,-0.058 0.022,-0.083 0.036,-0.073 0.061,0.028 0.1532,0.5729 0.1716,0.8558 0.1191,1.8416 0.072,3.79371 0.2077,5.6203 0.08,-1.2765 0.1508,-4.282 0.2775,-3.2308 0.02,0.1681 0.037,0.339 0.053,0.5116 0.037,-0.88989 0.074,-1.77979 0.1111,-2.6696 0.078,0.8289 0.1547,1.6578 0.2321,2.4867 0.082,-0.064 0.1979,-0.4348 0.2454,-0.1918 0.1571,0.8045 -0.01,2.5706 0.2605,2.7818 0.236,0.1844 0.1476,-1.64349 0.278,-2.36109 0.067,-0.36771 0.2024,-1.08271 0.2956,-0.79481 0.2043,0.6315 0.2053,1.7736 0.308,2.66031 0.768,-2.36251 -0.1762,0.73669 0.4661,-2.51821 v -10.39519 c 0.062,-0.27779 0.2749,0.56071 0.3033,1.00711 0.1558,2.44689 -0.098,5.377 0.1365,7.6425 0.033,-0.034 0.063,-0.02 0.088,0.077 0.071,0.2819 0.097,0.6989 0.1111,1.1446 0.287,1.0334 0.07,-4.2417 0.265,-6.0409 0.069,-0.6368 0.5164,0.5812 0.7199,1.5172 0.048,-0.8861 0.078,-1.8174 0.2687,-2.3373 0.1375,-0.3754 0.1232,1.4691 0.2967,1.5131 0.1628,0.042 0.1686,-1.0272 0.3017,-1.3607 0.078,-0.1961 0.2158,0.1199 0.2858,-0.1111 0.6488,-2.1407 0.057,-7.2244 0.5519,4.6245 0.1485,-3.171 0.2187,-4.9483 0.2537,-5.9572 -0.018,1.1925 -0.001,2.9631 0.2259,3.1626 0.204,0.1793 0.1168,-1.4266 0.1907,-2.1208 0.042,-0.3943 0.1202,-1.538 0.156,-1.1364 0.01,0.069 0.01,0.1453 0.012,0.216 0.026,-0.9374 0.048,-1.7879 0.077,-2.7673 0.064,-0.1867 0.1307,-0.2883 0.199,-0.2883 0.072,-2.2602 0.1452,-4.5203 0.2175,-6.7805 0.088,0.035 0.2335,-0.1873 0.2631,0.1059 0.1859,1.842 -0.1431,4.7161 0.3276,5.7506 0.3541,0.7785 -0.022,-3.7071 0.3695,-4.2168 0.4049,-0.5271 0.4033,2.1588 0.3493,4.101 0.063,-1.3343 0.1644,-3.3316 0.3736,-6.9851 0.1163,2.0335 -0.2272,6.5341 0.3483,6.1005 0.028,-0.021 0.053,-0.053 0.077,-0.09 0.6372,-26.22101 0.3453,-26.8049 -0.098,-51.11561 -0.029,-0.2475 -0.027,-0.5344 -0.014,-0.7906 0,0 -5.3e-4,-0.01 -5.3e-4,-0.012 -0.01,-0.072 -0.013,-0.146 -0.018,-0.2222 -0.047,0.2801 -0.1142,0.6727 -0.2429,1.3673 -0.076,-1.096 -0.1013,-2.2555 -0.1994,-3.3233 -0.023,0.383 -0.05,0.7551 -0.1,0.9633 -0.067,0.2771 -0.2138,0.074 -0.2992,0.277 -0.3223,1.2067 -0.2625,1.1029 -0.4553,1.481 -0.015,1.1111 -0.046,2.2099 -0.139,3.2618 -0.01,0.092 -0.018,0.1397 -0.028,0.1519 l 5.3e-4,6.1e-4 c -0.074,0.086 -0.199,-1.5797 -0.2899,-2.1736 -0.036,-0.2357 -0.071,-0.4747 -0.1059,-0.7121 -2e-4,-5e-4 -5.3e-4,-6.1e-4 -5.3e-4,0 -0.04,-0.1389 -0.067,-0.3558 -0.089,-0.601 -0.038,-0.2575 -0.076,-0.5142 -0.1147,-0.771 0.066,-0.2939 -0.071,-1.0737 -0.2599,-1.7518 -0.24,0.5188 -0.058,2.6269 -0.277,3.4985 -0.092,0.3675 -0.2682,-0.4001 -0.3514,-0.7933 -0.1165,-0.5505 -0.1971,-0.9592 -0.2615,-1.3017 0,0.049 -0.01,0.1122 -0.011,0.1592 -0.1335,-0.5325 -0.2847,-1.0524 -0.4351,-1.5167 -0.052,0.7151 -0.092,1.46 -0.2429,1.9265 -0.093,0.2879 -0.2282,-0.4275 -0.295,-0.7953 -0.1304,-0.7175 -0.042,-2.5455 -0.2781,-2.3611 -0.01,0.01 -0.018,0.022 -0.027,0.034 -0.1322,1.0148 -0.1303,2.2072 -0.2283,3.2757 -0.06,0.6512 -0.1885,2.5363 -0.2378,1.8743 -0.042,-0.56 -0.074,-1.1099 -0.1013,-1.6515 -0.038,0.406 -0.076,0.8119 -0.1136,1.218 v -4.70831 c -0.035,-0.04 -0.071,-0.078 -0.1029,-0.088 -0.041,-0.3257 -0.068,-0.6884 -0.097,-1.0465 0,0.089 -0.01,0.1948 -0.015,0.2708 -0.051,0.5265 -0.1902,0.8872 -0.2873,1.325 -0.094,0.4251 -0.2265,1.7593 -0.2868,1.2635 -0.6965,-5.7202 -0.3429,-5.6712 -0.2667,-5.7402 -0.01,-0.043 -0.014,-0.088 -0.022,-0.1297 -0.01,-0.026 -0.012,-0.078 -0.017,-0.1075 -0.044,-0.1428 -0.1133,-0.3566 -0.2594,-0.8108 -0.077,0.5395 -0.095,0.6917 -0.1442,1.0532 -0.029,1.1052 0.016,2.3192 -0.171,3.1626 -0.091,0.4102 -0.1494,-0.4122 -0.2098,-1.1607 -0.01,0.4943 -0.052,0.7368 -0.1685,0.4046 -0.015,-0.044 -0.028,-0.095 -0.042,-0.1426 -0.2821,2.3185 -0.035,0.8155 -0.1845,-0.2925 -0.06,0.03 -0.1208,-0.3258 -0.1752,-0.5917 -0.025,-0.036 -0.052,-0.069 -0.082,-0.091 -0.017,-0.013 -0.033,0 -0.048,0.029 -0.1801,1.2565 0,4.5805 -0.293,3.7915 -0.2803,-0.7439 -0.2998,-2.0778 -0.308,-3.438 -0.027,-0.6671 -0.049,-1.2537 -0.068,-1.803 -0.094,2.3607 -0.069,4.85 -0.3452,7.0145 -0.086,0.6687 -0.2532,-1.1664 -0.37,-1.7735 -0.1723,-0.8961 -0.2004,-1.0595 -0.2542,-1.3544 -0.029,0.6347 -0.073,1.0734 -0.1871,0.7854 -0.3606,-0.9082 -0.1655,-3.083 -0.3147,-4.5542 -0.021,-0.2118 -0.055,-0.4023 -0.091,-0.5865 -0.015,0.254 -0.029,0.5123 -0.043,0.77 -0.061,-0.2788 -0.1436,-0.5783 -0.231,-0.8507 -0.1514,1.4699 -0.1362,3.1489 -0.2253,4.6974 -0.3544,-2.5172 -0.2667,-2.5488 -0.3581,-1.6975 -0.01,1.727 -0.013,3.1462 -0.2052,2.2438 -0.044,-0.2075 -0.079,-0.427 -0.1106,-0.6517 -0.07,0.1858 -0.1567,0.3232 -0.2077,0.1473 -0.1628,-0.5607 -0.064,-2.626 -0.261,-2.2247 -0.4661,0.9492 -0.1385,5.2985 -0.3374,2.0319 -0.027,0.047 -0.063,0.036 -0.1091,-0.045 v -1.8299 c -0.1463,-1.0112 -0.5342,-3.6961 -0.5508,-3.7599 -0.075,-0.2899 -0.2415,-0.022 -0.3251,-0.2822 -0.142,-0.443 -0.1171,-1.7258 -0.3064,-1.6888 -0.7775,0.1519 0.1886,4.3619 -0.5741,0.2445 -0.094,1.3526 -0.109,2.8044 -0.2811,4.0576 -0.043,0.3106 -0.2263,-0.1453 -0.2915,0.1121 -0.1588,0.6275 -0.2389,3.0721 -0.3116,2.2712 -0.264,-2.91 -0.05,-6.1844 -0.308,-9.10081 -0.065,-0.736 -0.215,1.34341 -0.3189,2.02221 -0.1056,0.6905 -0.2066,1.3902 -0.31,2.0851 0.1519,0.6727 -0.751,3.9287 -0.94,2.5518 -0.1306,-0.9514 -0.1883,-1.7052 -0.2175,-2.3162 -2.6e-4,-0.019 -2.6e-4,-0.038 -5.3e-4,-0.057 0.4627,-1.8492 0.7079,-3.74191 -0.045,-3.1905 -0.016,-1.06751 -0.031,-2.21721 -0.047,-3.26851 -0.064,-0.1868 -0.1307,-0.2889 -0.1989,-0.2889 z m -16.2135,2.1306 c -0.1792,0 -0.4654,0.2469 -0.8909,0.8532 0.8183,0.1187 0.6102,0.52301 0.6992,2.4484 0.4077,-1.6266 0.6496,-3.2931 0.1917,-3.3016 z m -14.2601,7.6952 c 0.089,1.9254 -0.1192,2.3297 0.6991,2.4484 -0.4254,0.6063 -0.7117,0.8532 -0.8909,0.8532 -0.4578,-0.01 -0.216,-1.6751 0.1918,-3.3016 z m 44.359,5.51071 c 0.4077,1.62659 0.6496,3.29309 0.1917,3.30159 -0.1791,0 -0.4654,-0.2469 -0.8909,-0.8531 0.8184,-0.1187 0.6102,-0.5231 0.6992,-2.44849 z m -36.7011,73.0585 v 0.91619 c 0,0.14221 0.043,-0.2863 0.045,-0.44129 0,-0.152 -0.015,-0.3116 -0.045,-0.4749 z"
       style="fill:#d2c7c3;fill-opacity:1;stroke:none;stroke-width:0.812263;stroke-linecap:square;stroke-miterlimit:4;stroke-dasharray:none;stroke-opacity:0.5;paint-order:fill markers stroke"
       id="path24203" />
  </g>
</svg>
