<?xml version="1.0" encoding="UTF-8" standalone="no"?>
<svg
   xmlns:dc="http://purl.org/dc/elements/1.1/"
   xmlns:cc="http://creativecommons.org/ns#"
   xmlns:rdf="http://www.w3.org/1999/02/22-rdf-syntax-ns#"
   xmlns:svg="http://www.w3.org/2000/svg"
   xmlns="http://www.w3.org/2000/svg"
   xmlns:sodipodi="http://sodipodi.sourceforge.net/DTD/sodipodi-0.dtd"
   xmlns:inkscape="http://www.inkscape.org/namespaces/inkscape"
   sodipodi:docname="18_pause_menu_save_load_selected.svg"
   inkscape:version="1.0 (4035a4fb49, 2020-05-01)"
   id="svg9761"
   version="1.1"
   viewBox="0 0 186.01204 34.930244"
   height="34.930244mm"
   width="186.01204mm">
  <defs
     id="defs9755" />
  <sodipodi:namedview
     inkscape:window-maximized="1"
     inkscape:window-y="-8"
     inkscape:window-x="-8"
     inkscape:window-height="705"
     inkscape:window-width="1366"
     fit-margin-bottom="0"
     fit-margin-right="0"
     fit-margin-left="0"
     fit-margin-top="0"
     showgrid="false"
     inkscape:document-rotation="0"
     inkscape:current-layer="layer1"
     inkscape:document-units="mm"
     inkscape:cy="-11.704405"
     inkscape:cx="110.82454"
     inkscape:zoom="0.33557348"
     inkscape:pageshadow="2"
     inkscape:pageopacity="0.0"
     borderopacity="1.0"
     bordercolor="#666666"
     pagecolor="#ffffff"
     id="base" />
  <metadata
     id="metadata9758">
    <rdf:RDF>
      <cc:Work
         rdf:about="">
        <dc:format>image/svg+xml</dc:format>
        <dc:type
           rdf:resource="http://purl.org/dc/dcmitype/StillImage" />
        <dc:title></dc:title>
      </cc:Work>
    </rdf:RDF>
  </metadata>
  <g
     transform="translate(-1.6081372,-151.26346)"
     id="layer1"
     inkscape:groupmode="layer"
     inkscape:label="Layer 1">
    <path
       inkscape:export-ydpi="96"
       inkscape:export-xdpi="96"
       inkscape:export-filename="D:\Calcatz\Icon Pack\Adventure Narrative Inspired by Jumanji\Assets\PNG\Highlighter\08_pause_menu_save_load_selected.png"
       id="path9110"
       style="fill:#cbbfba;fill-opacity:0.698039;stroke:none;stroke-width:0.690954;stroke-linecap:square;stroke-miterlimit:4;stroke-dasharray:none;stroke-opacity:0.5;paint-order:fill markers stroke"
       d="m 187.37484,185.58071 c 0.15883,-0.0549 0.24533,-0.11126 0.24533,-0.16934 -0.99841,-0.0616 -2.27829,0.0216 -2.99516,-0.18495 -0.41245,-0.11885 1.25655,-0.084 1.57718,-0.22381 0.19464,-0.0849 -0.47718,-0.17856 -0.42395,-0.27869 0.0663,-0.12463 1.09613,-0.23946 0.7394,-0.3146 -1.04224,-0.21947 -3.41615,0.0413 -3.73163,-0.31585 -0.27211,-0.3081 2.12601,-0.19929 3.18899,-0.29898 -2.5639,-0.34761 -2.68992,-0.1168 -1.40319,-0.57681 0.24232,-0.0866 0.62422,-0.15349 0.72756,-0.26012 0.0776,-0.08 -0.4236,-0.17345 -0.24448,-0.239 0.34518,-0.12636 1.67965,-0.0692 1.50075,-0.22085 -0.27159,-0.23012 -1.46849,-0.24915 -2.20257,-0.37372 0.24744,-0.10031 0.49489,-0.20036 0.74236,-0.30065 -0.92399,-0.0777 -3.07704,0.0262 -2.77179,-0.23311 0.43398,-0.36868 2.64868,-0.26678 3.66656,-0.52698 0.30952,-0.0791 -0.77796,-0.0976 -1.19374,-0.10515 -6.88386,-0.12426 0.0278,0.164 -4.3646,-0.038 1.4076,-0.17249 3.21966,-0.18827 4.22271,-0.51729 0.53579,-0.17574 -2.10277,0.1455 -2.44623,-0.0654 -0.29754,-0.18277 2.35758,-0.14206 1.87024,-0.28841 -0.65578,-0.19692 -3.6785,0.13141 -2.86425,-0.0101 2.55486,-0.44409 8.07143,-0.2886 2.42088,-0.37795 -1.42259,-0.0157 -5.16513,0.26674 -4.26791,-0.0469 1.07905,-0.37714 3.43705,-0.0881 5.07022,-0.23392 0.34165,-0.0305 -0.63164,-0.0969 -0.96701,-0.13261 -0.59052,-0.0629 -1.95648,0.0115 -1.80394,-0.16215 0.16964,-0.19307 1.67593,-0.20713 2.69031,-0.19213 -0.85824,-0.0298 -2.37021,-0.0895 -5.06769,-0.21577 10.07934,-0.42112 5.75493,0.0823 3.93387,-0.46957 -0.19652,-0.0595 0.072,-0.17672 -0.0946,-0.24323 -0.28365,-0.11324 -1.19285,-0.11818 -1.15744,-0.25675 0.0377,-0.14757 1.60678,-0.13512 1.28751,-0.2521 -0.44222,-0.162 -1.23475,-0.18756 -1.98848,-0.22845 0.7962,-0.17314 1.83213,-0.55352 1.29048,-0.61229 -1.59017,-0.17254 -6.38963,0.0347 -5.0276,-0.25505 1.99589,-0.42466 4.9952,-0.10094 7.42946,-0.25589 0.40505,-0.0258 1.20464,-0.23247 0.8095,-0.26857 -2.12408,-0.19408 -4.42009,-0.17574 -6.63008,-0.2635 0.11077,-0.0161 3.71353,-0.53652 3.77763,-0.55318 0.24667,-0.0641 0.0181,-0.20552 0.23986,-0.27658 0.3768,-0.12077 1.46802,-0.0999 1.43656,-0.26096 -0.12927,-0.66136 -3.71037,0.16067 -0.20775,-0.48815 -1.15065,-0.0797 -2.38563,-0.0926 -3.45166,-0.239 -0.26416,-0.0362 0.12355,-0.19287 -0.0954,-0.2483 -0.53375,-0.1351 -2.6132,-0.20295 -1.93188,-0.26476 2.47541,-0.22457 5.26062,-0.0425 7.7415,-0.26224 0.62615,-0.0554 -1.14303,-0.18274 -1.72033,-0.27109 -0.58741,-0.0899 -1.18243,-0.17601 -1.77355,-0.26393 -0.57225,0.12923 -3.34217,-0.63858 -2.17089,-0.79936 0.82793,-0.11366 1.48465,-0.16361 2.01043,-0.18791 -1.57376,-0.39449 -3.10307,-0.9711 -2.46184,-1.0675 0.89426,-0.13443 1.97777,-0.12571 2.94069,-0.21409 0.55389,-0.0508 2.15761,-0.16036 1.59449,-0.20226 -5.30889,-0.39505 -10.09721,0.0363 -4.30842,-0.37837 1.86789,-0.15342 1.90405,-0.0872 3.12692,-0.35808 0.26966,-0.0597 0.97606,-0.12085 0.75923,-0.19594 -0.43078,-0.14916 -1.33163,-0.10151 -1.91034,-0.20268 -0.23311,-0.0407 -0.271,-0.13479 -0.40665,-0.20227 -0.602,-0.0663 -1.20406,-0.1326 -1.80606,-0.19889 13.59569,-0.54911 -0.67944,0.15623 0.087,-0.38342 0.659,-0.46399 4.64599,0.28509 5.24927,-0.18495 1.37551,-1.07172 -0.92131,-0.87518 -2.79416,-0.57217 0.0747,-0.0185 0.14859,-0.0373 0.22466,-0.0553 0.39234,-0.0873 1.53404,-0.16301 1.17727,-0.26181 -0.7831,-0.21684 -2.95293,0.0267 -3.13156,-0.27954 -0.16165,-0.27722 1.97485,-0.12325 2.80768,-0.27532 0.26102,-0.0476 -0.0227,-0.1857 0.13344,-0.26181 0.88269,-0.4302 1.51598,-0.0505 0.0536,-0.5118 0.2633,-0.23138 -1.18753,-0.34274 -1.05823,-0.54769 0.0805,-0.12753 1.24525,-0.16526 0.98179,-0.2711 -0.48806,-0.19609 -1.89099,-0.0735 -2.34403,-0.27616 -0.26246,-0.11746 0.75418,-0.1776 1.13128,-0.26646 -0.29506,-0.0835 -0.59004,-0.16729 -0.8851,-0.25083 0.37501,-0.0778 1.50346,-0.15709 1.12494,-0.23351 -0.93563,-0.18891 -2.63476,0.0355 -3.35874,-0.21747 -0.47663,-0.16649 1.62863,-0.0491 2.15063,-0.20438 0.24394,-0.0725 -0.70274,-0.0987 -0.8095,-0.19424 -0.0767,-0.0687 0.25587,-0.12447 0.38384,-0.18666 -0.10779,-0.0604 -0.21563,-0.12075 -0.32346,-0.18115 2.75626,0.0753 -0.035,-0.31672 0.37963,-0.35259 1.47146,-0.12723 3.13626,-0.0189 4.57404,-0.17398 0.46371,-0.05 -0.88398,-0.13123 -1.3576,-0.17312 -3.03805,-0.26875 -2.7024,0.0914 -2.85075,-0.39525 -0.69966,-0.0742 -1.68803,-0.0455 -2.09871,-0.22254 -0.24277,-0.10467 0.64208,-0.18278 1.05442,-0.2276 1.05693,-0.11489 2.45763,-0.0249 3.28486,-0.24408 0.40901,-0.10837 -1.57858,-0.0901 -1.44208,-0.24407 0.16616,-0.1874 1.293,-0.13154 1.86688,-0.23563 0.32662,-0.0593 0.52024,-0.16338 0.78035,-0.24491 -0.41713,-0.52295 -3.0223,-0.19438 -3.86674,-0.52067 -0.40478,-0.15641 1.33417,-0.12254 1.85631,-0.24787 0.23574,-0.0566 0.0632,-0.18155 0.23563,-0.2542 1.30707,-0.34914 0.77366,-0.15549 1.63166,-0.57387 1.23502,-0.57144 -2.86914,-0.30077 -2.67086,-0.62286 0.186,-0.30215 2.25578,-0.0975 3.06567,-0.30065 0.31261,-0.0784 -0.34027,-0.22817 -0.67479,-0.29897 -4.07223,-0.86191 -0.70815,0.16199 -2.88622,-0.54599 0.75431,-0.0874 1.72582,-0.0884 2.26296,-0.26223 0.24491,-0.0793 -0.36366,-0.19443 -0.67649,-0.25126 -0.61038,-0.11092 -2.16514,-0.0358 -2.0083,-0.23648 0.1797,-0.23008 1.68211,-0.0881 2.3664,-0.22168 0.20669,-0.0404 -0.10862,-0.13912 -0.16299,-0.20861 0.7051,-0.0658 1.41007,-0.13172 2.11515,-0.19762 -1.52025,-0.0631 -3.04068,-0.12646 -4.56095,-0.1896 -0.0217,-0.0611 -0.27411,-0.16733 -0.0651,-0.18327 1.56594,-0.11928 3.24244,-0.0767 4.82318,-0.17904 0.29611,-0.0192 0.93084,-0.13415 0.66634,-0.17651 -0.93125,-0.14917 -2.10214,-0.11989 -3.11678,-0.21577 -0.57169,-0.054 -1.07592,-0.15401 -1.61391,-0.23099 -5.15638,-0.40932 -2.62949,-0.0544 -0.0967,-0.45648 0.67826,-0.10767 -1.14183,-0.57025 -1.10128,-0.63847 0.0622,-0.1046 0.54426,-0.14553 0.81625,-0.21831 2.59367,-0.16863 3.73445,-0.22298 4.18471,-0.23985 -0.61361,0.0154 -2.03895,0.0173 -2.34191,-0.22888 -0.16003,-0.13 1.57368,-0.17514 1.16335,-0.24871 -1.13232,-0.20301 -2.87763,-0.009 -3.92374,-0.24618 -0.50235,-0.11398 1.14622,-0.16642 1.70344,-0.25759 0.0977,-0.0159 0.19014,-0.0344 0.28629,-0.0511 -37.00454,-1.21285 -139.781563,-0.002 -174.4129733,0 0.4896699,0.0208 0.8149399,0.0316 0.9598099,0.0342 -0.33518,-0.002 -1.53318,0.0169 -2.1088199,0.27448 -1.2110802,0.54208 4.0190203,-0.0624 -1.2064402,0.4949 -0.9640599,0.10279 -2.2767299,0.0204 -2.9765699,0.23478 -0.37712,0.1155 0.96386,0.1559 1.44585,0.23393 1.10564,0.39421 0.30246,0.18856 2.8617301,0.43622 0.4723099,0.13231 -1.57315,0.24555 -1.3284702,0.42057 0.1772401,0.12679 1.2386701,0.089 1.2051702,0.22507 -0.036,0.1462 -0.8783601,0.15426 -1.3174901,0.23141 -2.20188,0.32169 -2.06993,0.15611 0.1883299,0.44676 0.43219,0.0556 1.0891602,0.0533 1.2807402,0.17651 0.5295599,0.34045 -2.4796901,0.0254 -2.4808402,0.36232 0,0.17727 1.1681,0.12647 1.7520002,0.18959 -6.73259019,0.45775 -1.0957102,-0.0635 -0.1393402,0.40623 0.3413601,0.16764 -1.41518,0.0832 -1.8921899,0.22169 -0.2075701,0.0602 0.0933,0.1799 0.3133299,0.23647 1.6469101,0.42344 2.7458601,0.0878 -0.2778699,0.51349 1.52083,0.0875 3.1908099,0.0565 4.5626401,0.26223 0.4008199,0.0601 -0.52373,0.22262 -0.9226402,0.28376 -6.4790399,0.99289 -0.0791,-0.26397 -4.5694099,0.59963 -0.51647,0.0993 -2.07724,0.24187 -1.50837,0.31459 1.96734,0.25147 4.2542599,0.20545 6.38138,0.30826 -1.6243599,0.10185 -3.8723599,-0.0714 -4.87301,0.30572 -0.6979001,0.26298 2.3932101,0.0818 3.34988,0.26814 0.30686,0.0597 -0.8387099,0.16056 -0.66675,0.25421 0.27917,0.15206 1.35798,0.0894 1.5885601,0.24787 0.4716698,0.32421 -0.42663,0.29686 -1.10423,0.23689 0.42004,0.053 1.0122299,0.13122 2.0750299,0.28377 -2.3381099,0.75186 1.6354304,-0.42168 -5.77454,0.48056 -0.42169,0.0513 0.71312,0.16389 1.0746799,0.24406 0.37245,0.0826 0.6791902,0.20114 1.1270401,0.24408 1.2243101,0.11736 4.5166504,-0.0762 3.79326,0.2276 -0.9195099,0.38619 -3.2432799,0.14829 -4.8650001,0.22254 2.9294201,0.12725 4.4619701,0.1864 5.3822902,0.21957 -1.5627202,-0.0418 -4.2624502,-0.0754 -3.7823,0.17567 0.60207,0.31485 4.7394203,-0.045 3.7379601,0.17314 -1.4191102,0.30905 -3.5547502,0.11601 -5.3320202,0.17397 0.2437599,0.0584 0.8934699,0.0972 0.73137,0.17523 -0.2697001,0.12975 -0.97622,0.11817 -1.46445,0.17736 1.219,0.0604 2.4805799,0.0721 3.6568801,0.18115 0.2304299,0.0214 0.52543,0.1547 0.3107799,0.18665 -0.8701001,0.12957 -2.5813499,-0.0725 -2.8676399,0.19425 -0.2470402,0.23013 2.9841298,0.02 2.4394498,0.20437 -1.6104899,0.54515 -6.88538999,-0.0864 -1.2309099,0.45099 -3.1549601,0.71694 1.04653,-0.36746 3.9237499,0.51728 0.7693305,0.23659 -2.23379,0.13963 -3.26122,0.27618 -4.0284099,0.53539 7.0142105,0.50092 -0.7968099,0.81878 0.59925,0.19783 1.4635599,0.46219 1.2967901,0.51181 -0.54518,0.16219 -1.53246,0.1347 -2.18314,0.2618 -0.3087201,0.0603 -0.8559401,0.20784 -0.56627,0.27532 0.8008699,0.18658 2.7761898,-0.0104 2.9487198,0.27954 0.1545101,0.25962 -1.7509799,0.17456 -2.62652,0.26181 0.31008,0.0823 0.55875,0.18871 0.9302602,0.24704 0.59441,0.0933 2.3889599,0.0618 1.9128999,0.19931 -0.7696401,0.22221 -2.3066301,0.0135 -3.2320799,0.18115 -0.3861101,0.0699 1.1977799,0.055 1.2102399,0.18496 0.0371,0.3861 -4.86161006,0.0191 -3.8544901,0.38341 3.16154,0.43178 -0.55753,-0.0407 4.4093502,0.40115 0.5572799,0.0496 1.22023,0.0768 1.5999899,0.2027 0.17277,0.0572 -0.4211201,0.12085 -0.3977899,0.19594 0.11817,0.37992 1.7395499,-0.0336 -0.5367102,0.35809 -0.9894898,0.0618 -2.4710599,-0.0647 -2.9681399,0.18579 -0.7756201,0.39088 4.1871999,-0.0428 4.53436,0.39483 0.18938,0.23874 -4.83019,0.14121 -2.9103101,0.68661 1.4513401,0.086 3.0977102,0.0343 4.35405,0.25758 0.4777905,0.085 -0.94185,0.17633 -1.4086898,0.26603 -0.4441502,0.0854 -0.81911,0.20806 -1.3242502,0.25928 -1.2514699,0.12691 -3.1013399,-0.0391 -3.8739199,0.26773 -0.52377,0.20797 1.74155,0.14383 2.54082,0.26181 0.4217299,0.0623 0.7080001,0.1798 1.0619999,0.26982 -5.98435996,0.774 1.9800602,-0.40247 1.6489601,0.53502 -0.13241,0.37498 -2.8124701,0.0366 -3.8764501,0.26223 -0.4472799,0.0949 1.5038001,0.1096 1.3909701,0.26476 -0.42585,0.58563 -4.3566901,-0.0882 0.0752,0.4873 -0.5565698,0.082 -2.1640399,0.13632 -1.6696698,0.24577 1.04301,0.23089 2.7574899,0.0418 3.8756098,0.24238 0.3975801,0.0714 -0.6759099,0.1883 -1.07046,0.26096 -0.58356,0.10749 -1.2308898,0.18403 -1.8461598,0.27617 0.1806599,0.0944 0.7827698,0.20045 0.54219,0.28334 -0.4976501,0.1715 -1.4315001,0.17979 -2.1472601,0.26984 -0.0271,0.0876 -0.30244,0.20142 -0.0815,0.26307 1.5128499,0.42208 6.2781,0.36223 5.1474899,0.52446 -2.01515,0.28915 -4.5734699,0.0508 -6.7158099,0.25337 -0.8869,0.0839 1.96233,0.38087 4.8320499,0.6258 -1.0237798,0.0324 -2.0438499,0.0673 -2.9123999,0.21241 -0.47105,0.0787 0.8590499,0.20305 1.3766101,0.25294 1.2697899,0.1224 2.6213199,0.16212 3.9195099,0.25759 0.9827603,0.0722 3.8547703,0.13268 2.9204303,0.24534 -2.16101,0.26054 -4.7908603,0.0128 -6.9907104,0.24575 -0.8179898,0.0866 1.65945,0.15395 2.4893,0.23099 -10.39519,0.61193 -0.8800298,-0.10568 -0.4501399,0.44634 0.2430899,0.31215 -3.0074401,-0.0657 -3.26753,0.24534 -0.22933,0.27426 2.0370699,0.0464 2.91197,0.17988 0.5374201,0.0821 -1.2646001,0.43348 -0.7938799,0.46789 -3.5597801,0.75675 -0.0866,-0.15041 0.6638298,0.4797 0.2027801,0.17026 -1.5038999,0.16258 -1.4691,0.34204 0.0537,0.27709 3.3865402,0.0519 2.3828801,0.33528 -0.59572,0.1682 -1.56443,0.17448 -2.3465499,0.2618 2.58568,0.4271 0.64062,-0.0509 0.1507498,0.55403 -0.0715,0.0884 0.3646101,0.17551 0.6785702,0.19255 0.8743598,0.0474 1.8715498,-0.12201 2.67046,-0.0106 0.52447,0.0732 -1.14886,0.0758 -1.6717701,0.14991 -0.2625701,0.0372 -0.41744,0.11675 -0.62622,0.17524 6.0165603,-0.0137 -2.2383301,-0.0252 -2.76714,0.21578 -0.70472,0.32114 3.0582099,-0.0515 3.9102299,0.23944 0.5570802,0.19023 -3.19761,0.13243 -2.45002,0.25968 1.6322601,0.27783 5.2263604,-0.24772 5.6242404,0.28039 0.36881,0.48956 -3.4594804,0.1976 -5.1893103,0.29644 3.10794,0.17802 4.8072103,0.2646 5.9422103,0.31798 -1.6520903,-0.046 -3.9371902,-0.0476 -3.4888003,0.29685 0.4336101,0.33309 4.2494293,0.0134 3.5871993,0.3146 -0.880029,0.40039 -3.3250292,0.12054 -4.8920293,0.2787 -0.2494301,0.0252 -0.0599,0.14916 -0.0899,0.22378 1.9226302,0.0616 3.8451703,0.12338 5.7678003,0.18496 0,0.0581 0.0865,0.11443 0.24535,0.16933 36.870109,1.05799 138.932963,0.53477 174.608493,0 z m -4.37853,-14.12414 c 1.92508,0.48256 3.91637,0.69192 2.08264,-0.59498 -0.10103,0.69613 -0.44486,0.51928 -2.08264,0.59498 z M 5.9284965,151.84121 c 0.12935,0.002 0.2652702,-0.0125 0.4041201,-0.038 h -0.77953 c -0.1209701,0 0.2435799,0.0367 0.3754099,0.038 z"
       sodipodi:nodetypes="ccssssscssssccssscsssscssssccsssscsssscssscssssscscssscsssccssccsssscsssccssssccssscssssscssccssscsssscccsssscssccsssscccsssccsscssccssscsssscssssccssssccsscscsssscsscsssscsssscssccsscssssscssscssscscssscssssscssscssscsssscssssccssscccccscsccsc" />
    <path
       inkscape:export-ydpi="96"
       inkscape:export-xdpi="96"
       inkscape:export-filename="D:\Calcatz\Icon Pack\Adventure Narrative Inspired by Jumanji\Assets\PNG\Highlighter\08_pause_menu_save_load_selected.png"
       sodipodi:nodetypes="ccccccsssscccccsscssccsscccccssssccsssscscsscssccssssscscssscsssccssccsssscssccscccscscccssssccscssscsccccsccccccsssccssccsssscsscccsccsscscscccssccccccccscscssccscccsscccsssccsscscscsccsscsssscsssccssccssccsssccccccccsccccccssccscscccscccccccscccccsssccccccscsscsccccscccssscccccc"
       d="m 40.254766,151.26401 c -23.39507,0.0141 -12.501149,0.31109 -32.5686295,0.6119 -6.085e-4,3e-4 -0.00201,6e-4 -0.00201,6e-4 H 18.776687 c -0.129451,0.0336 -0.26292,0.0654 -0.36926,0.0879 -4.072231,0.86191 -0.70826,-0.162 -2.88632,0.54597 0.754299,0.0874 1.725859,0.0882 2.26299,0.26199 0.24491,0.0793 -0.3637,0.19461 -0.67652,0.25144 -0.61039,0.11092 -2.16487,0.0358 -2.008041,0.23651 0.1797,0.23007 1.68201,0.088 2.3663,0.22155 0.206691,0.0404 -0.10872,0.13887 -0.16309,0.20836 0.705111,0.0658 1.410221,0.13191 2.115291,0.19782 -1.520251,0.0631 -3.040871,0.12633 -4.56115,0.18945 -0.0217,0.0611 -0.27408,0.16738 -0.0651,0.18332 1.565929,0.11927 3.24241,0.0771 4.82315,0.17934 0.29612,0.0192 0.93092,0.13392 0.66642,0.17628 -0.93125,0.14917 -2.102031,0.11995 -3.11667,0.21584 -0.571681,0.054 -1.075731,0.1538 -1.61373,0.23078 -5.15637,0.40931 -2.629481,0.0546 -0.0967,0.45674 0.67824,0.10766 -1.142149,0.57005 -1.101609,0.63827 0.0622,0.1046 0.544329,0.14569 0.816309,0.21848 2.59368,0.16862 3.734611,0.22315 4.184861,0.24001 -0.613621,-0.0154 -2.03914,-0.0175 -2.342111,0.22859 -0.160029,0.12999 1.573921,0.17523 1.163591,0.2488 -1.132321,0.20301 -2.877641,0.009 -3.92376,0.24617 -0.502351,0.11398 1.14618,0.16643 1.703399,0.2576 0.0977,0.0159 0.190021,0.0344 0.286171,0.0511 -1.62835,0.0533 -3.283981,0.10077 -4.95151,0.14506 0.0768,6e-4 0.0548,4.7e-4 0.13627,0.002 1.422599,0.0155 5.165179,-0.26657 4.26795,0.047 -1.079041,0.37714 -3.437021,0.088 -5.07019,0.23385 -0.34164,0.0305 0.63128,0.0967 0.96665,0.13232 0.59053,0.0629 1.95661,-0.0114 1.80407,0.16221 -0.169641,0.19307 -1.675901,0.2071 -2.69028,0.1921 0.85824,0.0298 2.37008,0.0895 5.06756,0.21584 -10.0793304,0.42111 -5.75492,-0.0824 -3.933861,0.46947 0.19652,0.0595 -0.0716,0.17703 0.0949,0.24354 0.28365,0.11323 1.192849,0.11815 1.157429,0.25671 -0.0377,0.14758 -1.606809,0.13492 -1.28755,0.25189 0.44223,0.16201 1.234531,0.1877 1.98825,0.22859 -0.79619,0.17313 -1.83228,0.55356 -1.29062,0.61234 1.590171,0.17253 6.390031,-0.0348 5.02799,0.25496 -1.995889,0.42465 -4.9952,0.10089 -7.429459,0.25584 -0.4050502,0.0258 -1.2048505,0.23248 -0.8097103,0.26859 2.1240703,0.19408 4.4202893,0.17599 6.6302903,0.26375 -0.11077,0.0161 -3.713711,0.53635 -3.777821,0.553 -0.246659,0.0641 -0.0183,0.20544 -0.240009,0.2765 -0.3768,0.12077 -1.46803,0.10008 -1.43657,0.26111 0.12926,0.66136 3.710539,-0.16087 0.20792,0.48795 1.150649,0.0797 2.38561,0.0927 3.451649,0.23913 0.26416,0.0362 -0.12362,0.19293 0.0954,0.24837 0.53374,0.1351 2.613301,0.20282 1.931991,0.26463 -2.475411,0.22457 -5.2607,0.0427 -7.7415705,0.26243 -0.6261499,0.0554 1.1432302,0.18243 1.7205405,0.27079 0.58741,0.0899 1.18218,0.17627 1.773299,0.26419 0.572251,-0.12923 3.3424,0.63839 2.17112,0.79917 -0.827929,0.11366 -1.48489,0.16384 -2.01067,0.18815 1.573761,0.39449 3.103371,0.97091 2.462131,1.06731 -0.894261,0.13444 -1.97793,0.12569 -2.94085,0.21408 -0.55389,0.0509 -2.1574903,0.16031 -1.5943803,0.20222 5.3089003,0.39504 10.0971803,-0.0362 4.3083903,0.37848 -1.86789,0.15342 -1.904361,0.0874 -3.12722,0.35826 -0.26967,0.0597 -0.976,0.12054 -0.75916,0.19561 0.43077,0.14917 1.331729,0.10148 1.91044,0.20265 0.233109,0.0407 0.270979,0.13518 0.406619,0.20265 0.602,0.0663 1.20426,0.13241 1.806261,0.1987 -13.59568046,0.54911 0.679379,-0.15632 -0.087,0.38331 -0.659001,0.46401 -4.6462805,-0.28498 -5.2495503,0.18507 -1.3755201,1.07173 0.9216003,0.87536 2.7944503,0.57235 -0.0747,0.0185 -0.148561,0.037 -0.224621,0.055 -0.392339,0.0873 -1.534429,0.1632 -1.177649,0.26199 0.7831,0.21684 2.952969,-0.0267 3.131609,0.27958 0.161641,0.27722 -1.97482,0.12311 -2.807639,0.27519 -0.26103,0.0476 0.023,0.18587 -0.1332,0.26199 -0.8826903,0.4302 -1.5160203,0.0505 -0.0537,0.51168 -0.2633,0.23138 1.18739,0.34277 1.05809,0.54772 -0.0805,0.12754 -1.24507,0.16538 -0.9816,0.27122 0.41674,0.16744 1.49639,0.10386 2.086279,0.20749 h 0.261561 c 1.48945,0.0921 4.239629,-0.0893 3.647259,0.20924 -0.497089,0.25051 -1.97862,0.12411 -2.968099,0.18594 -0.54401,0.0936 -0.854831,0.13967 -1.027321,0.16309 0.0284,0.008 0.0568,0.0161 0.0853,0.0242 0.1709,0.0106 0.36678,0.0467 0.4053,0.17056 0.0169,0.0544 -0.28476,0.10249 -0.389469,0.14682 0.835199,0.009 1.747599,-0.0317 2.2309,0.13715 0.242369,0.0846 -0.184061,0.0962 -0.72927,0.10726 0.0295,0.002 0.0612,0.005 0.0901,0.008 4.966871,0.44182 1.24797,-0.0304 4.4095,0.40134 1.007131,0.36435 -3.89139,-0.002 -3.85431,0.38332 0.0125,0.12994 1.596311,0.11514 1.210201,0.18506 -0.92545,0.16759 -2.46265,-0.0411 -3.232291,0.18112 -0.47606,0.13745 1.318671,0.10584 1.913091,0.19913 0.371499,0.0584 0.620079,0.16479 0.930159,0.24704 -0.752359,0.075 -2.261909,0.0233 -2.574659,0.17189 0.658109,0.0448 1.434629,0.0472 1.789109,0.2 0.0671,0.0289 0.043,0.0557 -0.0286,0.0805 0.435919,0.009 0.858679,0.0246 1.136339,0.0892 0.289671,0.0674 -0.25747,0.21487 -0.56619,0.27518 -0.65068,0.1271 -1.63825,0.0998 -2.18343,0.262 -0.166779,0.0496 0.69753,0.31385 1.29678,0.51167 -7.8110192,0.31787 3.231891,0.28312 -0.79653,0.81852 -0.57259,0.0761 -1.74426,0.0806 -2.549169,0.1099 -0.0106,0.0263 -0.0297,0.0515 -0.0787,0.0721 -0.24046,0.0642 -0.36864,0.0963 -0.50465,0.131 2.87141,0.81538 6.90347,-0.22592 3.794959,0.48046 5.654481,0.53744 0.37965,-0.0941 -1.230849,0.45102 -0.453901,0.15369 1.70802,0.0343 2.30037,0.12308 h 4.664009 c -0.0129,0.006 -0.0413,0.012 -0.105059,0.0167 -1.79719,0.13373 -3.49849,0.17013 -4.786221,0.17935 -0.4501,0.0572 -1.19202,0.0223 -1.83001,0.0351 0.336181,0.0263 0.98001,0.0688 2.30784,0.16397 1.867891,0.15342 1.90436,0.087 3.12723,0.35782 0.269661,0.0597 0.97599,0.12098 0.75916,0.19607 -0.430779,0.14916 -1.33173,0.10147 -1.910449,0.20265 -0.2331,0.0407 -0.270971,0.13473 -0.406621,0.2022 -0.601999,0.0663 -1.204259,0.13284 -1.806259,0.19913 13.595679,0.54911 -0.679371,-0.15632 0.087,0.38332 0.658999,0.464 4.646279,-0.28497 5.24955,0.18507 1.37552,1.07172 -0.921611,0.8749 -2.79445,0.5719 0.0747,0.0185 0.14856,0.0374 0.22462,0.0554 0.392339,0.0873 1.53443,0.16321 1.177649,0.26199 -0.78311,0.21684 -2.952989,-0.0267 -3.131609,0.27958 -0.161651,0.27722 1.974819,0.12311 2.80764,0.27518 0.26102,0.0476 -0.023,0.18588 0.1332,0.262 0.88268,0.4302 1.516009,0.0505 0.0536,0.51167 0.26329,0.2314 -1.18739,0.34279 -1.058089,0.54773 0.0805,0.12754 1.245069,0.16539 0.981599,0.27123 -0.488059,0.19608 -1.89083,0.0734 -2.34388,0.27606 -0.26245,0.11745 0.753951,0.17754 1.131061,0.26638 -0.295061,0.0835 -0.58983,0.16748 -0.884891,0.25101 0.37501,0.0778 1.503431,0.15699 1.124911,0.23342 -0.914961,0.18474 -2.55773,-0.0249 -3.307021,0.20221 33.263291,0.96109 117.563963,0.10152 150.090263,-0.0633 -0.2409,-0.0423 -0.44213,-0.097 -0.27386,-0.12397 0.93125,-0.14917 2.10203,-0.11995 3.11667,-0.21583 0.57168,-0.054 1.07573,-0.15381 1.61373,-0.23079 5.15637,-0.40931 2.62949,-0.0546 0.0967,-0.45672 -0.51608,-0.0819 0.41065,-0.36827 0.8673,-0.53102 -0.22563,-0.0239 -0.43052,-0.0575 -0.59871,-0.10902 -0.1932,-0.0592 0.0664,-0.0987 0.42859,-0.13363 -0.14348,-0.0269 -0.29598,-0.0521 -0.41189,-0.0831 -2.59368,-0.16862 -3.73461,-0.22314 -4.18487,-0.24001 0.61362,0.0154 2.03915,0.0175 2.34212,-0.22859 0.16003,-0.12999 -1.57392,-0.17523 -1.16359,-0.2488 1.13232,-0.20301 2.87764,-0.009 3.92375,-0.24617 0.50235,-0.11398 -1.14618,-0.16643 -1.7034,-0.2576 -0.0977,-0.0159 -0.19001,-0.0343 -0.28616,-0.0509 1.17425,-0.0385 2.35958,-0.0744 3.55449,-0.10815 -1.71055,-0.23426 -1.53152,-0.12824 0.55608,-0.39694 0.4322,-0.0556 1.08938,-0.0535 1.28096,-0.17671 0.52954,-0.34044 -2.47988,-0.0254 -2.48103,-0.36222 0,-0.17728 1.16786,-0.12633 1.75176,-0.18946 -6.7326,-0.45775 -1.09529,0.0636 -0.13892,-0.40619 0.34137,-0.16763 -1.41541,-0.083 -1.89242,-0.22154 -0.20756,-0.0602 0.0934,-0.17992 0.31342,-0.2365 1.64692,-0.42344 2.74591,-0.0882 -0.27781,-0.51388 1.52083,-0.0875 3.19064,-0.0562 4.56248,-0.26199 0.40082,-0.0601 -0.52378,-0.22284 -0.9227,-0.28397 -0.25747,-0.0395 -0.37691,-0.0549 -0.5952,-0.0875 h 5.16779 c 0.61817,-0.0833 1.33157,-0.17306 0.91786,-0.22595 -1.96735,-0.25147 -4.25437,-0.20534 -6.38149,-0.30816 1.62437,-0.10185 3.87261,0.0712 4.87326,-0.30594 0.69791,-0.26298 -2.39343,-0.0818 -3.35009,-0.26815 -0.30686,-0.0597 0.83881,-0.16043 0.66685,-0.25409 -0.27917,-0.15205 -1.35808,-0.0894 -1.58867,-0.24793 -0.47166,-0.3242 0.42665,-0.29689 1.10424,-0.23693 -0.42003,-0.053 -1.01206,-0.13143 -2.07485,-0.28397 2.3381,-0.75186 -1.63555,0.42176 5.77442,-0.48047 0.42168,-0.0513 -0.71323,-0.1638 -1.07479,-0.24398 -0.37245,-0.0826 -0.67926,-0.20102 -1.1271,-0.24396 -1.22431,-0.11736 -4.51658,0.0761 -3.7932,-0.22771 0.91951,-0.38621 3.24319,-0.14819 4.86491,-0.22243 -2.92942,-0.12725 -4.46199,-0.18662 -5.3823,-0.2198 1.56272,0.0418 4.26279,0.0757 3.78265,-0.1754 -0.60209,-0.31484 -4.73972,0.0449 -3.73826,-0.17318 1.41911,-0.30907 3.55493,-0.11612 5.3322,-0.17408 -0.24377,-0.0584 -0.89358,-0.0974 -0.73147,-0.1754 0.26969,-0.12975 0.97646,-0.11796 1.46469,-0.17716 -1.219,-0.0604 -2.48062,-0.0721 -3.65692,-0.18111 -0.23043,-0.0214 -0.52544,-0.15488 -0.31078,-0.18683 0.87009,-0.12955 2.58113,0.0724 2.86742,-0.19428 0.24704,-0.23014 -2.98395,-0.02 -2.43927,-0.20442 1.6105,-0.54514 6.88533,0.0869 1.23085,-0.45057 3.15496,-0.71693 -1.04654,0.36734 -3.92376,-0.51739 0,0 2.23388,-0.13952 3.2613,-0.27606 4.02842,-0.5354 -7.0145,-0.50109 0.79653,-0.81895 -0.59925,-0.19783 -1.46356,-0.46206 -1.29678,-0.51168 0.54518,-0.16219 1.53275,-0.1349 2.18343,-0.26199 0.30872,-0.0603 0.85586,-0.20771 0.56619,-0.27519 -0.80088,-0.18657 -2.77623,0.0104 -2.94876,-0.27958 -0.1545,-0.2596 1.75101,-0.17473 2.62654,-0.26199 -0.31008,-0.0823 -0.55866,-0.18872 -0.93016,-0.24706 -0.59442,-0.0933 -2.38915,-0.0617 -1.91309,-0.19912 0.76964,-0.22222 2.30684,-0.0135 3.23229,-0.18112 0.38611,-0.0699 -1.19773,-0.0551 -1.21019,-0.18507 -0.0371,-0.3861 4.86142,-0.019 3.8543,-0.38331 -3.16154,-0.43177 0.55738,0.0405 -4.4095,-0.40134 -0.55728,-0.0496 -1.21989,-0.0767 -1.59966,-0.20266 -0.17277,-0.0572 0.42072,-0.12096 0.39739,-0.19605 -0.11817,-0.37994 -1.73951,0.0338 0.53674,-0.35783 0.98949,-0.0618 2.47101,0.0646 2.96809,-0.18594 0.77562,-0.39088 -4.18718,0.0429 -4.53434,-0.39475 -0.18937,-0.23873 4.83039,-0.14124 2.9105,-0.68664 -1.45132,-0.086 -3.09777,-0.0343 -4.35411,-0.25758 -0.47779,-0.085 0.94204,-0.17626 1.40888,-0.26597 0.44415,-0.0854 0.81889,-0.20812 1.32404,-0.25935 1.25146,-0.12691 3.10151,0.0391 3.87408,-0.26771 0.1346,-0.0534 0.0811,-0.0886 -0.0805,-0.11386 h -3.51319 c -0.941,-0.0499 -2.09238,-0.11322 -3.59978,-0.19956 1.12367,-0.0642 3.12708,0.0356 4.29609,-0.0202 -0.24679,-0.0612 -0.46108,-0.13566 -0.70554,-0.19782 0.97418,-0.126 1.11494,-0.14095 1.4458,-0.18111 -0.025,-0.0109 -0.0531,-0.0209 -0.0826,-0.0304 -0.92708,0.0655 -2.31781,0.12484 -2.83138,-0.0809 -0.94694,0.0269 -1.90723,0.0439 -2.55751,-0.0668 -0.6124,-0.10424 1.79309,-0.0846 2.37816,-0.17847 0.0113,-0.0292 0.0433,-0.0528 0.084,-0.0738 -0.006,-0.002 -0.004,-0.004 -0.0118,-0.007 -0.85202,-0.29095 -4.61529,0.0816 -3.91057,-0.23957 0.5288,-0.24093 8.78375,-0.22953 2.7672,-0.21584 0.20878,-0.0585 0.36384,-0.13778 0.62641,-0.17495 0.52291,-0.0741 2.19621,-0.0767 1.67175,-0.1499 -0.79891,-0.11147 -1.79614,0.0579 -2.67049,0.0106 -0.31397,-0.017 -0.75027,-0.1046 -0.67872,-0.19298 0.48987,-0.60492 2.43489,-0.12678 -0.15078,-0.55388 0.78211,-0.0873 1.75079,-0.0933 2.34651,-0.26156 1.00366,-0.28343 -2.32889,-0.0583 -2.38256,-0.3354 -0.0348,-0.17945 1.67187,-0.17174 1.4691,-0.342 -0.75048,-0.63009 -4.22355,0.27716 -0.66378,-0.47959 -0.47072,-0.0344 1.33131,-0.38607 0.7939,-0.46816 -0.87491,-0.13351 -3.14159,0.0945 -2.91227,-0.17979 0.2601,-0.31096 3.51054,0.0669 3.26745,-0.24529 -0.42989,-0.55203 -9.94505,0.16532 0.45015,-0.44662 -0.82986,-0.0771 -3.30695,-0.14416 -2.48895,-0.23078 1.6997,-0.17994 3.65411,-0.075 5.45263,-0.13715 -1.26437,-0.12099 -2.6086,-0.16128 -3.90045,-0.25627 -0.98275,-0.0722 -3.85495,-0.13263 -2.92062,-0.2453 0.49133,-0.0592 1.0089,-0.0903 1.53812,-0.10858 -0.006,-5.8e-4 -0.0127,-6.1e-4 -0.0189,-0.002 -0.51755,-0.0499 -1.84784,-0.17451 -1.37679,-0.2532 0.86855,-0.14511 1.88848,-0.17991 2.91226,-0.21232 -2.86971,-0.24493 -5.71883,-0.54166 -4.83194,-0.62554 0.0783,-0.008 0.16066,-0.0107 0.24002,-0.0167 h 1.10117 c 0.27576,-0.13456 0.79139,-0.29674 1.24007,-0.3943 -0.75373,-0.0409 -1.54603,-0.0666 -1.98825,-0.22859 -0.31927,-0.11697 1.24987,-0.10431 1.28755,-0.25188 0.0354,-0.13857 -0.87378,-0.14349 -1.15743,-0.25673 -0.16659,-0.0665 0.10157,-0.18398 -0.095,-0.24352 -1.82106,-0.55191 -6.14548,-0.0484 3.93385,-0.46948 -2.69748,-0.12629 -4.20931,-0.18607 -5.06755,-0.21584 1.01437,0.0149 2.52063,6.1e-4 2.69027,-0.1921 0.15255,-0.17361 -1.21354,-0.0993 -1.80406,-0.16221 -0.33537,-0.0356 -1.3083,-0.10187 -0.96665,-0.13232 1.63316,-0.14583 3.99115,0.1433 5.07019,-0.23385 0.89723,-0.3136 -2.84535,-0.0314 -4.26795,-0.047 -5.65055,-0.0893 -0.13406,0.066 2.4208,-0.37804 0.81425,-0.14156 -2.20857,0.18636 -2.86434,-0.0106 -0.48735,-0.14634 2.16798,-0.1056 1.87044,-0.28837 -0.34345,-0.21091 -2.9821,0.11025 -2.4463,-0.0655 0.93961,-0.30822 2.58511,-0.34317 3.94705,-0.48795 -0.005,-0.005 -0.0116,-0.01 -0.0158,-0.0154 -0.008,-0.01 -0.0104,-0.0192 -0.0145,-0.0286 -3.18526,-0.14858 2.48915,0.0954 -4.05871,-0.0229 -0.41578,-0.008 -1.50343,-0.026 -1.19391,-0.10506 1.01787,-0.2602 3.23262,-0.15838 3.66659,-0.52707 0.30525,-0.25927 -1.84761,-0.15531 -2.7716,-0.23298 0.24747,-0.10029 0.49503,-0.20037 0.74247,-0.30067 -0.7341,-0.12458 -1.93119,-0.14354 -2.20279,-0.37366 -0.1789,-0.15162 1.15556,-0.0948 1.50075,-0.22111 0.17912,-0.0656 -0.32199,-0.15918 -0.24441,-0.23914 0.0349,-0.036 0.1068,-0.0667 0.18902,-0.0958 -15.49082,-0.41036 -110.356962,-0.55816 -127.626404,-0.54772 z m -28.19034,14.73628 c -1.925079,-0.48256 -3.9164995,-0.69216 -2.0827695,0.59476 0.1010305,-0.69613 0.4449805,-0.51906 2.0827695,-0.59476 z"
       style="fill:#d2c7c3;fill-opacity:1;stroke:none;stroke-width:0.690954;stroke-linecap:square;stroke-miterlimit:4;stroke-dasharray:none;stroke-opacity:0.5;paint-order:fill markers stroke"
       id="path9119" />
  </g>
</svg>
