<?xml version="1.0" encoding="UTF-8" standalone="no"?>
<svg
   xmlns:dc="http://purl.org/dc/elements/1.1/"
   xmlns:cc="http://creativecommons.org/ns#"
   xmlns:rdf="http://www.w3.org/1999/02/22-rdf-syntax-ns#"
   xmlns:svg="http://www.w3.org/2000/svg"
   xmlns="http://www.w3.org/2000/svg"
   xmlns:sodipodi="http://sodipodi.sourceforge.net/DTD/sodipodi-0.dtd"
   xmlns:inkscape="http://www.inkscape.org/namespaces/inkscape"
   sodipodi:docname="19_pause_menu_gallery_selected.svg"
   inkscape:version="1.0 (4035a4fb49, 2020-05-01)"
   id="svg10935"
   version="1.1"
   viewBox="0 0 134.65652 50.716152"
   height="50.716152mm"
   width="134.65652mm">
  <defs
     id="defs10929" />
  <sodipodi:namedview
     inkscape:window-maximized="1"
     inkscape:window-y="-8"
     inkscape:window-x="-8"
     inkscape:window-height="705"
     inkscape:window-width="1366"
     fit-margin-bottom="0"
     fit-margin-right="0"
     fit-margin-left="0"
     fit-margin-top="0"
     showgrid="false"
     inkscape:document-rotation="0"
     inkscape:current-layer="layer1"
     inkscape:document-units="mm"
     inkscape:cy="211.82551"
     inkscape:cx="207.47302"
     inkscape:zoom="0.33557348"
     inkscape:pageshadow="2"
     inkscape:pageopacity="0.0"
     borderopacity="1.0"
     bordercolor="#666666"
     pagecolor="#ffffff"
     id="base" />
  <metadata
     id="metadata10932">
    <rdf:RDF>
      <cc:Work
         rdf:about="">
        <dc:format>image/svg+xml</dc:format>
        <dc:type
           rdf:resource="http://purl.org/dc/dcmitype/StillImage" />
        <dc:title></dc:title>
      </cc:Work>
    </rdf:RDF>
  </metadata>
  <g
     transform="translate(-50.939429,-92.121168)"
     id="layer1"
     inkscape:groupmode="layer"
     inkscape:label="Layer 1">
    <path
       inkscape:export-ydpi="95"
       inkscape:export-xdpi="95"
       inkscape:export-filename="D:\Calcatz\Icon Pack\Adventure Narrative Inspired by Jumanji\Assets\PNG\Highlighter\09_pause_menu_gallery_selected.png"
       id="path9126"
       style="fill:#cbbfba;fill-opacity:0.698039;stroke:none;stroke-width:1.061;stroke-linecap:square;stroke-miterlimit:4;stroke-dasharray:none;stroke-opacity:0.5;paint-order:fill markers stroke"
       d="m 51.337829,141.94747 c -0.25794,-0.0796 -0.3984,-0.16155 -0.3984,-0.24587 1.62139,-0.0894 3.69988,0.0313 4.86406,-0.26856 0.66981,-0.17255 -2.0406,-0.12195 -2.56131,-0.32495 -0.31608,-0.12326 0.77494,-0.25927 0.68849,-0.40464 -0.10769,-0.18096 -1.78008,-0.34769 -1.20077,-0.45679 1.69258,-0.31867 5.54775,0.06 6.06009,-0.4586 0.44188,-0.44735 -3.45261,-0.28937 -5.17885,-0.4341 4.1637,-0.50472 4.36837,-0.1696 2.27875,-0.83751 -0.39352,-0.12574 -1.01372,-0.22286 -1.18154,-0.37767 -0.12603,-0.11616 0.68792,-0.25185 0.39702,-0.34702 -0.56056,-0.18347 -2.72771,-0.10043 -2.43718,-0.32066 0.44107,-0.33413 2.38479,-0.36177 3.57691,-0.54263 -0.40183,-0.14565 -0.80368,-0.29091 -1.20556,-0.43654 1.50054,-0.11279 4.99703,0.0381 4.50132,-0.33846 -0.70478,-0.5353 -4.3014,-0.38735 -5.9544,-0.76515 -0.50266,-0.11488 1.26338,-0.14171 1.9386,-0.15268 11.17922,-0.18042 -0.0451,0.23812 7.088,-0.0552 -2.28591,-0.25044 -5.22865,-0.27336 -6.85758,-0.75106 -0.87011,-0.25517 3.41485,0.21125 3.97261,-0.0949 0.48321,-0.26539 -3.82864,-0.20628 -3.03722,-0.41877 1.06497,-0.28592 5.9738,0.19079 4.65148,-0.0146 -4.14903,-0.6448 -13.10781,-0.41902 -3.93144,-0.54875 2.31024,-0.0228 8.38804,0.38729 6.93096,-0.0681 -1.75234,-0.5476 -5.58168,-0.12791 -8.2339,-0.33966 -0.55483,-0.0442 1.02577,-0.14068 1.57039,-0.19253 0.95899,-0.0913 3.17728,0.0167 2.92956,-0.23543 -0.27549,-0.28033 -2.72167,-0.30074 -4.369,-0.27896 1.39377,-0.0433 3.84917,-0.12995 8.22981,-0.3133 -16.3686,-0.61144 -9.34587,0.11949 -6.38852,-0.68178 0.31915,-0.0865 -0.11692,-0.25661 0.15363,-0.35317 0.46066,-0.16443 1.93718,-0.17159 1.87966,-0.37278 -0.0612,-0.21427 -2.60937,-0.19619 -2.09088,-0.36604 0.71815,-0.23522 2.0052,-0.27232 3.22924,-0.3317 -1.293,-0.2514 -2.97534,-0.80368 -2.0957,-0.88901 2.58239,-0.25053 10.37659,0.0504 8.16469,-0.37033 -3.24128,-0.61659 -8.11208,-0.14656 -12.06526,-0.37153 -0.65779,-0.0376 -1.95631,-0.33755 -1.3146,-0.38996 3.44945,-0.2818 7.17812,-0.25517 10.76709,-0.3826 -0.17991,-0.0233 -6.0307,-0.77899 -6.13479,-0.80319 -0.40059,-0.0931 -0.0294,-0.29841 -0.38953,-0.40158 -0.61191,-0.17534 -2.38402,-0.14505 -2.33294,-0.3789 0.20994,-0.96026 6.02556,0.23329 0.33738,-0.70877 1.86863,-0.1157 3.87421,-0.13445 5.60543,-0.34702 0.42898,-0.0526 -0.20066,-0.28003 0.15492,-0.36051 0.86679,-0.19617 4.24377,-0.29468 3.13732,-0.38442 -4.02,-0.32608 -8.54312,-0.0617 -12.57201,-0.38076 -1.01685,-0.0803 1.85626,-0.26533 2.79377,-0.39363 0.95395,-0.13052 1.92025,-0.25555 2.88021,-0.3832 0.92932,0.18764 5.42759,-0.92718 3.52546,-1.16065 -1.34453,-0.16501 -2.41102,-0.23753 -3.26487,-0.27282 2.55575,-0.57279 5.03929,-1.41 3.99797,-1.54996 -1.45227,-0.19519 -3.21186,-0.18254 -4.77562,-0.31085 -0.8995,-0.0737 -3.50391,-0.23283 -2.58941,-0.29368 8.6215,-0.5736 16.39761,0.0527 6.99677,-0.54937 -3.03341,-0.22277 -3.09213,-0.12661 -5.07804,-0.51992 -0.43792,-0.0867 -1.5851,-0.17547 -1.23297,-0.2845 0.69957,-0.21657 2.16254,-0.14738 3.10233,-0.29429 0.37858,-0.0591 0.4401,-0.19569 0.66041,-0.29367 0.97762,-0.0962 1.95535,-0.19253 2.93298,-0.2888 -22.07905,-0.79727 1.1034,0.22685 -0.14128,-0.5567 -1.0702,-0.67369 -7.54498,0.41394 -8.52469,-0.26853 -2.23378,-1.5561 1.49619,-1.27072 4.53765,-0.83077 -0.12135,-0.0268 -0.24129,-0.0541 -0.36483,-0.0802 -0.63717,-0.12676 -2.49125,-0.23668 -1.91187,-0.38014 1.27174,-0.31484 4.79548,0.0387 5.08557,-0.40588 0.26252,-0.4025 -3.2071,-0.17895 -4.55959,-0.39974 -0.42389,-0.0692 0.0368,-0.26964 -0.2167,-0.38015 -1.43347,-0.62462 -2.46191,-0.0733 -0.087,-0.7431 -0.4276,-0.33596 1.9285,-0.49764 1.71854,-0.79523 -0.13074,-0.18516 -2.02225,-0.23994 -1.59441,-0.39362 0.79261,-0.28471 3.07093,-0.1067 3.80665,-0.40097 0.42622,-0.17055 -1.22478,-0.25787 -1.83718,-0.3869 0.47917,-0.12123 0.95821,-0.24289 1.43738,-0.36419 -0.609,-0.11302 -2.44158,-0.22809 -1.82686,-0.33904 1.51944,-0.27429 4.27878,0.0515 5.4545,-0.31575 0.77404,-0.24175 -2.64485,-0.0713 -3.49257,-0.29677 -0.39615,-0.10527 1.14123,-0.1433 1.3146,-0.28202 0.1246,-0.0998 -0.41552,-0.18072 -0.62333,-0.27102 0.17504,-0.0878 0.35017,-0.17532 0.52529,-0.26303 -4.47611,0.10934 0.0569,-0.45986 -0.61652,-0.51195 -2.38962,-0.1847 -5.09321,-0.0274 -7.42812,-0.25258 -0.75306,-0.0726 1.43555,-0.19055 2.20471,-0.25137 4.93372,-0.39022 4.38862,0.13271 4.62954,-0.57388 1.13623,-0.10769 2.74131,-0.0661 3.40826,-0.32313 0.39426,-0.15198 -1.04273,-0.26537 -1.71235,-0.33045 -1.71643,-0.16683 -3.99114,-0.0361 -5.33454,-0.3544 -0.66422,-0.15735 2.56358,-0.13081 2.3419,-0.35439 -0.26984,-0.27209 -2.0998,-0.19098 -3.03177,-0.34212 -0.53042,-0.086 -0.84485,-0.23722 -1.26726,-0.35559 0.67741,-0.7593 4.90813,-0.28224 6.27949,-0.75599 0.65735,-0.2271 -2.16666,-0.17791 -3.0146,-0.3599 -0.38284,-0.0822 -0.10263,-0.26359 -0.38266,-0.36909 -2.12265,-0.50693 -1.25641,-0.22576 -2.64978,-0.83323 -2.00563,-0.8297 4.65942,-0.4367 4.33742,-0.90437 -0.30206,-0.43871 -3.66334,-0.14155 -4.97858,-0.43653 -0.50767,-0.11383 0.5526,-0.33129 1.09585,-0.43407 6.61319,-1.251471 1.15001,0.23519 4.68714,-0.79276 -1.22498,-0.12691 -2.80268,-0.12836 -3.67499,-0.380751 -0.39773,-0.11511 0.59058,-0.28232 1.0986,-0.36482 0.99125,-0.16104 3.51614,-0.0519 3.26144,-0.34335 -0.29183,-0.33407 -2.73171,-0.12792 -3.84298,-0.32187 -0.33565,-0.0586 0.17639,-0.20201 0.2647,-0.30291 -1.14507,-0.0955 -2.28993,-0.19125 -3.43496,-0.28693 2.46885,-0.0916 4.93799,-0.18362 7.40687,-0.27528 0.0352,-0.0887 0.44515,-0.24296 0.10571,-0.2661 -2.54303,-0.1732 -5.26563,-0.11141 -7.83271,-0.25997 -0.48088,-0.0278 -1.51167,-0.19478 -1.08213,-0.25628 1.51232,-0.21658 3.41383,-0.17407 5.06159,-0.31328 0.9284,-0.0784 1.74726,-0.22362 2.62093,-0.33541 8.37384,-0.5943 4.27023,-0.079 0.15705,-0.66278 -1.10149,-0.15632 1.8543,-0.82797 1.78845,-0.92702 -0.10109,-0.15187 -0.88388,-0.21131 -1.32557,-0.31698 -4.21205,-0.24485 -6.06466,-0.32376 -6.79587,-0.34825 0.99648,0.0223 3.31121,0.0251 3.80321,-0.33232 0.25987,-0.18876 -2.55562,-0.25431 -1.88925,-0.36112 1.83886,-0.29477 4.6732,-0.013 6.37205,-0.35744 0.8158,-0.1655 -1.86143,-0.24164 -2.76635,-0.374 -0.15865,-0.0231 -0.30878,-0.0499 -0.46493,-0.0743 60.094471,-1.761 59.579391,-0.002 115.819931,0 -0.79522,0.0302 -1.32344,0.0459 -1.55871,0.0498 0.54432,-0.002 2.48984,0.0245 3.42466,0.39852 1.96677,0.78708 -6.52677,-0.0905 1.95923,0.71858 1.56562,0.14924 3.69737,0.0296 4.83389,0.34088 0.61243,0.16771 -1.56529,0.22637 -2.34803,0.33966 -1.79554,0.57238 -0.49118,0.27378 -4.64738,0.63337 -0.76702,0.19211 2.55476,0.35653 2.15741,0.61065 -0.28784,0.1841 -2.01157,0.12923 -1.95717,0.3268 0.0585,0.21227 1.42644,0.22396 2.13957,0.336 3.5758,0.46707 3.36151,0.22666 -0.30584,0.64867 -0.70187,0.0807 -1.76877,0.0774 -2.07989,0.25628 -0.86,0.49432 4.02694,0.0367 4.02881,0.52608 0,0.25739 -1.89695,0.18362 -2.84519,0.27527 10.93356,0.66462 1.7794,-0.0923 0.22628,0.58982 -0.55436,0.24341 2.29822,0.1208 3.07286,0.3219 0.33711,0.0875 -0.1515,0.26119 -0.50884,0.34333 -2.67454,0.614821 -4.4592,0.12749 0.45127,0.745581 -2.4698,0.12703 -5.1818,0.0821 -7.40962,0.38073 -0.65093,0.0872 0.85052,0.32324 1.49835,0.41201 10.52179,1.44163 0.12849,-0.38328 7.4206,0.87064 0.83874,0.14418 3.37339,0.35118 2.44955,0.45677 -3.1949,0.36512 -6.90881,0.29831 -10.36319,0.44758 2.63792,0.14788 6.28861,-0.10362 7.91364,0.44388 1.13338,0.38185 -3.88651,0.11878 -5.44012,0.38934 -0.49833,0.0867 1.36204,0.23313 1.08279,0.36909 -0.45337,0.22079 -2.20534,0.12981 -2.57979,0.35991 -0.76599,0.47073 0.69285,0.43102 1.79325,0.34395 -0.68214,0.0769 -1.64384,0.19053 -3.3698,0.41201 3.79703,1.09168 -2.6559,-0.61226 9.37771,0.69776 0.68481,0.0745 -1.1581,0.23797 -1.74526,0.35436 -0.60485,0.11993 -1.10299,0.29205 -1.83028,0.3544 -1.98824,0.1704 -7.33494,-0.11069 -6.16016,0.33046 1.49326,0.56074 5.267,0.21531 7.90064,0.32311 -4.75731,0.18478 -7.24613,0.27065 -8.74071,0.31882 2.53782,-0.0607 6.92212,-0.10945 6.14236,0.25505 -0.97775,0.45716 -7.69669,-0.0654 -6.07035,0.2514 2.3046,0.44872 5.77282,0.16844 8.65907,0.2526 -0.39586,0.0848 -1.45098,0.14113 -1.18774,0.25443 0.438,0.18839 1.58537,0.17158 2.37825,0.25751 -1.97963,0.0878 -4.02841,0.10472 -5.93868,0.26303 -0.37422,0.0311 -0.8533,0.22461 -0.50471,0.271 1.41303,0.18813 4.19205,-0.10527 4.65697,0.28205 0.40119,0.33414 -4.84614,0.029 -3.9616,0.29674 2.61539,0.79152 11.18171,-0.12546 1.99897,0.65481 5.12358,1.04097 -1.69955,-0.53354 -6.37208,0.75106 -1.24937,0.34353 3.62763,0.20275 5.29614,0.40102 6.54205,0.77735 -11.3909,0.72731 1.29401,1.18881 -0.97317,0.28726 -2.37678,0.67109 -2.10596,0.74313 0.88535,0.23549 2.48867,0.19558 3.54536,0.38013 0.50135,0.0877 1.39003,0.30176 0.91961,0.39974 -1.30059,0.27092 -4.50847,-0.0152 -4.78865,0.40589 -0.25092,0.37696 2.84356,0.25346 4.26541,0.38012 -0.50356,0.11951 -0.90741,0.27401 -1.51071,0.3587 -0.96532,0.13548 -3.87961,0.0898 -3.10651,0.28939 1.24987,0.32264 3.7459,0.0197 5.24881,0.26302 0.62704,0.10153 -1.94516,0.0798 -1.9654,0.26857 -0.0603,0.56059 7.89513,0.0277 6.25959,0.55669 -5.13425,0.62692 0.90543,-0.0591 -7.16065,0.58246 -0.90502,0.0719 -1.98163,0.1115 -2.59836,0.2943 -0.28056,0.0831 0.68389,0.17546 0.64601,0.28451 -0.19192,0.55161 -2.82499,-0.0488 0.8716,0.51992 1.60691,0.0897 4.01294,-0.094 4.82018,0.26975 1.25958,0.56755 -6.79991,-0.0622 -7.36368,0.57327 -0.30756,0.34665 7.84411,0.20505 4.72627,0.99694 -2.35695,0.12487 -5.03061,0.0498 -7.07088,0.37399 -0.77591,0.12341 1.52955,0.25601 2.28769,0.38626 0.72127,0.12401 1.3302,0.3021 2.15055,0.37647 2.03236,0.18427 5.03649,-0.0568 6.29114,0.38873 0.85059,0.30196 -2.82823,0.20883 -4.12623,0.38014 -0.68487,0.0904 -1.14978,0.26105 -1.72466,0.39176 9.71845,1.12382 -3.21556,-0.58437 -2.67787,0.77682 0.21504,0.54446 4.56738,0.0531 6.29526,0.38075 0.72638,0.13779 -2.44213,0.15914 -2.2589,0.38442 0.69157,0.85031 7.07516,-0.12806 -0.12213,0.70754 0.90387,0.11906 3.51435,0.19794 2.71151,0.35684 -1.69383,0.33525 -4.47809,0.0607 -6.29389,0.35193 -0.64567,0.10362 1.09766,0.2734 1.73839,0.3789 0.94769,0.15608 1.99894,0.2672 2.99812,0.401 -0.29338,0.13706 -1.27119,0.29103 -0.8805,0.41139 0.80817,0.249 2.32472,0.26105 3.48709,0.39178 0.044,0.12721 0.49116,0.29247 0.13236,0.38198 -2.45683,0.61284 -10.19548,0.52594 -8.3594,0.76148 3.27255,0.41984 7.42721,0.0738 10.90632,0.3679 1.4403,0.12181 -3.18679,0.553 -7.84715,0.90863 1.66261,0.047 3.31918,0.0977 4.72968,0.30841 0.76498,0.11429 -1.39508,0.29481 -2.23558,0.36724 -2.06211,0.17773 -4.25695,0.2354 -6.36519,0.374 -1.59598,0.10472 -6.26005,0.19266 -4.7427,0.35622 3.50942,0.37832 7.78024,0.0186 11.35273,0.35684 1.3284,0.12574 -2.6949,0.22353 -4.04256,0.33538 16.88154,0.88848 1.42916,-0.15344 0.73102,0.64808 -0.39477,0.45321 4.884,-0.0954 5.30639,0.35622 0.37243,0.39822 -3.30815,0.0674 -4.72898,0.26117 -0.87274,0.11922 2.05369,0.6294 1.28925,0.67934 5.781,1.09879 0.14063,-0.21839 -1.07804,0.69652 -0.32932,0.2472 2.4423,0.23606 2.38578,0.49663 -0.0872,0.40232 -5.49965,0.0755 -3.86974,0.4868 0.96744,0.24423 2.5406,0.25334 3.81075,0.38013 -4.19909,0.62012 -1.04036,-0.0738 -0.24483,0.80442 0.11615,0.12834 -0.59211,0.25484 -1.10197,0.27956 -1.41994,0.0687 -3.03935,-0.17714 -4.33677,-0.0153 -0.85172,0.10626 1.86573,0.11012 2.71492,0.21766 0.42641,0.054 0.67792,0.16952 1.01696,0.25445 -9.77074,-0.0199 3.635,-0.0366 4.49378,0.31329 1.14445,0.46628 -4.96647,-0.0748 -6.35013,0.34766 -0.90468,0.27621 5.19284,0.1923 3.97877,0.37704 -2.65074,0.4034 -8.48748,-0.35965 -9.13362,0.40711 -0.59894,0.71082 5.61811,0.28692 8.42731,0.43043 -5.04721,0.25848 -7.80679,0.38419 -9.65,0.4617 2.68295,-0.0668 6.3939,-0.0692 5.66572,0.43101 -0.70416,0.48362 -6.90097,0.0195 -5.82552,0.45678 1.42915,0.58135 5.39977,0.17501 7.94454,0.40466 0.40507,0.0366 0.0974,0.21657 0.14599,0.32492 -3.1223,0.0894 -6.24445,0.17913 -9.36676,0.26855 0,0.0843 -0.14047,0.16615 -0.39845,0.24586 -59.87612,1.53615 -58.20126,0.77648 -116.137441,0 z m 7.11063,-20.50762 c -3.12629,0.70065 -6.36009,1.00463 -3.38216,-0.86388 0.16408,1.01075 0.72245,0.75397 3.38216,0.86388 z M 178.57977,92.959229 c -0.21007,0.002 -0.4308,-0.0181 -0.65629,-0.0552 h 1.26594 c 0.19646,0 -0.39556,0.0533 -0.60965,0.0552 z"
       sodipodi:nodetypes="ccssssscssssccssscsssscssssccsssscsssscssscssssscscssscsssccssccsssscsssccssssccssscssssscssccssscsssscccsssscssccsssscccsssccsscssccssscsssscssssccssssccsscscsssscsscsssscsssscssccsscssssscssscssscscssscssssscssscssscsssscssssccssscccccscsccsc" />
    <path
       inkscape:export-ydpi="95"
       inkscape:export-xdpi="95"
       inkscape:export-filename="D:\Calcatz\Icon Pack\Adventure Narrative Inspired by Jumanji\Assets\PNG\Highlighter\09_pause_menu_gallery_selected.png"
       sodipodi:nodetypes="ccccccsssscccccsscssccsscccccssssccsssscscsscssccssssscscssscsssccssccsssscssccscccscscccssssccscssscsccccsccccccsssccssccsssscsscccsccsscscscccssccccccccscscssccscccsscccsssccsscscscsccsscsssscsssccssccssccsssccccccccsccccccssccscscccscccccccscccccsssccccccscsscsccccscccssscccccc"
       d="m 109.17182,92.121749 c -37.992981,0.0205 -20.301542,0.45168 -52.890611,0.88846 -9.79e-4,4.21e-4 -0.002,8.6e-4 -0.002,8.6e-4 h 18.01403 c -0.21023,0.0488 -0.42696,0.0949 -0.59966,0.12763 -6.61321,1.25145 -1.15019,-0.23522 -4.68732,0.79272 1.22497,0.12689 2.80277,0.12806 3.67504,0.3804 0.39773,0.1151 -0.59064,0.28256 -1.09864,0.36508 -0.99127,0.16105 -3.5157,0.0519 -3.26102,0.3434 0.29183,0.33405 2.73154,0.12777 3.84281,0.32168 0.33567,0.0586 -0.17655,0.20163 -0.26485,0.30253 1.14509,0.0956 2.29017,0.19152 3.43518,0.28722 -2.46885,0.0916 -4.9383,0.18343 -7.40719,0.27507 -0.0352,0.0887 -0.44509,0.24303 -0.10571,0.26618 2.54303,0.17317 5.26559,0.11197 7.83268,0.26039 0.4809,0.0278 1.5118,0.19445 1.08225,0.25596 -1.51233,0.21658 -3.41364,0.17416 -5.06139,0.31338 -0.9284,0.0784 -1.74696,0.22331 -2.62067,0.33508 -8.37381,0.59431 -4.2702,0.0794 -0.15703,0.66318 1.10144,0.1563 -1.85483,0.82767 -1.78898,0.92673 0.10098,0.15188 0.88397,0.21154 1.32565,0.31724 4.21208,0.24481 6.06493,0.32398 6.79612,0.34847 -0.99651,-0.0223 -3.31152,-0.0255 -3.80354,0.331911 -0.25988,0.18873 2.55602,0.25442 1.88965,0.36124 -1.83886,0.29476 -4.67322,0.013 -6.37209,0.35742 -0.8158,0.1655 1.86136,0.24166 2.76628,0.37404 0.15866,0.0231 0.30858,0.0499 0.46473,0.0742 -2.6444,0.0774 -5.33309,0.14632 -8.04113,0.21062 0.12472,8.7e-4 0.089,6.9e-4 0.2213,0.002 2.31027,0.0225 8.38813,-0.38703 6.93105,0.0682 -1.75233,0.54759 -5.58164,0.12778 -8.23386,0.33954 -0.55482,0.0442 1.02517,0.14042 1.56981,0.19213 0.95901,0.0913 3.17749,-0.0166 2.92977,0.23552 -0.2755,0.28032 -2.72162,0.3007 -4.36896,0.27892 1.39377,0.0432 3.84896,0.12995 8.2296,0.31339 -16.36858,0.61144 -9.34585,-0.11963 -6.38848,0.68165 0.31914,0.0865 -0.11629,0.25704 0.15411,0.35361 0.46063,0.1644 1.93715,0.17154 1.87963,0.37273 -0.0612,0.21427 -2.60941,0.19589 -2.09094,0.36573 0.71816,0.23524 2.00483,0.27254 3.22886,0.3319 -1.29299,0.25138 -2.97558,0.80375 -2.09593,0.8891 2.58239,0.2505 10.37726,-0.0506 8.16533,0.37018 -3.24128,0.61659 -8.11208,0.1465 -12.06526,0.37147 -0.65779,0.0376 -1.95665,0.33755 -1.31495,0.38998 3.44943,0.28179 7.17845,0.25554 10.76743,0.38296 -0.1799,0.0233 -6.03097,0.77876 -6.13509,0.80294 -0.40056,0.0931 -0.0298,0.29828 -0.38977,0.40145 -0.61191,0.17536 -2.38404,0.14531 -2.33295,0.37913 0.20991,0.96025 6.02582,-0.23359 0.33766,0.70847 1.86862,0.1157 3.87416,0.1346 5.60539,0.34721 0.42899,0.0526 -0.20076,0.28012 0.15492,0.36062 0.86678,0.19617 4.24393,0.29449 3.13751,0.38423 -4.02002,0.32606 -8.54325,0.062 -12.57212,0.38104 -1.01685,0.0805 1.85658,0.26488 2.79412,0.39318 0.95393,0.13053 1.91982,0.25593 2.87979,0.38359 0.92932,-0.18763 5.42797,0.92691 3.52584,1.16035 -1.34454,0.16504 -2.41142,0.2379 -3.26527,0.27319 2.55575,0.57279 5.03979,1.40973 3.99843,1.54969 -1.45226,0.19521 -3.2121,0.18249 -4.77586,0.31083 -0.89951,0.0738 -3.50372,0.23277 -2.58924,0.29362 8.62153,0.57358 16.39758,-0.0526 6.99672,0.54954 -3.0334,0.22275 -3.09262,0.12689 -5.07853,0.52018 -0.43792,0.0867 -1.585,0.17502 -1.23286,0.28401 0.69957,0.2166 2.16271,0.14734 3.10251,0.29425 0.37857,0.0591 0.44007,0.19627 0.66035,0.29424 0.97764,0.0962 1.95568,0.19224 2.93331,0.28848 -22.07904,0.79729 1.1033,-0.22696 -0.14128,0.55656 -1.0702,0.67371 -7.54545,-0.41377 -8.52513,0.26872 -2.23382,1.5561 1.49666,1.27098 4.53811,0.83102 -0.12134,0.0268 -0.24126,0.0537 -0.36478,0.0798 -0.63715,0.12675 -2.49187,0.23696 -1.91247,0.38038 1.27173,0.31485 4.79554,-0.0387 5.08565,0.40595 0.2625,0.40251 -3.20705,0.17876 -4.55954,0.39957 -0.4239,0.0691 0.0374,0.26987 -0.21632,0.38039 -1.43345,0.62463 -2.46196,0.0733 -0.0872,0.74293 -0.42759,0.33597 1.9283,0.4977 1.71831,0.79527 -0.13072,0.18519 -2.02196,0.24013 -1.59408,0.3938 0.67677,0.24312 2.43009,0.1508 3.38806,0.30127 h 0.42477 c 2.41882,0.13373 6.88505,-0.12965 5.92307,0.30381 -0.80728,0.36373 -3.21324,0.1802 -4.82014,0.26997 -0.88345,0.13592 -1.38822,0.2028 -1.66833,0.23681 0.0461,0.0117 0.0922,0.0233 0.13852,0.0351 0.27754,0.0153 0.59564,0.0679 0.6582,0.24764 0.0274,0.079 -0.46244,0.14881 -0.63249,0.21317 1.35634,0.013 2.83805,-0.046 3.62293,0.19913 0.3936,0.12284 -0.29892,0.13968 -1.18432,0.15574 0.048,0.002 0.0994,0.007 0.14632,0.0115 8.06607,0.6415 2.02668,-0.0441 7.16091,0.58273 1.63556,0.52902 -6.31952,-0.002 -6.2593,0.55656 0.0202,0.18868 2.59237,0.16718 1.96533,0.26871 -1.5029,0.24332 -3.99928,-0.0597 -5.24915,0.26298 -0.77311,0.19957 2.14149,0.15367 3.1068,0.28912 0.60332,0.0848 1.007,0.23927 1.51056,0.35869 -1.22182,0.1089 -3.67328,0.0339 -4.18118,0.24958 1.06876,0.065 2.32981,0.0685 2.90547,0.29039 0.10901,0.0419 0.07,0.0808 -0.0465,0.11688 0.70793,0.0131 1.39449,0.0358 1.84539,0.12953 0.47042,0.0978 -0.41814,0.31196 -0.91948,0.39953 -1.0567,0.18456 -2.66047,0.14491 -3.54583,0.38041 -0.27085,0.0719 1.13277,0.4557 2.10593,0.74293 -12.68489,0.46154 5.2485,0.41108 -1.29354,1.18845 -0.92987,0.11048 -2.83264,0.11703 -4.13978,0.15957 -0.0172,0.0383 -0.0482,0.0748 -0.12784,0.10472 -0.3905,0.0932 -0.59867,0.13981 -0.81954,0.1902 4.66309,1.18389 11.21106,-0.32803 6.16292,0.6976 9.18273,0.78034 0.61654,-0.13662 -1.99887,0.65486 -0.73713,0.22316 2.77378,0.0498 3.73575,0.17871 h 7.57422 c -0.0209,0.009 -0.067,0.0174 -0.17061,0.0243 -2.91858,0.19417 -5.68146,0.24702 -7.7727,0.26041 -0.73095,0.0831 -1.93581,0.0323 -2.97189,0.051 0.54594,0.0382 1.59152,0.0999 3.74788,0.23807 3.0334,0.22275 3.09263,0.12633 5.07854,0.51955 0.43791,0.0867 1.58497,0.17565 1.23286,0.28468 -0.69959,0.21657 -2.16271,0.14733 -3.10254,0.29422 -0.37854,0.0591 -0.44004,0.19564 -0.66033,0.29359 -0.97763,0.0962 -1.95569,0.19289 -2.93332,0.28914 22.079031,0.79728 -1.10328,-0.22696 0.14128,0.55657 1.0702,0.67371 7.54544,-0.41378 8.525141,0.2687 2.233819,1.5561 -1.496671,1.27033 -4.538111,0.83038 0.12134,0.0268 0.24126,0.0543 0.36477,0.0805 0.63715,0.12673 2.49188,0.23696 1.91248,0.38039 -1.27175,0.31485 -4.79558,-0.0387 -5.08566,0.40593 -0.26252,0.40252 3.20706,0.17876 4.55953,0.39956 0.4239,0.0691 -0.0374,0.26988 0.21632,0.38041 1.43345,0.62463 2.46197,0.0733 0.087,0.74291 0.42759,0.33599 -1.92828,0.49773 -1.7183,0.7953 0.13073,0.18516 2.02196,0.24012 1.59408,0.3938 -0.79259,0.2847 -3.07066,0.10648 -3.80639,0.40083 -0.42622,0.17053 1.2244,0.25777 1.83681,0.38677 -0.47917,0.12124 -0.95787,0.24317 -1.43705,0.36446 0.60902,0.11303 2.44154,0.22793 1.82684,0.33891 -1.48588,0.26824 -4.15369,-0.0361 -5.37052,0.2936 54.018741,1.39546 32.553621,0.1474 85.375531,-0.0918 -0.39123,-0.0615 -0.718,-0.14083 -0.44475,-0.17998 1.51234,-0.21661 3.41365,-0.17417 5.06141,-0.31339 0.92838,-0.0784 1.74695,-0.22332 2.62065,-0.33509 8.37382,-0.59431 4.27023,-0.0793 0.15704,-0.66315 -0.8381,-0.11891 0.66688,-0.53471 1.40847,-0.77101 -0.36641,-0.0348 -0.69915,-0.0835 -0.97228,-0.1583 -0.31376,-0.0859 0.1078,-0.14329 0.69601,-0.19402 -0.23301,-0.0391 -0.48067,-0.0756 -0.6689,-0.12065 -4.21207,-0.24483 -6.06491,-0.324 -6.79613,-0.34848 0.99651,0.0223 3.31153,0.0255 3.80355,-0.3319 0.25988,-0.18875 -2.55601,-0.25444 -1.88964,-0.36126 1.83886,-0.29476 4.67322,-0.013 6.37207,-0.35742 0.81581,-0.16549 -1.86136,-0.24165 -2.76628,-0.37403 -0.15866,-0.0231 -0.30857,-0.0498 -0.46471,-0.0738 1.90696,-0.0559 3.8319,-0.10802 5.77241,-0.15703 -2.7779,-0.34012 -2.48715,-0.18619 0.90306,-0.57633 0.70187,-0.0807 1.76912,-0.0777 2.08024,-0.25658 0.85996,-0.4943 -4.02727,-0.0367 -4.02914,-0.52592 0,-0.2574 1.89658,-0.18344 2.84482,-0.27509 -10.93358,-0.66463 -1.77872,0.0924 -0.22559,-0.58978 0.55436,-0.24337 -2.2986,-0.12051 -3.07326,-0.32165 -0.33707,-0.0874 0.15168,-0.26125 0.50899,-0.34341 2.67456,-0.61481 4.4593,-0.12805 -0.45115,-0.74612 2.46978,-0.12703 5.18152,-0.0815 7.40935,-0.38039 0.65092,-0.0872 -0.8506,-0.32355 -1.49845,-0.41232 -0.41812,-0.0573 -0.61209,-0.0796 -0.96658,-0.12703 h 8.39236 c 1.0039,-0.12097 2.16244,-0.25129 1.49058,-0.32808 -3.19492,-0.36513 -6.90899,-0.29814 -10.36338,-0.44744 2.63794,-0.14787 6.28902,0.1034 7.91405,-0.4442 1.13339,-0.38185 -3.88687,-0.11877 -5.44046,-0.38935 -0.49833,-0.0867 1.36221,-0.23293 1.08296,-0.36893 -0.45338,-0.22077 -2.20549,-0.1298 -2.57997,-0.35997 -0.76597,-0.47074 0.69286,-0.43108 1.79326,-0.34402 -0.68212,-0.0769 -1.64357,-0.19083 -3.3695,-0.41231 3.797,-1.09167 -2.6561,0.61238 9.3775,-0.69763 0.6848,-0.0745 -1.15827,-0.23782 -1.74543,-0.35423 -0.60485,-0.11994 -1.1031,-0.29189 -1.83037,-0.35422 -1.98825,-0.17041 -7.33483,0.11046 -6.16007,-0.33063 1.49326,-0.56076 5.26687,-0.21517 7.9005,-0.32296 -4.75732,-0.18476 -7.24616,-0.27096 -8.74073,-0.31914 2.53782,0.0608 6.92267,0.10989 6.14292,-0.25468 -0.97778,-0.45712 -7.69718,0.0652 -6.07083,-0.25145 2.3046,-0.44874 5.77312,-0.16859 8.65936,-0.25274 -0.39587,-0.0848 -1.45116,-0.14143 -1.1879,-0.25467 0.43798,-0.1884 1.58576,-0.17129 2.37862,-0.25724 -1.97962,-0.0877 -4.02845,-0.10461 -5.93874,-0.26297 -0.3742,-0.0311 -0.85331,-0.22488 -0.5047,-0.27127 1.41301,-0.1881 4.1917,0.10516 4.65662,-0.28208 0.40118,-0.33415 -4.84585,-0.029 -3.96131,-0.2968 2.61541,-0.79153 11.1816,0.12617 1.99887,-0.65422 5.12358,-1.04094 -1.69956,0.53337 -6.37209,-0.75122 0,0 3.62777,-0.20258 5.29627,-0.40083 6.54206,-0.77738 -11.39137,-0.72756 1.29355,-1.18909 -0.97318,-0.28722 -2.37679,-0.67088 -2.10595,-0.74293 0.88537,-0.23548 2.48916,-0.19586 3.54584,-0.38039 0.50136,-0.0876 1.3899,-0.30158 0.91948,-0.39957 -1.30061,-0.27088 -4.50852,0.0152 -4.78871,-0.40594 -0.25091,-0.37693 2.84359,-0.2537 4.26543,-0.38038 -0.50356,-0.1195 -0.90725,-0.27402 -1.51055,-0.35874 -0.96532,-0.13545 -3.87992,-0.0895 -3.10681,-0.2891 1.24988,-0.32265 3.74625,-0.0197 5.24916,-0.26298 0.62703,-0.10153 -1.94509,-0.0801 -1.96533,-0.26872 -0.0603,-0.56059 7.89483,-0.0276 6.2593,-0.55654 -5.13427,-0.62692 0.90517,0.0589 -7.16093,-0.58274 -0.90501,-0.0719 -1.98106,-0.11138 -2.5978,-0.29425 -0.28058,-0.083 0.68324,-0.17561 0.64536,-0.28466 -0.19192,-0.55165 -2.82493,0.0492 0.87164,-0.51954 1.6069,-0.0898 4.01285,0.0937 4.8201,-0.26998 1.2596,-0.56753 -6.79987,0.0623 -7.36365,-0.57317 -0.30753,-0.34662 7.84444,-0.20507 4.72658,-0.99696 -2.35691,-0.12487 -5.0307,-0.0498 -7.07096,-0.37399 -0.77593,-0.12342 1.52985,-0.25594 2.28798,-0.38618 0.72128,-0.12399 1.32986,-0.30218 2.15021,-0.37656 2.03233,-0.18427 5.03677,0.0568 6.29141,-0.38871 0.21859,-0.0776 0.1317,-0.12864 -0.13073,-0.16531 h -5.70534 c -1.52817,-0.0725 -3.39797,-0.1644 -5.84595,-0.28976 1.82482,-0.0932 5.0783,0.0517 6.97674,-0.0293 -0.40078,-0.0889 -0.74878,-0.19697 -1.14577,-0.28723 1.58204,-0.18294 1.81063,-0.20465 2.34795,-0.26296 -0.0405,-0.0158 -0.0862,-0.0303 -0.13415,-0.0441 -1.50556,0.0952 -3.76408,0.18127 -4.5981,-0.11746 -1.5378,0.0391 -3.09729,0.0637 -4.15333,-0.097 -0.99452,-0.15134 2.91194,-0.12284 3.86207,-0.25913 0.0184,-0.0423 0.0703,-0.0767 0.13642,-0.10725 -0.01,-0.002 -0.007,-0.005 -0.0192,-0.01 -1.38366,-0.42244 -7.49512,0.11848 -6.35067,-0.34783 0.85876,-0.34982 14.26459,-0.33327 4.49387,-0.31339 0.33906,-0.0849 0.59086,-0.20006 1.01726,-0.25402 0.8492,-0.10758 3.56661,-0.1114 2.71489,-0.21765 -1.29741,-0.16185 -2.91688,0.0841 -4.3368,0.0154 -0.50989,-0.0246 -1.21843,-0.15188 -1.10224,-0.2802 0.79555,-0.87832 3.95421,-0.18409 -0.24486,-0.80421 1.27013,-0.12675 2.84324,-0.13546 3.81068,-0.37978 1.62992,-0.41153 -3.78206,-0.0847 -3.86922,-0.48698 -0.0565,-0.26055 2.71508,-0.24935 2.38579,-0.49657 -1.21876,-0.91486 -6.85895,0.40242 -1.07798,-0.69634 -0.76443,-0.0499 2.16202,-0.56055 1.28929,-0.67976 -1.42083,-0.19384 -5.10186,0.13721 -4.72946,-0.26103 0.42239,-0.4515 5.70103,0.097 5.30626,-0.35616 -0.69813,-0.80151 -16.15052,0.24003 0.73104,-0.64847 -1.34769,-0.11197 -5.37041,-0.20931 -4.04201,-0.33508 2.76029,-0.26126 5.93419,-0.1089 8.85495,-0.19914 -2.05331,-0.17567 -4.23631,-0.23416 -6.33423,-0.37209 -1.59597,-0.10472 -6.26036,-0.19257 -4.74303,-0.35616 0.79791,-0.086 1.63844,-0.13111 2.49787,-0.15765 -0.009,-8.5e-4 -0.0207,-8.7e-4 -0.0307,-0.002 -0.8405,-0.0725 -3.00085,-0.25339 -2.23588,-0.36764 1.41051,-0.21069 3.06684,-0.26122 4.72943,-0.30828 -4.66033,-0.35562 -9.28722,-0.78648 -7.84694,-0.90826 0.12719,-0.0115 0.2609,-0.0155 0.38977,-0.0243 h 1.7883 c 0.44782,-0.19537 1.28518,-0.43086 2.01382,-0.5725 -1.22403,-0.0594 -2.5107,-0.0967 -3.22886,-0.33191 -0.51849,-0.16984 2.02976,-0.15145 2.09096,-0.36571 0.0575,-0.20122 -1.41902,-0.20836 -1.87965,-0.37277 -0.27054,-0.0966 0.16494,-0.26713 -0.15428,-0.35359 -2.95735,-0.80134 -9.9801,-0.0703 6.38847,-0.68166 -4.38064,-0.18337 -6.8358,-0.27016 -8.22956,-0.31339 1.64731,0.0217 4.09343,8.73e-4 4.36893,-0.27891 0.24773,-0.25207 -1.97076,-0.14418 -2.92975,-0.23552 -0.54463,-0.0517 -2.12465,-0.14792 -1.56981,-0.19212 2.65221,-0.21175 6.48151,0.20806 8.23385,-0.33955 1.45708,-0.45533 -4.62077,-0.0456 -6.93104,-0.0682 -9.17635,-0.12965 -0.21771,0.0958 3.93133,-0.54888 1.32232,-0.20556 -3.58667,0.27057 -4.65163,-0.0153 -0.79145,-0.21249 3.52075,-0.15334 3.03755,-0.41871 -0.55775,-0.30623 -4.84285,0.16007 -3.97272,-0.0951 1.52589,-0.44753 4.19813,-0.49829 6.4099,-0.7085 -0.008,-0.007 -0.0188,-0.0145 -0.0257,-0.0223 -0.013,-0.0145 -0.0169,-0.0278 -0.0235,-0.0416 -5.17278,-0.21574 4.04232,0.13853 -6.59124,-0.0332 -0.67522,-0.0115 -2.44153,-0.0377 -1.93888,-0.15252 1.653,-0.37781 5.24969,-0.22997 5.95445,-0.7653 0.49572,-0.37645 -3.00048,-0.22551 -4.501,-0.33826 0.40187,-0.14564 0.8039,-0.29095 1.20574,-0.43656 -1.19215,-0.1809 -3.1362,-0.20843 -3.57726,-0.54255 -0.29055,-0.22014 1.8766,-0.13765 2.43717,-0.32103 0.29088,-0.0953 -0.5229,-0.23113 -0.39691,-0.34724 0.0567,-0.0522 0.17343,-0.0969 0.30696,-0.13908 -25.15671,-0.595851 -20.84965,-0.810461 -48.8948,-0.795291 z M 63.391429,113.51816 c -3.12628,-0.70066 -6.36029,-1.00498 -3.38236,0.86357 0.16408,-1.01075 0.72263,-0.75365 3.38236,-0.86357 z"
       style="fill:#d2c7c3;fill-opacity:1;stroke:none;stroke-width:1.061;stroke-linecap:square;stroke-miterlimit:4;stroke-dasharray:none;stroke-opacity:0.5;paint-order:fill markers stroke"
       id="path9136" />
  </g>
</svg>
